G04 #@! TF.GenerationSoftware,KiCad,Pcbnew,(5.0.0)*
G04 #@! TF.CreationDate,2018-09-15T15:06:13-04:00*
G04 #@! TF.ProjectId,STMPod,53544D506F642E6B696361645F706362,rev?*
G04 #@! TF.SameCoordinates,Original*
G04 #@! TF.FileFunction,Legend,Bot*
G04 #@! TF.FilePolarity,Positive*
%FSLAX46Y46*%
G04 Gerber Fmt 4.6, Leading zero omitted, Abs format (unit mm)*
G04 Created by KiCad (PCBNEW (5.0.0)) date 09/15/18 15:06:13*
%MOMM*%
%LPD*%
G01*
G04 APERTURE LIST*
%ADD10C,0.120000*%
%ADD11C,0.010000*%
%ADD12C,0.150000*%
G04 APERTURE END LIST*
D10*
G04 #@! TO.C,R1*
X173319221Y-99443000D02*
X173644779Y-99443000D01*
X173319221Y-98423000D02*
X173644779Y-98423000D01*
G04 #@! TO.C,Y1*
X180262000Y-93160000D02*
X180262000Y-92760000D01*
X180262000Y-92760000D02*
X176862000Y-92760000D01*
X176862000Y-92760000D02*
X176862000Y-93160000D01*
X180262000Y-100600000D02*
X176862000Y-100600000D01*
X176462000Y-99960000D02*
X176862000Y-99960000D01*
X176862000Y-99960000D02*
X176862000Y-100360000D01*
X176862000Y-100360000D02*
X180262000Y-100360000D01*
X180262000Y-100360000D02*
X180262000Y-99960000D01*
G04 #@! TO.C,C1*
X175422779Y-74293000D02*
X175097221Y-74293000D01*
X175422779Y-75313000D02*
X175097221Y-75313000D01*
G04 #@! TO.C,C2*
X172595000Y-84673221D02*
X172595000Y-84998779D01*
X171575000Y-84673221D02*
X171575000Y-84998779D01*
G04 #@! TO.C,C3*
X172976000Y-91221779D02*
X172976000Y-90896221D01*
X171956000Y-91221779D02*
X171956000Y-90896221D01*
G04 #@! TO.C,C4*
X175385000Y-90332779D02*
X175385000Y-90007221D01*
X176405000Y-90332779D02*
X176405000Y-90007221D01*
G04 #@! TO.C,J2*
X181550000Y-72330000D02*
X184210000Y-72330000D01*
X181550000Y-100330000D02*
X181550000Y-72330000D01*
X184210000Y-100330000D02*
X184210000Y-72330000D01*
X181550000Y-100330000D02*
X184210000Y-100330000D01*
X181550000Y-101600000D02*
X181550000Y-102930000D01*
X181550000Y-102930000D02*
X182880000Y-102930000D01*
G04 #@! TO.C,J3*
X166310000Y-102930000D02*
X167640000Y-102930000D01*
X166310000Y-101600000D02*
X166310000Y-102930000D01*
X166310000Y-100330000D02*
X168970000Y-100330000D01*
X168970000Y-100330000D02*
X168970000Y-72330000D01*
X166310000Y-100330000D02*
X166310000Y-72330000D01*
X166310000Y-72330000D02*
X168970000Y-72330000D01*
D11*
G04 #@! TO.C,REF\002A\002A*
G36*
X168946348Y-94718910D02*
X168946778Y-94797454D01*
X168947942Y-94854298D01*
X168950207Y-94893105D01*
X168953940Y-94917538D01*
X168959506Y-94931262D01*
X168967273Y-94937940D01*
X168977605Y-94941236D01*
X168978943Y-94941556D01*
X169003079Y-94946562D01*
X169050701Y-94955829D01*
X169116741Y-94968392D01*
X169196128Y-94983287D01*
X169283796Y-94999551D01*
X169286875Y-95000119D01*
X169372789Y-95016410D01*
X169448696Y-95031652D01*
X169510045Y-95044861D01*
X169552282Y-95055054D01*
X169570855Y-95061248D01*
X169571184Y-95061543D01*
X169580253Y-95079788D01*
X169595367Y-95117405D01*
X169613262Y-95166271D01*
X169613358Y-95166543D01*
X169636493Y-95228093D01*
X169665965Y-95300657D01*
X169695597Y-95369057D01*
X169697062Y-95372294D01*
X169747626Y-95483702D01*
X169579160Y-95730399D01*
X169527803Y-95806077D01*
X169481889Y-95874631D01*
X169444030Y-95932088D01*
X169416837Y-95974476D01*
X169402921Y-95997825D01*
X169401889Y-96000042D01*
X169406484Y-96017010D01*
X169428655Y-96048701D01*
X169469447Y-96096352D01*
X169529905Y-96161198D01*
X169594227Y-96227397D01*
X169657612Y-96291214D01*
X169715451Y-96348329D01*
X169764175Y-96395305D01*
X169800210Y-96428703D01*
X169819984Y-96445085D01*
X169821002Y-96445694D01*
X169834572Y-96447505D01*
X169856733Y-96440683D01*
X169890478Y-96423540D01*
X169938800Y-96394393D01*
X170004692Y-96351555D01*
X170089517Y-96294448D01*
X170164177Y-96243766D01*
X170231140Y-96198461D01*
X170286516Y-96161150D01*
X170326420Y-96134452D01*
X170346962Y-96120985D01*
X170348356Y-96120137D01*
X170368038Y-96121781D01*
X170406293Y-96134245D01*
X170455889Y-96155048D01*
X170471728Y-96162462D01*
X170542290Y-96194814D01*
X170622353Y-96229328D01*
X170691629Y-96257365D01*
X170743045Y-96277568D01*
X170782119Y-96293615D01*
X170802541Y-96302888D01*
X170804114Y-96304041D01*
X170806721Y-96321096D01*
X170813863Y-96361298D01*
X170824523Y-96419302D01*
X170837685Y-96489763D01*
X170852333Y-96567335D01*
X170867449Y-96646672D01*
X170882018Y-96722431D01*
X170895022Y-96789264D01*
X170905445Y-96841828D01*
X170912270Y-96874776D01*
X170914199Y-96882857D01*
X170918962Y-96891205D01*
X170929718Y-96897506D01*
X170950098Y-96902045D01*
X170983734Y-96905104D01*
X171034255Y-96906967D01*
X171105292Y-96907918D01*
X171200476Y-96908240D01*
X171239492Y-96908257D01*
X171556799Y-96908257D01*
X171571839Y-96832057D01*
X171579995Y-96789663D01*
X171591899Y-96726400D01*
X171606116Y-96649962D01*
X171621210Y-96568043D01*
X171625355Y-96545400D01*
X171640053Y-96469806D01*
X171654505Y-96403953D01*
X171667375Y-96353366D01*
X171677322Y-96323574D01*
X171680287Y-96318612D01*
X171701283Y-96306426D01*
X171741967Y-96288953D01*
X171794322Y-96269577D01*
X171805600Y-96265734D01*
X171875523Y-96240339D01*
X171954418Y-96208817D01*
X172025266Y-96177969D01*
X172025595Y-96177817D01*
X172136733Y-96126447D01*
X172385253Y-96295399D01*
X172633772Y-96464352D01*
X172851058Y-96247429D01*
X172915726Y-96181819D01*
X172972733Y-96121979D01*
X173019033Y-96071267D01*
X173051584Y-96033046D01*
X173067343Y-96010675D01*
X173068343Y-96007466D01*
X173060469Y-95988626D01*
X173038578Y-95950180D01*
X173005267Y-95896330D01*
X172963131Y-95831276D01*
X172915943Y-95760940D01*
X172867810Y-95689555D01*
X172825928Y-95625908D01*
X172792871Y-95574041D01*
X172771218Y-95537995D01*
X172763543Y-95521867D01*
X172770037Y-95502189D01*
X172787150Y-95464875D01*
X172811326Y-95417621D01*
X172814013Y-95412612D01*
X172845927Y-95348977D01*
X172861579Y-95305341D01*
X172861745Y-95278202D01*
X172847204Y-95264057D01*
X172847000Y-95263975D01*
X172829779Y-95256905D01*
X172788899Y-95240042D01*
X172727525Y-95214695D01*
X172648819Y-95182171D01*
X172555947Y-95143778D01*
X172452072Y-95100822D01*
X172351502Y-95059222D01*
X172240516Y-95013504D01*
X172137703Y-94971526D01*
X172046215Y-94934548D01*
X171969201Y-94903827D01*
X171909815Y-94880622D01*
X171871209Y-94866190D01*
X171856800Y-94861743D01*
X171840272Y-94872896D01*
X171813930Y-94902069D01*
X171784887Y-94940971D01*
X171693039Y-95051757D01*
X171587759Y-95138351D01*
X171471266Y-95199716D01*
X171345776Y-95234815D01*
X171213507Y-95242608D01*
X171152457Y-95236943D01*
X171025795Y-95206078D01*
X170913941Y-95152920D01*
X170818001Y-95080767D01*
X170739076Y-94992917D01*
X170678270Y-94892665D01*
X170636687Y-94783310D01*
X170615428Y-94668147D01*
X170615599Y-94550475D01*
X170638301Y-94433590D01*
X170684638Y-94320789D01*
X170755713Y-94215369D01*
X170795911Y-94171368D01*
X170899129Y-94086979D01*
X171011925Y-94028222D01*
X171131010Y-93994704D01*
X171253095Y-93986035D01*
X171374893Y-94001823D01*
X171493116Y-94041678D01*
X171604475Y-94105207D01*
X171705684Y-94192021D01*
X171784887Y-94289029D01*
X171815162Y-94329437D01*
X171841219Y-94357982D01*
X171856825Y-94368257D01*
X171873843Y-94362877D01*
X171914500Y-94347575D01*
X171975642Y-94323612D01*
X172054119Y-94292244D01*
X172146780Y-94254732D01*
X172250472Y-94212333D01*
X172351526Y-94170663D01*
X172462607Y-94124690D01*
X172565541Y-94082107D01*
X172657165Y-94044221D01*
X172734316Y-94012340D01*
X172793831Y-93987771D01*
X172832544Y-93971820D01*
X172847000Y-93965910D01*
X172861685Y-93951948D01*
X172861642Y-93924940D01*
X172846099Y-93881413D01*
X172814284Y-93817890D01*
X172814013Y-93817388D01*
X172789323Y-93769560D01*
X172771338Y-93730897D01*
X172763614Y-93709095D01*
X172763543Y-93708133D01*
X172771378Y-93691721D01*
X172793165Y-93655487D01*
X172826328Y-93603474D01*
X172868291Y-93539725D01*
X172915943Y-93469060D01*
X172964191Y-93397116D01*
X173006151Y-93332274D01*
X173039227Y-93278735D01*
X173060821Y-93240697D01*
X173068343Y-93222533D01*
X173058457Y-93205808D01*
X173030826Y-93172180D01*
X172988495Y-93125010D01*
X172934505Y-93067658D01*
X172871899Y-93003484D01*
X172850983Y-92982497D01*
X172633623Y-92765499D01*
X172391220Y-92930668D01*
X172316781Y-92980864D01*
X172249972Y-93024919D01*
X172194665Y-93060362D01*
X172154729Y-93084719D01*
X172134036Y-93095522D01*
X172132563Y-93095838D01*
X172113058Y-93090143D01*
X172073822Y-93074826D01*
X172021430Y-93052537D01*
X171986355Y-93036893D01*
X171919201Y-93007641D01*
X171851358Y-92980094D01*
X171794034Y-92958737D01*
X171776572Y-92952935D01*
X171729938Y-92936452D01*
X171693905Y-92920340D01*
X171680287Y-92911490D01*
X171671952Y-92891960D01*
X171660137Y-92849334D01*
X171646181Y-92789145D01*
X171631422Y-92716922D01*
X171625355Y-92684600D01*
X171610273Y-92602522D01*
X171595669Y-92523795D01*
X171582980Y-92456109D01*
X171573642Y-92407160D01*
X171571839Y-92397943D01*
X171556799Y-92321743D01*
X171239492Y-92321743D01*
X171135154Y-92321914D01*
X171056213Y-92322616D01*
X170999038Y-92324134D01*
X170959999Y-92326749D01*
X170935465Y-92330746D01*
X170921805Y-92336409D01*
X170915389Y-92344020D01*
X170914199Y-92347143D01*
X170909980Y-92365978D01*
X170901562Y-92407588D01*
X170889961Y-92466630D01*
X170876195Y-92537757D01*
X170861280Y-92615625D01*
X170846232Y-92694887D01*
X170832069Y-92770198D01*
X170819806Y-92836213D01*
X170810461Y-92887587D01*
X170805050Y-92918975D01*
X170804114Y-92925959D01*
X170791596Y-92932285D01*
X170758246Y-92946290D01*
X170710377Y-92965355D01*
X170691629Y-92972634D01*
X170619195Y-93001996D01*
X170539170Y-93036571D01*
X170471728Y-93067537D01*
X170420159Y-93090323D01*
X170377785Y-93105482D01*
X170351834Y-93110542D01*
X170348356Y-93109736D01*
X170331936Y-93099041D01*
X170295417Y-93074620D01*
X170242687Y-93039095D01*
X170177635Y-92995087D01*
X170104151Y-92945217D01*
X170089645Y-92935356D01*
X170003704Y-92877492D01*
X169938261Y-92834956D01*
X169890304Y-92806054D01*
X169856820Y-92789090D01*
X169834795Y-92782367D01*
X169821217Y-92784190D01*
X169821131Y-92784236D01*
X169803297Y-92798586D01*
X169768817Y-92830323D01*
X169721268Y-92876010D01*
X169664222Y-92932204D01*
X169601255Y-92995468D01*
X169594227Y-93002602D01*
X169517020Y-93082330D01*
X169460330Y-93143857D01*
X169423110Y-93188421D01*
X169404315Y-93217257D01*
X169401889Y-93229958D01*
X169412471Y-93248494D01*
X169436916Y-93286961D01*
X169472612Y-93341386D01*
X169516947Y-93407798D01*
X169567311Y-93482225D01*
X169579160Y-93499601D01*
X169747626Y-93746297D01*
X169697062Y-93857706D01*
X169667595Y-93925457D01*
X169637959Y-93998183D01*
X169614330Y-94060703D01*
X169613358Y-94063457D01*
X169595457Y-94112360D01*
X169580320Y-94150057D01*
X169571210Y-94168425D01*
X169571184Y-94168456D01*
X169554717Y-94174285D01*
X169514219Y-94184192D01*
X169454242Y-94197195D01*
X169379340Y-94212309D01*
X169294064Y-94228552D01*
X169286875Y-94229881D01*
X169199014Y-94246175D01*
X169119260Y-94261133D01*
X169052681Y-94273791D01*
X169004347Y-94283186D01*
X168979325Y-94288354D01*
X168978943Y-94288444D01*
X168968299Y-94291589D01*
X168960262Y-94297704D01*
X168954467Y-94310453D01*
X168950547Y-94333500D01*
X168948135Y-94370509D01*
X168946865Y-94425144D01*
X168946371Y-94501067D01*
X168946286Y-94601944D01*
X168946286Y-94615000D01*
X168946348Y-94718910D01*
X168946348Y-94718910D01*
G37*
X168946348Y-94718910D02*
X168946778Y-94797454D01*
X168947942Y-94854298D01*
X168950207Y-94893105D01*
X168953940Y-94917538D01*
X168959506Y-94931262D01*
X168967273Y-94937940D01*
X168977605Y-94941236D01*
X168978943Y-94941556D01*
X169003079Y-94946562D01*
X169050701Y-94955829D01*
X169116741Y-94968392D01*
X169196128Y-94983287D01*
X169283796Y-94999551D01*
X169286875Y-95000119D01*
X169372789Y-95016410D01*
X169448696Y-95031652D01*
X169510045Y-95044861D01*
X169552282Y-95055054D01*
X169570855Y-95061248D01*
X169571184Y-95061543D01*
X169580253Y-95079788D01*
X169595367Y-95117405D01*
X169613262Y-95166271D01*
X169613358Y-95166543D01*
X169636493Y-95228093D01*
X169665965Y-95300657D01*
X169695597Y-95369057D01*
X169697062Y-95372294D01*
X169747626Y-95483702D01*
X169579160Y-95730399D01*
X169527803Y-95806077D01*
X169481889Y-95874631D01*
X169444030Y-95932088D01*
X169416837Y-95974476D01*
X169402921Y-95997825D01*
X169401889Y-96000042D01*
X169406484Y-96017010D01*
X169428655Y-96048701D01*
X169469447Y-96096352D01*
X169529905Y-96161198D01*
X169594227Y-96227397D01*
X169657612Y-96291214D01*
X169715451Y-96348329D01*
X169764175Y-96395305D01*
X169800210Y-96428703D01*
X169819984Y-96445085D01*
X169821002Y-96445694D01*
X169834572Y-96447505D01*
X169856733Y-96440683D01*
X169890478Y-96423540D01*
X169938800Y-96394393D01*
X170004692Y-96351555D01*
X170089517Y-96294448D01*
X170164177Y-96243766D01*
X170231140Y-96198461D01*
X170286516Y-96161150D01*
X170326420Y-96134452D01*
X170346962Y-96120985D01*
X170348356Y-96120137D01*
X170368038Y-96121781D01*
X170406293Y-96134245D01*
X170455889Y-96155048D01*
X170471728Y-96162462D01*
X170542290Y-96194814D01*
X170622353Y-96229328D01*
X170691629Y-96257365D01*
X170743045Y-96277568D01*
X170782119Y-96293615D01*
X170802541Y-96302888D01*
X170804114Y-96304041D01*
X170806721Y-96321096D01*
X170813863Y-96361298D01*
X170824523Y-96419302D01*
X170837685Y-96489763D01*
X170852333Y-96567335D01*
X170867449Y-96646672D01*
X170882018Y-96722431D01*
X170895022Y-96789264D01*
X170905445Y-96841828D01*
X170912270Y-96874776D01*
X170914199Y-96882857D01*
X170918962Y-96891205D01*
X170929718Y-96897506D01*
X170950098Y-96902045D01*
X170983734Y-96905104D01*
X171034255Y-96906967D01*
X171105292Y-96907918D01*
X171200476Y-96908240D01*
X171239492Y-96908257D01*
X171556799Y-96908257D01*
X171571839Y-96832057D01*
X171579995Y-96789663D01*
X171591899Y-96726400D01*
X171606116Y-96649962D01*
X171621210Y-96568043D01*
X171625355Y-96545400D01*
X171640053Y-96469806D01*
X171654505Y-96403953D01*
X171667375Y-96353366D01*
X171677322Y-96323574D01*
X171680287Y-96318612D01*
X171701283Y-96306426D01*
X171741967Y-96288953D01*
X171794322Y-96269577D01*
X171805600Y-96265734D01*
X171875523Y-96240339D01*
X171954418Y-96208817D01*
X172025266Y-96177969D01*
X172025595Y-96177817D01*
X172136733Y-96126447D01*
X172385253Y-96295399D01*
X172633772Y-96464352D01*
X172851058Y-96247429D01*
X172915726Y-96181819D01*
X172972733Y-96121979D01*
X173019033Y-96071267D01*
X173051584Y-96033046D01*
X173067343Y-96010675D01*
X173068343Y-96007466D01*
X173060469Y-95988626D01*
X173038578Y-95950180D01*
X173005267Y-95896330D01*
X172963131Y-95831276D01*
X172915943Y-95760940D01*
X172867810Y-95689555D01*
X172825928Y-95625908D01*
X172792871Y-95574041D01*
X172771218Y-95537995D01*
X172763543Y-95521867D01*
X172770037Y-95502189D01*
X172787150Y-95464875D01*
X172811326Y-95417621D01*
X172814013Y-95412612D01*
X172845927Y-95348977D01*
X172861579Y-95305341D01*
X172861745Y-95278202D01*
X172847204Y-95264057D01*
X172847000Y-95263975D01*
X172829779Y-95256905D01*
X172788899Y-95240042D01*
X172727525Y-95214695D01*
X172648819Y-95182171D01*
X172555947Y-95143778D01*
X172452072Y-95100822D01*
X172351502Y-95059222D01*
X172240516Y-95013504D01*
X172137703Y-94971526D01*
X172046215Y-94934548D01*
X171969201Y-94903827D01*
X171909815Y-94880622D01*
X171871209Y-94866190D01*
X171856800Y-94861743D01*
X171840272Y-94872896D01*
X171813930Y-94902069D01*
X171784887Y-94940971D01*
X171693039Y-95051757D01*
X171587759Y-95138351D01*
X171471266Y-95199716D01*
X171345776Y-95234815D01*
X171213507Y-95242608D01*
X171152457Y-95236943D01*
X171025795Y-95206078D01*
X170913941Y-95152920D01*
X170818001Y-95080767D01*
X170739076Y-94992917D01*
X170678270Y-94892665D01*
X170636687Y-94783310D01*
X170615428Y-94668147D01*
X170615599Y-94550475D01*
X170638301Y-94433590D01*
X170684638Y-94320789D01*
X170755713Y-94215369D01*
X170795911Y-94171368D01*
X170899129Y-94086979D01*
X171011925Y-94028222D01*
X171131010Y-93994704D01*
X171253095Y-93986035D01*
X171374893Y-94001823D01*
X171493116Y-94041678D01*
X171604475Y-94105207D01*
X171705684Y-94192021D01*
X171784887Y-94289029D01*
X171815162Y-94329437D01*
X171841219Y-94357982D01*
X171856825Y-94368257D01*
X171873843Y-94362877D01*
X171914500Y-94347575D01*
X171975642Y-94323612D01*
X172054119Y-94292244D01*
X172146780Y-94254732D01*
X172250472Y-94212333D01*
X172351526Y-94170663D01*
X172462607Y-94124690D01*
X172565541Y-94082107D01*
X172657165Y-94044221D01*
X172734316Y-94012340D01*
X172793831Y-93987771D01*
X172832544Y-93971820D01*
X172847000Y-93965910D01*
X172861685Y-93951948D01*
X172861642Y-93924940D01*
X172846099Y-93881413D01*
X172814284Y-93817890D01*
X172814013Y-93817388D01*
X172789323Y-93769560D01*
X172771338Y-93730897D01*
X172763614Y-93709095D01*
X172763543Y-93708133D01*
X172771378Y-93691721D01*
X172793165Y-93655487D01*
X172826328Y-93603474D01*
X172868291Y-93539725D01*
X172915943Y-93469060D01*
X172964191Y-93397116D01*
X173006151Y-93332274D01*
X173039227Y-93278735D01*
X173060821Y-93240697D01*
X173068343Y-93222533D01*
X173058457Y-93205808D01*
X173030826Y-93172180D01*
X172988495Y-93125010D01*
X172934505Y-93067658D01*
X172871899Y-93003484D01*
X172850983Y-92982497D01*
X172633623Y-92765499D01*
X172391220Y-92930668D01*
X172316781Y-92980864D01*
X172249972Y-93024919D01*
X172194665Y-93060362D01*
X172154729Y-93084719D01*
X172134036Y-93095522D01*
X172132563Y-93095838D01*
X172113058Y-93090143D01*
X172073822Y-93074826D01*
X172021430Y-93052537D01*
X171986355Y-93036893D01*
X171919201Y-93007641D01*
X171851358Y-92980094D01*
X171794034Y-92958737D01*
X171776572Y-92952935D01*
X171729938Y-92936452D01*
X171693905Y-92920340D01*
X171680287Y-92911490D01*
X171671952Y-92891960D01*
X171660137Y-92849334D01*
X171646181Y-92789145D01*
X171631422Y-92716922D01*
X171625355Y-92684600D01*
X171610273Y-92602522D01*
X171595669Y-92523795D01*
X171582980Y-92456109D01*
X171573642Y-92407160D01*
X171571839Y-92397943D01*
X171556799Y-92321743D01*
X171239492Y-92321743D01*
X171135154Y-92321914D01*
X171056213Y-92322616D01*
X170999038Y-92324134D01*
X170959999Y-92326749D01*
X170935465Y-92330746D01*
X170921805Y-92336409D01*
X170915389Y-92344020D01*
X170914199Y-92347143D01*
X170909980Y-92365978D01*
X170901562Y-92407588D01*
X170889961Y-92466630D01*
X170876195Y-92537757D01*
X170861280Y-92615625D01*
X170846232Y-92694887D01*
X170832069Y-92770198D01*
X170819806Y-92836213D01*
X170810461Y-92887587D01*
X170805050Y-92918975D01*
X170804114Y-92925959D01*
X170791596Y-92932285D01*
X170758246Y-92946290D01*
X170710377Y-92965355D01*
X170691629Y-92972634D01*
X170619195Y-93001996D01*
X170539170Y-93036571D01*
X170471728Y-93067537D01*
X170420159Y-93090323D01*
X170377785Y-93105482D01*
X170351834Y-93110542D01*
X170348356Y-93109736D01*
X170331936Y-93099041D01*
X170295417Y-93074620D01*
X170242687Y-93039095D01*
X170177635Y-92995087D01*
X170104151Y-92945217D01*
X170089645Y-92935356D01*
X170003704Y-92877492D01*
X169938261Y-92834956D01*
X169890304Y-92806054D01*
X169856820Y-92789090D01*
X169834795Y-92782367D01*
X169821217Y-92784190D01*
X169821131Y-92784236D01*
X169803297Y-92798586D01*
X169768817Y-92830323D01*
X169721268Y-92876010D01*
X169664222Y-92932204D01*
X169601255Y-92995468D01*
X169594227Y-93002602D01*
X169517020Y-93082330D01*
X169460330Y-93143857D01*
X169423110Y-93188421D01*
X169404315Y-93217257D01*
X169401889Y-93229958D01*
X169412471Y-93248494D01*
X169436916Y-93286961D01*
X169472612Y-93341386D01*
X169516947Y-93407798D01*
X169567311Y-93482225D01*
X169579160Y-93499601D01*
X169747626Y-93746297D01*
X169697062Y-93857706D01*
X169667595Y-93925457D01*
X169637959Y-93998183D01*
X169614330Y-94060703D01*
X169613358Y-94063457D01*
X169595457Y-94112360D01*
X169580320Y-94150057D01*
X169571210Y-94168425D01*
X169571184Y-94168456D01*
X169554717Y-94174285D01*
X169514219Y-94184192D01*
X169454242Y-94197195D01*
X169379340Y-94212309D01*
X169294064Y-94228552D01*
X169286875Y-94229881D01*
X169199014Y-94246175D01*
X169119260Y-94261133D01*
X169052681Y-94273791D01*
X169004347Y-94283186D01*
X168979325Y-94288354D01*
X168978943Y-94288444D01*
X168968299Y-94291589D01*
X168960262Y-94297704D01*
X168954467Y-94310453D01*
X168950547Y-94333500D01*
X168948135Y-94370509D01*
X168946865Y-94425144D01*
X168946371Y-94501067D01*
X168946286Y-94601944D01*
X168946286Y-94615000D01*
X168946348Y-94718910D01*
G36*
X173670966Y-97768595D02*
X173708497Y-97826021D01*
X173742096Y-97853719D01*
X173803064Y-97875662D01*
X173851308Y-97877405D01*
X173915816Y-97873457D01*
X173980934Y-97724686D01*
X174014202Y-97652349D01*
X174040964Y-97605084D01*
X174064144Y-97580507D01*
X174086667Y-97576237D01*
X174111455Y-97589889D01*
X174127886Y-97604943D01*
X174154235Y-97648746D01*
X174156081Y-97696389D01*
X174135546Y-97740145D01*
X174094752Y-97772289D01*
X174080347Y-97778038D01*
X174035356Y-97805576D01*
X174016182Y-97837258D01*
X173999779Y-97880714D01*
X174061966Y-97880714D01*
X174104283Y-97876872D01*
X174139969Y-97861823D01*
X174180943Y-97830280D01*
X174186267Y-97825592D01*
X174222720Y-97790506D01*
X174242283Y-97760347D01*
X174251283Y-97722615D01*
X174254230Y-97691335D01*
X174254965Y-97635385D01*
X174245660Y-97595555D01*
X174231846Y-97570708D01*
X174201467Y-97531656D01*
X174168613Y-97504625D01*
X174127294Y-97487517D01*
X174071521Y-97478238D01*
X173995305Y-97474693D01*
X173956622Y-97474410D01*
X173910247Y-97475372D01*
X173910247Y-97563007D01*
X173935126Y-97564023D01*
X173939200Y-97566556D01*
X173933665Y-97583274D01*
X173919017Y-97619249D01*
X173898190Y-97667331D01*
X173893714Y-97677386D01*
X173862814Y-97738152D01*
X173835657Y-97771632D01*
X173810220Y-97778990D01*
X173784481Y-97761391D01*
X173773109Y-97746856D01*
X173750364Y-97694410D01*
X173754122Y-97645322D01*
X173781884Y-97604227D01*
X173831152Y-97575758D01*
X173870257Y-97566631D01*
X173910247Y-97563007D01*
X173910247Y-97475372D01*
X173866249Y-97476285D01*
X173799384Y-97483196D01*
X173750695Y-97496884D01*
X173714849Y-97519096D01*
X173686513Y-97551574D01*
X173677355Y-97565733D01*
X173653507Y-97630053D01*
X173652006Y-97700473D01*
X173670966Y-97768595D01*
X173670966Y-97768595D01*
G37*
X173670966Y-97768595D02*
X173708497Y-97826021D01*
X173742096Y-97853719D01*
X173803064Y-97875662D01*
X173851308Y-97877405D01*
X173915816Y-97873457D01*
X173980934Y-97724686D01*
X174014202Y-97652349D01*
X174040964Y-97605084D01*
X174064144Y-97580507D01*
X174086667Y-97576237D01*
X174111455Y-97589889D01*
X174127886Y-97604943D01*
X174154235Y-97648746D01*
X174156081Y-97696389D01*
X174135546Y-97740145D01*
X174094752Y-97772289D01*
X174080347Y-97778038D01*
X174035356Y-97805576D01*
X174016182Y-97837258D01*
X173999779Y-97880714D01*
X174061966Y-97880714D01*
X174104283Y-97876872D01*
X174139969Y-97861823D01*
X174180943Y-97830280D01*
X174186267Y-97825592D01*
X174222720Y-97790506D01*
X174242283Y-97760347D01*
X174251283Y-97722615D01*
X174254230Y-97691335D01*
X174254965Y-97635385D01*
X174245660Y-97595555D01*
X174231846Y-97570708D01*
X174201467Y-97531656D01*
X174168613Y-97504625D01*
X174127294Y-97487517D01*
X174071521Y-97478238D01*
X173995305Y-97474693D01*
X173956622Y-97474410D01*
X173910247Y-97475372D01*
X173910247Y-97563007D01*
X173935126Y-97564023D01*
X173939200Y-97566556D01*
X173933665Y-97583274D01*
X173919017Y-97619249D01*
X173898190Y-97667331D01*
X173893714Y-97677386D01*
X173862814Y-97738152D01*
X173835657Y-97771632D01*
X173810220Y-97778990D01*
X173784481Y-97761391D01*
X173773109Y-97746856D01*
X173750364Y-97694410D01*
X173754122Y-97645322D01*
X173781884Y-97604227D01*
X173831152Y-97575758D01*
X173870257Y-97566631D01*
X173910247Y-97563007D01*
X173910247Y-97475372D01*
X173866249Y-97476285D01*
X173799384Y-97483196D01*
X173750695Y-97496884D01*
X173714849Y-97519096D01*
X173686513Y-97551574D01*
X173677355Y-97565733D01*
X173653507Y-97630053D01*
X173652006Y-97700473D01*
X173670966Y-97768595D01*
G36*
X173662752Y-97267600D02*
X173670334Y-97284948D01*
X173703128Y-97326356D01*
X173750547Y-97361765D01*
X173801151Y-97383664D01*
X173826098Y-97387229D01*
X173860927Y-97375279D01*
X173879357Y-97349067D01*
X173890516Y-97320964D01*
X173892572Y-97308095D01*
X173877649Y-97301829D01*
X173845175Y-97289456D01*
X173830502Y-97284028D01*
X173779744Y-97253590D01*
X173754427Y-97209520D01*
X173755206Y-97153010D01*
X173756203Y-97148825D01*
X173770507Y-97118655D01*
X173798393Y-97096476D01*
X173843287Y-97081327D01*
X173908615Y-97072250D01*
X173997804Y-97068286D01*
X174045261Y-97067914D01*
X174120071Y-97067730D01*
X174171069Y-97066522D01*
X174203471Y-97063309D01*
X174222495Y-97057109D01*
X174233356Y-97046940D01*
X174241272Y-97031819D01*
X174241670Y-97030946D01*
X174253981Y-97001828D01*
X174258514Y-96987403D01*
X174244809Y-96985186D01*
X174206925Y-96983289D01*
X174149715Y-96981847D01*
X174078027Y-96980998D01*
X174025565Y-96980829D01*
X173924047Y-96981692D01*
X173847032Y-96985070D01*
X173790023Y-96992142D01*
X173748526Y-97004088D01*
X173718043Y-97022090D01*
X173694080Y-97047327D01*
X173677355Y-97072247D01*
X173655097Y-97132171D01*
X173650076Y-97201911D01*
X173662752Y-97267600D01*
X173662752Y-97267600D01*
G37*
X173662752Y-97267600D02*
X173670334Y-97284948D01*
X173703128Y-97326356D01*
X173750547Y-97361765D01*
X173801151Y-97383664D01*
X173826098Y-97387229D01*
X173860927Y-97375279D01*
X173879357Y-97349067D01*
X173890516Y-97320964D01*
X173892572Y-97308095D01*
X173877649Y-97301829D01*
X173845175Y-97289456D01*
X173830502Y-97284028D01*
X173779744Y-97253590D01*
X173754427Y-97209520D01*
X173755206Y-97153010D01*
X173756203Y-97148825D01*
X173770507Y-97118655D01*
X173798393Y-97096476D01*
X173843287Y-97081327D01*
X173908615Y-97072250D01*
X173997804Y-97068286D01*
X174045261Y-97067914D01*
X174120071Y-97067730D01*
X174171069Y-97066522D01*
X174203471Y-97063309D01*
X174222495Y-97057109D01*
X174233356Y-97046940D01*
X174241272Y-97031819D01*
X174241670Y-97030946D01*
X174253981Y-97001828D01*
X174258514Y-96987403D01*
X174244809Y-96985186D01*
X174206925Y-96983289D01*
X174149715Y-96981847D01*
X174078027Y-96980998D01*
X174025565Y-96980829D01*
X173924047Y-96981692D01*
X173847032Y-96985070D01*
X173790023Y-96992142D01*
X173748526Y-97004088D01*
X173718043Y-97022090D01*
X173694080Y-97047327D01*
X173677355Y-97072247D01*
X173655097Y-97132171D01*
X173650076Y-97201911D01*
X173662752Y-97267600D01*
G36*
X173660335Y-96759876D02*
X173679344Y-96801667D01*
X173702378Y-96834469D01*
X173728133Y-96858503D01*
X173761358Y-96875097D01*
X173806800Y-96885577D01*
X173869207Y-96891271D01*
X173953327Y-96893507D01*
X174008721Y-96893743D01*
X174224826Y-96893743D01*
X174241670Y-96856774D01*
X174253981Y-96827656D01*
X174258514Y-96813231D01*
X174245025Y-96810472D01*
X174208653Y-96808282D01*
X174155542Y-96806942D01*
X174113372Y-96806657D01*
X174052447Y-96805434D01*
X174004115Y-96802136D01*
X173974518Y-96797321D01*
X173968229Y-96793496D01*
X173974652Y-96767783D01*
X173991125Y-96727418D01*
X174013458Y-96680679D01*
X174037457Y-96635845D01*
X174058930Y-96601193D01*
X174073685Y-96585002D01*
X174073845Y-96584938D01*
X174101152Y-96586330D01*
X174127219Y-96598818D01*
X174148392Y-96620743D01*
X174155474Y-96652743D01*
X174154649Y-96680092D01*
X174154042Y-96718826D01*
X174163116Y-96739158D01*
X174187092Y-96751369D01*
X174191613Y-96752909D01*
X174225806Y-96758203D01*
X174246568Y-96744047D01*
X174256462Y-96707148D01*
X174258292Y-96667289D01*
X174244727Y-96595562D01*
X174225355Y-96558432D01*
X174179845Y-96512576D01*
X174123983Y-96488256D01*
X174064957Y-96486073D01*
X174009953Y-96506629D01*
X173975486Y-96537549D01*
X173956189Y-96568420D01*
X173931759Y-96616942D01*
X173906985Y-96673485D01*
X173903199Y-96682910D01*
X173875791Y-96745019D01*
X173851634Y-96780822D01*
X173827619Y-96792337D01*
X173800635Y-96781580D01*
X173779543Y-96763114D01*
X173753572Y-96719469D01*
X173751624Y-96671446D01*
X173771637Y-96627406D01*
X173811551Y-96595709D01*
X173821848Y-96591549D01*
X173859724Y-96567327D01*
X173887842Y-96531965D01*
X173910917Y-96487343D01*
X173845485Y-96487343D01*
X173805506Y-96489969D01*
X173773997Y-96501230D01*
X173740378Y-96526199D01*
X173714484Y-96550169D01*
X173677817Y-96587441D01*
X173658121Y-96616401D01*
X173650220Y-96647505D01*
X173648914Y-96682713D01*
X173660335Y-96759876D01*
X173660335Y-96759876D01*
G37*
X173660335Y-96759876D02*
X173679344Y-96801667D01*
X173702378Y-96834469D01*
X173728133Y-96858503D01*
X173761358Y-96875097D01*
X173806800Y-96885577D01*
X173869207Y-96891271D01*
X173953327Y-96893507D01*
X174008721Y-96893743D01*
X174224826Y-96893743D01*
X174241670Y-96856774D01*
X174253981Y-96827656D01*
X174258514Y-96813231D01*
X174245025Y-96810472D01*
X174208653Y-96808282D01*
X174155542Y-96806942D01*
X174113372Y-96806657D01*
X174052447Y-96805434D01*
X174004115Y-96802136D01*
X173974518Y-96797321D01*
X173968229Y-96793496D01*
X173974652Y-96767783D01*
X173991125Y-96727418D01*
X174013458Y-96680679D01*
X174037457Y-96635845D01*
X174058930Y-96601193D01*
X174073685Y-96585002D01*
X174073845Y-96584938D01*
X174101152Y-96586330D01*
X174127219Y-96598818D01*
X174148392Y-96620743D01*
X174155474Y-96652743D01*
X174154649Y-96680092D01*
X174154042Y-96718826D01*
X174163116Y-96739158D01*
X174187092Y-96751369D01*
X174191613Y-96752909D01*
X174225806Y-96758203D01*
X174246568Y-96744047D01*
X174256462Y-96707148D01*
X174258292Y-96667289D01*
X174244727Y-96595562D01*
X174225355Y-96558432D01*
X174179845Y-96512576D01*
X174123983Y-96488256D01*
X174064957Y-96486073D01*
X174009953Y-96506629D01*
X173975486Y-96537549D01*
X173956189Y-96568420D01*
X173931759Y-96616942D01*
X173906985Y-96673485D01*
X173903199Y-96682910D01*
X173875791Y-96745019D01*
X173851634Y-96780822D01*
X173827619Y-96792337D01*
X173800635Y-96781580D01*
X173779543Y-96763114D01*
X173753572Y-96719469D01*
X173751624Y-96671446D01*
X173771637Y-96627406D01*
X173811551Y-96595709D01*
X173821848Y-96591549D01*
X173859724Y-96567327D01*
X173887842Y-96531965D01*
X173910917Y-96487343D01*
X173845485Y-96487343D01*
X173805506Y-96489969D01*
X173773997Y-96501230D01*
X173740378Y-96526199D01*
X173714484Y-96550169D01*
X173677817Y-96587441D01*
X173658121Y-96616401D01*
X173650220Y-96647505D01*
X173648914Y-96682713D01*
X173660335Y-96759876D01*
G36*
X173662663Y-96394833D02*
X173700850Y-96397048D01*
X173758886Y-96398784D01*
X173832180Y-96399899D01*
X173909055Y-96400257D01*
X174169196Y-96400257D01*
X174215127Y-96354326D01*
X174243429Y-96322675D01*
X174254893Y-96294890D01*
X174254168Y-96256915D01*
X174252321Y-96241840D01*
X174246948Y-96194726D01*
X174243869Y-96155756D01*
X174243585Y-96146257D01*
X174245445Y-96114233D01*
X174250114Y-96068432D01*
X174252321Y-96050674D01*
X174255735Y-96007057D01*
X174248320Y-95977745D01*
X174225427Y-95948680D01*
X174215127Y-95938188D01*
X174169196Y-95892257D01*
X173682602Y-95892257D01*
X173665758Y-95929226D01*
X173653282Y-95961059D01*
X173648914Y-95979683D01*
X173662718Y-95984458D01*
X173701286Y-95988921D01*
X173760356Y-95992775D01*
X173835663Y-95995722D01*
X173899286Y-95997143D01*
X174149657Y-96001114D01*
X174154556Y-96035759D01*
X174151131Y-96067268D01*
X174140041Y-96082708D01*
X174119308Y-96087023D01*
X174075145Y-96090708D01*
X174013146Y-96093469D01*
X173938909Y-96095012D01*
X173900706Y-96095235D01*
X173680783Y-96095457D01*
X173664849Y-96141166D01*
X173654015Y-96173518D01*
X173648962Y-96191115D01*
X173648914Y-96191623D01*
X173662648Y-96193388D01*
X173700730Y-96195329D01*
X173758482Y-96197282D01*
X173831227Y-96199084D01*
X173899286Y-96200343D01*
X174149657Y-96204314D01*
X174149657Y-96291400D01*
X173921240Y-96295396D01*
X173692822Y-96299392D01*
X173670868Y-96341847D01*
X173655793Y-96373192D01*
X173648951Y-96391744D01*
X173648914Y-96392279D01*
X173662663Y-96394833D01*
X173662663Y-96394833D01*
G37*
X173662663Y-96394833D02*
X173700850Y-96397048D01*
X173758886Y-96398784D01*
X173832180Y-96399899D01*
X173909055Y-96400257D01*
X174169196Y-96400257D01*
X174215127Y-96354326D01*
X174243429Y-96322675D01*
X174254893Y-96294890D01*
X174254168Y-96256915D01*
X174252321Y-96241840D01*
X174246948Y-96194726D01*
X174243869Y-96155756D01*
X174243585Y-96146257D01*
X174245445Y-96114233D01*
X174250114Y-96068432D01*
X174252321Y-96050674D01*
X174255735Y-96007057D01*
X174248320Y-95977745D01*
X174225427Y-95948680D01*
X174215127Y-95938188D01*
X174169196Y-95892257D01*
X173682602Y-95892257D01*
X173665758Y-95929226D01*
X173653282Y-95961059D01*
X173648914Y-95979683D01*
X173662718Y-95984458D01*
X173701286Y-95988921D01*
X173760356Y-95992775D01*
X173835663Y-95995722D01*
X173899286Y-95997143D01*
X174149657Y-96001114D01*
X174154556Y-96035759D01*
X174151131Y-96067268D01*
X174140041Y-96082708D01*
X174119308Y-96087023D01*
X174075145Y-96090708D01*
X174013146Y-96093469D01*
X173938909Y-96095012D01*
X173900706Y-96095235D01*
X173680783Y-96095457D01*
X173664849Y-96141166D01*
X173654015Y-96173518D01*
X173648962Y-96191115D01*
X173648914Y-96191623D01*
X173662648Y-96193388D01*
X173700730Y-96195329D01*
X173758482Y-96197282D01*
X173831227Y-96199084D01*
X173899286Y-96200343D01*
X174149657Y-96204314D01*
X174149657Y-96291400D01*
X173921240Y-96295396D01*
X173692822Y-96299392D01*
X173670868Y-96341847D01*
X173655793Y-96373192D01*
X173648951Y-96391744D01*
X173648914Y-96392279D01*
X173662663Y-96394833D01*
G36*
X173769358Y-95805117D02*
X173877837Y-95804933D01*
X173961287Y-95804219D01*
X174023704Y-95802675D01*
X174069085Y-95800001D01*
X174101429Y-95795894D01*
X174124733Y-95790055D01*
X174142995Y-95782182D01*
X174153418Y-95776221D01*
X174209945Y-95726855D01*
X174245377Y-95664264D01*
X174258090Y-95595013D01*
X174246463Y-95525668D01*
X174225568Y-95484375D01*
X174189422Y-95441025D01*
X174145276Y-95411481D01*
X174087462Y-95393655D01*
X174010313Y-95385463D01*
X173953714Y-95384302D01*
X173949647Y-95384458D01*
X173949647Y-95485857D01*
X174014550Y-95486476D01*
X174057514Y-95489314D01*
X174085622Y-95495840D01*
X174105953Y-95507523D01*
X174121288Y-95521483D01*
X174150890Y-95568365D01*
X174153419Y-95618701D01*
X174128705Y-95666276D01*
X174125356Y-95669979D01*
X174107935Y-95685783D01*
X174087209Y-95695693D01*
X174056362Y-95701058D01*
X174008577Y-95703228D01*
X173955748Y-95703571D01*
X173889381Y-95702827D01*
X173845106Y-95699748D01*
X173816009Y-95693061D01*
X173795173Y-95681496D01*
X173784107Y-95672013D01*
X173756198Y-95627960D01*
X173752843Y-95577224D01*
X173774159Y-95528796D01*
X173782073Y-95519450D01*
X173799647Y-95503540D01*
X173820587Y-95493610D01*
X173851782Y-95488278D01*
X173900122Y-95486163D01*
X173949647Y-95485857D01*
X173949647Y-95384458D01*
X173862568Y-95387810D01*
X173794086Y-95399726D01*
X173742600Y-95422135D01*
X173702443Y-95457124D01*
X173681861Y-95484375D01*
X173659625Y-95533907D01*
X173649304Y-95591316D01*
X173652067Y-95644682D01*
X173663212Y-95674543D01*
X173666383Y-95686261D01*
X173654557Y-95694037D01*
X173622866Y-95699465D01*
X173574593Y-95703571D01*
X173520829Y-95708067D01*
X173488482Y-95714313D01*
X173469985Y-95725676D01*
X173457770Y-95745528D01*
X173452362Y-95758000D01*
X173432601Y-95805171D01*
X173769358Y-95805117D01*
X173769358Y-95805117D01*
G37*
X173769358Y-95805117D02*
X173877837Y-95804933D01*
X173961287Y-95804219D01*
X174023704Y-95802675D01*
X174069085Y-95800001D01*
X174101429Y-95795894D01*
X174124733Y-95790055D01*
X174142995Y-95782182D01*
X174153418Y-95776221D01*
X174209945Y-95726855D01*
X174245377Y-95664264D01*
X174258090Y-95595013D01*
X174246463Y-95525668D01*
X174225568Y-95484375D01*
X174189422Y-95441025D01*
X174145276Y-95411481D01*
X174087462Y-95393655D01*
X174010313Y-95385463D01*
X173953714Y-95384302D01*
X173949647Y-95384458D01*
X173949647Y-95485857D01*
X174014550Y-95486476D01*
X174057514Y-95489314D01*
X174085622Y-95495840D01*
X174105953Y-95507523D01*
X174121288Y-95521483D01*
X174150890Y-95568365D01*
X174153419Y-95618701D01*
X174128705Y-95666276D01*
X174125356Y-95669979D01*
X174107935Y-95685783D01*
X174087209Y-95695693D01*
X174056362Y-95701058D01*
X174008577Y-95703228D01*
X173955748Y-95703571D01*
X173889381Y-95702827D01*
X173845106Y-95699748D01*
X173816009Y-95693061D01*
X173795173Y-95681496D01*
X173784107Y-95672013D01*
X173756198Y-95627960D01*
X173752843Y-95577224D01*
X173774159Y-95528796D01*
X173782073Y-95519450D01*
X173799647Y-95503540D01*
X173820587Y-95493610D01*
X173851782Y-95488278D01*
X173900122Y-95486163D01*
X173949647Y-95485857D01*
X173949647Y-95384458D01*
X173862568Y-95387810D01*
X173794086Y-95399726D01*
X173742600Y-95422135D01*
X173702443Y-95457124D01*
X173681861Y-95484375D01*
X173659625Y-95533907D01*
X173649304Y-95591316D01*
X173652067Y-95644682D01*
X173663212Y-95674543D01*
X173666383Y-95686261D01*
X173654557Y-95694037D01*
X173622866Y-95699465D01*
X173574593Y-95703571D01*
X173520829Y-95708067D01*
X173488482Y-95714313D01*
X173469985Y-95725676D01*
X173457770Y-95745528D01*
X173452362Y-95758000D01*
X173432601Y-95805171D01*
X173769358Y-95805117D01*
G36*
X173653755Y-95144926D02*
X173678084Y-95210858D01*
X173721117Y-95264273D01*
X173751409Y-95285164D01*
X173806994Y-95307939D01*
X173847186Y-95307466D01*
X173874217Y-95283562D01*
X173878813Y-95274717D01*
X173893144Y-95236530D01*
X173889472Y-95217028D01*
X173865407Y-95210422D01*
X173852114Y-95210086D01*
X173803210Y-95197992D01*
X173768999Y-95166471D01*
X173752476Y-95122659D01*
X173756634Y-95073695D01*
X173778227Y-95033894D01*
X173790544Y-95020450D01*
X173805487Y-95010921D01*
X173828075Y-95004485D01*
X173863328Y-95000317D01*
X173916266Y-94997597D01*
X173991907Y-94995502D01*
X174015857Y-94994960D01*
X174097790Y-94992981D01*
X174155455Y-94990731D01*
X174193608Y-94987357D01*
X174217004Y-94982006D01*
X174230398Y-94973824D01*
X174238545Y-94961959D01*
X174242144Y-94954362D01*
X174254452Y-94922102D01*
X174258514Y-94903111D01*
X174244948Y-94896836D01*
X174203934Y-94893006D01*
X174134999Y-94891600D01*
X174037669Y-94892598D01*
X174022657Y-94892908D01*
X173933859Y-94895101D01*
X173869019Y-94897693D01*
X173823067Y-94901382D01*
X173790935Y-94906864D01*
X173767553Y-94914835D01*
X173747852Y-94925993D01*
X173739410Y-94931830D01*
X173702057Y-94965296D01*
X173673003Y-95002727D01*
X173670467Y-95007309D01*
X173650443Y-95074426D01*
X173653755Y-95144926D01*
X173653755Y-95144926D01*
G37*
X173653755Y-95144926D02*
X173678084Y-95210858D01*
X173721117Y-95264273D01*
X173751409Y-95285164D01*
X173806994Y-95307939D01*
X173847186Y-95307466D01*
X173874217Y-95283562D01*
X173878813Y-95274717D01*
X173893144Y-95236530D01*
X173889472Y-95217028D01*
X173865407Y-95210422D01*
X173852114Y-95210086D01*
X173803210Y-95197992D01*
X173768999Y-95166471D01*
X173752476Y-95122659D01*
X173756634Y-95073695D01*
X173778227Y-95033894D01*
X173790544Y-95020450D01*
X173805487Y-95010921D01*
X173828075Y-95004485D01*
X173863328Y-95000317D01*
X173916266Y-94997597D01*
X173991907Y-94995502D01*
X174015857Y-94994960D01*
X174097790Y-94992981D01*
X174155455Y-94990731D01*
X174193608Y-94987357D01*
X174217004Y-94982006D01*
X174230398Y-94973824D01*
X174238545Y-94961959D01*
X174242144Y-94954362D01*
X174254452Y-94922102D01*
X174258514Y-94903111D01*
X174244948Y-94896836D01*
X174203934Y-94893006D01*
X174134999Y-94891600D01*
X174037669Y-94892598D01*
X174022657Y-94892908D01*
X173933859Y-94895101D01*
X173869019Y-94897693D01*
X173823067Y-94901382D01*
X173790935Y-94906864D01*
X173767553Y-94914835D01*
X173747852Y-94925993D01*
X173739410Y-94931830D01*
X173702057Y-94965296D01*
X173673003Y-95002727D01*
X173670467Y-95007309D01*
X173650443Y-95074426D01*
X173653755Y-95144926D01*
G36*
X173654968Y-94654744D02*
X173676087Y-94711616D01*
X173676493Y-94712267D01*
X173702380Y-94747440D01*
X173732633Y-94773407D01*
X173772058Y-94791670D01*
X173825462Y-94803732D01*
X173897651Y-94811096D01*
X173993432Y-94815264D01*
X174007078Y-94815629D01*
X174212842Y-94820876D01*
X174235678Y-94776716D01*
X174251110Y-94744763D01*
X174258423Y-94725470D01*
X174258514Y-94724578D01*
X174245022Y-94721239D01*
X174208626Y-94718587D01*
X174155452Y-94716956D01*
X174112393Y-94716600D01*
X174042641Y-94716592D01*
X173998837Y-94713403D01*
X173977944Y-94702288D01*
X173976925Y-94678501D01*
X173992741Y-94637296D01*
X174021815Y-94575086D01*
X174045963Y-94529341D01*
X174066913Y-94505813D01*
X174089747Y-94498896D01*
X174090877Y-94498886D01*
X174130212Y-94510299D01*
X174151462Y-94544092D01*
X174154539Y-94595809D01*
X174154006Y-94633061D01*
X174164735Y-94652703D01*
X174190505Y-94664952D01*
X174223337Y-94672002D01*
X174241966Y-94661842D01*
X174244632Y-94658017D01*
X174255340Y-94622001D01*
X174256856Y-94571566D01*
X174249759Y-94519626D01*
X174236788Y-94482822D01*
X174193585Y-94431938D01*
X174133446Y-94403014D01*
X174086462Y-94397286D01*
X174044082Y-94401657D01*
X174009488Y-94417475D01*
X173978763Y-94448797D01*
X173947990Y-94499678D01*
X173913252Y-94574176D01*
X173911288Y-94578714D01*
X173880287Y-94645821D01*
X173854862Y-94687232D01*
X173832014Y-94704981D01*
X173808745Y-94701107D01*
X173782056Y-94677643D01*
X173775914Y-94670627D01*
X173752100Y-94623630D01*
X173753103Y-94574933D01*
X173776451Y-94532522D01*
X173819675Y-94504384D01*
X173828160Y-94501769D01*
X173869308Y-94476308D01*
X173889128Y-94444001D01*
X173908770Y-94397286D01*
X173857950Y-94397286D01*
X173784082Y-94411496D01*
X173716327Y-94453675D01*
X173693661Y-94475624D01*
X173664569Y-94525517D01*
X173651400Y-94588967D01*
X173654968Y-94654744D01*
X173654968Y-94654744D01*
G37*
X173654968Y-94654744D02*
X173676087Y-94711616D01*
X173676493Y-94712267D01*
X173702380Y-94747440D01*
X173732633Y-94773407D01*
X173772058Y-94791670D01*
X173825462Y-94803732D01*
X173897651Y-94811096D01*
X173993432Y-94815264D01*
X174007078Y-94815629D01*
X174212842Y-94820876D01*
X174235678Y-94776716D01*
X174251110Y-94744763D01*
X174258423Y-94725470D01*
X174258514Y-94724578D01*
X174245022Y-94721239D01*
X174208626Y-94718587D01*
X174155452Y-94716956D01*
X174112393Y-94716600D01*
X174042641Y-94716592D01*
X173998837Y-94713403D01*
X173977944Y-94702288D01*
X173976925Y-94678501D01*
X173992741Y-94637296D01*
X174021815Y-94575086D01*
X174045963Y-94529341D01*
X174066913Y-94505813D01*
X174089747Y-94498896D01*
X174090877Y-94498886D01*
X174130212Y-94510299D01*
X174151462Y-94544092D01*
X174154539Y-94595809D01*
X174154006Y-94633061D01*
X174164735Y-94652703D01*
X174190505Y-94664952D01*
X174223337Y-94672002D01*
X174241966Y-94661842D01*
X174244632Y-94658017D01*
X174255340Y-94622001D01*
X174256856Y-94571566D01*
X174249759Y-94519626D01*
X174236788Y-94482822D01*
X174193585Y-94431938D01*
X174133446Y-94403014D01*
X174086462Y-94397286D01*
X174044082Y-94401657D01*
X174009488Y-94417475D01*
X173978763Y-94448797D01*
X173947990Y-94499678D01*
X173913252Y-94574176D01*
X173911288Y-94578714D01*
X173880287Y-94645821D01*
X173854862Y-94687232D01*
X173832014Y-94704981D01*
X173808745Y-94701107D01*
X173782056Y-94677643D01*
X173775914Y-94670627D01*
X173752100Y-94623630D01*
X173753103Y-94574933D01*
X173776451Y-94532522D01*
X173819675Y-94504384D01*
X173828160Y-94501769D01*
X173869308Y-94476308D01*
X173889128Y-94444001D01*
X173908770Y-94397286D01*
X173857950Y-94397286D01*
X173784082Y-94411496D01*
X173716327Y-94453675D01*
X173693661Y-94475624D01*
X173664569Y-94525517D01*
X173651400Y-94588967D01*
X173654968Y-94654744D01*
G36*
X173555289Y-93990886D02*
X173614613Y-93995139D01*
X173649572Y-94000025D01*
X173664820Y-94006795D01*
X173665015Y-94016702D01*
X173663195Y-94019914D01*
X173650015Y-94062644D01*
X173650785Y-94118227D01*
X173664333Y-94174737D01*
X173681861Y-94210082D01*
X173709861Y-94246321D01*
X173741549Y-94272813D01*
X173781813Y-94290999D01*
X173835543Y-94302322D01*
X173907626Y-94308222D01*
X174002951Y-94310143D01*
X174021237Y-94310177D01*
X174226646Y-94310200D01*
X174242580Y-94264491D01*
X174253420Y-94232027D01*
X174258468Y-94214215D01*
X174258514Y-94213691D01*
X174244828Y-94211937D01*
X174207076Y-94210444D01*
X174150224Y-94209326D01*
X174079234Y-94208697D01*
X174036073Y-94208600D01*
X173950973Y-94208398D01*
X173889981Y-94207358D01*
X173848177Y-94204831D01*
X173820642Y-94200164D01*
X173802456Y-94192707D01*
X173788698Y-94181811D01*
X173782073Y-94175007D01*
X173755375Y-94128272D01*
X173753375Y-94077272D01*
X173775955Y-94031001D01*
X173784107Y-94022444D01*
X173799436Y-94009893D01*
X173817618Y-94001188D01*
X173843909Y-93995631D01*
X173883562Y-93992526D01*
X173941832Y-93991176D01*
X174022173Y-93990886D01*
X174226646Y-93990886D01*
X174242580Y-93945177D01*
X174253420Y-93912713D01*
X174258468Y-93894901D01*
X174258514Y-93894377D01*
X174244623Y-93893037D01*
X174205439Y-93891828D01*
X174144700Y-93890801D01*
X174066141Y-93890002D01*
X173973498Y-93889481D01*
X173870509Y-93889286D01*
X173473342Y-93889286D01*
X173453444Y-93936457D01*
X173433547Y-93983629D01*
X173555289Y-93990886D01*
X173555289Y-93990886D01*
G37*
X173555289Y-93990886D02*
X173614613Y-93995139D01*
X173649572Y-94000025D01*
X173664820Y-94006795D01*
X173665015Y-94016702D01*
X173663195Y-94019914D01*
X173650015Y-94062644D01*
X173650785Y-94118227D01*
X173664333Y-94174737D01*
X173681861Y-94210082D01*
X173709861Y-94246321D01*
X173741549Y-94272813D01*
X173781813Y-94290999D01*
X173835543Y-94302322D01*
X173907626Y-94308222D01*
X174002951Y-94310143D01*
X174021237Y-94310177D01*
X174226646Y-94310200D01*
X174242580Y-94264491D01*
X174253420Y-94232027D01*
X174258468Y-94214215D01*
X174258514Y-94213691D01*
X174244828Y-94211937D01*
X174207076Y-94210444D01*
X174150224Y-94209326D01*
X174079234Y-94208697D01*
X174036073Y-94208600D01*
X173950973Y-94208398D01*
X173889981Y-94207358D01*
X173848177Y-94204831D01*
X173820642Y-94200164D01*
X173802456Y-94192707D01*
X173788698Y-94181811D01*
X173782073Y-94175007D01*
X173755375Y-94128272D01*
X173753375Y-94077272D01*
X173775955Y-94031001D01*
X173784107Y-94022444D01*
X173799436Y-94009893D01*
X173817618Y-94001188D01*
X173843909Y-93995631D01*
X173883562Y-93992526D01*
X173941832Y-93991176D01*
X174022173Y-93990886D01*
X174226646Y-93990886D01*
X174242580Y-93945177D01*
X174253420Y-93912713D01*
X174258468Y-93894901D01*
X174258514Y-93894377D01*
X174244623Y-93893037D01*
X174205439Y-93891828D01*
X174144700Y-93890801D01*
X174066141Y-93890002D01*
X173973498Y-93889481D01*
X173870509Y-93889286D01*
X173473342Y-93889286D01*
X173453444Y-93936457D01*
X173433547Y-93983629D01*
X173555289Y-93990886D01*
G36*
X173635239Y-92783303D02*
X173673735Y-92840527D01*
X173729335Y-92884749D01*
X173800086Y-92911167D01*
X173852162Y-92916510D01*
X173873893Y-92915903D01*
X173890531Y-92910822D01*
X173905437Y-92896855D01*
X173921973Y-92869589D01*
X173943498Y-92824612D01*
X173973374Y-92757511D01*
X173973524Y-92757171D01*
X174001813Y-92695407D01*
X174026933Y-92644759D01*
X174046179Y-92610404D01*
X174056848Y-92597518D01*
X174056934Y-92597514D01*
X174080166Y-92608872D01*
X174105774Y-92635431D01*
X174124221Y-92665923D01*
X174127886Y-92681370D01*
X174115212Y-92723515D01*
X174083471Y-92759808D01*
X174048572Y-92777517D01*
X174022845Y-92794552D01*
X173993546Y-92827922D01*
X173968235Y-92867149D01*
X173954471Y-92901756D01*
X173953714Y-92908993D01*
X173966160Y-92917139D01*
X173997972Y-92917630D01*
X174040866Y-92911643D01*
X174086558Y-92900357D01*
X174126761Y-92884950D01*
X174128322Y-92884171D01*
X174193062Y-92837804D01*
X174237097Y-92777711D01*
X174258711Y-92709465D01*
X174256185Y-92638638D01*
X174227804Y-92570804D01*
X174225808Y-92567788D01*
X174177448Y-92514427D01*
X174114352Y-92479340D01*
X174031387Y-92459922D01*
X174008078Y-92457316D01*
X173898055Y-92452701D01*
X173846748Y-92458233D01*
X173846748Y-92597514D01*
X173878753Y-92599324D01*
X173888093Y-92609222D01*
X173881105Y-92633898D01*
X173864587Y-92672795D01*
X173843881Y-92716275D01*
X173843333Y-92717356D01*
X173823949Y-92754209D01*
X173811013Y-92769000D01*
X173797451Y-92765353D01*
X173779632Y-92749995D01*
X173753845Y-92710923D01*
X173751950Y-92668846D01*
X173770717Y-92631103D01*
X173806915Y-92605034D01*
X173846748Y-92597514D01*
X173846748Y-92458233D01*
X173810027Y-92462194D01*
X173740212Y-92486550D01*
X173691302Y-92520456D01*
X173641878Y-92581653D01*
X173617359Y-92649063D01*
X173615797Y-92717880D01*
X173635239Y-92783303D01*
X173635239Y-92783303D01*
G37*
X173635239Y-92783303D02*
X173673735Y-92840527D01*
X173729335Y-92884749D01*
X173800086Y-92911167D01*
X173852162Y-92916510D01*
X173873893Y-92915903D01*
X173890531Y-92910822D01*
X173905437Y-92896855D01*
X173921973Y-92869589D01*
X173943498Y-92824612D01*
X173973374Y-92757511D01*
X173973524Y-92757171D01*
X174001813Y-92695407D01*
X174026933Y-92644759D01*
X174046179Y-92610404D01*
X174056848Y-92597518D01*
X174056934Y-92597514D01*
X174080166Y-92608872D01*
X174105774Y-92635431D01*
X174124221Y-92665923D01*
X174127886Y-92681370D01*
X174115212Y-92723515D01*
X174083471Y-92759808D01*
X174048572Y-92777517D01*
X174022845Y-92794552D01*
X173993546Y-92827922D01*
X173968235Y-92867149D01*
X173954471Y-92901756D01*
X173953714Y-92908993D01*
X173966160Y-92917139D01*
X173997972Y-92917630D01*
X174040866Y-92911643D01*
X174086558Y-92900357D01*
X174126761Y-92884950D01*
X174128322Y-92884171D01*
X174193062Y-92837804D01*
X174237097Y-92777711D01*
X174258711Y-92709465D01*
X174256185Y-92638638D01*
X174227804Y-92570804D01*
X174225808Y-92567788D01*
X174177448Y-92514427D01*
X174114352Y-92479340D01*
X174031387Y-92459922D01*
X174008078Y-92457316D01*
X173898055Y-92452701D01*
X173846748Y-92458233D01*
X173846748Y-92597514D01*
X173878753Y-92599324D01*
X173888093Y-92609222D01*
X173881105Y-92633898D01*
X173864587Y-92672795D01*
X173843881Y-92716275D01*
X173843333Y-92717356D01*
X173823949Y-92754209D01*
X173811013Y-92769000D01*
X173797451Y-92765353D01*
X173779632Y-92749995D01*
X173753845Y-92710923D01*
X173751950Y-92668846D01*
X173770717Y-92631103D01*
X173806915Y-92605034D01*
X173846748Y-92597514D01*
X173846748Y-92458233D01*
X173810027Y-92462194D01*
X173740212Y-92486550D01*
X173691302Y-92520456D01*
X173641878Y-92581653D01*
X173617359Y-92649063D01*
X173615797Y-92717880D01*
X173635239Y-92783303D01*
G36*
X173625962Y-91656115D02*
X173661733Y-91724145D01*
X173719301Y-91774351D01*
X173756312Y-91792185D01*
X173811882Y-91806063D01*
X173882096Y-91813167D01*
X173958727Y-91813840D01*
X174033552Y-91808427D01*
X174098342Y-91797270D01*
X174144873Y-91780714D01*
X174152887Y-91775626D01*
X174212707Y-91715355D01*
X174248535Y-91643769D01*
X174259020Y-91566092D01*
X174242810Y-91487548D01*
X174233092Y-91465689D01*
X174203143Y-91423122D01*
X174163433Y-91385763D01*
X174158397Y-91382232D01*
X174134124Y-91367881D01*
X174108178Y-91358394D01*
X174074022Y-91352790D01*
X174025119Y-91350086D01*
X173954935Y-91349299D01*
X173939200Y-91349286D01*
X173934192Y-91349322D01*
X173934192Y-91494429D01*
X174000430Y-91495273D01*
X174044386Y-91498596D01*
X174072779Y-91505583D01*
X174092325Y-91517416D01*
X174098857Y-91523457D01*
X174123680Y-91558186D01*
X174122548Y-91591903D01*
X174101016Y-91625995D01*
X174078029Y-91646329D01*
X174044478Y-91658371D01*
X173991569Y-91665134D01*
X173985399Y-91665598D01*
X173889513Y-91666752D01*
X173818299Y-91654688D01*
X173772194Y-91629570D01*
X173751635Y-91591560D01*
X173750514Y-91577992D01*
X173756152Y-91542364D01*
X173775686Y-91517994D01*
X173813042Y-91503093D01*
X173872150Y-91495875D01*
X173934192Y-91494429D01*
X173934192Y-91349322D01*
X173864413Y-91349826D01*
X173812159Y-91352096D01*
X173775949Y-91357068D01*
X173749299Y-91365713D01*
X173725722Y-91379005D01*
X173721338Y-91381943D01*
X173662249Y-91431313D01*
X173627947Y-91485109D01*
X173614331Y-91550602D01*
X173613665Y-91572842D01*
X173625962Y-91656115D01*
X173625962Y-91656115D01*
G37*
X173625962Y-91656115D02*
X173661733Y-91724145D01*
X173719301Y-91774351D01*
X173756312Y-91792185D01*
X173811882Y-91806063D01*
X173882096Y-91813167D01*
X173958727Y-91813840D01*
X174033552Y-91808427D01*
X174098342Y-91797270D01*
X174144873Y-91780714D01*
X174152887Y-91775626D01*
X174212707Y-91715355D01*
X174248535Y-91643769D01*
X174259020Y-91566092D01*
X174242810Y-91487548D01*
X174233092Y-91465689D01*
X174203143Y-91423122D01*
X174163433Y-91385763D01*
X174158397Y-91382232D01*
X174134124Y-91367881D01*
X174108178Y-91358394D01*
X174074022Y-91352790D01*
X174025119Y-91350086D01*
X173954935Y-91349299D01*
X173939200Y-91349286D01*
X173934192Y-91349322D01*
X173934192Y-91494429D01*
X174000430Y-91495273D01*
X174044386Y-91498596D01*
X174072779Y-91505583D01*
X174092325Y-91517416D01*
X174098857Y-91523457D01*
X174123680Y-91558186D01*
X174122548Y-91591903D01*
X174101016Y-91625995D01*
X174078029Y-91646329D01*
X174044478Y-91658371D01*
X173991569Y-91665134D01*
X173985399Y-91665598D01*
X173889513Y-91666752D01*
X173818299Y-91654688D01*
X173772194Y-91629570D01*
X173751635Y-91591560D01*
X173750514Y-91577992D01*
X173756152Y-91542364D01*
X173775686Y-91517994D01*
X173813042Y-91503093D01*
X173872150Y-91495875D01*
X173934192Y-91494429D01*
X173934192Y-91349322D01*
X173864413Y-91349826D01*
X173812159Y-91352096D01*
X173775949Y-91357068D01*
X173749299Y-91365713D01*
X173725722Y-91379005D01*
X173721338Y-91381943D01*
X173662249Y-91431313D01*
X173627947Y-91485109D01*
X173614331Y-91550602D01*
X173613665Y-91572842D01*
X173625962Y-91656115D01*
G36*
X173631780Y-93331093D02*
X173658723Y-93377672D01*
X173685466Y-93410057D01*
X173713484Y-93433742D01*
X173747748Y-93450059D01*
X173793227Y-93460339D01*
X173854892Y-93465914D01*
X173937711Y-93468116D01*
X173997246Y-93468371D01*
X174216391Y-93468371D01*
X174244044Y-93406686D01*
X174271697Y-93345000D01*
X174031670Y-93337743D01*
X173942028Y-93334744D01*
X173876962Y-93331598D01*
X173832026Y-93327701D01*
X173802770Y-93322447D01*
X173784748Y-93315231D01*
X173773511Y-93305450D01*
X173771079Y-93302312D01*
X173752083Y-93254761D01*
X173759600Y-93206697D01*
X173779543Y-93178086D01*
X173793675Y-93166447D01*
X173812220Y-93158391D01*
X173840334Y-93153271D01*
X173883173Y-93150441D01*
X173945895Y-93149256D01*
X174011261Y-93149057D01*
X174093268Y-93149018D01*
X174151316Y-93147614D01*
X174190465Y-93142914D01*
X174215780Y-93132987D01*
X174232323Y-93115903D01*
X174245156Y-93089732D01*
X174258491Y-93054775D01*
X174273007Y-93016596D01*
X174015389Y-93021141D01*
X173922519Y-93022971D01*
X173853889Y-93025112D01*
X173804711Y-93028181D01*
X173770198Y-93032794D01*
X173745562Y-93039568D01*
X173726016Y-93049119D01*
X173708770Y-93060634D01*
X173653680Y-93116190D01*
X173621822Y-93183980D01*
X173614191Y-93257713D01*
X173631780Y-93331093D01*
X173631780Y-93331093D01*
G37*
X173631780Y-93331093D02*
X173658723Y-93377672D01*
X173685466Y-93410057D01*
X173713484Y-93433742D01*
X173747748Y-93450059D01*
X173793227Y-93460339D01*
X173854892Y-93465914D01*
X173937711Y-93468116D01*
X173997246Y-93468371D01*
X174216391Y-93468371D01*
X174244044Y-93406686D01*
X174271697Y-93345000D01*
X174031670Y-93337743D01*
X173942028Y-93334744D01*
X173876962Y-93331598D01*
X173832026Y-93327701D01*
X173802770Y-93322447D01*
X173784748Y-93315231D01*
X173773511Y-93305450D01*
X173771079Y-93302312D01*
X173752083Y-93254761D01*
X173759600Y-93206697D01*
X173779543Y-93178086D01*
X173793675Y-93166447D01*
X173812220Y-93158391D01*
X173840334Y-93153271D01*
X173883173Y-93150441D01*
X173945895Y-93149256D01*
X174011261Y-93149057D01*
X174093268Y-93149018D01*
X174151316Y-93147614D01*
X174190465Y-93142914D01*
X174215780Y-93132987D01*
X174232323Y-93115903D01*
X174245156Y-93089732D01*
X174258491Y-93054775D01*
X174273007Y-93016596D01*
X174015389Y-93021141D01*
X173922519Y-93022971D01*
X173853889Y-93025112D01*
X173804711Y-93028181D01*
X173770198Y-93032794D01*
X173745562Y-93039568D01*
X173726016Y-93049119D01*
X173708770Y-93060634D01*
X173653680Y-93116190D01*
X173621822Y-93183980D01*
X173614191Y-93257713D01*
X173631780Y-93331093D01*
G36*
X173623918Y-92214744D02*
X173651568Y-92270201D01*
X173702480Y-92319148D01*
X173721338Y-92332629D01*
X173746015Y-92347314D01*
X173772816Y-92356842D01*
X173808587Y-92362293D01*
X173860169Y-92364747D01*
X173928267Y-92365286D01*
X174021588Y-92362852D01*
X174091657Y-92354394D01*
X174143931Y-92338174D01*
X174183869Y-92312454D01*
X174216929Y-92275497D01*
X174218886Y-92272782D01*
X174238908Y-92236360D01*
X174248815Y-92192502D01*
X174251257Y-92136724D01*
X174251257Y-92046048D01*
X174339283Y-92046010D01*
X174388308Y-92045166D01*
X174417065Y-92040024D01*
X174434311Y-92026587D01*
X174448808Y-92000858D01*
X174451769Y-91994679D01*
X174465648Y-91965764D01*
X174474414Y-91943376D01*
X174475171Y-91926729D01*
X174465023Y-91915036D01*
X174441073Y-91907510D01*
X174400426Y-91903366D01*
X174340186Y-91901815D01*
X174257455Y-91902071D01*
X174149339Y-91903349D01*
X174117000Y-91903748D01*
X174005524Y-91905185D01*
X173932603Y-91906472D01*
X173932603Y-92045971D01*
X173994499Y-92046755D01*
X174034997Y-92050240D01*
X174061708Y-92058124D01*
X174082244Y-92072105D01*
X174092260Y-92081597D01*
X174121567Y-92120404D01*
X174123952Y-92154763D01*
X174099750Y-92190216D01*
X174098857Y-92191114D01*
X174080153Y-92205539D01*
X174054732Y-92214313D01*
X174015584Y-92218739D01*
X173955697Y-92220118D01*
X173942430Y-92220143D01*
X173859901Y-92216812D01*
X173802691Y-92205969D01*
X173767766Y-92186340D01*
X173752094Y-92156650D01*
X173750514Y-92139491D01*
X173757926Y-92098766D01*
X173782330Y-92070832D01*
X173826980Y-92054017D01*
X173895130Y-92046650D01*
X173932603Y-92045971D01*
X173932603Y-91906472D01*
X173919245Y-91906708D01*
X173854333Y-91908677D01*
X173806958Y-91911450D01*
X173773290Y-91915388D01*
X173749498Y-91920849D01*
X173731753Y-91928192D01*
X173716224Y-91937777D01*
X173710381Y-91941887D01*
X173655185Y-91996405D01*
X173623890Y-92065336D01*
X173615165Y-92145072D01*
X173623918Y-92214744D01*
X173623918Y-92214744D01*
G37*
X173623918Y-92214744D02*
X173651568Y-92270201D01*
X173702480Y-92319148D01*
X173721338Y-92332629D01*
X173746015Y-92347314D01*
X173772816Y-92356842D01*
X173808587Y-92362293D01*
X173860169Y-92364747D01*
X173928267Y-92365286D01*
X174021588Y-92362852D01*
X174091657Y-92354394D01*
X174143931Y-92338174D01*
X174183869Y-92312454D01*
X174216929Y-92275497D01*
X174218886Y-92272782D01*
X174238908Y-92236360D01*
X174248815Y-92192502D01*
X174251257Y-92136724D01*
X174251257Y-92046048D01*
X174339283Y-92046010D01*
X174388308Y-92045166D01*
X174417065Y-92040024D01*
X174434311Y-92026587D01*
X174448808Y-92000858D01*
X174451769Y-91994679D01*
X174465648Y-91965764D01*
X174474414Y-91943376D01*
X174475171Y-91926729D01*
X174465023Y-91915036D01*
X174441073Y-91907510D01*
X174400426Y-91903366D01*
X174340186Y-91901815D01*
X174257455Y-91902071D01*
X174149339Y-91903349D01*
X174117000Y-91903748D01*
X174005524Y-91905185D01*
X173932603Y-91906472D01*
X173932603Y-92045971D01*
X173994499Y-92046755D01*
X174034997Y-92050240D01*
X174061708Y-92058124D01*
X174082244Y-92072105D01*
X174092260Y-92081597D01*
X174121567Y-92120404D01*
X174123952Y-92154763D01*
X174099750Y-92190216D01*
X174098857Y-92191114D01*
X174080153Y-92205539D01*
X174054732Y-92214313D01*
X174015584Y-92218739D01*
X173955697Y-92220118D01*
X173942430Y-92220143D01*
X173859901Y-92216812D01*
X173802691Y-92205969D01*
X173767766Y-92186340D01*
X173752094Y-92156650D01*
X173750514Y-92139491D01*
X173757926Y-92098766D01*
X173782330Y-92070832D01*
X173826980Y-92054017D01*
X173895130Y-92046650D01*
X173932603Y-92045971D01*
X173932603Y-91906472D01*
X173919245Y-91906708D01*
X173854333Y-91908677D01*
X173806958Y-91911450D01*
X173773290Y-91915388D01*
X173749498Y-91920849D01*
X173731753Y-91928192D01*
X173716224Y-91937777D01*
X173710381Y-91941887D01*
X173655185Y-91996405D01*
X173623890Y-92065336D01*
X173615165Y-92145072D01*
X173623918Y-92214744D01*
D10*
G04 #@! TO.C,U2*
X179202000Y-79521000D02*
X179202000Y-80781000D01*
X179202000Y-86341000D02*
X179202000Y-85081000D01*
X175442000Y-79521000D02*
X179202000Y-79521000D01*
X173192000Y-86341000D02*
X179202000Y-86341000D01*
G04 #@! TO.C,R1*
D12*
X170727666Y-99385380D02*
X171061000Y-98909190D01*
X171299095Y-99385380D02*
X171299095Y-98385380D01*
X170918142Y-98385380D01*
X170822904Y-98433000D01*
X170775285Y-98480619D01*
X170727666Y-98575857D01*
X170727666Y-98718714D01*
X170775285Y-98813952D01*
X170822904Y-98861571D01*
X170918142Y-98909190D01*
X171299095Y-98909190D01*
X169775285Y-99385380D02*
X170346714Y-99385380D01*
X170061000Y-99385380D02*
X170061000Y-98385380D01*
X170156238Y-98528238D01*
X170251476Y-98623476D01*
X170346714Y-98671095D01*
G04 #@! TO.C,Y1*
X175617190Y-95789809D02*
X176093380Y-95789809D01*
X175093380Y-95456476D02*
X175617190Y-95789809D01*
X175093380Y-96123142D01*
X176093380Y-96980285D02*
X176093380Y-96408857D01*
X176093380Y-96694571D02*
X175093380Y-96694571D01*
X175236238Y-96599333D01*
X175331476Y-96504095D01*
X175379095Y-96408857D01*
G04 #@! TO.C,C1*
X175426666Y-73730142D02*
X175474285Y-73777761D01*
X175617142Y-73825380D01*
X175712380Y-73825380D01*
X175855238Y-73777761D01*
X175950476Y-73682523D01*
X175998095Y-73587285D01*
X176045714Y-73396809D01*
X176045714Y-73253952D01*
X175998095Y-73063476D01*
X175950476Y-72968238D01*
X175855238Y-72873000D01*
X175712380Y-72825380D01*
X175617142Y-72825380D01*
X175474285Y-72873000D01*
X175426666Y-72920619D01*
X174474285Y-73825380D02*
X175045714Y-73825380D01*
X174760000Y-73825380D02*
X174760000Y-72825380D01*
X174855238Y-72968238D01*
X174950476Y-73063476D01*
X175045714Y-73111095D01*
G04 #@! TO.C,C2*
X171012142Y-84669333D02*
X171059761Y-84621714D01*
X171107380Y-84478857D01*
X171107380Y-84383619D01*
X171059761Y-84240761D01*
X170964523Y-84145523D01*
X170869285Y-84097904D01*
X170678809Y-84050285D01*
X170535952Y-84050285D01*
X170345476Y-84097904D01*
X170250238Y-84145523D01*
X170155000Y-84240761D01*
X170107380Y-84383619D01*
X170107380Y-84478857D01*
X170155000Y-84621714D01*
X170202619Y-84669333D01*
X170202619Y-85050285D02*
X170155000Y-85097904D01*
X170107380Y-85193142D01*
X170107380Y-85431238D01*
X170155000Y-85526476D01*
X170202619Y-85574095D01*
X170297857Y-85621714D01*
X170393095Y-85621714D01*
X170535952Y-85574095D01*
X171107380Y-85002666D01*
X171107380Y-85621714D01*
G04 #@! TO.C,C3*
X170918142Y-90384333D02*
X170965761Y-90336714D01*
X171013380Y-90193857D01*
X171013380Y-90098619D01*
X170965761Y-89955761D01*
X170870523Y-89860523D01*
X170775285Y-89812904D01*
X170584809Y-89765285D01*
X170441952Y-89765285D01*
X170251476Y-89812904D01*
X170156238Y-89860523D01*
X170061000Y-89955761D01*
X170013380Y-90098619D01*
X170013380Y-90193857D01*
X170061000Y-90336714D01*
X170108619Y-90384333D01*
X170013380Y-90717666D02*
X170013380Y-91336714D01*
X170394333Y-91003380D01*
X170394333Y-91146238D01*
X170441952Y-91241476D01*
X170489571Y-91289095D01*
X170584809Y-91336714D01*
X170822904Y-91336714D01*
X170918142Y-91289095D01*
X170965761Y-91241476D01*
X171013380Y-91146238D01*
X171013380Y-90860523D01*
X170965761Y-90765285D01*
X170918142Y-90717666D01*
G04 #@! TO.C,C4*
X177682142Y-90003333D02*
X177729761Y-89955714D01*
X177777380Y-89812857D01*
X177777380Y-89717619D01*
X177729761Y-89574761D01*
X177634523Y-89479523D01*
X177539285Y-89431904D01*
X177348809Y-89384285D01*
X177205952Y-89384285D01*
X177015476Y-89431904D01*
X176920238Y-89479523D01*
X176825000Y-89574761D01*
X176777380Y-89717619D01*
X176777380Y-89812857D01*
X176825000Y-89955714D01*
X176872619Y-90003333D01*
X177110714Y-90860476D02*
X177777380Y-90860476D01*
X176729761Y-90622380D02*
X177444047Y-90384285D01*
X177444047Y-91003333D01*
G04 #@! TO.C,J2*
X180800333Y-87209380D02*
X180800333Y-87923666D01*
X180847952Y-88066523D01*
X180943190Y-88161761D01*
X181086047Y-88209380D01*
X181181285Y-88209380D01*
X180371761Y-87304619D02*
X180324142Y-87257000D01*
X180228904Y-87209380D01*
X179990809Y-87209380D01*
X179895571Y-87257000D01*
X179847952Y-87304619D01*
X179800333Y-87399857D01*
X179800333Y-87495095D01*
X179847952Y-87637952D01*
X180419380Y-88209380D01*
X179800333Y-88209380D01*
G04 #@! TO.C,J3*
X170259333Y-87082380D02*
X170259333Y-87796666D01*
X170306952Y-87939523D01*
X170402190Y-88034761D01*
X170545047Y-88082380D01*
X170640285Y-88082380D01*
X169878380Y-87082380D02*
X169259333Y-87082380D01*
X169592666Y-87463333D01*
X169449809Y-87463333D01*
X169354571Y-87510952D01*
X169306952Y-87558571D01*
X169259333Y-87653809D01*
X169259333Y-87891904D01*
X169306952Y-87987142D01*
X169354571Y-88034761D01*
X169449809Y-88082380D01*
X169735523Y-88082380D01*
X169830761Y-88034761D01*
X169878380Y-87987142D01*
G04 #@! TO.C,U2*
X178053904Y-86883380D02*
X178053904Y-87692904D01*
X178006285Y-87788142D01*
X177958666Y-87835761D01*
X177863428Y-87883380D01*
X177672952Y-87883380D01*
X177577714Y-87835761D01*
X177530095Y-87788142D01*
X177482476Y-87692904D01*
X177482476Y-86883380D01*
X177053904Y-86978619D02*
X177006285Y-86931000D01*
X176911047Y-86883380D01*
X176672952Y-86883380D01*
X176577714Y-86931000D01*
X176530095Y-86978619D01*
X176482476Y-87073857D01*
X176482476Y-87169095D01*
X176530095Y-87311952D01*
X177101523Y-87883380D01*
X176482476Y-87883380D01*
G04 #@! TD*
M02*
