M48
;DRILL file {KiCad (5.0.0)} date 09/15/18 15:06:26
;FORMAT={2:4/ absolute / inch / suppress leading zeros}
FMAT,2
INCH,TZ
T1C0.0157
T2C0.0394
T3C0.0394
%
G90
G05
M72
T1
X67350Y-29800
X68400Y-36650
X68600Y-35100
X68750Y-37700
X68800Y-34400
X68800Y-37000
X69150Y-38350
X69200Y-31800
X70850Y-29950
T2
X72000Y-29000
X72000Y-30000
X72000Y-31000
X72000Y-32000
X72000Y-33000
X72000Y-34000
X72000Y-35000
X72000Y-36000
X72000Y-37000
X72000Y-38000
X72000Y-39000
X72000Y-40000
X67500Y-40000
X68500Y-40000
X69500Y-40000
X70500Y-40000
X66000Y-29000
X66000Y-30000
X66000Y-31000
X66000Y-32000
X66000Y-33000
X66000Y-34000
X66000Y-35000
X66000Y-36000
X66000Y-37000
X66000Y-38000
X66000Y-39000
X66000Y-40000
T3
X68234Y-29900
X69966Y-29900
T0
M30
