G04 #@! TF.GenerationSoftware,KiCad,Pcbnew,(5.0.0)*
G04 #@! TF.CreationDate,2018-09-15T15:06:13-04:00*
G04 #@! TF.ProjectId,STMPod,53544D506F642E6B696361645F706362,rev?*
G04 #@! TF.SameCoordinates,Original*
G04 #@! TF.FileFunction,Soldermask,Top*
G04 #@! TF.FilePolarity,Negative*
%FSLAX46Y46*%
G04 Gerber Fmt 4.6, Leading zero omitted, Abs format (unit mm)*
G04 Created by KiCad (PCBNEW (5.0.0)) date 09/15/18 15:06:13*
%MOMM*%
%LPD*%
G01*
G04 APERTURE LIST*
%ADD10R,2.000000X1.600000*%
%ADD11R,1.450000X0.450000*%
%ADD12R,1.700000X1.700000*%
%ADD13O,1.700000X1.700000*%
%ADD14R,0.500000X2.000000*%
%ADD15R,2.000000X1.700000*%
%ADD16C,1.000000*%
%ADD17C,0.100000*%
%ADD18C,0.875000*%
G04 APERTURE END LIST*
D10*
G04 #@! TO.C,SW1*
X172306000Y-97028000D03*
X177706000Y-97028000D03*
G04 #@! TD*
D11*
G04 #@! TO.C,U1*
X178210000Y-94365000D03*
X178210000Y-93715000D03*
X178210000Y-93065000D03*
X178210000Y-92415000D03*
X178210000Y-91765000D03*
X178210000Y-91115000D03*
X178210000Y-90465000D03*
X178210000Y-89815000D03*
X178210000Y-89165000D03*
X178210000Y-88515000D03*
X172310000Y-88515000D03*
X172310000Y-89165000D03*
X172310000Y-89815000D03*
X172310000Y-90465000D03*
X172310000Y-91115000D03*
X172310000Y-91765000D03*
X172310000Y-92415000D03*
X172310000Y-93065000D03*
X172310000Y-93715000D03*
X172310000Y-94365000D03*
G04 #@! TD*
D12*
G04 #@! TO.C,J1*
X171450000Y-101600000D03*
D13*
X173990000Y-101600000D03*
X176530000Y-101600000D03*
X179070000Y-101600000D03*
G04 #@! TD*
D12*
G04 #@! TO.C,J2*
X182880000Y-101600000D03*
D13*
X182880000Y-99060000D03*
X182880000Y-96520000D03*
X182880000Y-93980000D03*
X182880000Y-91440000D03*
X182880000Y-88900000D03*
X182880000Y-86360000D03*
X182880000Y-83820000D03*
X182880000Y-81280000D03*
X182880000Y-78740000D03*
X182880000Y-76200000D03*
X182880000Y-73660000D03*
G04 #@! TD*
G04 #@! TO.C,J3*
X167640000Y-73660000D03*
X167640000Y-76200000D03*
X167640000Y-78740000D03*
X167640000Y-81280000D03*
X167640000Y-83820000D03*
X167640000Y-86360000D03*
X167640000Y-88900000D03*
X167640000Y-91440000D03*
X167640000Y-93980000D03*
X167640000Y-96520000D03*
X167640000Y-99060000D03*
D12*
X167640000Y-101600000D03*
G04 #@! TD*
D14*
G04 #@! TO.C,J4*
X177114000Y-78646000D03*
X176314000Y-78646000D03*
X175514000Y-78646000D03*
X174714000Y-78646000D03*
X173914000Y-78646000D03*
D15*
X179964000Y-78546000D03*
X179964000Y-73096000D03*
X171064000Y-78546000D03*
X171064000Y-73096000D03*
D16*
X177714000Y-75946000D03*
X173314000Y-75946000D03*
G04 #@! TD*
D17*
G04 #@! TO.C,R2*
G36*
X180109691Y-95550053D02*
X180130926Y-95553203D01*
X180151750Y-95558419D01*
X180171962Y-95565651D01*
X180191368Y-95574830D01*
X180209781Y-95585866D01*
X180227024Y-95598654D01*
X180242930Y-95613070D01*
X180257346Y-95628976D01*
X180270134Y-95646219D01*
X180281170Y-95664632D01*
X180290349Y-95684038D01*
X180297581Y-95704250D01*
X180302797Y-95725074D01*
X180305947Y-95746309D01*
X180307000Y-95767750D01*
X180307000Y-96205250D01*
X180305947Y-96226691D01*
X180302797Y-96247926D01*
X180297581Y-96268750D01*
X180290349Y-96288962D01*
X180281170Y-96308368D01*
X180270134Y-96326781D01*
X180257346Y-96344024D01*
X180242930Y-96359930D01*
X180227024Y-96374346D01*
X180209781Y-96387134D01*
X180191368Y-96398170D01*
X180171962Y-96407349D01*
X180151750Y-96414581D01*
X180130926Y-96419797D01*
X180109691Y-96422947D01*
X180088250Y-96424000D01*
X179575750Y-96424000D01*
X179554309Y-96422947D01*
X179533074Y-96419797D01*
X179512250Y-96414581D01*
X179492038Y-96407349D01*
X179472632Y-96398170D01*
X179454219Y-96387134D01*
X179436976Y-96374346D01*
X179421070Y-96359930D01*
X179406654Y-96344024D01*
X179393866Y-96326781D01*
X179382830Y-96308368D01*
X179373651Y-96288962D01*
X179366419Y-96268750D01*
X179361203Y-96247926D01*
X179358053Y-96226691D01*
X179357000Y-96205250D01*
X179357000Y-95767750D01*
X179358053Y-95746309D01*
X179361203Y-95725074D01*
X179366419Y-95704250D01*
X179373651Y-95684038D01*
X179382830Y-95664632D01*
X179393866Y-95646219D01*
X179406654Y-95628976D01*
X179421070Y-95613070D01*
X179436976Y-95598654D01*
X179454219Y-95585866D01*
X179472632Y-95574830D01*
X179492038Y-95565651D01*
X179512250Y-95558419D01*
X179533074Y-95553203D01*
X179554309Y-95550053D01*
X179575750Y-95549000D01*
X180088250Y-95549000D01*
X180109691Y-95550053D01*
X180109691Y-95550053D01*
G37*
D18*
X179832000Y-95986500D03*
D17*
G36*
X180109691Y-97125053D02*
X180130926Y-97128203D01*
X180151750Y-97133419D01*
X180171962Y-97140651D01*
X180191368Y-97149830D01*
X180209781Y-97160866D01*
X180227024Y-97173654D01*
X180242930Y-97188070D01*
X180257346Y-97203976D01*
X180270134Y-97221219D01*
X180281170Y-97239632D01*
X180290349Y-97259038D01*
X180297581Y-97279250D01*
X180302797Y-97300074D01*
X180305947Y-97321309D01*
X180307000Y-97342750D01*
X180307000Y-97780250D01*
X180305947Y-97801691D01*
X180302797Y-97822926D01*
X180297581Y-97843750D01*
X180290349Y-97863962D01*
X180281170Y-97883368D01*
X180270134Y-97901781D01*
X180257346Y-97919024D01*
X180242930Y-97934930D01*
X180227024Y-97949346D01*
X180209781Y-97962134D01*
X180191368Y-97973170D01*
X180171962Y-97982349D01*
X180151750Y-97989581D01*
X180130926Y-97994797D01*
X180109691Y-97997947D01*
X180088250Y-97999000D01*
X179575750Y-97999000D01*
X179554309Y-97997947D01*
X179533074Y-97994797D01*
X179512250Y-97989581D01*
X179492038Y-97982349D01*
X179472632Y-97973170D01*
X179454219Y-97962134D01*
X179436976Y-97949346D01*
X179421070Y-97934930D01*
X179406654Y-97919024D01*
X179393866Y-97901781D01*
X179382830Y-97883368D01*
X179373651Y-97863962D01*
X179366419Y-97843750D01*
X179361203Y-97822926D01*
X179358053Y-97801691D01*
X179357000Y-97780250D01*
X179357000Y-97342750D01*
X179358053Y-97321309D01*
X179361203Y-97300074D01*
X179366419Y-97279250D01*
X179373651Y-97259038D01*
X179382830Y-97239632D01*
X179393866Y-97221219D01*
X179406654Y-97203976D01*
X179421070Y-97188070D01*
X179436976Y-97173654D01*
X179454219Y-97160866D01*
X179472632Y-97149830D01*
X179492038Y-97140651D01*
X179512250Y-97133419D01*
X179533074Y-97128203D01*
X179554309Y-97125053D01*
X179575750Y-97124000D01*
X180088250Y-97124000D01*
X180109691Y-97125053D01*
X180109691Y-97125053D01*
G37*
D18*
X179832000Y-97561500D03*
G04 #@! TD*
D17*
G04 #@! TO.C,R3*
G36*
X173251691Y-81326053D02*
X173272926Y-81329203D01*
X173293750Y-81334419D01*
X173313962Y-81341651D01*
X173333368Y-81350830D01*
X173351781Y-81361866D01*
X173369024Y-81374654D01*
X173384930Y-81389070D01*
X173399346Y-81404976D01*
X173412134Y-81422219D01*
X173423170Y-81440632D01*
X173432349Y-81460038D01*
X173439581Y-81480250D01*
X173444797Y-81501074D01*
X173447947Y-81522309D01*
X173449000Y-81543750D01*
X173449000Y-81981250D01*
X173447947Y-82002691D01*
X173444797Y-82023926D01*
X173439581Y-82044750D01*
X173432349Y-82064962D01*
X173423170Y-82084368D01*
X173412134Y-82102781D01*
X173399346Y-82120024D01*
X173384930Y-82135930D01*
X173369024Y-82150346D01*
X173351781Y-82163134D01*
X173333368Y-82174170D01*
X173313962Y-82183349D01*
X173293750Y-82190581D01*
X173272926Y-82195797D01*
X173251691Y-82198947D01*
X173230250Y-82200000D01*
X172717750Y-82200000D01*
X172696309Y-82198947D01*
X172675074Y-82195797D01*
X172654250Y-82190581D01*
X172634038Y-82183349D01*
X172614632Y-82174170D01*
X172596219Y-82163134D01*
X172578976Y-82150346D01*
X172563070Y-82135930D01*
X172548654Y-82120024D01*
X172535866Y-82102781D01*
X172524830Y-82084368D01*
X172515651Y-82064962D01*
X172508419Y-82044750D01*
X172503203Y-82023926D01*
X172500053Y-82002691D01*
X172499000Y-81981250D01*
X172499000Y-81543750D01*
X172500053Y-81522309D01*
X172503203Y-81501074D01*
X172508419Y-81480250D01*
X172515651Y-81460038D01*
X172524830Y-81440632D01*
X172535866Y-81422219D01*
X172548654Y-81404976D01*
X172563070Y-81389070D01*
X172578976Y-81374654D01*
X172596219Y-81361866D01*
X172614632Y-81350830D01*
X172634038Y-81341651D01*
X172654250Y-81334419D01*
X172675074Y-81329203D01*
X172696309Y-81326053D01*
X172717750Y-81325000D01*
X173230250Y-81325000D01*
X173251691Y-81326053D01*
X173251691Y-81326053D01*
G37*
D18*
X172974000Y-81762500D03*
D17*
G36*
X173251691Y-82901053D02*
X173272926Y-82904203D01*
X173293750Y-82909419D01*
X173313962Y-82916651D01*
X173333368Y-82925830D01*
X173351781Y-82936866D01*
X173369024Y-82949654D01*
X173384930Y-82964070D01*
X173399346Y-82979976D01*
X173412134Y-82997219D01*
X173423170Y-83015632D01*
X173432349Y-83035038D01*
X173439581Y-83055250D01*
X173444797Y-83076074D01*
X173447947Y-83097309D01*
X173449000Y-83118750D01*
X173449000Y-83556250D01*
X173447947Y-83577691D01*
X173444797Y-83598926D01*
X173439581Y-83619750D01*
X173432349Y-83639962D01*
X173423170Y-83659368D01*
X173412134Y-83677781D01*
X173399346Y-83695024D01*
X173384930Y-83710930D01*
X173369024Y-83725346D01*
X173351781Y-83738134D01*
X173333368Y-83749170D01*
X173313962Y-83758349D01*
X173293750Y-83765581D01*
X173272926Y-83770797D01*
X173251691Y-83773947D01*
X173230250Y-83775000D01*
X172717750Y-83775000D01*
X172696309Y-83773947D01*
X172675074Y-83770797D01*
X172654250Y-83765581D01*
X172634038Y-83758349D01*
X172614632Y-83749170D01*
X172596219Y-83738134D01*
X172578976Y-83725346D01*
X172563070Y-83710930D01*
X172548654Y-83695024D01*
X172535866Y-83677781D01*
X172524830Y-83659368D01*
X172515651Y-83639962D01*
X172508419Y-83619750D01*
X172503203Y-83598926D01*
X172500053Y-83577691D01*
X172499000Y-83556250D01*
X172499000Y-83118750D01*
X172500053Y-83097309D01*
X172503203Y-83076074D01*
X172508419Y-83055250D01*
X172515651Y-83035038D01*
X172524830Y-83015632D01*
X172535866Y-82997219D01*
X172548654Y-82979976D01*
X172563070Y-82964070D01*
X172578976Y-82949654D01*
X172596219Y-82936866D01*
X172614632Y-82925830D01*
X172634038Y-82916651D01*
X172654250Y-82909419D01*
X172675074Y-82904203D01*
X172696309Y-82901053D01*
X172717750Y-82900000D01*
X173230250Y-82900000D01*
X173251691Y-82901053D01*
X173251691Y-82901053D01*
G37*
D18*
X172974000Y-83337500D03*
G04 #@! TD*
D17*
G04 #@! TO.C,R4*
G36*
X177696691Y-82875553D02*
X177717926Y-82878703D01*
X177738750Y-82883919D01*
X177758962Y-82891151D01*
X177778368Y-82900330D01*
X177796781Y-82911366D01*
X177814024Y-82924154D01*
X177829930Y-82938570D01*
X177844346Y-82954476D01*
X177857134Y-82971719D01*
X177868170Y-82990132D01*
X177877349Y-83009538D01*
X177884581Y-83029750D01*
X177889797Y-83050574D01*
X177892947Y-83071809D01*
X177894000Y-83093250D01*
X177894000Y-83530750D01*
X177892947Y-83552191D01*
X177889797Y-83573426D01*
X177884581Y-83594250D01*
X177877349Y-83614462D01*
X177868170Y-83633868D01*
X177857134Y-83652281D01*
X177844346Y-83669524D01*
X177829930Y-83685430D01*
X177814024Y-83699846D01*
X177796781Y-83712634D01*
X177778368Y-83723670D01*
X177758962Y-83732849D01*
X177738750Y-83740081D01*
X177717926Y-83745297D01*
X177696691Y-83748447D01*
X177675250Y-83749500D01*
X177162750Y-83749500D01*
X177141309Y-83748447D01*
X177120074Y-83745297D01*
X177099250Y-83740081D01*
X177079038Y-83732849D01*
X177059632Y-83723670D01*
X177041219Y-83712634D01*
X177023976Y-83699846D01*
X177008070Y-83685430D01*
X176993654Y-83669524D01*
X176980866Y-83652281D01*
X176969830Y-83633868D01*
X176960651Y-83614462D01*
X176953419Y-83594250D01*
X176948203Y-83573426D01*
X176945053Y-83552191D01*
X176944000Y-83530750D01*
X176944000Y-83093250D01*
X176945053Y-83071809D01*
X176948203Y-83050574D01*
X176953419Y-83029750D01*
X176960651Y-83009538D01*
X176969830Y-82990132D01*
X176980866Y-82971719D01*
X176993654Y-82954476D01*
X177008070Y-82938570D01*
X177023976Y-82924154D01*
X177041219Y-82911366D01*
X177059632Y-82900330D01*
X177079038Y-82891151D01*
X177099250Y-82883919D01*
X177120074Y-82878703D01*
X177141309Y-82875553D01*
X177162750Y-82874500D01*
X177675250Y-82874500D01*
X177696691Y-82875553D01*
X177696691Y-82875553D01*
G37*
D18*
X177419000Y-83312000D03*
D17*
G36*
X177696691Y-81300553D02*
X177717926Y-81303703D01*
X177738750Y-81308919D01*
X177758962Y-81316151D01*
X177778368Y-81325330D01*
X177796781Y-81336366D01*
X177814024Y-81349154D01*
X177829930Y-81363570D01*
X177844346Y-81379476D01*
X177857134Y-81396719D01*
X177868170Y-81415132D01*
X177877349Y-81434538D01*
X177884581Y-81454750D01*
X177889797Y-81475574D01*
X177892947Y-81496809D01*
X177894000Y-81518250D01*
X177894000Y-81955750D01*
X177892947Y-81977191D01*
X177889797Y-81998426D01*
X177884581Y-82019250D01*
X177877349Y-82039462D01*
X177868170Y-82058868D01*
X177857134Y-82077281D01*
X177844346Y-82094524D01*
X177829930Y-82110430D01*
X177814024Y-82124846D01*
X177796781Y-82137634D01*
X177778368Y-82148670D01*
X177758962Y-82157849D01*
X177738750Y-82165081D01*
X177717926Y-82170297D01*
X177696691Y-82173447D01*
X177675250Y-82174500D01*
X177162750Y-82174500D01*
X177141309Y-82173447D01*
X177120074Y-82170297D01*
X177099250Y-82165081D01*
X177079038Y-82157849D01*
X177059632Y-82148670D01*
X177041219Y-82137634D01*
X177023976Y-82124846D01*
X177008070Y-82110430D01*
X176993654Y-82094524D01*
X176980866Y-82077281D01*
X176969830Y-82058868D01*
X176960651Y-82039462D01*
X176953419Y-82019250D01*
X176948203Y-81998426D01*
X176945053Y-81977191D01*
X176944000Y-81955750D01*
X176944000Y-81518250D01*
X176945053Y-81496809D01*
X176948203Y-81475574D01*
X176953419Y-81454750D01*
X176960651Y-81434538D01*
X176969830Y-81415132D01*
X176980866Y-81396719D01*
X176993654Y-81379476D01*
X177008070Y-81363570D01*
X177023976Y-81349154D01*
X177041219Y-81336366D01*
X177059632Y-81325330D01*
X177079038Y-81316151D01*
X177099250Y-81308919D01*
X177120074Y-81303703D01*
X177141309Y-81300553D01*
X177162750Y-81299500D01*
X177675250Y-81299500D01*
X177696691Y-81300553D01*
X177696691Y-81300553D01*
G37*
D18*
X177419000Y-81737000D03*
G04 #@! TD*
D17*
G04 #@! TO.C,D1*
G36*
X173378691Y-84628053D02*
X173399926Y-84631203D01*
X173420750Y-84636419D01*
X173440962Y-84643651D01*
X173460368Y-84652830D01*
X173478781Y-84663866D01*
X173496024Y-84676654D01*
X173511930Y-84691070D01*
X173526346Y-84706976D01*
X173539134Y-84724219D01*
X173550170Y-84742632D01*
X173559349Y-84762038D01*
X173566581Y-84782250D01*
X173571797Y-84803074D01*
X173574947Y-84824309D01*
X173576000Y-84845750D01*
X173576000Y-85283250D01*
X173574947Y-85304691D01*
X173571797Y-85325926D01*
X173566581Y-85346750D01*
X173559349Y-85366962D01*
X173550170Y-85386368D01*
X173539134Y-85404781D01*
X173526346Y-85422024D01*
X173511930Y-85437930D01*
X173496024Y-85452346D01*
X173478781Y-85465134D01*
X173460368Y-85476170D01*
X173440962Y-85485349D01*
X173420750Y-85492581D01*
X173399926Y-85497797D01*
X173378691Y-85500947D01*
X173357250Y-85502000D01*
X172844750Y-85502000D01*
X172823309Y-85500947D01*
X172802074Y-85497797D01*
X172781250Y-85492581D01*
X172761038Y-85485349D01*
X172741632Y-85476170D01*
X172723219Y-85465134D01*
X172705976Y-85452346D01*
X172690070Y-85437930D01*
X172675654Y-85422024D01*
X172662866Y-85404781D01*
X172651830Y-85386368D01*
X172642651Y-85366962D01*
X172635419Y-85346750D01*
X172630203Y-85325926D01*
X172627053Y-85304691D01*
X172626000Y-85283250D01*
X172626000Y-84845750D01*
X172627053Y-84824309D01*
X172630203Y-84803074D01*
X172635419Y-84782250D01*
X172642651Y-84762038D01*
X172651830Y-84742632D01*
X172662866Y-84724219D01*
X172675654Y-84706976D01*
X172690070Y-84691070D01*
X172705976Y-84676654D01*
X172723219Y-84663866D01*
X172741632Y-84652830D01*
X172761038Y-84643651D01*
X172781250Y-84636419D01*
X172802074Y-84631203D01*
X172823309Y-84628053D01*
X172844750Y-84627000D01*
X173357250Y-84627000D01*
X173378691Y-84628053D01*
X173378691Y-84628053D01*
G37*
D18*
X173101000Y-85064500D03*
D17*
G36*
X173378691Y-86203053D02*
X173399926Y-86206203D01*
X173420750Y-86211419D01*
X173440962Y-86218651D01*
X173460368Y-86227830D01*
X173478781Y-86238866D01*
X173496024Y-86251654D01*
X173511930Y-86266070D01*
X173526346Y-86281976D01*
X173539134Y-86299219D01*
X173550170Y-86317632D01*
X173559349Y-86337038D01*
X173566581Y-86357250D01*
X173571797Y-86378074D01*
X173574947Y-86399309D01*
X173576000Y-86420750D01*
X173576000Y-86858250D01*
X173574947Y-86879691D01*
X173571797Y-86900926D01*
X173566581Y-86921750D01*
X173559349Y-86941962D01*
X173550170Y-86961368D01*
X173539134Y-86979781D01*
X173526346Y-86997024D01*
X173511930Y-87012930D01*
X173496024Y-87027346D01*
X173478781Y-87040134D01*
X173460368Y-87051170D01*
X173440962Y-87060349D01*
X173420750Y-87067581D01*
X173399926Y-87072797D01*
X173378691Y-87075947D01*
X173357250Y-87077000D01*
X172844750Y-87077000D01*
X172823309Y-87075947D01*
X172802074Y-87072797D01*
X172781250Y-87067581D01*
X172761038Y-87060349D01*
X172741632Y-87051170D01*
X172723219Y-87040134D01*
X172705976Y-87027346D01*
X172690070Y-87012930D01*
X172675654Y-86997024D01*
X172662866Y-86979781D01*
X172651830Y-86961368D01*
X172642651Y-86941962D01*
X172635419Y-86921750D01*
X172630203Y-86900926D01*
X172627053Y-86879691D01*
X172626000Y-86858250D01*
X172626000Y-86420750D01*
X172627053Y-86399309D01*
X172630203Y-86378074D01*
X172635419Y-86357250D01*
X172642651Y-86337038D01*
X172651830Y-86317632D01*
X172662866Y-86299219D01*
X172675654Y-86281976D01*
X172690070Y-86266070D01*
X172705976Y-86251654D01*
X172723219Y-86238866D01*
X172741632Y-86227830D01*
X172761038Y-86218651D01*
X172781250Y-86211419D01*
X172802074Y-86206203D01*
X172823309Y-86203053D01*
X172844750Y-86202000D01*
X173357250Y-86202000D01*
X173378691Y-86203053D01*
X173378691Y-86203053D01*
G37*
D18*
X173101000Y-86639500D03*
G04 #@! TD*
D17*
G04 #@! TO.C,D2*
G36*
X177569691Y-86203053D02*
X177590926Y-86206203D01*
X177611750Y-86211419D01*
X177631962Y-86218651D01*
X177651368Y-86227830D01*
X177669781Y-86238866D01*
X177687024Y-86251654D01*
X177702930Y-86266070D01*
X177717346Y-86281976D01*
X177730134Y-86299219D01*
X177741170Y-86317632D01*
X177750349Y-86337038D01*
X177757581Y-86357250D01*
X177762797Y-86378074D01*
X177765947Y-86399309D01*
X177767000Y-86420750D01*
X177767000Y-86858250D01*
X177765947Y-86879691D01*
X177762797Y-86900926D01*
X177757581Y-86921750D01*
X177750349Y-86941962D01*
X177741170Y-86961368D01*
X177730134Y-86979781D01*
X177717346Y-86997024D01*
X177702930Y-87012930D01*
X177687024Y-87027346D01*
X177669781Y-87040134D01*
X177651368Y-87051170D01*
X177631962Y-87060349D01*
X177611750Y-87067581D01*
X177590926Y-87072797D01*
X177569691Y-87075947D01*
X177548250Y-87077000D01*
X177035750Y-87077000D01*
X177014309Y-87075947D01*
X176993074Y-87072797D01*
X176972250Y-87067581D01*
X176952038Y-87060349D01*
X176932632Y-87051170D01*
X176914219Y-87040134D01*
X176896976Y-87027346D01*
X176881070Y-87012930D01*
X176866654Y-86997024D01*
X176853866Y-86979781D01*
X176842830Y-86961368D01*
X176833651Y-86941962D01*
X176826419Y-86921750D01*
X176821203Y-86900926D01*
X176818053Y-86879691D01*
X176817000Y-86858250D01*
X176817000Y-86420750D01*
X176818053Y-86399309D01*
X176821203Y-86378074D01*
X176826419Y-86357250D01*
X176833651Y-86337038D01*
X176842830Y-86317632D01*
X176853866Y-86299219D01*
X176866654Y-86281976D01*
X176881070Y-86266070D01*
X176896976Y-86251654D01*
X176914219Y-86238866D01*
X176932632Y-86227830D01*
X176952038Y-86218651D01*
X176972250Y-86211419D01*
X176993074Y-86206203D01*
X177014309Y-86203053D01*
X177035750Y-86202000D01*
X177548250Y-86202000D01*
X177569691Y-86203053D01*
X177569691Y-86203053D01*
G37*
D18*
X177292000Y-86639500D03*
D17*
G36*
X177569691Y-84628053D02*
X177590926Y-84631203D01*
X177611750Y-84636419D01*
X177631962Y-84643651D01*
X177651368Y-84652830D01*
X177669781Y-84663866D01*
X177687024Y-84676654D01*
X177702930Y-84691070D01*
X177717346Y-84706976D01*
X177730134Y-84724219D01*
X177741170Y-84742632D01*
X177750349Y-84762038D01*
X177757581Y-84782250D01*
X177762797Y-84803074D01*
X177765947Y-84824309D01*
X177767000Y-84845750D01*
X177767000Y-85283250D01*
X177765947Y-85304691D01*
X177762797Y-85325926D01*
X177757581Y-85346750D01*
X177750349Y-85366962D01*
X177741170Y-85386368D01*
X177730134Y-85404781D01*
X177717346Y-85422024D01*
X177702930Y-85437930D01*
X177687024Y-85452346D01*
X177669781Y-85465134D01*
X177651368Y-85476170D01*
X177631962Y-85485349D01*
X177611750Y-85492581D01*
X177590926Y-85497797D01*
X177569691Y-85500947D01*
X177548250Y-85502000D01*
X177035750Y-85502000D01*
X177014309Y-85500947D01*
X176993074Y-85497797D01*
X176972250Y-85492581D01*
X176952038Y-85485349D01*
X176932632Y-85476170D01*
X176914219Y-85465134D01*
X176896976Y-85452346D01*
X176881070Y-85437930D01*
X176866654Y-85422024D01*
X176853866Y-85404781D01*
X176842830Y-85386368D01*
X176833651Y-85366962D01*
X176826419Y-85346750D01*
X176821203Y-85325926D01*
X176818053Y-85304691D01*
X176817000Y-85283250D01*
X176817000Y-84845750D01*
X176818053Y-84824309D01*
X176821203Y-84803074D01*
X176826419Y-84782250D01*
X176833651Y-84762038D01*
X176842830Y-84742632D01*
X176853866Y-84724219D01*
X176866654Y-84706976D01*
X176881070Y-84691070D01*
X176896976Y-84676654D01*
X176914219Y-84663866D01*
X176932632Y-84652830D01*
X176952038Y-84643651D01*
X176972250Y-84636419D01*
X176993074Y-84631203D01*
X177014309Y-84628053D01*
X177035750Y-84627000D01*
X177548250Y-84627000D01*
X177569691Y-84628053D01*
X177569691Y-84628053D01*
G37*
D18*
X177292000Y-85064500D03*
G04 #@! TD*
M02*
