G04 #@! TF.GenerationSoftware,KiCad,Pcbnew,(5.0.0)*
G04 #@! TF.CreationDate,2018-09-15T15:06:13-04:00*
G04 #@! TF.ProjectId,STMPod,53544D506F642E6B696361645F706362,rev?*
G04 #@! TF.SameCoordinates,Original*
G04 #@! TF.FileFunction,Copper,L1,Top,Signal*
G04 #@! TF.FilePolarity,Positive*
%FSLAX46Y46*%
G04 Gerber Fmt 4.6, Leading zero omitted, Abs format (unit mm)*
G04 Created by KiCad (PCBNEW (5.0.0)) date 09/15/18 15:06:13*
%MOMM*%
%LPD*%
G01*
G04 APERTURE LIST*
G04 #@! TA.AperFunction,SMDPad,CuDef*
%ADD10R,2.000000X1.600000*%
G04 #@! TD*
G04 #@! TA.AperFunction,SMDPad,CuDef*
%ADD11R,1.450000X0.450000*%
G04 #@! TD*
G04 #@! TA.AperFunction,ComponentPad*
%ADD12R,1.700000X1.700000*%
G04 #@! TD*
G04 #@! TA.AperFunction,ComponentPad*
%ADD13O,1.700000X1.700000*%
G04 #@! TD*
G04 #@! TA.AperFunction,SMDPad,CuDef*
%ADD14R,0.500000X2.000000*%
G04 #@! TD*
G04 #@! TA.AperFunction,SMDPad,CuDef*
%ADD15R,2.000000X1.700000*%
G04 #@! TD*
G04 #@! TA.AperFunction,Conductor*
%ADD16C,0.100000*%
G04 #@! TD*
G04 #@! TA.AperFunction,SMDPad,CuDef*
%ADD17C,0.875000*%
G04 #@! TD*
G04 #@! TA.AperFunction,ViaPad*
%ADD18C,0.800000*%
G04 #@! TD*
G04 #@! TA.AperFunction,Conductor*
%ADD19C,0.250000*%
G04 #@! TD*
G04 #@! TA.AperFunction,Conductor*
%ADD20C,0.500000*%
G04 #@! TD*
G04 APERTURE END LIST*
D10*
G04 #@! TO.P,SW1,2*
G04 #@! TO.N,GNDREF*
X172306000Y-97028000D03*
G04 #@! TO.P,SW1,1*
G04 #@! TO.N,/RESET*
X177706000Y-97028000D03*
G04 #@! TD*
D11*
G04 #@! TO.P,U1,1*
G04 #@! TO.N,/BOOT*
X178210000Y-94365000D03*
G04 #@! TO.P,U1,2*
G04 #@! TO.N,/OSC_0*
X178210000Y-93715000D03*
G04 #@! TO.P,U1,3*
G04 #@! TO.N,/OSC_1*
X178210000Y-93065000D03*
G04 #@! TO.P,U1,4*
G04 #@! TO.N,/RESET*
X178210000Y-92415000D03*
G04 #@! TO.P,U1,5*
G04 #@! TO.N,+3V3*
X178210000Y-91765000D03*
G04 #@! TO.P,U1,6*
G04 #@! TO.N,/PA0*
X178210000Y-91115000D03*
G04 #@! TO.P,U1,7*
G04 #@! TO.N,/PA1*
X178210000Y-90465000D03*
G04 #@! TO.P,U1,8*
G04 #@! TO.N,/PA2*
X178210000Y-89815000D03*
G04 #@! TO.P,U1,9*
G04 #@! TO.N,/PA3*
X178210000Y-89165000D03*
G04 #@! TO.P,U1,10*
G04 #@! TO.N,/PA4*
X178210000Y-88515000D03*
G04 #@! TO.P,U1,11*
G04 #@! TO.N,/PA5*
X172310000Y-88515000D03*
G04 #@! TO.P,U1,12*
G04 #@! TO.N,/PA6*
X172310000Y-89165000D03*
G04 #@! TO.P,U1,13*
G04 #@! TO.N,/PA7*
X172310000Y-89815000D03*
G04 #@! TO.P,U1,14*
G04 #@! TO.N,/PB1*
X172310000Y-90465000D03*
G04 #@! TO.P,U1,15*
G04 #@! TO.N,GNDREF*
X172310000Y-91115000D03*
G04 #@! TO.P,U1,16*
G04 #@! TO.N,+3V3*
X172310000Y-91765000D03*
G04 #@! TO.P,U1,17*
G04 #@! TO.N,/PA9*
X172310000Y-92415000D03*
G04 #@! TO.P,U1,18*
G04 #@! TO.N,/PA10*
X172310000Y-93065000D03*
G04 #@! TO.P,U1,19*
G04 #@! TO.N,/SWCLK*
X172310000Y-93715000D03*
G04 #@! TO.P,U1,20*
G04 #@! TO.N,/SWDIO*
X172310000Y-94365000D03*
G04 #@! TD*
D12*
G04 #@! TO.P,J1,1*
G04 #@! TO.N,+3V3*
X171450000Y-101600000D03*
D13*
G04 #@! TO.P,J1,2*
G04 #@! TO.N,/SWCLK*
X173990000Y-101600000D03*
G04 #@! TO.P,J1,3*
G04 #@! TO.N,/SWDIO*
X176530000Y-101600000D03*
G04 #@! TO.P,J1,4*
G04 #@! TO.N,GNDREF*
X179070000Y-101600000D03*
G04 #@! TD*
D12*
G04 #@! TO.P,J2,1*
G04 #@! TO.N,/BOOT*
X182880000Y-101600000D03*
D13*
G04 #@! TO.P,J2,2*
G04 #@! TO.N,/OSC_0*
X182880000Y-99060000D03*
G04 #@! TO.P,J2,3*
G04 #@! TO.N,/OSC_1*
X182880000Y-96520000D03*
G04 #@! TO.P,J2,4*
G04 #@! TO.N,/RESET*
X182880000Y-93980000D03*
G04 #@! TO.P,J2,5*
G04 #@! TO.N,+3V3*
X182880000Y-91440000D03*
G04 #@! TO.P,J2,6*
G04 #@! TO.N,/PA0*
X182880000Y-88900000D03*
G04 #@! TO.P,J2,7*
G04 #@! TO.N,/PA1*
X182880000Y-86360000D03*
G04 #@! TO.P,J2,8*
G04 #@! TO.N,/PA2*
X182880000Y-83820000D03*
G04 #@! TO.P,J2,9*
G04 #@! TO.N,/PA3*
X182880000Y-81280000D03*
G04 #@! TO.P,J2,10*
G04 #@! TO.N,/PA4*
X182880000Y-78740000D03*
G04 #@! TO.P,J2,11*
G04 #@! TO.N,+5V*
X182880000Y-76200000D03*
G04 #@! TO.P,J2,12*
G04 #@! TO.N,GNDREF*
X182880000Y-73660000D03*
G04 #@! TD*
G04 #@! TO.P,J3,12*
G04 #@! TO.N,GNDREF*
X167640000Y-73660000D03*
G04 #@! TO.P,J3,11*
G04 #@! TO.N,+3V3*
X167640000Y-76200000D03*
G04 #@! TO.P,J3,10*
G04 #@! TO.N,/PA5*
X167640000Y-78740000D03*
G04 #@! TO.P,J3,9*
G04 #@! TO.N,/PA6*
X167640000Y-81280000D03*
G04 #@! TO.P,J3,8*
G04 #@! TO.N,/PA7*
X167640000Y-83820000D03*
G04 #@! TO.P,J3,7*
G04 #@! TO.N,/PB1*
X167640000Y-86360000D03*
G04 #@! TO.P,J3,6*
G04 #@! TO.N,GNDREF*
X167640000Y-88900000D03*
G04 #@! TO.P,J3,5*
G04 #@! TO.N,+3V3*
X167640000Y-91440000D03*
G04 #@! TO.P,J3,4*
G04 #@! TO.N,/PA9*
X167640000Y-93980000D03*
G04 #@! TO.P,J3,3*
G04 #@! TO.N,/PA10*
X167640000Y-96520000D03*
G04 #@! TO.P,J3,2*
G04 #@! TO.N,/SWCLK*
X167640000Y-99060000D03*
D12*
G04 #@! TO.P,J3,1*
G04 #@! TO.N,/SWDIO*
X167640000Y-101600000D03*
G04 #@! TD*
D14*
G04 #@! TO.P,J4,1*
G04 #@! TO.N,+5V*
X177114000Y-78646000D03*
G04 #@! TO.P,J4,2*
G04 #@! TO.N,Net-(J4-Pad2)*
X176314000Y-78646000D03*
G04 #@! TO.P,J4,3*
G04 #@! TO.N,Net-(J4-Pad3)*
X175514000Y-78646000D03*
G04 #@! TO.P,J4,4*
G04 #@! TO.N,Net-(J4-Pad4)*
X174714000Y-78646000D03*
G04 #@! TO.P,J4,5*
G04 #@! TO.N,GNDREF*
X173914000Y-78646000D03*
D15*
G04 #@! TO.P,J4,6*
X179964000Y-78546000D03*
X179964000Y-73096000D03*
X171064000Y-78546000D03*
X171064000Y-73096000D03*
G04 #@! TD*
D16*
G04 #@! TO.N,/BOOT*
G04 #@! TO.C,R2*
G36*
X180109691Y-95550053D02*
X180130926Y-95553203D01*
X180151750Y-95558419D01*
X180171962Y-95565651D01*
X180191368Y-95574830D01*
X180209781Y-95585866D01*
X180227024Y-95598654D01*
X180242930Y-95613070D01*
X180257346Y-95628976D01*
X180270134Y-95646219D01*
X180281170Y-95664632D01*
X180290349Y-95684038D01*
X180297581Y-95704250D01*
X180302797Y-95725074D01*
X180305947Y-95746309D01*
X180307000Y-95767750D01*
X180307000Y-96205250D01*
X180305947Y-96226691D01*
X180302797Y-96247926D01*
X180297581Y-96268750D01*
X180290349Y-96288962D01*
X180281170Y-96308368D01*
X180270134Y-96326781D01*
X180257346Y-96344024D01*
X180242930Y-96359930D01*
X180227024Y-96374346D01*
X180209781Y-96387134D01*
X180191368Y-96398170D01*
X180171962Y-96407349D01*
X180151750Y-96414581D01*
X180130926Y-96419797D01*
X180109691Y-96422947D01*
X180088250Y-96424000D01*
X179575750Y-96424000D01*
X179554309Y-96422947D01*
X179533074Y-96419797D01*
X179512250Y-96414581D01*
X179492038Y-96407349D01*
X179472632Y-96398170D01*
X179454219Y-96387134D01*
X179436976Y-96374346D01*
X179421070Y-96359930D01*
X179406654Y-96344024D01*
X179393866Y-96326781D01*
X179382830Y-96308368D01*
X179373651Y-96288962D01*
X179366419Y-96268750D01*
X179361203Y-96247926D01*
X179358053Y-96226691D01*
X179357000Y-96205250D01*
X179357000Y-95767750D01*
X179358053Y-95746309D01*
X179361203Y-95725074D01*
X179366419Y-95704250D01*
X179373651Y-95684038D01*
X179382830Y-95664632D01*
X179393866Y-95646219D01*
X179406654Y-95628976D01*
X179421070Y-95613070D01*
X179436976Y-95598654D01*
X179454219Y-95585866D01*
X179472632Y-95574830D01*
X179492038Y-95565651D01*
X179512250Y-95558419D01*
X179533074Y-95553203D01*
X179554309Y-95550053D01*
X179575750Y-95549000D01*
X180088250Y-95549000D01*
X180109691Y-95550053D01*
X180109691Y-95550053D01*
G37*
D17*
G04 #@! TD*
G04 #@! TO.P,R2,1*
G04 #@! TO.N,/BOOT*
X179832000Y-95986500D03*
D16*
G04 #@! TO.N,GNDREF*
G04 #@! TO.C,R2*
G36*
X180109691Y-97125053D02*
X180130926Y-97128203D01*
X180151750Y-97133419D01*
X180171962Y-97140651D01*
X180191368Y-97149830D01*
X180209781Y-97160866D01*
X180227024Y-97173654D01*
X180242930Y-97188070D01*
X180257346Y-97203976D01*
X180270134Y-97221219D01*
X180281170Y-97239632D01*
X180290349Y-97259038D01*
X180297581Y-97279250D01*
X180302797Y-97300074D01*
X180305947Y-97321309D01*
X180307000Y-97342750D01*
X180307000Y-97780250D01*
X180305947Y-97801691D01*
X180302797Y-97822926D01*
X180297581Y-97843750D01*
X180290349Y-97863962D01*
X180281170Y-97883368D01*
X180270134Y-97901781D01*
X180257346Y-97919024D01*
X180242930Y-97934930D01*
X180227024Y-97949346D01*
X180209781Y-97962134D01*
X180191368Y-97973170D01*
X180171962Y-97982349D01*
X180151750Y-97989581D01*
X180130926Y-97994797D01*
X180109691Y-97997947D01*
X180088250Y-97999000D01*
X179575750Y-97999000D01*
X179554309Y-97997947D01*
X179533074Y-97994797D01*
X179512250Y-97989581D01*
X179492038Y-97982349D01*
X179472632Y-97973170D01*
X179454219Y-97962134D01*
X179436976Y-97949346D01*
X179421070Y-97934930D01*
X179406654Y-97919024D01*
X179393866Y-97901781D01*
X179382830Y-97883368D01*
X179373651Y-97863962D01*
X179366419Y-97843750D01*
X179361203Y-97822926D01*
X179358053Y-97801691D01*
X179357000Y-97780250D01*
X179357000Y-97342750D01*
X179358053Y-97321309D01*
X179361203Y-97300074D01*
X179366419Y-97279250D01*
X179373651Y-97259038D01*
X179382830Y-97239632D01*
X179393866Y-97221219D01*
X179406654Y-97203976D01*
X179421070Y-97188070D01*
X179436976Y-97173654D01*
X179454219Y-97160866D01*
X179472632Y-97149830D01*
X179492038Y-97140651D01*
X179512250Y-97133419D01*
X179533074Y-97128203D01*
X179554309Y-97125053D01*
X179575750Y-97124000D01*
X180088250Y-97124000D01*
X180109691Y-97125053D01*
X180109691Y-97125053D01*
G37*
D17*
G04 #@! TD*
G04 #@! TO.P,R2,2*
G04 #@! TO.N,GNDREF*
X179832000Y-97561500D03*
D16*
G04 #@! TO.N,GNDREF*
G04 #@! TO.C,R3*
G36*
X173251691Y-81326053D02*
X173272926Y-81329203D01*
X173293750Y-81334419D01*
X173313962Y-81341651D01*
X173333368Y-81350830D01*
X173351781Y-81361866D01*
X173369024Y-81374654D01*
X173384930Y-81389070D01*
X173399346Y-81404976D01*
X173412134Y-81422219D01*
X173423170Y-81440632D01*
X173432349Y-81460038D01*
X173439581Y-81480250D01*
X173444797Y-81501074D01*
X173447947Y-81522309D01*
X173449000Y-81543750D01*
X173449000Y-81981250D01*
X173447947Y-82002691D01*
X173444797Y-82023926D01*
X173439581Y-82044750D01*
X173432349Y-82064962D01*
X173423170Y-82084368D01*
X173412134Y-82102781D01*
X173399346Y-82120024D01*
X173384930Y-82135930D01*
X173369024Y-82150346D01*
X173351781Y-82163134D01*
X173333368Y-82174170D01*
X173313962Y-82183349D01*
X173293750Y-82190581D01*
X173272926Y-82195797D01*
X173251691Y-82198947D01*
X173230250Y-82200000D01*
X172717750Y-82200000D01*
X172696309Y-82198947D01*
X172675074Y-82195797D01*
X172654250Y-82190581D01*
X172634038Y-82183349D01*
X172614632Y-82174170D01*
X172596219Y-82163134D01*
X172578976Y-82150346D01*
X172563070Y-82135930D01*
X172548654Y-82120024D01*
X172535866Y-82102781D01*
X172524830Y-82084368D01*
X172515651Y-82064962D01*
X172508419Y-82044750D01*
X172503203Y-82023926D01*
X172500053Y-82002691D01*
X172499000Y-81981250D01*
X172499000Y-81543750D01*
X172500053Y-81522309D01*
X172503203Y-81501074D01*
X172508419Y-81480250D01*
X172515651Y-81460038D01*
X172524830Y-81440632D01*
X172535866Y-81422219D01*
X172548654Y-81404976D01*
X172563070Y-81389070D01*
X172578976Y-81374654D01*
X172596219Y-81361866D01*
X172614632Y-81350830D01*
X172634038Y-81341651D01*
X172654250Y-81334419D01*
X172675074Y-81329203D01*
X172696309Y-81326053D01*
X172717750Y-81325000D01*
X173230250Y-81325000D01*
X173251691Y-81326053D01*
X173251691Y-81326053D01*
G37*
D17*
G04 #@! TD*
G04 #@! TO.P,R3,2*
G04 #@! TO.N,GNDREF*
X172974000Y-81762500D03*
D16*
G04 #@! TO.N,Net-(D1-Pad1)*
G04 #@! TO.C,R3*
G36*
X173251691Y-82901053D02*
X173272926Y-82904203D01*
X173293750Y-82909419D01*
X173313962Y-82916651D01*
X173333368Y-82925830D01*
X173351781Y-82936866D01*
X173369024Y-82949654D01*
X173384930Y-82964070D01*
X173399346Y-82979976D01*
X173412134Y-82997219D01*
X173423170Y-83015632D01*
X173432349Y-83035038D01*
X173439581Y-83055250D01*
X173444797Y-83076074D01*
X173447947Y-83097309D01*
X173449000Y-83118750D01*
X173449000Y-83556250D01*
X173447947Y-83577691D01*
X173444797Y-83598926D01*
X173439581Y-83619750D01*
X173432349Y-83639962D01*
X173423170Y-83659368D01*
X173412134Y-83677781D01*
X173399346Y-83695024D01*
X173384930Y-83710930D01*
X173369024Y-83725346D01*
X173351781Y-83738134D01*
X173333368Y-83749170D01*
X173313962Y-83758349D01*
X173293750Y-83765581D01*
X173272926Y-83770797D01*
X173251691Y-83773947D01*
X173230250Y-83775000D01*
X172717750Y-83775000D01*
X172696309Y-83773947D01*
X172675074Y-83770797D01*
X172654250Y-83765581D01*
X172634038Y-83758349D01*
X172614632Y-83749170D01*
X172596219Y-83738134D01*
X172578976Y-83725346D01*
X172563070Y-83710930D01*
X172548654Y-83695024D01*
X172535866Y-83677781D01*
X172524830Y-83659368D01*
X172515651Y-83639962D01*
X172508419Y-83619750D01*
X172503203Y-83598926D01*
X172500053Y-83577691D01*
X172499000Y-83556250D01*
X172499000Y-83118750D01*
X172500053Y-83097309D01*
X172503203Y-83076074D01*
X172508419Y-83055250D01*
X172515651Y-83035038D01*
X172524830Y-83015632D01*
X172535866Y-82997219D01*
X172548654Y-82979976D01*
X172563070Y-82964070D01*
X172578976Y-82949654D01*
X172596219Y-82936866D01*
X172614632Y-82925830D01*
X172634038Y-82916651D01*
X172654250Y-82909419D01*
X172675074Y-82904203D01*
X172696309Y-82901053D01*
X172717750Y-82900000D01*
X173230250Y-82900000D01*
X173251691Y-82901053D01*
X173251691Y-82901053D01*
G37*
D17*
G04 #@! TD*
G04 #@! TO.P,R3,1*
G04 #@! TO.N,Net-(D1-Pad1)*
X172974000Y-83337500D03*
D16*
G04 #@! TO.N,Net-(D2-Pad1)*
G04 #@! TO.C,R4*
G36*
X177696691Y-82875553D02*
X177717926Y-82878703D01*
X177738750Y-82883919D01*
X177758962Y-82891151D01*
X177778368Y-82900330D01*
X177796781Y-82911366D01*
X177814024Y-82924154D01*
X177829930Y-82938570D01*
X177844346Y-82954476D01*
X177857134Y-82971719D01*
X177868170Y-82990132D01*
X177877349Y-83009538D01*
X177884581Y-83029750D01*
X177889797Y-83050574D01*
X177892947Y-83071809D01*
X177894000Y-83093250D01*
X177894000Y-83530750D01*
X177892947Y-83552191D01*
X177889797Y-83573426D01*
X177884581Y-83594250D01*
X177877349Y-83614462D01*
X177868170Y-83633868D01*
X177857134Y-83652281D01*
X177844346Y-83669524D01*
X177829930Y-83685430D01*
X177814024Y-83699846D01*
X177796781Y-83712634D01*
X177778368Y-83723670D01*
X177758962Y-83732849D01*
X177738750Y-83740081D01*
X177717926Y-83745297D01*
X177696691Y-83748447D01*
X177675250Y-83749500D01*
X177162750Y-83749500D01*
X177141309Y-83748447D01*
X177120074Y-83745297D01*
X177099250Y-83740081D01*
X177079038Y-83732849D01*
X177059632Y-83723670D01*
X177041219Y-83712634D01*
X177023976Y-83699846D01*
X177008070Y-83685430D01*
X176993654Y-83669524D01*
X176980866Y-83652281D01*
X176969830Y-83633868D01*
X176960651Y-83614462D01*
X176953419Y-83594250D01*
X176948203Y-83573426D01*
X176945053Y-83552191D01*
X176944000Y-83530750D01*
X176944000Y-83093250D01*
X176945053Y-83071809D01*
X176948203Y-83050574D01*
X176953419Y-83029750D01*
X176960651Y-83009538D01*
X176969830Y-82990132D01*
X176980866Y-82971719D01*
X176993654Y-82954476D01*
X177008070Y-82938570D01*
X177023976Y-82924154D01*
X177041219Y-82911366D01*
X177059632Y-82900330D01*
X177079038Y-82891151D01*
X177099250Y-82883919D01*
X177120074Y-82878703D01*
X177141309Y-82875553D01*
X177162750Y-82874500D01*
X177675250Y-82874500D01*
X177696691Y-82875553D01*
X177696691Y-82875553D01*
G37*
D17*
G04 #@! TD*
G04 #@! TO.P,R4,1*
G04 #@! TO.N,Net-(D2-Pad1)*
X177419000Y-83312000D03*
D16*
G04 #@! TO.N,GNDREF*
G04 #@! TO.C,R4*
G36*
X177696691Y-81300553D02*
X177717926Y-81303703D01*
X177738750Y-81308919D01*
X177758962Y-81316151D01*
X177778368Y-81325330D01*
X177796781Y-81336366D01*
X177814024Y-81349154D01*
X177829930Y-81363570D01*
X177844346Y-81379476D01*
X177857134Y-81396719D01*
X177868170Y-81415132D01*
X177877349Y-81434538D01*
X177884581Y-81454750D01*
X177889797Y-81475574D01*
X177892947Y-81496809D01*
X177894000Y-81518250D01*
X177894000Y-81955750D01*
X177892947Y-81977191D01*
X177889797Y-81998426D01*
X177884581Y-82019250D01*
X177877349Y-82039462D01*
X177868170Y-82058868D01*
X177857134Y-82077281D01*
X177844346Y-82094524D01*
X177829930Y-82110430D01*
X177814024Y-82124846D01*
X177796781Y-82137634D01*
X177778368Y-82148670D01*
X177758962Y-82157849D01*
X177738750Y-82165081D01*
X177717926Y-82170297D01*
X177696691Y-82173447D01*
X177675250Y-82174500D01*
X177162750Y-82174500D01*
X177141309Y-82173447D01*
X177120074Y-82170297D01*
X177099250Y-82165081D01*
X177079038Y-82157849D01*
X177059632Y-82148670D01*
X177041219Y-82137634D01*
X177023976Y-82124846D01*
X177008070Y-82110430D01*
X176993654Y-82094524D01*
X176980866Y-82077281D01*
X176969830Y-82058868D01*
X176960651Y-82039462D01*
X176953419Y-82019250D01*
X176948203Y-81998426D01*
X176945053Y-81977191D01*
X176944000Y-81955750D01*
X176944000Y-81518250D01*
X176945053Y-81496809D01*
X176948203Y-81475574D01*
X176953419Y-81454750D01*
X176960651Y-81434538D01*
X176969830Y-81415132D01*
X176980866Y-81396719D01*
X176993654Y-81379476D01*
X177008070Y-81363570D01*
X177023976Y-81349154D01*
X177041219Y-81336366D01*
X177059632Y-81325330D01*
X177079038Y-81316151D01*
X177099250Y-81308919D01*
X177120074Y-81303703D01*
X177141309Y-81300553D01*
X177162750Y-81299500D01*
X177675250Y-81299500D01*
X177696691Y-81300553D01*
X177696691Y-81300553D01*
G37*
D17*
G04 #@! TD*
G04 #@! TO.P,R4,2*
G04 #@! TO.N,GNDREF*
X177419000Y-81737000D03*
D16*
G04 #@! TO.N,Net-(D1-Pad1)*
G04 #@! TO.C,D1*
G36*
X173378691Y-84628053D02*
X173399926Y-84631203D01*
X173420750Y-84636419D01*
X173440962Y-84643651D01*
X173460368Y-84652830D01*
X173478781Y-84663866D01*
X173496024Y-84676654D01*
X173511930Y-84691070D01*
X173526346Y-84706976D01*
X173539134Y-84724219D01*
X173550170Y-84742632D01*
X173559349Y-84762038D01*
X173566581Y-84782250D01*
X173571797Y-84803074D01*
X173574947Y-84824309D01*
X173576000Y-84845750D01*
X173576000Y-85283250D01*
X173574947Y-85304691D01*
X173571797Y-85325926D01*
X173566581Y-85346750D01*
X173559349Y-85366962D01*
X173550170Y-85386368D01*
X173539134Y-85404781D01*
X173526346Y-85422024D01*
X173511930Y-85437930D01*
X173496024Y-85452346D01*
X173478781Y-85465134D01*
X173460368Y-85476170D01*
X173440962Y-85485349D01*
X173420750Y-85492581D01*
X173399926Y-85497797D01*
X173378691Y-85500947D01*
X173357250Y-85502000D01*
X172844750Y-85502000D01*
X172823309Y-85500947D01*
X172802074Y-85497797D01*
X172781250Y-85492581D01*
X172761038Y-85485349D01*
X172741632Y-85476170D01*
X172723219Y-85465134D01*
X172705976Y-85452346D01*
X172690070Y-85437930D01*
X172675654Y-85422024D01*
X172662866Y-85404781D01*
X172651830Y-85386368D01*
X172642651Y-85366962D01*
X172635419Y-85346750D01*
X172630203Y-85325926D01*
X172627053Y-85304691D01*
X172626000Y-85283250D01*
X172626000Y-84845750D01*
X172627053Y-84824309D01*
X172630203Y-84803074D01*
X172635419Y-84782250D01*
X172642651Y-84762038D01*
X172651830Y-84742632D01*
X172662866Y-84724219D01*
X172675654Y-84706976D01*
X172690070Y-84691070D01*
X172705976Y-84676654D01*
X172723219Y-84663866D01*
X172741632Y-84652830D01*
X172761038Y-84643651D01*
X172781250Y-84636419D01*
X172802074Y-84631203D01*
X172823309Y-84628053D01*
X172844750Y-84627000D01*
X173357250Y-84627000D01*
X173378691Y-84628053D01*
X173378691Y-84628053D01*
G37*
D17*
G04 #@! TD*
G04 #@! TO.P,D1,1*
G04 #@! TO.N,Net-(D1-Pad1)*
X173101000Y-85064500D03*
D16*
G04 #@! TO.N,+3V3*
G04 #@! TO.C,D1*
G36*
X173378691Y-86203053D02*
X173399926Y-86206203D01*
X173420750Y-86211419D01*
X173440962Y-86218651D01*
X173460368Y-86227830D01*
X173478781Y-86238866D01*
X173496024Y-86251654D01*
X173511930Y-86266070D01*
X173526346Y-86281976D01*
X173539134Y-86299219D01*
X173550170Y-86317632D01*
X173559349Y-86337038D01*
X173566581Y-86357250D01*
X173571797Y-86378074D01*
X173574947Y-86399309D01*
X173576000Y-86420750D01*
X173576000Y-86858250D01*
X173574947Y-86879691D01*
X173571797Y-86900926D01*
X173566581Y-86921750D01*
X173559349Y-86941962D01*
X173550170Y-86961368D01*
X173539134Y-86979781D01*
X173526346Y-86997024D01*
X173511930Y-87012930D01*
X173496024Y-87027346D01*
X173478781Y-87040134D01*
X173460368Y-87051170D01*
X173440962Y-87060349D01*
X173420750Y-87067581D01*
X173399926Y-87072797D01*
X173378691Y-87075947D01*
X173357250Y-87077000D01*
X172844750Y-87077000D01*
X172823309Y-87075947D01*
X172802074Y-87072797D01*
X172781250Y-87067581D01*
X172761038Y-87060349D01*
X172741632Y-87051170D01*
X172723219Y-87040134D01*
X172705976Y-87027346D01*
X172690070Y-87012930D01*
X172675654Y-86997024D01*
X172662866Y-86979781D01*
X172651830Y-86961368D01*
X172642651Y-86941962D01*
X172635419Y-86921750D01*
X172630203Y-86900926D01*
X172627053Y-86879691D01*
X172626000Y-86858250D01*
X172626000Y-86420750D01*
X172627053Y-86399309D01*
X172630203Y-86378074D01*
X172635419Y-86357250D01*
X172642651Y-86337038D01*
X172651830Y-86317632D01*
X172662866Y-86299219D01*
X172675654Y-86281976D01*
X172690070Y-86266070D01*
X172705976Y-86251654D01*
X172723219Y-86238866D01*
X172741632Y-86227830D01*
X172761038Y-86218651D01*
X172781250Y-86211419D01*
X172802074Y-86206203D01*
X172823309Y-86203053D01*
X172844750Y-86202000D01*
X173357250Y-86202000D01*
X173378691Y-86203053D01*
X173378691Y-86203053D01*
G37*
D17*
G04 #@! TD*
G04 #@! TO.P,D1,2*
G04 #@! TO.N,+3V3*
X173101000Y-86639500D03*
D16*
G04 #@! TO.N,/PA0*
G04 #@! TO.C,D2*
G36*
X177569691Y-86203053D02*
X177590926Y-86206203D01*
X177611750Y-86211419D01*
X177631962Y-86218651D01*
X177651368Y-86227830D01*
X177669781Y-86238866D01*
X177687024Y-86251654D01*
X177702930Y-86266070D01*
X177717346Y-86281976D01*
X177730134Y-86299219D01*
X177741170Y-86317632D01*
X177750349Y-86337038D01*
X177757581Y-86357250D01*
X177762797Y-86378074D01*
X177765947Y-86399309D01*
X177767000Y-86420750D01*
X177767000Y-86858250D01*
X177765947Y-86879691D01*
X177762797Y-86900926D01*
X177757581Y-86921750D01*
X177750349Y-86941962D01*
X177741170Y-86961368D01*
X177730134Y-86979781D01*
X177717346Y-86997024D01*
X177702930Y-87012930D01*
X177687024Y-87027346D01*
X177669781Y-87040134D01*
X177651368Y-87051170D01*
X177631962Y-87060349D01*
X177611750Y-87067581D01*
X177590926Y-87072797D01*
X177569691Y-87075947D01*
X177548250Y-87077000D01*
X177035750Y-87077000D01*
X177014309Y-87075947D01*
X176993074Y-87072797D01*
X176972250Y-87067581D01*
X176952038Y-87060349D01*
X176932632Y-87051170D01*
X176914219Y-87040134D01*
X176896976Y-87027346D01*
X176881070Y-87012930D01*
X176866654Y-86997024D01*
X176853866Y-86979781D01*
X176842830Y-86961368D01*
X176833651Y-86941962D01*
X176826419Y-86921750D01*
X176821203Y-86900926D01*
X176818053Y-86879691D01*
X176817000Y-86858250D01*
X176817000Y-86420750D01*
X176818053Y-86399309D01*
X176821203Y-86378074D01*
X176826419Y-86357250D01*
X176833651Y-86337038D01*
X176842830Y-86317632D01*
X176853866Y-86299219D01*
X176866654Y-86281976D01*
X176881070Y-86266070D01*
X176896976Y-86251654D01*
X176914219Y-86238866D01*
X176932632Y-86227830D01*
X176952038Y-86218651D01*
X176972250Y-86211419D01*
X176993074Y-86206203D01*
X177014309Y-86203053D01*
X177035750Y-86202000D01*
X177548250Y-86202000D01*
X177569691Y-86203053D01*
X177569691Y-86203053D01*
G37*
D17*
G04 #@! TD*
G04 #@! TO.P,D2,2*
G04 #@! TO.N,/PA0*
X177292000Y-86639500D03*
D16*
G04 #@! TO.N,Net-(D2-Pad1)*
G04 #@! TO.C,D2*
G36*
X177569691Y-84628053D02*
X177590926Y-84631203D01*
X177611750Y-84636419D01*
X177631962Y-84643651D01*
X177651368Y-84652830D01*
X177669781Y-84663866D01*
X177687024Y-84676654D01*
X177702930Y-84691070D01*
X177717346Y-84706976D01*
X177730134Y-84724219D01*
X177741170Y-84742632D01*
X177750349Y-84762038D01*
X177757581Y-84782250D01*
X177762797Y-84803074D01*
X177765947Y-84824309D01*
X177767000Y-84845750D01*
X177767000Y-85283250D01*
X177765947Y-85304691D01*
X177762797Y-85325926D01*
X177757581Y-85346750D01*
X177750349Y-85366962D01*
X177741170Y-85386368D01*
X177730134Y-85404781D01*
X177717346Y-85422024D01*
X177702930Y-85437930D01*
X177687024Y-85452346D01*
X177669781Y-85465134D01*
X177651368Y-85476170D01*
X177631962Y-85485349D01*
X177611750Y-85492581D01*
X177590926Y-85497797D01*
X177569691Y-85500947D01*
X177548250Y-85502000D01*
X177035750Y-85502000D01*
X177014309Y-85500947D01*
X176993074Y-85497797D01*
X176972250Y-85492581D01*
X176952038Y-85485349D01*
X176932632Y-85476170D01*
X176914219Y-85465134D01*
X176896976Y-85452346D01*
X176881070Y-85437930D01*
X176866654Y-85422024D01*
X176853866Y-85404781D01*
X176842830Y-85386368D01*
X176833651Y-85366962D01*
X176826419Y-85346750D01*
X176821203Y-85325926D01*
X176818053Y-85304691D01*
X176817000Y-85283250D01*
X176817000Y-84845750D01*
X176818053Y-84824309D01*
X176821203Y-84803074D01*
X176826419Y-84782250D01*
X176833651Y-84762038D01*
X176842830Y-84742632D01*
X176853866Y-84724219D01*
X176866654Y-84706976D01*
X176881070Y-84691070D01*
X176896976Y-84676654D01*
X176914219Y-84663866D01*
X176932632Y-84652830D01*
X176952038Y-84643651D01*
X176972250Y-84636419D01*
X176993074Y-84631203D01*
X177014309Y-84628053D01*
X177035750Y-84627000D01*
X177548250Y-84627000D01*
X177569691Y-84628053D01*
X177569691Y-84628053D01*
G37*
D17*
G04 #@! TD*
G04 #@! TO.P,D2,1*
G04 #@! TO.N,Net-(D2-Pad1)*
X177292000Y-85064500D03*
D18*
G04 #@! TO.N,+3V3*
X173736000Y-93091000D03*
X174752000Y-87376000D03*
X174752000Y-93979994D03*
G04 #@! TO.N,/RESET*
X175641000Y-97409000D03*
G04 #@! TO.N,GNDREF*
X174244000Y-89154000D03*
X171069000Y-75692000D03*
X179959000Y-76073000D03*
X174625000Y-95758000D03*
G04 #@! TO.N,+5V*
X175768000Y-80772000D03*
G04 #@! TD*
D19*
G04 #@! TO.N,+3V3*
X182555000Y-91765000D02*
X182880000Y-91440000D01*
X178210000Y-91765000D02*
X182555000Y-91765000D01*
X171335000Y-91765000D02*
X172310000Y-91765000D01*
X168600000Y-91765000D02*
X171335000Y-91765000D01*
X167640000Y-91440000D02*
X168275000Y-91440000D01*
X168275000Y-91440000D02*
X168600000Y-91765000D01*
X173736000Y-92525315D02*
X173736000Y-93091000D01*
X173285000Y-91765000D02*
X173736000Y-92216000D01*
X172310000Y-91765000D02*
X173285000Y-91765000D01*
X173736000Y-92216000D02*
X173736000Y-92525315D01*
D20*
X174752000Y-87941685D02*
X175133000Y-88322685D01*
X174752000Y-87376000D02*
X174752000Y-87941685D01*
X175133000Y-88322685D02*
X175133000Y-92710006D01*
X174752006Y-93091000D02*
X175133000Y-92710006D01*
X173736000Y-93091000D02*
X174752006Y-93091000D01*
D19*
X173863000Y-87376000D02*
X174752000Y-87376000D01*
X173101000Y-86639500D02*
X173126500Y-86639500D01*
X173126500Y-86639500D02*
X173863000Y-87376000D01*
D20*
X174879006Y-92964000D02*
X174879000Y-92964000D01*
X175133000Y-92710006D02*
X174879006Y-92964000D01*
D19*
X174752000Y-93091000D02*
X174752000Y-93979994D01*
X175260000Y-92583000D02*
X174752000Y-93091000D01*
X175260000Y-91948000D02*
X175260000Y-92583000D01*
X178210000Y-91765000D02*
X175443000Y-91765000D01*
X175443000Y-91765000D02*
X175260000Y-91948000D01*
G04 #@! TO.N,/RESET*
X181315000Y-92415000D02*
X182880000Y-93980000D01*
X178210000Y-92415000D02*
X181315000Y-92415000D01*
X176456000Y-97028000D02*
X176075000Y-97409000D01*
X177706000Y-97028000D02*
X176456000Y-97028000D01*
X176075000Y-97409000D02*
X175641000Y-97409000D01*
X177506000Y-97028000D02*
X177706000Y-97028000D01*
X176657000Y-96179000D02*
X177506000Y-97028000D01*
X176657000Y-92837000D02*
X176657000Y-96179000D01*
X178210000Y-92415000D02*
X177079000Y-92415000D01*
X177079000Y-92415000D02*
X176657000Y-92837000D01*
G04 #@! TO.N,GNDREF*
X179964000Y-79192000D02*
X179964000Y-78546000D01*
X177419000Y-81737000D02*
X179964000Y-79192000D01*
X171214000Y-78546000D02*
X171064000Y-78546000D01*
X172974000Y-80306000D02*
X171214000Y-78546000D01*
X172974000Y-81762500D02*
X172974000Y-80306000D01*
X173004000Y-80306000D02*
X172974000Y-80306000D01*
X173914000Y-79396000D02*
X173004000Y-80306000D01*
X173914000Y-78646000D02*
X173914000Y-79396000D01*
X171335000Y-91115000D02*
X172310000Y-91115000D01*
X167640000Y-88900000D02*
X169855000Y-91115000D01*
X169855000Y-91115000D02*
X171335000Y-91115000D01*
X179070000Y-100355500D02*
X179832000Y-99593500D01*
X179070000Y-101600000D02*
X179070000Y-100355500D01*
X173285000Y-91115000D02*
X173341000Y-91059000D01*
X172310000Y-91115000D02*
X173285000Y-91115000D01*
X173341000Y-91059000D02*
X173609000Y-91059000D01*
X173609000Y-91059000D02*
X174244000Y-90424000D01*
X174244000Y-90424000D02*
X174244000Y-89154000D01*
X171064000Y-74196000D02*
X171069000Y-74201000D01*
X171064000Y-73096000D02*
X171064000Y-74196000D01*
X171069000Y-74201000D02*
X171069000Y-75692000D01*
X171064000Y-75697000D02*
X171069000Y-75692000D01*
X171064000Y-78546000D02*
X171064000Y-75697000D01*
X179964000Y-77446000D02*
X179959000Y-77441000D01*
X179964000Y-78546000D02*
X179964000Y-77446000D01*
X179959000Y-77441000D02*
X179959000Y-76073000D01*
X179964000Y-76068000D02*
X179959000Y-76073000D01*
X179964000Y-73096000D02*
X179964000Y-76068000D01*
X172306000Y-97028000D02*
X172466000Y-97028000D01*
X172466000Y-97028000D02*
X173736000Y-95758000D01*
X173736000Y-95758000D02*
X174625000Y-95758000D01*
X179832000Y-99593500D02*
X179832000Y-97561500D01*
G04 #@! TO.N,/BOOT*
X178210000Y-94365000D02*
X178820000Y-94365000D01*
X179832000Y-95012000D02*
X179832000Y-95986500D01*
X178210000Y-94365000D02*
X179185000Y-94365000D01*
X179185000Y-94365000D02*
X179832000Y-95012000D01*
X181780000Y-101600000D02*
X182880000Y-101600000D01*
X181102000Y-100922000D02*
X181780000Y-101600000D01*
X181102000Y-96520000D02*
X181102000Y-100922000D01*
X179832000Y-95986500D02*
X180568500Y-95986500D01*
X180568500Y-95986500D02*
X181102000Y-96520000D01*
G04 #@! TO.N,/OSC_0*
X178210000Y-93715000D02*
X179185000Y-93715000D01*
X179185000Y-93715000D02*
X181679011Y-96209011D01*
X181679011Y-96209011D02*
X181679011Y-97859011D01*
X182030001Y-98210001D02*
X182880000Y-99060000D01*
X181679011Y-97859011D02*
X182030001Y-98210001D01*
G04 #@! TO.N,/OSC_1*
X181483000Y-95123000D02*
X182880000Y-96520000D01*
X178210000Y-93065000D02*
X179425000Y-93065000D01*
X179425000Y-93065000D02*
X181483000Y-95123000D01*
G04 #@! TO.N,/SWCLK*
X169926000Y-96774000D02*
X167640000Y-99060000D01*
X169926000Y-94742000D02*
X169926000Y-96774000D01*
X170942000Y-93726000D02*
X169926000Y-94742000D01*
X171324000Y-93726000D02*
X170942000Y-93726000D01*
X172310000Y-93715000D02*
X171335000Y-93715000D01*
X171335000Y-93715000D02*
X171324000Y-93726000D01*
G04 #@! TO.N,/SWDIO*
X168740000Y-101600000D02*
X167640000Y-101600000D01*
X170815000Y-99525000D02*
X168740000Y-101600000D01*
X174455000Y-99525000D02*
X176530000Y-101600000D01*
X170815000Y-99525000D02*
X174455000Y-99525000D01*
X170561000Y-99271000D02*
X170815000Y-99525000D01*
X170561000Y-95139000D02*
X170561000Y-99271000D01*
X172310000Y-94365000D02*
X171335000Y-94365000D01*
X171335000Y-94365000D02*
X170561000Y-95139000D01*
D20*
G04 #@! TO.N,+5V*
X177114000Y-80146000D02*
X176488000Y-80772000D01*
X176488000Y-80772000D02*
X176333685Y-80772000D01*
X176333685Y-80772000D02*
X175768000Y-80772000D01*
X177114000Y-78646000D02*
X177114000Y-80146000D01*
D19*
G04 #@! TO.N,/PA0*
X178210000Y-91115000D02*
X180665000Y-91115000D01*
X182030001Y-89749999D02*
X182880000Y-88900000D01*
X180665000Y-91115000D02*
X182030001Y-89749999D01*
X178210000Y-91115000D02*
X176713000Y-91115000D01*
X176713000Y-91115000D02*
X176022000Y-90424000D01*
X176022000Y-87909500D02*
X177292000Y-86639500D01*
X176022000Y-90424000D02*
X176022000Y-87909500D01*
G04 #@! TO.N,/PA1*
X181102000Y-88138000D02*
X182880000Y-86360000D01*
X181102000Y-89535000D02*
X181102000Y-88138000D01*
X178210000Y-90465000D02*
X180172000Y-90465000D01*
X180172000Y-90465000D02*
X181102000Y-89535000D01*
G04 #@! TO.N,/PA2*
X180340000Y-86360000D02*
X182880000Y-83820000D01*
X180340000Y-89408000D02*
X180340000Y-86360000D01*
X178210000Y-89815000D02*
X179933000Y-89815000D01*
X179933000Y-89815000D02*
X180340000Y-89408000D01*
G04 #@! TO.N,/PA3*
X178210000Y-89165000D02*
X179440000Y-89165000D01*
X179440000Y-89165000D02*
X179705000Y-88900000D01*
X179705000Y-84455000D02*
X182880000Y-81280000D01*
X179705000Y-88900000D02*
X179705000Y-84455000D01*
G04 #@! TO.N,/PA4*
X178816000Y-82804000D02*
X182880000Y-78740000D01*
X178816000Y-88392000D02*
X178816000Y-82804000D01*
X178210000Y-88515000D02*
X178693000Y-88515000D01*
X178693000Y-88515000D02*
X178816000Y-88392000D01*
G04 #@! TO.N,/PA10*
X169291000Y-94869000D02*
X167640000Y-96520000D01*
X169291000Y-94359589D02*
X169291000Y-94869000D01*
X172310000Y-93065000D02*
X170585589Y-93065000D01*
X170585589Y-93065000D02*
X169291000Y-94359589D01*
G04 #@! TO.N,/PA9*
X169205000Y-92415000D02*
X172310000Y-92415000D01*
X167640000Y-93980000D02*
X169205000Y-92415000D01*
G04 #@! TO.N,/PB1*
X170348000Y-90465000D02*
X172310000Y-90465000D01*
X169291000Y-89408000D02*
X170348000Y-90465000D01*
X167640000Y-86360000D02*
X169291000Y-88011000D01*
X169291000Y-88011000D02*
X169291000Y-89408000D01*
G04 #@! TO.N,/PA7*
X170587000Y-89815000D02*
X172310000Y-89815000D01*
X169926000Y-89154000D02*
X170587000Y-89815000D01*
X167640000Y-83820000D02*
X169926000Y-86106000D01*
X169926000Y-86106000D02*
X169926000Y-89154000D01*
G04 #@! TO.N,/PA6*
X171335000Y-89165000D02*
X172310000Y-89165000D01*
X170561000Y-88391000D02*
X171335000Y-89165000D01*
X167640000Y-81280000D02*
X170561000Y-84201000D01*
X170561000Y-84201000D02*
X170561000Y-88391000D01*
G04 #@! TO.N,/PA5*
X171810000Y-88515000D02*
X172310000Y-88515000D01*
X171196000Y-87901000D02*
X171810000Y-88515000D01*
X167640000Y-78740000D02*
X171196000Y-82296000D01*
X171196000Y-82296000D02*
X171196000Y-87901000D01*
G04 #@! TO.N,Net-(D1-Pad1)*
X173101000Y-83464500D02*
X172974000Y-83337500D01*
X173101000Y-85064500D02*
X173101000Y-83464500D01*
G04 #@! TO.N,Net-(D2-Pad1)*
X177292000Y-83439000D02*
X177419000Y-83312000D01*
X177292000Y-85064500D02*
X177292000Y-83439000D01*
G04 #@! TD*
M02*
