G04 #@! TF.GenerationSoftware,KiCad,Pcbnew,(5.0.0)*
G04 #@! TF.CreationDate,2018-09-15T15:06:13-04:00*
G04 #@! TF.ProjectId,STMPod,53544D506F642E6B696361645F706362,rev?*
G04 #@! TF.SameCoordinates,Original*
G04 #@! TF.FileFunction,Paste,Bot*
G04 #@! TF.FilePolarity,Positive*
%FSLAX46Y46*%
G04 Gerber Fmt 4.6, Leading zero omitted, Abs format (unit mm)*
G04 Created by KiCad (PCBNEW (5.0.0)) date 09/15/18 15:06:13*
%MOMM*%
%LPD*%
G01*
G04 APERTURE LIST*
%ADD10C,0.100000*%
%ADD11C,0.875000*%
%ADD12R,3.800000X1.400000*%
%ADD13R,2.000000X3.800000*%
%ADD14R,2.000000X1.500000*%
G04 APERTURE END LIST*
D10*
G04 #@! TO.C,R1*
G36*
X172934691Y-98459053D02*
X172955926Y-98462203D01*
X172976750Y-98467419D01*
X172996962Y-98474651D01*
X173016368Y-98483830D01*
X173034781Y-98494866D01*
X173052024Y-98507654D01*
X173067930Y-98522070D01*
X173082346Y-98537976D01*
X173095134Y-98555219D01*
X173106170Y-98573632D01*
X173115349Y-98593038D01*
X173122581Y-98613250D01*
X173127797Y-98634074D01*
X173130947Y-98655309D01*
X173132000Y-98676750D01*
X173132000Y-99189250D01*
X173130947Y-99210691D01*
X173127797Y-99231926D01*
X173122581Y-99252750D01*
X173115349Y-99272962D01*
X173106170Y-99292368D01*
X173095134Y-99310781D01*
X173082346Y-99328024D01*
X173067930Y-99343930D01*
X173052024Y-99358346D01*
X173034781Y-99371134D01*
X173016368Y-99382170D01*
X172996962Y-99391349D01*
X172976750Y-99398581D01*
X172955926Y-99403797D01*
X172934691Y-99406947D01*
X172913250Y-99408000D01*
X172475750Y-99408000D01*
X172454309Y-99406947D01*
X172433074Y-99403797D01*
X172412250Y-99398581D01*
X172392038Y-99391349D01*
X172372632Y-99382170D01*
X172354219Y-99371134D01*
X172336976Y-99358346D01*
X172321070Y-99343930D01*
X172306654Y-99328024D01*
X172293866Y-99310781D01*
X172282830Y-99292368D01*
X172273651Y-99272962D01*
X172266419Y-99252750D01*
X172261203Y-99231926D01*
X172258053Y-99210691D01*
X172257000Y-99189250D01*
X172257000Y-98676750D01*
X172258053Y-98655309D01*
X172261203Y-98634074D01*
X172266419Y-98613250D01*
X172273651Y-98593038D01*
X172282830Y-98573632D01*
X172293866Y-98555219D01*
X172306654Y-98537976D01*
X172321070Y-98522070D01*
X172336976Y-98507654D01*
X172354219Y-98494866D01*
X172372632Y-98483830D01*
X172392038Y-98474651D01*
X172412250Y-98467419D01*
X172433074Y-98462203D01*
X172454309Y-98459053D01*
X172475750Y-98458000D01*
X172913250Y-98458000D01*
X172934691Y-98459053D01*
X172934691Y-98459053D01*
G37*
D11*
X172694500Y-98933000D03*
D10*
G36*
X174509691Y-98459053D02*
X174530926Y-98462203D01*
X174551750Y-98467419D01*
X174571962Y-98474651D01*
X174591368Y-98483830D01*
X174609781Y-98494866D01*
X174627024Y-98507654D01*
X174642930Y-98522070D01*
X174657346Y-98537976D01*
X174670134Y-98555219D01*
X174681170Y-98573632D01*
X174690349Y-98593038D01*
X174697581Y-98613250D01*
X174702797Y-98634074D01*
X174705947Y-98655309D01*
X174707000Y-98676750D01*
X174707000Y-99189250D01*
X174705947Y-99210691D01*
X174702797Y-99231926D01*
X174697581Y-99252750D01*
X174690349Y-99272962D01*
X174681170Y-99292368D01*
X174670134Y-99310781D01*
X174657346Y-99328024D01*
X174642930Y-99343930D01*
X174627024Y-99358346D01*
X174609781Y-99371134D01*
X174591368Y-99382170D01*
X174571962Y-99391349D01*
X174551750Y-99398581D01*
X174530926Y-99403797D01*
X174509691Y-99406947D01*
X174488250Y-99408000D01*
X174050750Y-99408000D01*
X174029309Y-99406947D01*
X174008074Y-99403797D01*
X173987250Y-99398581D01*
X173967038Y-99391349D01*
X173947632Y-99382170D01*
X173929219Y-99371134D01*
X173911976Y-99358346D01*
X173896070Y-99343930D01*
X173881654Y-99328024D01*
X173868866Y-99310781D01*
X173857830Y-99292368D01*
X173848651Y-99272962D01*
X173841419Y-99252750D01*
X173836203Y-99231926D01*
X173833053Y-99210691D01*
X173832000Y-99189250D01*
X173832000Y-98676750D01*
X173833053Y-98655309D01*
X173836203Y-98634074D01*
X173841419Y-98613250D01*
X173848651Y-98593038D01*
X173857830Y-98573632D01*
X173868866Y-98555219D01*
X173881654Y-98537976D01*
X173896070Y-98522070D01*
X173911976Y-98507654D01*
X173929219Y-98494866D01*
X173947632Y-98483830D01*
X173967038Y-98474651D01*
X173987250Y-98467419D01*
X174008074Y-98462203D01*
X174029309Y-98459053D01*
X174050750Y-98458000D01*
X174488250Y-98458000D01*
X174509691Y-98459053D01*
X174509691Y-98459053D01*
G37*
D11*
X174269500Y-98933000D03*
G04 #@! TD*
D12*
G04 #@! TO.C,Y1*
X178562000Y-99060000D03*
X178562000Y-96560000D03*
X178562000Y-94060000D03*
G04 #@! TD*
D10*
G04 #@! TO.C,C1*
G36*
X176287691Y-74329053D02*
X176308926Y-74332203D01*
X176329750Y-74337419D01*
X176349962Y-74344651D01*
X176369368Y-74353830D01*
X176387781Y-74364866D01*
X176405024Y-74377654D01*
X176420930Y-74392070D01*
X176435346Y-74407976D01*
X176448134Y-74425219D01*
X176459170Y-74443632D01*
X176468349Y-74463038D01*
X176475581Y-74483250D01*
X176480797Y-74504074D01*
X176483947Y-74525309D01*
X176485000Y-74546750D01*
X176485000Y-75059250D01*
X176483947Y-75080691D01*
X176480797Y-75101926D01*
X176475581Y-75122750D01*
X176468349Y-75142962D01*
X176459170Y-75162368D01*
X176448134Y-75180781D01*
X176435346Y-75198024D01*
X176420930Y-75213930D01*
X176405024Y-75228346D01*
X176387781Y-75241134D01*
X176369368Y-75252170D01*
X176349962Y-75261349D01*
X176329750Y-75268581D01*
X176308926Y-75273797D01*
X176287691Y-75276947D01*
X176266250Y-75278000D01*
X175828750Y-75278000D01*
X175807309Y-75276947D01*
X175786074Y-75273797D01*
X175765250Y-75268581D01*
X175745038Y-75261349D01*
X175725632Y-75252170D01*
X175707219Y-75241134D01*
X175689976Y-75228346D01*
X175674070Y-75213930D01*
X175659654Y-75198024D01*
X175646866Y-75180781D01*
X175635830Y-75162368D01*
X175626651Y-75142962D01*
X175619419Y-75122750D01*
X175614203Y-75101926D01*
X175611053Y-75080691D01*
X175610000Y-75059250D01*
X175610000Y-74546750D01*
X175611053Y-74525309D01*
X175614203Y-74504074D01*
X175619419Y-74483250D01*
X175626651Y-74463038D01*
X175635830Y-74443632D01*
X175646866Y-74425219D01*
X175659654Y-74407976D01*
X175674070Y-74392070D01*
X175689976Y-74377654D01*
X175707219Y-74364866D01*
X175725632Y-74353830D01*
X175745038Y-74344651D01*
X175765250Y-74337419D01*
X175786074Y-74332203D01*
X175807309Y-74329053D01*
X175828750Y-74328000D01*
X176266250Y-74328000D01*
X176287691Y-74329053D01*
X176287691Y-74329053D01*
G37*
D11*
X176047500Y-74803000D03*
D10*
G36*
X174712691Y-74329053D02*
X174733926Y-74332203D01*
X174754750Y-74337419D01*
X174774962Y-74344651D01*
X174794368Y-74353830D01*
X174812781Y-74364866D01*
X174830024Y-74377654D01*
X174845930Y-74392070D01*
X174860346Y-74407976D01*
X174873134Y-74425219D01*
X174884170Y-74443632D01*
X174893349Y-74463038D01*
X174900581Y-74483250D01*
X174905797Y-74504074D01*
X174908947Y-74525309D01*
X174910000Y-74546750D01*
X174910000Y-75059250D01*
X174908947Y-75080691D01*
X174905797Y-75101926D01*
X174900581Y-75122750D01*
X174893349Y-75142962D01*
X174884170Y-75162368D01*
X174873134Y-75180781D01*
X174860346Y-75198024D01*
X174845930Y-75213930D01*
X174830024Y-75228346D01*
X174812781Y-75241134D01*
X174794368Y-75252170D01*
X174774962Y-75261349D01*
X174754750Y-75268581D01*
X174733926Y-75273797D01*
X174712691Y-75276947D01*
X174691250Y-75278000D01*
X174253750Y-75278000D01*
X174232309Y-75276947D01*
X174211074Y-75273797D01*
X174190250Y-75268581D01*
X174170038Y-75261349D01*
X174150632Y-75252170D01*
X174132219Y-75241134D01*
X174114976Y-75228346D01*
X174099070Y-75213930D01*
X174084654Y-75198024D01*
X174071866Y-75180781D01*
X174060830Y-75162368D01*
X174051651Y-75142962D01*
X174044419Y-75122750D01*
X174039203Y-75101926D01*
X174036053Y-75080691D01*
X174035000Y-75059250D01*
X174035000Y-74546750D01*
X174036053Y-74525309D01*
X174039203Y-74504074D01*
X174044419Y-74483250D01*
X174051651Y-74463038D01*
X174060830Y-74443632D01*
X174071866Y-74425219D01*
X174084654Y-74407976D01*
X174099070Y-74392070D01*
X174114976Y-74377654D01*
X174132219Y-74364866D01*
X174150632Y-74353830D01*
X174170038Y-74344651D01*
X174190250Y-74337419D01*
X174211074Y-74332203D01*
X174232309Y-74329053D01*
X174253750Y-74328000D01*
X174691250Y-74328000D01*
X174712691Y-74329053D01*
X174712691Y-74329053D01*
G37*
D11*
X174472500Y-74803000D03*
G04 #@! TD*
D10*
G04 #@! TO.C,C2*
G36*
X172362691Y-85187053D02*
X172383926Y-85190203D01*
X172404750Y-85195419D01*
X172424962Y-85202651D01*
X172444368Y-85211830D01*
X172462781Y-85222866D01*
X172480024Y-85235654D01*
X172495930Y-85250070D01*
X172510346Y-85265976D01*
X172523134Y-85283219D01*
X172534170Y-85301632D01*
X172543349Y-85321038D01*
X172550581Y-85341250D01*
X172555797Y-85362074D01*
X172558947Y-85383309D01*
X172560000Y-85404750D01*
X172560000Y-85842250D01*
X172558947Y-85863691D01*
X172555797Y-85884926D01*
X172550581Y-85905750D01*
X172543349Y-85925962D01*
X172534170Y-85945368D01*
X172523134Y-85963781D01*
X172510346Y-85981024D01*
X172495930Y-85996930D01*
X172480024Y-86011346D01*
X172462781Y-86024134D01*
X172444368Y-86035170D01*
X172424962Y-86044349D01*
X172404750Y-86051581D01*
X172383926Y-86056797D01*
X172362691Y-86059947D01*
X172341250Y-86061000D01*
X171828750Y-86061000D01*
X171807309Y-86059947D01*
X171786074Y-86056797D01*
X171765250Y-86051581D01*
X171745038Y-86044349D01*
X171725632Y-86035170D01*
X171707219Y-86024134D01*
X171689976Y-86011346D01*
X171674070Y-85996930D01*
X171659654Y-85981024D01*
X171646866Y-85963781D01*
X171635830Y-85945368D01*
X171626651Y-85925962D01*
X171619419Y-85905750D01*
X171614203Y-85884926D01*
X171611053Y-85863691D01*
X171610000Y-85842250D01*
X171610000Y-85404750D01*
X171611053Y-85383309D01*
X171614203Y-85362074D01*
X171619419Y-85341250D01*
X171626651Y-85321038D01*
X171635830Y-85301632D01*
X171646866Y-85283219D01*
X171659654Y-85265976D01*
X171674070Y-85250070D01*
X171689976Y-85235654D01*
X171707219Y-85222866D01*
X171725632Y-85211830D01*
X171745038Y-85202651D01*
X171765250Y-85195419D01*
X171786074Y-85190203D01*
X171807309Y-85187053D01*
X171828750Y-85186000D01*
X172341250Y-85186000D01*
X172362691Y-85187053D01*
X172362691Y-85187053D01*
G37*
D11*
X172085000Y-85623500D03*
D10*
G36*
X172362691Y-83612053D02*
X172383926Y-83615203D01*
X172404750Y-83620419D01*
X172424962Y-83627651D01*
X172444368Y-83636830D01*
X172462781Y-83647866D01*
X172480024Y-83660654D01*
X172495930Y-83675070D01*
X172510346Y-83690976D01*
X172523134Y-83708219D01*
X172534170Y-83726632D01*
X172543349Y-83746038D01*
X172550581Y-83766250D01*
X172555797Y-83787074D01*
X172558947Y-83808309D01*
X172560000Y-83829750D01*
X172560000Y-84267250D01*
X172558947Y-84288691D01*
X172555797Y-84309926D01*
X172550581Y-84330750D01*
X172543349Y-84350962D01*
X172534170Y-84370368D01*
X172523134Y-84388781D01*
X172510346Y-84406024D01*
X172495930Y-84421930D01*
X172480024Y-84436346D01*
X172462781Y-84449134D01*
X172444368Y-84460170D01*
X172424962Y-84469349D01*
X172404750Y-84476581D01*
X172383926Y-84481797D01*
X172362691Y-84484947D01*
X172341250Y-84486000D01*
X171828750Y-84486000D01*
X171807309Y-84484947D01*
X171786074Y-84481797D01*
X171765250Y-84476581D01*
X171745038Y-84469349D01*
X171725632Y-84460170D01*
X171707219Y-84449134D01*
X171689976Y-84436346D01*
X171674070Y-84421930D01*
X171659654Y-84406024D01*
X171646866Y-84388781D01*
X171635830Y-84370368D01*
X171626651Y-84350962D01*
X171619419Y-84330750D01*
X171614203Y-84309926D01*
X171611053Y-84288691D01*
X171610000Y-84267250D01*
X171610000Y-83829750D01*
X171611053Y-83808309D01*
X171614203Y-83787074D01*
X171619419Y-83766250D01*
X171626651Y-83746038D01*
X171635830Y-83726632D01*
X171646866Y-83708219D01*
X171659654Y-83690976D01*
X171674070Y-83675070D01*
X171689976Y-83660654D01*
X171707219Y-83647866D01*
X171725632Y-83636830D01*
X171745038Y-83627651D01*
X171765250Y-83620419D01*
X171786074Y-83615203D01*
X171807309Y-83612053D01*
X171828750Y-83611000D01*
X172341250Y-83611000D01*
X172362691Y-83612053D01*
X172362691Y-83612053D01*
G37*
D11*
X172085000Y-84048500D03*
G04 #@! TD*
D10*
G04 #@! TO.C,C3*
G36*
X172743691Y-91410053D02*
X172764926Y-91413203D01*
X172785750Y-91418419D01*
X172805962Y-91425651D01*
X172825368Y-91434830D01*
X172843781Y-91445866D01*
X172861024Y-91458654D01*
X172876930Y-91473070D01*
X172891346Y-91488976D01*
X172904134Y-91506219D01*
X172915170Y-91524632D01*
X172924349Y-91544038D01*
X172931581Y-91564250D01*
X172936797Y-91585074D01*
X172939947Y-91606309D01*
X172941000Y-91627750D01*
X172941000Y-92065250D01*
X172939947Y-92086691D01*
X172936797Y-92107926D01*
X172931581Y-92128750D01*
X172924349Y-92148962D01*
X172915170Y-92168368D01*
X172904134Y-92186781D01*
X172891346Y-92204024D01*
X172876930Y-92219930D01*
X172861024Y-92234346D01*
X172843781Y-92247134D01*
X172825368Y-92258170D01*
X172805962Y-92267349D01*
X172785750Y-92274581D01*
X172764926Y-92279797D01*
X172743691Y-92282947D01*
X172722250Y-92284000D01*
X172209750Y-92284000D01*
X172188309Y-92282947D01*
X172167074Y-92279797D01*
X172146250Y-92274581D01*
X172126038Y-92267349D01*
X172106632Y-92258170D01*
X172088219Y-92247134D01*
X172070976Y-92234346D01*
X172055070Y-92219930D01*
X172040654Y-92204024D01*
X172027866Y-92186781D01*
X172016830Y-92168368D01*
X172007651Y-92148962D01*
X172000419Y-92128750D01*
X171995203Y-92107926D01*
X171992053Y-92086691D01*
X171991000Y-92065250D01*
X171991000Y-91627750D01*
X171992053Y-91606309D01*
X171995203Y-91585074D01*
X172000419Y-91564250D01*
X172007651Y-91544038D01*
X172016830Y-91524632D01*
X172027866Y-91506219D01*
X172040654Y-91488976D01*
X172055070Y-91473070D01*
X172070976Y-91458654D01*
X172088219Y-91445866D01*
X172106632Y-91434830D01*
X172126038Y-91425651D01*
X172146250Y-91418419D01*
X172167074Y-91413203D01*
X172188309Y-91410053D01*
X172209750Y-91409000D01*
X172722250Y-91409000D01*
X172743691Y-91410053D01*
X172743691Y-91410053D01*
G37*
D11*
X172466000Y-91846500D03*
D10*
G36*
X172743691Y-89835053D02*
X172764926Y-89838203D01*
X172785750Y-89843419D01*
X172805962Y-89850651D01*
X172825368Y-89859830D01*
X172843781Y-89870866D01*
X172861024Y-89883654D01*
X172876930Y-89898070D01*
X172891346Y-89913976D01*
X172904134Y-89931219D01*
X172915170Y-89949632D01*
X172924349Y-89969038D01*
X172931581Y-89989250D01*
X172936797Y-90010074D01*
X172939947Y-90031309D01*
X172941000Y-90052750D01*
X172941000Y-90490250D01*
X172939947Y-90511691D01*
X172936797Y-90532926D01*
X172931581Y-90553750D01*
X172924349Y-90573962D01*
X172915170Y-90593368D01*
X172904134Y-90611781D01*
X172891346Y-90629024D01*
X172876930Y-90644930D01*
X172861024Y-90659346D01*
X172843781Y-90672134D01*
X172825368Y-90683170D01*
X172805962Y-90692349D01*
X172785750Y-90699581D01*
X172764926Y-90704797D01*
X172743691Y-90707947D01*
X172722250Y-90709000D01*
X172209750Y-90709000D01*
X172188309Y-90707947D01*
X172167074Y-90704797D01*
X172146250Y-90699581D01*
X172126038Y-90692349D01*
X172106632Y-90683170D01*
X172088219Y-90672134D01*
X172070976Y-90659346D01*
X172055070Y-90644930D01*
X172040654Y-90629024D01*
X172027866Y-90611781D01*
X172016830Y-90593368D01*
X172007651Y-90573962D01*
X172000419Y-90553750D01*
X171995203Y-90532926D01*
X171992053Y-90511691D01*
X171991000Y-90490250D01*
X171991000Y-90052750D01*
X171992053Y-90031309D01*
X171995203Y-90010074D01*
X172000419Y-89989250D01*
X172007651Y-89969038D01*
X172016830Y-89949632D01*
X172027866Y-89931219D01*
X172040654Y-89913976D01*
X172055070Y-89898070D01*
X172070976Y-89883654D01*
X172088219Y-89870866D01*
X172106632Y-89859830D01*
X172126038Y-89850651D01*
X172146250Y-89843419D01*
X172167074Y-89838203D01*
X172188309Y-89835053D01*
X172209750Y-89834000D01*
X172722250Y-89834000D01*
X172743691Y-89835053D01*
X172743691Y-89835053D01*
G37*
D11*
X172466000Y-90271500D03*
G04 #@! TD*
D10*
G04 #@! TO.C,C4*
G36*
X176172691Y-88946053D02*
X176193926Y-88949203D01*
X176214750Y-88954419D01*
X176234962Y-88961651D01*
X176254368Y-88970830D01*
X176272781Y-88981866D01*
X176290024Y-88994654D01*
X176305930Y-89009070D01*
X176320346Y-89024976D01*
X176333134Y-89042219D01*
X176344170Y-89060632D01*
X176353349Y-89080038D01*
X176360581Y-89100250D01*
X176365797Y-89121074D01*
X176368947Y-89142309D01*
X176370000Y-89163750D01*
X176370000Y-89601250D01*
X176368947Y-89622691D01*
X176365797Y-89643926D01*
X176360581Y-89664750D01*
X176353349Y-89684962D01*
X176344170Y-89704368D01*
X176333134Y-89722781D01*
X176320346Y-89740024D01*
X176305930Y-89755930D01*
X176290024Y-89770346D01*
X176272781Y-89783134D01*
X176254368Y-89794170D01*
X176234962Y-89803349D01*
X176214750Y-89810581D01*
X176193926Y-89815797D01*
X176172691Y-89818947D01*
X176151250Y-89820000D01*
X175638750Y-89820000D01*
X175617309Y-89818947D01*
X175596074Y-89815797D01*
X175575250Y-89810581D01*
X175555038Y-89803349D01*
X175535632Y-89794170D01*
X175517219Y-89783134D01*
X175499976Y-89770346D01*
X175484070Y-89755930D01*
X175469654Y-89740024D01*
X175456866Y-89722781D01*
X175445830Y-89704368D01*
X175436651Y-89684962D01*
X175429419Y-89664750D01*
X175424203Y-89643926D01*
X175421053Y-89622691D01*
X175420000Y-89601250D01*
X175420000Y-89163750D01*
X175421053Y-89142309D01*
X175424203Y-89121074D01*
X175429419Y-89100250D01*
X175436651Y-89080038D01*
X175445830Y-89060632D01*
X175456866Y-89042219D01*
X175469654Y-89024976D01*
X175484070Y-89009070D01*
X175499976Y-88994654D01*
X175517219Y-88981866D01*
X175535632Y-88970830D01*
X175555038Y-88961651D01*
X175575250Y-88954419D01*
X175596074Y-88949203D01*
X175617309Y-88946053D01*
X175638750Y-88945000D01*
X176151250Y-88945000D01*
X176172691Y-88946053D01*
X176172691Y-88946053D01*
G37*
D11*
X175895000Y-89382500D03*
D10*
G36*
X176172691Y-90521053D02*
X176193926Y-90524203D01*
X176214750Y-90529419D01*
X176234962Y-90536651D01*
X176254368Y-90545830D01*
X176272781Y-90556866D01*
X176290024Y-90569654D01*
X176305930Y-90584070D01*
X176320346Y-90599976D01*
X176333134Y-90617219D01*
X176344170Y-90635632D01*
X176353349Y-90655038D01*
X176360581Y-90675250D01*
X176365797Y-90696074D01*
X176368947Y-90717309D01*
X176370000Y-90738750D01*
X176370000Y-91176250D01*
X176368947Y-91197691D01*
X176365797Y-91218926D01*
X176360581Y-91239750D01*
X176353349Y-91259962D01*
X176344170Y-91279368D01*
X176333134Y-91297781D01*
X176320346Y-91315024D01*
X176305930Y-91330930D01*
X176290024Y-91345346D01*
X176272781Y-91358134D01*
X176254368Y-91369170D01*
X176234962Y-91378349D01*
X176214750Y-91385581D01*
X176193926Y-91390797D01*
X176172691Y-91393947D01*
X176151250Y-91395000D01*
X175638750Y-91395000D01*
X175617309Y-91393947D01*
X175596074Y-91390797D01*
X175575250Y-91385581D01*
X175555038Y-91378349D01*
X175535632Y-91369170D01*
X175517219Y-91358134D01*
X175499976Y-91345346D01*
X175484070Y-91330930D01*
X175469654Y-91315024D01*
X175456866Y-91297781D01*
X175445830Y-91279368D01*
X175436651Y-91259962D01*
X175429419Y-91239750D01*
X175424203Y-91218926D01*
X175421053Y-91197691D01*
X175420000Y-91176250D01*
X175420000Y-90738750D01*
X175421053Y-90717309D01*
X175424203Y-90696074D01*
X175429419Y-90675250D01*
X175436651Y-90655038D01*
X175445830Y-90635632D01*
X175456866Y-90617219D01*
X175469654Y-90599976D01*
X175484070Y-90584070D01*
X175499976Y-90569654D01*
X175517219Y-90556866D01*
X175535632Y-90545830D01*
X175555038Y-90536651D01*
X175575250Y-90529419D01*
X175596074Y-90524203D01*
X175617309Y-90521053D01*
X175638750Y-90520000D01*
X176151250Y-90520000D01*
X176172691Y-90521053D01*
X176172691Y-90521053D01*
G37*
D11*
X175895000Y-90957500D03*
G04 #@! TD*
D13*
G04 #@! TO.C,U2*
X180442000Y-82931000D03*
D14*
X174142000Y-82931000D03*
X174142000Y-80631000D03*
X174142000Y-85231000D03*
G04 #@! TD*
M02*
