M48
;DRILL file {KiCad (5.0.0)} date 09/15/18 20:20:03
;FORMAT={2:4/ absolute / inch / suppress leading zeros}
FMAT,2
INCH,TZ
T1C0.0157
T2C0.0315
T3C0.0394
T4C0.0433
T5C0.0512
T6C0.1378
%
G90
G05
M72
T1
X75715Y-19994
X76750Y-21500
X77700Y-20700
X78250Y-21750
X78500Y-20250
T2
X75100Y-20500
X79100Y-20500
X75100Y-22250
X79100Y-22250
T3
X80000Y-19000
X80000Y-20000
X80000Y-21000
X80000Y-22000
X80000Y-23000
X80000Y-24000
X80000Y-25000
X80000Y-26000
X80000Y-27000
X80000Y-28000
X80000Y-29000
X80000Y-30000
X74000Y-19000
X74000Y-20000
X74000Y-21000
X74000Y-22000
X74000Y-23000
X74000Y-24000
X74000Y-25000
X74000Y-26000
X74000Y-27000
X74000Y-28000
X74000Y-29000
X74000Y-30000
X75000Y-19000
X76000Y-19000
X77000Y-19000
X78000Y-19000
X79000Y-19000
T4
X74000Y-32000
X78000Y-32000
X76000Y-23500
X77000Y-23500
X78000Y-23500
T5
X74000Y-35000
X76000Y-35000
X78000Y-35000
X80000Y-35000
T6
X77000Y-30059
T0
M30
