G04 #@! TF.GenerationSoftware,KiCad,Pcbnew,(5.0.0)*
G04 #@! TF.CreationDate,2018-09-15T20:19:59-04:00*
G04 #@! TF.ProjectId,MotorPod Mini,4D6F746F72506F64204D696E692E6B69,rev?*
G04 #@! TF.SameCoordinates,Original*
G04 #@! TF.FileFunction,Soldermask,Top*
G04 #@! TF.FilePolarity,Negative*
%FSLAX46Y46*%
G04 Gerber Fmt 4.6, Leading zero omitted, Abs format (unit mm)*
G04 Created by KiCad (PCBNEW (5.0.0)) date 09/15/18 20:19:59*
%MOMM*%
%LPD*%
G01*
G04 APERTURE LIST*
%ADD10R,2.600000X2.600000*%
%ADD11O,2.600000X2.600000*%
%ADD12R,2.100000X2.100000*%
%ADD13O,2.100000X2.100000*%
%ADD14R,3.000000X3.000000*%
%ADD15C,3.000000*%
%ADD16O,3.900000X3.900000*%
%ADD17R,2.305000X2.400000*%
%ADD18O,2.305000X2.400000*%
%ADD19O,2.000000X2.000000*%
%ADD20C,2.000000*%
G04 APERTURE END LIST*
D10*
G04 #@! TO.C,D1*
X187960000Y-81280000D03*
D11*
X198120000Y-81280000D03*
G04 #@! TD*
D12*
G04 #@! TO.C,J2*
X203200000Y-76200000D03*
D13*
X203200000Y-73660000D03*
X203200000Y-71120000D03*
X203200000Y-68580000D03*
X203200000Y-66040000D03*
X203200000Y-63500000D03*
X203200000Y-60960000D03*
X203200000Y-58420000D03*
X203200000Y-55880000D03*
X203200000Y-53340000D03*
X203200000Y-50800000D03*
X203200000Y-48260000D03*
G04 #@! TD*
G04 #@! TO.C,J3*
X187960000Y-48260000D03*
X187960000Y-50800000D03*
X187960000Y-53340000D03*
X187960000Y-55880000D03*
X187960000Y-58420000D03*
X187960000Y-60960000D03*
X187960000Y-63500000D03*
X187960000Y-66040000D03*
X187960000Y-68580000D03*
X187960000Y-71120000D03*
X187960000Y-73660000D03*
D12*
X187960000Y-76200000D03*
G04 #@! TD*
D14*
G04 #@! TO.C,J1*
X203200000Y-88900000D03*
D15*
X198120000Y-88900000D03*
X193040000Y-88900000D03*
X187960000Y-88900000D03*
G04 #@! TD*
D16*
G04 #@! TO.C,Q1*
X195580000Y-76350000D03*
D17*
X198120000Y-59690000D03*
D18*
X195580000Y-59690000D03*
X193040000Y-59690000D03*
G04 #@! TD*
D19*
G04 #@! TO.C,R1*
X200914000Y-52070000D03*
D20*
X190754000Y-52070000D03*
G04 #@! TD*
G04 #@! TO.C,R2*
X200914000Y-56515000D03*
D19*
X190754000Y-56515000D03*
G04 #@! TD*
D12*
G04 #@! TO.C,J4*
X190500000Y-48260000D03*
D13*
X193040000Y-48260000D03*
X195580000Y-48260000D03*
X198120000Y-48260000D03*
X200660000Y-48260000D03*
G04 #@! TD*
M02*
