G04 #@! TF.GenerationSoftware,KiCad,Pcbnew,(5.0.0)*
G04 #@! TF.CreationDate,2019-03-11T23:44:19-04:00*
G04 #@! TF.ProjectId,1-Hour-Board,312D486F75722D426F6172642E6B6963,rev?*
G04 #@! TF.SameCoordinates,Original*
G04 #@! TF.FileFunction,Legend,Top*
G04 #@! TF.FilePolarity,Positive*
%FSLAX46Y46*%
G04 Gerber Fmt 4.6, Leading zero omitted, Abs format (unit mm)*
G04 Created by KiCad (PCBNEW (5.0.0)) date 03/11/19 23:44:19*
%MOMM*%
%LPD*%
G01*
G04 APERTURE LIST*
%ADD10C,0.127000*%
%ADD11C,0.120000*%
%ADD12C,0.150000*%
G04 APERTURE END LIST*
D10*
X118236200Y-107462400D02*
X118829800Y-108352800D01*
X118829800Y-107462400D02*
X118236200Y-108352800D01*
X119169000Y-108352800D02*
X119169000Y-107462400D01*
X117981800Y-104922400D02*
X118575400Y-105812800D01*
X118575400Y-104922400D02*
X117981800Y-105812800D01*
X119084200Y-104922400D02*
X119253800Y-104922400D01*
X119338600Y-104964800D01*
X119423400Y-105049600D01*
X119465800Y-105219200D01*
X119465800Y-105516000D01*
X119423400Y-105685600D01*
X119338600Y-105770400D01*
X119253800Y-105812800D01*
X119084200Y-105812800D01*
X118999400Y-105770400D01*
X118914600Y-105685600D01*
X118872200Y-105516000D01*
X118872200Y-105219200D01*
X118914600Y-105049600D01*
X118999400Y-104964800D01*
X119084200Y-104922400D01*
X104096600Y-110002400D02*
X104605400Y-110002400D01*
X104351000Y-110892800D02*
X104351000Y-110002400D01*
X104817400Y-110002400D02*
X105411000Y-110892800D01*
X105411000Y-110002400D02*
X104817400Y-110892800D01*
X104626600Y-108352800D02*
X104329800Y-107928800D01*
X104117800Y-108352800D02*
X104117800Y-107462400D01*
X104457000Y-107462400D01*
X104541800Y-107504800D01*
X104584200Y-107547200D01*
X104626600Y-107632000D01*
X104626600Y-107759200D01*
X104584200Y-107844000D01*
X104541800Y-107886400D01*
X104457000Y-107928800D01*
X104117800Y-107928800D01*
X104923400Y-107462400D02*
X105517000Y-108352800D01*
X105517000Y-107462400D02*
X104923400Y-108352800D01*
X104202600Y-105818500D02*
X103778600Y-105818500D01*
X103778600Y-104915500D01*
X104499400Y-105345500D02*
X104796200Y-105345500D01*
X104923400Y-105818500D02*
X104499400Y-105818500D01*
X104499400Y-104915500D01*
X104923400Y-104915500D01*
X105305000Y-105818500D02*
X105305000Y-104915500D01*
X105517000Y-104915500D01*
X105644200Y-104958500D01*
X105729000Y-105044500D01*
X105771400Y-105130500D01*
X105813800Y-105302500D01*
X105813800Y-105431500D01*
X105771400Y-105603500D01*
X105729000Y-105689500D01*
X105644200Y-105775500D01*
X105517000Y-105818500D01*
X105305000Y-105818500D01*
X117249047Y-124925952D02*
X117249047Y-123895952D01*
X117641428Y-123895952D01*
X117739523Y-123945000D01*
X117788571Y-123994047D01*
X117837619Y-124092142D01*
X117837619Y-124239285D01*
X117788571Y-124337380D01*
X117739523Y-124386428D01*
X117641428Y-124435476D01*
X117249047Y-124435476D01*
X118230000Y-123994047D02*
X118279047Y-123945000D01*
X118377142Y-123895952D01*
X118622380Y-123895952D01*
X118720476Y-123945000D01*
X118769523Y-123994047D01*
X118818571Y-124092142D01*
X118818571Y-124190238D01*
X118769523Y-124337380D01*
X118180952Y-124925952D01*
X118818571Y-124925952D01*
X119260000Y-124827857D02*
X119309047Y-124876904D01*
X119260000Y-124925952D01*
X119210952Y-124876904D01*
X119260000Y-124827857D01*
X119260000Y-124925952D01*
X119652380Y-123895952D02*
X120290000Y-123895952D01*
X119946666Y-124288333D01*
X120093809Y-124288333D01*
X120191904Y-124337380D01*
X120240952Y-124386428D01*
X120290000Y-124484523D01*
X120290000Y-124729761D01*
X120240952Y-124827857D01*
X120191904Y-124876904D01*
X120093809Y-124925952D01*
X119799523Y-124925952D01*
X119701428Y-124876904D01*
X119652380Y-124827857D01*
X103279047Y-104605952D02*
X103279047Y-103575952D01*
X103671428Y-103575952D01*
X103769523Y-103625000D01*
X103818571Y-103674047D01*
X103867619Y-103772142D01*
X103867619Y-103919285D01*
X103818571Y-104017380D01*
X103769523Y-104066428D01*
X103671428Y-104115476D01*
X103279047Y-104115476D01*
X104848571Y-104605952D02*
X104260000Y-104605952D01*
X104554285Y-104605952D02*
X104554285Y-103575952D01*
X104456190Y-103723095D01*
X104358095Y-103821190D01*
X104260000Y-103870238D01*
X105290000Y-104507857D02*
X105339047Y-104556904D01*
X105290000Y-104605952D01*
X105240952Y-104556904D01*
X105290000Y-104507857D01*
X105290000Y-104605952D01*
X105976666Y-103575952D02*
X106074761Y-103575952D01*
X106172857Y-103625000D01*
X106221904Y-103674047D01*
X106270952Y-103772142D01*
X106320000Y-103968333D01*
X106320000Y-104213571D01*
X106270952Y-104409761D01*
X106221904Y-104507857D01*
X106172857Y-104556904D01*
X106074761Y-104605952D01*
X105976666Y-104605952D01*
X105878571Y-104556904D01*
X105829523Y-104507857D01*
X105780476Y-104409761D01*
X105731428Y-104213571D01*
X105731428Y-103968333D01*
X105780476Y-103772142D01*
X105829523Y-103674047D01*
X105878571Y-103625000D01*
X105976666Y-103575952D01*
X103279047Y-107145952D02*
X103279047Y-106115952D01*
X103671428Y-106115952D01*
X103769523Y-106165000D01*
X103818571Y-106214047D01*
X103867619Y-106312142D01*
X103867619Y-106459285D01*
X103818571Y-106557380D01*
X103769523Y-106606428D01*
X103671428Y-106655476D01*
X103279047Y-106655476D01*
X104848571Y-107145952D02*
X104260000Y-107145952D01*
X104554285Y-107145952D02*
X104554285Y-106115952D01*
X104456190Y-106263095D01*
X104358095Y-106361190D01*
X104260000Y-106410238D01*
X105290000Y-107047857D02*
X105339047Y-107096904D01*
X105290000Y-107145952D01*
X105240952Y-107096904D01*
X105290000Y-107047857D01*
X105290000Y-107145952D01*
X106320000Y-107145952D02*
X105731428Y-107145952D01*
X106025714Y-107145952D02*
X106025714Y-106115952D01*
X105927619Y-106263095D01*
X105829523Y-106361190D01*
X105731428Y-106410238D01*
X103279047Y-124925952D02*
X103279047Y-123895952D01*
X103671428Y-123895952D01*
X103769523Y-123945000D01*
X103818571Y-123994047D01*
X103867619Y-124092142D01*
X103867619Y-124239285D01*
X103818571Y-124337380D01*
X103769523Y-124386428D01*
X103671428Y-124435476D01*
X103279047Y-124435476D01*
X104260000Y-123994047D02*
X104309047Y-123945000D01*
X104407142Y-123895952D01*
X104652380Y-123895952D01*
X104750476Y-123945000D01*
X104799523Y-123994047D01*
X104848571Y-124092142D01*
X104848571Y-124190238D01*
X104799523Y-124337380D01*
X104210952Y-124925952D01*
X104848571Y-124925952D01*
X105290000Y-124827857D02*
X105339047Y-124876904D01*
X105290000Y-124925952D01*
X105240952Y-124876904D01*
X105290000Y-124827857D01*
X105290000Y-124925952D01*
X105731428Y-123994047D02*
X105780476Y-123945000D01*
X105878571Y-123895952D01*
X106123809Y-123895952D01*
X106221904Y-123945000D01*
X106270952Y-123994047D01*
X106320000Y-124092142D01*
X106320000Y-124190238D01*
X106270952Y-124337380D01*
X105682380Y-124925952D01*
X106320000Y-124925952D01*
X103279047Y-117305952D02*
X103279047Y-116275952D01*
X103671428Y-116275952D01*
X103769523Y-116325000D01*
X103818571Y-116374047D01*
X103867619Y-116472142D01*
X103867619Y-116619285D01*
X103818571Y-116717380D01*
X103769523Y-116766428D01*
X103671428Y-116815476D01*
X103279047Y-116815476D01*
X104848571Y-117305952D02*
X104260000Y-117305952D01*
X104554285Y-117305952D02*
X104554285Y-116275952D01*
X104456190Y-116423095D01*
X104358095Y-116521190D01*
X104260000Y-116570238D01*
X105290000Y-117207857D02*
X105339047Y-117256904D01*
X105290000Y-117305952D01*
X105240952Y-117256904D01*
X105290000Y-117207857D01*
X105290000Y-117305952D01*
X106270952Y-116275952D02*
X105780476Y-116275952D01*
X105731428Y-116766428D01*
X105780476Y-116717380D01*
X105878571Y-116668333D01*
X106123809Y-116668333D01*
X106221904Y-116717380D01*
X106270952Y-116766428D01*
X106320000Y-116864523D01*
X106320000Y-117109761D01*
X106270952Y-117207857D01*
X106221904Y-117256904D01*
X106123809Y-117305952D01*
X105878571Y-117305952D01*
X105780476Y-117256904D01*
X105731428Y-117207857D01*
X103279047Y-112225952D02*
X103279047Y-111195952D01*
X103671428Y-111195952D01*
X103769523Y-111245000D01*
X103818571Y-111294047D01*
X103867619Y-111392142D01*
X103867619Y-111539285D01*
X103818571Y-111637380D01*
X103769523Y-111686428D01*
X103671428Y-111735476D01*
X103279047Y-111735476D01*
X104848571Y-112225952D02*
X104260000Y-112225952D01*
X104554285Y-112225952D02*
X104554285Y-111195952D01*
X104456190Y-111343095D01*
X104358095Y-111441190D01*
X104260000Y-111490238D01*
X105290000Y-112127857D02*
X105339047Y-112176904D01*
X105290000Y-112225952D01*
X105240952Y-112176904D01*
X105290000Y-112127857D01*
X105290000Y-112225952D01*
X105682380Y-111195952D02*
X106320000Y-111195952D01*
X105976666Y-111588333D01*
X106123809Y-111588333D01*
X106221904Y-111637380D01*
X106270952Y-111686428D01*
X106320000Y-111784523D01*
X106320000Y-112029761D01*
X106270952Y-112127857D01*
X106221904Y-112176904D01*
X106123809Y-112225952D01*
X105829523Y-112225952D01*
X105731428Y-112176904D01*
X105682380Y-112127857D01*
X103279047Y-109685952D02*
X103279047Y-108655952D01*
X103671428Y-108655952D01*
X103769523Y-108705000D01*
X103818571Y-108754047D01*
X103867619Y-108852142D01*
X103867619Y-108999285D01*
X103818571Y-109097380D01*
X103769523Y-109146428D01*
X103671428Y-109195476D01*
X103279047Y-109195476D01*
X104848571Y-109685952D02*
X104260000Y-109685952D01*
X104554285Y-109685952D02*
X104554285Y-108655952D01*
X104456190Y-108803095D01*
X104358095Y-108901190D01*
X104260000Y-108950238D01*
X105290000Y-109587857D02*
X105339047Y-109636904D01*
X105290000Y-109685952D01*
X105240952Y-109636904D01*
X105290000Y-109587857D01*
X105290000Y-109685952D01*
X105731428Y-108754047D02*
X105780476Y-108705000D01*
X105878571Y-108655952D01*
X106123809Y-108655952D01*
X106221904Y-108705000D01*
X106270952Y-108754047D01*
X106320000Y-108852142D01*
X106320000Y-108950238D01*
X106270952Y-109097380D01*
X105682380Y-109685952D01*
X106320000Y-109685952D01*
X103279047Y-114765952D02*
X103279047Y-113735952D01*
X103671428Y-113735952D01*
X103769523Y-113785000D01*
X103818571Y-113834047D01*
X103867619Y-113932142D01*
X103867619Y-114079285D01*
X103818571Y-114177380D01*
X103769523Y-114226428D01*
X103671428Y-114275476D01*
X103279047Y-114275476D01*
X104848571Y-114765952D02*
X104260000Y-114765952D01*
X104554285Y-114765952D02*
X104554285Y-113735952D01*
X104456190Y-113883095D01*
X104358095Y-113981190D01*
X104260000Y-114030238D01*
X105290000Y-114667857D02*
X105339047Y-114716904D01*
X105290000Y-114765952D01*
X105240952Y-114716904D01*
X105290000Y-114667857D01*
X105290000Y-114765952D01*
X106221904Y-114079285D02*
X106221904Y-114765952D01*
X105976666Y-113686904D02*
X105731428Y-114422619D01*
X106369047Y-114422619D01*
X103279047Y-122385952D02*
X103279047Y-121355952D01*
X103671428Y-121355952D01*
X103769523Y-121405000D01*
X103818571Y-121454047D01*
X103867619Y-121552142D01*
X103867619Y-121699285D01*
X103818571Y-121797380D01*
X103769523Y-121846428D01*
X103671428Y-121895476D01*
X103279047Y-121895476D01*
X104260000Y-121454047D02*
X104309047Y-121405000D01*
X104407142Y-121355952D01*
X104652380Y-121355952D01*
X104750476Y-121405000D01*
X104799523Y-121454047D01*
X104848571Y-121552142D01*
X104848571Y-121650238D01*
X104799523Y-121797380D01*
X104210952Y-122385952D01*
X104848571Y-122385952D01*
X105290000Y-122287857D02*
X105339047Y-122336904D01*
X105290000Y-122385952D01*
X105240952Y-122336904D01*
X105290000Y-122287857D01*
X105290000Y-122385952D01*
X106320000Y-122385952D02*
X105731428Y-122385952D01*
X106025714Y-122385952D02*
X106025714Y-121355952D01*
X105927619Y-121503095D01*
X105829523Y-121601190D01*
X105731428Y-121650238D01*
X103279047Y-119845952D02*
X103279047Y-118815952D01*
X103671428Y-118815952D01*
X103769523Y-118865000D01*
X103818571Y-118914047D01*
X103867619Y-119012142D01*
X103867619Y-119159285D01*
X103818571Y-119257380D01*
X103769523Y-119306428D01*
X103671428Y-119355476D01*
X103279047Y-119355476D01*
X104260000Y-118914047D02*
X104309047Y-118865000D01*
X104407142Y-118815952D01*
X104652380Y-118815952D01*
X104750476Y-118865000D01*
X104799523Y-118914047D01*
X104848571Y-119012142D01*
X104848571Y-119110238D01*
X104799523Y-119257380D01*
X104210952Y-119845952D01*
X104848571Y-119845952D01*
X105290000Y-119747857D02*
X105339047Y-119796904D01*
X105290000Y-119845952D01*
X105240952Y-119796904D01*
X105290000Y-119747857D01*
X105290000Y-119845952D01*
X105976666Y-118815952D02*
X106074761Y-118815952D01*
X106172857Y-118865000D01*
X106221904Y-118914047D01*
X106270952Y-119012142D01*
X106320000Y-119208333D01*
X106320000Y-119453571D01*
X106270952Y-119649761D01*
X106221904Y-119747857D01*
X106172857Y-119796904D01*
X106074761Y-119845952D01*
X105976666Y-119845952D01*
X105878571Y-119796904D01*
X105829523Y-119747857D01*
X105780476Y-119649761D01*
X105731428Y-119453571D01*
X105731428Y-119208333D01*
X105780476Y-119012142D01*
X105829523Y-118914047D01*
X105878571Y-118865000D01*
X105976666Y-118815952D01*
X117249047Y-119845952D02*
X117249047Y-118815952D01*
X117641428Y-118815952D01*
X117739523Y-118865000D01*
X117788571Y-118914047D01*
X117837619Y-119012142D01*
X117837619Y-119159285D01*
X117788571Y-119257380D01*
X117739523Y-119306428D01*
X117641428Y-119355476D01*
X117249047Y-119355476D01*
X118230000Y-118914047D02*
X118279047Y-118865000D01*
X118377142Y-118815952D01*
X118622380Y-118815952D01*
X118720476Y-118865000D01*
X118769523Y-118914047D01*
X118818571Y-119012142D01*
X118818571Y-119110238D01*
X118769523Y-119257380D01*
X118180952Y-119845952D01*
X118818571Y-119845952D01*
X119260000Y-119747857D02*
X119309047Y-119796904D01*
X119260000Y-119845952D01*
X119210952Y-119796904D01*
X119260000Y-119747857D01*
X119260000Y-119845952D01*
X120240952Y-118815952D02*
X119750476Y-118815952D01*
X119701428Y-119306428D01*
X119750476Y-119257380D01*
X119848571Y-119208333D01*
X120093809Y-119208333D01*
X120191904Y-119257380D01*
X120240952Y-119306428D01*
X120290000Y-119404523D01*
X120290000Y-119649761D01*
X120240952Y-119747857D01*
X120191904Y-119796904D01*
X120093809Y-119845952D01*
X119848571Y-119845952D01*
X119750476Y-119796904D01*
X119701428Y-119747857D01*
X117249047Y-122385952D02*
X117249047Y-121355952D01*
X117641428Y-121355952D01*
X117739523Y-121405000D01*
X117788571Y-121454047D01*
X117837619Y-121552142D01*
X117837619Y-121699285D01*
X117788571Y-121797380D01*
X117739523Y-121846428D01*
X117641428Y-121895476D01*
X117249047Y-121895476D01*
X118230000Y-121454047D02*
X118279047Y-121405000D01*
X118377142Y-121355952D01*
X118622380Y-121355952D01*
X118720476Y-121405000D01*
X118769523Y-121454047D01*
X118818571Y-121552142D01*
X118818571Y-121650238D01*
X118769523Y-121797380D01*
X118180952Y-122385952D01*
X118818571Y-122385952D01*
X119260000Y-122287857D02*
X119309047Y-122336904D01*
X119260000Y-122385952D01*
X119210952Y-122336904D01*
X119260000Y-122287857D01*
X119260000Y-122385952D01*
X120191904Y-121699285D02*
X120191904Y-122385952D01*
X119946666Y-121306904D02*
X119701428Y-122042619D01*
X120339047Y-122042619D01*
X117249047Y-114765952D02*
X117249047Y-113735952D01*
X117641428Y-113735952D01*
X117739523Y-113785000D01*
X117788571Y-113834047D01*
X117837619Y-113932142D01*
X117837619Y-114079285D01*
X117788571Y-114177380D01*
X117739523Y-114226428D01*
X117641428Y-114275476D01*
X117249047Y-114275476D01*
X118818571Y-114765952D02*
X118230000Y-114765952D01*
X118524285Y-114765952D02*
X118524285Y-113735952D01*
X118426190Y-113883095D01*
X118328095Y-113981190D01*
X118230000Y-114030238D01*
X119260000Y-114667857D02*
X119309047Y-114716904D01*
X119260000Y-114765952D01*
X119210952Y-114716904D01*
X119260000Y-114667857D01*
X119260000Y-114765952D01*
X119652380Y-113735952D02*
X120339047Y-113735952D01*
X119897619Y-114765952D01*
X117249047Y-117305952D02*
X117249047Y-116275952D01*
X117641428Y-116275952D01*
X117739523Y-116325000D01*
X117788571Y-116374047D01*
X117837619Y-116472142D01*
X117837619Y-116619285D01*
X117788571Y-116717380D01*
X117739523Y-116766428D01*
X117641428Y-116815476D01*
X117249047Y-116815476D01*
X118818571Y-117305952D02*
X118230000Y-117305952D01*
X118524285Y-117305952D02*
X118524285Y-116275952D01*
X118426190Y-116423095D01*
X118328095Y-116521190D01*
X118230000Y-116570238D01*
X119260000Y-117207857D02*
X119309047Y-117256904D01*
X119260000Y-117305952D01*
X119210952Y-117256904D01*
X119260000Y-117207857D01*
X119260000Y-117305952D01*
X120191904Y-116275952D02*
X119995714Y-116275952D01*
X119897619Y-116325000D01*
X119848571Y-116374047D01*
X119750476Y-116521190D01*
X119701428Y-116717380D01*
X119701428Y-117109761D01*
X119750476Y-117207857D01*
X119799523Y-117256904D01*
X119897619Y-117305952D01*
X120093809Y-117305952D01*
X120191904Y-117256904D01*
X120240952Y-117207857D01*
X120290000Y-117109761D01*
X120290000Y-116864523D01*
X120240952Y-116766428D01*
X120191904Y-116717380D01*
X120093809Y-116668333D01*
X119897619Y-116668333D01*
X119799523Y-116717380D01*
X119750476Y-116766428D01*
X119701428Y-116864523D01*
X117567857Y-108655952D02*
X118156428Y-108655952D01*
X117862142Y-109685952D02*
X117862142Y-108655952D01*
X118450714Y-109636904D02*
X118597857Y-109685952D01*
X118843095Y-109685952D01*
X118941190Y-109636904D01*
X118990238Y-109587857D01*
X119039285Y-109489761D01*
X119039285Y-109391666D01*
X118990238Y-109293571D01*
X118941190Y-109244523D01*
X118843095Y-109195476D01*
X118646904Y-109146428D01*
X118548809Y-109097380D01*
X118499761Y-109048333D01*
X118450714Y-108950238D01*
X118450714Y-108852142D01*
X118499761Y-108754047D01*
X118548809Y-108705000D01*
X118646904Y-108655952D01*
X118892142Y-108655952D01*
X119039285Y-108705000D01*
X119333571Y-108655952D02*
X119922142Y-108655952D01*
X119627857Y-109685952D02*
X119627857Y-108655952D01*
X117347142Y-110853300D02*
X118377142Y-110853300D01*
X118180952Y-112225952D02*
X117837619Y-111735476D01*
X117592380Y-112225952D02*
X117592380Y-111195952D01*
X117984761Y-111195952D01*
X118082857Y-111245000D01*
X118131904Y-111294047D01*
X118180952Y-111392142D01*
X118180952Y-111539285D01*
X118131904Y-111637380D01*
X118082857Y-111686428D01*
X117984761Y-111735476D01*
X117592380Y-111735476D01*
X118377142Y-110853300D02*
X119358095Y-110853300D01*
X118573333Y-112176904D02*
X118720476Y-112225952D01*
X118965714Y-112225952D01*
X119063809Y-112176904D01*
X119112857Y-112127857D01*
X119161904Y-112029761D01*
X119161904Y-111931666D01*
X119112857Y-111833571D01*
X119063809Y-111784523D01*
X118965714Y-111735476D01*
X118769523Y-111686428D01*
X118671428Y-111637380D01*
X118622380Y-111588333D01*
X118573333Y-111490238D01*
X118573333Y-111392142D01*
X118622380Y-111294047D01*
X118671428Y-111245000D01*
X118769523Y-111195952D01*
X119014761Y-111195952D01*
X119161904Y-111245000D01*
X119358095Y-110853300D02*
X120142857Y-110853300D01*
X119456190Y-111195952D02*
X120044761Y-111195952D01*
X119750476Y-112225952D02*
X119750476Y-111195952D01*
X117249047Y-107145952D02*
X117249047Y-106115952D01*
X117641428Y-106115952D01*
X117739523Y-106165000D01*
X117788571Y-106214047D01*
X117837619Y-106312142D01*
X117837619Y-106459285D01*
X117788571Y-106557380D01*
X117739523Y-106606428D01*
X117641428Y-106655476D01*
X117249047Y-106655476D01*
X118230000Y-106214047D02*
X118279047Y-106165000D01*
X118377142Y-106115952D01*
X118622380Y-106115952D01*
X118720476Y-106165000D01*
X118769523Y-106214047D01*
X118818571Y-106312142D01*
X118818571Y-106410238D01*
X118769523Y-106557380D01*
X118180952Y-107145952D01*
X118818571Y-107145952D01*
X119260000Y-107047857D02*
X119309047Y-107096904D01*
X119260000Y-107145952D01*
X119210952Y-107096904D01*
X119260000Y-107047857D01*
X119260000Y-107145952D01*
X119652380Y-106115952D02*
X120339047Y-106115952D01*
X119897619Y-107145952D01*
X117249047Y-104605952D02*
X117249047Y-103575952D01*
X117641428Y-103575952D01*
X117739523Y-103625000D01*
X117788571Y-103674047D01*
X117837619Y-103772142D01*
X117837619Y-103919285D01*
X117788571Y-104017380D01*
X117739523Y-104066428D01*
X117641428Y-104115476D01*
X117249047Y-104115476D01*
X118230000Y-103674047D02*
X118279047Y-103625000D01*
X118377142Y-103575952D01*
X118622380Y-103575952D01*
X118720476Y-103625000D01*
X118769523Y-103674047D01*
X118818571Y-103772142D01*
X118818571Y-103870238D01*
X118769523Y-104017380D01*
X118180952Y-104605952D01*
X118818571Y-104605952D01*
X119260000Y-104507857D02*
X119309047Y-104556904D01*
X119260000Y-104605952D01*
X119210952Y-104556904D01*
X119260000Y-104507857D01*
X119260000Y-104605952D01*
X120191904Y-103575952D02*
X119995714Y-103575952D01*
X119897619Y-103625000D01*
X119848571Y-103674047D01*
X119750476Y-103821190D01*
X119701428Y-104017380D01*
X119701428Y-104409761D01*
X119750476Y-104507857D01*
X119799523Y-104556904D01*
X119897619Y-104605952D01*
X120093809Y-104605952D01*
X120191904Y-104556904D01*
X120240952Y-104507857D01*
X120290000Y-104409761D01*
X120290000Y-104164523D01*
X120240952Y-104066428D01*
X120191904Y-104017380D01*
X120093809Y-103968333D01*
X119897619Y-103968333D01*
X119799523Y-104017380D01*
X119750476Y-104066428D01*
X119701428Y-104164523D01*
X117960238Y-101085000D02*
X117862142Y-101035952D01*
X117715000Y-101035952D01*
X117567857Y-101085000D01*
X117469761Y-101183095D01*
X117420714Y-101281190D01*
X117371666Y-101477380D01*
X117371666Y-101624523D01*
X117420714Y-101820714D01*
X117469761Y-101918809D01*
X117567857Y-102016904D01*
X117715000Y-102065952D01*
X117813095Y-102065952D01*
X117960238Y-102016904D01*
X118009285Y-101967857D01*
X118009285Y-101624523D01*
X117813095Y-101624523D01*
X118450714Y-102065952D02*
X118450714Y-101035952D01*
X119039285Y-102065952D01*
X119039285Y-101035952D01*
X119529761Y-102065952D02*
X119529761Y-101035952D01*
X119775000Y-101035952D01*
X119922142Y-101085000D01*
X120020238Y-101183095D01*
X120069285Y-101281190D01*
X120118333Y-101477380D01*
X120118333Y-101624523D01*
X120069285Y-101820714D01*
X120020238Y-101918809D01*
X119922142Y-102016904D01*
X119775000Y-102065952D01*
X119529761Y-102065952D01*
D11*
G04 #@! TO.C,SW1*
X122575000Y-94255000D02*
X122575000Y-96935000D01*
X116335000Y-96935000D02*
X116335000Y-94255000D01*
X116485000Y-92475000D02*
X122425000Y-92475000D01*
X116485000Y-98715000D02*
X122425000Y-98715000D01*
X120869214Y-95595000D02*
G75*
G03X120869214Y-95595000I-1414214J0D01*
G01*
G04 #@! TO.C,C1*
X107190000Y-97618733D02*
X107190000Y-97961267D01*
X106170000Y-97618733D02*
X106170000Y-97961267D01*
G04 #@! TO.C,C2*
X114763733Y-91950000D02*
X115106267Y-91950000D01*
X114763733Y-90930000D02*
X115106267Y-90930000D01*
G04 #@! TO.C,C3*
X118916267Y-91950000D02*
X118573733Y-91950000D01*
X118916267Y-90930000D02*
X118573733Y-90930000D01*
G04 #@! TO.C,D1*
X104040000Y-96990000D02*
X104040000Y-99450000D01*
X104040000Y-99450000D02*
X105510000Y-99450000D01*
X105510000Y-99450000D02*
X105510000Y-96990000D01*
G04 #@! TO.C,D2*
X103605000Y-99450000D02*
X103605000Y-96990000D01*
X102135000Y-99450000D02*
X103605000Y-99450000D01*
X102135000Y-96990000D02*
X102135000Y-99450000D01*
G04 #@! TO.C,J1*
X100270000Y-125790000D02*
X102930000Y-125790000D01*
X100270000Y-102870000D02*
X100270000Y-125790000D01*
X102930000Y-102870000D02*
X102930000Y-125790000D01*
X100270000Y-102870000D02*
X102930000Y-102870000D01*
X100270000Y-101600000D02*
X100270000Y-100270000D01*
X100270000Y-100270000D02*
X101600000Y-100270000D01*
G04 #@! TO.C,J2*
X123250000Y-125790000D02*
X121920000Y-125790000D01*
X123250000Y-124460000D02*
X123250000Y-125790000D01*
X123250000Y-123190000D02*
X120590000Y-123190000D01*
X120590000Y-123190000D02*
X120590000Y-100270000D01*
X123250000Y-123190000D02*
X123250000Y-100270000D01*
X123250000Y-100270000D02*
X120590000Y-100270000D01*
G04 #@! TO.C,J3*
X102135000Y-82990000D02*
X109955000Y-82990000D01*
X108155000Y-92310000D02*
X108155000Y-92740000D01*
X102135000Y-82990000D02*
X102135000Y-84940000D01*
X102135000Y-87160000D02*
X102135000Y-90390000D01*
X103935000Y-92310000D02*
X102855000Y-92310000D01*
X109235000Y-92310000D02*
X108155000Y-92310000D01*
X109955000Y-87160000D02*
X109955000Y-90390000D01*
X109955000Y-82990000D02*
X109955000Y-84940000D01*
G04 #@! TO.C,R1*
X105285000Y-101033733D02*
X105285000Y-101376267D01*
X104265000Y-101033733D02*
X104265000Y-101376267D01*
G04 #@! TO.C,R2*
X100455000Y-97961267D02*
X100455000Y-97618733D01*
X101475000Y-97961267D02*
X101475000Y-97618733D01*
G04 #@! TO.C,R3*
X109683733Y-99570000D02*
X110026267Y-99570000D01*
X109683733Y-98550000D02*
X110026267Y-98550000D01*
G04 #@! TO.C,U1*
X112760000Y-100270000D02*
G75*
G02X110760000Y-100270000I-1000000J0D01*
G01*
X110760000Y-100270000D02*
X109110000Y-100270000D01*
X109110000Y-100270000D02*
X109110000Y-125790000D01*
X109110000Y-125790000D02*
X114410000Y-125790000D01*
X114410000Y-125790000D02*
X114410000Y-100270000D01*
X114410000Y-100270000D02*
X112760000Y-100270000D01*
X106620000Y-100210000D02*
X106620000Y-125850000D01*
X106620000Y-125850000D02*
X116900000Y-125850000D01*
X116900000Y-125850000D02*
X116900000Y-100210000D01*
X116900000Y-100210000D02*
X106620000Y-100210000D01*
G04 #@! TO.C,U2*
X119385000Y-90405000D02*
X119385000Y-89145000D01*
X119385000Y-83585000D02*
X119385000Y-84845000D01*
X115625000Y-90405000D02*
X119385000Y-90405000D01*
X113375000Y-83585000D02*
X119385000Y-83585000D01*
G04 #@! TO.C,C4*
X113493733Y-98550000D02*
X113836267Y-98550000D01*
X113493733Y-99570000D02*
X113836267Y-99570000D01*
G04 #@! TO.C,SW1*
D12*
X113601666Y-95654761D02*
X113744523Y-95702380D01*
X113982619Y-95702380D01*
X114077857Y-95654761D01*
X114125476Y-95607142D01*
X114173095Y-95511904D01*
X114173095Y-95416666D01*
X114125476Y-95321428D01*
X114077857Y-95273809D01*
X113982619Y-95226190D01*
X113792142Y-95178571D01*
X113696904Y-95130952D01*
X113649285Y-95083333D01*
X113601666Y-94988095D01*
X113601666Y-94892857D01*
X113649285Y-94797619D01*
X113696904Y-94750000D01*
X113792142Y-94702380D01*
X114030238Y-94702380D01*
X114173095Y-94750000D01*
X114506428Y-94702380D02*
X114744523Y-95702380D01*
X114935000Y-94988095D01*
X115125476Y-95702380D01*
X115363571Y-94702380D01*
X116268333Y-95702380D02*
X115696904Y-95702380D01*
X115982619Y-95702380D02*
X115982619Y-94702380D01*
X115887380Y-94845238D01*
X115792142Y-94940476D01*
X115696904Y-94988095D01*
G04 #@! TO.C,C1*
X107037142Y-95416666D02*
X107084761Y-95464285D01*
X107132380Y-95607142D01*
X107132380Y-95702380D01*
X107084761Y-95845238D01*
X106989523Y-95940476D01*
X106894285Y-95988095D01*
X106703809Y-96035714D01*
X106560952Y-96035714D01*
X106370476Y-95988095D01*
X106275238Y-95940476D01*
X106180000Y-95845238D01*
X106132380Y-95702380D01*
X106132380Y-95607142D01*
X106180000Y-95464285D01*
X106227619Y-95416666D01*
X107132380Y-94464285D02*
X107132380Y-95035714D01*
X107132380Y-94750000D02*
X106132380Y-94750000D01*
X106275238Y-94845238D01*
X106370476Y-94940476D01*
X106418095Y-95035714D01*
G04 #@! TO.C,C2*
X112228333Y-91797142D02*
X112180714Y-91844761D01*
X112037857Y-91892380D01*
X111942619Y-91892380D01*
X111799761Y-91844761D01*
X111704523Y-91749523D01*
X111656904Y-91654285D01*
X111609285Y-91463809D01*
X111609285Y-91320952D01*
X111656904Y-91130476D01*
X111704523Y-91035238D01*
X111799761Y-90940000D01*
X111942619Y-90892380D01*
X112037857Y-90892380D01*
X112180714Y-90940000D01*
X112228333Y-90987619D01*
X112609285Y-90987619D02*
X112656904Y-90940000D01*
X112752142Y-90892380D01*
X112990238Y-90892380D01*
X113085476Y-90940000D01*
X113133095Y-90987619D01*
X113180714Y-91082857D01*
X113180714Y-91178095D01*
X113133095Y-91320952D01*
X112561666Y-91892380D01*
X113180714Y-91892380D01*
G04 #@! TO.C,C3*
X121753333Y-91797142D02*
X121705714Y-91844761D01*
X121562857Y-91892380D01*
X121467619Y-91892380D01*
X121324761Y-91844761D01*
X121229523Y-91749523D01*
X121181904Y-91654285D01*
X121134285Y-91463809D01*
X121134285Y-91320952D01*
X121181904Y-91130476D01*
X121229523Y-91035238D01*
X121324761Y-90940000D01*
X121467619Y-90892380D01*
X121562857Y-90892380D01*
X121705714Y-90940000D01*
X121753333Y-90987619D01*
X122086666Y-90892380D02*
X122705714Y-90892380D01*
X122372380Y-91273333D01*
X122515238Y-91273333D01*
X122610476Y-91320952D01*
X122658095Y-91368571D01*
X122705714Y-91463809D01*
X122705714Y-91701904D01*
X122658095Y-91797142D01*
X122610476Y-91844761D01*
X122515238Y-91892380D01*
X122229523Y-91892380D01*
X122134285Y-91844761D01*
X122086666Y-91797142D01*
G04 #@! TO.C,D1*
X105227380Y-95988095D02*
X104227380Y-95988095D01*
X104227380Y-95750000D01*
X104275000Y-95607142D01*
X104370238Y-95511904D01*
X104465476Y-95464285D01*
X104655952Y-95416666D01*
X104798809Y-95416666D01*
X104989285Y-95464285D01*
X105084523Y-95511904D01*
X105179761Y-95607142D01*
X105227380Y-95750000D01*
X105227380Y-95988095D01*
X105227380Y-94464285D02*
X105227380Y-95035714D01*
X105227380Y-94750000D02*
X104227380Y-94750000D01*
X104370238Y-94845238D01*
X104465476Y-94940476D01*
X104513095Y-95035714D01*
G04 #@! TO.C,D2*
X103322380Y-95988095D02*
X102322380Y-95988095D01*
X102322380Y-95750000D01*
X102370000Y-95607142D01*
X102465238Y-95511904D01*
X102560476Y-95464285D01*
X102750952Y-95416666D01*
X102893809Y-95416666D01*
X103084285Y-95464285D01*
X103179523Y-95511904D01*
X103274761Y-95607142D01*
X103322380Y-95750000D01*
X103322380Y-95988095D01*
X102417619Y-95035714D02*
X102370000Y-94988095D01*
X102322380Y-94892857D01*
X102322380Y-94654761D01*
X102370000Y-94559523D01*
X102417619Y-94511904D01*
X102512857Y-94464285D01*
X102608095Y-94464285D01*
X102750952Y-94511904D01*
X103322380Y-95083333D01*
X103322380Y-94464285D01*
G04 #@! TO.C,J1*
X103171666Y-99782380D02*
X103171666Y-100496666D01*
X103124047Y-100639523D01*
X103028809Y-100734761D01*
X102885952Y-100782380D01*
X102790714Y-100782380D01*
X104171666Y-100782380D02*
X103600238Y-100782380D01*
X103885952Y-100782380D02*
X103885952Y-99782380D01*
X103790714Y-99925238D01*
X103695476Y-100020476D01*
X103600238Y-100068095D01*
G04 #@! TO.C,J2*
X118411666Y-99147380D02*
X118411666Y-99861666D01*
X118364047Y-100004523D01*
X118268809Y-100099761D01*
X118125952Y-100147380D01*
X118030714Y-100147380D01*
X118840238Y-99242619D02*
X118887857Y-99195000D01*
X118983095Y-99147380D01*
X119221190Y-99147380D01*
X119316428Y-99195000D01*
X119364047Y-99242619D01*
X119411666Y-99337857D01*
X119411666Y-99433095D01*
X119364047Y-99575952D01*
X118792619Y-100147380D01*
X119411666Y-100147380D01*
G04 #@! TO.C,J3*
X111426666Y-83272380D02*
X111426666Y-83986666D01*
X111379047Y-84129523D01*
X111283809Y-84224761D01*
X111140952Y-84272380D01*
X111045714Y-84272380D01*
X111807619Y-83272380D02*
X112426666Y-83272380D01*
X112093333Y-83653333D01*
X112236190Y-83653333D01*
X112331428Y-83700952D01*
X112379047Y-83748571D01*
X112426666Y-83843809D01*
X112426666Y-84081904D01*
X112379047Y-84177142D01*
X112331428Y-84224761D01*
X112236190Y-84272380D01*
X111950476Y-84272380D01*
X111855238Y-84224761D01*
X111807619Y-84177142D01*
G04 #@! TO.C,R1*
X106497380Y-101131666D02*
X106021190Y-101465000D01*
X106497380Y-101703095D02*
X105497380Y-101703095D01*
X105497380Y-101322142D01*
X105545000Y-101226904D01*
X105592619Y-101179285D01*
X105687857Y-101131666D01*
X105830714Y-101131666D01*
X105925952Y-101179285D01*
X105973571Y-101226904D01*
X106021190Y-101322142D01*
X106021190Y-101703095D01*
X106497380Y-100179285D02*
X106497380Y-100750714D01*
X106497380Y-100465000D02*
X105497380Y-100465000D01*
X105640238Y-100560238D01*
X105735476Y-100655476D01*
X105783095Y-100750714D01*
G04 #@! TO.C,R2*
X101417380Y-95416666D02*
X100941190Y-95750000D01*
X101417380Y-95988095D02*
X100417380Y-95988095D01*
X100417380Y-95607142D01*
X100465000Y-95511904D01*
X100512619Y-95464285D01*
X100607857Y-95416666D01*
X100750714Y-95416666D01*
X100845952Y-95464285D01*
X100893571Y-95511904D01*
X100941190Y-95607142D01*
X100941190Y-95988095D01*
X100512619Y-95035714D02*
X100465000Y-94988095D01*
X100417380Y-94892857D01*
X100417380Y-94654761D01*
X100465000Y-94559523D01*
X100512619Y-94511904D01*
X100607857Y-94464285D01*
X100703095Y-94464285D01*
X100845952Y-94511904D01*
X101417380Y-95083333D01*
X101417380Y-94464285D01*
G04 #@! TO.C,R3*
X109688333Y-98082380D02*
X109355000Y-97606190D01*
X109116904Y-98082380D02*
X109116904Y-97082380D01*
X109497857Y-97082380D01*
X109593095Y-97130000D01*
X109640714Y-97177619D01*
X109688333Y-97272857D01*
X109688333Y-97415714D01*
X109640714Y-97510952D01*
X109593095Y-97558571D01*
X109497857Y-97606190D01*
X109116904Y-97606190D01*
X110021666Y-97082380D02*
X110640714Y-97082380D01*
X110307380Y-97463333D01*
X110450238Y-97463333D01*
X110545476Y-97510952D01*
X110593095Y-97558571D01*
X110640714Y-97653809D01*
X110640714Y-97891904D01*
X110593095Y-97987142D01*
X110545476Y-98034761D01*
X110450238Y-98082380D01*
X110164523Y-98082380D01*
X110069285Y-98034761D01*
X110021666Y-97987142D01*
G04 #@! TO.C,U1*
X109728095Y-101052380D02*
X109728095Y-101861904D01*
X109775714Y-101957142D01*
X109823333Y-102004761D01*
X109918571Y-102052380D01*
X110109047Y-102052380D01*
X110204285Y-102004761D01*
X110251904Y-101957142D01*
X110299523Y-101861904D01*
X110299523Y-101052380D01*
X111299523Y-102052380D02*
X110728095Y-102052380D01*
X111013809Y-102052380D02*
X111013809Y-101052380D01*
X110918571Y-101195238D01*
X110823333Y-101290476D01*
X110728095Y-101338095D01*
G04 #@! TO.C,U2*
X119888095Y-83907380D02*
X119888095Y-84716904D01*
X119935714Y-84812142D01*
X119983333Y-84859761D01*
X120078571Y-84907380D01*
X120269047Y-84907380D01*
X120364285Y-84859761D01*
X120411904Y-84812142D01*
X120459523Y-84716904D01*
X120459523Y-83907380D01*
X120888095Y-84002619D02*
X120935714Y-83955000D01*
X121030952Y-83907380D01*
X121269047Y-83907380D01*
X121364285Y-83955000D01*
X121411904Y-84002619D01*
X121459523Y-84097857D01*
X121459523Y-84193095D01*
X121411904Y-84335952D01*
X120840476Y-84907380D01*
X121459523Y-84907380D01*
G04 #@! TO.C,C4*
X113498333Y-97987142D02*
X113450714Y-98034761D01*
X113307857Y-98082380D01*
X113212619Y-98082380D01*
X113069761Y-98034761D01*
X112974523Y-97939523D01*
X112926904Y-97844285D01*
X112879285Y-97653809D01*
X112879285Y-97510952D01*
X112926904Y-97320476D01*
X112974523Y-97225238D01*
X113069761Y-97130000D01*
X113212619Y-97082380D01*
X113307857Y-97082380D01*
X113450714Y-97130000D01*
X113498333Y-97177619D01*
X114355476Y-97415714D02*
X114355476Y-98082380D01*
X114117380Y-97034761D02*
X113879285Y-97749047D01*
X114498333Y-97749047D01*
G04 #@! TD*
M02*
