M48
;DRILL file {KiCad (5.0.0)} date 03/11/19 23:44:26
;FORMAT={2:4/ absolute / inch / suppress leading zeros}
FMAT,2
INCH,TZ
T1C0.0157
T2C0.0315
T3C0.0394
T4C0.0394
%
G90
G05
M72
T1
X39998Y-35248
X39998Y-37498
X40750Y-37500
X42750Y-38500
X43502Y-35002
X44250Y-33250
T2
X42500Y-40000
X42500Y-41000
X42500Y-42000
X42500Y-43000
X42500Y-44000
X42500Y-45000
X42500Y-46000
X42500Y-47000
X42500Y-48000
X42500Y-49000
X45500Y-40000
X45500Y-41000
X45500Y-42000
X45500Y-43000
X45500Y-44000
X45500Y-45000
X45500Y-46000
X45500Y-47000
X45500Y-48000
X45500Y-49000
T3
X45750Y-36750
X45750Y-38522
X48309Y-36750
X48309Y-38522
X40000Y-40000
X40000Y-41000
X40000Y-42000
X40000Y-43000
X40000Y-44000
X40000Y-45000
X40000Y-46000
X40000Y-47000
X40000Y-48000
X40000Y-49000
X48000Y-40000
X48000Y-41000
X48000Y-42000
X48000Y-43000
X48000Y-44000
X48000Y-45000
X48000Y-46000
X48000Y-47000
X48000Y-48000
X48000Y-49000
T4
X40884Y-35000
X42616Y-35000
T0
M30
