G04 #@! TF.GenerationSoftware,KiCad,Pcbnew,(5.0.0)*
G04 #@! TF.CreationDate,2019-03-11T23:44:19-04:00*
G04 #@! TF.ProjectId,1-Hour-Board,312D486F75722D426F6172642E6B6963,rev?*
G04 #@! TF.SameCoordinates,Original*
G04 #@! TF.FileFunction,Copper,L2,Bot,Signal*
G04 #@! TF.FilePolarity,Positive*
%FSLAX46Y46*%
G04 Gerber Fmt 4.6, Leading zero omitted, Abs format (unit mm)*
G04 Created by KiCad (PCBNEW (5.0.0)) date 03/11/19 23:44:19*
%MOMM*%
%LPD*%
G01*
G04 APERTURE LIST*
G04 #@! TA.AperFunction,ComponentPad*
%ADD10C,1.700000*%
G04 #@! TD*
G04 #@! TA.AperFunction,ComponentPad*
%ADD11R,1.700000X1.700000*%
G04 #@! TD*
G04 #@! TA.AperFunction,ComponentPad*
%ADD12O,1.700000X1.700000*%
G04 #@! TD*
G04 #@! TA.AperFunction,ComponentPad*
%ADD13R,1.600000X1.600000*%
G04 #@! TD*
G04 #@! TA.AperFunction,ComponentPad*
%ADD14O,1.600000X1.600000*%
G04 #@! TD*
G04 #@! TA.AperFunction,ViaPad*
%ADD15C,0.800000*%
G04 #@! TD*
G04 #@! TA.AperFunction,Conductor*
%ADD16C,0.508000*%
G04 #@! TD*
G04 #@! TA.AperFunction,Conductor*
%ADD17C,0.254000*%
G04 #@! TD*
G04 APERTURE END LIST*
D10*
G04 #@! TO.P,SW1,1*
G04 #@! TO.N,GND*
X116205000Y-93345000D03*
X122705000Y-93345000D03*
G04 #@! TO.P,SW1,2*
G04 #@! TO.N,/~RST*
X116205000Y-97845000D03*
X122705000Y-97845000D03*
G04 #@! TD*
D11*
G04 #@! TO.P,J1,1*
G04 #@! TO.N,+3V3*
X101600000Y-101600000D03*
D12*
G04 #@! TO.P,J1,2*
G04 #@! TO.N,/P2*
X101600000Y-104140000D03*
G04 #@! TO.P,J1,3*
G04 #@! TO.N,/P3*
X101600000Y-106680000D03*
G04 #@! TO.P,J1,4*
G04 #@! TO.N,/P4*
X101600000Y-109220000D03*
G04 #@! TO.P,J1,5*
G04 #@! TO.N,/P5*
X101600000Y-111760000D03*
G04 #@! TO.P,J1,6*
G04 #@! TO.N,/P6*
X101600000Y-114300000D03*
G04 #@! TO.P,J1,7*
G04 #@! TO.N,/P7*
X101600000Y-116840000D03*
G04 #@! TO.P,J1,8*
G04 #@! TO.N,/P8*
X101600000Y-119380000D03*
G04 #@! TO.P,J1,9*
G04 #@! TO.N,/P9*
X101600000Y-121920000D03*
G04 #@! TO.P,J1,10*
G04 #@! TO.N,/P10*
X101600000Y-124460000D03*
G04 #@! TD*
G04 #@! TO.P,J2,10*
G04 #@! TO.N,GND*
X121920000Y-101600000D03*
G04 #@! TO.P,J2,9*
G04 #@! TO.N,/P19*
X121920000Y-104140000D03*
G04 #@! TO.P,J2,8*
G04 #@! TO.N,/P18*
X121920000Y-106680000D03*
G04 #@! TO.P,J2,7*
G04 #@! TO.N,/TEST*
X121920000Y-109220000D03*
G04 #@! TO.P,J2,6*
G04 #@! TO.N,/~RST*
X121920000Y-111760000D03*
G04 #@! TO.P,J2,5*
G04 #@! TO.N,/P15*
X121920000Y-114300000D03*
G04 #@! TO.P,J2,4*
G04 #@! TO.N,/P14*
X121920000Y-116840000D03*
G04 #@! TO.P,J2,3*
G04 #@! TO.N,/P13*
X121920000Y-119380000D03*
G04 #@! TO.P,J2,2*
G04 #@! TO.N,/P12*
X121920000Y-121920000D03*
D11*
G04 #@! TO.P,J2,1*
G04 #@! TO.N,/P11*
X121920000Y-124460000D03*
G04 #@! TD*
D13*
G04 #@! TO.P,U1,1*
G04 #@! TO.N,+3V3*
X107950000Y-101600000D03*
D14*
G04 #@! TO.P,U1,11*
G04 #@! TO.N,/P11*
X115570000Y-124460000D03*
G04 #@! TO.P,U1,2*
G04 #@! TO.N,/P2*
X107950000Y-104140000D03*
G04 #@! TO.P,U1,12*
G04 #@! TO.N,/P12*
X115570000Y-121920000D03*
G04 #@! TO.P,U1,3*
G04 #@! TO.N,/P3*
X107950000Y-106680000D03*
G04 #@! TO.P,U1,13*
G04 #@! TO.N,/P13*
X115570000Y-119380000D03*
G04 #@! TO.P,U1,4*
G04 #@! TO.N,/P4*
X107950000Y-109220000D03*
G04 #@! TO.P,U1,14*
G04 #@! TO.N,/P14*
X115570000Y-116840000D03*
G04 #@! TO.P,U1,5*
G04 #@! TO.N,/P5*
X107950000Y-111760000D03*
G04 #@! TO.P,U1,15*
G04 #@! TO.N,/P15*
X115570000Y-114300000D03*
G04 #@! TO.P,U1,6*
G04 #@! TO.N,/P6*
X107950000Y-114300000D03*
G04 #@! TO.P,U1,16*
G04 #@! TO.N,/~RST*
X115570000Y-111760000D03*
G04 #@! TO.P,U1,7*
G04 #@! TO.N,/P7*
X107950000Y-116840000D03*
G04 #@! TO.P,U1,17*
G04 #@! TO.N,/TEST*
X115570000Y-109220000D03*
G04 #@! TO.P,U1,8*
G04 #@! TO.N,/P8*
X107950000Y-119380000D03*
G04 #@! TO.P,U1,18*
G04 #@! TO.N,/P18*
X115570000Y-106680000D03*
G04 #@! TO.P,U1,9*
G04 #@! TO.N,/P9*
X107950000Y-121920000D03*
G04 #@! TO.P,U1,19*
G04 #@! TO.N,/P19*
X115570000Y-104140000D03*
G04 #@! TO.P,U1,10*
G04 #@! TO.N,/P10*
X107950000Y-124460000D03*
G04 #@! TO.P,U1,20*
G04 #@! TO.N,GND*
X115570000Y-101600000D03*
G04 #@! TD*
D15*
G04 #@! TO.N,GND*
X101595000Y-95245000D03*
X103505000Y-95250000D03*
X101595000Y-89530000D03*
X108585000Y-97790000D03*
X110495000Y-88905000D03*
X112395000Y-84455000D03*
G04 #@! TD*
D16*
G04 #@! TO.N,+3V3*
X101600000Y-101600000D02*
X107950000Y-101600000D01*
G04 #@! TO.N,GND*
X114300000Y-84455000D02*
X112395000Y-84455000D01*
G04 #@! TD*
D17*
G04 #@! TO.N,GND*
G36*
X123063000Y-91895178D02*
X122933721Y-91848282D01*
X122343542Y-91874685D01*
X121920920Y-92049741D01*
X121840647Y-92301042D01*
X122705000Y-93165395D01*
X122719143Y-93151253D01*
X122898748Y-93330858D01*
X122884605Y-93345000D01*
X122898748Y-93359143D01*
X122719143Y-93538748D01*
X122705000Y-93524605D01*
X121840647Y-94388958D01*
X121920920Y-94640259D01*
X122476279Y-94841718D01*
X123063000Y-94815470D01*
X123063000Y-96385936D01*
X123000385Y-96360000D01*
X122409615Y-96360000D01*
X121863815Y-96586078D01*
X121446078Y-97003815D01*
X121220000Y-97549615D01*
X121220000Y-98140385D01*
X121446078Y-98686185D01*
X121863815Y-99103922D01*
X122409615Y-99330000D01*
X123000385Y-99330000D01*
X123063000Y-99304064D01*
X123063000Y-100691914D01*
X122801358Y-100404817D01*
X122276892Y-100158514D01*
X122047000Y-100279181D01*
X122047000Y-101473000D01*
X122067000Y-101473000D01*
X122067000Y-101727000D01*
X122047000Y-101727000D01*
X122047000Y-101747000D01*
X121793000Y-101747000D01*
X121793000Y-101727000D01*
X120599845Y-101727000D01*
X120478524Y-101956890D01*
X120648355Y-102366924D01*
X121038642Y-102795183D01*
X121168478Y-102856157D01*
X120849375Y-103069375D01*
X120521161Y-103560582D01*
X120405908Y-104140000D01*
X120521161Y-104719418D01*
X120849375Y-105210625D01*
X121147761Y-105410000D01*
X120849375Y-105609375D01*
X120521161Y-106100582D01*
X120405908Y-106680000D01*
X120521161Y-107259418D01*
X120849375Y-107750625D01*
X121147761Y-107950000D01*
X120849375Y-108149375D01*
X120521161Y-108640582D01*
X120405908Y-109220000D01*
X120521161Y-109799418D01*
X120849375Y-110290625D01*
X121147761Y-110490000D01*
X120849375Y-110689375D01*
X120521161Y-111180582D01*
X120405908Y-111760000D01*
X120521161Y-112339418D01*
X120849375Y-112830625D01*
X121147761Y-113030000D01*
X120849375Y-113229375D01*
X120521161Y-113720582D01*
X120405908Y-114300000D01*
X120521161Y-114879418D01*
X120849375Y-115370625D01*
X121147761Y-115570000D01*
X120849375Y-115769375D01*
X120521161Y-116260582D01*
X120405908Y-116840000D01*
X120521161Y-117419418D01*
X120849375Y-117910625D01*
X121147761Y-118110000D01*
X120849375Y-118309375D01*
X120521161Y-118800582D01*
X120405908Y-119380000D01*
X120521161Y-119959418D01*
X120849375Y-120450625D01*
X121147761Y-120650000D01*
X120849375Y-120849375D01*
X120521161Y-121340582D01*
X120405908Y-121920000D01*
X120521161Y-122499418D01*
X120849375Y-122990625D01*
X120867619Y-123002816D01*
X120822235Y-123011843D01*
X120612191Y-123152191D01*
X120471843Y-123362235D01*
X120422560Y-123610000D01*
X120422560Y-125310000D01*
X120471843Y-125557765D01*
X120502068Y-125603000D01*
X116442310Y-125603000D01*
X116604577Y-125494577D01*
X116921740Y-125019909D01*
X117033113Y-124460000D01*
X116921740Y-123900091D01*
X116604577Y-123425423D01*
X116252242Y-123190000D01*
X116604577Y-122954577D01*
X116921740Y-122479909D01*
X117033113Y-121920000D01*
X116921740Y-121360091D01*
X116604577Y-120885423D01*
X116252242Y-120650000D01*
X116604577Y-120414577D01*
X116921740Y-119939909D01*
X117033113Y-119380000D01*
X116921740Y-118820091D01*
X116604577Y-118345423D01*
X116252242Y-118110000D01*
X116604577Y-117874577D01*
X116921740Y-117399909D01*
X117033113Y-116840000D01*
X116921740Y-116280091D01*
X116604577Y-115805423D01*
X116252242Y-115570000D01*
X116604577Y-115334577D01*
X116921740Y-114859909D01*
X117033113Y-114300000D01*
X116921740Y-113740091D01*
X116604577Y-113265423D01*
X116252242Y-113030000D01*
X116604577Y-112794577D01*
X116921740Y-112319909D01*
X117033113Y-111760000D01*
X116921740Y-111200091D01*
X116604577Y-110725423D01*
X116252242Y-110490000D01*
X116604577Y-110254577D01*
X116921740Y-109779909D01*
X117033113Y-109220000D01*
X116921740Y-108660091D01*
X116604577Y-108185423D01*
X116252242Y-107950000D01*
X116604577Y-107714577D01*
X116921740Y-107239909D01*
X117033113Y-106680000D01*
X116921740Y-106120091D01*
X116604577Y-105645423D01*
X116252242Y-105410000D01*
X116604577Y-105174577D01*
X116921740Y-104699909D01*
X117033113Y-104140000D01*
X116921740Y-103580091D01*
X116604577Y-103105423D01*
X116220892Y-102849053D01*
X116425134Y-102752389D01*
X116801041Y-102337423D01*
X116961904Y-101949039D01*
X116839915Y-101727000D01*
X115697000Y-101727000D01*
X115697000Y-101747000D01*
X115443000Y-101747000D01*
X115443000Y-101727000D01*
X114300085Y-101727000D01*
X114178096Y-101949039D01*
X114338959Y-102337423D01*
X114714866Y-102752389D01*
X114919108Y-102849053D01*
X114535423Y-103105423D01*
X114218260Y-103580091D01*
X114106887Y-104140000D01*
X114218260Y-104699909D01*
X114535423Y-105174577D01*
X114887758Y-105410000D01*
X114535423Y-105645423D01*
X114218260Y-106120091D01*
X114106887Y-106680000D01*
X114218260Y-107239909D01*
X114535423Y-107714577D01*
X114887758Y-107950000D01*
X114535423Y-108185423D01*
X114218260Y-108660091D01*
X114106887Y-109220000D01*
X114218260Y-109779909D01*
X114535423Y-110254577D01*
X114887758Y-110490000D01*
X114535423Y-110725423D01*
X114218260Y-111200091D01*
X114106887Y-111760000D01*
X114218260Y-112319909D01*
X114535423Y-112794577D01*
X114887758Y-113030000D01*
X114535423Y-113265423D01*
X114218260Y-113740091D01*
X114106887Y-114300000D01*
X114218260Y-114859909D01*
X114535423Y-115334577D01*
X114887758Y-115570000D01*
X114535423Y-115805423D01*
X114218260Y-116280091D01*
X114106887Y-116840000D01*
X114218260Y-117399909D01*
X114535423Y-117874577D01*
X114887758Y-118110000D01*
X114535423Y-118345423D01*
X114218260Y-118820091D01*
X114106887Y-119380000D01*
X114218260Y-119939909D01*
X114535423Y-120414577D01*
X114887758Y-120650000D01*
X114535423Y-120885423D01*
X114218260Y-121360091D01*
X114106887Y-121920000D01*
X114218260Y-122479909D01*
X114535423Y-122954577D01*
X114887758Y-123190000D01*
X114535423Y-123425423D01*
X114218260Y-123900091D01*
X114106887Y-124460000D01*
X114218260Y-125019909D01*
X114535423Y-125494577D01*
X114697690Y-125603000D01*
X108822310Y-125603000D01*
X108984577Y-125494577D01*
X109301740Y-125019909D01*
X109413113Y-124460000D01*
X109301740Y-123900091D01*
X108984577Y-123425423D01*
X108632242Y-123190000D01*
X108984577Y-122954577D01*
X109301740Y-122479909D01*
X109413113Y-121920000D01*
X109301740Y-121360091D01*
X108984577Y-120885423D01*
X108632242Y-120650000D01*
X108984577Y-120414577D01*
X109301740Y-119939909D01*
X109413113Y-119380000D01*
X109301740Y-118820091D01*
X108984577Y-118345423D01*
X108632242Y-118110000D01*
X108984577Y-117874577D01*
X109301740Y-117399909D01*
X109413113Y-116840000D01*
X109301740Y-116280091D01*
X108984577Y-115805423D01*
X108632242Y-115570000D01*
X108984577Y-115334577D01*
X109301740Y-114859909D01*
X109413113Y-114300000D01*
X109301740Y-113740091D01*
X108984577Y-113265423D01*
X108632242Y-113030000D01*
X108984577Y-112794577D01*
X109301740Y-112319909D01*
X109413113Y-111760000D01*
X109301740Y-111200091D01*
X108984577Y-110725423D01*
X108632242Y-110490000D01*
X108984577Y-110254577D01*
X109301740Y-109779909D01*
X109413113Y-109220000D01*
X109301740Y-108660091D01*
X108984577Y-108185423D01*
X108632242Y-107950000D01*
X108984577Y-107714577D01*
X109301740Y-107239909D01*
X109413113Y-106680000D01*
X109301740Y-106120091D01*
X108984577Y-105645423D01*
X108632242Y-105410000D01*
X108984577Y-105174577D01*
X109301740Y-104699909D01*
X109413113Y-104140000D01*
X109301740Y-103580091D01*
X108984577Y-103105423D01*
X108863894Y-103024785D01*
X108997765Y-102998157D01*
X109207809Y-102857809D01*
X109348157Y-102647765D01*
X109397440Y-102400000D01*
X109397440Y-101250961D01*
X114178096Y-101250961D01*
X114300085Y-101473000D01*
X115443000Y-101473000D01*
X115443000Y-100329371D01*
X115697000Y-100329371D01*
X115697000Y-101473000D01*
X116839915Y-101473000D01*
X116961904Y-101250961D01*
X116958653Y-101243110D01*
X120478524Y-101243110D01*
X120599845Y-101473000D01*
X121793000Y-101473000D01*
X121793000Y-100279181D01*
X121563108Y-100158514D01*
X121038642Y-100404817D01*
X120648355Y-100833076D01*
X120478524Y-101243110D01*
X116958653Y-101243110D01*
X116801041Y-100862577D01*
X116425134Y-100447611D01*
X115919041Y-100208086D01*
X115697000Y-100329371D01*
X115443000Y-100329371D01*
X115220959Y-100208086D01*
X114714866Y-100447611D01*
X114338959Y-100862577D01*
X114178096Y-101250961D01*
X109397440Y-101250961D01*
X109397440Y-100800000D01*
X109348157Y-100552235D01*
X109207809Y-100342191D01*
X108997765Y-100201843D01*
X108750000Y-100152560D01*
X107150000Y-100152560D01*
X106902235Y-100201843D01*
X106692191Y-100342191D01*
X106551843Y-100552235D01*
X106520263Y-100711000D01*
X103089682Y-100711000D01*
X103048157Y-100502235D01*
X102907809Y-100292191D01*
X102697765Y-100151843D01*
X102450000Y-100102560D01*
X100750000Y-100102560D01*
X100502235Y-100151843D01*
X100457000Y-100182068D01*
X100457000Y-97549615D01*
X114720000Y-97549615D01*
X114720000Y-98140385D01*
X114946078Y-98686185D01*
X115363815Y-99103922D01*
X115909615Y-99330000D01*
X116500385Y-99330000D01*
X117046185Y-99103922D01*
X117463922Y-98686185D01*
X117690000Y-98140385D01*
X117690000Y-97549615D01*
X117463922Y-97003815D01*
X117046185Y-96586078D01*
X116500385Y-96360000D01*
X115909615Y-96360000D01*
X115363815Y-96586078D01*
X114946078Y-97003815D01*
X114720000Y-97549615D01*
X100457000Y-97549615D01*
X100457000Y-94388958D01*
X115340647Y-94388958D01*
X115420920Y-94640259D01*
X115976279Y-94841718D01*
X116566458Y-94815315D01*
X116989080Y-94640259D01*
X117069353Y-94388958D01*
X116205000Y-93524605D01*
X115340647Y-94388958D01*
X100457000Y-94388958D01*
X100457000Y-93116279D01*
X114708282Y-93116279D01*
X114734685Y-93706458D01*
X114909741Y-94129080D01*
X115161042Y-94209353D01*
X116025395Y-93345000D01*
X116384605Y-93345000D01*
X117248958Y-94209353D01*
X117500259Y-94129080D01*
X117701718Y-93573721D01*
X117681254Y-93116279D01*
X121208282Y-93116279D01*
X121234685Y-93706458D01*
X121409741Y-94129080D01*
X121661042Y-94209353D01*
X122525395Y-93345000D01*
X121661042Y-92480647D01*
X121409741Y-92560920D01*
X121208282Y-93116279D01*
X117681254Y-93116279D01*
X117675315Y-92983542D01*
X117500259Y-92560920D01*
X117248958Y-92480647D01*
X116384605Y-93345000D01*
X116025395Y-93345000D01*
X115161042Y-92480647D01*
X114909741Y-92560920D01*
X114708282Y-93116279D01*
X100457000Y-93116279D01*
X100457000Y-92301042D01*
X115340647Y-92301042D01*
X116205000Y-93165395D01*
X117069353Y-92301042D01*
X116989080Y-92049741D01*
X116433721Y-91848282D01*
X115843542Y-91874685D01*
X115420920Y-92049741D01*
X115340647Y-92301042D01*
X100457000Y-92301042D01*
X100457000Y-88674234D01*
X102710000Y-88674234D01*
X102710000Y-89125766D01*
X102882793Y-89542926D01*
X103202074Y-89862207D01*
X103619234Y-90035000D01*
X104070766Y-90035000D01*
X104487926Y-89862207D01*
X104807207Y-89542926D01*
X104980000Y-89125766D01*
X104980000Y-88674234D01*
X107110000Y-88674234D01*
X107110000Y-89125766D01*
X107282793Y-89542926D01*
X107602074Y-89862207D01*
X108019234Y-90035000D01*
X108470766Y-90035000D01*
X108887926Y-89862207D01*
X109207207Y-89542926D01*
X109380000Y-89125766D01*
X109380000Y-88674234D01*
X109207207Y-88257074D01*
X108887926Y-87937793D01*
X108470766Y-87765000D01*
X108019234Y-87765000D01*
X107602074Y-87937793D01*
X107282793Y-88257074D01*
X107110000Y-88674234D01*
X104980000Y-88674234D01*
X104807207Y-88257074D01*
X104487926Y-87937793D01*
X104070766Y-87765000D01*
X103619234Y-87765000D01*
X103202074Y-87937793D01*
X102882793Y-88257074D01*
X102710000Y-88674234D01*
X100457000Y-88674234D01*
X100457000Y-83947000D01*
X123063000Y-83947000D01*
X123063000Y-91895178D01*
X123063000Y-91895178D01*
G37*
X123063000Y-91895178D02*
X122933721Y-91848282D01*
X122343542Y-91874685D01*
X121920920Y-92049741D01*
X121840647Y-92301042D01*
X122705000Y-93165395D01*
X122719143Y-93151253D01*
X122898748Y-93330858D01*
X122884605Y-93345000D01*
X122898748Y-93359143D01*
X122719143Y-93538748D01*
X122705000Y-93524605D01*
X121840647Y-94388958D01*
X121920920Y-94640259D01*
X122476279Y-94841718D01*
X123063000Y-94815470D01*
X123063000Y-96385936D01*
X123000385Y-96360000D01*
X122409615Y-96360000D01*
X121863815Y-96586078D01*
X121446078Y-97003815D01*
X121220000Y-97549615D01*
X121220000Y-98140385D01*
X121446078Y-98686185D01*
X121863815Y-99103922D01*
X122409615Y-99330000D01*
X123000385Y-99330000D01*
X123063000Y-99304064D01*
X123063000Y-100691914D01*
X122801358Y-100404817D01*
X122276892Y-100158514D01*
X122047000Y-100279181D01*
X122047000Y-101473000D01*
X122067000Y-101473000D01*
X122067000Y-101727000D01*
X122047000Y-101727000D01*
X122047000Y-101747000D01*
X121793000Y-101747000D01*
X121793000Y-101727000D01*
X120599845Y-101727000D01*
X120478524Y-101956890D01*
X120648355Y-102366924D01*
X121038642Y-102795183D01*
X121168478Y-102856157D01*
X120849375Y-103069375D01*
X120521161Y-103560582D01*
X120405908Y-104140000D01*
X120521161Y-104719418D01*
X120849375Y-105210625D01*
X121147761Y-105410000D01*
X120849375Y-105609375D01*
X120521161Y-106100582D01*
X120405908Y-106680000D01*
X120521161Y-107259418D01*
X120849375Y-107750625D01*
X121147761Y-107950000D01*
X120849375Y-108149375D01*
X120521161Y-108640582D01*
X120405908Y-109220000D01*
X120521161Y-109799418D01*
X120849375Y-110290625D01*
X121147761Y-110490000D01*
X120849375Y-110689375D01*
X120521161Y-111180582D01*
X120405908Y-111760000D01*
X120521161Y-112339418D01*
X120849375Y-112830625D01*
X121147761Y-113030000D01*
X120849375Y-113229375D01*
X120521161Y-113720582D01*
X120405908Y-114300000D01*
X120521161Y-114879418D01*
X120849375Y-115370625D01*
X121147761Y-115570000D01*
X120849375Y-115769375D01*
X120521161Y-116260582D01*
X120405908Y-116840000D01*
X120521161Y-117419418D01*
X120849375Y-117910625D01*
X121147761Y-118110000D01*
X120849375Y-118309375D01*
X120521161Y-118800582D01*
X120405908Y-119380000D01*
X120521161Y-119959418D01*
X120849375Y-120450625D01*
X121147761Y-120650000D01*
X120849375Y-120849375D01*
X120521161Y-121340582D01*
X120405908Y-121920000D01*
X120521161Y-122499418D01*
X120849375Y-122990625D01*
X120867619Y-123002816D01*
X120822235Y-123011843D01*
X120612191Y-123152191D01*
X120471843Y-123362235D01*
X120422560Y-123610000D01*
X120422560Y-125310000D01*
X120471843Y-125557765D01*
X120502068Y-125603000D01*
X116442310Y-125603000D01*
X116604577Y-125494577D01*
X116921740Y-125019909D01*
X117033113Y-124460000D01*
X116921740Y-123900091D01*
X116604577Y-123425423D01*
X116252242Y-123190000D01*
X116604577Y-122954577D01*
X116921740Y-122479909D01*
X117033113Y-121920000D01*
X116921740Y-121360091D01*
X116604577Y-120885423D01*
X116252242Y-120650000D01*
X116604577Y-120414577D01*
X116921740Y-119939909D01*
X117033113Y-119380000D01*
X116921740Y-118820091D01*
X116604577Y-118345423D01*
X116252242Y-118110000D01*
X116604577Y-117874577D01*
X116921740Y-117399909D01*
X117033113Y-116840000D01*
X116921740Y-116280091D01*
X116604577Y-115805423D01*
X116252242Y-115570000D01*
X116604577Y-115334577D01*
X116921740Y-114859909D01*
X117033113Y-114300000D01*
X116921740Y-113740091D01*
X116604577Y-113265423D01*
X116252242Y-113030000D01*
X116604577Y-112794577D01*
X116921740Y-112319909D01*
X117033113Y-111760000D01*
X116921740Y-111200091D01*
X116604577Y-110725423D01*
X116252242Y-110490000D01*
X116604577Y-110254577D01*
X116921740Y-109779909D01*
X117033113Y-109220000D01*
X116921740Y-108660091D01*
X116604577Y-108185423D01*
X116252242Y-107950000D01*
X116604577Y-107714577D01*
X116921740Y-107239909D01*
X117033113Y-106680000D01*
X116921740Y-106120091D01*
X116604577Y-105645423D01*
X116252242Y-105410000D01*
X116604577Y-105174577D01*
X116921740Y-104699909D01*
X117033113Y-104140000D01*
X116921740Y-103580091D01*
X116604577Y-103105423D01*
X116220892Y-102849053D01*
X116425134Y-102752389D01*
X116801041Y-102337423D01*
X116961904Y-101949039D01*
X116839915Y-101727000D01*
X115697000Y-101727000D01*
X115697000Y-101747000D01*
X115443000Y-101747000D01*
X115443000Y-101727000D01*
X114300085Y-101727000D01*
X114178096Y-101949039D01*
X114338959Y-102337423D01*
X114714866Y-102752389D01*
X114919108Y-102849053D01*
X114535423Y-103105423D01*
X114218260Y-103580091D01*
X114106887Y-104140000D01*
X114218260Y-104699909D01*
X114535423Y-105174577D01*
X114887758Y-105410000D01*
X114535423Y-105645423D01*
X114218260Y-106120091D01*
X114106887Y-106680000D01*
X114218260Y-107239909D01*
X114535423Y-107714577D01*
X114887758Y-107950000D01*
X114535423Y-108185423D01*
X114218260Y-108660091D01*
X114106887Y-109220000D01*
X114218260Y-109779909D01*
X114535423Y-110254577D01*
X114887758Y-110490000D01*
X114535423Y-110725423D01*
X114218260Y-111200091D01*
X114106887Y-111760000D01*
X114218260Y-112319909D01*
X114535423Y-112794577D01*
X114887758Y-113030000D01*
X114535423Y-113265423D01*
X114218260Y-113740091D01*
X114106887Y-114300000D01*
X114218260Y-114859909D01*
X114535423Y-115334577D01*
X114887758Y-115570000D01*
X114535423Y-115805423D01*
X114218260Y-116280091D01*
X114106887Y-116840000D01*
X114218260Y-117399909D01*
X114535423Y-117874577D01*
X114887758Y-118110000D01*
X114535423Y-118345423D01*
X114218260Y-118820091D01*
X114106887Y-119380000D01*
X114218260Y-119939909D01*
X114535423Y-120414577D01*
X114887758Y-120650000D01*
X114535423Y-120885423D01*
X114218260Y-121360091D01*
X114106887Y-121920000D01*
X114218260Y-122479909D01*
X114535423Y-122954577D01*
X114887758Y-123190000D01*
X114535423Y-123425423D01*
X114218260Y-123900091D01*
X114106887Y-124460000D01*
X114218260Y-125019909D01*
X114535423Y-125494577D01*
X114697690Y-125603000D01*
X108822310Y-125603000D01*
X108984577Y-125494577D01*
X109301740Y-125019909D01*
X109413113Y-124460000D01*
X109301740Y-123900091D01*
X108984577Y-123425423D01*
X108632242Y-123190000D01*
X108984577Y-122954577D01*
X109301740Y-122479909D01*
X109413113Y-121920000D01*
X109301740Y-121360091D01*
X108984577Y-120885423D01*
X108632242Y-120650000D01*
X108984577Y-120414577D01*
X109301740Y-119939909D01*
X109413113Y-119380000D01*
X109301740Y-118820091D01*
X108984577Y-118345423D01*
X108632242Y-118110000D01*
X108984577Y-117874577D01*
X109301740Y-117399909D01*
X109413113Y-116840000D01*
X109301740Y-116280091D01*
X108984577Y-115805423D01*
X108632242Y-115570000D01*
X108984577Y-115334577D01*
X109301740Y-114859909D01*
X109413113Y-114300000D01*
X109301740Y-113740091D01*
X108984577Y-113265423D01*
X108632242Y-113030000D01*
X108984577Y-112794577D01*
X109301740Y-112319909D01*
X109413113Y-111760000D01*
X109301740Y-111200091D01*
X108984577Y-110725423D01*
X108632242Y-110490000D01*
X108984577Y-110254577D01*
X109301740Y-109779909D01*
X109413113Y-109220000D01*
X109301740Y-108660091D01*
X108984577Y-108185423D01*
X108632242Y-107950000D01*
X108984577Y-107714577D01*
X109301740Y-107239909D01*
X109413113Y-106680000D01*
X109301740Y-106120091D01*
X108984577Y-105645423D01*
X108632242Y-105410000D01*
X108984577Y-105174577D01*
X109301740Y-104699909D01*
X109413113Y-104140000D01*
X109301740Y-103580091D01*
X108984577Y-103105423D01*
X108863894Y-103024785D01*
X108997765Y-102998157D01*
X109207809Y-102857809D01*
X109348157Y-102647765D01*
X109397440Y-102400000D01*
X109397440Y-101250961D01*
X114178096Y-101250961D01*
X114300085Y-101473000D01*
X115443000Y-101473000D01*
X115443000Y-100329371D01*
X115697000Y-100329371D01*
X115697000Y-101473000D01*
X116839915Y-101473000D01*
X116961904Y-101250961D01*
X116958653Y-101243110D01*
X120478524Y-101243110D01*
X120599845Y-101473000D01*
X121793000Y-101473000D01*
X121793000Y-100279181D01*
X121563108Y-100158514D01*
X121038642Y-100404817D01*
X120648355Y-100833076D01*
X120478524Y-101243110D01*
X116958653Y-101243110D01*
X116801041Y-100862577D01*
X116425134Y-100447611D01*
X115919041Y-100208086D01*
X115697000Y-100329371D01*
X115443000Y-100329371D01*
X115220959Y-100208086D01*
X114714866Y-100447611D01*
X114338959Y-100862577D01*
X114178096Y-101250961D01*
X109397440Y-101250961D01*
X109397440Y-100800000D01*
X109348157Y-100552235D01*
X109207809Y-100342191D01*
X108997765Y-100201843D01*
X108750000Y-100152560D01*
X107150000Y-100152560D01*
X106902235Y-100201843D01*
X106692191Y-100342191D01*
X106551843Y-100552235D01*
X106520263Y-100711000D01*
X103089682Y-100711000D01*
X103048157Y-100502235D01*
X102907809Y-100292191D01*
X102697765Y-100151843D01*
X102450000Y-100102560D01*
X100750000Y-100102560D01*
X100502235Y-100151843D01*
X100457000Y-100182068D01*
X100457000Y-97549615D01*
X114720000Y-97549615D01*
X114720000Y-98140385D01*
X114946078Y-98686185D01*
X115363815Y-99103922D01*
X115909615Y-99330000D01*
X116500385Y-99330000D01*
X117046185Y-99103922D01*
X117463922Y-98686185D01*
X117690000Y-98140385D01*
X117690000Y-97549615D01*
X117463922Y-97003815D01*
X117046185Y-96586078D01*
X116500385Y-96360000D01*
X115909615Y-96360000D01*
X115363815Y-96586078D01*
X114946078Y-97003815D01*
X114720000Y-97549615D01*
X100457000Y-97549615D01*
X100457000Y-94388958D01*
X115340647Y-94388958D01*
X115420920Y-94640259D01*
X115976279Y-94841718D01*
X116566458Y-94815315D01*
X116989080Y-94640259D01*
X117069353Y-94388958D01*
X116205000Y-93524605D01*
X115340647Y-94388958D01*
X100457000Y-94388958D01*
X100457000Y-93116279D01*
X114708282Y-93116279D01*
X114734685Y-93706458D01*
X114909741Y-94129080D01*
X115161042Y-94209353D01*
X116025395Y-93345000D01*
X116384605Y-93345000D01*
X117248958Y-94209353D01*
X117500259Y-94129080D01*
X117701718Y-93573721D01*
X117681254Y-93116279D01*
X121208282Y-93116279D01*
X121234685Y-93706458D01*
X121409741Y-94129080D01*
X121661042Y-94209353D01*
X122525395Y-93345000D01*
X121661042Y-92480647D01*
X121409741Y-92560920D01*
X121208282Y-93116279D01*
X117681254Y-93116279D01*
X117675315Y-92983542D01*
X117500259Y-92560920D01*
X117248958Y-92480647D01*
X116384605Y-93345000D01*
X116025395Y-93345000D01*
X115161042Y-92480647D01*
X114909741Y-92560920D01*
X114708282Y-93116279D01*
X100457000Y-93116279D01*
X100457000Y-92301042D01*
X115340647Y-92301042D01*
X116205000Y-93165395D01*
X117069353Y-92301042D01*
X116989080Y-92049741D01*
X116433721Y-91848282D01*
X115843542Y-91874685D01*
X115420920Y-92049741D01*
X115340647Y-92301042D01*
X100457000Y-92301042D01*
X100457000Y-88674234D01*
X102710000Y-88674234D01*
X102710000Y-89125766D01*
X102882793Y-89542926D01*
X103202074Y-89862207D01*
X103619234Y-90035000D01*
X104070766Y-90035000D01*
X104487926Y-89862207D01*
X104807207Y-89542926D01*
X104980000Y-89125766D01*
X104980000Y-88674234D01*
X107110000Y-88674234D01*
X107110000Y-89125766D01*
X107282793Y-89542926D01*
X107602074Y-89862207D01*
X108019234Y-90035000D01*
X108470766Y-90035000D01*
X108887926Y-89862207D01*
X109207207Y-89542926D01*
X109380000Y-89125766D01*
X109380000Y-88674234D01*
X109207207Y-88257074D01*
X108887926Y-87937793D01*
X108470766Y-87765000D01*
X108019234Y-87765000D01*
X107602074Y-87937793D01*
X107282793Y-88257074D01*
X107110000Y-88674234D01*
X104980000Y-88674234D01*
X104807207Y-88257074D01*
X104487926Y-87937793D01*
X104070766Y-87765000D01*
X103619234Y-87765000D01*
X103202074Y-87937793D01*
X102882793Y-88257074D01*
X102710000Y-88674234D01*
X100457000Y-88674234D01*
X100457000Y-83947000D01*
X123063000Y-83947000D01*
X123063000Y-91895178D01*
G04 #@! TD*
M02*
