G04 #@! TF.GenerationSoftware,KiCad,Pcbnew,(5.0.0)*
G04 #@! TF.CreationDate,2019-03-11T20:11:46-04:00*
G04 #@! TF.ProjectId,DebugAdapter,4465627567416461707465722E6B6963,rev?*
G04 #@! TF.SameCoordinates,Original*
G04 #@! TF.FileFunction,Legend,Bot*
G04 #@! TF.FilePolarity,Positive*
%FSLAX46Y46*%
G04 Gerber Fmt 4.6, Leading zero omitted, Abs format (unit mm)*
G04 Created by KiCad (PCBNEW (5.0.0)) date 03/11/19 20:11:46*
%MOMM*%
%LPD*%
G01*
G04 APERTURE LIST*
%ADD10C,0.300000*%
G04 APERTURE END LIST*
D10*
X159467857Y-93383571D02*
X159467857Y-91883571D01*
X159467857Y-92597857D02*
X158610714Y-92597857D01*
X158610714Y-93383571D02*
X158610714Y-91883571D01*
X157967857Y-92955000D02*
X157253571Y-92955000D01*
X158110714Y-93383571D02*
X157610714Y-91883571D01*
X157110714Y-93383571D01*
X156610714Y-93383571D02*
X156610714Y-91883571D01*
X156039285Y-91883571D01*
X155896428Y-91955000D01*
X155825000Y-92026428D01*
X155753571Y-92169285D01*
X155753571Y-92383571D01*
X155825000Y-92526428D01*
X155896428Y-92597857D01*
X156039285Y-92669285D01*
X156610714Y-92669285D01*
X155110714Y-93383571D02*
X155110714Y-91883571D01*
X154539285Y-91883571D01*
X154396428Y-91955000D01*
X154325000Y-92026428D01*
X154253571Y-92169285D01*
X154253571Y-92383571D01*
X154325000Y-92526428D01*
X154396428Y-92597857D01*
X154539285Y-92669285D01*
X155110714Y-92669285D01*
X153325000Y-92669285D02*
X153325000Y-93383571D01*
X153825000Y-91883571D02*
X153325000Y-92669285D01*
X152825000Y-91883571D01*
X150467857Y-93383571D02*
X151182142Y-93383571D01*
X151182142Y-91883571D01*
X149967857Y-93383571D02*
X149967857Y-91883571D01*
X149467857Y-91883571D02*
X148610714Y-91883571D01*
X149039285Y-93383571D02*
X149039285Y-91883571D01*
X148325000Y-91883571D02*
X147467857Y-91883571D01*
X147896428Y-93383571D02*
X147896428Y-91883571D01*
X146253571Y-93383571D02*
X146967857Y-93383571D01*
X146967857Y-91883571D01*
X145753571Y-92597857D02*
X145253571Y-92597857D01*
X145039285Y-93383571D02*
X145753571Y-93383571D01*
X145753571Y-91883571D01*
X145039285Y-91883571D01*
X143253571Y-93383571D02*
X143253571Y-91883571D01*
X142682142Y-91883571D01*
X142539285Y-91955000D01*
X142467857Y-92026428D01*
X142396428Y-92169285D01*
X142396428Y-92383571D01*
X142467857Y-92526428D01*
X142539285Y-92597857D01*
X142682142Y-92669285D01*
X143253571Y-92669285D01*
X140896428Y-93240714D02*
X140967857Y-93312142D01*
X141182142Y-93383571D01*
X141325000Y-93383571D01*
X141539285Y-93312142D01*
X141682142Y-93169285D01*
X141753571Y-93026428D01*
X141825000Y-92740714D01*
X141825000Y-92526428D01*
X141753571Y-92240714D01*
X141682142Y-92097857D01*
X141539285Y-91955000D01*
X141325000Y-91883571D01*
X141182142Y-91883571D01*
X140967857Y-91955000D01*
X140896428Y-92026428D01*
X139753571Y-92597857D02*
X139539285Y-92669285D01*
X139467857Y-92740714D01*
X139396428Y-92883571D01*
X139396428Y-93097857D01*
X139467857Y-93240714D01*
X139539285Y-93312142D01*
X139682142Y-93383571D01*
X140253571Y-93383571D01*
X140253571Y-91883571D01*
X139753571Y-91883571D01*
X139610714Y-91955000D01*
X139539285Y-92026428D01*
X139467857Y-92169285D01*
X139467857Y-92312142D01*
X139539285Y-92455000D01*
X139610714Y-92526428D01*
X139753571Y-92597857D01*
X140253571Y-92597857D01*
X138825000Y-93312142D02*
X138610714Y-93383571D01*
X138253571Y-93383571D01*
X138110714Y-93312142D01*
X138039285Y-93240714D01*
X137967857Y-93097857D01*
X137967857Y-92955000D01*
X138039285Y-92812142D01*
X138110714Y-92740714D01*
X138253571Y-92669285D01*
X138539285Y-92597857D01*
X138682142Y-92526428D01*
X138753571Y-92455000D01*
X138825000Y-92312142D01*
X138825000Y-92169285D01*
X138753571Y-92026428D01*
X138682142Y-91955000D01*
X138539285Y-91883571D01*
X138182142Y-91883571D01*
X137967857Y-91955000D01*
X158682142Y-94505000D02*
X158825000Y-94433571D01*
X159039285Y-94433571D01*
X159253571Y-94505000D01*
X159396428Y-94647857D01*
X159467857Y-94790714D01*
X159539285Y-95076428D01*
X159539285Y-95290714D01*
X159467857Y-95576428D01*
X159396428Y-95719285D01*
X159253571Y-95862142D01*
X159039285Y-95933571D01*
X158896428Y-95933571D01*
X158682142Y-95862142D01*
X158610714Y-95790714D01*
X158610714Y-95290714D01*
X158896428Y-95290714D01*
X157967857Y-95933571D02*
X157967857Y-94433571D01*
X157467857Y-94433571D02*
X156610714Y-94433571D01*
X157039285Y-95933571D02*
X157039285Y-94433571D01*
X156110714Y-95933571D02*
X156110714Y-94433571D01*
X156110714Y-95147857D02*
X155253571Y-95147857D01*
X155253571Y-95933571D02*
X155253571Y-94433571D01*
X154539285Y-94433571D02*
X154539285Y-95647857D01*
X154467857Y-95790714D01*
X154396428Y-95862142D01*
X154253571Y-95933571D01*
X153967857Y-95933571D01*
X153825000Y-95862142D01*
X153753571Y-95790714D01*
X153682142Y-95647857D01*
X153682142Y-94433571D01*
X152467857Y-95147857D02*
X152253571Y-95219285D01*
X152182142Y-95290714D01*
X152110714Y-95433571D01*
X152110714Y-95647857D01*
X152182142Y-95790714D01*
X152253571Y-95862142D01*
X152396428Y-95933571D01*
X152967857Y-95933571D01*
X152967857Y-94433571D01*
X152467857Y-94433571D01*
X152325000Y-94505000D01*
X152253571Y-94576428D01*
X152182142Y-94719285D01*
X152182142Y-94862142D01*
X152253571Y-95005000D01*
X152325000Y-95076428D01*
X152467857Y-95147857D01*
X152967857Y-95147857D01*
X151467857Y-95790714D02*
X151396428Y-95862142D01*
X151467857Y-95933571D01*
X151539285Y-95862142D01*
X151467857Y-95790714D01*
X151467857Y-95933571D01*
X149896428Y-95790714D02*
X149967857Y-95862142D01*
X150182142Y-95933571D01*
X150325000Y-95933571D01*
X150539285Y-95862142D01*
X150682142Y-95719285D01*
X150753571Y-95576428D01*
X150825000Y-95290714D01*
X150825000Y-95076428D01*
X150753571Y-94790714D01*
X150682142Y-94647857D01*
X150539285Y-94505000D01*
X150325000Y-94433571D01*
X150182142Y-94433571D01*
X149967857Y-94505000D01*
X149896428Y-94576428D01*
X148967857Y-94433571D02*
X148682142Y-94433571D01*
X148539285Y-94505000D01*
X148396428Y-94647857D01*
X148325000Y-94933571D01*
X148325000Y-95433571D01*
X148396428Y-95719285D01*
X148539285Y-95862142D01*
X148682142Y-95933571D01*
X148967857Y-95933571D01*
X149110714Y-95862142D01*
X149253571Y-95719285D01*
X149325000Y-95433571D01*
X149325000Y-94933571D01*
X149253571Y-94647857D01*
X149110714Y-94505000D01*
X148967857Y-94433571D01*
X147682142Y-95933571D02*
X147682142Y-94433571D01*
X147182142Y-95505000D01*
X146682142Y-94433571D01*
X146682142Y-95933571D01*
X144896428Y-94362142D02*
X146182142Y-96290714D01*
X144396428Y-95933571D02*
X144396428Y-94433571D01*
X144396428Y-95147857D02*
X143539285Y-95147857D01*
X143539285Y-95933571D02*
X143539285Y-94433571D01*
X142896428Y-95505000D02*
X142182142Y-95505000D01*
X143039285Y-95933571D02*
X142539285Y-94433571D01*
X142039285Y-95933571D01*
X141539285Y-95933571D02*
X141539285Y-94433571D01*
X140967857Y-94433571D01*
X140825000Y-94505000D01*
X140753571Y-94576428D01*
X140682142Y-94719285D01*
X140682142Y-94933571D01*
X140753571Y-95076428D01*
X140825000Y-95147857D01*
X140967857Y-95219285D01*
X141539285Y-95219285D01*
X140039285Y-95933571D02*
X140039285Y-94433571D01*
X139467857Y-94433571D01*
X139325000Y-94505000D01*
X139253571Y-94576428D01*
X139182142Y-94719285D01*
X139182142Y-94933571D01*
X139253571Y-95076428D01*
X139325000Y-95147857D01*
X139467857Y-95219285D01*
X140039285Y-95219285D01*
X138253571Y-95219285D02*
X138253571Y-95933571D01*
X138753571Y-94433571D02*
X138253571Y-95219285D01*
X137753571Y-94433571D01*
X136539285Y-95933571D02*
X137253571Y-95933571D01*
X137253571Y-94433571D01*
X136039285Y-95933571D02*
X136039285Y-94433571D01*
X135539285Y-94433571D02*
X134682142Y-94433571D01*
X135110714Y-95933571D02*
X135110714Y-94433571D01*
X134396428Y-94433571D02*
X133539285Y-94433571D01*
X133967857Y-95933571D02*
X133967857Y-94433571D01*
X132325000Y-95933571D02*
X133039285Y-95933571D01*
X133039285Y-94433571D01*
X131825000Y-95147857D02*
X131325000Y-95147857D01*
X131110714Y-95933571D02*
X131825000Y-95933571D01*
X131825000Y-94433571D01*
X131110714Y-94433571D01*
X130467857Y-95933571D02*
X130467857Y-94433571D01*
X129896428Y-94433571D01*
X129753571Y-94505000D01*
X129682142Y-94576428D01*
X129610714Y-94719285D01*
X129610714Y-94933571D01*
X129682142Y-95076428D01*
X129753571Y-95147857D01*
X129896428Y-95219285D01*
X130467857Y-95219285D01*
X128110714Y-95790714D02*
X128182142Y-95862142D01*
X128396428Y-95933571D01*
X128539285Y-95933571D01*
X128753571Y-95862142D01*
X128896428Y-95719285D01*
X128967857Y-95576428D01*
X129039285Y-95290714D01*
X129039285Y-95076428D01*
X128967857Y-94790714D01*
X128896428Y-94647857D01*
X128753571Y-94505000D01*
X128539285Y-94433571D01*
X128396428Y-94433571D01*
X128182142Y-94505000D01*
X128110714Y-94576428D01*
X126967857Y-95147857D02*
X126753571Y-95219285D01*
X126682142Y-95290714D01*
X126610714Y-95433571D01*
X126610714Y-95647857D01*
X126682142Y-95790714D01*
X126753571Y-95862142D01*
X126896428Y-95933571D01*
X127467857Y-95933571D01*
X127467857Y-94433571D01*
X126967857Y-94433571D01*
X126825000Y-94505000D01*
X126753571Y-94576428D01*
X126682142Y-94719285D01*
X126682142Y-94862142D01*
X126753571Y-95005000D01*
X126825000Y-95076428D01*
X126967857Y-95147857D01*
X127467857Y-95147857D01*
X126039285Y-95862142D02*
X125825000Y-95933571D01*
X125467857Y-95933571D01*
X125325000Y-95862142D01*
X125253571Y-95790714D01*
X125182142Y-95647857D01*
X125182142Y-95505000D01*
X125253571Y-95362142D01*
X125325000Y-95290714D01*
X125467857Y-95219285D01*
X125753571Y-95147857D01*
X125896428Y-95076428D01*
X125967857Y-95005000D01*
X126039285Y-94862142D01*
X126039285Y-94719285D01*
X125967857Y-94576428D01*
X125896428Y-94505000D01*
X125753571Y-94433571D01*
X125396428Y-94433571D01*
X125182142Y-94505000D01*
X159423714Y-90674000D02*
X158709428Y-90674000D01*
X159566571Y-91102571D02*
X159066571Y-89602571D01*
X158566571Y-91102571D01*
X158066571Y-90959714D02*
X157995142Y-91031142D01*
X158066571Y-91102571D01*
X158138000Y-91031142D01*
X158066571Y-90959714D01*
X158066571Y-91102571D01*
X156209428Y-91102571D02*
X156209428Y-89602571D01*
X155352285Y-91102571D02*
X155995142Y-90245428D01*
X155352285Y-89602571D02*
X156209428Y-90459714D01*
X154423714Y-89602571D02*
X154138000Y-89602571D01*
X153995142Y-89674000D01*
X153852285Y-89816857D01*
X153780857Y-90102571D01*
X153780857Y-90602571D01*
X153852285Y-90888285D01*
X153995142Y-91031142D01*
X154138000Y-91102571D01*
X154423714Y-91102571D01*
X154566571Y-91031142D01*
X154709428Y-90888285D01*
X154780857Y-90602571D01*
X154780857Y-90102571D01*
X154709428Y-89816857D01*
X154566571Y-89674000D01*
X154423714Y-89602571D01*
X153280857Y-89602571D02*
X152923714Y-91102571D01*
X152638000Y-90031142D01*
X152352285Y-91102571D01*
X151995142Y-89602571D01*
X151495142Y-90674000D02*
X150780857Y-90674000D01*
X151638000Y-91102571D02*
X151138000Y-89602571D01*
X150638000Y-91102571D01*
X149423714Y-91102571D02*
X150138000Y-91102571D01*
X150138000Y-89602571D01*
X148066571Y-90959714D02*
X148138000Y-91031142D01*
X148352285Y-91102571D01*
X148495142Y-91102571D01*
X148709428Y-91031142D01*
X148852285Y-90888285D01*
X148923714Y-90745428D01*
X148995142Y-90459714D01*
X148995142Y-90245428D01*
X148923714Y-89959714D01*
X148852285Y-89816857D01*
X148709428Y-89674000D01*
X148495142Y-89602571D01*
X148352285Y-89602571D01*
X148138000Y-89674000D01*
X148066571Y-89745428D01*
X147566571Y-89602571D02*
X146566571Y-89602571D01*
X147566571Y-91102571D01*
X146566571Y-91102571D01*
X145709428Y-90388285D02*
X145709428Y-91102571D01*
X146209428Y-89602571D02*
X145709428Y-90388285D01*
X145209428Y-89602571D01*
X144709428Y-91102571D02*
X144709428Y-89602571D01*
X143852285Y-91102571D02*
X144495142Y-90245428D01*
X143852285Y-89602571D02*
X144709428Y-90459714D01*
X158451857Y-78143571D02*
X158451857Y-76643571D01*
X158094714Y-76643571D01*
X157880428Y-76715000D01*
X157737571Y-76857857D01*
X157666142Y-77000714D01*
X157594714Y-77286428D01*
X157594714Y-77500714D01*
X157666142Y-77786428D01*
X157737571Y-77929285D01*
X157880428Y-78072142D01*
X158094714Y-78143571D01*
X158451857Y-78143571D01*
X156951857Y-77357857D02*
X156451857Y-77357857D01*
X156237571Y-78143571D02*
X156951857Y-78143571D01*
X156951857Y-76643571D01*
X156237571Y-76643571D01*
X155094714Y-77357857D02*
X154880428Y-77429285D01*
X154809000Y-77500714D01*
X154737571Y-77643571D01*
X154737571Y-77857857D01*
X154809000Y-78000714D01*
X154880428Y-78072142D01*
X155023285Y-78143571D01*
X155594714Y-78143571D01*
X155594714Y-76643571D01*
X155094714Y-76643571D01*
X154951857Y-76715000D01*
X154880428Y-76786428D01*
X154809000Y-76929285D01*
X154809000Y-77072142D01*
X154880428Y-77215000D01*
X154951857Y-77286428D01*
X155094714Y-77357857D01*
X155594714Y-77357857D01*
X154094714Y-76643571D02*
X154094714Y-77857857D01*
X154023285Y-78000714D01*
X153951857Y-78072142D01*
X153809000Y-78143571D01*
X153523285Y-78143571D01*
X153380428Y-78072142D01*
X153309000Y-78000714D01*
X153237571Y-77857857D01*
X153237571Y-76643571D01*
X151737571Y-76715000D02*
X151880428Y-76643571D01*
X152094714Y-76643571D01*
X152309000Y-76715000D01*
X152451857Y-76857857D01*
X152523285Y-77000714D01*
X152594714Y-77286428D01*
X152594714Y-77500714D01*
X152523285Y-77786428D01*
X152451857Y-77929285D01*
X152309000Y-78072142D01*
X152094714Y-78143571D01*
X151951857Y-78143571D01*
X151737571Y-78072142D01*
X151666142Y-78000714D01*
X151666142Y-77500714D01*
X151951857Y-77500714D01*
X149951857Y-77715000D02*
X149237571Y-77715000D01*
X150094714Y-78143571D02*
X149594714Y-76643571D01*
X149094714Y-78143571D01*
X148594714Y-78143571D02*
X148594714Y-76643571D01*
X148237571Y-76643571D01*
X148023285Y-76715000D01*
X147880428Y-76857857D01*
X147809000Y-77000714D01*
X147737571Y-77286428D01*
X147737571Y-77500714D01*
X147809000Y-77786428D01*
X147880428Y-77929285D01*
X148023285Y-78072142D01*
X148237571Y-78143571D01*
X148594714Y-78143571D01*
X147166142Y-77715000D02*
X146451857Y-77715000D01*
X147309000Y-78143571D02*
X146809000Y-76643571D01*
X146309000Y-78143571D01*
X145809000Y-78143571D02*
X145809000Y-76643571D01*
X145237571Y-76643571D01*
X145094714Y-76715000D01*
X145023285Y-76786428D01*
X144951857Y-76929285D01*
X144951857Y-77143571D01*
X145023285Y-77286428D01*
X145094714Y-77357857D01*
X145237571Y-77429285D01*
X145809000Y-77429285D01*
X144523285Y-76643571D02*
X143666142Y-76643571D01*
X144094714Y-78143571D02*
X144094714Y-76643571D01*
X143166142Y-77357857D02*
X142666142Y-77357857D01*
X142451857Y-78143571D02*
X143166142Y-78143571D01*
X143166142Y-76643571D01*
X142451857Y-76643571D01*
X140951857Y-78143571D02*
X141451857Y-77429285D01*
X141809000Y-78143571D02*
X141809000Y-76643571D01*
X141237571Y-76643571D01*
X141094714Y-76715000D01*
X141023285Y-76786428D01*
X140951857Y-76929285D01*
X140951857Y-77143571D01*
X141023285Y-77286428D01*
X141094714Y-77357857D01*
X141237571Y-77429285D01*
X141809000Y-77429285D01*
X139309000Y-76643571D02*
X138951857Y-78143571D01*
X138666142Y-77072142D01*
X138380428Y-78143571D01*
X138023285Y-76643571D01*
X136380428Y-76572142D02*
X137666142Y-78500714D01*
X134737571Y-78143571D02*
X134737571Y-76643571D01*
X134166142Y-76643571D01*
X134023285Y-76715000D01*
X133951857Y-76786428D01*
X133880428Y-76929285D01*
X133880428Y-77143571D01*
X133951857Y-77286428D01*
X134023285Y-77357857D01*
X134166142Y-77429285D01*
X134737571Y-77429285D01*
X132951857Y-76643571D02*
X132666142Y-76643571D01*
X132523285Y-76715000D01*
X132380428Y-76857857D01*
X132308999Y-77143571D01*
X132308999Y-77643571D01*
X132380428Y-77929285D01*
X132523285Y-78072142D01*
X132666142Y-78143571D01*
X132951857Y-78143571D01*
X133094714Y-78072142D01*
X133237571Y-77929285D01*
X133308999Y-77643571D01*
X133308999Y-77143571D01*
X133237571Y-76857857D01*
X133094714Y-76715000D01*
X132951857Y-76643571D01*
X131808999Y-76643571D02*
X131451857Y-78143571D01*
X131166142Y-77072142D01*
X130880428Y-78143571D01*
X130523285Y-76643571D01*
X129951857Y-77357857D02*
X129451857Y-77357857D01*
X129237571Y-78143571D02*
X129951857Y-78143571D01*
X129951857Y-76643571D01*
X129237571Y-76643571D01*
X127737571Y-78143571D02*
X128237571Y-77429285D01*
X128594714Y-78143571D02*
X128594714Y-76643571D01*
X128023285Y-76643571D01*
X127880428Y-76715000D01*
X127808999Y-76786428D01*
X127737571Y-76929285D01*
X127737571Y-77143571D01*
X127808999Y-77286428D01*
X127880428Y-77357857D01*
X128023285Y-77429285D01*
X128594714Y-77429285D01*
X158023285Y-79193571D02*
X158023285Y-80265000D01*
X158094714Y-80479285D01*
X158237571Y-80622142D01*
X158451857Y-80693571D01*
X158594714Y-80693571D01*
X157309000Y-80122142D02*
X156166142Y-80122142D01*
X154737571Y-80693571D02*
X155451857Y-80693571D01*
X155451857Y-79193571D01*
X154237571Y-80693571D02*
X154237571Y-79193571D01*
X153523285Y-80693571D02*
X153523285Y-79193571D01*
X152666142Y-80693571D01*
X152666142Y-79193571D01*
X151951857Y-80693571D02*
X151951857Y-79193571D01*
X151094714Y-80693571D02*
X151737571Y-79836428D01*
X151094714Y-79193571D02*
X151951857Y-80050714D01*
X149309000Y-79907857D02*
X148809000Y-79907857D01*
X148594714Y-80693571D02*
X149309000Y-80693571D01*
X149309000Y-79193571D01*
X148594714Y-79193571D01*
X147951857Y-80693571D02*
X147951857Y-79193571D01*
X147594714Y-79193571D01*
X147380428Y-79265000D01*
X147237571Y-79407857D01*
X147166142Y-79550714D01*
X147094714Y-79836428D01*
X147094714Y-80050714D01*
X147166142Y-80336428D01*
X147237571Y-80479285D01*
X147380428Y-80622142D01*
X147594714Y-80693571D01*
X147951857Y-80693571D01*
X146451857Y-79193571D02*
X146451857Y-80407857D01*
X146380428Y-80550714D01*
X146309000Y-80622142D01*
X146166142Y-80693571D01*
X145880428Y-80693571D01*
X145737571Y-80622142D01*
X145666142Y-80550714D01*
X145594714Y-80407857D01*
X145594714Y-79193571D01*
X143737571Y-80693571D02*
X143737571Y-79193571D01*
X143237571Y-80265000D01*
X142737571Y-79193571D01*
X142737571Y-80693571D01*
X142023285Y-80693571D02*
X142023285Y-79193571D01*
X141309000Y-80693571D02*
X141309000Y-79193571D01*
X140451857Y-80693571D01*
X140451857Y-79193571D01*
X139737571Y-80693571D02*
X139737571Y-79193571D01*
X137880428Y-80122142D02*
X136737571Y-80122142D01*
X136023285Y-79693571D02*
X134880428Y-80122142D01*
X136023285Y-80550714D01*
X132380428Y-79693571D02*
X132380428Y-80693571D01*
X132737571Y-79122142D02*
X133094714Y-80193571D01*
X132166142Y-80193571D01*
X131594714Y-80122142D02*
X130451857Y-80122142D01*
X129737571Y-80693571D02*
X129737571Y-79193571D01*
X129166142Y-79193571D01*
X129023285Y-79265000D01*
X128951857Y-79336428D01*
X128880428Y-79479285D01*
X128880428Y-79693571D01*
X128951857Y-79836428D01*
X129023285Y-79907857D01*
X129166142Y-79979285D01*
X129737571Y-79979285D01*
X128237571Y-80693571D02*
X128237571Y-79193571D01*
X127523285Y-80693571D02*
X127523285Y-79193571D01*
X126666142Y-80693571D01*
X126666142Y-79193571D01*
X124880428Y-80265000D02*
X124166142Y-80265000D01*
X125023285Y-80693571D02*
X124523285Y-79193571D01*
X124023285Y-80693571D01*
X122666142Y-80693571D02*
X123166142Y-79979285D01*
X123523285Y-80693571D02*
X123523285Y-79193571D01*
X122951857Y-79193571D01*
X122809000Y-79265000D01*
X122737571Y-79336428D01*
X122666142Y-79479285D01*
X122666142Y-79693571D01*
X122737571Y-79836428D01*
X122809000Y-79907857D01*
X122951857Y-79979285D01*
X123523285Y-79979285D01*
X122023285Y-80693571D02*
X122023285Y-79193571D01*
X121523285Y-80265000D01*
X121023285Y-79193571D01*
X121023285Y-80693571D01*
M02*
