G04 #@! TF.GenerationSoftware,KiCad,Pcbnew,(5.0.0)*
G04 #@! TF.CreationDate,2019-03-11T20:11:46-04:00*
G04 #@! TF.ProjectId,DebugAdapter,4465627567416461707465722E6B6963,rev?*
G04 #@! TF.SameCoordinates,Original*
G04 #@! TF.FileFunction,Copper,L1,Top,Signal*
G04 #@! TF.FilePolarity,Positive*
%FSLAX46Y46*%
G04 Gerber Fmt 4.6, Leading zero omitted, Abs format (unit mm)*
G04 Created by KiCad (PCBNEW (5.0.0)) date 03/11/19 20:11:46*
%MOMM*%
%LPD*%
G01*
G04 APERTURE LIST*
G04 #@! TA.AperFunction,ComponentPad*
%ADD10R,2.000000X2.000000*%
G04 #@! TD*
G04 #@! TA.AperFunction,ComponentPad*
%ADD11C,2.000000*%
G04 #@! TD*
G04 #@! TA.AperFunction,Conductor*
%ADD12C,0.100000*%
G04 #@! TD*
G04 #@! TA.AperFunction,SMDPad,CuDef*
%ADD13C,0.950000*%
G04 #@! TD*
G04 #@! TA.AperFunction,SMDPad,CuDef*
%ADD14R,2.400000X0.740000*%
G04 #@! TD*
G04 #@! TA.AperFunction,ComponentPad*
%ADD15R,1.700000X1.700000*%
G04 #@! TD*
G04 #@! TA.AperFunction,ComponentPad*
%ADD16O,1.700000X1.700000*%
G04 #@! TD*
G04 #@! TA.AperFunction,SMDPad,CuDef*
%ADD17R,2.500000X1.250000*%
G04 #@! TD*
G04 #@! TA.AperFunction,ViaPad*
%ADD18C,0.800000*%
G04 #@! TD*
G04 #@! TA.AperFunction,Conductor*
%ADD19C,0.508000*%
G04 #@! TD*
G04 APERTURE END LIST*
D10*
G04 #@! TO.P,BT1,1*
G04 #@! TO.N,+BATT*
X109220000Y-81788000D03*
D11*
G04 #@! TO.P,BT1,2*
G04 #@! TO.N,GND*
X109220000Y-94488000D03*
G04 #@! TD*
D12*
G04 #@! TO.N,Net-(D1-Pad1)*
G04 #@! TO.C,D1*
G36*
X100753779Y-87918144D02*
X100776834Y-87921563D01*
X100799443Y-87927227D01*
X100821387Y-87935079D01*
X100842457Y-87945044D01*
X100862448Y-87957026D01*
X100881168Y-87970910D01*
X100898438Y-87986562D01*
X100914090Y-88003832D01*
X100927974Y-88022552D01*
X100939956Y-88042543D01*
X100949921Y-88063613D01*
X100957773Y-88085557D01*
X100963437Y-88108166D01*
X100966856Y-88131221D01*
X100968000Y-88154500D01*
X100968000Y-88629500D01*
X100966856Y-88652779D01*
X100963437Y-88675834D01*
X100957773Y-88698443D01*
X100949921Y-88720387D01*
X100939956Y-88741457D01*
X100927974Y-88761448D01*
X100914090Y-88780168D01*
X100898438Y-88797438D01*
X100881168Y-88813090D01*
X100862448Y-88826974D01*
X100842457Y-88838956D01*
X100821387Y-88848921D01*
X100799443Y-88856773D01*
X100776834Y-88862437D01*
X100753779Y-88865856D01*
X100730500Y-88867000D01*
X100155500Y-88867000D01*
X100132221Y-88865856D01*
X100109166Y-88862437D01*
X100086557Y-88856773D01*
X100064613Y-88848921D01*
X100043543Y-88838956D01*
X100023552Y-88826974D01*
X100004832Y-88813090D01*
X99987562Y-88797438D01*
X99971910Y-88780168D01*
X99958026Y-88761448D01*
X99946044Y-88741457D01*
X99936079Y-88720387D01*
X99928227Y-88698443D01*
X99922563Y-88675834D01*
X99919144Y-88652779D01*
X99918000Y-88629500D01*
X99918000Y-88154500D01*
X99919144Y-88131221D01*
X99922563Y-88108166D01*
X99928227Y-88085557D01*
X99936079Y-88063613D01*
X99946044Y-88042543D01*
X99958026Y-88022552D01*
X99971910Y-88003832D01*
X99987562Y-87986562D01*
X100004832Y-87970910D01*
X100023552Y-87957026D01*
X100043543Y-87945044D01*
X100064613Y-87935079D01*
X100086557Y-87927227D01*
X100109166Y-87921563D01*
X100132221Y-87918144D01*
X100155500Y-87917000D01*
X100730500Y-87917000D01*
X100753779Y-87918144D01*
X100753779Y-87918144D01*
G37*
D13*
G04 #@! TD*
G04 #@! TO.P,D1,1*
G04 #@! TO.N,Net-(D1-Pad1)*
X100443000Y-88392000D03*
D12*
G04 #@! TO.N,+3V3*
G04 #@! TO.C,D1*
G36*
X99003779Y-87918144D02*
X99026834Y-87921563D01*
X99049443Y-87927227D01*
X99071387Y-87935079D01*
X99092457Y-87945044D01*
X99112448Y-87957026D01*
X99131168Y-87970910D01*
X99148438Y-87986562D01*
X99164090Y-88003832D01*
X99177974Y-88022552D01*
X99189956Y-88042543D01*
X99199921Y-88063613D01*
X99207773Y-88085557D01*
X99213437Y-88108166D01*
X99216856Y-88131221D01*
X99218000Y-88154500D01*
X99218000Y-88629500D01*
X99216856Y-88652779D01*
X99213437Y-88675834D01*
X99207773Y-88698443D01*
X99199921Y-88720387D01*
X99189956Y-88741457D01*
X99177974Y-88761448D01*
X99164090Y-88780168D01*
X99148438Y-88797438D01*
X99131168Y-88813090D01*
X99112448Y-88826974D01*
X99092457Y-88838956D01*
X99071387Y-88848921D01*
X99049443Y-88856773D01*
X99026834Y-88862437D01*
X99003779Y-88865856D01*
X98980500Y-88867000D01*
X98405500Y-88867000D01*
X98382221Y-88865856D01*
X98359166Y-88862437D01*
X98336557Y-88856773D01*
X98314613Y-88848921D01*
X98293543Y-88838956D01*
X98273552Y-88826974D01*
X98254832Y-88813090D01*
X98237562Y-88797438D01*
X98221910Y-88780168D01*
X98208026Y-88761448D01*
X98196044Y-88741457D01*
X98186079Y-88720387D01*
X98178227Y-88698443D01*
X98172563Y-88675834D01*
X98169144Y-88652779D01*
X98168000Y-88629500D01*
X98168000Y-88154500D01*
X98169144Y-88131221D01*
X98172563Y-88108166D01*
X98178227Y-88085557D01*
X98186079Y-88063613D01*
X98196044Y-88042543D01*
X98208026Y-88022552D01*
X98221910Y-88003832D01*
X98237562Y-87986562D01*
X98254832Y-87970910D01*
X98273552Y-87957026D01*
X98293543Y-87945044D01*
X98314613Y-87935079D01*
X98336557Y-87927227D01*
X98359166Y-87921563D01*
X98382221Y-87918144D01*
X98405500Y-87917000D01*
X98980500Y-87917000D01*
X99003779Y-87918144D01*
X99003779Y-87918144D01*
G37*
D13*
G04 #@! TD*
G04 #@! TO.P,D1,2*
G04 #@! TO.N,+3V3*
X98693000Y-88392000D03*
D14*
G04 #@! TO.P,J1,1*
G04 #@! TO.N,+3V3*
X98888000Y-91440000D03*
G04 #@! TO.P,J1,2*
G04 #@! TO.N,/SWDIO*
X102788000Y-91440000D03*
G04 #@! TO.P,J1,3*
G04 #@! TO.N,GND*
X98888000Y-92710000D03*
G04 #@! TO.P,J1,4*
G04 #@! TO.N,/SWCLK*
X102788000Y-92710000D03*
G04 #@! TO.P,J1,5*
G04 #@! TO.N,GND*
X98888000Y-93980000D03*
G04 #@! TO.P,J1,6*
G04 #@! TO.N,Net-(J1-Pad6)*
X102788000Y-93980000D03*
G04 #@! TO.P,J1,7*
G04 #@! TO.N,Net-(J1-Pad7)*
X98888000Y-95250000D03*
G04 #@! TO.P,J1,8*
G04 #@! TO.N,Net-(J1-Pad8)*
X102788000Y-95250000D03*
G04 #@! TO.P,J1,9*
G04 #@! TO.N,Net-(J1-Pad9)*
X98888000Y-96520000D03*
G04 #@! TO.P,J1,10*
G04 #@! TO.N,Net-(J1-Pad10)*
X102788000Y-96520000D03*
G04 #@! TD*
D15*
G04 #@! TO.P,J2,1*
G04 #@! TO.N,+3V3*
X163322000Y-84074000D03*
D16*
G04 #@! TO.P,J2,2*
G04 #@! TO.N,/SWDIO*
X163322000Y-86614000D03*
G04 #@! TO.P,J2,3*
G04 #@! TO.N,/SWCLK*
X163322000Y-89154000D03*
G04 #@! TO.P,J2,4*
G04 #@! TO.N,GND*
X163322000Y-91694000D03*
G04 #@! TD*
D12*
G04 #@! TO.N,Net-(D1-Pad1)*
G04 #@! TO.C,R1*
G36*
X102559779Y-87918144D02*
X102582834Y-87921563D01*
X102605443Y-87927227D01*
X102627387Y-87935079D01*
X102648457Y-87945044D01*
X102668448Y-87957026D01*
X102687168Y-87970910D01*
X102704438Y-87986562D01*
X102720090Y-88003832D01*
X102733974Y-88022552D01*
X102745956Y-88042543D01*
X102755921Y-88063613D01*
X102763773Y-88085557D01*
X102769437Y-88108166D01*
X102772856Y-88131221D01*
X102774000Y-88154500D01*
X102774000Y-88629500D01*
X102772856Y-88652779D01*
X102769437Y-88675834D01*
X102763773Y-88698443D01*
X102755921Y-88720387D01*
X102745956Y-88741457D01*
X102733974Y-88761448D01*
X102720090Y-88780168D01*
X102704438Y-88797438D01*
X102687168Y-88813090D01*
X102668448Y-88826974D01*
X102648457Y-88838956D01*
X102627387Y-88848921D01*
X102605443Y-88856773D01*
X102582834Y-88862437D01*
X102559779Y-88865856D01*
X102536500Y-88867000D01*
X101961500Y-88867000D01*
X101938221Y-88865856D01*
X101915166Y-88862437D01*
X101892557Y-88856773D01*
X101870613Y-88848921D01*
X101849543Y-88838956D01*
X101829552Y-88826974D01*
X101810832Y-88813090D01*
X101793562Y-88797438D01*
X101777910Y-88780168D01*
X101764026Y-88761448D01*
X101752044Y-88741457D01*
X101742079Y-88720387D01*
X101734227Y-88698443D01*
X101728563Y-88675834D01*
X101725144Y-88652779D01*
X101724000Y-88629500D01*
X101724000Y-88154500D01*
X101725144Y-88131221D01*
X101728563Y-88108166D01*
X101734227Y-88085557D01*
X101742079Y-88063613D01*
X101752044Y-88042543D01*
X101764026Y-88022552D01*
X101777910Y-88003832D01*
X101793562Y-87986562D01*
X101810832Y-87970910D01*
X101829552Y-87957026D01*
X101849543Y-87945044D01*
X101870613Y-87935079D01*
X101892557Y-87927227D01*
X101915166Y-87921563D01*
X101938221Y-87918144D01*
X101961500Y-87917000D01*
X102536500Y-87917000D01*
X102559779Y-87918144D01*
X102559779Y-87918144D01*
G37*
D13*
G04 #@! TD*
G04 #@! TO.P,R1,1*
G04 #@! TO.N,Net-(D1-Pad1)*
X102249000Y-88392000D03*
D12*
G04 #@! TO.N,GND*
G04 #@! TO.C,R1*
G36*
X104309779Y-87918144D02*
X104332834Y-87921563D01*
X104355443Y-87927227D01*
X104377387Y-87935079D01*
X104398457Y-87945044D01*
X104418448Y-87957026D01*
X104437168Y-87970910D01*
X104454438Y-87986562D01*
X104470090Y-88003832D01*
X104483974Y-88022552D01*
X104495956Y-88042543D01*
X104505921Y-88063613D01*
X104513773Y-88085557D01*
X104519437Y-88108166D01*
X104522856Y-88131221D01*
X104524000Y-88154500D01*
X104524000Y-88629500D01*
X104522856Y-88652779D01*
X104519437Y-88675834D01*
X104513773Y-88698443D01*
X104505921Y-88720387D01*
X104495956Y-88741457D01*
X104483974Y-88761448D01*
X104470090Y-88780168D01*
X104454438Y-88797438D01*
X104437168Y-88813090D01*
X104418448Y-88826974D01*
X104398457Y-88838956D01*
X104377387Y-88848921D01*
X104355443Y-88856773D01*
X104332834Y-88862437D01*
X104309779Y-88865856D01*
X104286500Y-88867000D01*
X103711500Y-88867000D01*
X103688221Y-88865856D01*
X103665166Y-88862437D01*
X103642557Y-88856773D01*
X103620613Y-88848921D01*
X103599543Y-88838956D01*
X103579552Y-88826974D01*
X103560832Y-88813090D01*
X103543562Y-88797438D01*
X103527910Y-88780168D01*
X103514026Y-88761448D01*
X103502044Y-88741457D01*
X103492079Y-88720387D01*
X103484227Y-88698443D01*
X103478563Y-88675834D01*
X103475144Y-88652779D01*
X103474000Y-88629500D01*
X103474000Y-88154500D01*
X103475144Y-88131221D01*
X103478563Y-88108166D01*
X103484227Y-88085557D01*
X103492079Y-88063613D01*
X103502044Y-88042543D01*
X103514026Y-88022552D01*
X103527910Y-88003832D01*
X103543562Y-87986562D01*
X103560832Y-87970910D01*
X103579552Y-87957026D01*
X103599543Y-87945044D01*
X103620613Y-87935079D01*
X103642557Y-87927227D01*
X103665166Y-87921563D01*
X103688221Y-87918144D01*
X103711500Y-87917000D01*
X104286500Y-87917000D01*
X104309779Y-87918144D01*
X104309779Y-87918144D01*
G37*
D13*
G04 #@! TD*
G04 #@! TO.P,R1,2*
G04 #@! TO.N,GND*
X103999000Y-88392000D03*
D17*
G04 #@! TO.P,SW1,1*
G04 #@! TO.N,+3V3*
X102826000Y-79288000D03*
G04 #@! TO.P,SW1,2*
G04 #@! TO.N,+BATT*
X102826000Y-81788000D03*
G04 #@! TO.P,SW1,3*
G04 #@! TO.N,Net-(SW1-Pad3)*
X102826000Y-84288000D03*
G04 #@! TD*
D18*
G04 #@! TO.N,GND*
X106426000Y-87884000D03*
X96774000Y-92710000D03*
X96774000Y-93980000D03*
G04 #@! TD*
D19*
G04 #@! TO.N,+BATT*
X107712000Y-81788000D02*
X102826000Y-81788000D01*
X109220000Y-81788000D02*
X107712000Y-81788000D01*
G04 #@! TO.N,GND*
X104624000Y-88392000D02*
X105132000Y-87884000D01*
X103999000Y-88392000D02*
X104624000Y-88392000D01*
X105132000Y-87884000D02*
X106426000Y-87884000D01*
X98888000Y-92710000D02*
X96774000Y-92710000D01*
X98888000Y-93980000D02*
X96774000Y-93980000D01*
G04 #@! TO.N,Net-(D1-Pad1)*
X100443000Y-88392000D02*
X102249000Y-88392000D01*
G04 #@! TO.N,+3V3*
X98888000Y-88587000D02*
X98693000Y-88392000D01*
X98888000Y-91440000D02*
X98888000Y-88587000D01*
X98693000Y-82796000D02*
X100076000Y-81413000D01*
X98693000Y-88392000D02*
X98693000Y-82796000D01*
X100076000Y-81413000D02*
X100076000Y-80264000D01*
X101052000Y-79288000D02*
X102826000Y-79288000D01*
X100076000Y-80264000D02*
X101052000Y-79288000D01*
X163322000Y-82716000D02*
X163322000Y-84074000D01*
X159894000Y-79288000D02*
X163322000Y-82716000D01*
X102826000Y-79288000D02*
X159894000Y-79288000D01*
G04 #@! TO.N,/SWDIO*
X156210000Y-86614000D02*
X163322000Y-86614000D01*
X106172000Y-91440000D02*
X112014000Y-85598000D01*
X102788000Y-91440000D02*
X106172000Y-91440000D01*
X112014000Y-85598000D02*
X140716000Y-85598000D01*
X140716000Y-85598000D02*
X144526000Y-89408000D01*
X144526000Y-89408000D02*
X153416000Y-89408000D01*
X153416000Y-89408000D02*
X156210000Y-86614000D01*
G04 #@! TO.N,/SWCLK*
X106934000Y-92710000D02*
X112522000Y-87122000D01*
X102788000Y-92710000D02*
X106934000Y-92710000D01*
X112522000Y-87122000D02*
X140208000Y-87122000D01*
X140208000Y-87122000D02*
X143764000Y-90678000D01*
X155448000Y-89154000D02*
X163322000Y-89154000D01*
X143764000Y-90678000D02*
X153924000Y-90678000D01*
X153924000Y-90678000D02*
X155448000Y-89154000D01*
G04 #@! TD*
M02*
