G04 #@! TF.GenerationSoftware,KiCad,Pcbnew,(5.0.0)*
G04 #@! TF.CreationDate,2019-03-11T20:11:46-04:00*
G04 #@! TF.ProjectId,DebugAdapter,4465627567416461707465722E6B6963,rev?*
G04 #@! TF.SameCoordinates,Original*
G04 #@! TF.FileFunction,Legend,Top*
G04 #@! TF.FilePolarity,Positive*
%FSLAX46Y46*%
G04 Gerber Fmt 4.6, Leading zero omitted, Abs format (unit mm)*
G04 Created by KiCad (PCBNEW (5.0.0)) date 03/11/19 20:11:46*
%MOMM*%
%LPD*%
G01*
G04 APERTURE LIST*
%ADD10C,0.300000*%
%ADD11C,0.200000*%
%ADD12C,0.120000*%
%ADD13C,0.150000*%
G04 APERTURE END LIST*
D10*
X161417000Y-92758380D02*
X161477476Y-92637428D01*
X161477476Y-92456000D01*
X161417000Y-92274571D01*
X161296047Y-92153619D01*
X161175095Y-92093142D01*
X160933190Y-92032666D01*
X160751761Y-92032666D01*
X160509857Y-92093142D01*
X160388904Y-92153619D01*
X160267952Y-92274571D01*
X160207476Y-92456000D01*
X160207476Y-92576952D01*
X160267952Y-92758380D01*
X160328428Y-92818857D01*
X160751761Y-92818857D01*
X160751761Y-92576952D01*
X160207476Y-93363142D02*
X161477476Y-93363142D01*
X160207476Y-94088857D01*
X161477476Y-94088857D01*
X160207476Y-94693619D02*
X161477476Y-94693619D01*
X161477476Y-94996000D01*
X161417000Y-95177428D01*
X161296047Y-95298380D01*
X161175095Y-95358857D01*
X160933190Y-95419333D01*
X160751761Y-95419333D01*
X160509857Y-95358857D01*
X160388904Y-95298380D01*
X160267952Y-95177428D01*
X160207476Y-94996000D01*
X160207476Y-94693619D01*
X160328428Y-88652047D02*
X160267952Y-88591571D01*
X160207476Y-88410142D01*
X160207476Y-88289190D01*
X160267952Y-88107761D01*
X160388904Y-87986809D01*
X160509857Y-87926333D01*
X160751761Y-87865857D01*
X160933190Y-87865857D01*
X161175095Y-87926333D01*
X161296047Y-87986809D01*
X161417000Y-88107761D01*
X161477476Y-88289190D01*
X161477476Y-88410142D01*
X161417000Y-88591571D01*
X161356523Y-88652047D01*
X160207476Y-89801095D02*
X160207476Y-89196333D01*
X161477476Y-89196333D01*
X160207476Y-90224428D02*
X161477476Y-90224428D01*
X160207476Y-90950142D02*
X160933190Y-90405857D01*
X161477476Y-90950142D02*
X160751761Y-90224428D01*
X160207476Y-84297761D02*
X161477476Y-84297761D01*
X161477476Y-84600142D01*
X161417000Y-84781571D01*
X161296047Y-84902523D01*
X161175095Y-84963000D01*
X160933190Y-85023476D01*
X160751761Y-85023476D01*
X160509857Y-84963000D01*
X160388904Y-84902523D01*
X160267952Y-84781571D01*
X160207476Y-84600142D01*
X160207476Y-84297761D01*
X160207476Y-85567761D02*
X161477476Y-85567761D01*
X161477476Y-86414428D02*
X161477476Y-86656333D01*
X161417000Y-86777285D01*
X161296047Y-86898238D01*
X161054142Y-86958714D01*
X160630809Y-86958714D01*
X160388904Y-86898238D01*
X160267952Y-86777285D01*
X160207476Y-86656333D01*
X160207476Y-86414428D01*
X160267952Y-86293476D01*
X160388904Y-86172523D01*
X160630809Y-86112047D01*
X161054142Y-86112047D01*
X161296047Y-86172523D01*
X161417000Y-86293476D01*
X161477476Y-86414428D01*
X161477476Y-80215619D02*
X161477476Y-81001809D01*
X160993666Y-80578476D01*
X160993666Y-80759904D01*
X160933190Y-80880857D01*
X160872714Y-80941333D01*
X160751761Y-81001809D01*
X160449380Y-81001809D01*
X160328428Y-80941333D01*
X160267952Y-80880857D01*
X160207476Y-80759904D01*
X160207476Y-80397047D01*
X160267952Y-80276095D01*
X160328428Y-80215619D01*
X161477476Y-81364666D02*
X160207476Y-81788000D01*
X161477476Y-82211333D01*
X161477476Y-82513714D02*
X161477476Y-83299904D01*
X160993666Y-82876571D01*
X160993666Y-83058000D01*
X160933190Y-83178952D01*
X160872714Y-83239428D01*
X160751761Y-83299904D01*
X160449380Y-83299904D01*
X160328428Y-83239428D01*
X160267952Y-83178952D01*
X160207476Y-83058000D01*
X160207476Y-82695142D01*
X160267952Y-82574190D01*
X160328428Y-82513714D01*
X102711428Y-85792571D02*
X102997142Y-85792571D01*
X103140000Y-85864000D01*
X103282857Y-86006857D01*
X103354285Y-86292571D01*
X103354285Y-86792571D01*
X103282857Y-87078285D01*
X103140000Y-87221142D01*
X102997142Y-87292571D01*
X102711428Y-87292571D01*
X102568571Y-87221142D01*
X102425714Y-87078285D01*
X102354285Y-86792571D01*
X102354285Y-86292571D01*
X102425714Y-86006857D01*
X102568571Y-85864000D01*
X102711428Y-85792571D01*
X104497142Y-86506857D02*
X103997142Y-86506857D01*
X103997142Y-87292571D02*
X103997142Y-85792571D01*
X104711428Y-85792571D01*
X105782857Y-86506857D02*
X105282857Y-86506857D01*
X105282857Y-87292571D02*
X105282857Y-85792571D01*
X105997142Y-85792571D01*
X103465428Y-76140571D02*
X103751142Y-76140571D01*
X103894000Y-76212000D01*
X104036857Y-76354857D01*
X104108285Y-76640571D01*
X104108285Y-77140571D01*
X104036857Y-77426285D01*
X103894000Y-77569142D01*
X103751142Y-77640571D01*
X103465428Y-77640571D01*
X103322571Y-77569142D01*
X103179714Y-77426285D01*
X103108285Y-77140571D01*
X103108285Y-76640571D01*
X103179714Y-76354857D01*
X103322571Y-76212000D01*
X103465428Y-76140571D01*
X104751142Y-77640571D02*
X104751142Y-76140571D01*
X105608285Y-77640571D01*
X105608285Y-76140571D01*
D11*
X97028000Y-94742000D02*
X97028000Y-97028000D01*
X96520000Y-94742000D02*
X97028000Y-94742000D01*
X96520000Y-92710000D02*
X96520000Y-94742000D01*
X97028000Y-92710000D02*
X96520000Y-92710000D01*
X97028000Y-90932000D02*
X97028000Y-92710000D01*
D12*
G04 #@! TO.C,BT1*
X159720000Y-100538000D02*
X159720000Y-75738000D01*
X106520000Y-100538000D02*
X159720000Y-100538000D01*
X106520000Y-75738000D02*
X106520000Y-100538000D01*
X159720000Y-75738000D02*
X106520000Y-75738000D01*
X123190000Y-97028000D02*
X123190000Y-91948000D01*
X123190000Y-91948000D02*
X140970000Y-91948000D01*
X140970000Y-91948000D02*
X140970000Y-93218000D01*
X140970000Y-93218000D02*
X142240000Y-93218000D01*
X142240000Y-93218000D02*
X142240000Y-95758000D01*
X142240000Y-95758000D02*
X140970000Y-95758000D01*
X140970000Y-95758000D02*
X140970000Y-97028000D01*
X140970000Y-97028000D02*
X123190000Y-97028000D01*
X142240000Y-80518000D02*
X142240000Y-84328000D01*
X142240000Y-84328000D02*
X124460000Y-84328000D01*
X124460000Y-84328000D02*
X124460000Y-83058000D01*
X124460000Y-83058000D02*
X123190000Y-83058000D01*
X123190000Y-83058000D02*
X123190000Y-80518000D01*
X123190000Y-80518000D02*
X124460000Y-80518000D01*
X124460000Y-80518000D02*
X124460000Y-79248000D01*
X124460000Y-79248000D02*
X142240000Y-79248000D01*
X142240000Y-79248000D02*
X142240000Y-80518000D01*
X107950000Y-87884000D02*
X130810000Y-87884000D01*
X130810000Y-87884000D02*
X130810000Y-88392000D01*
X130810000Y-88392000D02*
X107950000Y-88392000D01*
X157480000Y-87884000D02*
X134620000Y-87884000D01*
X134620000Y-87884000D02*
X134620000Y-88392000D01*
X134620000Y-88392000D02*
X157480000Y-88392000D01*
X123190000Y-98298000D02*
X123190000Y-99568000D01*
X123190000Y-99568000D02*
X142240000Y-99568000D01*
X142240000Y-99568000D02*
X142240000Y-98298000D01*
X154940000Y-77978000D02*
X142240000Y-77978000D01*
X142240000Y-77978000D02*
X142240000Y-76708000D01*
X142240000Y-76708000D02*
X123190000Y-76708000D01*
X123190000Y-76708000D02*
X123190000Y-77978000D01*
X154940000Y-98298000D02*
X142240000Y-98298000D01*
X110490000Y-77978000D02*
X123190000Y-77978000D01*
X110490000Y-77978000D02*
X110490000Y-76708000D01*
X110490000Y-76708000D02*
X107950000Y-76708000D01*
X107950000Y-76708000D02*
X107950000Y-99568000D01*
X107950000Y-99568000D02*
X110490000Y-99568000D01*
X110490000Y-99568000D02*
X110490000Y-98298000D01*
X110490000Y-98298000D02*
X123190000Y-98298000D01*
X157480000Y-76708000D02*
X154940000Y-76708000D01*
X154940000Y-76708000D02*
X154940000Y-77978000D01*
X157480000Y-76708000D02*
X157480000Y-99568000D01*
X157480000Y-99568000D02*
X154940000Y-99568000D01*
X154940000Y-99568000D02*
X154940000Y-98298000D01*
G04 #@! TO.C,D1*
X98768000Y-89127000D02*
X101228000Y-89127000D01*
X101228000Y-89127000D02*
X101228000Y-87657000D01*
X101228000Y-87657000D02*
X98768000Y-87657000D01*
G04 #@! TO.C,J1*
X99073000Y-90745000D02*
X102603000Y-90745000D01*
X99073000Y-97215000D02*
X102603000Y-97215000D01*
X97748000Y-90810000D02*
X99073000Y-90810000D01*
X99073000Y-90745000D02*
X99073000Y-90810000D01*
X102603000Y-90745000D02*
X102603000Y-90810000D01*
X99073000Y-97150000D02*
X99073000Y-97215000D01*
X102603000Y-97150000D02*
X102603000Y-97215000D01*
G04 #@! TO.C,J2*
X164762000Y-82744000D02*
X164762000Y-93024000D01*
X164762000Y-93024000D02*
X167422000Y-93024000D01*
X167422000Y-93024000D02*
X167422000Y-82744000D01*
X167422000Y-82744000D02*
X164762000Y-82744000D01*
X167422000Y-83694000D02*
X173422000Y-83694000D01*
X173422000Y-83694000D02*
X173422000Y-84454000D01*
X173422000Y-84454000D02*
X167422000Y-84454000D01*
X167422000Y-83754000D02*
X173422000Y-83754000D01*
X167422000Y-83874000D02*
X173422000Y-83874000D01*
X167422000Y-83994000D02*
X173422000Y-83994000D01*
X167422000Y-84114000D02*
X173422000Y-84114000D01*
X167422000Y-84234000D02*
X173422000Y-84234000D01*
X167422000Y-84354000D02*
X173422000Y-84354000D01*
X164432000Y-83694000D02*
X164762000Y-83694000D01*
X164432000Y-84454000D02*
X164762000Y-84454000D01*
X164762000Y-85344000D02*
X167422000Y-85344000D01*
X167422000Y-86234000D02*
X173422000Y-86234000D01*
X173422000Y-86234000D02*
X173422000Y-86994000D01*
X173422000Y-86994000D02*
X167422000Y-86994000D01*
X164364929Y-86234000D02*
X164762000Y-86234000D01*
X164364929Y-86994000D02*
X164762000Y-86994000D01*
X164762000Y-87884000D02*
X167422000Y-87884000D01*
X167422000Y-88774000D02*
X173422000Y-88774000D01*
X173422000Y-88774000D02*
X173422000Y-89534000D01*
X173422000Y-89534000D02*
X167422000Y-89534000D01*
X164364929Y-88774000D02*
X164762000Y-88774000D01*
X164364929Y-89534000D02*
X164762000Y-89534000D01*
X164762000Y-90424000D02*
X167422000Y-90424000D01*
X167422000Y-91314000D02*
X173422000Y-91314000D01*
X173422000Y-91314000D02*
X173422000Y-92074000D01*
X173422000Y-92074000D02*
X167422000Y-92074000D01*
X164364929Y-91314000D02*
X164762000Y-91314000D01*
X164364929Y-92074000D02*
X164762000Y-92074000D01*
X162052000Y-84074000D02*
X162052000Y-82804000D01*
X162052000Y-82804000D02*
X163322000Y-82804000D01*
G04 #@! TO.C,R1*
X102952733Y-87882000D02*
X103295267Y-87882000D01*
X102952733Y-88902000D02*
X103295267Y-88902000D01*
G04 #@! TO.C,SW1*
X101976000Y-84988000D02*
X101976000Y-86388000D01*
X101976000Y-86388000D02*
X98176000Y-86388000D01*
X98176000Y-77188000D02*
X101976000Y-77188000D01*
X101976000Y-77188000D02*
X101976000Y-78588000D01*
X101976000Y-83588000D02*
X101976000Y-82488000D01*
X101976000Y-82488000D02*
X101976000Y-82488000D01*
X101976000Y-81088000D02*
X101976000Y-79988000D01*
X101976000Y-79988000D02*
X101976000Y-79988000D01*
X98176000Y-86388000D02*
X98176000Y-84688000D01*
X98176000Y-84688000D02*
X97876000Y-84688000D01*
X97876000Y-84688000D02*
X97876000Y-83888000D01*
X97876000Y-83888000D02*
X98176000Y-83888000D01*
X98176000Y-83888000D02*
X98176000Y-82188000D01*
X98176000Y-82188000D02*
X97876000Y-82188000D01*
X97876000Y-82188000D02*
X97876000Y-81388000D01*
X97876000Y-81388000D02*
X98176000Y-81388000D01*
X98176000Y-81388000D02*
X98176000Y-79688000D01*
X98176000Y-79688000D02*
X97876000Y-79688000D01*
X97876000Y-79688000D02*
X97876000Y-78888000D01*
X97876000Y-78888000D02*
X98176000Y-78888000D01*
X98176000Y-78888000D02*
X98176000Y-77188000D01*
X98176000Y-77188000D02*
X98176000Y-77188000D01*
X96276000Y-79788000D02*
X96776000Y-79788000D01*
X96776000Y-79788000D02*
X96776000Y-79788000D01*
X96276000Y-79788000D02*
X96276000Y-80288000D01*
X96276000Y-80288000D02*
X96276000Y-80288000D01*
X96276000Y-83788000D02*
X96276000Y-83288000D01*
X96276000Y-83288000D02*
X96276000Y-83288000D01*
X96276000Y-83788000D02*
X96776000Y-83788000D01*
X96776000Y-83788000D02*
X96776000Y-83788000D01*
X97076000Y-83788000D02*
X97576000Y-83788000D01*
X97576000Y-83788000D02*
X97576000Y-83788000D01*
X97076000Y-79788000D02*
X97576000Y-79788000D01*
X97576000Y-79788000D02*
X97576000Y-79788000D01*
X96276000Y-80588000D02*
X96276000Y-81088000D01*
X96276000Y-81088000D02*
X96276000Y-81088000D01*
X96276000Y-82988000D02*
X96276000Y-82488000D01*
X96276000Y-82488000D02*
X96276000Y-82488000D01*
X96276000Y-82188000D02*
X96276000Y-81388000D01*
X96276000Y-81388000D02*
X96276000Y-81388000D01*
G04 #@! TO.C,BT1*
D13*
X112752285Y-81716571D02*
X112895142Y-81764190D01*
X112942761Y-81811809D01*
X112990380Y-81907047D01*
X112990380Y-82049904D01*
X112942761Y-82145142D01*
X112895142Y-82192761D01*
X112799904Y-82240380D01*
X112418952Y-82240380D01*
X112418952Y-81240380D01*
X112752285Y-81240380D01*
X112847523Y-81288000D01*
X112895142Y-81335619D01*
X112942761Y-81430857D01*
X112942761Y-81526095D01*
X112895142Y-81621333D01*
X112847523Y-81668952D01*
X112752285Y-81716571D01*
X112418952Y-81716571D01*
X113276095Y-81240380D02*
X113847523Y-81240380D01*
X113561809Y-82240380D02*
X113561809Y-81240380D01*
X114704666Y-82240380D02*
X114133238Y-82240380D01*
X114418952Y-82240380D02*
X114418952Y-81240380D01*
X114323714Y-81383238D01*
X114228476Y-81478476D01*
X114133238Y-81526095D01*
X142938571Y-81895142D02*
X144081428Y-81895142D01*
X121348571Y-81895142D02*
X122491428Y-81895142D01*
X121920000Y-82466571D02*
X121920000Y-81323714D01*
X142938571Y-94595142D02*
X144081428Y-94595142D01*
X143510000Y-95166571D02*
X143510000Y-94023714D01*
X121348571Y-94595142D02*
X122491428Y-94595142D01*
X104838571Y-81895142D02*
X105981428Y-81895142D01*
X105410000Y-82466571D02*
X105410000Y-81323714D01*
X104838571Y-94595142D02*
X105981428Y-94595142D01*
G04 #@! TO.C,D1*
X99591904Y-90368380D02*
X99591904Y-89368380D01*
X99830000Y-89368380D01*
X99972857Y-89416000D01*
X100068095Y-89511238D01*
X100115714Y-89606476D01*
X100163333Y-89796952D01*
X100163333Y-89939809D01*
X100115714Y-90130285D01*
X100068095Y-90225523D01*
X99972857Y-90320761D01*
X99830000Y-90368380D01*
X99591904Y-90368380D01*
X101115714Y-90368380D02*
X100544285Y-90368380D01*
X100830000Y-90368380D02*
X100830000Y-89368380D01*
X100734761Y-89511238D01*
X100639523Y-89606476D01*
X100544285Y-89654095D01*
G04 #@! TO.C,J1*
X96948666Y-88860380D02*
X96948666Y-89574666D01*
X96901047Y-89717523D01*
X96805809Y-89812761D01*
X96662952Y-89860380D01*
X96567714Y-89860380D01*
X97948666Y-89860380D02*
X97377238Y-89860380D01*
X97662952Y-89860380D02*
X97662952Y-88860380D01*
X97567714Y-89003238D01*
X97472476Y-89098476D01*
X97377238Y-89146095D01*
G04 #@! TO.C,J2*
X167373666Y-81256380D02*
X167373666Y-81970666D01*
X167326047Y-82113523D01*
X167230809Y-82208761D01*
X167087952Y-82256380D01*
X166992714Y-82256380D01*
X167802238Y-81351619D02*
X167849857Y-81304000D01*
X167945095Y-81256380D01*
X168183190Y-81256380D01*
X168278428Y-81304000D01*
X168326047Y-81351619D01*
X168373666Y-81446857D01*
X168373666Y-81542095D01*
X168326047Y-81684952D01*
X167754619Y-82256380D01*
X168373666Y-82256380D01*
G04 #@! TO.C,R1*
X102957333Y-90368380D02*
X102624000Y-89892190D01*
X102385904Y-90368380D02*
X102385904Y-89368380D01*
X102766857Y-89368380D01*
X102862095Y-89416000D01*
X102909714Y-89463619D01*
X102957333Y-89558857D01*
X102957333Y-89701714D01*
X102909714Y-89796952D01*
X102862095Y-89844571D01*
X102766857Y-89892190D01*
X102385904Y-89892190D01*
X103909714Y-90368380D02*
X103338285Y-90368380D01*
X103624000Y-90368380D02*
X103624000Y-89368380D01*
X103528761Y-89511238D01*
X103433523Y-89606476D01*
X103338285Y-89654095D01*
G04 #@! TO.C,SW1*
X105814761Y-80835333D02*
X105862380Y-80692476D01*
X105862380Y-80454380D01*
X105814761Y-80359142D01*
X105767142Y-80311523D01*
X105671904Y-80263904D01*
X105576666Y-80263904D01*
X105481428Y-80311523D01*
X105433809Y-80359142D01*
X105386190Y-80454380D01*
X105338571Y-80644857D01*
X105290952Y-80740095D01*
X105243333Y-80787714D01*
X105148095Y-80835333D01*
X105052857Y-80835333D01*
X104957619Y-80787714D01*
X104910000Y-80740095D01*
X104862380Y-80644857D01*
X104862380Y-80406761D01*
X104910000Y-80263904D01*
X104862380Y-79930571D02*
X105862380Y-79692476D01*
X105148095Y-79502000D01*
X105862380Y-79311523D01*
X104862380Y-79073428D01*
X105862380Y-78168666D02*
X105862380Y-78740095D01*
X105862380Y-78454380D02*
X104862380Y-78454380D01*
X105005238Y-78549619D01*
X105100476Y-78644857D01*
X105148095Y-78740095D01*
G04 #@! TD*
M02*
