G04 #@! TF.GenerationSoftware,KiCad,Pcbnew,(5.0.0)*
G04 #@! TF.CreationDate,2019-03-11T20:11:46-04:00*
G04 #@! TF.ProjectId,DebugAdapter,4465627567416461707465722E6B6963,rev?*
G04 #@! TF.SameCoordinates,Original*
G04 #@! TF.FileFunction,Copper,L2,Bot,Signal*
G04 #@! TF.FilePolarity,Positive*
%FSLAX46Y46*%
G04 Gerber Fmt 4.6, Leading zero omitted, Abs format (unit mm)*
G04 Created by KiCad (PCBNEW (5.0.0)) date 03/11/19 20:11:46*
%MOMM*%
%LPD*%
G01*
G04 APERTURE LIST*
G04 #@! TA.AperFunction,ComponentPad*
%ADD10R,2.000000X2.000000*%
G04 #@! TD*
G04 #@! TA.AperFunction,ComponentPad*
%ADD11C,2.000000*%
G04 #@! TD*
G04 #@! TA.AperFunction,ComponentPad*
%ADD12R,1.700000X1.700000*%
G04 #@! TD*
G04 #@! TA.AperFunction,ComponentPad*
%ADD13O,1.700000X1.700000*%
G04 #@! TD*
G04 #@! TA.AperFunction,ViaPad*
%ADD14C,0.800000*%
G04 #@! TD*
G04 #@! TA.AperFunction,Conductor*
%ADD15C,0.254000*%
G04 #@! TD*
G04 APERTURE END LIST*
D10*
G04 #@! TO.P,BT1,1*
G04 #@! TO.N,+BATT*
X109220000Y-81788000D03*
D11*
G04 #@! TO.P,BT1,2*
G04 #@! TO.N,GND*
X109220000Y-94488000D03*
G04 #@! TD*
D12*
G04 #@! TO.P,J2,1*
G04 #@! TO.N,+3V3*
X163322000Y-84074000D03*
D13*
G04 #@! TO.P,J2,2*
G04 #@! TO.N,/SWDIO*
X163322000Y-86614000D03*
G04 #@! TO.P,J2,3*
G04 #@! TO.N,/SWCLK*
X163322000Y-89154000D03*
G04 #@! TO.P,J2,4*
G04 #@! TO.N,GND*
X163322000Y-91694000D03*
G04 #@! TD*
D14*
G04 #@! TO.N,GND*
X106426000Y-87884000D03*
X96774000Y-92710000D03*
X96774000Y-93980000D03*
G04 #@! TD*
D15*
G04 #@! TO.N,GND*
G36*
X159631943Y-75711606D02*
X160492181Y-75918131D01*
X161309505Y-76256677D01*
X162063821Y-76718923D01*
X162736530Y-77293470D01*
X163311077Y-77966179D01*
X163773320Y-78720489D01*
X164111870Y-79537820D01*
X164318394Y-80398057D01*
X164390000Y-81307892D01*
X164390000Y-82619922D01*
X164172000Y-82576560D01*
X162472000Y-82576560D01*
X162224235Y-82625843D01*
X162014191Y-82766191D01*
X161873843Y-82976235D01*
X161824560Y-83224000D01*
X161824560Y-84924000D01*
X161873843Y-85171765D01*
X162014191Y-85381809D01*
X162224235Y-85522157D01*
X162269619Y-85531184D01*
X162251375Y-85543375D01*
X161923161Y-86034582D01*
X161807908Y-86614000D01*
X161923161Y-87193418D01*
X162251375Y-87684625D01*
X162549761Y-87884000D01*
X162251375Y-88083375D01*
X161923161Y-88574582D01*
X161807908Y-89154000D01*
X161923161Y-89733418D01*
X162251375Y-90224625D01*
X162570478Y-90437843D01*
X162440642Y-90498817D01*
X162050355Y-90927076D01*
X161880524Y-91337110D01*
X162001845Y-91567000D01*
X163195000Y-91567000D01*
X163195000Y-91547000D01*
X163449000Y-91547000D01*
X163449000Y-91567000D01*
X163469000Y-91567000D01*
X163469000Y-91821000D01*
X163449000Y-91821000D01*
X163449000Y-93014819D01*
X163678892Y-93135486D01*
X164203358Y-92889183D01*
X164390001Y-92684381D01*
X164390001Y-94460095D01*
X164318394Y-95369943D01*
X164111870Y-96230180D01*
X163773320Y-97047511D01*
X163311077Y-97801821D01*
X162736530Y-98474530D01*
X162063821Y-99049077D01*
X161309505Y-99511323D01*
X160492181Y-99849869D01*
X159631943Y-100056394D01*
X158722108Y-100128000D01*
X101627892Y-100128000D01*
X100718057Y-100056394D01*
X99857820Y-99849870D01*
X99040489Y-99511320D01*
X98286179Y-99049077D01*
X97613470Y-98474530D01*
X97038923Y-97801821D01*
X96576677Y-97047505D01*
X96238131Y-96230181D01*
X96096569Y-95640532D01*
X108247073Y-95640532D01*
X108345736Y-95907387D01*
X108955461Y-96133908D01*
X109605460Y-96109856D01*
X110094264Y-95907387D01*
X110192927Y-95640532D01*
X109220000Y-94667605D01*
X108247073Y-95640532D01*
X96096569Y-95640532D01*
X96031606Y-95369943D01*
X95960000Y-94460108D01*
X95960000Y-94223461D01*
X107574092Y-94223461D01*
X107598144Y-94873460D01*
X107800613Y-95362264D01*
X108067468Y-95460927D01*
X109040395Y-94488000D01*
X109399605Y-94488000D01*
X110372532Y-95460927D01*
X110639387Y-95362264D01*
X110865908Y-94752539D01*
X110841856Y-94102540D01*
X110639387Y-93613736D01*
X110372532Y-93515073D01*
X109399605Y-94488000D01*
X109040395Y-94488000D01*
X108067468Y-93515073D01*
X107800613Y-93613736D01*
X107574092Y-94223461D01*
X95960000Y-94223461D01*
X95960000Y-93335468D01*
X108247073Y-93335468D01*
X109220000Y-94308395D01*
X110192927Y-93335468D01*
X110094264Y-93068613D01*
X109484539Y-92842092D01*
X108834540Y-92866144D01*
X108345736Y-93068613D01*
X108247073Y-93335468D01*
X95960000Y-93335468D01*
X95960000Y-90013094D01*
X115471000Y-90013094D01*
X115471000Y-90961906D01*
X115834095Y-91838494D01*
X116505006Y-92509405D01*
X117381594Y-92872500D01*
X118330406Y-92872500D01*
X119206994Y-92509405D01*
X119665509Y-92050890D01*
X161880524Y-92050890D01*
X162050355Y-92460924D01*
X162440642Y-92889183D01*
X162965108Y-93135486D01*
X163195000Y-93014819D01*
X163195000Y-91821000D01*
X162001845Y-91821000D01*
X161880524Y-92050890D01*
X119665509Y-92050890D01*
X119877905Y-91838494D01*
X120241000Y-90961906D01*
X120241000Y-90013094D01*
X119877905Y-89136506D01*
X119206994Y-88465595D01*
X118330406Y-88102500D01*
X117381594Y-88102500D01*
X116505006Y-88465595D01*
X115834095Y-89136506D01*
X115471000Y-90013094D01*
X95960000Y-90013094D01*
X95960000Y-84972180D01*
X98991000Y-84972180D01*
X98991000Y-85403820D01*
X99156182Y-85802603D01*
X99461397Y-86107818D01*
X99860180Y-86273000D01*
X100291820Y-86273000D01*
X100690603Y-86107818D01*
X100995818Y-85802603D01*
X101161000Y-85403820D01*
X101161000Y-85275994D01*
X145443000Y-85275994D01*
X145443000Y-86224806D01*
X145806095Y-87101394D01*
X146477006Y-87772305D01*
X147353594Y-88135400D01*
X148302406Y-88135400D01*
X149178994Y-87772305D01*
X149849905Y-87101394D01*
X150213000Y-86224806D01*
X150213000Y-85275994D01*
X149849905Y-84399406D01*
X149178994Y-83728495D01*
X148302406Y-83365400D01*
X147353594Y-83365400D01*
X146477006Y-83728495D01*
X145806095Y-84399406D01*
X145443000Y-85275994D01*
X101161000Y-85275994D01*
X101161000Y-84972180D01*
X100995818Y-84573397D01*
X100690603Y-84268182D01*
X100291820Y-84103000D01*
X99860180Y-84103000D01*
X99461397Y-84268182D01*
X99156182Y-84573397D01*
X98991000Y-84972180D01*
X95960000Y-84972180D01*
X95960000Y-81307892D01*
X96000916Y-80788000D01*
X107572560Y-80788000D01*
X107572560Y-82788000D01*
X107621843Y-83035765D01*
X107762191Y-83245809D01*
X107972235Y-83386157D01*
X108220000Y-83435440D01*
X110220000Y-83435440D01*
X110467765Y-83386157D01*
X110677809Y-83245809D01*
X110818157Y-83035765D01*
X110867440Y-82788000D01*
X110867440Y-80788000D01*
X110818157Y-80540235D01*
X110677809Y-80330191D01*
X110467765Y-80189843D01*
X110220000Y-80140560D01*
X108220000Y-80140560D01*
X107972235Y-80189843D01*
X107762191Y-80330191D01*
X107621843Y-80540235D01*
X107572560Y-80788000D01*
X96000916Y-80788000D01*
X96031606Y-80398057D01*
X96238131Y-79537819D01*
X96576677Y-78720495D01*
X96912685Y-78172180D01*
X98991000Y-78172180D01*
X98991000Y-78603820D01*
X99156182Y-79002603D01*
X99461397Y-79307818D01*
X99860180Y-79473000D01*
X100291820Y-79473000D01*
X100690603Y-79307818D01*
X100995818Y-79002603D01*
X101161000Y-78603820D01*
X101161000Y-78172180D01*
X100995818Y-77773397D01*
X100690603Y-77468182D01*
X100291820Y-77303000D01*
X99860180Y-77303000D01*
X99461397Y-77468182D01*
X99156182Y-77773397D01*
X98991000Y-78172180D01*
X96912685Y-78172180D01*
X97038923Y-77966179D01*
X97613470Y-77293470D01*
X98286179Y-76718923D01*
X99040489Y-76256680D01*
X99857820Y-75918130D01*
X100718057Y-75711606D01*
X101627892Y-75640000D01*
X158722108Y-75640000D01*
X159631943Y-75711606D01*
X159631943Y-75711606D01*
G37*
X159631943Y-75711606D02*
X160492181Y-75918131D01*
X161309505Y-76256677D01*
X162063821Y-76718923D01*
X162736530Y-77293470D01*
X163311077Y-77966179D01*
X163773320Y-78720489D01*
X164111870Y-79537820D01*
X164318394Y-80398057D01*
X164390000Y-81307892D01*
X164390000Y-82619922D01*
X164172000Y-82576560D01*
X162472000Y-82576560D01*
X162224235Y-82625843D01*
X162014191Y-82766191D01*
X161873843Y-82976235D01*
X161824560Y-83224000D01*
X161824560Y-84924000D01*
X161873843Y-85171765D01*
X162014191Y-85381809D01*
X162224235Y-85522157D01*
X162269619Y-85531184D01*
X162251375Y-85543375D01*
X161923161Y-86034582D01*
X161807908Y-86614000D01*
X161923161Y-87193418D01*
X162251375Y-87684625D01*
X162549761Y-87884000D01*
X162251375Y-88083375D01*
X161923161Y-88574582D01*
X161807908Y-89154000D01*
X161923161Y-89733418D01*
X162251375Y-90224625D01*
X162570478Y-90437843D01*
X162440642Y-90498817D01*
X162050355Y-90927076D01*
X161880524Y-91337110D01*
X162001845Y-91567000D01*
X163195000Y-91567000D01*
X163195000Y-91547000D01*
X163449000Y-91547000D01*
X163449000Y-91567000D01*
X163469000Y-91567000D01*
X163469000Y-91821000D01*
X163449000Y-91821000D01*
X163449000Y-93014819D01*
X163678892Y-93135486D01*
X164203358Y-92889183D01*
X164390001Y-92684381D01*
X164390001Y-94460095D01*
X164318394Y-95369943D01*
X164111870Y-96230180D01*
X163773320Y-97047511D01*
X163311077Y-97801821D01*
X162736530Y-98474530D01*
X162063821Y-99049077D01*
X161309505Y-99511323D01*
X160492181Y-99849869D01*
X159631943Y-100056394D01*
X158722108Y-100128000D01*
X101627892Y-100128000D01*
X100718057Y-100056394D01*
X99857820Y-99849870D01*
X99040489Y-99511320D01*
X98286179Y-99049077D01*
X97613470Y-98474530D01*
X97038923Y-97801821D01*
X96576677Y-97047505D01*
X96238131Y-96230181D01*
X96096569Y-95640532D01*
X108247073Y-95640532D01*
X108345736Y-95907387D01*
X108955461Y-96133908D01*
X109605460Y-96109856D01*
X110094264Y-95907387D01*
X110192927Y-95640532D01*
X109220000Y-94667605D01*
X108247073Y-95640532D01*
X96096569Y-95640532D01*
X96031606Y-95369943D01*
X95960000Y-94460108D01*
X95960000Y-94223461D01*
X107574092Y-94223461D01*
X107598144Y-94873460D01*
X107800613Y-95362264D01*
X108067468Y-95460927D01*
X109040395Y-94488000D01*
X109399605Y-94488000D01*
X110372532Y-95460927D01*
X110639387Y-95362264D01*
X110865908Y-94752539D01*
X110841856Y-94102540D01*
X110639387Y-93613736D01*
X110372532Y-93515073D01*
X109399605Y-94488000D01*
X109040395Y-94488000D01*
X108067468Y-93515073D01*
X107800613Y-93613736D01*
X107574092Y-94223461D01*
X95960000Y-94223461D01*
X95960000Y-93335468D01*
X108247073Y-93335468D01*
X109220000Y-94308395D01*
X110192927Y-93335468D01*
X110094264Y-93068613D01*
X109484539Y-92842092D01*
X108834540Y-92866144D01*
X108345736Y-93068613D01*
X108247073Y-93335468D01*
X95960000Y-93335468D01*
X95960000Y-90013094D01*
X115471000Y-90013094D01*
X115471000Y-90961906D01*
X115834095Y-91838494D01*
X116505006Y-92509405D01*
X117381594Y-92872500D01*
X118330406Y-92872500D01*
X119206994Y-92509405D01*
X119665509Y-92050890D01*
X161880524Y-92050890D01*
X162050355Y-92460924D01*
X162440642Y-92889183D01*
X162965108Y-93135486D01*
X163195000Y-93014819D01*
X163195000Y-91821000D01*
X162001845Y-91821000D01*
X161880524Y-92050890D01*
X119665509Y-92050890D01*
X119877905Y-91838494D01*
X120241000Y-90961906D01*
X120241000Y-90013094D01*
X119877905Y-89136506D01*
X119206994Y-88465595D01*
X118330406Y-88102500D01*
X117381594Y-88102500D01*
X116505006Y-88465595D01*
X115834095Y-89136506D01*
X115471000Y-90013094D01*
X95960000Y-90013094D01*
X95960000Y-84972180D01*
X98991000Y-84972180D01*
X98991000Y-85403820D01*
X99156182Y-85802603D01*
X99461397Y-86107818D01*
X99860180Y-86273000D01*
X100291820Y-86273000D01*
X100690603Y-86107818D01*
X100995818Y-85802603D01*
X101161000Y-85403820D01*
X101161000Y-85275994D01*
X145443000Y-85275994D01*
X145443000Y-86224806D01*
X145806095Y-87101394D01*
X146477006Y-87772305D01*
X147353594Y-88135400D01*
X148302406Y-88135400D01*
X149178994Y-87772305D01*
X149849905Y-87101394D01*
X150213000Y-86224806D01*
X150213000Y-85275994D01*
X149849905Y-84399406D01*
X149178994Y-83728495D01*
X148302406Y-83365400D01*
X147353594Y-83365400D01*
X146477006Y-83728495D01*
X145806095Y-84399406D01*
X145443000Y-85275994D01*
X101161000Y-85275994D01*
X101161000Y-84972180D01*
X100995818Y-84573397D01*
X100690603Y-84268182D01*
X100291820Y-84103000D01*
X99860180Y-84103000D01*
X99461397Y-84268182D01*
X99156182Y-84573397D01*
X98991000Y-84972180D01*
X95960000Y-84972180D01*
X95960000Y-81307892D01*
X96000916Y-80788000D01*
X107572560Y-80788000D01*
X107572560Y-82788000D01*
X107621843Y-83035765D01*
X107762191Y-83245809D01*
X107972235Y-83386157D01*
X108220000Y-83435440D01*
X110220000Y-83435440D01*
X110467765Y-83386157D01*
X110677809Y-83245809D01*
X110818157Y-83035765D01*
X110867440Y-82788000D01*
X110867440Y-80788000D01*
X110818157Y-80540235D01*
X110677809Y-80330191D01*
X110467765Y-80189843D01*
X110220000Y-80140560D01*
X108220000Y-80140560D01*
X107972235Y-80189843D01*
X107762191Y-80330191D01*
X107621843Y-80540235D01*
X107572560Y-80788000D01*
X96000916Y-80788000D01*
X96031606Y-80398057D01*
X96238131Y-79537819D01*
X96576677Y-78720495D01*
X96912685Y-78172180D01*
X98991000Y-78172180D01*
X98991000Y-78603820D01*
X99156182Y-79002603D01*
X99461397Y-79307818D01*
X99860180Y-79473000D01*
X100291820Y-79473000D01*
X100690603Y-79307818D01*
X100995818Y-79002603D01*
X101161000Y-78603820D01*
X101161000Y-78172180D01*
X100995818Y-77773397D01*
X100690603Y-77468182D01*
X100291820Y-77303000D01*
X99860180Y-77303000D01*
X99461397Y-77468182D01*
X99156182Y-77773397D01*
X98991000Y-78172180D01*
X96912685Y-78172180D01*
X97038923Y-77966179D01*
X97613470Y-77293470D01*
X98286179Y-76718923D01*
X99040489Y-76256680D01*
X99857820Y-75918130D01*
X100718057Y-75711606D01*
X101627892Y-75640000D01*
X158722108Y-75640000D01*
X159631943Y-75711606D01*
G04 #@! TD*
M02*
