G04 #@! TF.GenerationSoftware,KiCad,Pcbnew,(5.0.0)*
G04 #@! TF.CreationDate,2018-09-15T00:01:03-04:00*
G04 #@! TF.ProjectId,EFMPod,45464D506F642E6B696361645F706362,rev?*
G04 #@! TF.SameCoordinates,Original*
G04 #@! TF.FileFunction,Soldermask,Top*
G04 #@! TF.FilePolarity,Negative*
%FSLAX46Y46*%
G04 Gerber Fmt 4.6, Leading zero omitted, Abs format (unit mm)*
G04 Created by KiCad (PCBNEW (5.0.0)) date 09/15/18 00:01:03*
%MOMM*%
%LPD*%
G01*
G04 APERTURE LIST*
%ADD10C,0.100000*%
%ADD11C,0.875000*%
%ADD12R,1.700000X1.700000*%
%ADD13O,1.700000X1.700000*%
%ADD14R,1.600000X2.000000*%
%ADD15R,2.000000X1.600000*%
%ADD16C,1.000000*%
%ADD17R,1.300000X0.250000*%
%ADD18R,0.250000X1.300000*%
%ADD19R,0.800000X0.600000*%
%ADD20R,2.000000X2.500000*%
%ADD21R,0.500000X2.500000*%
%ADD22C,2.100000*%
%ADD23R,2.200000X1.500000*%
%ADD24R,2.200000X3.800000*%
%ADD25C,3.200000*%
%ADD26R,0.740000X2.400000*%
%ADD27R,2.100000X1.800000*%
G04 APERTURE END LIST*
D10*
G04 #@! TO.C,C2*
G36*
X145375691Y-71154053D02*
X145396926Y-71157203D01*
X145417750Y-71162419D01*
X145437962Y-71169651D01*
X145457368Y-71178830D01*
X145475781Y-71189866D01*
X145493024Y-71202654D01*
X145508930Y-71217070D01*
X145523346Y-71232976D01*
X145536134Y-71250219D01*
X145547170Y-71268632D01*
X145556349Y-71288038D01*
X145563581Y-71308250D01*
X145568797Y-71329074D01*
X145571947Y-71350309D01*
X145573000Y-71371750D01*
X145573000Y-71884250D01*
X145571947Y-71905691D01*
X145568797Y-71926926D01*
X145563581Y-71947750D01*
X145556349Y-71967962D01*
X145547170Y-71987368D01*
X145536134Y-72005781D01*
X145523346Y-72023024D01*
X145508930Y-72038930D01*
X145493024Y-72053346D01*
X145475781Y-72066134D01*
X145457368Y-72077170D01*
X145437962Y-72086349D01*
X145417750Y-72093581D01*
X145396926Y-72098797D01*
X145375691Y-72101947D01*
X145354250Y-72103000D01*
X144916750Y-72103000D01*
X144895309Y-72101947D01*
X144874074Y-72098797D01*
X144853250Y-72093581D01*
X144833038Y-72086349D01*
X144813632Y-72077170D01*
X144795219Y-72066134D01*
X144777976Y-72053346D01*
X144762070Y-72038930D01*
X144747654Y-72023024D01*
X144734866Y-72005781D01*
X144723830Y-71987368D01*
X144714651Y-71967962D01*
X144707419Y-71947750D01*
X144702203Y-71926926D01*
X144699053Y-71905691D01*
X144698000Y-71884250D01*
X144698000Y-71371750D01*
X144699053Y-71350309D01*
X144702203Y-71329074D01*
X144707419Y-71308250D01*
X144714651Y-71288038D01*
X144723830Y-71268632D01*
X144734866Y-71250219D01*
X144747654Y-71232976D01*
X144762070Y-71217070D01*
X144777976Y-71202654D01*
X144795219Y-71189866D01*
X144813632Y-71178830D01*
X144833038Y-71169651D01*
X144853250Y-71162419D01*
X144874074Y-71157203D01*
X144895309Y-71154053D01*
X144916750Y-71153000D01*
X145354250Y-71153000D01*
X145375691Y-71154053D01*
X145375691Y-71154053D01*
G37*
D11*
X145135500Y-71628000D03*
D10*
G36*
X146950691Y-71154053D02*
X146971926Y-71157203D01*
X146992750Y-71162419D01*
X147012962Y-71169651D01*
X147032368Y-71178830D01*
X147050781Y-71189866D01*
X147068024Y-71202654D01*
X147083930Y-71217070D01*
X147098346Y-71232976D01*
X147111134Y-71250219D01*
X147122170Y-71268632D01*
X147131349Y-71288038D01*
X147138581Y-71308250D01*
X147143797Y-71329074D01*
X147146947Y-71350309D01*
X147148000Y-71371750D01*
X147148000Y-71884250D01*
X147146947Y-71905691D01*
X147143797Y-71926926D01*
X147138581Y-71947750D01*
X147131349Y-71967962D01*
X147122170Y-71987368D01*
X147111134Y-72005781D01*
X147098346Y-72023024D01*
X147083930Y-72038930D01*
X147068024Y-72053346D01*
X147050781Y-72066134D01*
X147032368Y-72077170D01*
X147012962Y-72086349D01*
X146992750Y-72093581D01*
X146971926Y-72098797D01*
X146950691Y-72101947D01*
X146929250Y-72103000D01*
X146491750Y-72103000D01*
X146470309Y-72101947D01*
X146449074Y-72098797D01*
X146428250Y-72093581D01*
X146408038Y-72086349D01*
X146388632Y-72077170D01*
X146370219Y-72066134D01*
X146352976Y-72053346D01*
X146337070Y-72038930D01*
X146322654Y-72023024D01*
X146309866Y-72005781D01*
X146298830Y-71987368D01*
X146289651Y-71967962D01*
X146282419Y-71947750D01*
X146277203Y-71926926D01*
X146274053Y-71905691D01*
X146273000Y-71884250D01*
X146273000Y-71371750D01*
X146274053Y-71350309D01*
X146277203Y-71329074D01*
X146282419Y-71308250D01*
X146289651Y-71288038D01*
X146298830Y-71268632D01*
X146309866Y-71250219D01*
X146322654Y-71232976D01*
X146337070Y-71217070D01*
X146352976Y-71202654D01*
X146370219Y-71189866D01*
X146388632Y-71178830D01*
X146408038Y-71169651D01*
X146428250Y-71162419D01*
X146449074Y-71157203D01*
X146470309Y-71154053D01*
X146491750Y-71153000D01*
X146929250Y-71153000D01*
X146950691Y-71154053D01*
X146950691Y-71154053D01*
G37*
D11*
X146710500Y-71628000D03*
G04 #@! TD*
D10*
G04 #@! TO.C,C3*
G36*
X147216691Y-76170053D02*
X147237926Y-76173203D01*
X147258750Y-76178419D01*
X147278962Y-76185651D01*
X147298368Y-76194830D01*
X147316781Y-76205866D01*
X147334024Y-76218654D01*
X147349930Y-76233070D01*
X147364346Y-76248976D01*
X147377134Y-76266219D01*
X147388170Y-76284632D01*
X147397349Y-76304038D01*
X147404581Y-76324250D01*
X147409797Y-76345074D01*
X147412947Y-76366309D01*
X147414000Y-76387750D01*
X147414000Y-76825250D01*
X147412947Y-76846691D01*
X147409797Y-76867926D01*
X147404581Y-76888750D01*
X147397349Y-76908962D01*
X147388170Y-76928368D01*
X147377134Y-76946781D01*
X147364346Y-76964024D01*
X147349930Y-76979930D01*
X147334024Y-76994346D01*
X147316781Y-77007134D01*
X147298368Y-77018170D01*
X147278962Y-77027349D01*
X147258750Y-77034581D01*
X147237926Y-77039797D01*
X147216691Y-77042947D01*
X147195250Y-77044000D01*
X146682750Y-77044000D01*
X146661309Y-77042947D01*
X146640074Y-77039797D01*
X146619250Y-77034581D01*
X146599038Y-77027349D01*
X146579632Y-77018170D01*
X146561219Y-77007134D01*
X146543976Y-76994346D01*
X146528070Y-76979930D01*
X146513654Y-76964024D01*
X146500866Y-76946781D01*
X146489830Y-76928368D01*
X146480651Y-76908962D01*
X146473419Y-76888750D01*
X146468203Y-76867926D01*
X146465053Y-76846691D01*
X146464000Y-76825250D01*
X146464000Y-76387750D01*
X146465053Y-76366309D01*
X146468203Y-76345074D01*
X146473419Y-76324250D01*
X146480651Y-76304038D01*
X146489830Y-76284632D01*
X146500866Y-76266219D01*
X146513654Y-76248976D01*
X146528070Y-76233070D01*
X146543976Y-76218654D01*
X146561219Y-76205866D01*
X146579632Y-76194830D01*
X146599038Y-76185651D01*
X146619250Y-76178419D01*
X146640074Y-76173203D01*
X146661309Y-76170053D01*
X146682750Y-76169000D01*
X147195250Y-76169000D01*
X147216691Y-76170053D01*
X147216691Y-76170053D01*
G37*
D11*
X146939000Y-76606500D03*
D10*
G36*
X147216691Y-74595053D02*
X147237926Y-74598203D01*
X147258750Y-74603419D01*
X147278962Y-74610651D01*
X147298368Y-74619830D01*
X147316781Y-74630866D01*
X147334024Y-74643654D01*
X147349930Y-74658070D01*
X147364346Y-74673976D01*
X147377134Y-74691219D01*
X147388170Y-74709632D01*
X147397349Y-74729038D01*
X147404581Y-74749250D01*
X147409797Y-74770074D01*
X147412947Y-74791309D01*
X147414000Y-74812750D01*
X147414000Y-75250250D01*
X147412947Y-75271691D01*
X147409797Y-75292926D01*
X147404581Y-75313750D01*
X147397349Y-75333962D01*
X147388170Y-75353368D01*
X147377134Y-75371781D01*
X147364346Y-75389024D01*
X147349930Y-75404930D01*
X147334024Y-75419346D01*
X147316781Y-75432134D01*
X147298368Y-75443170D01*
X147278962Y-75452349D01*
X147258750Y-75459581D01*
X147237926Y-75464797D01*
X147216691Y-75467947D01*
X147195250Y-75469000D01*
X146682750Y-75469000D01*
X146661309Y-75467947D01*
X146640074Y-75464797D01*
X146619250Y-75459581D01*
X146599038Y-75452349D01*
X146579632Y-75443170D01*
X146561219Y-75432134D01*
X146543976Y-75419346D01*
X146528070Y-75404930D01*
X146513654Y-75389024D01*
X146500866Y-75371781D01*
X146489830Y-75353368D01*
X146480651Y-75333962D01*
X146473419Y-75313750D01*
X146468203Y-75292926D01*
X146465053Y-75271691D01*
X146464000Y-75250250D01*
X146464000Y-74812750D01*
X146465053Y-74791309D01*
X146468203Y-74770074D01*
X146473419Y-74749250D01*
X146480651Y-74729038D01*
X146489830Y-74709632D01*
X146500866Y-74691219D01*
X146513654Y-74673976D01*
X146528070Y-74658070D01*
X146543976Y-74643654D01*
X146561219Y-74630866D01*
X146579632Y-74619830D01*
X146599038Y-74610651D01*
X146619250Y-74603419D01*
X146640074Y-74598203D01*
X146661309Y-74595053D01*
X146682750Y-74594000D01*
X147195250Y-74594000D01*
X147216691Y-74595053D01*
X147216691Y-74595053D01*
G37*
D11*
X146939000Y-75031500D03*
G04 #@! TD*
D10*
G04 #@! TO.C,C4*
G36*
X145692691Y-74595053D02*
X145713926Y-74598203D01*
X145734750Y-74603419D01*
X145754962Y-74610651D01*
X145774368Y-74619830D01*
X145792781Y-74630866D01*
X145810024Y-74643654D01*
X145825930Y-74658070D01*
X145840346Y-74673976D01*
X145853134Y-74691219D01*
X145864170Y-74709632D01*
X145873349Y-74729038D01*
X145880581Y-74749250D01*
X145885797Y-74770074D01*
X145888947Y-74791309D01*
X145890000Y-74812750D01*
X145890000Y-75250250D01*
X145888947Y-75271691D01*
X145885797Y-75292926D01*
X145880581Y-75313750D01*
X145873349Y-75333962D01*
X145864170Y-75353368D01*
X145853134Y-75371781D01*
X145840346Y-75389024D01*
X145825930Y-75404930D01*
X145810024Y-75419346D01*
X145792781Y-75432134D01*
X145774368Y-75443170D01*
X145754962Y-75452349D01*
X145734750Y-75459581D01*
X145713926Y-75464797D01*
X145692691Y-75467947D01*
X145671250Y-75469000D01*
X145158750Y-75469000D01*
X145137309Y-75467947D01*
X145116074Y-75464797D01*
X145095250Y-75459581D01*
X145075038Y-75452349D01*
X145055632Y-75443170D01*
X145037219Y-75432134D01*
X145019976Y-75419346D01*
X145004070Y-75404930D01*
X144989654Y-75389024D01*
X144976866Y-75371781D01*
X144965830Y-75353368D01*
X144956651Y-75333962D01*
X144949419Y-75313750D01*
X144944203Y-75292926D01*
X144941053Y-75271691D01*
X144940000Y-75250250D01*
X144940000Y-74812750D01*
X144941053Y-74791309D01*
X144944203Y-74770074D01*
X144949419Y-74749250D01*
X144956651Y-74729038D01*
X144965830Y-74709632D01*
X144976866Y-74691219D01*
X144989654Y-74673976D01*
X145004070Y-74658070D01*
X145019976Y-74643654D01*
X145037219Y-74630866D01*
X145055632Y-74619830D01*
X145075038Y-74610651D01*
X145095250Y-74603419D01*
X145116074Y-74598203D01*
X145137309Y-74595053D01*
X145158750Y-74594000D01*
X145671250Y-74594000D01*
X145692691Y-74595053D01*
X145692691Y-74595053D01*
G37*
D11*
X145415000Y-75031500D03*
D10*
G36*
X145692691Y-76170053D02*
X145713926Y-76173203D01*
X145734750Y-76178419D01*
X145754962Y-76185651D01*
X145774368Y-76194830D01*
X145792781Y-76205866D01*
X145810024Y-76218654D01*
X145825930Y-76233070D01*
X145840346Y-76248976D01*
X145853134Y-76266219D01*
X145864170Y-76284632D01*
X145873349Y-76304038D01*
X145880581Y-76324250D01*
X145885797Y-76345074D01*
X145888947Y-76366309D01*
X145890000Y-76387750D01*
X145890000Y-76825250D01*
X145888947Y-76846691D01*
X145885797Y-76867926D01*
X145880581Y-76888750D01*
X145873349Y-76908962D01*
X145864170Y-76928368D01*
X145853134Y-76946781D01*
X145840346Y-76964024D01*
X145825930Y-76979930D01*
X145810024Y-76994346D01*
X145792781Y-77007134D01*
X145774368Y-77018170D01*
X145754962Y-77027349D01*
X145734750Y-77034581D01*
X145713926Y-77039797D01*
X145692691Y-77042947D01*
X145671250Y-77044000D01*
X145158750Y-77044000D01*
X145137309Y-77042947D01*
X145116074Y-77039797D01*
X145095250Y-77034581D01*
X145075038Y-77027349D01*
X145055632Y-77018170D01*
X145037219Y-77007134D01*
X145019976Y-76994346D01*
X145004070Y-76979930D01*
X144989654Y-76964024D01*
X144976866Y-76946781D01*
X144965830Y-76928368D01*
X144956651Y-76908962D01*
X144949419Y-76888750D01*
X144944203Y-76867926D01*
X144941053Y-76846691D01*
X144940000Y-76825250D01*
X144940000Y-76387750D01*
X144941053Y-76366309D01*
X144944203Y-76345074D01*
X144949419Y-76324250D01*
X144956651Y-76304038D01*
X144965830Y-76284632D01*
X144976866Y-76266219D01*
X144989654Y-76248976D01*
X145004070Y-76233070D01*
X145019976Y-76218654D01*
X145037219Y-76205866D01*
X145055632Y-76194830D01*
X145075038Y-76185651D01*
X145095250Y-76178419D01*
X145116074Y-76173203D01*
X145137309Y-76170053D01*
X145158750Y-76169000D01*
X145671250Y-76169000D01*
X145692691Y-76170053D01*
X145692691Y-76170053D01*
G37*
D11*
X145415000Y-76606500D03*
G04 #@! TD*
D10*
G04 #@! TO.C,C15*
G36*
X165949691Y-83092053D02*
X165970926Y-83095203D01*
X165991750Y-83100419D01*
X166011962Y-83107651D01*
X166031368Y-83116830D01*
X166049781Y-83127866D01*
X166067024Y-83140654D01*
X166082930Y-83155070D01*
X166097346Y-83170976D01*
X166110134Y-83188219D01*
X166121170Y-83206632D01*
X166130349Y-83226038D01*
X166137581Y-83246250D01*
X166142797Y-83267074D01*
X166145947Y-83288309D01*
X166147000Y-83309750D01*
X166147000Y-83822250D01*
X166145947Y-83843691D01*
X166142797Y-83864926D01*
X166137581Y-83885750D01*
X166130349Y-83905962D01*
X166121170Y-83925368D01*
X166110134Y-83943781D01*
X166097346Y-83961024D01*
X166082930Y-83976930D01*
X166067024Y-83991346D01*
X166049781Y-84004134D01*
X166031368Y-84015170D01*
X166011962Y-84024349D01*
X165991750Y-84031581D01*
X165970926Y-84036797D01*
X165949691Y-84039947D01*
X165928250Y-84041000D01*
X165490750Y-84041000D01*
X165469309Y-84039947D01*
X165448074Y-84036797D01*
X165427250Y-84031581D01*
X165407038Y-84024349D01*
X165387632Y-84015170D01*
X165369219Y-84004134D01*
X165351976Y-83991346D01*
X165336070Y-83976930D01*
X165321654Y-83961024D01*
X165308866Y-83943781D01*
X165297830Y-83925368D01*
X165288651Y-83905962D01*
X165281419Y-83885750D01*
X165276203Y-83864926D01*
X165273053Y-83843691D01*
X165272000Y-83822250D01*
X165272000Y-83309750D01*
X165273053Y-83288309D01*
X165276203Y-83267074D01*
X165281419Y-83246250D01*
X165288651Y-83226038D01*
X165297830Y-83206632D01*
X165308866Y-83188219D01*
X165321654Y-83170976D01*
X165336070Y-83155070D01*
X165351976Y-83140654D01*
X165369219Y-83127866D01*
X165387632Y-83116830D01*
X165407038Y-83107651D01*
X165427250Y-83100419D01*
X165448074Y-83095203D01*
X165469309Y-83092053D01*
X165490750Y-83091000D01*
X165928250Y-83091000D01*
X165949691Y-83092053D01*
X165949691Y-83092053D01*
G37*
D11*
X165709500Y-83566000D03*
D10*
G36*
X167524691Y-83092053D02*
X167545926Y-83095203D01*
X167566750Y-83100419D01*
X167586962Y-83107651D01*
X167606368Y-83116830D01*
X167624781Y-83127866D01*
X167642024Y-83140654D01*
X167657930Y-83155070D01*
X167672346Y-83170976D01*
X167685134Y-83188219D01*
X167696170Y-83206632D01*
X167705349Y-83226038D01*
X167712581Y-83246250D01*
X167717797Y-83267074D01*
X167720947Y-83288309D01*
X167722000Y-83309750D01*
X167722000Y-83822250D01*
X167720947Y-83843691D01*
X167717797Y-83864926D01*
X167712581Y-83885750D01*
X167705349Y-83905962D01*
X167696170Y-83925368D01*
X167685134Y-83943781D01*
X167672346Y-83961024D01*
X167657930Y-83976930D01*
X167642024Y-83991346D01*
X167624781Y-84004134D01*
X167606368Y-84015170D01*
X167586962Y-84024349D01*
X167566750Y-84031581D01*
X167545926Y-84036797D01*
X167524691Y-84039947D01*
X167503250Y-84041000D01*
X167065750Y-84041000D01*
X167044309Y-84039947D01*
X167023074Y-84036797D01*
X167002250Y-84031581D01*
X166982038Y-84024349D01*
X166962632Y-84015170D01*
X166944219Y-84004134D01*
X166926976Y-83991346D01*
X166911070Y-83976930D01*
X166896654Y-83961024D01*
X166883866Y-83943781D01*
X166872830Y-83925368D01*
X166863651Y-83905962D01*
X166856419Y-83885750D01*
X166851203Y-83864926D01*
X166848053Y-83843691D01*
X166847000Y-83822250D01*
X166847000Y-83309750D01*
X166848053Y-83288309D01*
X166851203Y-83267074D01*
X166856419Y-83246250D01*
X166863651Y-83226038D01*
X166872830Y-83206632D01*
X166883866Y-83188219D01*
X166896654Y-83170976D01*
X166911070Y-83155070D01*
X166926976Y-83140654D01*
X166944219Y-83127866D01*
X166962632Y-83116830D01*
X166982038Y-83107651D01*
X167002250Y-83100419D01*
X167023074Y-83095203D01*
X167044309Y-83092053D01*
X167065750Y-83091000D01*
X167503250Y-83091000D01*
X167524691Y-83092053D01*
X167524691Y-83092053D01*
G37*
D11*
X167284500Y-83566000D03*
G04 #@! TD*
D10*
G04 #@! TO.C,C16*
G36*
X163663691Y-89188053D02*
X163684926Y-89191203D01*
X163705750Y-89196419D01*
X163725962Y-89203651D01*
X163745368Y-89212830D01*
X163763781Y-89223866D01*
X163781024Y-89236654D01*
X163796930Y-89251070D01*
X163811346Y-89266976D01*
X163824134Y-89284219D01*
X163835170Y-89302632D01*
X163844349Y-89322038D01*
X163851581Y-89342250D01*
X163856797Y-89363074D01*
X163859947Y-89384309D01*
X163861000Y-89405750D01*
X163861000Y-89918250D01*
X163859947Y-89939691D01*
X163856797Y-89960926D01*
X163851581Y-89981750D01*
X163844349Y-90001962D01*
X163835170Y-90021368D01*
X163824134Y-90039781D01*
X163811346Y-90057024D01*
X163796930Y-90072930D01*
X163781024Y-90087346D01*
X163763781Y-90100134D01*
X163745368Y-90111170D01*
X163725962Y-90120349D01*
X163705750Y-90127581D01*
X163684926Y-90132797D01*
X163663691Y-90135947D01*
X163642250Y-90137000D01*
X163204750Y-90137000D01*
X163183309Y-90135947D01*
X163162074Y-90132797D01*
X163141250Y-90127581D01*
X163121038Y-90120349D01*
X163101632Y-90111170D01*
X163083219Y-90100134D01*
X163065976Y-90087346D01*
X163050070Y-90072930D01*
X163035654Y-90057024D01*
X163022866Y-90039781D01*
X163011830Y-90021368D01*
X163002651Y-90001962D01*
X162995419Y-89981750D01*
X162990203Y-89960926D01*
X162987053Y-89939691D01*
X162986000Y-89918250D01*
X162986000Y-89405750D01*
X162987053Y-89384309D01*
X162990203Y-89363074D01*
X162995419Y-89342250D01*
X163002651Y-89322038D01*
X163011830Y-89302632D01*
X163022866Y-89284219D01*
X163035654Y-89266976D01*
X163050070Y-89251070D01*
X163065976Y-89236654D01*
X163083219Y-89223866D01*
X163101632Y-89212830D01*
X163121038Y-89203651D01*
X163141250Y-89196419D01*
X163162074Y-89191203D01*
X163183309Y-89188053D01*
X163204750Y-89187000D01*
X163642250Y-89187000D01*
X163663691Y-89188053D01*
X163663691Y-89188053D01*
G37*
D11*
X163423500Y-89662000D03*
D10*
G36*
X165238691Y-89188053D02*
X165259926Y-89191203D01*
X165280750Y-89196419D01*
X165300962Y-89203651D01*
X165320368Y-89212830D01*
X165338781Y-89223866D01*
X165356024Y-89236654D01*
X165371930Y-89251070D01*
X165386346Y-89266976D01*
X165399134Y-89284219D01*
X165410170Y-89302632D01*
X165419349Y-89322038D01*
X165426581Y-89342250D01*
X165431797Y-89363074D01*
X165434947Y-89384309D01*
X165436000Y-89405750D01*
X165436000Y-89918250D01*
X165434947Y-89939691D01*
X165431797Y-89960926D01*
X165426581Y-89981750D01*
X165419349Y-90001962D01*
X165410170Y-90021368D01*
X165399134Y-90039781D01*
X165386346Y-90057024D01*
X165371930Y-90072930D01*
X165356024Y-90087346D01*
X165338781Y-90100134D01*
X165320368Y-90111170D01*
X165300962Y-90120349D01*
X165280750Y-90127581D01*
X165259926Y-90132797D01*
X165238691Y-90135947D01*
X165217250Y-90137000D01*
X164779750Y-90137000D01*
X164758309Y-90135947D01*
X164737074Y-90132797D01*
X164716250Y-90127581D01*
X164696038Y-90120349D01*
X164676632Y-90111170D01*
X164658219Y-90100134D01*
X164640976Y-90087346D01*
X164625070Y-90072930D01*
X164610654Y-90057024D01*
X164597866Y-90039781D01*
X164586830Y-90021368D01*
X164577651Y-90001962D01*
X164570419Y-89981750D01*
X164565203Y-89960926D01*
X164562053Y-89939691D01*
X164561000Y-89918250D01*
X164561000Y-89405750D01*
X164562053Y-89384309D01*
X164565203Y-89363074D01*
X164570419Y-89342250D01*
X164577651Y-89322038D01*
X164586830Y-89302632D01*
X164597866Y-89284219D01*
X164610654Y-89266976D01*
X164625070Y-89251070D01*
X164640976Y-89236654D01*
X164658219Y-89223866D01*
X164676632Y-89212830D01*
X164696038Y-89203651D01*
X164716250Y-89196419D01*
X164737074Y-89191203D01*
X164758309Y-89188053D01*
X164779750Y-89187000D01*
X165217250Y-89187000D01*
X165238691Y-89188053D01*
X165238691Y-89188053D01*
G37*
D11*
X164998500Y-89662000D03*
G04 #@! TD*
D10*
G04 #@! TO.C,C18*
G36*
X159662691Y-92426053D02*
X159683926Y-92429203D01*
X159704750Y-92434419D01*
X159724962Y-92441651D01*
X159744368Y-92450830D01*
X159762781Y-92461866D01*
X159780024Y-92474654D01*
X159795930Y-92489070D01*
X159810346Y-92504976D01*
X159823134Y-92522219D01*
X159834170Y-92540632D01*
X159843349Y-92560038D01*
X159850581Y-92580250D01*
X159855797Y-92601074D01*
X159858947Y-92622309D01*
X159860000Y-92643750D01*
X159860000Y-93081250D01*
X159858947Y-93102691D01*
X159855797Y-93123926D01*
X159850581Y-93144750D01*
X159843349Y-93164962D01*
X159834170Y-93184368D01*
X159823134Y-93202781D01*
X159810346Y-93220024D01*
X159795930Y-93235930D01*
X159780024Y-93250346D01*
X159762781Y-93263134D01*
X159744368Y-93274170D01*
X159724962Y-93283349D01*
X159704750Y-93290581D01*
X159683926Y-93295797D01*
X159662691Y-93298947D01*
X159641250Y-93300000D01*
X159128750Y-93300000D01*
X159107309Y-93298947D01*
X159086074Y-93295797D01*
X159065250Y-93290581D01*
X159045038Y-93283349D01*
X159025632Y-93274170D01*
X159007219Y-93263134D01*
X158989976Y-93250346D01*
X158974070Y-93235930D01*
X158959654Y-93220024D01*
X158946866Y-93202781D01*
X158935830Y-93184368D01*
X158926651Y-93164962D01*
X158919419Y-93144750D01*
X158914203Y-93123926D01*
X158911053Y-93102691D01*
X158910000Y-93081250D01*
X158910000Y-92643750D01*
X158911053Y-92622309D01*
X158914203Y-92601074D01*
X158919419Y-92580250D01*
X158926651Y-92560038D01*
X158935830Y-92540632D01*
X158946866Y-92522219D01*
X158959654Y-92504976D01*
X158974070Y-92489070D01*
X158989976Y-92474654D01*
X159007219Y-92461866D01*
X159025632Y-92450830D01*
X159045038Y-92441651D01*
X159065250Y-92434419D01*
X159086074Y-92429203D01*
X159107309Y-92426053D01*
X159128750Y-92425000D01*
X159641250Y-92425000D01*
X159662691Y-92426053D01*
X159662691Y-92426053D01*
G37*
D11*
X159385000Y-92862500D03*
D10*
G36*
X159662691Y-90851053D02*
X159683926Y-90854203D01*
X159704750Y-90859419D01*
X159724962Y-90866651D01*
X159744368Y-90875830D01*
X159762781Y-90886866D01*
X159780024Y-90899654D01*
X159795930Y-90914070D01*
X159810346Y-90929976D01*
X159823134Y-90947219D01*
X159834170Y-90965632D01*
X159843349Y-90985038D01*
X159850581Y-91005250D01*
X159855797Y-91026074D01*
X159858947Y-91047309D01*
X159860000Y-91068750D01*
X159860000Y-91506250D01*
X159858947Y-91527691D01*
X159855797Y-91548926D01*
X159850581Y-91569750D01*
X159843349Y-91589962D01*
X159834170Y-91609368D01*
X159823134Y-91627781D01*
X159810346Y-91645024D01*
X159795930Y-91660930D01*
X159780024Y-91675346D01*
X159762781Y-91688134D01*
X159744368Y-91699170D01*
X159724962Y-91708349D01*
X159704750Y-91715581D01*
X159683926Y-91720797D01*
X159662691Y-91723947D01*
X159641250Y-91725000D01*
X159128750Y-91725000D01*
X159107309Y-91723947D01*
X159086074Y-91720797D01*
X159065250Y-91715581D01*
X159045038Y-91708349D01*
X159025632Y-91699170D01*
X159007219Y-91688134D01*
X158989976Y-91675346D01*
X158974070Y-91660930D01*
X158959654Y-91645024D01*
X158946866Y-91627781D01*
X158935830Y-91609368D01*
X158926651Y-91589962D01*
X158919419Y-91569750D01*
X158914203Y-91548926D01*
X158911053Y-91527691D01*
X158910000Y-91506250D01*
X158910000Y-91068750D01*
X158911053Y-91047309D01*
X158914203Y-91026074D01*
X158919419Y-91005250D01*
X158926651Y-90985038D01*
X158935830Y-90965632D01*
X158946866Y-90947219D01*
X158959654Y-90929976D01*
X158974070Y-90914070D01*
X158989976Y-90899654D01*
X159007219Y-90886866D01*
X159025632Y-90875830D01*
X159045038Y-90866651D01*
X159065250Y-90859419D01*
X159086074Y-90854203D01*
X159107309Y-90851053D01*
X159128750Y-90850000D01*
X159641250Y-90850000D01*
X159662691Y-90851053D01*
X159662691Y-90851053D01*
G37*
D11*
X159385000Y-91287500D03*
G04 #@! TD*
D12*
G04 #@! TO.C,J3*
X134366000Y-97790000D03*
D13*
X134366000Y-100330000D03*
X136906000Y-97790000D03*
X136906000Y-100330000D03*
X139446000Y-97790000D03*
X139446000Y-100330000D03*
X141986000Y-97790000D03*
X141986000Y-100330000D03*
X144526000Y-97790000D03*
X144526000Y-100330000D03*
X147066000Y-97790000D03*
X147066000Y-100330000D03*
X149606000Y-97790000D03*
X149606000Y-100330000D03*
X152146000Y-97790000D03*
X152146000Y-100330000D03*
X154686000Y-97790000D03*
X154686000Y-100330000D03*
X157226000Y-97790000D03*
X157226000Y-100330000D03*
X159766000Y-97790000D03*
X159766000Y-100330000D03*
X162306000Y-97790000D03*
X162306000Y-100330000D03*
X164846000Y-97790000D03*
X164846000Y-100330000D03*
X167386000Y-97790000D03*
X167386000Y-100330000D03*
X169926000Y-97790000D03*
X169926000Y-100330000D03*
X172466000Y-97790000D03*
X172466000Y-100330000D03*
X175006000Y-97790000D03*
X175006000Y-100330000D03*
X177546000Y-97790000D03*
X177546000Y-100330000D03*
G04 #@! TD*
D10*
G04 #@! TO.C,R1*
G36*
X135266691Y-93379053D02*
X135287926Y-93382203D01*
X135308750Y-93387419D01*
X135328962Y-93394651D01*
X135348368Y-93403830D01*
X135366781Y-93414866D01*
X135384024Y-93427654D01*
X135399930Y-93442070D01*
X135414346Y-93457976D01*
X135427134Y-93475219D01*
X135438170Y-93493632D01*
X135447349Y-93513038D01*
X135454581Y-93533250D01*
X135459797Y-93554074D01*
X135462947Y-93575309D01*
X135464000Y-93596750D01*
X135464000Y-94109250D01*
X135462947Y-94130691D01*
X135459797Y-94151926D01*
X135454581Y-94172750D01*
X135447349Y-94192962D01*
X135438170Y-94212368D01*
X135427134Y-94230781D01*
X135414346Y-94248024D01*
X135399930Y-94263930D01*
X135384024Y-94278346D01*
X135366781Y-94291134D01*
X135348368Y-94302170D01*
X135328962Y-94311349D01*
X135308750Y-94318581D01*
X135287926Y-94323797D01*
X135266691Y-94326947D01*
X135245250Y-94328000D01*
X134807750Y-94328000D01*
X134786309Y-94326947D01*
X134765074Y-94323797D01*
X134744250Y-94318581D01*
X134724038Y-94311349D01*
X134704632Y-94302170D01*
X134686219Y-94291134D01*
X134668976Y-94278346D01*
X134653070Y-94263930D01*
X134638654Y-94248024D01*
X134625866Y-94230781D01*
X134614830Y-94212368D01*
X134605651Y-94192962D01*
X134598419Y-94172750D01*
X134593203Y-94151926D01*
X134590053Y-94130691D01*
X134589000Y-94109250D01*
X134589000Y-93596750D01*
X134590053Y-93575309D01*
X134593203Y-93554074D01*
X134598419Y-93533250D01*
X134605651Y-93513038D01*
X134614830Y-93493632D01*
X134625866Y-93475219D01*
X134638654Y-93457976D01*
X134653070Y-93442070D01*
X134668976Y-93427654D01*
X134686219Y-93414866D01*
X134704632Y-93403830D01*
X134724038Y-93394651D01*
X134744250Y-93387419D01*
X134765074Y-93382203D01*
X134786309Y-93379053D01*
X134807750Y-93378000D01*
X135245250Y-93378000D01*
X135266691Y-93379053D01*
X135266691Y-93379053D01*
G37*
D11*
X135026500Y-93853000D03*
D10*
G36*
X133691691Y-93379053D02*
X133712926Y-93382203D01*
X133733750Y-93387419D01*
X133753962Y-93394651D01*
X133773368Y-93403830D01*
X133791781Y-93414866D01*
X133809024Y-93427654D01*
X133824930Y-93442070D01*
X133839346Y-93457976D01*
X133852134Y-93475219D01*
X133863170Y-93493632D01*
X133872349Y-93513038D01*
X133879581Y-93533250D01*
X133884797Y-93554074D01*
X133887947Y-93575309D01*
X133889000Y-93596750D01*
X133889000Y-94109250D01*
X133887947Y-94130691D01*
X133884797Y-94151926D01*
X133879581Y-94172750D01*
X133872349Y-94192962D01*
X133863170Y-94212368D01*
X133852134Y-94230781D01*
X133839346Y-94248024D01*
X133824930Y-94263930D01*
X133809024Y-94278346D01*
X133791781Y-94291134D01*
X133773368Y-94302170D01*
X133753962Y-94311349D01*
X133733750Y-94318581D01*
X133712926Y-94323797D01*
X133691691Y-94326947D01*
X133670250Y-94328000D01*
X133232750Y-94328000D01*
X133211309Y-94326947D01*
X133190074Y-94323797D01*
X133169250Y-94318581D01*
X133149038Y-94311349D01*
X133129632Y-94302170D01*
X133111219Y-94291134D01*
X133093976Y-94278346D01*
X133078070Y-94263930D01*
X133063654Y-94248024D01*
X133050866Y-94230781D01*
X133039830Y-94212368D01*
X133030651Y-94192962D01*
X133023419Y-94172750D01*
X133018203Y-94151926D01*
X133015053Y-94130691D01*
X133014000Y-94109250D01*
X133014000Y-93596750D01*
X133015053Y-93575309D01*
X133018203Y-93554074D01*
X133023419Y-93533250D01*
X133030651Y-93513038D01*
X133039830Y-93493632D01*
X133050866Y-93475219D01*
X133063654Y-93457976D01*
X133078070Y-93442070D01*
X133093976Y-93427654D01*
X133111219Y-93414866D01*
X133129632Y-93403830D01*
X133149038Y-93394651D01*
X133169250Y-93387419D01*
X133190074Y-93382203D01*
X133211309Y-93379053D01*
X133232750Y-93378000D01*
X133670250Y-93378000D01*
X133691691Y-93379053D01*
X133691691Y-93379053D01*
G37*
D11*
X133451500Y-93853000D03*
G04 #@! TD*
D10*
G04 #@! TO.C,R6*
G36*
X159726691Y-95030053D02*
X159747926Y-95033203D01*
X159768750Y-95038419D01*
X159788962Y-95045651D01*
X159808368Y-95054830D01*
X159826781Y-95065866D01*
X159844024Y-95078654D01*
X159859930Y-95093070D01*
X159874346Y-95108976D01*
X159887134Y-95126219D01*
X159898170Y-95144632D01*
X159907349Y-95164038D01*
X159914581Y-95184250D01*
X159919797Y-95205074D01*
X159922947Y-95226309D01*
X159924000Y-95247750D01*
X159924000Y-95760250D01*
X159922947Y-95781691D01*
X159919797Y-95802926D01*
X159914581Y-95823750D01*
X159907349Y-95843962D01*
X159898170Y-95863368D01*
X159887134Y-95881781D01*
X159874346Y-95899024D01*
X159859930Y-95914930D01*
X159844024Y-95929346D01*
X159826781Y-95942134D01*
X159808368Y-95953170D01*
X159788962Y-95962349D01*
X159768750Y-95969581D01*
X159747926Y-95974797D01*
X159726691Y-95977947D01*
X159705250Y-95979000D01*
X159267750Y-95979000D01*
X159246309Y-95977947D01*
X159225074Y-95974797D01*
X159204250Y-95969581D01*
X159184038Y-95962349D01*
X159164632Y-95953170D01*
X159146219Y-95942134D01*
X159128976Y-95929346D01*
X159113070Y-95914930D01*
X159098654Y-95899024D01*
X159085866Y-95881781D01*
X159074830Y-95863368D01*
X159065651Y-95843962D01*
X159058419Y-95823750D01*
X159053203Y-95802926D01*
X159050053Y-95781691D01*
X159049000Y-95760250D01*
X159049000Y-95247750D01*
X159050053Y-95226309D01*
X159053203Y-95205074D01*
X159058419Y-95184250D01*
X159065651Y-95164038D01*
X159074830Y-95144632D01*
X159085866Y-95126219D01*
X159098654Y-95108976D01*
X159113070Y-95093070D01*
X159128976Y-95078654D01*
X159146219Y-95065866D01*
X159164632Y-95054830D01*
X159184038Y-95045651D01*
X159204250Y-95038419D01*
X159225074Y-95033203D01*
X159246309Y-95030053D01*
X159267750Y-95029000D01*
X159705250Y-95029000D01*
X159726691Y-95030053D01*
X159726691Y-95030053D01*
G37*
D11*
X159486500Y-95504000D03*
D10*
G36*
X161301691Y-95030053D02*
X161322926Y-95033203D01*
X161343750Y-95038419D01*
X161363962Y-95045651D01*
X161383368Y-95054830D01*
X161401781Y-95065866D01*
X161419024Y-95078654D01*
X161434930Y-95093070D01*
X161449346Y-95108976D01*
X161462134Y-95126219D01*
X161473170Y-95144632D01*
X161482349Y-95164038D01*
X161489581Y-95184250D01*
X161494797Y-95205074D01*
X161497947Y-95226309D01*
X161499000Y-95247750D01*
X161499000Y-95760250D01*
X161497947Y-95781691D01*
X161494797Y-95802926D01*
X161489581Y-95823750D01*
X161482349Y-95843962D01*
X161473170Y-95863368D01*
X161462134Y-95881781D01*
X161449346Y-95899024D01*
X161434930Y-95914930D01*
X161419024Y-95929346D01*
X161401781Y-95942134D01*
X161383368Y-95953170D01*
X161363962Y-95962349D01*
X161343750Y-95969581D01*
X161322926Y-95974797D01*
X161301691Y-95977947D01*
X161280250Y-95979000D01*
X160842750Y-95979000D01*
X160821309Y-95977947D01*
X160800074Y-95974797D01*
X160779250Y-95969581D01*
X160759038Y-95962349D01*
X160739632Y-95953170D01*
X160721219Y-95942134D01*
X160703976Y-95929346D01*
X160688070Y-95914930D01*
X160673654Y-95899024D01*
X160660866Y-95881781D01*
X160649830Y-95863368D01*
X160640651Y-95843962D01*
X160633419Y-95823750D01*
X160628203Y-95802926D01*
X160625053Y-95781691D01*
X160624000Y-95760250D01*
X160624000Y-95247750D01*
X160625053Y-95226309D01*
X160628203Y-95205074D01*
X160633419Y-95184250D01*
X160640651Y-95164038D01*
X160649830Y-95144632D01*
X160660866Y-95126219D01*
X160673654Y-95108976D01*
X160688070Y-95093070D01*
X160703976Y-95078654D01*
X160721219Y-95065866D01*
X160739632Y-95054830D01*
X160759038Y-95045651D01*
X160779250Y-95038419D01*
X160800074Y-95033203D01*
X160821309Y-95030053D01*
X160842750Y-95029000D01*
X161280250Y-95029000D01*
X161301691Y-95030053D01*
X161301691Y-95030053D01*
G37*
D11*
X161061500Y-95504000D03*
G04 #@! TD*
D10*
G04 #@! TO.C,R7*
G36*
X164603691Y-95030053D02*
X164624926Y-95033203D01*
X164645750Y-95038419D01*
X164665962Y-95045651D01*
X164685368Y-95054830D01*
X164703781Y-95065866D01*
X164721024Y-95078654D01*
X164736930Y-95093070D01*
X164751346Y-95108976D01*
X164764134Y-95126219D01*
X164775170Y-95144632D01*
X164784349Y-95164038D01*
X164791581Y-95184250D01*
X164796797Y-95205074D01*
X164799947Y-95226309D01*
X164801000Y-95247750D01*
X164801000Y-95760250D01*
X164799947Y-95781691D01*
X164796797Y-95802926D01*
X164791581Y-95823750D01*
X164784349Y-95843962D01*
X164775170Y-95863368D01*
X164764134Y-95881781D01*
X164751346Y-95899024D01*
X164736930Y-95914930D01*
X164721024Y-95929346D01*
X164703781Y-95942134D01*
X164685368Y-95953170D01*
X164665962Y-95962349D01*
X164645750Y-95969581D01*
X164624926Y-95974797D01*
X164603691Y-95977947D01*
X164582250Y-95979000D01*
X164144750Y-95979000D01*
X164123309Y-95977947D01*
X164102074Y-95974797D01*
X164081250Y-95969581D01*
X164061038Y-95962349D01*
X164041632Y-95953170D01*
X164023219Y-95942134D01*
X164005976Y-95929346D01*
X163990070Y-95914930D01*
X163975654Y-95899024D01*
X163962866Y-95881781D01*
X163951830Y-95863368D01*
X163942651Y-95843962D01*
X163935419Y-95823750D01*
X163930203Y-95802926D01*
X163927053Y-95781691D01*
X163926000Y-95760250D01*
X163926000Y-95247750D01*
X163927053Y-95226309D01*
X163930203Y-95205074D01*
X163935419Y-95184250D01*
X163942651Y-95164038D01*
X163951830Y-95144632D01*
X163962866Y-95126219D01*
X163975654Y-95108976D01*
X163990070Y-95093070D01*
X164005976Y-95078654D01*
X164023219Y-95065866D01*
X164041632Y-95054830D01*
X164061038Y-95045651D01*
X164081250Y-95038419D01*
X164102074Y-95033203D01*
X164123309Y-95030053D01*
X164144750Y-95029000D01*
X164582250Y-95029000D01*
X164603691Y-95030053D01*
X164603691Y-95030053D01*
G37*
D11*
X164363500Y-95504000D03*
D10*
G36*
X163028691Y-95030053D02*
X163049926Y-95033203D01*
X163070750Y-95038419D01*
X163090962Y-95045651D01*
X163110368Y-95054830D01*
X163128781Y-95065866D01*
X163146024Y-95078654D01*
X163161930Y-95093070D01*
X163176346Y-95108976D01*
X163189134Y-95126219D01*
X163200170Y-95144632D01*
X163209349Y-95164038D01*
X163216581Y-95184250D01*
X163221797Y-95205074D01*
X163224947Y-95226309D01*
X163226000Y-95247750D01*
X163226000Y-95760250D01*
X163224947Y-95781691D01*
X163221797Y-95802926D01*
X163216581Y-95823750D01*
X163209349Y-95843962D01*
X163200170Y-95863368D01*
X163189134Y-95881781D01*
X163176346Y-95899024D01*
X163161930Y-95914930D01*
X163146024Y-95929346D01*
X163128781Y-95942134D01*
X163110368Y-95953170D01*
X163090962Y-95962349D01*
X163070750Y-95969581D01*
X163049926Y-95974797D01*
X163028691Y-95977947D01*
X163007250Y-95979000D01*
X162569750Y-95979000D01*
X162548309Y-95977947D01*
X162527074Y-95974797D01*
X162506250Y-95969581D01*
X162486038Y-95962349D01*
X162466632Y-95953170D01*
X162448219Y-95942134D01*
X162430976Y-95929346D01*
X162415070Y-95914930D01*
X162400654Y-95899024D01*
X162387866Y-95881781D01*
X162376830Y-95863368D01*
X162367651Y-95843962D01*
X162360419Y-95823750D01*
X162355203Y-95802926D01*
X162352053Y-95781691D01*
X162351000Y-95760250D01*
X162351000Y-95247750D01*
X162352053Y-95226309D01*
X162355203Y-95205074D01*
X162360419Y-95184250D01*
X162367651Y-95164038D01*
X162376830Y-95144632D01*
X162387866Y-95126219D01*
X162400654Y-95108976D01*
X162415070Y-95093070D01*
X162430976Y-95078654D01*
X162448219Y-95065866D01*
X162466632Y-95054830D01*
X162486038Y-95045651D01*
X162506250Y-95038419D01*
X162527074Y-95033203D01*
X162548309Y-95030053D01*
X162569750Y-95029000D01*
X163007250Y-95029000D01*
X163028691Y-95030053D01*
X163028691Y-95030053D01*
G37*
D11*
X162788500Y-95504000D03*
G04 #@! TD*
D10*
G04 #@! TO.C,R8*
G36*
X152157691Y-95157053D02*
X152178926Y-95160203D01*
X152199750Y-95165419D01*
X152219962Y-95172651D01*
X152239368Y-95181830D01*
X152257781Y-95192866D01*
X152275024Y-95205654D01*
X152290930Y-95220070D01*
X152305346Y-95235976D01*
X152318134Y-95253219D01*
X152329170Y-95271632D01*
X152338349Y-95291038D01*
X152345581Y-95311250D01*
X152350797Y-95332074D01*
X152353947Y-95353309D01*
X152355000Y-95374750D01*
X152355000Y-95887250D01*
X152353947Y-95908691D01*
X152350797Y-95929926D01*
X152345581Y-95950750D01*
X152338349Y-95970962D01*
X152329170Y-95990368D01*
X152318134Y-96008781D01*
X152305346Y-96026024D01*
X152290930Y-96041930D01*
X152275024Y-96056346D01*
X152257781Y-96069134D01*
X152239368Y-96080170D01*
X152219962Y-96089349D01*
X152199750Y-96096581D01*
X152178926Y-96101797D01*
X152157691Y-96104947D01*
X152136250Y-96106000D01*
X151698750Y-96106000D01*
X151677309Y-96104947D01*
X151656074Y-96101797D01*
X151635250Y-96096581D01*
X151615038Y-96089349D01*
X151595632Y-96080170D01*
X151577219Y-96069134D01*
X151559976Y-96056346D01*
X151544070Y-96041930D01*
X151529654Y-96026024D01*
X151516866Y-96008781D01*
X151505830Y-95990368D01*
X151496651Y-95970962D01*
X151489419Y-95950750D01*
X151484203Y-95929926D01*
X151481053Y-95908691D01*
X151480000Y-95887250D01*
X151480000Y-95374750D01*
X151481053Y-95353309D01*
X151484203Y-95332074D01*
X151489419Y-95311250D01*
X151496651Y-95291038D01*
X151505830Y-95271632D01*
X151516866Y-95253219D01*
X151529654Y-95235976D01*
X151544070Y-95220070D01*
X151559976Y-95205654D01*
X151577219Y-95192866D01*
X151595632Y-95181830D01*
X151615038Y-95172651D01*
X151635250Y-95165419D01*
X151656074Y-95160203D01*
X151677309Y-95157053D01*
X151698750Y-95156000D01*
X152136250Y-95156000D01*
X152157691Y-95157053D01*
X152157691Y-95157053D01*
G37*
D11*
X151917500Y-95631000D03*
D10*
G36*
X150582691Y-95157053D02*
X150603926Y-95160203D01*
X150624750Y-95165419D01*
X150644962Y-95172651D01*
X150664368Y-95181830D01*
X150682781Y-95192866D01*
X150700024Y-95205654D01*
X150715930Y-95220070D01*
X150730346Y-95235976D01*
X150743134Y-95253219D01*
X150754170Y-95271632D01*
X150763349Y-95291038D01*
X150770581Y-95311250D01*
X150775797Y-95332074D01*
X150778947Y-95353309D01*
X150780000Y-95374750D01*
X150780000Y-95887250D01*
X150778947Y-95908691D01*
X150775797Y-95929926D01*
X150770581Y-95950750D01*
X150763349Y-95970962D01*
X150754170Y-95990368D01*
X150743134Y-96008781D01*
X150730346Y-96026024D01*
X150715930Y-96041930D01*
X150700024Y-96056346D01*
X150682781Y-96069134D01*
X150664368Y-96080170D01*
X150644962Y-96089349D01*
X150624750Y-96096581D01*
X150603926Y-96101797D01*
X150582691Y-96104947D01*
X150561250Y-96106000D01*
X150123750Y-96106000D01*
X150102309Y-96104947D01*
X150081074Y-96101797D01*
X150060250Y-96096581D01*
X150040038Y-96089349D01*
X150020632Y-96080170D01*
X150002219Y-96069134D01*
X149984976Y-96056346D01*
X149969070Y-96041930D01*
X149954654Y-96026024D01*
X149941866Y-96008781D01*
X149930830Y-95990368D01*
X149921651Y-95970962D01*
X149914419Y-95950750D01*
X149909203Y-95929926D01*
X149906053Y-95908691D01*
X149905000Y-95887250D01*
X149905000Y-95374750D01*
X149906053Y-95353309D01*
X149909203Y-95332074D01*
X149914419Y-95311250D01*
X149921651Y-95291038D01*
X149930830Y-95271632D01*
X149941866Y-95253219D01*
X149954654Y-95235976D01*
X149969070Y-95220070D01*
X149984976Y-95205654D01*
X150002219Y-95192866D01*
X150020632Y-95181830D01*
X150040038Y-95172651D01*
X150060250Y-95165419D01*
X150081074Y-95160203D01*
X150102309Y-95157053D01*
X150123750Y-95156000D01*
X150561250Y-95156000D01*
X150582691Y-95157053D01*
X150582691Y-95157053D01*
G37*
D11*
X150342500Y-95631000D03*
G04 #@! TD*
D10*
G04 #@! TO.C,R9*
G36*
X150582691Y-93633053D02*
X150603926Y-93636203D01*
X150624750Y-93641419D01*
X150644962Y-93648651D01*
X150664368Y-93657830D01*
X150682781Y-93668866D01*
X150700024Y-93681654D01*
X150715930Y-93696070D01*
X150730346Y-93711976D01*
X150743134Y-93729219D01*
X150754170Y-93747632D01*
X150763349Y-93767038D01*
X150770581Y-93787250D01*
X150775797Y-93808074D01*
X150778947Y-93829309D01*
X150780000Y-93850750D01*
X150780000Y-94363250D01*
X150778947Y-94384691D01*
X150775797Y-94405926D01*
X150770581Y-94426750D01*
X150763349Y-94446962D01*
X150754170Y-94466368D01*
X150743134Y-94484781D01*
X150730346Y-94502024D01*
X150715930Y-94517930D01*
X150700024Y-94532346D01*
X150682781Y-94545134D01*
X150664368Y-94556170D01*
X150644962Y-94565349D01*
X150624750Y-94572581D01*
X150603926Y-94577797D01*
X150582691Y-94580947D01*
X150561250Y-94582000D01*
X150123750Y-94582000D01*
X150102309Y-94580947D01*
X150081074Y-94577797D01*
X150060250Y-94572581D01*
X150040038Y-94565349D01*
X150020632Y-94556170D01*
X150002219Y-94545134D01*
X149984976Y-94532346D01*
X149969070Y-94517930D01*
X149954654Y-94502024D01*
X149941866Y-94484781D01*
X149930830Y-94466368D01*
X149921651Y-94446962D01*
X149914419Y-94426750D01*
X149909203Y-94405926D01*
X149906053Y-94384691D01*
X149905000Y-94363250D01*
X149905000Y-93850750D01*
X149906053Y-93829309D01*
X149909203Y-93808074D01*
X149914419Y-93787250D01*
X149921651Y-93767038D01*
X149930830Y-93747632D01*
X149941866Y-93729219D01*
X149954654Y-93711976D01*
X149969070Y-93696070D01*
X149984976Y-93681654D01*
X150002219Y-93668866D01*
X150020632Y-93657830D01*
X150040038Y-93648651D01*
X150060250Y-93641419D01*
X150081074Y-93636203D01*
X150102309Y-93633053D01*
X150123750Y-93632000D01*
X150561250Y-93632000D01*
X150582691Y-93633053D01*
X150582691Y-93633053D01*
G37*
D11*
X150342500Y-94107000D03*
D10*
G36*
X152157691Y-93633053D02*
X152178926Y-93636203D01*
X152199750Y-93641419D01*
X152219962Y-93648651D01*
X152239368Y-93657830D01*
X152257781Y-93668866D01*
X152275024Y-93681654D01*
X152290930Y-93696070D01*
X152305346Y-93711976D01*
X152318134Y-93729219D01*
X152329170Y-93747632D01*
X152338349Y-93767038D01*
X152345581Y-93787250D01*
X152350797Y-93808074D01*
X152353947Y-93829309D01*
X152355000Y-93850750D01*
X152355000Y-94363250D01*
X152353947Y-94384691D01*
X152350797Y-94405926D01*
X152345581Y-94426750D01*
X152338349Y-94446962D01*
X152329170Y-94466368D01*
X152318134Y-94484781D01*
X152305346Y-94502024D01*
X152290930Y-94517930D01*
X152275024Y-94532346D01*
X152257781Y-94545134D01*
X152239368Y-94556170D01*
X152219962Y-94565349D01*
X152199750Y-94572581D01*
X152178926Y-94577797D01*
X152157691Y-94580947D01*
X152136250Y-94582000D01*
X151698750Y-94582000D01*
X151677309Y-94580947D01*
X151656074Y-94577797D01*
X151635250Y-94572581D01*
X151615038Y-94565349D01*
X151595632Y-94556170D01*
X151577219Y-94545134D01*
X151559976Y-94532346D01*
X151544070Y-94517930D01*
X151529654Y-94502024D01*
X151516866Y-94484781D01*
X151505830Y-94466368D01*
X151496651Y-94446962D01*
X151489419Y-94426750D01*
X151484203Y-94405926D01*
X151481053Y-94384691D01*
X151480000Y-94363250D01*
X151480000Y-93850750D01*
X151481053Y-93829309D01*
X151484203Y-93808074D01*
X151489419Y-93787250D01*
X151496651Y-93767038D01*
X151505830Y-93747632D01*
X151516866Y-93729219D01*
X151529654Y-93711976D01*
X151544070Y-93696070D01*
X151559976Y-93681654D01*
X151577219Y-93668866D01*
X151595632Y-93657830D01*
X151615038Y-93648651D01*
X151635250Y-93641419D01*
X151656074Y-93636203D01*
X151677309Y-93633053D01*
X151698750Y-93632000D01*
X152136250Y-93632000D01*
X152157691Y-93633053D01*
X152157691Y-93633053D01*
G37*
D11*
X151917500Y-94107000D03*
G04 #@! TD*
D10*
G04 #@! TO.C,R10*
G36*
X180490691Y-82901053D02*
X180511926Y-82904203D01*
X180532750Y-82909419D01*
X180552962Y-82916651D01*
X180572368Y-82925830D01*
X180590781Y-82936866D01*
X180608024Y-82949654D01*
X180623930Y-82964070D01*
X180638346Y-82979976D01*
X180651134Y-82997219D01*
X180662170Y-83015632D01*
X180671349Y-83035038D01*
X180678581Y-83055250D01*
X180683797Y-83076074D01*
X180686947Y-83097309D01*
X180688000Y-83118750D01*
X180688000Y-83556250D01*
X180686947Y-83577691D01*
X180683797Y-83598926D01*
X180678581Y-83619750D01*
X180671349Y-83639962D01*
X180662170Y-83659368D01*
X180651134Y-83677781D01*
X180638346Y-83695024D01*
X180623930Y-83710930D01*
X180608024Y-83725346D01*
X180590781Y-83738134D01*
X180572368Y-83749170D01*
X180552962Y-83758349D01*
X180532750Y-83765581D01*
X180511926Y-83770797D01*
X180490691Y-83773947D01*
X180469250Y-83775000D01*
X179956750Y-83775000D01*
X179935309Y-83773947D01*
X179914074Y-83770797D01*
X179893250Y-83765581D01*
X179873038Y-83758349D01*
X179853632Y-83749170D01*
X179835219Y-83738134D01*
X179817976Y-83725346D01*
X179802070Y-83710930D01*
X179787654Y-83695024D01*
X179774866Y-83677781D01*
X179763830Y-83659368D01*
X179754651Y-83639962D01*
X179747419Y-83619750D01*
X179742203Y-83598926D01*
X179739053Y-83577691D01*
X179738000Y-83556250D01*
X179738000Y-83118750D01*
X179739053Y-83097309D01*
X179742203Y-83076074D01*
X179747419Y-83055250D01*
X179754651Y-83035038D01*
X179763830Y-83015632D01*
X179774866Y-82997219D01*
X179787654Y-82979976D01*
X179802070Y-82964070D01*
X179817976Y-82949654D01*
X179835219Y-82936866D01*
X179853632Y-82925830D01*
X179873038Y-82916651D01*
X179893250Y-82909419D01*
X179914074Y-82904203D01*
X179935309Y-82901053D01*
X179956750Y-82900000D01*
X180469250Y-82900000D01*
X180490691Y-82901053D01*
X180490691Y-82901053D01*
G37*
D11*
X180213000Y-83337500D03*
D10*
G36*
X180490691Y-81326053D02*
X180511926Y-81329203D01*
X180532750Y-81334419D01*
X180552962Y-81341651D01*
X180572368Y-81350830D01*
X180590781Y-81361866D01*
X180608024Y-81374654D01*
X180623930Y-81389070D01*
X180638346Y-81404976D01*
X180651134Y-81422219D01*
X180662170Y-81440632D01*
X180671349Y-81460038D01*
X180678581Y-81480250D01*
X180683797Y-81501074D01*
X180686947Y-81522309D01*
X180688000Y-81543750D01*
X180688000Y-81981250D01*
X180686947Y-82002691D01*
X180683797Y-82023926D01*
X180678581Y-82044750D01*
X180671349Y-82064962D01*
X180662170Y-82084368D01*
X180651134Y-82102781D01*
X180638346Y-82120024D01*
X180623930Y-82135930D01*
X180608024Y-82150346D01*
X180590781Y-82163134D01*
X180572368Y-82174170D01*
X180552962Y-82183349D01*
X180532750Y-82190581D01*
X180511926Y-82195797D01*
X180490691Y-82198947D01*
X180469250Y-82200000D01*
X179956750Y-82200000D01*
X179935309Y-82198947D01*
X179914074Y-82195797D01*
X179893250Y-82190581D01*
X179873038Y-82183349D01*
X179853632Y-82174170D01*
X179835219Y-82163134D01*
X179817976Y-82150346D01*
X179802070Y-82135930D01*
X179787654Y-82120024D01*
X179774866Y-82102781D01*
X179763830Y-82084368D01*
X179754651Y-82064962D01*
X179747419Y-82044750D01*
X179742203Y-82023926D01*
X179739053Y-82002691D01*
X179738000Y-81981250D01*
X179738000Y-81543750D01*
X179739053Y-81522309D01*
X179742203Y-81501074D01*
X179747419Y-81480250D01*
X179754651Y-81460038D01*
X179763830Y-81440632D01*
X179774866Y-81422219D01*
X179787654Y-81404976D01*
X179802070Y-81389070D01*
X179817976Y-81374654D01*
X179835219Y-81361866D01*
X179853632Y-81350830D01*
X179873038Y-81341651D01*
X179893250Y-81334419D01*
X179914074Y-81329203D01*
X179935309Y-81326053D01*
X179956750Y-81325000D01*
X180469250Y-81325000D01*
X180490691Y-81326053D01*
X180490691Y-81326053D01*
G37*
D11*
X180213000Y-81762500D03*
G04 #@! TD*
D10*
G04 #@! TO.C,R11*
G36*
X177188691Y-80107053D02*
X177209926Y-80110203D01*
X177230750Y-80115419D01*
X177250962Y-80122651D01*
X177270368Y-80131830D01*
X177288781Y-80142866D01*
X177306024Y-80155654D01*
X177321930Y-80170070D01*
X177336346Y-80185976D01*
X177349134Y-80203219D01*
X177360170Y-80221632D01*
X177369349Y-80241038D01*
X177376581Y-80261250D01*
X177381797Y-80282074D01*
X177384947Y-80303309D01*
X177386000Y-80324750D01*
X177386000Y-80762250D01*
X177384947Y-80783691D01*
X177381797Y-80804926D01*
X177376581Y-80825750D01*
X177369349Y-80845962D01*
X177360170Y-80865368D01*
X177349134Y-80883781D01*
X177336346Y-80901024D01*
X177321930Y-80916930D01*
X177306024Y-80931346D01*
X177288781Y-80944134D01*
X177270368Y-80955170D01*
X177250962Y-80964349D01*
X177230750Y-80971581D01*
X177209926Y-80976797D01*
X177188691Y-80979947D01*
X177167250Y-80981000D01*
X176654750Y-80981000D01*
X176633309Y-80979947D01*
X176612074Y-80976797D01*
X176591250Y-80971581D01*
X176571038Y-80964349D01*
X176551632Y-80955170D01*
X176533219Y-80944134D01*
X176515976Y-80931346D01*
X176500070Y-80916930D01*
X176485654Y-80901024D01*
X176472866Y-80883781D01*
X176461830Y-80865368D01*
X176452651Y-80845962D01*
X176445419Y-80825750D01*
X176440203Y-80804926D01*
X176437053Y-80783691D01*
X176436000Y-80762250D01*
X176436000Y-80324750D01*
X176437053Y-80303309D01*
X176440203Y-80282074D01*
X176445419Y-80261250D01*
X176452651Y-80241038D01*
X176461830Y-80221632D01*
X176472866Y-80203219D01*
X176485654Y-80185976D01*
X176500070Y-80170070D01*
X176515976Y-80155654D01*
X176533219Y-80142866D01*
X176551632Y-80131830D01*
X176571038Y-80122651D01*
X176591250Y-80115419D01*
X176612074Y-80110203D01*
X176633309Y-80107053D01*
X176654750Y-80106000D01*
X177167250Y-80106000D01*
X177188691Y-80107053D01*
X177188691Y-80107053D01*
G37*
D11*
X176911000Y-80543500D03*
D10*
G36*
X177188691Y-78532053D02*
X177209926Y-78535203D01*
X177230750Y-78540419D01*
X177250962Y-78547651D01*
X177270368Y-78556830D01*
X177288781Y-78567866D01*
X177306024Y-78580654D01*
X177321930Y-78595070D01*
X177336346Y-78610976D01*
X177349134Y-78628219D01*
X177360170Y-78646632D01*
X177369349Y-78666038D01*
X177376581Y-78686250D01*
X177381797Y-78707074D01*
X177384947Y-78728309D01*
X177386000Y-78749750D01*
X177386000Y-79187250D01*
X177384947Y-79208691D01*
X177381797Y-79229926D01*
X177376581Y-79250750D01*
X177369349Y-79270962D01*
X177360170Y-79290368D01*
X177349134Y-79308781D01*
X177336346Y-79326024D01*
X177321930Y-79341930D01*
X177306024Y-79356346D01*
X177288781Y-79369134D01*
X177270368Y-79380170D01*
X177250962Y-79389349D01*
X177230750Y-79396581D01*
X177209926Y-79401797D01*
X177188691Y-79404947D01*
X177167250Y-79406000D01*
X176654750Y-79406000D01*
X176633309Y-79404947D01*
X176612074Y-79401797D01*
X176591250Y-79396581D01*
X176571038Y-79389349D01*
X176551632Y-79380170D01*
X176533219Y-79369134D01*
X176515976Y-79356346D01*
X176500070Y-79341930D01*
X176485654Y-79326024D01*
X176472866Y-79308781D01*
X176461830Y-79290368D01*
X176452651Y-79270962D01*
X176445419Y-79250750D01*
X176440203Y-79229926D01*
X176437053Y-79208691D01*
X176436000Y-79187250D01*
X176436000Y-78749750D01*
X176437053Y-78728309D01*
X176440203Y-78707074D01*
X176445419Y-78686250D01*
X176452651Y-78666038D01*
X176461830Y-78646632D01*
X176472866Y-78628219D01*
X176485654Y-78610976D01*
X176500070Y-78595070D01*
X176515976Y-78580654D01*
X176533219Y-78567866D01*
X176551632Y-78556830D01*
X176571038Y-78547651D01*
X176591250Y-78540419D01*
X176612074Y-78535203D01*
X176633309Y-78532053D01*
X176654750Y-78531000D01*
X177167250Y-78531000D01*
X177188691Y-78532053D01*
X177188691Y-78532053D01*
G37*
D11*
X176911000Y-78968500D03*
G04 #@! TD*
D10*
G04 #@! TO.C,R12*
G36*
X178966691Y-81326053D02*
X178987926Y-81329203D01*
X179008750Y-81334419D01*
X179028962Y-81341651D01*
X179048368Y-81350830D01*
X179066781Y-81361866D01*
X179084024Y-81374654D01*
X179099930Y-81389070D01*
X179114346Y-81404976D01*
X179127134Y-81422219D01*
X179138170Y-81440632D01*
X179147349Y-81460038D01*
X179154581Y-81480250D01*
X179159797Y-81501074D01*
X179162947Y-81522309D01*
X179164000Y-81543750D01*
X179164000Y-81981250D01*
X179162947Y-82002691D01*
X179159797Y-82023926D01*
X179154581Y-82044750D01*
X179147349Y-82064962D01*
X179138170Y-82084368D01*
X179127134Y-82102781D01*
X179114346Y-82120024D01*
X179099930Y-82135930D01*
X179084024Y-82150346D01*
X179066781Y-82163134D01*
X179048368Y-82174170D01*
X179028962Y-82183349D01*
X179008750Y-82190581D01*
X178987926Y-82195797D01*
X178966691Y-82198947D01*
X178945250Y-82200000D01*
X178432750Y-82200000D01*
X178411309Y-82198947D01*
X178390074Y-82195797D01*
X178369250Y-82190581D01*
X178349038Y-82183349D01*
X178329632Y-82174170D01*
X178311219Y-82163134D01*
X178293976Y-82150346D01*
X178278070Y-82135930D01*
X178263654Y-82120024D01*
X178250866Y-82102781D01*
X178239830Y-82084368D01*
X178230651Y-82064962D01*
X178223419Y-82044750D01*
X178218203Y-82023926D01*
X178215053Y-82002691D01*
X178214000Y-81981250D01*
X178214000Y-81543750D01*
X178215053Y-81522309D01*
X178218203Y-81501074D01*
X178223419Y-81480250D01*
X178230651Y-81460038D01*
X178239830Y-81440632D01*
X178250866Y-81422219D01*
X178263654Y-81404976D01*
X178278070Y-81389070D01*
X178293976Y-81374654D01*
X178311219Y-81361866D01*
X178329632Y-81350830D01*
X178349038Y-81341651D01*
X178369250Y-81334419D01*
X178390074Y-81329203D01*
X178411309Y-81326053D01*
X178432750Y-81325000D01*
X178945250Y-81325000D01*
X178966691Y-81326053D01*
X178966691Y-81326053D01*
G37*
D11*
X178689000Y-81762500D03*
D10*
G36*
X178966691Y-82901053D02*
X178987926Y-82904203D01*
X179008750Y-82909419D01*
X179028962Y-82916651D01*
X179048368Y-82925830D01*
X179066781Y-82936866D01*
X179084024Y-82949654D01*
X179099930Y-82964070D01*
X179114346Y-82979976D01*
X179127134Y-82997219D01*
X179138170Y-83015632D01*
X179147349Y-83035038D01*
X179154581Y-83055250D01*
X179159797Y-83076074D01*
X179162947Y-83097309D01*
X179164000Y-83118750D01*
X179164000Y-83556250D01*
X179162947Y-83577691D01*
X179159797Y-83598926D01*
X179154581Y-83619750D01*
X179147349Y-83639962D01*
X179138170Y-83659368D01*
X179127134Y-83677781D01*
X179114346Y-83695024D01*
X179099930Y-83710930D01*
X179084024Y-83725346D01*
X179066781Y-83738134D01*
X179048368Y-83749170D01*
X179028962Y-83758349D01*
X179008750Y-83765581D01*
X178987926Y-83770797D01*
X178966691Y-83773947D01*
X178945250Y-83775000D01*
X178432750Y-83775000D01*
X178411309Y-83773947D01*
X178390074Y-83770797D01*
X178369250Y-83765581D01*
X178349038Y-83758349D01*
X178329632Y-83749170D01*
X178311219Y-83738134D01*
X178293976Y-83725346D01*
X178278070Y-83710930D01*
X178263654Y-83695024D01*
X178250866Y-83677781D01*
X178239830Y-83659368D01*
X178230651Y-83639962D01*
X178223419Y-83619750D01*
X178218203Y-83598926D01*
X178215053Y-83577691D01*
X178214000Y-83556250D01*
X178214000Y-83118750D01*
X178215053Y-83097309D01*
X178218203Y-83076074D01*
X178223419Y-83055250D01*
X178230651Y-83035038D01*
X178239830Y-83015632D01*
X178250866Y-82997219D01*
X178263654Y-82979976D01*
X178278070Y-82964070D01*
X178293976Y-82949654D01*
X178311219Y-82936866D01*
X178329632Y-82925830D01*
X178349038Y-82916651D01*
X178369250Y-82909419D01*
X178390074Y-82904203D01*
X178411309Y-82901053D01*
X178432750Y-82900000D01*
X178945250Y-82900000D01*
X178966691Y-82901053D01*
X178966691Y-82901053D01*
G37*
D11*
X178689000Y-83337500D03*
G04 #@! TD*
D10*
G04 #@! TO.C,R13*
G36*
X175664691Y-78532053D02*
X175685926Y-78535203D01*
X175706750Y-78540419D01*
X175726962Y-78547651D01*
X175746368Y-78556830D01*
X175764781Y-78567866D01*
X175782024Y-78580654D01*
X175797930Y-78595070D01*
X175812346Y-78610976D01*
X175825134Y-78628219D01*
X175836170Y-78646632D01*
X175845349Y-78666038D01*
X175852581Y-78686250D01*
X175857797Y-78707074D01*
X175860947Y-78728309D01*
X175862000Y-78749750D01*
X175862000Y-79187250D01*
X175860947Y-79208691D01*
X175857797Y-79229926D01*
X175852581Y-79250750D01*
X175845349Y-79270962D01*
X175836170Y-79290368D01*
X175825134Y-79308781D01*
X175812346Y-79326024D01*
X175797930Y-79341930D01*
X175782024Y-79356346D01*
X175764781Y-79369134D01*
X175746368Y-79380170D01*
X175726962Y-79389349D01*
X175706750Y-79396581D01*
X175685926Y-79401797D01*
X175664691Y-79404947D01*
X175643250Y-79406000D01*
X175130750Y-79406000D01*
X175109309Y-79404947D01*
X175088074Y-79401797D01*
X175067250Y-79396581D01*
X175047038Y-79389349D01*
X175027632Y-79380170D01*
X175009219Y-79369134D01*
X174991976Y-79356346D01*
X174976070Y-79341930D01*
X174961654Y-79326024D01*
X174948866Y-79308781D01*
X174937830Y-79290368D01*
X174928651Y-79270962D01*
X174921419Y-79250750D01*
X174916203Y-79229926D01*
X174913053Y-79208691D01*
X174912000Y-79187250D01*
X174912000Y-78749750D01*
X174913053Y-78728309D01*
X174916203Y-78707074D01*
X174921419Y-78686250D01*
X174928651Y-78666038D01*
X174937830Y-78646632D01*
X174948866Y-78628219D01*
X174961654Y-78610976D01*
X174976070Y-78595070D01*
X174991976Y-78580654D01*
X175009219Y-78567866D01*
X175027632Y-78556830D01*
X175047038Y-78547651D01*
X175067250Y-78540419D01*
X175088074Y-78535203D01*
X175109309Y-78532053D01*
X175130750Y-78531000D01*
X175643250Y-78531000D01*
X175664691Y-78532053D01*
X175664691Y-78532053D01*
G37*
D11*
X175387000Y-78968500D03*
D10*
G36*
X175664691Y-80107053D02*
X175685926Y-80110203D01*
X175706750Y-80115419D01*
X175726962Y-80122651D01*
X175746368Y-80131830D01*
X175764781Y-80142866D01*
X175782024Y-80155654D01*
X175797930Y-80170070D01*
X175812346Y-80185976D01*
X175825134Y-80203219D01*
X175836170Y-80221632D01*
X175845349Y-80241038D01*
X175852581Y-80261250D01*
X175857797Y-80282074D01*
X175860947Y-80303309D01*
X175862000Y-80324750D01*
X175862000Y-80762250D01*
X175860947Y-80783691D01*
X175857797Y-80804926D01*
X175852581Y-80825750D01*
X175845349Y-80845962D01*
X175836170Y-80865368D01*
X175825134Y-80883781D01*
X175812346Y-80901024D01*
X175797930Y-80916930D01*
X175782024Y-80931346D01*
X175764781Y-80944134D01*
X175746368Y-80955170D01*
X175726962Y-80964349D01*
X175706750Y-80971581D01*
X175685926Y-80976797D01*
X175664691Y-80979947D01*
X175643250Y-80981000D01*
X175130750Y-80981000D01*
X175109309Y-80979947D01*
X175088074Y-80976797D01*
X175067250Y-80971581D01*
X175047038Y-80964349D01*
X175027632Y-80955170D01*
X175009219Y-80944134D01*
X174991976Y-80931346D01*
X174976070Y-80916930D01*
X174961654Y-80901024D01*
X174948866Y-80883781D01*
X174937830Y-80865368D01*
X174928651Y-80845962D01*
X174921419Y-80825750D01*
X174916203Y-80804926D01*
X174913053Y-80783691D01*
X174912000Y-80762250D01*
X174912000Y-80324750D01*
X174913053Y-80303309D01*
X174916203Y-80282074D01*
X174921419Y-80261250D01*
X174928651Y-80241038D01*
X174937830Y-80221632D01*
X174948866Y-80203219D01*
X174961654Y-80185976D01*
X174976070Y-80170070D01*
X174991976Y-80155654D01*
X175009219Y-80142866D01*
X175027632Y-80131830D01*
X175047038Y-80122651D01*
X175067250Y-80115419D01*
X175088074Y-80110203D01*
X175109309Y-80107053D01*
X175130750Y-80106000D01*
X175643250Y-80106000D01*
X175664691Y-80107053D01*
X175664691Y-80107053D01*
G37*
D11*
X175387000Y-80543500D03*
G04 #@! TD*
D10*
G04 #@! TO.C,R14*
G36*
X182014691Y-81326053D02*
X182035926Y-81329203D01*
X182056750Y-81334419D01*
X182076962Y-81341651D01*
X182096368Y-81350830D01*
X182114781Y-81361866D01*
X182132024Y-81374654D01*
X182147930Y-81389070D01*
X182162346Y-81404976D01*
X182175134Y-81422219D01*
X182186170Y-81440632D01*
X182195349Y-81460038D01*
X182202581Y-81480250D01*
X182207797Y-81501074D01*
X182210947Y-81522309D01*
X182212000Y-81543750D01*
X182212000Y-81981250D01*
X182210947Y-82002691D01*
X182207797Y-82023926D01*
X182202581Y-82044750D01*
X182195349Y-82064962D01*
X182186170Y-82084368D01*
X182175134Y-82102781D01*
X182162346Y-82120024D01*
X182147930Y-82135930D01*
X182132024Y-82150346D01*
X182114781Y-82163134D01*
X182096368Y-82174170D01*
X182076962Y-82183349D01*
X182056750Y-82190581D01*
X182035926Y-82195797D01*
X182014691Y-82198947D01*
X181993250Y-82200000D01*
X181480750Y-82200000D01*
X181459309Y-82198947D01*
X181438074Y-82195797D01*
X181417250Y-82190581D01*
X181397038Y-82183349D01*
X181377632Y-82174170D01*
X181359219Y-82163134D01*
X181341976Y-82150346D01*
X181326070Y-82135930D01*
X181311654Y-82120024D01*
X181298866Y-82102781D01*
X181287830Y-82084368D01*
X181278651Y-82064962D01*
X181271419Y-82044750D01*
X181266203Y-82023926D01*
X181263053Y-82002691D01*
X181262000Y-81981250D01*
X181262000Y-81543750D01*
X181263053Y-81522309D01*
X181266203Y-81501074D01*
X181271419Y-81480250D01*
X181278651Y-81460038D01*
X181287830Y-81440632D01*
X181298866Y-81422219D01*
X181311654Y-81404976D01*
X181326070Y-81389070D01*
X181341976Y-81374654D01*
X181359219Y-81361866D01*
X181377632Y-81350830D01*
X181397038Y-81341651D01*
X181417250Y-81334419D01*
X181438074Y-81329203D01*
X181459309Y-81326053D01*
X181480750Y-81325000D01*
X181993250Y-81325000D01*
X182014691Y-81326053D01*
X182014691Y-81326053D01*
G37*
D11*
X181737000Y-81762500D03*
D10*
G36*
X182014691Y-82901053D02*
X182035926Y-82904203D01*
X182056750Y-82909419D01*
X182076962Y-82916651D01*
X182096368Y-82925830D01*
X182114781Y-82936866D01*
X182132024Y-82949654D01*
X182147930Y-82964070D01*
X182162346Y-82979976D01*
X182175134Y-82997219D01*
X182186170Y-83015632D01*
X182195349Y-83035038D01*
X182202581Y-83055250D01*
X182207797Y-83076074D01*
X182210947Y-83097309D01*
X182212000Y-83118750D01*
X182212000Y-83556250D01*
X182210947Y-83577691D01*
X182207797Y-83598926D01*
X182202581Y-83619750D01*
X182195349Y-83639962D01*
X182186170Y-83659368D01*
X182175134Y-83677781D01*
X182162346Y-83695024D01*
X182147930Y-83710930D01*
X182132024Y-83725346D01*
X182114781Y-83738134D01*
X182096368Y-83749170D01*
X182076962Y-83758349D01*
X182056750Y-83765581D01*
X182035926Y-83770797D01*
X182014691Y-83773947D01*
X181993250Y-83775000D01*
X181480750Y-83775000D01*
X181459309Y-83773947D01*
X181438074Y-83770797D01*
X181417250Y-83765581D01*
X181397038Y-83758349D01*
X181377632Y-83749170D01*
X181359219Y-83738134D01*
X181341976Y-83725346D01*
X181326070Y-83710930D01*
X181311654Y-83695024D01*
X181298866Y-83677781D01*
X181287830Y-83659368D01*
X181278651Y-83639962D01*
X181271419Y-83619750D01*
X181266203Y-83598926D01*
X181263053Y-83577691D01*
X181262000Y-83556250D01*
X181262000Y-83118750D01*
X181263053Y-83097309D01*
X181266203Y-83076074D01*
X181271419Y-83055250D01*
X181278651Y-83035038D01*
X181287830Y-83015632D01*
X181298866Y-82997219D01*
X181311654Y-82979976D01*
X181326070Y-82964070D01*
X181341976Y-82949654D01*
X181359219Y-82936866D01*
X181377632Y-82925830D01*
X181397038Y-82916651D01*
X181417250Y-82909419D01*
X181438074Y-82904203D01*
X181459309Y-82901053D01*
X181480750Y-82900000D01*
X181993250Y-82900000D01*
X182014691Y-82901053D01*
X182014691Y-82901053D01*
G37*
D11*
X181737000Y-83337500D03*
G04 #@! TD*
D14*
G04 #@! TO.C,SW1*
X134747000Y-91727000D03*
X134747000Y-86327000D03*
G04 #@! TD*
D15*
G04 #@! TO.C,SW2*
X182532000Y-86360000D03*
X177132000Y-86360000D03*
G04 #@! TD*
G04 #@! TO.C,SW3*
X182405000Y-92075000D03*
X177005000Y-92075000D03*
G04 #@! TD*
D16*
G04 #@! TO.C,Y2*
X147320000Y-89789000D03*
X147320000Y-87889000D03*
G04 #@! TD*
D17*
G04 #@! TO.C,U2*
X153130000Y-82340000D03*
X153130000Y-82840000D03*
X153130000Y-83340000D03*
X153130000Y-83840000D03*
X153130000Y-84340000D03*
X153130000Y-84840000D03*
X153130000Y-85340000D03*
X153130000Y-85840000D03*
X153130000Y-86340000D03*
X153130000Y-86840000D03*
X153130000Y-87340000D03*
X153130000Y-87840000D03*
D18*
X154730000Y-89440000D03*
X155230000Y-89440000D03*
X155730000Y-89440000D03*
X156230000Y-89440000D03*
X156730000Y-89440000D03*
X157230000Y-89440000D03*
X157730000Y-89440000D03*
X158230000Y-89440000D03*
X158730000Y-89440000D03*
X159230000Y-89440000D03*
X159730000Y-89440000D03*
X160230000Y-89440000D03*
D17*
X161830000Y-87840000D03*
X161830000Y-87340000D03*
X161830000Y-86840000D03*
X161830000Y-86340000D03*
X161830000Y-85840000D03*
X161830000Y-85340000D03*
X161830000Y-84840000D03*
X161830000Y-84340000D03*
X161830000Y-83840000D03*
X161830000Y-83340000D03*
X161830000Y-82840000D03*
X161830000Y-82340000D03*
D18*
X160230000Y-80740000D03*
X159730000Y-80740000D03*
X159230000Y-80740000D03*
X158730000Y-80740000D03*
X158230000Y-80740000D03*
X157730000Y-80740000D03*
X157230000Y-80740000D03*
X156730000Y-80740000D03*
X156230000Y-80740000D03*
X155730000Y-80740000D03*
X155230000Y-80740000D03*
X154730000Y-80740000D03*
G04 #@! TD*
D19*
G04 #@! TO.C,D1*
X180213000Y-80329000D03*
X180213000Y-78929000D03*
G04 #@! TD*
G04 #@! TO.C,D2*
X178689000Y-78929000D03*
X178689000Y-80329000D03*
G04 #@! TD*
G04 #@! TO.C,D3*
X181737000Y-80329000D03*
X181737000Y-78929000D03*
G04 #@! TD*
D20*
G04 #@! TO.C,J2*
X167471000Y-69172000D03*
X176191000Y-69172000D03*
X176191000Y-74652000D03*
X167471000Y-74652000D03*
D21*
X173431000Y-74652000D03*
X172631000Y-74652000D03*
X171831000Y-74652000D03*
X171031000Y-74652000D03*
X170231000Y-74652000D03*
D22*
X174031000Y-71542000D03*
X169631000Y-71542000D03*
G04 #@! TD*
D23*
G04 #@! TO.C,U1*
X142850000Y-71995000D03*
X142850000Y-74295000D03*
X142850000Y-76595000D03*
D24*
X136550000Y-74295000D03*
G04 #@! TD*
D25*
G04 #@! TO.C,REF\002A\002A*
X182880000Y-71120000D03*
G04 #@! TD*
G04 #@! TO.C,REF\002A\002A*
X129540000Y-71120000D03*
G04 #@! TD*
G04 #@! TO.C,REF\002A\002A*
X129540000Y-99060000D03*
G04 #@! TD*
G04 #@! TO.C,REF\002A\002A*
X182880000Y-99060000D03*
G04 #@! TD*
D26*
G04 #@! TO.C,J1*
X160401000Y-69551000D03*
X160401000Y-73451000D03*
X159131000Y-69551000D03*
X159131000Y-73451000D03*
X157861000Y-69551000D03*
X157861000Y-73451000D03*
X156591000Y-69551000D03*
X156591000Y-73451000D03*
X155321000Y-69551000D03*
X155321000Y-73451000D03*
G04 #@! TD*
D27*
G04 #@! TO.C,Y1*
X164391000Y-91610000D03*
X161491000Y-91610000D03*
X161491000Y-93810000D03*
X164391000Y-93810000D03*
G04 #@! TD*
M02*
