M48
;DRILL file {KiCad (5.0.0)} date 09/15/18 00:01:13
;FORMAT={2:4/ absolute / inch / suppress leading zeros}
FMAT,2
INCH,TZ
T1C0.0157
T2C0.0197
T3C0.0200
T4C0.0394
T5C0.0433
T6C0.1260
%
G90
G05
M72
T1
X51700Y-36550
X52050Y-36200
X52350Y-36500
X54700Y-29050
X55100Y-29050
X55550Y-29053
X56240Y-30651
X56250Y-27550
X56700Y-27550
X57150Y-27550
X57250Y-29100
X57250Y-30750
X57650Y-29100
X57850Y-30750
X58000Y-27300
X58050Y-29100
X58450Y-27300
X59550Y-33100
X60650Y-27350
X62000Y-31100
X62150Y-26850
X63200Y-33950
X66350Y-33200
X66700Y-27250
X67750Y-30800
X68400Y-30250
X68600Y-27250
X68800Y-30250
X71800Y-35500
X71863Y-33413
X72140Y-32810
T2
X58000Y-34602
X58000Y-35350
T3
X53600Y-33700
X53600Y-36100
X54250Y-37600
X54600Y-37200
X58150Y-36100
X59000Y-35250
X59000Y-35800
X59000Y-36350
X60900Y-33250
X61150Y-36800
X61508Y-32303
X61600Y-36100
X62000Y-29850
X62150Y-36000
X62350Y-36900
X62400Y-32350
X62650Y-29800
X63050Y-32550
X63496Y-34952
X64600Y-32950
X64620Y-31527
X65000Y-31850
X65650Y-36850
X65700Y-33899
X67100Y-36650
X67300Y-30550
X67474Y-37017
X67650Y-35300
X67800Y-37400
X68000Y-34900
X68350Y-34450
X68750Y-34050
T4
X52900Y-38500
X52900Y-39500
X53900Y-38500
X53900Y-39500
X54900Y-38500
X54900Y-39500
X55900Y-38500
X55900Y-39500
X56900Y-38500
X56900Y-39500
X57900Y-38500
X57900Y-39500
X58900Y-38500
X58900Y-39500
X59900Y-38500
X59900Y-39500
X60900Y-38500
X60900Y-39500
X61900Y-38500
X61900Y-39500
X62900Y-38500
X62900Y-39500
X63900Y-38500
X63900Y-39500
X64900Y-38500
X64900Y-39500
X65900Y-38500
X65900Y-39500
X66900Y-38500
X66900Y-39500
X67900Y-38500
X67900Y-39500
X68900Y-38500
X68900Y-39500
X69900Y-38500
X69900Y-39500
T5
X66784Y-28166
X68516Y-28166
T6
X51000Y-28000
X72000Y-28000
X51000Y-39000
X72000Y-39000
T0
M30
