G04 #@! TF.GenerationSoftware,KiCad,Pcbnew,(5.0.0)*
G04 #@! TF.CreationDate,2018-09-15T00:01:03-04:00*
G04 #@! TF.ProjectId,EFMPod,45464D506F642E6B696361645F706362,rev?*
G04 #@! TF.SameCoordinates,Original*
G04 #@! TF.FileFunction,Legend,Top*
G04 #@! TF.FilePolarity,Positive*
%FSLAX46Y46*%
G04 Gerber Fmt 4.6, Leading zero omitted, Abs format (unit mm)*
G04 Created by KiCad (PCBNEW (5.0.0)) date 09/15/18 00:01:03*
%MOMM*%
%LPD*%
G01*
G04 APERTURE LIST*
%ADD10C,0.150000*%
%ADD11C,0.200000*%
%ADD12C,0.300000*%
%ADD13C,0.120000*%
%ADD14C,0.100000*%
%ADD15C,0.010000*%
G04 APERTURE END LIST*
D10*
X137620476Y-93241761D02*
X137763333Y-93289380D01*
X138001428Y-93289380D01*
X138096666Y-93241761D01*
X138144285Y-93194142D01*
X138191904Y-93098904D01*
X138191904Y-93003666D01*
X138144285Y-92908428D01*
X138096666Y-92860809D01*
X138001428Y-92813190D01*
X137810952Y-92765571D01*
X137715714Y-92717952D01*
X137668095Y-92670333D01*
X137620476Y-92575095D01*
X137620476Y-92479857D01*
X137668095Y-92384619D01*
X137715714Y-92337000D01*
X137810952Y-92289380D01*
X138049047Y-92289380D01*
X138191904Y-92337000D01*
X138620476Y-93289380D02*
X138620476Y-92289380D01*
X139191904Y-93289380D01*
X139191904Y-92289380D01*
X137858571Y-88463380D02*
X137525238Y-87987190D01*
X137287142Y-88463380D02*
X137287142Y-87463380D01*
X137668095Y-87463380D01*
X137763333Y-87511000D01*
X137810952Y-87558619D01*
X137858571Y-87653857D01*
X137858571Y-87796714D01*
X137810952Y-87891952D01*
X137763333Y-87939571D01*
X137668095Y-87987190D01*
X137287142Y-87987190D01*
X138287142Y-87939571D02*
X138620476Y-87939571D01*
X138763333Y-88463380D02*
X138287142Y-88463380D01*
X138287142Y-87463380D01*
X138763333Y-87463380D01*
X139049047Y-87463380D02*
X139382380Y-88463380D01*
X139715714Y-87463380D01*
G36*
X140081000Y-92075000D02*
X146177000Y-92075000D01*
X146177000Y-95631000D01*
X140081000Y-95631000D01*
X140081000Y-92075000D01*
G37*
X140081000Y-92075000D02*
X146177000Y-92075000D01*
X146177000Y-95631000D01*
X140081000Y-95631000D01*
X140081000Y-92075000D01*
G36*
X140081000Y-87376000D02*
X146177000Y-87376000D01*
X146177000Y-90932000D01*
X140081000Y-90932000D01*
X140081000Y-87376000D01*
G37*
X140081000Y-87376000D02*
X146177000Y-87376000D01*
X146177000Y-90932000D01*
X140081000Y-90932000D01*
X140081000Y-87376000D01*
D11*
X151296000Y-78400285D02*
X151696000Y-78400285D01*
X151867428Y-79028857D02*
X151296000Y-79028857D01*
X151296000Y-77828857D01*
X151867428Y-77828857D01*
X152781714Y-78400285D02*
X152381714Y-78400285D01*
X152381714Y-79028857D02*
X152381714Y-77828857D01*
X152953142Y-77828857D01*
X153410285Y-79028857D02*
X153410285Y-77828857D01*
X153810285Y-78686000D01*
X154210285Y-77828857D01*
X154210285Y-79028857D01*
X154667428Y-77828857D02*
X155410285Y-77828857D01*
X155010285Y-78286000D01*
X155181714Y-78286000D01*
X155296000Y-78343142D01*
X155353142Y-78400285D01*
X155410285Y-78514571D01*
X155410285Y-78800285D01*
X155353142Y-78914571D01*
X155296000Y-78971714D01*
X155181714Y-79028857D01*
X154838857Y-79028857D01*
X154724571Y-78971714D01*
X154667428Y-78914571D01*
X155867428Y-77943142D02*
X155924571Y-77886000D01*
X156038857Y-77828857D01*
X156324571Y-77828857D01*
X156438857Y-77886000D01*
X156496000Y-77943142D01*
X156553142Y-78057428D01*
X156553142Y-78171714D01*
X156496000Y-78343142D01*
X155810285Y-79028857D01*
X156553142Y-79028857D01*
X157067428Y-79028857D02*
X157067428Y-77828857D01*
X157067428Y-78400285D02*
X157753142Y-78400285D01*
X157753142Y-79028857D02*
X157753142Y-77828857D01*
X158953142Y-77886000D02*
X158838857Y-77828857D01*
X158667428Y-77828857D01*
X158496000Y-77886000D01*
X158381714Y-78000285D01*
X158324571Y-78114571D01*
X158267428Y-78343142D01*
X158267428Y-78514571D01*
X158324571Y-78743142D01*
X158381714Y-78857428D01*
X158496000Y-78971714D01*
X158667428Y-79028857D01*
X158781714Y-79028857D01*
X158953142Y-78971714D01*
X159010285Y-78914571D01*
X159010285Y-78514571D01*
X158781714Y-78514571D01*
X159410285Y-77828857D02*
X160153142Y-77828857D01*
X159753142Y-78286000D01*
X159924571Y-78286000D01*
X160038857Y-78343142D01*
X160096000Y-78400285D01*
X160153142Y-78514571D01*
X160153142Y-78800285D01*
X160096000Y-78914571D01*
X160038857Y-78971714D01*
X159924571Y-79028857D01*
X159581714Y-79028857D01*
X159467428Y-78971714D01*
X159410285Y-78914571D01*
X160610285Y-77943142D02*
X160667428Y-77886000D01*
X160781714Y-77828857D01*
X161067428Y-77828857D01*
X161181714Y-77886000D01*
X161238857Y-77943142D01*
X161296000Y-78057428D01*
X161296000Y-78171714D01*
X161238857Y-78343142D01*
X160553142Y-79028857D01*
X161296000Y-79028857D01*
X161753142Y-77943142D02*
X161810285Y-77886000D01*
X161924571Y-77828857D01*
X162210285Y-77828857D01*
X162324571Y-77886000D01*
X162381714Y-77943142D01*
X162438857Y-78057428D01*
X162438857Y-78171714D01*
X162381714Y-78343142D01*
X161696000Y-79028857D01*
X162438857Y-79028857D01*
X163353142Y-78400285D02*
X162953142Y-78400285D01*
X162953142Y-79028857D02*
X162953142Y-77828857D01*
X163524571Y-77828857D01*
X164496000Y-77828857D02*
X164267428Y-77828857D01*
X164153142Y-77886000D01*
X164096000Y-77943142D01*
X163981714Y-78114571D01*
X163924571Y-78343142D01*
X163924571Y-78800285D01*
X163981714Y-78914571D01*
X164038857Y-78971714D01*
X164153142Y-79028857D01*
X164381714Y-79028857D01*
X164496000Y-78971714D01*
X164553142Y-78914571D01*
X164610285Y-78800285D01*
X164610285Y-78514571D01*
X164553142Y-78400285D01*
X164496000Y-78343142D01*
X164381714Y-78286000D01*
X164153142Y-78286000D01*
X164038857Y-78343142D01*
X163981714Y-78400285D01*
X163924571Y-78514571D01*
X165638857Y-78228857D02*
X165638857Y-79028857D01*
X165353142Y-77771714D02*
X165067428Y-78628857D01*
X165810285Y-78628857D01*
X128957142Y-84743857D02*
X128957142Y-84115285D01*
X128900000Y-84001000D01*
X128785714Y-83943857D01*
X128557142Y-83943857D01*
X128442857Y-84001000D01*
X128957142Y-84686714D02*
X128842857Y-84743857D01*
X128557142Y-84743857D01*
X128442857Y-84686714D01*
X128385714Y-84572428D01*
X128385714Y-84458142D01*
X128442857Y-84343857D01*
X128557142Y-84286714D01*
X128842857Y-84286714D01*
X128957142Y-84229571D01*
X129528571Y-84743857D02*
X129528571Y-83543857D01*
X129642857Y-84286714D02*
X129985714Y-84743857D01*
X129985714Y-83943857D02*
X129528571Y-84401000D01*
X130671428Y-84743857D02*
X130557142Y-84686714D01*
X130500000Y-84629571D01*
X130442857Y-84515285D01*
X130442857Y-84172428D01*
X130500000Y-84058142D01*
X130557142Y-84001000D01*
X130671428Y-83943857D01*
X130842857Y-83943857D01*
X130957142Y-84001000D01*
X131014285Y-84058142D01*
X131071428Y-84172428D01*
X131071428Y-84515285D01*
X131014285Y-84629571D01*
X130957142Y-84686714D01*
X130842857Y-84743857D01*
X130671428Y-84743857D01*
X131471428Y-83943857D02*
X131700000Y-84743857D01*
X131928571Y-84172428D01*
X132157142Y-84743857D01*
X132385714Y-83943857D01*
X133357142Y-84743857D02*
X133357142Y-84115285D01*
X133300000Y-84001000D01*
X133185714Y-83943857D01*
X132957142Y-83943857D01*
X132842857Y-84001000D01*
X133357142Y-84686714D02*
X133242857Y-84743857D01*
X132957142Y-84743857D01*
X132842857Y-84686714D01*
X132785714Y-84572428D01*
X132785714Y-84458142D01*
X132842857Y-84343857D01*
X132957142Y-84286714D01*
X133242857Y-84286714D01*
X133357142Y-84229571D01*
X134100000Y-84743857D02*
X133985714Y-84686714D01*
X133928571Y-84572428D01*
X133928571Y-83543857D01*
X135071428Y-84686714D02*
X134957142Y-84743857D01*
X134728571Y-84743857D01*
X134614285Y-84686714D01*
X134557142Y-84629571D01*
X134500000Y-84515285D01*
X134500000Y-84172428D01*
X134557142Y-84058142D01*
X134614285Y-84001000D01*
X134728571Y-83943857D01*
X134957142Y-83943857D01*
X135071428Y-84001000D01*
X135471428Y-83943857D02*
X136100000Y-83943857D01*
X135471428Y-84743857D01*
X136100000Y-84743857D01*
X136442857Y-83943857D02*
X136728571Y-84743857D01*
X137014285Y-83943857D02*
X136728571Y-84743857D01*
X136614285Y-85029571D01*
X136557142Y-85086714D01*
X136442857Y-85143857D01*
X137471428Y-84743857D02*
X137471428Y-83543857D01*
X137585714Y-84286714D02*
X137928571Y-84743857D01*
X137928571Y-83943857D02*
X137471428Y-84401000D01*
X139071428Y-84743857D02*
X138385714Y-84743857D01*
X138728571Y-84743857D02*
X138728571Y-83543857D01*
X138614285Y-83715285D01*
X138500000Y-83829571D01*
X138385714Y-83886714D01*
X139757142Y-84058142D02*
X139642857Y-84001000D01*
X139585714Y-83943857D01*
X139528571Y-83829571D01*
X139528571Y-83772428D01*
X139585714Y-83658142D01*
X139642857Y-83601000D01*
X139757142Y-83543857D01*
X139985714Y-83543857D01*
X140100000Y-83601000D01*
X140157142Y-83658142D01*
X140214285Y-83772428D01*
X140214285Y-83829571D01*
X140157142Y-83943857D01*
X140100000Y-84001000D01*
X139985714Y-84058142D01*
X139757142Y-84058142D01*
X139642857Y-84115285D01*
X139585714Y-84172428D01*
X139528571Y-84286714D01*
X139528571Y-84515285D01*
X139585714Y-84629571D01*
X139642857Y-84686714D01*
X139757142Y-84743857D01*
X139985714Y-84743857D01*
X140100000Y-84686714D01*
X140157142Y-84629571D01*
X140214285Y-84515285D01*
X140214285Y-84286714D01*
X140157142Y-84172428D01*
X140100000Y-84115285D01*
X139985714Y-84058142D01*
X141471428Y-84172428D02*
X141414285Y-84115285D01*
X141300000Y-84058142D01*
X141185714Y-84058142D01*
X141071428Y-84115285D01*
X141014285Y-84172428D01*
X140957142Y-84286714D01*
X140957142Y-84401000D01*
X141014285Y-84515285D01*
X141071428Y-84572428D01*
X141185714Y-84629571D01*
X141300000Y-84629571D01*
X141414285Y-84572428D01*
X141471428Y-84515285D01*
X141471428Y-84058142D02*
X141471428Y-84515285D01*
X141528571Y-84572428D01*
X141585714Y-84572428D01*
X141700000Y-84515285D01*
X141757142Y-84401000D01*
X141757142Y-84115285D01*
X141642857Y-83943857D01*
X141471428Y-83829571D01*
X141242857Y-83772428D01*
X141014285Y-83829571D01*
X140842857Y-83943857D01*
X140728571Y-84115285D01*
X140671428Y-84343857D01*
X140728571Y-84572428D01*
X140842857Y-84743857D01*
X141014285Y-84858142D01*
X141242857Y-84915285D01*
X141471428Y-84858142D01*
X141642857Y-84743857D01*
X142785714Y-83943857D02*
X142785714Y-84915285D01*
X142728571Y-85029571D01*
X142671428Y-85086714D01*
X142557142Y-85143857D01*
X142385714Y-85143857D01*
X142271428Y-85086714D01*
X142785714Y-84686714D02*
X142671428Y-84743857D01*
X142442857Y-84743857D01*
X142328571Y-84686714D01*
X142271428Y-84629571D01*
X142214285Y-84515285D01*
X142214285Y-84172428D01*
X142271428Y-84058142D01*
X142328571Y-84001000D01*
X142442857Y-83943857D01*
X142671428Y-83943857D01*
X142785714Y-84001000D01*
X143357142Y-84743857D02*
X143357142Y-83943857D01*
X143357142Y-84058142D02*
X143414285Y-84001000D01*
X143528571Y-83943857D01*
X143700000Y-83943857D01*
X143814285Y-84001000D01*
X143871428Y-84115285D01*
X143871428Y-84743857D01*
X143871428Y-84115285D02*
X143928571Y-84001000D01*
X144042857Y-83943857D01*
X144214285Y-83943857D01*
X144328571Y-84001000D01*
X144385714Y-84115285D01*
X144385714Y-84743857D01*
X145471428Y-84743857D02*
X145471428Y-84115285D01*
X145414285Y-84001000D01*
X145300000Y-83943857D01*
X145071428Y-83943857D01*
X144957142Y-84001000D01*
X145471428Y-84686714D02*
X145357142Y-84743857D01*
X145071428Y-84743857D01*
X144957142Y-84686714D01*
X144900000Y-84572428D01*
X144900000Y-84458142D01*
X144957142Y-84343857D01*
X145071428Y-84286714D01*
X145357142Y-84286714D01*
X145471428Y-84229571D01*
X146042857Y-84743857D02*
X146042857Y-83943857D01*
X146042857Y-83543857D02*
X145985714Y-83601000D01*
X146042857Y-83658142D01*
X146100000Y-83601000D01*
X146042857Y-83543857D01*
X146042857Y-83658142D01*
X146785714Y-84743857D02*
X146671428Y-84686714D01*
X146614285Y-84572428D01*
X146614285Y-83543857D01*
X147242857Y-84629571D02*
X147300000Y-84686714D01*
X147242857Y-84743857D01*
X147185714Y-84686714D01*
X147242857Y-84629571D01*
X147242857Y-84743857D01*
X148328571Y-84686714D02*
X148214285Y-84743857D01*
X147985714Y-84743857D01*
X147871428Y-84686714D01*
X147814285Y-84629571D01*
X147757142Y-84515285D01*
X147757142Y-84172428D01*
X147814285Y-84058142D01*
X147871428Y-84001000D01*
X147985714Y-83943857D01*
X148214285Y-83943857D01*
X148328571Y-84001000D01*
X149014285Y-84743857D02*
X148900000Y-84686714D01*
X148842857Y-84629571D01*
X148785714Y-84515285D01*
X148785714Y-84172428D01*
X148842857Y-84058142D01*
X148900000Y-84001000D01*
X149014285Y-83943857D01*
X149185714Y-83943857D01*
X149300000Y-84001000D01*
X149357142Y-84058142D01*
X149414285Y-84172428D01*
X149414285Y-84515285D01*
X149357142Y-84629571D01*
X149300000Y-84686714D01*
X149185714Y-84743857D01*
X149014285Y-84743857D01*
X149928571Y-84743857D02*
X149928571Y-83943857D01*
X149928571Y-84058142D02*
X149985714Y-84001000D01*
X150100000Y-83943857D01*
X150271428Y-83943857D01*
X150385714Y-84001000D01*
X150442857Y-84115285D01*
X150442857Y-84743857D01*
X150442857Y-84115285D02*
X150500000Y-84001000D01*
X150614285Y-83943857D01*
X150785714Y-83943857D01*
X150900000Y-84001000D01*
X150957142Y-84115285D01*
X150957142Y-84743857D01*
D12*
X128822142Y-79516857D02*
X129322142Y-79516857D01*
X129536428Y-80302571D02*
X128822142Y-80302571D01*
X128822142Y-78802571D01*
X129536428Y-78802571D01*
X130679285Y-79516857D02*
X130179285Y-79516857D01*
X130179285Y-80302571D02*
X130179285Y-78802571D01*
X130893571Y-78802571D01*
X131465000Y-80302571D02*
X131465000Y-78802571D01*
X131965000Y-79874000D01*
X132465000Y-78802571D01*
X132465000Y-80302571D01*
X133036428Y-78802571D02*
X133965000Y-78802571D01*
X133465000Y-79374000D01*
X133679285Y-79374000D01*
X133822142Y-79445428D01*
X133893571Y-79516857D01*
X133965000Y-79659714D01*
X133965000Y-80016857D01*
X133893571Y-80159714D01*
X133822142Y-80231142D01*
X133679285Y-80302571D01*
X133250714Y-80302571D01*
X133107857Y-80231142D01*
X133036428Y-80159714D01*
X134536428Y-78945428D02*
X134607857Y-78874000D01*
X134750714Y-78802571D01*
X135107857Y-78802571D01*
X135250714Y-78874000D01*
X135322142Y-78945428D01*
X135393571Y-79088285D01*
X135393571Y-79231142D01*
X135322142Y-79445428D01*
X134465000Y-80302571D01*
X135393571Y-80302571D01*
X137179285Y-80302571D02*
X137179285Y-78802571D01*
X137536428Y-78802571D01*
X137750714Y-78874000D01*
X137893571Y-79016857D01*
X137965000Y-79159714D01*
X138036428Y-79445428D01*
X138036428Y-79659714D01*
X137965000Y-79945428D01*
X137893571Y-80088285D01*
X137750714Y-80231142D01*
X137536428Y-80302571D01*
X137179285Y-80302571D01*
X139250714Y-80231142D02*
X139107857Y-80302571D01*
X138822142Y-80302571D01*
X138679285Y-80231142D01*
X138607857Y-80088285D01*
X138607857Y-79516857D01*
X138679285Y-79374000D01*
X138822142Y-79302571D01*
X139107857Y-79302571D01*
X139250714Y-79374000D01*
X139322142Y-79516857D01*
X139322142Y-79659714D01*
X138607857Y-79802571D01*
X139822142Y-79302571D02*
X140179285Y-80302571D01*
X140536428Y-79302571D01*
X142750714Y-79516857D02*
X142965000Y-79588285D01*
X143036428Y-79659714D01*
X143107857Y-79802571D01*
X143107857Y-80016857D01*
X143036428Y-80159714D01*
X142965000Y-80231142D01*
X142822142Y-80302571D01*
X142250714Y-80302571D01*
X142250714Y-78802571D01*
X142750714Y-78802571D01*
X142893571Y-78874000D01*
X142965000Y-78945428D01*
X143036428Y-79088285D01*
X143036428Y-79231142D01*
X142965000Y-79374000D01*
X142893571Y-79445428D01*
X142750714Y-79516857D01*
X142250714Y-79516857D01*
X143965000Y-80302571D02*
X143822142Y-80231142D01*
X143750714Y-80159714D01*
X143679285Y-80016857D01*
X143679285Y-79588285D01*
X143750714Y-79445428D01*
X143822142Y-79374000D01*
X143965000Y-79302571D01*
X144179285Y-79302571D01*
X144322142Y-79374000D01*
X144393571Y-79445428D01*
X144465000Y-79588285D01*
X144465000Y-80016857D01*
X144393571Y-80159714D01*
X144322142Y-80231142D01*
X144179285Y-80302571D01*
X143965000Y-80302571D01*
X145750714Y-80302571D02*
X145750714Y-79516857D01*
X145679285Y-79374000D01*
X145536428Y-79302571D01*
X145250714Y-79302571D01*
X145107857Y-79374000D01*
X145750714Y-80231142D02*
X145607857Y-80302571D01*
X145250714Y-80302571D01*
X145107857Y-80231142D01*
X145036428Y-80088285D01*
X145036428Y-79945428D01*
X145107857Y-79802571D01*
X145250714Y-79731142D01*
X145607857Y-79731142D01*
X145750714Y-79659714D01*
X146465000Y-80302571D02*
X146465000Y-79302571D01*
X146465000Y-79588285D02*
X146536428Y-79445428D01*
X146607857Y-79374000D01*
X146750714Y-79302571D01*
X146893571Y-79302571D01*
X148036428Y-80302571D02*
X148036428Y-78802571D01*
X148036428Y-80231142D02*
X147893571Y-80302571D01*
X147607857Y-80302571D01*
X147465000Y-80231142D01*
X147393571Y-80159714D01*
X147322142Y-80016857D01*
X147322142Y-79588285D01*
X147393571Y-79445428D01*
X147465000Y-79374000D01*
X147607857Y-79302571D01*
X147893571Y-79302571D01*
X148036428Y-79374000D01*
X128750714Y-82424000D02*
X129465000Y-82424000D01*
X128607857Y-82852571D02*
X129107857Y-81352571D01*
X129607857Y-82852571D01*
X130107857Y-82709714D02*
X130179285Y-82781142D01*
X130107857Y-82852571D01*
X130036428Y-82781142D01*
X130107857Y-82709714D01*
X130107857Y-82852571D01*
X131965000Y-82852571D02*
X131965000Y-81352571D01*
X132822142Y-82852571D02*
X132179285Y-81995428D01*
X132822142Y-81352571D02*
X131965000Y-82209714D01*
X133679285Y-82852571D02*
X133536428Y-82781142D01*
X133465000Y-82709714D01*
X133393571Y-82566857D01*
X133393571Y-82138285D01*
X133465000Y-81995428D01*
X133536428Y-81924000D01*
X133679285Y-81852571D01*
X133893571Y-81852571D01*
X134036428Y-81924000D01*
X134107857Y-81995428D01*
X134179285Y-82138285D01*
X134179285Y-82566857D01*
X134107857Y-82709714D01*
X134036428Y-82781142D01*
X133893571Y-82852571D01*
X133679285Y-82852571D01*
X134679285Y-81852571D02*
X134965000Y-82852571D01*
X135250714Y-82138285D01*
X135536428Y-82852571D01*
X135822142Y-81852571D01*
X137036428Y-82852571D02*
X137036428Y-82066857D01*
X136965000Y-81924000D01*
X136822142Y-81852571D01*
X136536428Y-81852571D01*
X136393571Y-81924000D01*
X137036428Y-82781142D02*
X136893571Y-82852571D01*
X136536428Y-82852571D01*
X136393571Y-82781142D01*
X136322142Y-82638285D01*
X136322142Y-82495428D01*
X136393571Y-82352571D01*
X136536428Y-82281142D01*
X136893571Y-82281142D01*
X137036428Y-82209714D01*
X137965000Y-82852571D02*
X137822142Y-82781142D01*
X137750714Y-82638285D01*
X137750714Y-81352571D01*
X139179285Y-82781142D02*
X139036428Y-82852571D01*
X138750714Y-82852571D01*
X138607857Y-82781142D01*
X138536428Y-82709714D01*
X138465000Y-82566857D01*
X138465000Y-82138285D01*
X138536428Y-81995428D01*
X138607857Y-81924000D01*
X138750714Y-81852571D01*
X139036428Y-81852571D01*
X139179285Y-81924000D01*
X139679285Y-81852571D02*
X140465000Y-81852571D01*
X139679285Y-82852571D01*
X140465000Y-82852571D01*
X140893571Y-81852571D02*
X141250714Y-82852571D01*
X141607857Y-81852571D02*
X141250714Y-82852571D01*
X141107857Y-83209714D01*
X141036428Y-83281142D01*
X140893571Y-83352571D01*
X142179285Y-82852571D02*
X142179285Y-81352571D01*
X142322142Y-82281142D02*
X142750714Y-82852571D01*
X142750714Y-81852571D02*
X142179285Y-82424000D01*
D11*
X152908000Y-67945000D02*
X154178000Y-67945000D01*
X152908000Y-74930000D02*
X152908000Y-67945000D01*
X162941000Y-74930000D02*
X152908000Y-74930000D01*
X162941000Y-74549000D02*
X162941000Y-74930000D01*
X162941000Y-67945000D02*
X162941000Y-74549000D01*
X161163000Y-67945000D02*
X162941000Y-67945000D01*
X158496000Y-67945000D02*
X161163000Y-67945000D01*
X158496000Y-67564000D02*
X158496000Y-67945000D01*
X157226000Y-67564000D02*
X158496000Y-67564000D01*
X157226000Y-67945000D02*
X157226000Y-67564000D01*
X154178000Y-67945000D02*
X157226000Y-67945000D01*
D13*
G04 #@! TO.C,C2*
X145760221Y-71118000D02*
X146085779Y-71118000D01*
X145760221Y-72138000D02*
X146085779Y-72138000D01*
G04 #@! TO.C,C3*
X146429000Y-75656221D02*
X146429000Y-75981779D01*
X147449000Y-75656221D02*
X147449000Y-75981779D01*
G04 #@! TO.C,C4*
X145925000Y-75656221D02*
X145925000Y-75981779D01*
X144905000Y-75656221D02*
X144905000Y-75981779D01*
G04 #@! TO.C,C15*
X166334221Y-83056000D02*
X166659779Y-83056000D01*
X166334221Y-84076000D02*
X166659779Y-84076000D01*
G04 #@! TO.C,C16*
X164373779Y-89152000D02*
X164048221Y-89152000D01*
X164373779Y-90172000D02*
X164048221Y-90172000D01*
G04 #@! TO.C,C18*
X158875000Y-92237779D02*
X158875000Y-91912221D01*
X159895000Y-92237779D02*
X159895000Y-91912221D01*
G04 #@! TO.C,R1*
X134076221Y-94363000D02*
X134401779Y-94363000D01*
X134076221Y-93343000D02*
X134401779Y-93343000D01*
G04 #@! TO.C,R6*
X160111221Y-94994000D02*
X160436779Y-94994000D01*
X160111221Y-96014000D02*
X160436779Y-96014000D01*
G04 #@! TO.C,R7*
X163413221Y-96014000D02*
X163738779Y-96014000D01*
X163413221Y-94994000D02*
X163738779Y-94994000D01*
G04 #@! TO.C,R8*
X151292779Y-96141000D02*
X150967221Y-96141000D01*
X151292779Y-95121000D02*
X150967221Y-95121000D01*
G04 #@! TO.C,R9*
X151292779Y-93597000D02*
X150967221Y-93597000D01*
X151292779Y-94617000D02*
X150967221Y-94617000D01*
G04 #@! TO.C,R10*
X179703000Y-82387221D02*
X179703000Y-82712779D01*
X180723000Y-82387221D02*
X180723000Y-82712779D01*
G04 #@! TO.C,R11*
X176401000Y-79593221D02*
X176401000Y-79918779D01*
X177421000Y-79593221D02*
X177421000Y-79918779D01*
G04 #@! TO.C,R12*
X179199000Y-82387221D02*
X179199000Y-82712779D01*
X178179000Y-82387221D02*
X178179000Y-82712779D01*
G04 #@! TO.C,R13*
X175897000Y-79593221D02*
X175897000Y-79918779D01*
X174877000Y-79593221D02*
X174877000Y-79918779D01*
G04 #@! TO.C,R14*
X182247000Y-82387221D02*
X182247000Y-82712779D01*
X181227000Y-82387221D02*
X181227000Y-82712779D01*
G04 #@! TO.C,SW1*
X136597000Y-92127000D02*
X136597000Y-85927000D01*
X132897000Y-85927000D02*
X132897000Y-92127000D01*
X132897000Y-92127000D02*
X133547000Y-92127000D01*
X135947000Y-92127000D02*
X136597000Y-92127000D01*
X136597000Y-85927000D02*
X135947000Y-85927000D01*
X132897000Y-85927000D02*
X133547000Y-85927000D01*
G04 #@! TO.C,SW2*
X182932000Y-84510000D02*
X182932000Y-85160000D01*
X182932000Y-88210000D02*
X182932000Y-87560000D01*
X176732000Y-87560000D02*
X176732000Y-88210000D01*
X176732000Y-84510000D02*
X176732000Y-85160000D01*
X182932000Y-84510000D02*
X176732000Y-84510000D01*
X176732000Y-88210000D02*
X182932000Y-88210000D01*
G04 #@! TO.C,SW3*
X182805000Y-90225000D02*
X182805000Y-90875000D01*
X182805000Y-93925000D02*
X182805000Y-93275000D01*
X176605000Y-93275000D02*
X176605000Y-93925000D01*
X176605000Y-90225000D02*
X176605000Y-90875000D01*
X182805000Y-90225000D02*
X176605000Y-90225000D01*
X176605000Y-93925000D02*
X182805000Y-93925000D01*
D10*
G04 #@! TO.C,U2*
X153855000Y-81465000D02*
X153855000Y-81890000D01*
X161105000Y-81465000D02*
X161105000Y-81990000D01*
X161105000Y-88715000D02*
X161105000Y-88190000D01*
X153855000Y-88715000D02*
X153855000Y-88190000D01*
X153855000Y-81465000D02*
X154380000Y-81465000D01*
X153855000Y-88715000D02*
X154380000Y-88715000D01*
X161105000Y-88715000D02*
X160580000Y-88715000D01*
X161105000Y-81465000D02*
X160580000Y-81465000D01*
X153855000Y-81890000D02*
X152480000Y-81890000D01*
D13*
G04 #@! TO.C,D1*
X179913000Y-79329000D02*
X179913000Y-79929000D01*
X180513000Y-79329000D02*
X180513000Y-79929000D01*
G04 #@! TO.C,D2*
X178989000Y-79329000D02*
X178989000Y-79929000D01*
X178389000Y-79329000D02*
X178389000Y-79929000D01*
G04 #@! TO.C,D3*
X181437000Y-79329000D02*
X181437000Y-79929000D01*
X182037000Y-79329000D02*
X182037000Y-79929000D01*
D14*
G04 #@! TO.C,J2*
X173806000Y-74927000D02*
X175031000Y-74927000D01*
X168681000Y-74927000D02*
X169756000Y-74927000D01*
X175806000Y-72827000D02*
X175806000Y-70952000D01*
X167856000Y-71102000D02*
X167856000Y-72977000D01*
X167856000Y-65802000D02*
X167856000Y-65877000D01*
X167856000Y-65802000D02*
X167856000Y-65477000D01*
X167856000Y-65477000D02*
X168356000Y-65477000D01*
X175806000Y-65777000D02*
X175806000Y-65852000D01*
X175806000Y-65777000D02*
X175806000Y-65477000D01*
X175806000Y-65477000D02*
X175381000Y-65477000D01*
G04 #@! TO.C,U1*
X140675000Y-77570000D02*
X141150000Y-77570000D01*
X141150000Y-77570000D02*
X141475000Y-77270000D01*
X141475000Y-77270000D02*
X141670000Y-77270000D01*
X141000000Y-71020000D02*
X141475000Y-71020000D01*
X141475000Y-71020000D02*
X141475000Y-71470000D01*
X137925000Y-77070000D02*
X137925000Y-77570000D01*
X137925000Y-77570000D02*
X138325000Y-77570000D01*
X137925000Y-71395000D02*
X137925000Y-71020000D01*
X137925000Y-71020000D02*
X138225000Y-71020000D01*
D13*
G04 #@! TO.C,J1*
X161096000Y-69736000D02*
X161096000Y-73266000D01*
X154626000Y-69736000D02*
X154626000Y-73266000D01*
X161031000Y-68411000D02*
X161031000Y-69736000D01*
X161096000Y-69736000D02*
X161031000Y-69736000D01*
X161096000Y-73266000D02*
X161031000Y-73266000D01*
X154691000Y-69736000D02*
X154626000Y-69736000D01*
X154691000Y-73266000D02*
X154626000Y-73266000D01*
G04 #@! TO.C,Y1*
X165641000Y-94910000D02*
X165641000Y-90510000D01*
X165641000Y-90510000D02*
X160241000Y-90510000D01*
D15*
G04 #@! TO.C,REF\002A\002A*
G36*
X172204964Y-76789576D02*
X172280513Y-77190322D01*
X172838041Y-77420154D01*
X173172465Y-77192748D01*
X173266122Y-77129431D01*
X173350782Y-77072896D01*
X173422495Y-77025727D01*
X173477311Y-76990502D01*
X173511280Y-76969805D01*
X173520530Y-76965342D01*
X173537195Y-76976820D01*
X173572806Y-77008551D01*
X173623371Y-77056483D01*
X173684900Y-77116562D01*
X173753399Y-77184733D01*
X173824879Y-77256945D01*
X173895347Y-77329142D01*
X173960811Y-77397273D01*
X174017280Y-77457283D01*
X174060763Y-77505119D01*
X174087268Y-77536727D01*
X174093605Y-77547305D01*
X174084486Y-77566806D01*
X174058920Y-77609531D01*
X174019597Y-77671298D01*
X173969203Y-77747931D01*
X173910427Y-77835248D01*
X173876368Y-77885052D01*
X173814289Y-77975993D01*
X173759126Y-78058059D01*
X173713554Y-78127163D01*
X173680250Y-78179222D01*
X173661890Y-78210150D01*
X173659131Y-78216650D01*
X173665385Y-78235121D01*
X173682434Y-78278172D01*
X173707703Y-78339749D01*
X173738622Y-78413799D01*
X173772618Y-78494270D01*
X173807118Y-78575107D01*
X173839551Y-78650258D01*
X173867343Y-78713671D01*
X173887923Y-78759293D01*
X173898719Y-78781069D01*
X173899356Y-78781926D01*
X173916307Y-78786084D01*
X173961451Y-78795361D01*
X174030110Y-78808844D01*
X174117602Y-78825621D01*
X174219250Y-78844781D01*
X174278556Y-78855830D01*
X174387172Y-78876510D01*
X174485277Y-78896189D01*
X174567909Y-78913789D01*
X174630104Y-78928233D01*
X174666899Y-78938446D01*
X174674296Y-78941686D01*
X174681540Y-78963617D01*
X174687385Y-79013147D01*
X174691835Y-79084485D01*
X174694893Y-79171839D01*
X174696565Y-79269417D01*
X174696853Y-79371426D01*
X174695761Y-79472075D01*
X174693294Y-79565572D01*
X174689456Y-79646125D01*
X174684250Y-79707942D01*
X174677681Y-79745230D01*
X174673741Y-79752993D01*
X174650188Y-79762298D01*
X174600282Y-79775600D01*
X174530623Y-79791337D01*
X174447813Y-79807946D01*
X174418905Y-79813319D01*
X174279531Y-79838848D01*
X174169436Y-79859408D01*
X174084982Y-79875815D01*
X174022530Y-79888887D01*
X173978444Y-79899441D01*
X173949085Y-79908294D01*
X173930815Y-79916263D01*
X173919998Y-79924165D01*
X173918485Y-79925727D01*
X173903377Y-79950886D01*
X173880329Y-79999850D01*
X173851644Y-80066621D01*
X173819622Y-80145205D01*
X173786565Y-80229607D01*
X173754773Y-80313830D01*
X173726549Y-80391879D01*
X173704193Y-80457759D01*
X173690007Y-80505473D01*
X173686293Y-80529027D01*
X173686602Y-80529852D01*
X173699189Y-80549104D01*
X173727744Y-80591463D01*
X173769267Y-80652521D01*
X173820756Y-80727868D01*
X173879211Y-80813096D01*
X173895858Y-80837315D01*
X173955215Y-80925123D01*
X174007447Y-81005238D01*
X174049708Y-81073062D01*
X174079153Y-81123993D01*
X174092937Y-81153431D01*
X174093605Y-81157048D01*
X174082024Y-81176057D01*
X174050024Y-81213714D01*
X174001718Y-81265973D01*
X173941220Y-81328786D01*
X173872644Y-81398106D01*
X173800104Y-81469885D01*
X173727712Y-81540077D01*
X173659584Y-81604635D01*
X173599832Y-81659510D01*
X173552571Y-81700656D01*
X173521913Y-81724026D01*
X173513432Y-81727842D01*
X173493691Y-81718855D01*
X173453274Y-81694616D01*
X173398763Y-81659209D01*
X173356823Y-81630711D01*
X173280829Y-81578418D01*
X173190834Y-81516845D01*
X173100564Y-81455370D01*
X173052032Y-81422469D01*
X172887762Y-81311359D01*
X172749869Y-81385916D01*
X172687049Y-81418578D01*
X172633629Y-81443966D01*
X172597484Y-81458446D01*
X172588284Y-81460460D01*
X172577221Y-81445584D01*
X172555394Y-81403547D01*
X172524434Y-81338227D01*
X172485970Y-81253500D01*
X172441632Y-81153245D01*
X172393047Y-81041339D01*
X172341846Y-80921659D01*
X172289659Y-80798084D01*
X172238113Y-80674491D01*
X172188840Y-80554757D01*
X172143467Y-80442759D01*
X172103625Y-80342377D01*
X172070942Y-80257486D01*
X172047049Y-80191965D01*
X172033574Y-80149690D01*
X172031406Y-80135172D01*
X172048583Y-80116653D01*
X172086190Y-80086590D01*
X172136366Y-80051232D01*
X172140578Y-80048434D01*
X172270264Y-79944625D01*
X172374834Y-79823515D01*
X172453381Y-79688976D01*
X172504999Y-79544882D01*
X172528782Y-79395105D01*
X172523823Y-79243517D01*
X172489217Y-79093992D01*
X172424057Y-78950400D01*
X172404886Y-78918984D01*
X172305174Y-78792125D01*
X172187377Y-78690255D01*
X172055571Y-78613904D01*
X171913833Y-78563602D01*
X171766242Y-78539879D01*
X171616873Y-78543265D01*
X171469803Y-78574288D01*
X171329111Y-78633480D01*
X171198873Y-78721369D01*
X171158586Y-78757042D01*
X171056055Y-78868706D01*
X170981341Y-78986257D01*
X170930090Y-79118020D01*
X170901546Y-79248507D01*
X170894500Y-79395216D01*
X170917996Y-79542653D01*
X170969649Y-79685834D01*
X171047071Y-79819777D01*
X171147875Y-79939498D01*
X171269676Y-80040014D01*
X171285684Y-80050609D01*
X171336398Y-80085306D01*
X171374950Y-80115370D01*
X171393381Y-80134565D01*
X171393649Y-80135172D01*
X171389692Y-80155936D01*
X171374007Y-80203062D01*
X171348222Y-80272673D01*
X171313969Y-80360893D01*
X171272877Y-80463844D01*
X171226576Y-80577650D01*
X171176696Y-80698435D01*
X171124867Y-80822321D01*
X171072719Y-80945432D01*
X171021882Y-81063891D01*
X170973987Y-81173823D01*
X170930662Y-81271349D01*
X170893538Y-81352593D01*
X170864244Y-81413679D01*
X170844412Y-81450730D01*
X170836426Y-81460460D01*
X170812021Y-81452883D01*
X170766358Y-81432560D01*
X170707310Y-81403125D01*
X170674840Y-81385916D01*
X170536947Y-81311359D01*
X170372677Y-81422469D01*
X170288821Y-81479390D01*
X170197013Y-81542030D01*
X170110980Y-81601011D01*
X170067887Y-81630711D01*
X170007277Y-81671410D01*
X169955955Y-81703663D01*
X169920615Y-81723384D01*
X169909137Y-81727554D01*
X169892430Y-81716307D01*
X169855454Y-81684911D01*
X169801795Y-81636624D01*
X169735038Y-81574708D01*
X169658766Y-81502421D01*
X169610527Y-81456008D01*
X169526133Y-81373087D01*
X169453197Y-81298920D01*
X169394669Y-81236680D01*
X169353497Y-81189541D01*
X169332628Y-81160673D01*
X169330626Y-81154815D01*
X169339917Y-81132532D01*
X169365591Y-81087477D01*
X169404800Y-81024211D01*
X169454697Y-80947295D01*
X169512433Y-80861292D01*
X169528851Y-80837315D01*
X169588677Y-80750170D01*
X169642350Y-80671710D01*
X169686870Y-80606345D01*
X169719235Y-80558484D01*
X169736445Y-80532535D01*
X169738107Y-80529852D01*
X169735621Y-80509172D01*
X169722423Y-80463704D01*
X169700814Y-80399444D01*
X169673096Y-80322387D01*
X169641570Y-80238529D01*
X169608537Y-80153866D01*
X169576299Y-80074392D01*
X169547157Y-80006104D01*
X169523412Y-79954997D01*
X169507365Y-79927067D01*
X169506225Y-79925727D01*
X169496412Y-79917745D01*
X169479839Y-79909851D01*
X169452868Y-79901229D01*
X169411861Y-79891062D01*
X169353180Y-79878531D01*
X169273187Y-79862821D01*
X169168245Y-79843113D01*
X169034715Y-79818592D01*
X169005804Y-79813319D01*
X168920118Y-79796764D01*
X168845418Y-79780569D01*
X168788306Y-79766296D01*
X168755383Y-79755508D01*
X168750969Y-79752993D01*
X168743694Y-79730696D01*
X168737781Y-79680869D01*
X168733234Y-79609304D01*
X168730055Y-79521793D01*
X168728251Y-79424128D01*
X168727823Y-79322101D01*
X168728777Y-79221503D01*
X168731116Y-79128127D01*
X168734844Y-79047765D01*
X168739966Y-78986209D01*
X168746484Y-78949250D01*
X168750414Y-78941686D01*
X168772292Y-78934056D01*
X168822109Y-78921642D01*
X168894903Y-78905522D01*
X168985711Y-78886773D01*
X169089569Y-78866471D01*
X169146154Y-78855830D01*
X169253514Y-78835760D01*
X169349254Y-78817580D01*
X169428694Y-78802199D01*
X169487154Y-78790531D01*
X169519955Y-78783488D01*
X169525354Y-78781926D01*
X169534478Y-78764322D01*
X169553765Y-78721918D01*
X169580645Y-78660772D01*
X169612546Y-78586943D01*
X169646898Y-78506489D01*
X169681129Y-78425468D01*
X169712669Y-78349937D01*
X169738946Y-78285955D01*
X169757389Y-78239580D01*
X169765429Y-78216869D01*
X169765578Y-78215876D01*
X169756465Y-78197961D01*
X169730914Y-78156733D01*
X169691612Y-78096291D01*
X169641243Y-78020731D01*
X169582494Y-77934152D01*
X169548342Y-77884421D01*
X169486110Y-77793236D01*
X169430836Y-77710449D01*
X169385218Y-77640249D01*
X169351952Y-77586824D01*
X169333736Y-77554361D01*
X169331105Y-77547083D01*
X169342414Y-77530145D01*
X169373681Y-77493978D01*
X169420910Y-77442635D01*
X169480108Y-77380167D01*
X169547281Y-77310626D01*
X169618434Y-77238065D01*
X169689574Y-77166535D01*
X169756707Y-77100087D01*
X169815839Y-77042774D01*
X169862975Y-76998647D01*
X169894123Y-76971759D01*
X169904543Y-76965342D01*
X169921509Y-76974365D01*
X169962089Y-76999715D01*
X170022337Y-77038810D01*
X170098307Y-77089071D01*
X170186054Y-77147917D01*
X170252244Y-77192748D01*
X170586668Y-77420154D01*
X170865433Y-77305238D01*
X171144197Y-77190322D01*
X171219746Y-76789576D01*
X171295294Y-76388829D01*
X172129415Y-76388829D01*
X172204964Y-76789576D01*
X172204964Y-76789576D01*
G37*
X172204964Y-76789576D02*
X172280513Y-77190322D01*
X172838041Y-77420154D01*
X173172465Y-77192748D01*
X173266122Y-77129431D01*
X173350782Y-77072896D01*
X173422495Y-77025727D01*
X173477311Y-76990502D01*
X173511280Y-76969805D01*
X173520530Y-76965342D01*
X173537195Y-76976820D01*
X173572806Y-77008551D01*
X173623371Y-77056483D01*
X173684900Y-77116562D01*
X173753399Y-77184733D01*
X173824879Y-77256945D01*
X173895347Y-77329142D01*
X173960811Y-77397273D01*
X174017280Y-77457283D01*
X174060763Y-77505119D01*
X174087268Y-77536727D01*
X174093605Y-77547305D01*
X174084486Y-77566806D01*
X174058920Y-77609531D01*
X174019597Y-77671298D01*
X173969203Y-77747931D01*
X173910427Y-77835248D01*
X173876368Y-77885052D01*
X173814289Y-77975993D01*
X173759126Y-78058059D01*
X173713554Y-78127163D01*
X173680250Y-78179222D01*
X173661890Y-78210150D01*
X173659131Y-78216650D01*
X173665385Y-78235121D01*
X173682434Y-78278172D01*
X173707703Y-78339749D01*
X173738622Y-78413799D01*
X173772618Y-78494270D01*
X173807118Y-78575107D01*
X173839551Y-78650258D01*
X173867343Y-78713671D01*
X173887923Y-78759293D01*
X173898719Y-78781069D01*
X173899356Y-78781926D01*
X173916307Y-78786084D01*
X173961451Y-78795361D01*
X174030110Y-78808844D01*
X174117602Y-78825621D01*
X174219250Y-78844781D01*
X174278556Y-78855830D01*
X174387172Y-78876510D01*
X174485277Y-78896189D01*
X174567909Y-78913789D01*
X174630104Y-78928233D01*
X174666899Y-78938446D01*
X174674296Y-78941686D01*
X174681540Y-78963617D01*
X174687385Y-79013147D01*
X174691835Y-79084485D01*
X174694893Y-79171839D01*
X174696565Y-79269417D01*
X174696853Y-79371426D01*
X174695761Y-79472075D01*
X174693294Y-79565572D01*
X174689456Y-79646125D01*
X174684250Y-79707942D01*
X174677681Y-79745230D01*
X174673741Y-79752993D01*
X174650188Y-79762298D01*
X174600282Y-79775600D01*
X174530623Y-79791337D01*
X174447813Y-79807946D01*
X174418905Y-79813319D01*
X174279531Y-79838848D01*
X174169436Y-79859408D01*
X174084982Y-79875815D01*
X174022530Y-79888887D01*
X173978444Y-79899441D01*
X173949085Y-79908294D01*
X173930815Y-79916263D01*
X173919998Y-79924165D01*
X173918485Y-79925727D01*
X173903377Y-79950886D01*
X173880329Y-79999850D01*
X173851644Y-80066621D01*
X173819622Y-80145205D01*
X173786565Y-80229607D01*
X173754773Y-80313830D01*
X173726549Y-80391879D01*
X173704193Y-80457759D01*
X173690007Y-80505473D01*
X173686293Y-80529027D01*
X173686602Y-80529852D01*
X173699189Y-80549104D01*
X173727744Y-80591463D01*
X173769267Y-80652521D01*
X173820756Y-80727868D01*
X173879211Y-80813096D01*
X173895858Y-80837315D01*
X173955215Y-80925123D01*
X174007447Y-81005238D01*
X174049708Y-81073062D01*
X174079153Y-81123993D01*
X174092937Y-81153431D01*
X174093605Y-81157048D01*
X174082024Y-81176057D01*
X174050024Y-81213714D01*
X174001718Y-81265973D01*
X173941220Y-81328786D01*
X173872644Y-81398106D01*
X173800104Y-81469885D01*
X173727712Y-81540077D01*
X173659584Y-81604635D01*
X173599832Y-81659510D01*
X173552571Y-81700656D01*
X173521913Y-81724026D01*
X173513432Y-81727842D01*
X173493691Y-81718855D01*
X173453274Y-81694616D01*
X173398763Y-81659209D01*
X173356823Y-81630711D01*
X173280829Y-81578418D01*
X173190834Y-81516845D01*
X173100564Y-81455370D01*
X173052032Y-81422469D01*
X172887762Y-81311359D01*
X172749869Y-81385916D01*
X172687049Y-81418578D01*
X172633629Y-81443966D01*
X172597484Y-81458446D01*
X172588284Y-81460460D01*
X172577221Y-81445584D01*
X172555394Y-81403547D01*
X172524434Y-81338227D01*
X172485970Y-81253500D01*
X172441632Y-81153245D01*
X172393047Y-81041339D01*
X172341846Y-80921659D01*
X172289659Y-80798084D01*
X172238113Y-80674491D01*
X172188840Y-80554757D01*
X172143467Y-80442759D01*
X172103625Y-80342377D01*
X172070942Y-80257486D01*
X172047049Y-80191965D01*
X172033574Y-80149690D01*
X172031406Y-80135172D01*
X172048583Y-80116653D01*
X172086190Y-80086590D01*
X172136366Y-80051232D01*
X172140578Y-80048434D01*
X172270264Y-79944625D01*
X172374834Y-79823515D01*
X172453381Y-79688976D01*
X172504999Y-79544882D01*
X172528782Y-79395105D01*
X172523823Y-79243517D01*
X172489217Y-79093992D01*
X172424057Y-78950400D01*
X172404886Y-78918984D01*
X172305174Y-78792125D01*
X172187377Y-78690255D01*
X172055571Y-78613904D01*
X171913833Y-78563602D01*
X171766242Y-78539879D01*
X171616873Y-78543265D01*
X171469803Y-78574288D01*
X171329111Y-78633480D01*
X171198873Y-78721369D01*
X171158586Y-78757042D01*
X171056055Y-78868706D01*
X170981341Y-78986257D01*
X170930090Y-79118020D01*
X170901546Y-79248507D01*
X170894500Y-79395216D01*
X170917996Y-79542653D01*
X170969649Y-79685834D01*
X171047071Y-79819777D01*
X171147875Y-79939498D01*
X171269676Y-80040014D01*
X171285684Y-80050609D01*
X171336398Y-80085306D01*
X171374950Y-80115370D01*
X171393381Y-80134565D01*
X171393649Y-80135172D01*
X171389692Y-80155936D01*
X171374007Y-80203062D01*
X171348222Y-80272673D01*
X171313969Y-80360893D01*
X171272877Y-80463844D01*
X171226576Y-80577650D01*
X171176696Y-80698435D01*
X171124867Y-80822321D01*
X171072719Y-80945432D01*
X171021882Y-81063891D01*
X170973987Y-81173823D01*
X170930662Y-81271349D01*
X170893538Y-81352593D01*
X170864244Y-81413679D01*
X170844412Y-81450730D01*
X170836426Y-81460460D01*
X170812021Y-81452883D01*
X170766358Y-81432560D01*
X170707310Y-81403125D01*
X170674840Y-81385916D01*
X170536947Y-81311359D01*
X170372677Y-81422469D01*
X170288821Y-81479390D01*
X170197013Y-81542030D01*
X170110980Y-81601011D01*
X170067887Y-81630711D01*
X170007277Y-81671410D01*
X169955955Y-81703663D01*
X169920615Y-81723384D01*
X169909137Y-81727554D01*
X169892430Y-81716307D01*
X169855454Y-81684911D01*
X169801795Y-81636624D01*
X169735038Y-81574708D01*
X169658766Y-81502421D01*
X169610527Y-81456008D01*
X169526133Y-81373087D01*
X169453197Y-81298920D01*
X169394669Y-81236680D01*
X169353497Y-81189541D01*
X169332628Y-81160673D01*
X169330626Y-81154815D01*
X169339917Y-81132532D01*
X169365591Y-81087477D01*
X169404800Y-81024211D01*
X169454697Y-80947295D01*
X169512433Y-80861292D01*
X169528851Y-80837315D01*
X169588677Y-80750170D01*
X169642350Y-80671710D01*
X169686870Y-80606345D01*
X169719235Y-80558484D01*
X169736445Y-80532535D01*
X169738107Y-80529852D01*
X169735621Y-80509172D01*
X169722423Y-80463704D01*
X169700814Y-80399444D01*
X169673096Y-80322387D01*
X169641570Y-80238529D01*
X169608537Y-80153866D01*
X169576299Y-80074392D01*
X169547157Y-80006104D01*
X169523412Y-79954997D01*
X169507365Y-79927067D01*
X169506225Y-79925727D01*
X169496412Y-79917745D01*
X169479839Y-79909851D01*
X169452868Y-79901229D01*
X169411861Y-79891062D01*
X169353180Y-79878531D01*
X169273187Y-79862821D01*
X169168245Y-79843113D01*
X169034715Y-79818592D01*
X169005804Y-79813319D01*
X168920118Y-79796764D01*
X168845418Y-79780569D01*
X168788306Y-79766296D01*
X168755383Y-79755508D01*
X168750969Y-79752993D01*
X168743694Y-79730696D01*
X168737781Y-79680869D01*
X168733234Y-79609304D01*
X168730055Y-79521793D01*
X168728251Y-79424128D01*
X168727823Y-79322101D01*
X168728777Y-79221503D01*
X168731116Y-79128127D01*
X168734844Y-79047765D01*
X168739966Y-78986209D01*
X168746484Y-78949250D01*
X168750414Y-78941686D01*
X168772292Y-78934056D01*
X168822109Y-78921642D01*
X168894903Y-78905522D01*
X168985711Y-78886773D01*
X169089569Y-78866471D01*
X169146154Y-78855830D01*
X169253514Y-78835760D01*
X169349254Y-78817580D01*
X169428694Y-78802199D01*
X169487154Y-78790531D01*
X169519955Y-78783488D01*
X169525354Y-78781926D01*
X169534478Y-78764322D01*
X169553765Y-78721918D01*
X169580645Y-78660772D01*
X169612546Y-78586943D01*
X169646898Y-78506489D01*
X169681129Y-78425468D01*
X169712669Y-78349937D01*
X169738946Y-78285955D01*
X169757389Y-78239580D01*
X169765429Y-78216869D01*
X169765578Y-78215876D01*
X169756465Y-78197961D01*
X169730914Y-78156733D01*
X169691612Y-78096291D01*
X169641243Y-78020731D01*
X169582494Y-77934152D01*
X169548342Y-77884421D01*
X169486110Y-77793236D01*
X169430836Y-77710449D01*
X169385218Y-77640249D01*
X169351952Y-77586824D01*
X169333736Y-77554361D01*
X169331105Y-77547083D01*
X169342414Y-77530145D01*
X169373681Y-77493978D01*
X169420910Y-77442635D01*
X169480108Y-77380167D01*
X169547281Y-77310626D01*
X169618434Y-77238065D01*
X169689574Y-77166535D01*
X169756707Y-77100087D01*
X169815839Y-77042774D01*
X169862975Y-76998647D01*
X169894123Y-76971759D01*
X169904543Y-76965342D01*
X169921509Y-76974365D01*
X169962089Y-76999715D01*
X170022337Y-77038810D01*
X170098307Y-77089071D01*
X170186054Y-77147917D01*
X170252244Y-77192748D01*
X170586668Y-77420154D01*
X170865433Y-77305238D01*
X171144197Y-77190322D01*
X171219746Y-76789576D01*
X171295294Y-76388829D01*
X172129415Y-76388829D01*
X172204964Y-76789576D01*
G36*
X174095388Y-82328645D02*
X174152865Y-82346206D01*
X174189872Y-82368395D01*
X174201927Y-82385942D01*
X174198609Y-82406742D01*
X174177079Y-82439419D01*
X174158874Y-82462562D01*
X174121344Y-82504402D01*
X174093148Y-82522005D01*
X174069111Y-82520856D01*
X173997808Y-82502710D01*
X173945442Y-82503534D01*
X173902918Y-82524098D01*
X173888642Y-82536134D01*
X173842947Y-82578483D01*
X173842947Y-83131526D01*
X173659131Y-83131526D01*
X173659131Y-82329421D01*
X173751039Y-82329421D01*
X173806219Y-82331603D01*
X173834688Y-82339351D01*
X173842943Y-82354468D01*
X173842947Y-82354916D01*
X173846845Y-82370749D01*
X173864474Y-82368684D01*
X173888901Y-82357261D01*
X173939350Y-82336005D01*
X173980316Y-82323216D01*
X174033028Y-82319938D01*
X174095388Y-82328645D01*
X174095388Y-82328645D01*
G37*
X174095388Y-82328645D02*
X174152865Y-82346206D01*
X174189872Y-82368395D01*
X174201927Y-82385942D01*
X174198609Y-82406742D01*
X174177079Y-82439419D01*
X174158874Y-82462562D01*
X174121344Y-82504402D01*
X174093148Y-82522005D01*
X174069111Y-82520856D01*
X173997808Y-82502710D01*
X173945442Y-82503534D01*
X173902918Y-82524098D01*
X173888642Y-82536134D01*
X173842947Y-82578483D01*
X173842947Y-83131526D01*
X173659131Y-83131526D01*
X173659131Y-82329421D01*
X173751039Y-82329421D01*
X173806219Y-82331603D01*
X173834688Y-82339351D01*
X173842943Y-82354468D01*
X173842947Y-82354916D01*
X173846845Y-82370749D01*
X173864474Y-82368684D01*
X173888901Y-82357261D01*
X173939350Y-82336005D01*
X173980316Y-82323216D01*
X174033028Y-82319938D01*
X174095388Y-82328645D01*
G36*
X170701957Y-82343226D02*
X170743546Y-82363090D01*
X170783825Y-82391784D01*
X170814510Y-82424809D01*
X170836861Y-82466931D01*
X170852136Y-82522915D01*
X170861592Y-82597528D01*
X170866487Y-82695535D01*
X170868081Y-82821702D01*
X170868106Y-82834914D01*
X170868473Y-83131526D01*
X170684657Y-83131526D01*
X170684657Y-82858081D01*
X170684527Y-82756777D01*
X170683621Y-82683353D01*
X170681173Y-82632271D01*
X170676414Y-82597990D01*
X170668574Y-82574971D01*
X170656885Y-82557673D01*
X170640602Y-82540581D01*
X170583634Y-82503857D01*
X170521445Y-82497042D01*
X170462199Y-82520261D01*
X170441595Y-82537543D01*
X170426470Y-82553791D01*
X170415610Y-82571191D01*
X170408310Y-82595212D01*
X170403863Y-82631322D01*
X170401564Y-82684988D01*
X170400704Y-82761680D01*
X170400578Y-82855043D01*
X170400578Y-83131526D01*
X170216763Y-83131526D01*
X170216763Y-82329421D01*
X170308671Y-82329421D01*
X170363851Y-82331603D01*
X170392320Y-82339351D01*
X170400575Y-82354468D01*
X170400578Y-82354916D01*
X170404408Y-82369720D01*
X170421301Y-82368040D01*
X170454888Y-82351773D01*
X170531063Y-82327840D01*
X170618200Y-82325178D01*
X170701957Y-82343226D01*
X170701957Y-82343226D01*
G37*
X170701957Y-82343226D02*
X170743546Y-82363090D01*
X170783825Y-82391784D01*
X170814510Y-82424809D01*
X170836861Y-82466931D01*
X170852136Y-82522915D01*
X170861592Y-82597528D01*
X170866487Y-82695535D01*
X170868081Y-82821702D01*
X170868106Y-82834914D01*
X170868473Y-83131526D01*
X170684657Y-83131526D01*
X170684657Y-82858081D01*
X170684527Y-82756777D01*
X170683621Y-82683353D01*
X170681173Y-82632271D01*
X170676414Y-82597990D01*
X170668574Y-82574971D01*
X170656885Y-82557673D01*
X170640602Y-82540581D01*
X170583634Y-82503857D01*
X170521445Y-82497042D01*
X170462199Y-82520261D01*
X170441595Y-82537543D01*
X170426470Y-82553791D01*
X170415610Y-82571191D01*
X170408310Y-82595212D01*
X170403863Y-82631322D01*
X170401564Y-82684988D01*
X170400704Y-82761680D01*
X170400578Y-82855043D01*
X170400578Y-83131526D01*
X170216763Y-83131526D01*
X170216763Y-82329421D01*
X170308671Y-82329421D01*
X170363851Y-82331603D01*
X170392320Y-82339351D01*
X170400575Y-82354468D01*
X170400578Y-82354916D01*
X170404408Y-82369720D01*
X170421301Y-82368040D01*
X170454888Y-82351773D01*
X170531063Y-82327840D01*
X170618200Y-82325178D01*
X170701957Y-82343226D01*
G36*
X175262784Y-82326554D02*
X175305574Y-82336949D01*
X175387609Y-82375013D01*
X175457757Y-82433149D01*
X175506305Y-82502852D01*
X175512975Y-82518502D01*
X175522124Y-82559496D01*
X175528529Y-82620138D01*
X175530710Y-82681430D01*
X175530710Y-82797316D01*
X175288407Y-82797316D01*
X175188471Y-82797693D01*
X175118069Y-82799987D01*
X175073313Y-82805938D01*
X175050315Y-82817285D01*
X175045189Y-82835771D01*
X175054048Y-82863136D01*
X175069917Y-82895155D01*
X175114184Y-82948592D01*
X175175699Y-82975215D01*
X175250885Y-82974347D01*
X175336053Y-82945371D01*
X175409659Y-82909611D01*
X175470734Y-82957904D01*
X175531810Y-83006197D01*
X175474351Y-83059285D01*
X175397641Y-83109445D01*
X175303302Y-83139688D01*
X175201827Y-83148151D01*
X175103711Y-83132974D01*
X175087881Y-83127824D01*
X175001647Y-83082791D01*
X174937501Y-83015652D01*
X174894091Y-82924405D01*
X174870064Y-82807044D01*
X174869784Y-82804529D01*
X174867633Y-82676627D01*
X174876329Y-82630997D01*
X175046105Y-82630997D01*
X175061697Y-82638013D01*
X175104029Y-82643388D01*
X175166434Y-82646457D01*
X175205981Y-82646921D01*
X175279728Y-82646630D01*
X175325840Y-82644783D01*
X175350100Y-82639912D01*
X175358294Y-82630555D01*
X175356206Y-82615245D01*
X175354455Y-82609322D01*
X175324560Y-82553668D01*
X175277542Y-82508815D01*
X175236049Y-82489105D01*
X175180926Y-82490295D01*
X175125068Y-82514875D01*
X175078212Y-82555570D01*
X175050094Y-82605108D01*
X175046105Y-82630997D01*
X174876329Y-82630997D01*
X174889074Y-82564133D01*
X174931611Y-82469727D01*
X174992747Y-82396088D01*
X175069985Y-82345893D01*
X175160830Y-82321822D01*
X175262784Y-82326554D01*
X175262784Y-82326554D01*
G37*
X175262784Y-82326554D02*
X175305574Y-82336949D01*
X175387609Y-82375013D01*
X175457757Y-82433149D01*
X175506305Y-82502852D01*
X175512975Y-82518502D01*
X175522124Y-82559496D01*
X175528529Y-82620138D01*
X175530710Y-82681430D01*
X175530710Y-82797316D01*
X175288407Y-82797316D01*
X175188471Y-82797693D01*
X175118069Y-82799987D01*
X175073313Y-82805938D01*
X175050315Y-82817285D01*
X175045189Y-82835771D01*
X175054048Y-82863136D01*
X175069917Y-82895155D01*
X175114184Y-82948592D01*
X175175699Y-82975215D01*
X175250885Y-82974347D01*
X175336053Y-82945371D01*
X175409659Y-82909611D01*
X175470734Y-82957904D01*
X175531810Y-83006197D01*
X175474351Y-83059285D01*
X175397641Y-83109445D01*
X175303302Y-83139688D01*
X175201827Y-83148151D01*
X175103711Y-83132974D01*
X175087881Y-83127824D01*
X175001647Y-83082791D01*
X174937501Y-83015652D01*
X174894091Y-82924405D01*
X174870064Y-82807044D01*
X174869784Y-82804529D01*
X174867633Y-82676627D01*
X174876329Y-82630997D01*
X175046105Y-82630997D01*
X175061697Y-82638013D01*
X175104029Y-82643388D01*
X175166434Y-82646457D01*
X175205981Y-82646921D01*
X175279728Y-82646630D01*
X175325840Y-82644783D01*
X175350100Y-82639912D01*
X175358294Y-82630555D01*
X175356206Y-82615245D01*
X175354455Y-82609322D01*
X175324560Y-82553668D01*
X175277542Y-82508815D01*
X175236049Y-82489105D01*
X175180926Y-82490295D01*
X175125068Y-82514875D01*
X175078212Y-82555570D01*
X175050094Y-82605108D01*
X175046105Y-82630997D01*
X174876329Y-82630997D01*
X174889074Y-82564133D01*
X174931611Y-82469727D01*
X174992747Y-82396088D01*
X175069985Y-82345893D01*
X175160830Y-82321822D01*
X175262784Y-82326554D01*
G36*
X174650576Y-82336419D02*
X174747395Y-82377549D01*
X174777890Y-82397571D01*
X174816865Y-82428340D01*
X174841331Y-82452533D01*
X174845578Y-82460413D01*
X174833584Y-82477899D01*
X174802887Y-82507570D01*
X174778312Y-82528279D01*
X174711046Y-82582336D01*
X174657930Y-82537642D01*
X174616884Y-82508789D01*
X174576863Y-82498829D01*
X174531059Y-82501261D01*
X174458324Y-82519345D01*
X174408256Y-82556881D01*
X174377829Y-82617562D01*
X174364017Y-82705081D01*
X174364013Y-82705136D01*
X174365208Y-82802958D01*
X174383772Y-82874730D01*
X174420804Y-82923595D01*
X174446050Y-82940143D01*
X174513097Y-82960749D01*
X174584709Y-82960762D01*
X174647015Y-82940768D01*
X174661763Y-82931000D01*
X174698750Y-82906047D01*
X174727668Y-82901958D01*
X174758856Y-82920530D01*
X174793336Y-82953887D01*
X174847912Y-83010196D01*
X174787318Y-83060142D01*
X174693698Y-83116513D01*
X174588125Y-83144293D01*
X174477798Y-83142282D01*
X174405343Y-83123862D01*
X174320656Y-83078310D01*
X174252927Y-83006650D01*
X174222157Y-82956066D01*
X174197236Y-82883488D01*
X174184766Y-82791569D01*
X174184670Y-82691948D01*
X174196870Y-82596267D01*
X174221290Y-82516169D01*
X174225136Y-82507956D01*
X174282093Y-82427413D01*
X174359209Y-82368771D01*
X174450390Y-82333247D01*
X174549543Y-82322057D01*
X174650576Y-82336419D01*
X174650576Y-82336419D01*
G37*
X174650576Y-82336419D02*
X174747395Y-82377549D01*
X174777890Y-82397571D01*
X174816865Y-82428340D01*
X174841331Y-82452533D01*
X174845578Y-82460413D01*
X174833584Y-82477899D01*
X174802887Y-82507570D01*
X174778312Y-82528279D01*
X174711046Y-82582336D01*
X174657930Y-82537642D01*
X174616884Y-82508789D01*
X174576863Y-82498829D01*
X174531059Y-82501261D01*
X174458324Y-82519345D01*
X174408256Y-82556881D01*
X174377829Y-82617562D01*
X174364017Y-82705081D01*
X174364013Y-82705136D01*
X174365208Y-82802958D01*
X174383772Y-82874730D01*
X174420804Y-82923595D01*
X174446050Y-82940143D01*
X174513097Y-82960749D01*
X174584709Y-82960762D01*
X174647015Y-82940768D01*
X174661763Y-82931000D01*
X174698750Y-82906047D01*
X174727668Y-82901958D01*
X174758856Y-82920530D01*
X174793336Y-82953887D01*
X174847912Y-83010196D01*
X174787318Y-83060142D01*
X174693698Y-83116513D01*
X174588125Y-83144293D01*
X174477798Y-83142282D01*
X174405343Y-83123862D01*
X174320656Y-83078310D01*
X174252927Y-83006650D01*
X174222157Y-82956066D01*
X174197236Y-82883488D01*
X174184766Y-82791569D01*
X174184670Y-82691948D01*
X174196870Y-82596267D01*
X174221290Y-82516169D01*
X174225136Y-82507956D01*
X174282093Y-82427413D01*
X174359209Y-82368771D01*
X174450390Y-82333247D01*
X174549543Y-82322057D01*
X174650576Y-82336419D01*
G36*
X173024131Y-82589533D02*
X173025710Y-82712089D01*
X173031481Y-82805179D01*
X173042991Y-82872651D01*
X173061790Y-82918355D01*
X173089426Y-82946139D01*
X173127448Y-82959854D01*
X173174526Y-82963358D01*
X173223832Y-82959432D01*
X173261283Y-82945089D01*
X173288428Y-82916478D01*
X173306815Y-82869751D01*
X173317993Y-82801058D01*
X173323511Y-82706550D01*
X173324921Y-82589533D01*
X173324921Y-82329421D01*
X173508736Y-82329421D01*
X173508736Y-83131526D01*
X173416828Y-83131526D01*
X173361422Y-83129281D01*
X173332891Y-83121396D01*
X173324921Y-83106428D01*
X173320120Y-83093097D01*
X173301014Y-83095917D01*
X173262504Y-83114783D01*
X173174239Y-83143887D01*
X173080623Y-83141825D01*
X172990921Y-83110221D01*
X172948204Y-83085257D01*
X172915621Y-83058226D01*
X172891817Y-83024405D01*
X172875439Y-82979068D01*
X172865131Y-82917489D01*
X172859541Y-82834943D01*
X172857312Y-82726705D01*
X172857026Y-82643004D01*
X172857026Y-82329421D01*
X173024131Y-82329421D01*
X173024131Y-82589533D01*
X173024131Y-82589533D01*
G37*
X173024131Y-82589533D02*
X173025710Y-82712089D01*
X173031481Y-82805179D01*
X173042991Y-82872651D01*
X173061790Y-82918355D01*
X173089426Y-82946139D01*
X173127448Y-82959854D01*
X173174526Y-82963358D01*
X173223832Y-82959432D01*
X173261283Y-82945089D01*
X173288428Y-82916478D01*
X173306815Y-82869751D01*
X173317993Y-82801058D01*
X173323511Y-82706550D01*
X173324921Y-82589533D01*
X173324921Y-82329421D01*
X173508736Y-82329421D01*
X173508736Y-83131526D01*
X173416828Y-83131526D01*
X173361422Y-83129281D01*
X173332891Y-83121396D01*
X173324921Y-83106428D01*
X173320120Y-83093097D01*
X173301014Y-83095917D01*
X173262504Y-83114783D01*
X173174239Y-83143887D01*
X173080623Y-83141825D01*
X172990921Y-83110221D01*
X172948204Y-83085257D01*
X172915621Y-83058226D01*
X172891817Y-83024405D01*
X172875439Y-82979068D01*
X172865131Y-82917489D01*
X172859541Y-82834943D01*
X172857312Y-82726705D01*
X172857026Y-82643004D01*
X172857026Y-82329421D01*
X173024131Y-82329421D01*
X173024131Y-82589533D01*
G36*
X172515669Y-82339310D02*
X172600192Y-82385340D01*
X172666321Y-82458006D01*
X172697478Y-82517106D01*
X172710855Y-82569305D01*
X172719522Y-82643719D01*
X172723237Y-82729442D01*
X172721754Y-82815569D01*
X172714831Y-82891193D01*
X172706745Y-82931584D01*
X172679465Y-82986840D01*
X172632220Y-83045530D01*
X172575282Y-83096852D01*
X172518924Y-83130005D01*
X172517550Y-83130531D01*
X172447616Y-83145018D01*
X172364737Y-83145377D01*
X172285977Y-83132188D01*
X172255566Y-83121617D01*
X172177239Y-83077201D01*
X172121143Y-83019007D01*
X172084286Y-82941965D01*
X172063680Y-82841001D01*
X172059018Y-82788116D01*
X172059613Y-82721663D01*
X172238736Y-82721663D01*
X172244770Y-82818630D01*
X172262138Y-82892523D01*
X172289740Y-82939736D01*
X172309404Y-82953237D01*
X172359787Y-82962651D01*
X172419673Y-82959864D01*
X172471449Y-82946316D01*
X172485027Y-82938862D01*
X172520849Y-82895451D01*
X172544493Y-82829014D01*
X172554558Y-82748161D01*
X172549642Y-82661502D01*
X172538655Y-82609349D01*
X172507109Y-82548951D01*
X172457311Y-82511197D01*
X172397337Y-82498143D01*
X172335264Y-82511849D01*
X172287582Y-82545372D01*
X172262525Y-82573031D01*
X172247900Y-82600294D01*
X172240929Y-82637190D01*
X172238833Y-82693750D01*
X172238736Y-82721663D01*
X172059613Y-82721663D01*
X172060282Y-82646994D01*
X172083265Y-82531271D01*
X172127972Y-82440941D01*
X172194405Y-82376000D01*
X172282565Y-82336445D01*
X172301495Y-82331858D01*
X172415266Y-82321090D01*
X172515669Y-82339310D01*
X172515669Y-82339310D01*
G37*
X172515669Y-82339310D02*
X172600192Y-82385340D01*
X172666321Y-82458006D01*
X172697478Y-82517106D01*
X172710855Y-82569305D01*
X172719522Y-82643719D01*
X172723237Y-82729442D01*
X172721754Y-82815569D01*
X172714831Y-82891193D01*
X172706745Y-82931584D01*
X172679465Y-82986840D01*
X172632220Y-83045530D01*
X172575282Y-83096852D01*
X172518924Y-83130005D01*
X172517550Y-83130531D01*
X172447616Y-83145018D01*
X172364737Y-83145377D01*
X172285977Y-83132188D01*
X172255566Y-83121617D01*
X172177239Y-83077201D01*
X172121143Y-83019007D01*
X172084286Y-82941965D01*
X172063680Y-82841001D01*
X172059018Y-82788116D01*
X172059613Y-82721663D01*
X172238736Y-82721663D01*
X172244770Y-82818630D01*
X172262138Y-82892523D01*
X172289740Y-82939736D01*
X172309404Y-82953237D01*
X172359787Y-82962651D01*
X172419673Y-82959864D01*
X172471449Y-82946316D01*
X172485027Y-82938862D01*
X172520849Y-82895451D01*
X172544493Y-82829014D01*
X172554558Y-82748161D01*
X172549642Y-82661502D01*
X172538655Y-82609349D01*
X172507109Y-82548951D01*
X172457311Y-82511197D01*
X172397337Y-82498143D01*
X172335264Y-82511849D01*
X172287582Y-82545372D01*
X172262525Y-82573031D01*
X172247900Y-82600294D01*
X172240929Y-82637190D01*
X172238833Y-82693750D01*
X172238736Y-82721663D01*
X172059613Y-82721663D01*
X172060282Y-82646994D01*
X172083265Y-82531271D01*
X172127972Y-82440941D01*
X172194405Y-82376000D01*
X172282565Y-82336445D01*
X172301495Y-82331858D01*
X172415266Y-82321090D01*
X172515669Y-82339310D01*
G36*
X171722628Y-82326547D02*
X171785908Y-82338548D01*
X171851557Y-82363648D01*
X171858572Y-82366848D01*
X171908356Y-82393026D01*
X171942834Y-82417353D01*
X171953978Y-82432937D01*
X171943366Y-82458353D01*
X171917588Y-82495853D01*
X171906146Y-82509852D01*
X171858992Y-82564954D01*
X171798201Y-82529086D01*
X171740347Y-82505192D01*
X171673500Y-82492420D01*
X171609394Y-82491613D01*
X171559764Y-82503615D01*
X171547854Y-82511105D01*
X171525172Y-82545450D01*
X171522416Y-82585013D01*
X171539388Y-82615920D01*
X171549427Y-82621913D01*
X171579510Y-82629357D01*
X171632389Y-82638106D01*
X171697575Y-82646467D01*
X171709600Y-82647778D01*
X171814297Y-82665888D01*
X171890232Y-82696651D01*
X171940592Y-82742907D01*
X171968564Y-82807497D01*
X171977278Y-82886387D01*
X171965240Y-82976065D01*
X171926151Y-83046486D01*
X171859855Y-83097777D01*
X171766194Y-83130067D01*
X171662223Y-83142807D01*
X171577438Y-83142654D01*
X171508665Y-83131083D01*
X171461697Y-83115109D01*
X171402350Y-83087275D01*
X171347506Y-83054973D01*
X171328013Y-83040755D01*
X171277881Y-82999835D01*
X171398803Y-82877477D01*
X171467543Y-82922967D01*
X171536488Y-82957133D01*
X171610111Y-82975004D01*
X171680883Y-82976889D01*
X171741274Y-82963101D01*
X171783757Y-82933949D01*
X171797474Y-82909352D01*
X171795417Y-82869904D01*
X171761330Y-82839737D01*
X171695308Y-82818906D01*
X171622974Y-82809279D01*
X171511652Y-82790910D01*
X171428952Y-82756254D01*
X171373765Y-82704297D01*
X171344988Y-82634023D01*
X171341001Y-82550707D01*
X171360693Y-82463681D01*
X171405589Y-82397902D01*
X171476091Y-82353068D01*
X171572601Y-82328879D01*
X171644100Y-82324137D01*
X171722628Y-82326547D01*
X171722628Y-82326547D01*
G37*
X171722628Y-82326547D02*
X171785908Y-82338548D01*
X171851557Y-82363648D01*
X171858572Y-82366848D01*
X171908356Y-82393026D01*
X171942834Y-82417353D01*
X171953978Y-82432937D01*
X171943366Y-82458353D01*
X171917588Y-82495853D01*
X171906146Y-82509852D01*
X171858992Y-82564954D01*
X171798201Y-82529086D01*
X171740347Y-82505192D01*
X171673500Y-82492420D01*
X171609394Y-82491613D01*
X171559764Y-82503615D01*
X171547854Y-82511105D01*
X171525172Y-82545450D01*
X171522416Y-82585013D01*
X171539388Y-82615920D01*
X171549427Y-82621913D01*
X171579510Y-82629357D01*
X171632389Y-82638106D01*
X171697575Y-82646467D01*
X171709600Y-82647778D01*
X171814297Y-82665888D01*
X171890232Y-82696651D01*
X171940592Y-82742907D01*
X171968564Y-82807497D01*
X171977278Y-82886387D01*
X171965240Y-82976065D01*
X171926151Y-83046486D01*
X171859855Y-83097777D01*
X171766194Y-83130067D01*
X171662223Y-83142807D01*
X171577438Y-83142654D01*
X171508665Y-83131083D01*
X171461697Y-83115109D01*
X171402350Y-83087275D01*
X171347506Y-83054973D01*
X171328013Y-83040755D01*
X171277881Y-82999835D01*
X171398803Y-82877477D01*
X171467543Y-82922967D01*
X171536488Y-82957133D01*
X171610111Y-82975004D01*
X171680883Y-82976889D01*
X171741274Y-82963101D01*
X171783757Y-82933949D01*
X171797474Y-82909352D01*
X171795417Y-82869904D01*
X171761330Y-82839737D01*
X171695308Y-82818906D01*
X171622974Y-82809279D01*
X171511652Y-82790910D01*
X171428952Y-82756254D01*
X171373765Y-82704297D01*
X171344988Y-82634023D01*
X171341001Y-82550707D01*
X171360693Y-82463681D01*
X171405589Y-82397902D01*
X171476091Y-82353068D01*
X171572601Y-82328879D01*
X171644100Y-82324137D01*
X171722628Y-82326547D01*
G36*
X169901018Y-82348027D02*
X169917670Y-82355866D01*
X169975305Y-82398086D01*
X170029805Y-82459700D01*
X170070499Y-82527543D01*
X170082074Y-82558734D01*
X170092634Y-82614449D01*
X170098931Y-82681781D01*
X170099696Y-82709585D01*
X170099789Y-82797316D01*
X169594850Y-82797316D01*
X169605613Y-82843270D01*
X169632033Y-82897620D01*
X169678222Y-82944591D01*
X169733172Y-82974848D01*
X169768189Y-82981131D01*
X169815677Y-82973506D01*
X169872335Y-82954383D01*
X169891582Y-82945584D01*
X169962759Y-82910036D01*
X170023502Y-82956367D01*
X170058552Y-82987703D01*
X170077202Y-83013567D01*
X170078147Y-83021158D01*
X170061485Y-83039556D01*
X170024970Y-83067515D01*
X169991828Y-83089327D01*
X169902393Y-83128537D01*
X169802129Y-83146285D01*
X169702754Y-83141670D01*
X169623539Y-83117551D01*
X169541880Y-83065884D01*
X169483849Y-82997856D01*
X169447546Y-82909843D01*
X169431072Y-82798216D01*
X169429611Y-82747138D01*
X169435457Y-82630091D01*
X169436175Y-82626686D01*
X169603489Y-82626686D01*
X169608097Y-82637662D01*
X169627036Y-82643715D01*
X169666098Y-82646310D01*
X169731077Y-82646910D01*
X169756097Y-82646921D01*
X169832221Y-82646014D01*
X169880496Y-82642720D01*
X169906460Y-82636181D01*
X169915648Y-82625537D01*
X169915973Y-82622119D01*
X169905487Y-82594956D01*
X169879242Y-82556903D01*
X169867959Y-82543579D01*
X169826072Y-82505896D01*
X169782409Y-82491080D01*
X169758885Y-82489842D01*
X169695243Y-82505329D01*
X169641873Y-82546930D01*
X169608019Y-82607353D01*
X169607419Y-82609322D01*
X169603489Y-82626686D01*
X169436175Y-82626686D01*
X169454899Y-82537928D01*
X169489922Y-82464190D01*
X169532756Y-82411848D01*
X169611948Y-82355092D01*
X169705040Y-82324762D01*
X169804055Y-82322021D01*
X169901018Y-82348027D01*
X169901018Y-82348027D01*
G37*
X169901018Y-82348027D02*
X169917670Y-82355866D01*
X169975305Y-82398086D01*
X170029805Y-82459700D01*
X170070499Y-82527543D01*
X170082074Y-82558734D01*
X170092634Y-82614449D01*
X170098931Y-82681781D01*
X170099696Y-82709585D01*
X170099789Y-82797316D01*
X169594850Y-82797316D01*
X169605613Y-82843270D01*
X169632033Y-82897620D01*
X169678222Y-82944591D01*
X169733172Y-82974848D01*
X169768189Y-82981131D01*
X169815677Y-82973506D01*
X169872335Y-82954383D01*
X169891582Y-82945584D01*
X169962759Y-82910036D01*
X170023502Y-82956367D01*
X170058552Y-82987703D01*
X170077202Y-83013567D01*
X170078147Y-83021158D01*
X170061485Y-83039556D01*
X170024970Y-83067515D01*
X169991828Y-83089327D01*
X169902393Y-83128537D01*
X169802129Y-83146285D01*
X169702754Y-83141670D01*
X169623539Y-83117551D01*
X169541880Y-83065884D01*
X169483849Y-82997856D01*
X169447546Y-82909843D01*
X169431072Y-82798216D01*
X169429611Y-82747138D01*
X169435457Y-82630091D01*
X169436175Y-82626686D01*
X169603489Y-82626686D01*
X169608097Y-82637662D01*
X169627036Y-82643715D01*
X169666098Y-82646310D01*
X169731077Y-82646910D01*
X169756097Y-82646921D01*
X169832221Y-82646014D01*
X169880496Y-82642720D01*
X169906460Y-82636181D01*
X169915648Y-82625537D01*
X169915973Y-82622119D01*
X169905487Y-82594956D01*
X169879242Y-82556903D01*
X169867959Y-82543579D01*
X169826072Y-82505896D01*
X169782409Y-82491080D01*
X169758885Y-82489842D01*
X169695243Y-82505329D01*
X169641873Y-82546930D01*
X169608019Y-82607353D01*
X169607419Y-82609322D01*
X169603489Y-82626686D01*
X169436175Y-82626686D01*
X169454899Y-82537928D01*
X169489922Y-82464190D01*
X169532756Y-82411848D01*
X169611948Y-82355092D01*
X169705040Y-82324762D01*
X169804055Y-82322021D01*
X169901018Y-82348027D01*
G36*
X168330784Y-82338104D02*
X168418205Y-82376754D01*
X168484570Y-82441290D01*
X168529976Y-82531812D01*
X168554518Y-82648418D01*
X168556277Y-82666624D01*
X168557656Y-82794984D01*
X168539784Y-82907496D01*
X168503750Y-82998688D01*
X168484455Y-83028022D01*
X168417245Y-83090106D01*
X168331650Y-83130316D01*
X168235890Y-83147003D01*
X168138187Y-83138517D01*
X168063917Y-83112380D01*
X168000047Y-83068335D01*
X167947846Y-83010587D01*
X167946943Y-83009236D01*
X167925744Y-82973593D01*
X167911967Y-82937752D01*
X167903624Y-82892519D01*
X167898727Y-82828701D01*
X167896569Y-82776368D01*
X167895671Y-82728910D01*
X168062743Y-82728910D01*
X168064376Y-82776154D01*
X168070304Y-82839046D01*
X168080761Y-82879407D01*
X168099619Y-82908122D01*
X168117281Y-82924896D01*
X168179894Y-82960016D01*
X168245408Y-82964710D01*
X168306421Y-82939440D01*
X168336928Y-82911124D01*
X168358911Y-82882589D01*
X168371769Y-82855284D01*
X168377412Y-82819750D01*
X168377751Y-82766524D01*
X168376012Y-82717506D01*
X168372271Y-82647482D01*
X168366341Y-82602064D01*
X168355653Y-82572440D01*
X168337639Y-82549797D01*
X168323363Y-82536855D01*
X168263651Y-82502860D01*
X168199234Y-82501165D01*
X168145219Y-82521301D01*
X168099140Y-82563352D01*
X168071689Y-82632428D01*
X168062743Y-82728910D01*
X167895671Y-82728910D01*
X167894599Y-82672299D01*
X167897964Y-82594468D01*
X167908045Y-82535930D01*
X167926226Y-82489737D01*
X167953890Y-82448942D01*
X167964146Y-82436828D01*
X168028278Y-82376474D01*
X168097066Y-82341220D01*
X168181189Y-82326450D01*
X168222209Y-82325243D01*
X168330784Y-82338104D01*
X168330784Y-82338104D01*
G37*
X168330784Y-82338104D02*
X168418205Y-82376754D01*
X168484570Y-82441290D01*
X168529976Y-82531812D01*
X168554518Y-82648418D01*
X168556277Y-82666624D01*
X168557656Y-82794984D01*
X168539784Y-82907496D01*
X168503750Y-82998688D01*
X168484455Y-83028022D01*
X168417245Y-83090106D01*
X168331650Y-83130316D01*
X168235890Y-83147003D01*
X168138187Y-83138517D01*
X168063917Y-83112380D01*
X168000047Y-83068335D01*
X167947846Y-83010587D01*
X167946943Y-83009236D01*
X167925744Y-82973593D01*
X167911967Y-82937752D01*
X167903624Y-82892519D01*
X167898727Y-82828701D01*
X167896569Y-82776368D01*
X167895671Y-82728910D01*
X168062743Y-82728910D01*
X168064376Y-82776154D01*
X168070304Y-82839046D01*
X168080761Y-82879407D01*
X168099619Y-82908122D01*
X168117281Y-82924896D01*
X168179894Y-82960016D01*
X168245408Y-82964710D01*
X168306421Y-82939440D01*
X168336928Y-82911124D01*
X168358911Y-82882589D01*
X168371769Y-82855284D01*
X168377412Y-82819750D01*
X168377751Y-82766524D01*
X168376012Y-82717506D01*
X168372271Y-82647482D01*
X168366341Y-82602064D01*
X168355653Y-82572440D01*
X168337639Y-82549797D01*
X168323363Y-82536855D01*
X168263651Y-82502860D01*
X168199234Y-82501165D01*
X168145219Y-82521301D01*
X168099140Y-82563352D01*
X168071689Y-82632428D01*
X168062743Y-82728910D01*
X167895671Y-82728910D01*
X167894599Y-82672299D01*
X167897964Y-82594468D01*
X167908045Y-82535930D01*
X167926226Y-82489737D01*
X167953890Y-82448942D01*
X167964146Y-82436828D01*
X168028278Y-82376474D01*
X168097066Y-82341220D01*
X168181189Y-82326450D01*
X168222209Y-82325243D01*
X168330784Y-82338104D01*
G36*
X174405193Y-83587078D02*
X174485068Y-83607845D01*
X174551962Y-83650705D01*
X174584351Y-83682723D01*
X174637445Y-83758413D01*
X174667873Y-83846216D01*
X174678327Y-83954150D01*
X174678380Y-83962875D01*
X174678473Y-84050605D01*
X174173534Y-84050605D01*
X174184298Y-84096559D01*
X174203732Y-84138178D01*
X174237745Y-84181544D01*
X174244860Y-84188467D01*
X174306003Y-84225935D01*
X174375729Y-84232289D01*
X174455987Y-84207638D01*
X174469592Y-84201000D01*
X174511319Y-84180819D01*
X174539268Y-84169321D01*
X174544145Y-84168258D01*
X174561168Y-84178583D01*
X174593633Y-84203845D01*
X174610114Y-84217650D01*
X174644264Y-84249361D01*
X174655478Y-84270299D01*
X174647695Y-84289560D01*
X174643535Y-84294827D01*
X174615357Y-84317878D01*
X174568862Y-84345892D01*
X174536434Y-84362246D01*
X174444385Y-84391059D01*
X174342476Y-84400395D01*
X174245963Y-84389332D01*
X174218934Y-84381412D01*
X174135276Y-84336581D01*
X174073266Y-84267598D01*
X174032545Y-84173794D01*
X174012755Y-84054498D01*
X174010582Y-83992118D01*
X174016926Y-83901298D01*
X174177157Y-83901298D01*
X174192655Y-83908012D01*
X174234312Y-83913280D01*
X174294876Y-83916389D01*
X174335907Y-83916921D01*
X174409711Y-83916408D01*
X174456293Y-83914006D01*
X174481848Y-83908422D01*
X174492569Y-83898361D01*
X174494657Y-83883763D01*
X174480331Y-83838796D01*
X174444262Y-83794353D01*
X174396815Y-83760242D01*
X174349349Y-83746288D01*
X174284879Y-83758666D01*
X174229070Y-83794452D01*
X174190374Y-83846033D01*
X174177157Y-83901298D01*
X174016926Y-83901298D01*
X174019821Y-83859866D01*
X174048336Y-83754498D01*
X174096729Y-83675178D01*
X174165604Y-83621071D01*
X174255565Y-83591343D01*
X174304300Y-83585618D01*
X174405193Y-83587078D01*
X174405193Y-83587078D01*
G37*
X174405193Y-83587078D02*
X174485068Y-83607845D01*
X174551962Y-83650705D01*
X174584351Y-83682723D01*
X174637445Y-83758413D01*
X174667873Y-83846216D01*
X174678327Y-83954150D01*
X174678380Y-83962875D01*
X174678473Y-84050605D01*
X174173534Y-84050605D01*
X174184298Y-84096559D01*
X174203732Y-84138178D01*
X174237745Y-84181544D01*
X174244860Y-84188467D01*
X174306003Y-84225935D01*
X174375729Y-84232289D01*
X174455987Y-84207638D01*
X174469592Y-84201000D01*
X174511319Y-84180819D01*
X174539268Y-84169321D01*
X174544145Y-84168258D01*
X174561168Y-84178583D01*
X174593633Y-84203845D01*
X174610114Y-84217650D01*
X174644264Y-84249361D01*
X174655478Y-84270299D01*
X174647695Y-84289560D01*
X174643535Y-84294827D01*
X174615357Y-84317878D01*
X174568862Y-84345892D01*
X174536434Y-84362246D01*
X174444385Y-84391059D01*
X174342476Y-84400395D01*
X174245963Y-84389332D01*
X174218934Y-84381412D01*
X174135276Y-84336581D01*
X174073266Y-84267598D01*
X174032545Y-84173794D01*
X174012755Y-84054498D01*
X174010582Y-83992118D01*
X174016926Y-83901298D01*
X174177157Y-83901298D01*
X174192655Y-83908012D01*
X174234312Y-83913280D01*
X174294876Y-83916389D01*
X174335907Y-83916921D01*
X174409711Y-83916408D01*
X174456293Y-83914006D01*
X174481848Y-83908422D01*
X174492569Y-83898361D01*
X174494657Y-83883763D01*
X174480331Y-83838796D01*
X174444262Y-83794353D01*
X174396815Y-83760242D01*
X174349349Y-83746288D01*
X174284879Y-83758666D01*
X174229070Y-83794452D01*
X174190374Y-83846033D01*
X174177157Y-83901298D01*
X174016926Y-83901298D01*
X174019821Y-83859866D01*
X174048336Y-83754498D01*
X174096729Y-83675178D01*
X174165604Y-83621071D01*
X174255565Y-83591343D01*
X174304300Y-83585618D01*
X174405193Y-83587078D01*
G36*
X173877167Y-83582447D02*
X173941408Y-83595112D01*
X173977980Y-83613864D01*
X174016453Y-83645017D01*
X173961717Y-83714127D01*
X173927969Y-83755979D01*
X173905053Y-83776398D01*
X173882279Y-83779517D01*
X173848956Y-83769472D01*
X173833314Y-83763789D01*
X173769542Y-83755404D01*
X173711140Y-83773378D01*
X173668264Y-83813982D01*
X173661299Y-83826929D01*
X173653713Y-83861224D01*
X173647859Y-83924427D01*
X173644011Y-84012060D01*
X173642443Y-84119640D01*
X173642421Y-84134944D01*
X173642421Y-84401526D01*
X173458605Y-84401526D01*
X173458605Y-83582710D01*
X173550513Y-83582710D01*
X173603507Y-83584094D01*
X173631115Y-83590252D01*
X173641324Y-83604194D01*
X173642421Y-83617344D01*
X173642421Y-83651978D01*
X173686450Y-83617344D01*
X173736937Y-83593716D01*
X173804760Y-83582033D01*
X173877167Y-83582447D01*
X173877167Y-83582447D01*
G37*
X173877167Y-83582447D02*
X173941408Y-83595112D01*
X173977980Y-83613864D01*
X174016453Y-83645017D01*
X173961717Y-83714127D01*
X173927969Y-83755979D01*
X173905053Y-83776398D01*
X173882279Y-83779517D01*
X173848956Y-83769472D01*
X173833314Y-83763789D01*
X173769542Y-83755404D01*
X173711140Y-83773378D01*
X173668264Y-83813982D01*
X173661299Y-83826929D01*
X173653713Y-83861224D01*
X173647859Y-83924427D01*
X173644011Y-84012060D01*
X173642443Y-84119640D01*
X173642421Y-84134944D01*
X173642421Y-84401526D01*
X173458605Y-84401526D01*
X173458605Y-83582710D01*
X173550513Y-83582710D01*
X173603507Y-83584094D01*
X173631115Y-83590252D01*
X173641324Y-83604194D01*
X173642421Y-83617344D01*
X173642421Y-83651978D01*
X173686450Y-83617344D01*
X173736937Y-83593716D01*
X173804760Y-83582033D01*
X173877167Y-83582447D01*
G36*
X173083992Y-83587673D02*
X173154427Y-83604780D01*
X173174787Y-83613844D01*
X173214253Y-83637583D01*
X173244541Y-83664321D01*
X173266952Y-83698699D01*
X173282786Y-83745360D01*
X173293343Y-83808946D01*
X173299924Y-83894099D01*
X173303828Y-84005462D01*
X173305310Y-84079849D01*
X173310765Y-84401526D01*
X173217580Y-84401526D01*
X173161047Y-84399156D01*
X173131922Y-84391055D01*
X173124394Y-84377451D01*
X173120420Y-84362741D01*
X173102652Y-84365554D01*
X173078440Y-84377348D01*
X173017828Y-84395427D01*
X172939929Y-84400299D01*
X172857995Y-84392330D01*
X172785281Y-84371889D01*
X172778759Y-84369051D01*
X172712302Y-84322365D01*
X172668491Y-84257464D01*
X172648332Y-84181600D01*
X172649872Y-84154344D01*
X172814345Y-84154344D01*
X172828837Y-84191024D01*
X172871805Y-84217309D01*
X172941129Y-84231417D01*
X172978177Y-84233290D01*
X173039919Y-84228494D01*
X173080960Y-84209858D01*
X173090973Y-84201000D01*
X173118100Y-84152806D01*
X173124394Y-84109092D01*
X173124394Y-84050605D01*
X173042930Y-84050605D01*
X172948234Y-84055432D01*
X172881813Y-84070613D01*
X172839846Y-84097200D01*
X172830449Y-84109052D01*
X172814345Y-84154344D01*
X172649872Y-84154344D01*
X172652829Y-84102026D01*
X172682985Y-84025995D01*
X172724131Y-83974612D01*
X172749052Y-83952397D01*
X172773448Y-83937798D01*
X172805191Y-83928897D01*
X172852152Y-83923775D01*
X172922204Y-83920515D01*
X172949990Y-83919577D01*
X173124394Y-83913879D01*
X173124138Y-83861091D01*
X173117384Y-83805603D01*
X173092964Y-83772052D01*
X173043630Y-83750618D01*
X173042306Y-83750236D01*
X172972360Y-83741808D01*
X172903914Y-83752816D01*
X172853047Y-83779585D01*
X172832637Y-83792803D01*
X172810654Y-83790974D01*
X172776826Y-83771824D01*
X172756961Y-83758308D01*
X172718106Y-83729432D01*
X172694038Y-83707786D01*
X172690176Y-83701589D01*
X172706079Y-83669519D01*
X172753065Y-83631219D01*
X172773473Y-83618297D01*
X172832143Y-83596041D01*
X172911212Y-83583432D01*
X172999041Y-83580600D01*
X173083992Y-83587673D01*
X173083992Y-83587673D01*
G37*
X173083992Y-83587673D02*
X173154427Y-83604780D01*
X173174787Y-83613844D01*
X173214253Y-83637583D01*
X173244541Y-83664321D01*
X173266952Y-83698699D01*
X173282786Y-83745360D01*
X173293343Y-83808946D01*
X173299924Y-83894099D01*
X173303828Y-84005462D01*
X173305310Y-84079849D01*
X173310765Y-84401526D01*
X173217580Y-84401526D01*
X173161047Y-84399156D01*
X173131922Y-84391055D01*
X173124394Y-84377451D01*
X173120420Y-84362741D01*
X173102652Y-84365554D01*
X173078440Y-84377348D01*
X173017828Y-84395427D01*
X172939929Y-84400299D01*
X172857995Y-84392330D01*
X172785281Y-84371889D01*
X172778759Y-84369051D01*
X172712302Y-84322365D01*
X172668491Y-84257464D01*
X172648332Y-84181600D01*
X172649872Y-84154344D01*
X172814345Y-84154344D01*
X172828837Y-84191024D01*
X172871805Y-84217309D01*
X172941129Y-84231417D01*
X172978177Y-84233290D01*
X173039919Y-84228494D01*
X173080960Y-84209858D01*
X173090973Y-84201000D01*
X173118100Y-84152806D01*
X173124394Y-84109092D01*
X173124394Y-84050605D01*
X173042930Y-84050605D01*
X172948234Y-84055432D01*
X172881813Y-84070613D01*
X172839846Y-84097200D01*
X172830449Y-84109052D01*
X172814345Y-84154344D01*
X172649872Y-84154344D01*
X172652829Y-84102026D01*
X172682985Y-84025995D01*
X172724131Y-83974612D01*
X172749052Y-83952397D01*
X172773448Y-83937798D01*
X172805191Y-83928897D01*
X172852152Y-83923775D01*
X172922204Y-83920515D01*
X172949990Y-83919577D01*
X173124394Y-83913879D01*
X173124138Y-83861091D01*
X173117384Y-83805603D01*
X173092964Y-83772052D01*
X173043630Y-83750618D01*
X173042306Y-83750236D01*
X172972360Y-83741808D01*
X172903914Y-83752816D01*
X172853047Y-83779585D01*
X172832637Y-83792803D01*
X172810654Y-83790974D01*
X172776826Y-83771824D01*
X172756961Y-83758308D01*
X172718106Y-83729432D01*
X172694038Y-83707786D01*
X172690176Y-83701589D01*
X172706079Y-83669519D01*
X172753065Y-83631219D01*
X172773473Y-83618297D01*
X172832143Y-83596041D01*
X172911212Y-83583432D01*
X172999041Y-83580600D01*
X173083992Y-83587673D01*
G36*
X172078130Y-83586104D02*
X172144220Y-83591066D01*
X172230626Y-83850079D01*
X172317031Y-84109092D01*
X172344124Y-84017184D01*
X172360428Y-83960384D01*
X172381875Y-83883625D01*
X172405035Y-83799251D01*
X172417280Y-83753993D01*
X172463344Y-83582710D01*
X172653387Y-83582710D01*
X172596582Y-83762349D01*
X172568607Y-83850704D01*
X172534813Y-83957281D01*
X172499520Y-84068454D01*
X172468013Y-84167579D01*
X172396250Y-84393171D01*
X172241286Y-84403253D01*
X172199270Y-84264528D01*
X172173359Y-84178351D01*
X172145083Y-84083347D01*
X172120369Y-83999441D01*
X172119394Y-83996102D01*
X172100935Y-83939248D01*
X172084649Y-83900456D01*
X172073242Y-83885787D01*
X172070898Y-83887483D01*
X172062671Y-83910225D01*
X172047038Y-83958940D01*
X172025904Y-84027502D01*
X172001170Y-84109785D01*
X171987787Y-84155046D01*
X171915311Y-84401526D01*
X171761495Y-84401526D01*
X171638531Y-84013006D01*
X171603988Y-83904022D01*
X171572521Y-83805048D01*
X171545616Y-83720736D01*
X171524759Y-83655734D01*
X171511438Y-83614692D01*
X171507388Y-83602701D01*
X171510594Y-83590423D01*
X171535765Y-83585046D01*
X171588146Y-83585584D01*
X171596345Y-83585990D01*
X171693482Y-83591066D01*
X171757100Y-83825013D01*
X171780484Y-83910333D01*
X171801381Y-83985335D01*
X171817951Y-84043507D01*
X171828354Y-84078337D01*
X171830276Y-84084016D01*
X171838241Y-84077486D01*
X171854304Y-84043654D01*
X171876621Y-83987127D01*
X171903345Y-83912510D01*
X171925937Y-83845107D01*
X172012041Y-83581143D01*
X172078130Y-83586104D01*
X172078130Y-83586104D01*
G37*
X172078130Y-83586104D02*
X172144220Y-83591066D01*
X172230626Y-83850079D01*
X172317031Y-84109092D01*
X172344124Y-84017184D01*
X172360428Y-83960384D01*
X172381875Y-83883625D01*
X172405035Y-83799251D01*
X172417280Y-83753993D01*
X172463344Y-83582710D01*
X172653387Y-83582710D01*
X172596582Y-83762349D01*
X172568607Y-83850704D01*
X172534813Y-83957281D01*
X172499520Y-84068454D01*
X172468013Y-84167579D01*
X172396250Y-84393171D01*
X172241286Y-84403253D01*
X172199270Y-84264528D01*
X172173359Y-84178351D01*
X172145083Y-84083347D01*
X172120369Y-83999441D01*
X172119394Y-83996102D01*
X172100935Y-83939248D01*
X172084649Y-83900456D01*
X172073242Y-83885787D01*
X172070898Y-83887483D01*
X172062671Y-83910225D01*
X172047038Y-83958940D01*
X172025904Y-84027502D01*
X172001170Y-84109785D01*
X171987787Y-84155046D01*
X171915311Y-84401526D01*
X171761495Y-84401526D01*
X171638531Y-84013006D01*
X171603988Y-83904022D01*
X171572521Y-83805048D01*
X171545616Y-83720736D01*
X171524759Y-83655734D01*
X171511438Y-83614692D01*
X171507388Y-83602701D01*
X171510594Y-83590423D01*
X171535765Y-83585046D01*
X171588146Y-83585584D01*
X171596345Y-83585990D01*
X171693482Y-83591066D01*
X171757100Y-83825013D01*
X171780484Y-83910333D01*
X171801381Y-83985335D01*
X171817951Y-84043507D01*
X171828354Y-84078337D01*
X171830276Y-84084016D01*
X171838241Y-84077486D01*
X171854304Y-84043654D01*
X171876621Y-83987127D01*
X171903345Y-83912510D01*
X171925937Y-83845107D01*
X172012041Y-83581143D01*
X172078130Y-83586104D01*
G36*
X171436631Y-84401526D02*
X171344723Y-84401526D01*
X171291377Y-84399962D01*
X171263593Y-84393485D01*
X171253590Y-84379418D01*
X171252815Y-84369906D01*
X171251128Y-84350832D01*
X171240490Y-84347174D01*
X171212535Y-84358932D01*
X171190795Y-84369906D01*
X171107332Y-84395911D01*
X171016604Y-84397416D01*
X170942842Y-84378021D01*
X170874154Y-84331165D01*
X170821794Y-84262004D01*
X170793122Y-84180427D01*
X170792392Y-84175866D01*
X170788132Y-84126101D01*
X170786014Y-84054659D01*
X170786184Y-84000626D01*
X170968720Y-84000626D01*
X170972949Y-84072441D01*
X170982568Y-84131634D01*
X170995590Y-84165060D01*
X171044856Y-84210740D01*
X171103350Y-84227115D01*
X171163671Y-84213873D01*
X171215217Y-84174373D01*
X171234738Y-84147807D01*
X171246152Y-84116106D01*
X171251498Y-84069832D01*
X171252815Y-84000328D01*
X171250458Y-83931499D01*
X171244233Y-83871026D01*
X171235408Y-83830556D01*
X171233937Y-83826929D01*
X171198347Y-83783802D01*
X171146400Y-83760124D01*
X171088278Y-83756301D01*
X171034160Y-83772738D01*
X170994226Y-83809840D01*
X170990083Y-83817222D01*
X170977116Y-83862239D01*
X170970052Y-83926967D01*
X170968720Y-84000626D01*
X170786184Y-84000626D01*
X170786271Y-83973230D01*
X170787472Y-83929405D01*
X170795645Y-83820988D01*
X170812630Y-83739588D01*
X170840887Y-83679412D01*
X170882872Y-83634666D01*
X170923632Y-83608400D01*
X170980581Y-83589935D01*
X171051411Y-83583602D01*
X171123941Y-83588760D01*
X171185986Y-83604769D01*
X171218768Y-83623920D01*
X171252815Y-83654732D01*
X171252815Y-83265210D01*
X171436631Y-83265210D01*
X171436631Y-84401526D01*
X171436631Y-84401526D01*
G37*
X171436631Y-84401526D02*
X171344723Y-84401526D01*
X171291377Y-84399962D01*
X171263593Y-84393485D01*
X171253590Y-84379418D01*
X171252815Y-84369906D01*
X171251128Y-84350832D01*
X171240490Y-84347174D01*
X171212535Y-84358932D01*
X171190795Y-84369906D01*
X171107332Y-84395911D01*
X171016604Y-84397416D01*
X170942842Y-84378021D01*
X170874154Y-84331165D01*
X170821794Y-84262004D01*
X170793122Y-84180427D01*
X170792392Y-84175866D01*
X170788132Y-84126101D01*
X170786014Y-84054659D01*
X170786184Y-84000626D01*
X170968720Y-84000626D01*
X170972949Y-84072441D01*
X170982568Y-84131634D01*
X170995590Y-84165060D01*
X171044856Y-84210740D01*
X171103350Y-84227115D01*
X171163671Y-84213873D01*
X171215217Y-84174373D01*
X171234738Y-84147807D01*
X171246152Y-84116106D01*
X171251498Y-84069832D01*
X171252815Y-84000328D01*
X171250458Y-83931499D01*
X171244233Y-83871026D01*
X171235408Y-83830556D01*
X171233937Y-83826929D01*
X171198347Y-83783802D01*
X171146400Y-83760124D01*
X171088278Y-83756301D01*
X171034160Y-83772738D01*
X170994226Y-83809840D01*
X170990083Y-83817222D01*
X170977116Y-83862239D01*
X170970052Y-83926967D01*
X170968720Y-84000626D01*
X170786184Y-84000626D01*
X170786271Y-83973230D01*
X170787472Y-83929405D01*
X170795645Y-83820988D01*
X170812630Y-83739588D01*
X170840887Y-83679412D01*
X170882872Y-83634666D01*
X170923632Y-83608400D01*
X170980581Y-83589935D01*
X171051411Y-83583602D01*
X171123941Y-83588760D01*
X171185986Y-83604769D01*
X171218768Y-83623920D01*
X171252815Y-83654732D01*
X171252815Y-83265210D01*
X171436631Y-83265210D01*
X171436631Y-84401526D01*
G36*
X170383881Y-83584486D02*
X170408888Y-83591982D01*
X170416950Y-83608451D01*
X170417289Y-83615886D01*
X170418736Y-83636594D01*
X170428698Y-83639845D01*
X170455612Y-83625648D01*
X170471598Y-83615948D01*
X170522033Y-83595175D01*
X170582272Y-83584904D01*
X170645434Y-83584114D01*
X170704637Y-83591786D01*
X170753002Y-83606898D01*
X170783646Y-83628432D01*
X170789689Y-83655366D01*
X170786639Y-83662660D01*
X170764406Y-83692937D01*
X170729930Y-83730175D01*
X170723694Y-83736195D01*
X170690833Y-83763875D01*
X170662480Y-83772818D01*
X170622827Y-83766576D01*
X170606942Y-83762429D01*
X170557509Y-83752467D01*
X170522752Y-83756947D01*
X170493400Y-83772746D01*
X170466513Y-83793949D01*
X170446710Y-83820614D01*
X170432948Y-83857827D01*
X170424184Y-83910673D01*
X170419374Y-83984237D01*
X170417474Y-84083605D01*
X170417289Y-84143601D01*
X170417289Y-84401526D01*
X170250184Y-84401526D01*
X170250184Y-83582710D01*
X170333736Y-83582710D01*
X170383881Y-83584486D01*
X170383881Y-83584486D01*
G37*
X170383881Y-83584486D02*
X170408888Y-83591982D01*
X170416950Y-83608451D01*
X170417289Y-83615886D01*
X170418736Y-83636594D01*
X170428698Y-83639845D01*
X170455612Y-83625648D01*
X170471598Y-83615948D01*
X170522033Y-83595175D01*
X170582272Y-83584904D01*
X170645434Y-83584114D01*
X170704637Y-83591786D01*
X170753002Y-83606898D01*
X170783646Y-83628432D01*
X170789689Y-83655366D01*
X170786639Y-83662660D01*
X170764406Y-83692937D01*
X170729930Y-83730175D01*
X170723694Y-83736195D01*
X170690833Y-83763875D01*
X170662480Y-83772818D01*
X170622827Y-83766576D01*
X170606942Y-83762429D01*
X170557509Y-83752467D01*
X170522752Y-83756947D01*
X170493400Y-83772746D01*
X170466513Y-83793949D01*
X170446710Y-83820614D01*
X170432948Y-83857827D01*
X170424184Y-83910673D01*
X170419374Y-83984237D01*
X170417474Y-84083605D01*
X170417289Y-84143601D01*
X170417289Y-84401526D01*
X170250184Y-84401526D01*
X170250184Y-83582710D01*
X170333736Y-83582710D01*
X170383881Y-83584486D01*
G36*
X169864457Y-83589184D02*
X169943070Y-83610160D01*
X170002916Y-83648180D01*
X170045147Y-83697978D01*
X170058275Y-83719230D01*
X170067968Y-83741492D01*
X170074744Y-83769970D01*
X170079123Y-83809871D01*
X170081624Y-83866401D01*
X170082768Y-83944767D01*
X170083072Y-84050176D01*
X170083078Y-84078142D01*
X170083078Y-84401526D01*
X170002868Y-84401526D01*
X169951706Y-84397943D01*
X169913877Y-84388866D01*
X169904399Y-84383268D01*
X169878488Y-84373606D01*
X169852024Y-84383268D01*
X169808452Y-84395330D01*
X169745160Y-84400185D01*
X169675010Y-84398078D01*
X169610860Y-84389256D01*
X169573407Y-84377937D01*
X169500933Y-84331412D01*
X169455640Y-84266846D01*
X169435278Y-84181000D01*
X169435088Y-84178796D01*
X169436875Y-84140713D01*
X169598473Y-84140713D01*
X169612601Y-84184030D01*
X169635612Y-84208408D01*
X169681804Y-84226845D01*
X169742775Y-84234205D01*
X169804949Y-84230583D01*
X169854751Y-84216074D01*
X169868703Y-84206765D01*
X169893085Y-84163753D01*
X169899263Y-84114857D01*
X169899263Y-84050605D01*
X169806818Y-84050605D01*
X169718995Y-84057366D01*
X169652418Y-84076520D01*
X169611002Y-84106376D01*
X169598473Y-84140713D01*
X169436875Y-84140713D01*
X169439490Y-84085004D01*
X169470424Y-84010847D01*
X169528581Y-83954767D01*
X169536620Y-83949665D01*
X169571163Y-83933055D01*
X169613918Y-83922996D01*
X169673686Y-83918107D01*
X169744690Y-83916983D01*
X169899263Y-83916921D01*
X169899263Y-83852125D01*
X169892706Y-83801850D01*
X169875975Y-83768169D01*
X169874016Y-83766376D01*
X169836783Y-83751642D01*
X169780580Y-83745931D01*
X169718467Y-83748737D01*
X169663510Y-83759556D01*
X169630899Y-83775782D01*
X169613228Y-83788780D01*
X169594569Y-83791262D01*
X169568819Y-83780613D01*
X169529873Y-83754218D01*
X169471630Y-83709465D01*
X169466284Y-83705273D01*
X169469023Y-83689760D01*
X169491876Y-83663960D01*
X169526609Y-83635289D01*
X169564990Y-83611166D01*
X169577048Y-83605470D01*
X169621034Y-83594103D01*
X169685487Y-83585995D01*
X169757497Y-83582743D01*
X169760864Y-83582736D01*
X169864457Y-83589184D01*
X169864457Y-83589184D01*
G37*
X169864457Y-83589184D02*
X169943070Y-83610160D01*
X170002916Y-83648180D01*
X170045147Y-83697978D01*
X170058275Y-83719230D01*
X170067968Y-83741492D01*
X170074744Y-83769970D01*
X170079123Y-83809871D01*
X170081624Y-83866401D01*
X170082768Y-83944767D01*
X170083072Y-84050176D01*
X170083078Y-84078142D01*
X170083078Y-84401526D01*
X170002868Y-84401526D01*
X169951706Y-84397943D01*
X169913877Y-84388866D01*
X169904399Y-84383268D01*
X169878488Y-84373606D01*
X169852024Y-84383268D01*
X169808452Y-84395330D01*
X169745160Y-84400185D01*
X169675010Y-84398078D01*
X169610860Y-84389256D01*
X169573407Y-84377937D01*
X169500933Y-84331412D01*
X169455640Y-84266846D01*
X169435278Y-84181000D01*
X169435088Y-84178796D01*
X169436875Y-84140713D01*
X169598473Y-84140713D01*
X169612601Y-84184030D01*
X169635612Y-84208408D01*
X169681804Y-84226845D01*
X169742775Y-84234205D01*
X169804949Y-84230583D01*
X169854751Y-84216074D01*
X169868703Y-84206765D01*
X169893085Y-84163753D01*
X169899263Y-84114857D01*
X169899263Y-84050605D01*
X169806818Y-84050605D01*
X169718995Y-84057366D01*
X169652418Y-84076520D01*
X169611002Y-84106376D01*
X169598473Y-84140713D01*
X169436875Y-84140713D01*
X169439490Y-84085004D01*
X169470424Y-84010847D01*
X169528581Y-83954767D01*
X169536620Y-83949665D01*
X169571163Y-83933055D01*
X169613918Y-83922996D01*
X169673686Y-83918107D01*
X169744690Y-83916983D01*
X169899263Y-83916921D01*
X169899263Y-83852125D01*
X169892706Y-83801850D01*
X169875975Y-83768169D01*
X169874016Y-83766376D01*
X169836783Y-83751642D01*
X169780580Y-83745931D01*
X169718467Y-83748737D01*
X169663510Y-83759556D01*
X169630899Y-83775782D01*
X169613228Y-83788780D01*
X169594569Y-83791262D01*
X169568819Y-83780613D01*
X169529873Y-83754218D01*
X169471630Y-83709465D01*
X169466284Y-83705273D01*
X169469023Y-83689760D01*
X169491876Y-83663960D01*
X169526609Y-83635289D01*
X169564990Y-83611166D01*
X169577048Y-83605470D01*
X169621034Y-83594103D01*
X169685487Y-83585995D01*
X169757497Y-83582743D01*
X169760864Y-83582736D01*
X169864457Y-83589184D01*
G36*
X169167360Y-82343468D02*
X169202592Y-82360874D01*
X169246040Y-82391206D01*
X169277706Y-82424283D01*
X169299394Y-82465817D01*
X169312903Y-82521522D01*
X169320038Y-82597111D01*
X169322600Y-82698296D01*
X169322750Y-82741797D01*
X169322312Y-82837135D01*
X169320496Y-82905271D01*
X169316545Y-82952418D01*
X169309702Y-82984790D01*
X169299211Y-83008600D01*
X169288296Y-83024843D01*
X169218619Y-83093952D01*
X169136566Y-83135521D01*
X169048050Y-83148023D01*
X168958981Y-83129934D01*
X168930763Y-83117142D01*
X168863210Y-83081931D01*
X168863210Y-83633700D01*
X168912512Y-83608205D01*
X168977473Y-83588480D01*
X169057320Y-83583427D01*
X169137052Y-83592756D01*
X169197265Y-83613714D01*
X169247208Y-83653627D01*
X169289881Y-83710741D01*
X169293090Y-83716605D01*
X169306622Y-83744227D01*
X169316505Y-83772068D01*
X169323309Y-83805794D01*
X169327601Y-83851071D01*
X169329951Y-83913562D01*
X169330928Y-83998935D01*
X169331105Y-84095010D01*
X169331105Y-84401526D01*
X169147289Y-84401526D01*
X169147289Y-83836339D01*
X169095875Y-83793077D01*
X169042466Y-83758472D01*
X168991888Y-83752180D01*
X168941030Y-83768372D01*
X168913925Y-83784227D01*
X168893751Y-83806810D01*
X168879403Y-83840940D01*
X168869776Y-83891434D01*
X168863763Y-83963111D01*
X168860260Y-84060788D01*
X168859026Y-84125802D01*
X168854855Y-84393171D01*
X168767125Y-84398222D01*
X168679394Y-84403273D01*
X168679394Y-82744101D01*
X168863210Y-82744101D01*
X168867896Y-82836600D01*
X168883688Y-82900809D01*
X168913183Y-82940759D01*
X168958980Y-82960480D01*
X169005250Y-82964421D01*
X169057628Y-82959892D01*
X169092390Y-82942069D01*
X169114128Y-82918519D01*
X169131240Y-82893189D01*
X169141427Y-82864969D01*
X169145960Y-82825431D01*
X169146109Y-82766142D01*
X169144584Y-82716498D01*
X169141081Y-82641710D01*
X169135867Y-82592611D01*
X169127087Y-82561467D01*
X169112886Y-82540545D01*
X169099484Y-82528452D01*
X169043487Y-82502081D01*
X168977211Y-82497822D01*
X168939156Y-82506906D01*
X168901477Y-82539196D01*
X168876519Y-82602006D01*
X168864422Y-82694894D01*
X168863210Y-82744101D01*
X168679394Y-82744101D01*
X168679394Y-82329421D01*
X168771302Y-82329421D01*
X168826483Y-82331603D01*
X168854952Y-82339351D01*
X168863206Y-82354468D01*
X168863210Y-82354916D01*
X168867040Y-82369720D01*
X168883933Y-82368039D01*
X168917519Y-82351772D01*
X168995778Y-82326887D01*
X169083827Y-82324271D01*
X169167360Y-82343468D01*
X169167360Y-82343468D01*
G37*
X169167360Y-82343468D02*
X169202592Y-82360874D01*
X169246040Y-82391206D01*
X169277706Y-82424283D01*
X169299394Y-82465817D01*
X169312903Y-82521522D01*
X169320038Y-82597111D01*
X169322600Y-82698296D01*
X169322750Y-82741797D01*
X169322312Y-82837135D01*
X169320496Y-82905271D01*
X169316545Y-82952418D01*
X169309702Y-82984790D01*
X169299211Y-83008600D01*
X169288296Y-83024843D01*
X169218619Y-83093952D01*
X169136566Y-83135521D01*
X169048050Y-83148023D01*
X168958981Y-83129934D01*
X168930763Y-83117142D01*
X168863210Y-83081931D01*
X168863210Y-83633700D01*
X168912512Y-83608205D01*
X168977473Y-83588480D01*
X169057320Y-83583427D01*
X169137052Y-83592756D01*
X169197265Y-83613714D01*
X169247208Y-83653627D01*
X169289881Y-83710741D01*
X169293090Y-83716605D01*
X169306622Y-83744227D01*
X169316505Y-83772068D01*
X169323309Y-83805794D01*
X169327601Y-83851071D01*
X169329951Y-83913562D01*
X169330928Y-83998935D01*
X169331105Y-84095010D01*
X169331105Y-84401526D01*
X169147289Y-84401526D01*
X169147289Y-83836339D01*
X169095875Y-83793077D01*
X169042466Y-83758472D01*
X168991888Y-83752180D01*
X168941030Y-83768372D01*
X168913925Y-83784227D01*
X168893751Y-83806810D01*
X168879403Y-83840940D01*
X168869776Y-83891434D01*
X168863763Y-83963111D01*
X168860260Y-84060788D01*
X168859026Y-84125802D01*
X168854855Y-84393171D01*
X168767125Y-84398222D01*
X168679394Y-84403273D01*
X168679394Y-82744101D01*
X168863210Y-82744101D01*
X168867896Y-82836600D01*
X168883688Y-82900809D01*
X168913183Y-82940759D01*
X168958980Y-82960480D01*
X169005250Y-82964421D01*
X169057628Y-82959892D01*
X169092390Y-82942069D01*
X169114128Y-82918519D01*
X169131240Y-82893189D01*
X169141427Y-82864969D01*
X169145960Y-82825431D01*
X169146109Y-82766142D01*
X169144584Y-82716498D01*
X169141081Y-82641710D01*
X169135867Y-82592611D01*
X169127087Y-82561467D01*
X169112886Y-82540545D01*
X169099484Y-82528452D01*
X169043487Y-82502081D01*
X168977211Y-82497822D01*
X168939156Y-82506906D01*
X168901477Y-82539196D01*
X168876519Y-82602006D01*
X168864422Y-82694894D01*
X168863210Y-82744101D01*
X168679394Y-82744101D01*
X168679394Y-82329421D01*
X168771302Y-82329421D01*
X168826483Y-82331603D01*
X168854952Y-82339351D01*
X168863206Y-82354468D01*
X168863210Y-82354916D01*
X168867040Y-82369720D01*
X168883933Y-82368039D01*
X168917519Y-82351772D01*
X168995778Y-82326887D01*
X169083827Y-82324271D01*
X169167360Y-82343468D01*
G04 #@! TO.C,C2*
D10*
X145756333Y-70555142D02*
X145708714Y-70602761D01*
X145565857Y-70650380D01*
X145470619Y-70650380D01*
X145327761Y-70602761D01*
X145232523Y-70507523D01*
X145184904Y-70412285D01*
X145137285Y-70221809D01*
X145137285Y-70078952D01*
X145184904Y-69888476D01*
X145232523Y-69793238D01*
X145327761Y-69698000D01*
X145470619Y-69650380D01*
X145565857Y-69650380D01*
X145708714Y-69698000D01*
X145756333Y-69745619D01*
X146137285Y-69745619D02*
X146184904Y-69698000D01*
X146280142Y-69650380D01*
X146518238Y-69650380D01*
X146613476Y-69698000D01*
X146661095Y-69745619D01*
X146708714Y-69840857D01*
X146708714Y-69936095D01*
X146661095Y-70078952D01*
X146089666Y-70650380D01*
X146708714Y-70650380D01*
G04 #@! TO.C,C3*
X147423142Y-73699666D02*
X147470761Y-73747285D01*
X147518380Y-73890142D01*
X147518380Y-73985380D01*
X147470761Y-74128238D01*
X147375523Y-74223476D01*
X147280285Y-74271095D01*
X147089809Y-74318714D01*
X146946952Y-74318714D01*
X146756476Y-74271095D01*
X146661238Y-74223476D01*
X146566000Y-74128238D01*
X146518380Y-73985380D01*
X146518380Y-73890142D01*
X146566000Y-73747285D01*
X146613619Y-73699666D01*
X146518380Y-73366333D02*
X146518380Y-72747285D01*
X146899333Y-73080619D01*
X146899333Y-72937761D01*
X146946952Y-72842523D01*
X146994571Y-72794904D01*
X147089809Y-72747285D01*
X147327904Y-72747285D01*
X147423142Y-72794904D01*
X147470761Y-72842523D01*
X147518380Y-72937761D01*
X147518380Y-73223476D01*
X147470761Y-73318714D01*
X147423142Y-73366333D01*
G04 #@! TO.C,C4*
X145899142Y-73699666D02*
X145946761Y-73747285D01*
X145994380Y-73890142D01*
X145994380Y-73985380D01*
X145946761Y-74128238D01*
X145851523Y-74223476D01*
X145756285Y-74271095D01*
X145565809Y-74318714D01*
X145422952Y-74318714D01*
X145232476Y-74271095D01*
X145137238Y-74223476D01*
X145042000Y-74128238D01*
X144994380Y-73985380D01*
X144994380Y-73890142D01*
X145042000Y-73747285D01*
X145089619Y-73699666D01*
X145327714Y-72842523D02*
X145994380Y-72842523D01*
X144946761Y-73080619D02*
X145661047Y-73318714D01*
X145661047Y-72699666D01*
G04 #@! TO.C,C15*
X165854142Y-85193142D02*
X165806523Y-85240761D01*
X165663666Y-85288380D01*
X165568428Y-85288380D01*
X165425571Y-85240761D01*
X165330333Y-85145523D01*
X165282714Y-85050285D01*
X165235095Y-84859809D01*
X165235095Y-84716952D01*
X165282714Y-84526476D01*
X165330333Y-84431238D01*
X165425571Y-84336000D01*
X165568428Y-84288380D01*
X165663666Y-84288380D01*
X165806523Y-84336000D01*
X165854142Y-84383619D01*
X166806523Y-85288380D02*
X166235095Y-85288380D01*
X166520809Y-85288380D02*
X166520809Y-84288380D01*
X166425571Y-84431238D01*
X166330333Y-84526476D01*
X166235095Y-84574095D01*
X167711285Y-84288380D02*
X167235095Y-84288380D01*
X167187476Y-84764571D01*
X167235095Y-84716952D01*
X167330333Y-84669333D01*
X167568428Y-84669333D01*
X167663666Y-84716952D01*
X167711285Y-84764571D01*
X167758904Y-84859809D01*
X167758904Y-85097904D01*
X167711285Y-85193142D01*
X167663666Y-85240761D01*
X167568428Y-85288380D01*
X167330333Y-85288380D01*
X167235095Y-85240761D01*
X167187476Y-85193142D01*
G04 #@! TO.C,C16*
X163568142Y-88749142D02*
X163520523Y-88796761D01*
X163377666Y-88844380D01*
X163282428Y-88844380D01*
X163139571Y-88796761D01*
X163044333Y-88701523D01*
X162996714Y-88606285D01*
X162949095Y-88415809D01*
X162949095Y-88272952D01*
X162996714Y-88082476D01*
X163044333Y-87987238D01*
X163139571Y-87892000D01*
X163282428Y-87844380D01*
X163377666Y-87844380D01*
X163520523Y-87892000D01*
X163568142Y-87939619D01*
X164520523Y-88844380D02*
X163949095Y-88844380D01*
X164234809Y-88844380D02*
X164234809Y-87844380D01*
X164139571Y-87987238D01*
X164044333Y-88082476D01*
X163949095Y-88130095D01*
X165377666Y-87844380D02*
X165187190Y-87844380D01*
X165091952Y-87892000D01*
X165044333Y-87939619D01*
X164949095Y-88082476D01*
X164901476Y-88272952D01*
X164901476Y-88653904D01*
X164949095Y-88749142D01*
X164996714Y-88796761D01*
X165091952Y-88844380D01*
X165282428Y-88844380D01*
X165377666Y-88796761D01*
X165425285Y-88749142D01*
X165472904Y-88653904D01*
X165472904Y-88415809D01*
X165425285Y-88320571D01*
X165377666Y-88272952D01*
X165282428Y-88225333D01*
X165091952Y-88225333D01*
X164996714Y-88272952D01*
X164949095Y-88320571D01*
X164901476Y-88415809D01*
G04 #@! TO.C,C18*
X158345142Y-92717857D02*
X158392761Y-92765476D01*
X158440380Y-92908333D01*
X158440380Y-93003571D01*
X158392761Y-93146428D01*
X158297523Y-93241666D01*
X158202285Y-93289285D01*
X158011809Y-93336904D01*
X157868952Y-93336904D01*
X157678476Y-93289285D01*
X157583238Y-93241666D01*
X157488000Y-93146428D01*
X157440380Y-93003571D01*
X157440380Y-92908333D01*
X157488000Y-92765476D01*
X157535619Y-92717857D01*
X158440380Y-91765476D02*
X158440380Y-92336904D01*
X158440380Y-92051190D02*
X157440380Y-92051190D01*
X157583238Y-92146428D01*
X157678476Y-92241666D01*
X157726095Y-92336904D01*
X157868952Y-91194047D02*
X157821333Y-91289285D01*
X157773714Y-91336904D01*
X157678476Y-91384523D01*
X157630857Y-91384523D01*
X157535619Y-91336904D01*
X157488000Y-91289285D01*
X157440380Y-91194047D01*
X157440380Y-91003571D01*
X157488000Y-90908333D01*
X157535619Y-90860714D01*
X157630857Y-90813095D01*
X157678476Y-90813095D01*
X157773714Y-90860714D01*
X157821333Y-90908333D01*
X157868952Y-91003571D01*
X157868952Y-91194047D01*
X157916571Y-91289285D01*
X157964190Y-91336904D01*
X158059428Y-91384523D01*
X158249904Y-91384523D01*
X158345142Y-91336904D01*
X158392761Y-91289285D01*
X158440380Y-91194047D01*
X158440380Y-91003571D01*
X158392761Y-90908333D01*
X158345142Y-90860714D01*
X158249904Y-90813095D01*
X158059428Y-90813095D01*
X157964190Y-90860714D01*
X157916571Y-90908333D01*
X157868952Y-91003571D01*
G04 #@! TO.C,R1*
X134199333Y-95829380D02*
X133866000Y-95353190D01*
X133627904Y-95829380D02*
X133627904Y-94829380D01*
X134008857Y-94829380D01*
X134104095Y-94877000D01*
X134151714Y-94924619D01*
X134199333Y-95019857D01*
X134199333Y-95162714D01*
X134151714Y-95257952D01*
X134104095Y-95305571D01*
X134008857Y-95353190D01*
X133627904Y-95353190D01*
X135151714Y-95829380D02*
X134580285Y-95829380D01*
X134866000Y-95829380D02*
X134866000Y-94829380D01*
X134770761Y-94972238D01*
X134675523Y-95067476D01*
X134580285Y-95115095D01*
G04 #@! TO.C,R6*
X157821333Y-95956380D02*
X157488000Y-95480190D01*
X157249904Y-95956380D02*
X157249904Y-94956380D01*
X157630857Y-94956380D01*
X157726095Y-95004000D01*
X157773714Y-95051619D01*
X157821333Y-95146857D01*
X157821333Y-95289714D01*
X157773714Y-95384952D01*
X157726095Y-95432571D01*
X157630857Y-95480190D01*
X157249904Y-95480190D01*
X158678476Y-94956380D02*
X158488000Y-94956380D01*
X158392761Y-95004000D01*
X158345142Y-95051619D01*
X158249904Y-95194476D01*
X158202285Y-95384952D01*
X158202285Y-95765904D01*
X158249904Y-95861142D01*
X158297523Y-95908761D01*
X158392761Y-95956380D01*
X158583238Y-95956380D01*
X158678476Y-95908761D01*
X158726095Y-95861142D01*
X158773714Y-95765904D01*
X158773714Y-95527809D01*
X158726095Y-95432571D01*
X158678476Y-95384952D01*
X158583238Y-95337333D01*
X158392761Y-95337333D01*
X158297523Y-95384952D01*
X158249904Y-95432571D01*
X158202285Y-95527809D01*
G04 #@! TO.C,R7*
X165822333Y-96083380D02*
X165489000Y-95607190D01*
X165250904Y-96083380D02*
X165250904Y-95083380D01*
X165631857Y-95083380D01*
X165727095Y-95131000D01*
X165774714Y-95178619D01*
X165822333Y-95273857D01*
X165822333Y-95416714D01*
X165774714Y-95511952D01*
X165727095Y-95559571D01*
X165631857Y-95607190D01*
X165250904Y-95607190D01*
X166155666Y-95083380D02*
X166822333Y-95083380D01*
X166393761Y-96083380D01*
G04 #@! TO.C,R8*
X153503333Y-96083380D02*
X153170000Y-95607190D01*
X152931904Y-96083380D02*
X152931904Y-95083380D01*
X153312857Y-95083380D01*
X153408095Y-95131000D01*
X153455714Y-95178619D01*
X153503333Y-95273857D01*
X153503333Y-95416714D01*
X153455714Y-95511952D01*
X153408095Y-95559571D01*
X153312857Y-95607190D01*
X152931904Y-95607190D01*
X154074761Y-95511952D02*
X153979523Y-95464333D01*
X153931904Y-95416714D01*
X153884285Y-95321476D01*
X153884285Y-95273857D01*
X153931904Y-95178619D01*
X153979523Y-95131000D01*
X154074761Y-95083380D01*
X154265238Y-95083380D01*
X154360476Y-95131000D01*
X154408095Y-95178619D01*
X154455714Y-95273857D01*
X154455714Y-95321476D01*
X154408095Y-95416714D01*
X154360476Y-95464333D01*
X154265238Y-95511952D01*
X154074761Y-95511952D01*
X153979523Y-95559571D01*
X153931904Y-95607190D01*
X153884285Y-95702428D01*
X153884285Y-95892904D01*
X153931904Y-95988142D01*
X153979523Y-96035761D01*
X154074761Y-96083380D01*
X154265238Y-96083380D01*
X154360476Y-96035761D01*
X154408095Y-95988142D01*
X154455714Y-95892904D01*
X154455714Y-95702428D01*
X154408095Y-95607190D01*
X154360476Y-95559571D01*
X154265238Y-95511952D01*
G04 #@! TO.C,R9*
X153503333Y-94559380D02*
X153170000Y-94083190D01*
X152931904Y-94559380D02*
X152931904Y-93559380D01*
X153312857Y-93559380D01*
X153408095Y-93607000D01*
X153455714Y-93654619D01*
X153503333Y-93749857D01*
X153503333Y-93892714D01*
X153455714Y-93987952D01*
X153408095Y-94035571D01*
X153312857Y-94083190D01*
X152931904Y-94083190D01*
X153979523Y-94559380D02*
X154170000Y-94559380D01*
X154265238Y-94511761D01*
X154312857Y-94464142D01*
X154408095Y-94321285D01*
X154455714Y-94130809D01*
X154455714Y-93749857D01*
X154408095Y-93654619D01*
X154360476Y-93607000D01*
X154265238Y-93559380D01*
X154074761Y-93559380D01*
X153979523Y-93607000D01*
X153931904Y-93654619D01*
X153884285Y-93749857D01*
X153884285Y-93987952D01*
X153931904Y-94083190D01*
X153979523Y-94130809D01*
X154074761Y-94178428D01*
X154265238Y-94178428D01*
X154360476Y-94130809D01*
X154408095Y-94083190D01*
X154455714Y-93987952D01*
G04 #@! TO.C,R10*
X180411380Y-86748857D02*
X179935190Y-87082190D01*
X180411380Y-87320285D02*
X179411380Y-87320285D01*
X179411380Y-86939333D01*
X179459000Y-86844095D01*
X179506619Y-86796476D01*
X179601857Y-86748857D01*
X179744714Y-86748857D01*
X179839952Y-86796476D01*
X179887571Y-86844095D01*
X179935190Y-86939333D01*
X179935190Y-87320285D01*
X180411380Y-85796476D02*
X180411380Y-86367904D01*
X180411380Y-86082190D02*
X179411380Y-86082190D01*
X179554238Y-86177428D01*
X179649476Y-86272666D01*
X179697095Y-86367904D01*
X179411380Y-85177428D02*
X179411380Y-85082190D01*
X179459000Y-84986952D01*
X179506619Y-84939333D01*
X179601857Y-84891714D01*
X179792333Y-84844095D01*
X180030428Y-84844095D01*
X180220904Y-84891714D01*
X180316142Y-84939333D01*
X180363761Y-84986952D01*
X180411380Y-85082190D01*
X180411380Y-85177428D01*
X180363761Y-85272666D01*
X180316142Y-85320285D01*
X180220904Y-85367904D01*
X180030428Y-85415523D01*
X179792333Y-85415523D01*
X179601857Y-85367904D01*
X179506619Y-85320285D01*
X179459000Y-85272666D01*
X179411380Y-85177428D01*
G04 #@! TO.C,R11*
X177490380Y-77858857D02*
X177014190Y-78192190D01*
X177490380Y-78430285D02*
X176490380Y-78430285D01*
X176490380Y-78049333D01*
X176538000Y-77954095D01*
X176585619Y-77906476D01*
X176680857Y-77858857D01*
X176823714Y-77858857D01*
X176918952Y-77906476D01*
X176966571Y-77954095D01*
X177014190Y-78049333D01*
X177014190Y-78430285D01*
X177490380Y-76906476D02*
X177490380Y-77477904D01*
X177490380Y-77192190D02*
X176490380Y-77192190D01*
X176633238Y-77287428D01*
X176728476Y-77382666D01*
X176776095Y-77477904D01*
X177490380Y-75954095D02*
X177490380Y-76525523D01*
X177490380Y-76239809D02*
X176490380Y-76239809D01*
X176633238Y-76335047D01*
X176728476Y-76430285D01*
X176776095Y-76525523D01*
G04 #@! TO.C,R12*
X177744380Y-83192857D02*
X177268190Y-83526190D01*
X177744380Y-83764285D02*
X176744380Y-83764285D01*
X176744380Y-83383333D01*
X176792000Y-83288095D01*
X176839619Y-83240476D01*
X176934857Y-83192857D01*
X177077714Y-83192857D01*
X177172952Y-83240476D01*
X177220571Y-83288095D01*
X177268190Y-83383333D01*
X177268190Y-83764285D01*
X177744380Y-82240476D02*
X177744380Y-82811904D01*
X177744380Y-82526190D02*
X176744380Y-82526190D01*
X176887238Y-82621428D01*
X176982476Y-82716666D01*
X177030095Y-82811904D01*
X176839619Y-81859523D02*
X176792000Y-81811904D01*
X176744380Y-81716666D01*
X176744380Y-81478571D01*
X176792000Y-81383333D01*
X176839619Y-81335714D01*
X176934857Y-81288095D01*
X177030095Y-81288095D01*
X177172952Y-81335714D01*
X177744380Y-81907142D01*
X177744380Y-81288095D01*
G04 #@! TO.C,R13*
X175839380Y-77858857D02*
X175363190Y-78192190D01*
X175839380Y-78430285D02*
X174839380Y-78430285D01*
X174839380Y-78049333D01*
X174887000Y-77954095D01*
X174934619Y-77906476D01*
X175029857Y-77858857D01*
X175172714Y-77858857D01*
X175267952Y-77906476D01*
X175315571Y-77954095D01*
X175363190Y-78049333D01*
X175363190Y-78430285D01*
X175839380Y-76906476D02*
X175839380Y-77477904D01*
X175839380Y-77192190D02*
X174839380Y-77192190D01*
X174982238Y-77287428D01*
X175077476Y-77382666D01*
X175125095Y-77477904D01*
X174839380Y-76573142D02*
X174839380Y-75954095D01*
X175220333Y-76287428D01*
X175220333Y-76144571D01*
X175267952Y-76049333D01*
X175315571Y-76001714D01*
X175410809Y-75954095D01*
X175648904Y-75954095D01*
X175744142Y-76001714D01*
X175791761Y-76049333D01*
X175839380Y-76144571D01*
X175839380Y-76430285D01*
X175791761Y-76525523D01*
X175744142Y-76573142D01*
G04 #@! TO.C,R14*
X183619380Y-83192857D02*
X183143190Y-83526190D01*
X183619380Y-83764285D02*
X182619380Y-83764285D01*
X182619380Y-83383333D01*
X182667000Y-83288095D01*
X182714619Y-83240476D01*
X182809857Y-83192857D01*
X182952714Y-83192857D01*
X183047952Y-83240476D01*
X183095571Y-83288095D01*
X183143190Y-83383333D01*
X183143190Y-83764285D01*
X183619380Y-82240476D02*
X183619380Y-82811904D01*
X183619380Y-82526190D02*
X182619380Y-82526190D01*
X182762238Y-82621428D01*
X182857476Y-82716666D01*
X182905095Y-82811904D01*
X182952714Y-81383333D02*
X183619380Y-81383333D01*
X182571761Y-81621428D02*
X183286047Y-81859523D01*
X183286047Y-81240476D01*
G04 #@! TO.C,SW1*
X132501761Y-90360333D02*
X132549380Y-90217476D01*
X132549380Y-89979380D01*
X132501761Y-89884142D01*
X132454142Y-89836523D01*
X132358904Y-89788904D01*
X132263666Y-89788904D01*
X132168428Y-89836523D01*
X132120809Y-89884142D01*
X132073190Y-89979380D01*
X132025571Y-90169857D01*
X131977952Y-90265095D01*
X131930333Y-90312714D01*
X131835095Y-90360333D01*
X131739857Y-90360333D01*
X131644619Y-90312714D01*
X131597000Y-90265095D01*
X131549380Y-90169857D01*
X131549380Y-89931761D01*
X131597000Y-89788904D01*
X131549380Y-89455571D02*
X132549380Y-89217476D01*
X131835095Y-89027000D01*
X132549380Y-88836523D01*
X131549380Y-88598428D01*
X132549380Y-87693666D02*
X132549380Y-88265095D01*
X132549380Y-87979380D02*
X131549380Y-87979380D01*
X131692238Y-88074619D01*
X131787476Y-88169857D01*
X131835095Y-88265095D01*
G04 #@! TO.C,SW2*
X173037666Y-86764761D02*
X173180523Y-86812380D01*
X173418619Y-86812380D01*
X173513857Y-86764761D01*
X173561476Y-86717142D01*
X173609095Y-86621904D01*
X173609095Y-86526666D01*
X173561476Y-86431428D01*
X173513857Y-86383809D01*
X173418619Y-86336190D01*
X173228142Y-86288571D01*
X173132904Y-86240952D01*
X173085285Y-86193333D01*
X173037666Y-86098095D01*
X173037666Y-86002857D01*
X173085285Y-85907619D01*
X173132904Y-85860000D01*
X173228142Y-85812380D01*
X173466238Y-85812380D01*
X173609095Y-85860000D01*
X173942428Y-85812380D02*
X174180523Y-86812380D01*
X174371000Y-86098095D01*
X174561476Y-86812380D01*
X174799571Y-85812380D01*
X175132904Y-85907619D02*
X175180523Y-85860000D01*
X175275761Y-85812380D01*
X175513857Y-85812380D01*
X175609095Y-85860000D01*
X175656714Y-85907619D01*
X175704333Y-86002857D01*
X175704333Y-86098095D01*
X175656714Y-86240952D01*
X175085285Y-86812380D01*
X175704333Y-86812380D01*
G04 #@! TO.C,SW3*
X172910666Y-92479761D02*
X173053523Y-92527380D01*
X173291619Y-92527380D01*
X173386857Y-92479761D01*
X173434476Y-92432142D01*
X173482095Y-92336904D01*
X173482095Y-92241666D01*
X173434476Y-92146428D01*
X173386857Y-92098809D01*
X173291619Y-92051190D01*
X173101142Y-92003571D01*
X173005904Y-91955952D01*
X172958285Y-91908333D01*
X172910666Y-91813095D01*
X172910666Y-91717857D01*
X172958285Y-91622619D01*
X173005904Y-91575000D01*
X173101142Y-91527380D01*
X173339238Y-91527380D01*
X173482095Y-91575000D01*
X173815428Y-91527380D02*
X174053523Y-92527380D01*
X174244000Y-91813095D01*
X174434476Y-92527380D01*
X174672571Y-91527380D01*
X174958285Y-91527380D02*
X175577333Y-91527380D01*
X175244000Y-91908333D01*
X175386857Y-91908333D01*
X175482095Y-91955952D01*
X175529714Y-92003571D01*
X175577333Y-92098809D01*
X175577333Y-92336904D01*
X175529714Y-92432142D01*
X175482095Y-92479761D01*
X175386857Y-92527380D01*
X175101142Y-92527380D01*
X175005904Y-92479761D01*
X174958285Y-92432142D01*
G04 #@! TO.C,U2*
X152273095Y-80097380D02*
X152273095Y-80906904D01*
X152320714Y-81002142D01*
X152368333Y-81049761D01*
X152463571Y-81097380D01*
X152654047Y-81097380D01*
X152749285Y-81049761D01*
X152796904Y-81002142D01*
X152844523Y-80906904D01*
X152844523Y-80097380D01*
X153273095Y-80192619D02*
X153320714Y-80145000D01*
X153415952Y-80097380D01*
X153654047Y-80097380D01*
X153749285Y-80145000D01*
X153796904Y-80192619D01*
X153844523Y-80287857D01*
X153844523Y-80383095D01*
X153796904Y-80525952D01*
X153225476Y-81097380D01*
X153844523Y-81097380D01*
G04 #@! TO.C,D1*
X180665380Y-78462095D02*
X179665380Y-78462095D01*
X179665380Y-78224000D01*
X179713000Y-78081142D01*
X179808238Y-77985904D01*
X179903476Y-77938285D01*
X180093952Y-77890666D01*
X180236809Y-77890666D01*
X180427285Y-77938285D01*
X180522523Y-77985904D01*
X180617761Y-78081142D01*
X180665380Y-78224000D01*
X180665380Y-78462095D01*
X180665380Y-76938285D02*
X180665380Y-77509714D01*
X180665380Y-77224000D02*
X179665380Y-77224000D01*
X179808238Y-77319238D01*
X179903476Y-77414476D01*
X179951095Y-77509714D01*
G04 #@! TO.C,D2*
X179141380Y-78462095D02*
X178141380Y-78462095D01*
X178141380Y-78224000D01*
X178189000Y-78081142D01*
X178284238Y-77985904D01*
X178379476Y-77938285D01*
X178569952Y-77890666D01*
X178712809Y-77890666D01*
X178903285Y-77938285D01*
X178998523Y-77985904D01*
X179093761Y-78081142D01*
X179141380Y-78224000D01*
X179141380Y-78462095D01*
X178236619Y-77509714D02*
X178189000Y-77462095D01*
X178141380Y-77366857D01*
X178141380Y-77128761D01*
X178189000Y-77033523D01*
X178236619Y-76985904D01*
X178331857Y-76938285D01*
X178427095Y-76938285D01*
X178569952Y-76985904D01*
X179141380Y-77557333D01*
X179141380Y-76938285D01*
G04 #@! TO.C,D3*
X182189380Y-78462095D02*
X181189380Y-78462095D01*
X181189380Y-78224000D01*
X181237000Y-78081142D01*
X181332238Y-77985904D01*
X181427476Y-77938285D01*
X181617952Y-77890666D01*
X181760809Y-77890666D01*
X181951285Y-77938285D01*
X182046523Y-77985904D01*
X182141761Y-78081142D01*
X182189380Y-78224000D01*
X182189380Y-78462095D01*
X181189380Y-77557333D02*
X181189380Y-76938285D01*
X181570333Y-77271619D01*
X181570333Y-77128761D01*
X181617952Y-77033523D01*
X181665571Y-76985904D01*
X181760809Y-76938285D01*
X181998904Y-76938285D01*
X182094142Y-76985904D01*
X182141761Y-77033523D01*
X182189380Y-77128761D01*
X182189380Y-77414476D01*
X182141761Y-77509714D01*
X182094142Y-77557333D01*
G04 #@! TO.C,J2*
X165909666Y-71334380D02*
X165909666Y-72048666D01*
X165862047Y-72191523D01*
X165766809Y-72286761D01*
X165623952Y-72334380D01*
X165528714Y-72334380D01*
X166338238Y-71429619D02*
X166385857Y-71382000D01*
X166481095Y-71334380D01*
X166719190Y-71334380D01*
X166814428Y-71382000D01*
X166862047Y-71429619D01*
X166909666Y-71524857D01*
X166909666Y-71620095D01*
X166862047Y-71762952D01*
X166290619Y-72334380D01*
X166909666Y-72334380D01*
G04 #@! TO.C,U1*
X133052380Y-75056904D02*
X133861904Y-75056904D01*
X133957142Y-75009285D01*
X134004761Y-74961666D01*
X134052380Y-74866428D01*
X134052380Y-74675952D01*
X134004761Y-74580714D01*
X133957142Y-74533095D01*
X133861904Y-74485476D01*
X133052380Y-74485476D01*
X134052380Y-73485476D02*
X134052380Y-74056904D01*
X134052380Y-73771190D02*
X133052380Y-73771190D01*
X133195238Y-73866428D01*
X133290476Y-73961666D01*
X133338095Y-74056904D01*
G04 #@! TO.C,REF\002A\002A*
X186118666Y-67381380D02*
X185785333Y-66905190D01*
X185547238Y-67381380D02*
X185547238Y-66381380D01*
X185928190Y-66381380D01*
X186023428Y-66429000D01*
X186071047Y-66476619D01*
X186118666Y-66571857D01*
X186118666Y-66714714D01*
X186071047Y-66809952D01*
X186023428Y-66857571D01*
X185928190Y-66905190D01*
X185547238Y-66905190D01*
X186547238Y-66857571D02*
X186880571Y-66857571D01*
X187023428Y-67381380D02*
X186547238Y-67381380D01*
X186547238Y-66381380D01*
X187023428Y-66381380D01*
X187785333Y-66857571D02*
X187452000Y-66857571D01*
X187452000Y-67381380D02*
X187452000Y-66381380D01*
X187928190Y-66381380D01*
X188452000Y-66381380D02*
X188452000Y-66619476D01*
X188213904Y-66524238D02*
X188452000Y-66619476D01*
X188690095Y-66524238D01*
X188309142Y-66809952D02*
X188452000Y-66619476D01*
X188594857Y-66809952D01*
X189213904Y-66381380D02*
X189213904Y-66619476D01*
X188975809Y-66524238D02*
X189213904Y-66619476D01*
X189452000Y-66524238D01*
X189071047Y-66809952D02*
X189213904Y-66619476D01*
X189356761Y-66809952D01*
X124523666Y-67254380D02*
X124190333Y-66778190D01*
X123952238Y-67254380D02*
X123952238Y-66254380D01*
X124333190Y-66254380D01*
X124428428Y-66302000D01*
X124476047Y-66349619D01*
X124523666Y-66444857D01*
X124523666Y-66587714D01*
X124476047Y-66682952D01*
X124428428Y-66730571D01*
X124333190Y-66778190D01*
X123952238Y-66778190D01*
X124952238Y-66730571D02*
X125285571Y-66730571D01*
X125428428Y-67254380D02*
X124952238Y-67254380D01*
X124952238Y-66254380D01*
X125428428Y-66254380D01*
X126190333Y-66730571D02*
X125857000Y-66730571D01*
X125857000Y-67254380D02*
X125857000Y-66254380D01*
X126333190Y-66254380D01*
X126857000Y-66254380D02*
X126857000Y-66492476D01*
X126618904Y-66397238D02*
X126857000Y-66492476D01*
X127095095Y-66397238D01*
X126714142Y-66682952D02*
X126857000Y-66492476D01*
X126999857Y-66682952D01*
X127618904Y-66254380D02*
X127618904Y-66492476D01*
X127380809Y-66397238D02*
X127618904Y-66492476D01*
X127857000Y-66397238D01*
X127476047Y-66682952D02*
X127618904Y-66492476D01*
X127761761Y-66682952D01*
X123126666Y-103449380D02*
X122793333Y-102973190D01*
X122555238Y-103449380D02*
X122555238Y-102449380D01*
X122936190Y-102449380D01*
X123031428Y-102497000D01*
X123079047Y-102544619D01*
X123126666Y-102639857D01*
X123126666Y-102782714D01*
X123079047Y-102877952D01*
X123031428Y-102925571D01*
X122936190Y-102973190D01*
X122555238Y-102973190D01*
X123555238Y-102925571D02*
X123888571Y-102925571D01*
X124031428Y-103449380D02*
X123555238Y-103449380D01*
X123555238Y-102449380D01*
X124031428Y-102449380D01*
X124793333Y-102925571D02*
X124460000Y-102925571D01*
X124460000Y-103449380D02*
X124460000Y-102449380D01*
X124936190Y-102449380D01*
X125460000Y-102449380D02*
X125460000Y-102687476D01*
X125221904Y-102592238D02*
X125460000Y-102687476D01*
X125698095Y-102592238D01*
X125317142Y-102877952D02*
X125460000Y-102687476D01*
X125602857Y-102877952D01*
X126221904Y-102449380D02*
X126221904Y-102687476D01*
X125983809Y-102592238D02*
X126221904Y-102687476D01*
X126460000Y-102592238D01*
X126079047Y-102877952D02*
X126221904Y-102687476D01*
X126364761Y-102877952D01*
X185610666Y-103576380D02*
X185277333Y-103100190D01*
X185039238Y-103576380D02*
X185039238Y-102576380D01*
X185420190Y-102576380D01*
X185515428Y-102624000D01*
X185563047Y-102671619D01*
X185610666Y-102766857D01*
X185610666Y-102909714D01*
X185563047Y-103004952D01*
X185515428Y-103052571D01*
X185420190Y-103100190D01*
X185039238Y-103100190D01*
X186039238Y-103052571D02*
X186372571Y-103052571D01*
X186515428Y-103576380D02*
X186039238Y-103576380D01*
X186039238Y-102576380D01*
X186515428Y-102576380D01*
X187277333Y-103052571D02*
X186944000Y-103052571D01*
X186944000Y-103576380D02*
X186944000Y-102576380D01*
X187420190Y-102576380D01*
X187944000Y-102576380D02*
X187944000Y-102814476D01*
X187705904Y-102719238D02*
X187944000Y-102814476D01*
X188182095Y-102719238D01*
X187801142Y-103004952D02*
X187944000Y-102814476D01*
X188086857Y-103004952D01*
X188705904Y-102576380D02*
X188705904Y-102814476D01*
X188467809Y-102719238D02*
X188705904Y-102814476D01*
X188944000Y-102719238D01*
X188563047Y-103004952D02*
X188705904Y-102814476D01*
X188848761Y-103004952D01*
G04 #@! TO.C,J1*
X161548380Y-71834333D02*
X162262666Y-71834333D01*
X162405523Y-71881952D01*
X162500761Y-71977190D01*
X162548380Y-72120047D01*
X162548380Y-72215285D01*
X162548380Y-70834333D02*
X162548380Y-71405761D01*
X162548380Y-71120047D02*
X161548380Y-71120047D01*
X161691238Y-71215285D01*
X161786476Y-71310523D01*
X161834095Y-71405761D01*
G04 #@! TO.C,Y1*
X166401809Y-91416190D02*
X166401809Y-91892380D01*
X166068476Y-90892380D02*
X166401809Y-91416190D01*
X166735142Y-90892380D01*
X167592285Y-91892380D02*
X167020857Y-91892380D01*
X167306571Y-91892380D02*
X167306571Y-90892380D01*
X167211333Y-91035238D01*
X167116095Y-91130476D01*
X167020857Y-91178095D01*
G04 #@! TD*
M02*
