G04 #@! TF.GenerationSoftware,KiCad,Pcbnew,(5.0.0)*
G04 #@! TF.CreationDate,2018-09-15T00:01:03-04:00*
G04 #@! TF.ProjectId,EFMPod,45464D506F642E6B696361645F706362,rev?*
G04 #@! TF.SameCoordinates,Original*
G04 #@! TF.FileFunction,Legend,Bot*
G04 #@! TF.FilePolarity,Positive*
%FSLAX46Y46*%
G04 Gerber Fmt 4.6, Leading zero omitted, Abs format (unit mm)*
G04 Created by KiCad (PCBNEW (5.0.0)) date 09/15/18 00:01:03*
%MOMM*%
%LPD*%
G01*
G04 APERTURE LIST*
%ADD10C,0.300000*%
%ADD11C,0.150000*%
%ADD12C,0.200000*%
%ADD13C,0.120000*%
G04 APERTURE END LIST*
D10*
X166079857Y-70499857D02*
X166579857Y-70499857D01*
X166579857Y-71285571D02*
X166579857Y-69785571D01*
X165865571Y-69785571D01*
X165079857Y-71285571D02*
X165222714Y-71214142D01*
X165294142Y-71142714D01*
X165365571Y-70999857D01*
X165365571Y-70571285D01*
X165294142Y-70428428D01*
X165222714Y-70357000D01*
X165079857Y-70285571D01*
X164865571Y-70285571D01*
X164722714Y-70357000D01*
X164651285Y-70428428D01*
X164579857Y-70571285D01*
X164579857Y-70999857D01*
X164651285Y-71142714D01*
X164722714Y-71214142D01*
X164865571Y-71285571D01*
X165079857Y-71285571D01*
X163937000Y-71285571D02*
X163937000Y-70285571D01*
X163937000Y-70571285D02*
X163865571Y-70428428D01*
X163794142Y-70357000D01*
X163651285Y-70285571D01*
X163508428Y-70285571D01*
X161865571Y-71285571D02*
X161865571Y-70285571D01*
X161865571Y-70428428D02*
X161794142Y-70357000D01*
X161651285Y-70285571D01*
X161437000Y-70285571D01*
X161294142Y-70357000D01*
X161222714Y-70499857D01*
X161222714Y-71285571D01*
X161222714Y-70499857D02*
X161151285Y-70357000D01*
X161008428Y-70285571D01*
X160794142Y-70285571D01*
X160651285Y-70357000D01*
X160579857Y-70499857D01*
X160579857Y-71285571D01*
X159651285Y-71285571D02*
X159794142Y-71214142D01*
X159865571Y-71142714D01*
X159937000Y-70999857D01*
X159937000Y-70571285D01*
X159865571Y-70428428D01*
X159794142Y-70357000D01*
X159651285Y-70285571D01*
X159437000Y-70285571D01*
X159294142Y-70357000D01*
X159222714Y-70428428D01*
X159151285Y-70571285D01*
X159151285Y-70999857D01*
X159222714Y-71142714D01*
X159294142Y-71214142D01*
X159437000Y-71285571D01*
X159651285Y-71285571D01*
X158508428Y-71285571D02*
X158508428Y-70285571D01*
X158508428Y-70571285D02*
X158437000Y-70428428D01*
X158365571Y-70357000D01*
X158222714Y-70285571D01*
X158079857Y-70285571D01*
X157008428Y-71214142D02*
X157151285Y-71285571D01*
X157437000Y-71285571D01*
X157579857Y-71214142D01*
X157651285Y-71071285D01*
X157651285Y-70499857D01*
X157579857Y-70357000D01*
X157437000Y-70285571D01*
X157151285Y-70285571D01*
X157008428Y-70357000D01*
X156937000Y-70499857D01*
X156937000Y-70642714D01*
X157651285Y-70785571D01*
X155151285Y-71285571D02*
X155151285Y-70285571D01*
X155151285Y-69785571D02*
X155222714Y-69857000D01*
X155151285Y-69928428D01*
X155079857Y-69857000D01*
X155151285Y-69785571D01*
X155151285Y-69928428D01*
X154437000Y-70285571D02*
X154437000Y-71285571D01*
X154437000Y-70428428D02*
X154365571Y-70357000D01*
X154222714Y-70285571D01*
X154008428Y-70285571D01*
X153865571Y-70357000D01*
X153794142Y-70499857D01*
X153794142Y-71285571D01*
X153294142Y-70285571D02*
X152722714Y-70285571D01*
X153079857Y-71285571D02*
X153079857Y-69999857D01*
X153008428Y-69857000D01*
X152865571Y-69785571D01*
X152722714Y-69785571D01*
X152008428Y-71285571D02*
X152151285Y-71214142D01*
X152222714Y-71142714D01*
X152294142Y-70999857D01*
X152294142Y-70571285D01*
X152222714Y-70428428D01*
X152151285Y-70357000D01*
X152008428Y-70285571D01*
X151794142Y-70285571D01*
X151651285Y-70357000D01*
X151579857Y-70428428D01*
X151508428Y-70571285D01*
X151508428Y-70999857D01*
X151579857Y-71142714D01*
X151651285Y-71214142D01*
X151794142Y-71285571D01*
X152008428Y-71285571D01*
X150865571Y-71142714D02*
X150794142Y-71214142D01*
X150865571Y-71285571D01*
X150937000Y-71214142D01*
X150865571Y-71142714D01*
X150865571Y-71285571D01*
X150865571Y-70357000D02*
X150794142Y-70428428D01*
X150865571Y-70499857D01*
X150937000Y-70428428D01*
X150865571Y-70357000D01*
X150865571Y-70499857D01*
X165937000Y-73835571D02*
X165937000Y-73049857D01*
X166008428Y-72907000D01*
X166151285Y-72835571D01*
X166437000Y-72835571D01*
X166579857Y-72907000D01*
X165937000Y-73764142D02*
X166079857Y-73835571D01*
X166437000Y-73835571D01*
X166579857Y-73764142D01*
X166651285Y-73621285D01*
X166651285Y-73478428D01*
X166579857Y-73335571D01*
X166437000Y-73264142D01*
X166079857Y-73264142D01*
X165937000Y-73192714D01*
X165222714Y-73835571D02*
X165222714Y-72335571D01*
X165079857Y-73264142D02*
X164651285Y-73835571D01*
X164651285Y-72835571D02*
X165222714Y-73407000D01*
X163794142Y-73835571D02*
X163937000Y-73764142D01*
X164008428Y-73692714D01*
X164079857Y-73549857D01*
X164079857Y-73121285D01*
X164008428Y-72978428D01*
X163937000Y-72907000D01*
X163794142Y-72835571D01*
X163579857Y-72835571D01*
X163437000Y-72907000D01*
X163365571Y-72978428D01*
X163294142Y-73121285D01*
X163294142Y-73549857D01*
X163365571Y-73692714D01*
X163437000Y-73764142D01*
X163579857Y-73835571D01*
X163794142Y-73835571D01*
X162794142Y-72835571D02*
X162508428Y-73835571D01*
X162222714Y-73121285D01*
X161937000Y-73835571D01*
X161651285Y-72835571D01*
X160437000Y-73835571D02*
X160437000Y-73049857D01*
X160508428Y-72907000D01*
X160651285Y-72835571D01*
X160937000Y-72835571D01*
X161079857Y-72907000D01*
X160437000Y-73764142D02*
X160579857Y-73835571D01*
X160937000Y-73835571D01*
X161079857Y-73764142D01*
X161151285Y-73621285D01*
X161151285Y-73478428D01*
X161079857Y-73335571D01*
X160937000Y-73264142D01*
X160579857Y-73264142D01*
X160437000Y-73192714D01*
X159508428Y-73835571D02*
X159651285Y-73764142D01*
X159722714Y-73621285D01*
X159722714Y-72335571D01*
X158294142Y-73764142D02*
X158437000Y-73835571D01*
X158722714Y-73835571D01*
X158865571Y-73764142D01*
X158937000Y-73692714D01*
X159008428Y-73549857D01*
X159008428Y-73121285D01*
X158937000Y-72978428D01*
X158865571Y-72907000D01*
X158722714Y-72835571D01*
X158437000Y-72835571D01*
X158294142Y-72907000D01*
X157794142Y-72835571D02*
X157008428Y-72835571D01*
X157794142Y-73835571D01*
X157008428Y-73835571D01*
X156579857Y-72835571D02*
X156222714Y-73835571D01*
X155865571Y-72835571D02*
X156222714Y-73835571D01*
X156365571Y-74192714D01*
X156437000Y-74264142D01*
X156579857Y-74335571D01*
X155294142Y-73835571D02*
X155294142Y-72335571D01*
X155151285Y-73264142D02*
X154722714Y-73835571D01*
X154722714Y-72835571D02*
X155294142Y-73407000D01*
X153294142Y-73835571D02*
X154151285Y-73835571D01*
X153722714Y-73835571D02*
X153722714Y-72335571D01*
X153865571Y-72549857D01*
X154008428Y-72692714D01*
X154151285Y-72764142D01*
X152437000Y-72978428D02*
X152579857Y-72907000D01*
X152651285Y-72835571D01*
X152722714Y-72692714D01*
X152722714Y-72621285D01*
X152651285Y-72478428D01*
X152579857Y-72407000D01*
X152437000Y-72335571D01*
X152151285Y-72335571D01*
X152008428Y-72407000D01*
X151937000Y-72478428D01*
X151865571Y-72621285D01*
X151865571Y-72692714D01*
X151937000Y-72835571D01*
X152008428Y-72907000D01*
X152151285Y-72978428D01*
X152437000Y-72978428D01*
X152579857Y-73049857D01*
X152651285Y-73121285D01*
X152722714Y-73264142D01*
X152722714Y-73549857D01*
X152651285Y-73692714D01*
X152579857Y-73764142D01*
X152437000Y-73835571D01*
X152151285Y-73835571D01*
X152008428Y-73764142D01*
X151937000Y-73692714D01*
X151865571Y-73549857D01*
X151865571Y-73264142D01*
X151937000Y-73121285D01*
X152008428Y-73049857D01*
X152151285Y-72978428D01*
X150151285Y-72264142D02*
X151437000Y-74192714D01*
X149651285Y-73835571D02*
X149651285Y-72335571D01*
X148794142Y-73835571D02*
X149437000Y-72978428D01*
X148794142Y-72335571D02*
X149651285Y-73192714D01*
X148151285Y-73835571D02*
X148151285Y-72835571D01*
X148151285Y-72335571D02*
X148222714Y-72407000D01*
X148151285Y-72478428D01*
X148079857Y-72407000D01*
X148151285Y-72335571D01*
X148151285Y-72478428D01*
X146794142Y-73764142D02*
X146937000Y-73835571D01*
X147222714Y-73835571D01*
X147365571Y-73764142D01*
X147437000Y-73692714D01*
X147508428Y-73549857D01*
X147508428Y-73121285D01*
X147437000Y-72978428D01*
X147365571Y-72907000D01*
X147222714Y-72835571D01*
X146937000Y-72835571D01*
X146794142Y-72907000D01*
X145508428Y-73835571D02*
X145508428Y-73049857D01*
X145579857Y-72907000D01*
X145722714Y-72835571D01*
X146008428Y-72835571D01*
X146151285Y-72907000D01*
X145508428Y-73764142D02*
X145651285Y-73835571D01*
X146008428Y-73835571D01*
X146151285Y-73764142D01*
X146222714Y-73621285D01*
X146222714Y-73478428D01*
X146151285Y-73335571D01*
X146008428Y-73264142D01*
X145651285Y-73264142D01*
X145508428Y-73192714D01*
X144151285Y-73835571D02*
X144151285Y-72335571D01*
X144151285Y-73764142D02*
X144294142Y-73835571D01*
X144579857Y-73835571D01*
X144722714Y-73764142D01*
X144794142Y-73692714D01*
X144865571Y-73549857D01*
X144865571Y-73121285D01*
X144794142Y-72978428D01*
X144722714Y-72907000D01*
X144579857Y-72835571D01*
X144294142Y-72835571D01*
X144151285Y-72907000D01*
X142365571Y-72264142D02*
X143651285Y-74192714D01*
X141865571Y-73049857D02*
X141365571Y-73049857D01*
X141151285Y-73835571D02*
X141865571Y-73835571D01*
X141865571Y-72335571D01*
X141151285Y-72335571D01*
X140008428Y-73049857D02*
X140508428Y-73049857D01*
X140508428Y-73835571D02*
X140508428Y-72335571D01*
X139794142Y-72335571D01*
X139222714Y-73835571D02*
X139222714Y-72335571D01*
X138722714Y-73407000D01*
X138222714Y-72335571D01*
X138222714Y-73835571D01*
X137508428Y-73835571D02*
X137508428Y-72335571D01*
X136937000Y-72335571D01*
X136794142Y-72407000D01*
X136722714Y-72478428D01*
X136651285Y-72621285D01*
X136651285Y-72835571D01*
X136722714Y-72978428D01*
X136794142Y-73049857D01*
X136937000Y-73121285D01*
X137508428Y-73121285D01*
X135794142Y-73835571D02*
X135937000Y-73764142D01*
X136008428Y-73692714D01*
X136079857Y-73549857D01*
X136079857Y-73121285D01*
X136008428Y-72978428D01*
X135937000Y-72907000D01*
X135794142Y-72835571D01*
X135579857Y-72835571D01*
X135437000Y-72907000D01*
X135365571Y-72978428D01*
X135294142Y-73121285D01*
X135294142Y-73549857D01*
X135365571Y-73692714D01*
X135437000Y-73764142D01*
X135579857Y-73835571D01*
X135794142Y-73835571D01*
X134008428Y-73835571D02*
X134008428Y-72335571D01*
X134008428Y-73764142D02*
X134151285Y-73835571D01*
X134437000Y-73835571D01*
X134579857Y-73764142D01*
X134651285Y-73692714D01*
X134722714Y-73549857D01*
X134722714Y-73121285D01*
X134651285Y-72978428D01*
X134579857Y-72907000D01*
X134437000Y-72835571D01*
X134151285Y-72835571D01*
X134008428Y-72907000D01*
D11*
X136199333Y-93115380D02*
X135866000Y-94115380D01*
X135532666Y-93115380D01*
X134866000Y-93591571D02*
X134723142Y-93639190D01*
X134675523Y-93686809D01*
X134627904Y-93782047D01*
X134627904Y-93924904D01*
X134675523Y-94020142D01*
X134723142Y-94067761D01*
X134818380Y-94115380D01*
X135199333Y-94115380D01*
X135199333Y-93115380D01*
X134866000Y-93115380D01*
X134770761Y-93163000D01*
X134723142Y-93210619D01*
X134675523Y-93305857D01*
X134675523Y-93401095D01*
X134723142Y-93496333D01*
X134770761Y-93543952D01*
X134866000Y-93591571D01*
X135199333Y-93591571D01*
X134199333Y-93115380D02*
X134199333Y-93924904D01*
X134151714Y-94020142D01*
X134104095Y-94067761D01*
X134008857Y-94115380D01*
X133818380Y-94115380D01*
X133723142Y-94067761D01*
X133675523Y-94020142D01*
X133627904Y-93924904D01*
X133627904Y-93115380D01*
X133199333Y-94067761D02*
X133056476Y-94115380D01*
X132818380Y-94115380D01*
X132723142Y-94067761D01*
X132675523Y-94020142D01*
X132627904Y-93924904D01*
X132627904Y-93829666D01*
X132675523Y-93734428D01*
X132723142Y-93686809D01*
X132818380Y-93639190D01*
X133008857Y-93591571D01*
X133104095Y-93543952D01*
X133151714Y-93496333D01*
X133199333Y-93401095D01*
X133199333Y-93305857D01*
X133151714Y-93210619D01*
X133104095Y-93163000D01*
X133008857Y-93115380D01*
X132770761Y-93115380D01*
X132627904Y-93163000D01*
X135127904Y-94813000D02*
X135223142Y-94765380D01*
X135366000Y-94765380D01*
X135508857Y-94813000D01*
X135604095Y-94908238D01*
X135651714Y-95003476D01*
X135699333Y-95193952D01*
X135699333Y-95336809D01*
X135651714Y-95527285D01*
X135604095Y-95622523D01*
X135508857Y-95717761D01*
X135366000Y-95765380D01*
X135270761Y-95765380D01*
X135127904Y-95717761D01*
X135080285Y-95670142D01*
X135080285Y-95336809D01*
X135270761Y-95336809D01*
X134651714Y-95765380D02*
X134651714Y-94765380D01*
X134080285Y-95765380D01*
X134080285Y-94765380D01*
X133604095Y-95765380D02*
X133604095Y-94765380D01*
X133366000Y-94765380D01*
X133223142Y-94813000D01*
X133127904Y-94908238D01*
X133080285Y-95003476D01*
X133032666Y-95193952D01*
X133032666Y-95336809D01*
X133080285Y-95527285D01*
X133127904Y-95622523D01*
X133223142Y-95717761D01*
X133366000Y-95765380D01*
X133604095Y-95765380D01*
D12*
X155067000Y-86233000D02*
X156337000Y-86233000D01*
X155067000Y-84963000D02*
X155067000Y-86233000D01*
X154813000Y-84709000D02*
X155067000Y-84963000D01*
D13*
G04 #@! TO.C,C1*
X138140221Y-91311000D02*
X138465779Y-91311000D01*
X138140221Y-92331000D02*
X138465779Y-92331000D01*
G04 #@! TO.C,C5*
X163324000Y-86116279D02*
X163324000Y-85790721D01*
X162304000Y-86116279D02*
X162304000Y-85790721D01*
G04 #@! TO.C,C6*
X153380221Y-86108000D02*
X153705779Y-86108000D01*
X153380221Y-85088000D02*
X153705779Y-85088000D01*
G04 #@! TO.C,C7*
X160276000Y-84998779D02*
X160276000Y-84673221D01*
X159256000Y-84998779D02*
X159256000Y-84673221D01*
G04 #@! TO.C,C8*
X160780000Y-84998779D02*
X160780000Y-84673221D01*
X161800000Y-84998779D02*
X161800000Y-84673221D01*
G04 #@! TO.C,C9*
X156220279Y-87632000D02*
X155894721Y-87632000D01*
X156220279Y-86612000D02*
X155894721Y-86612000D01*
G04 #@! TO.C,C10*
X157134779Y-80135000D02*
X156809221Y-80135000D01*
X157134779Y-81155000D02*
X156809221Y-81155000D01*
G04 #@! TO.C,C11*
X165191221Y-81659000D02*
X165516779Y-81659000D01*
X165191221Y-82679000D02*
X165516779Y-82679000D01*
G04 #@! TO.C,C12*
X156753779Y-85088000D02*
X156428221Y-85088000D01*
X156753779Y-86108000D02*
X156428221Y-86108000D01*
G04 #@! TO.C,C13*
X156601279Y-84584000D02*
X156275721Y-84584000D01*
X156601279Y-83564000D02*
X156275721Y-83564000D01*
G04 #@! TO.C,C14*
X163828000Y-86116279D02*
X163828000Y-85790721D01*
X164848000Y-86116279D02*
X164848000Y-85790721D01*
G04 #@! TO.C,C17*
X144561779Y-92458000D02*
X144236221Y-92458000D01*
X144561779Y-91438000D02*
X144236221Y-91438000D01*
G04 #@! TO.C,C19*
X144815779Y-85215000D02*
X144490221Y-85215000D01*
X144815779Y-86235000D02*
X144490221Y-86235000D01*
G04 #@! TO.C,J3*
X178876000Y-96460000D02*
X178876000Y-101660000D01*
X135636000Y-96460000D02*
X178876000Y-96460000D01*
X133036000Y-101660000D02*
X178876000Y-101660000D01*
X135636000Y-96460000D02*
X135636000Y-99060000D01*
X135636000Y-99060000D02*
X133036000Y-99060000D01*
X133036000Y-99060000D02*
X133036000Y-101660000D01*
X134366000Y-96460000D02*
X133036000Y-96460000D01*
X133036000Y-96460000D02*
X133036000Y-97790000D01*
G04 #@! TO.C,L1*
X158866721Y-87632000D02*
X159192279Y-87632000D01*
X158866721Y-86612000D02*
X159192279Y-86612000D01*
G04 #@! TO.C,R2*
X138013221Y-86235000D02*
X138338779Y-86235000D01*
X138013221Y-85215000D02*
X138338779Y-85215000D01*
G04 #@! TO.C,R3*
X170813000Y-83373279D02*
X170813000Y-83047721D01*
X171833000Y-83373279D02*
X171833000Y-83047721D01*
G04 #@! TO.C,R4*
X173357000Y-83373279D02*
X173357000Y-83047721D01*
X172337000Y-83373279D02*
X172337000Y-83047721D01*
G04 #@! TO.C,R5*
X161542000Y-81569779D02*
X161542000Y-81244221D01*
X162562000Y-81569779D02*
X162562000Y-81244221D01*
G04 #@! TO.C,Y2*
X144520000Y-90539000D02*
X145020000Y-90539000D01*
X145020000Y-90539000D02*
X145020000Y-87139000D01*
X145020000Y-87139000D02*
X144520000Y-87139000D01*
X145020000Y-89384000D02*
X146170000Y-89789000D01*
X146170000Y-89789000D02*
X146620000Y-89789000D01*
X145020000Y-88294000D02*
X146170000Y-87889000D01*
X146170000Y-87889000D02*
X146620000Y-87889000D01*
G04 #@! TO.C,C1*
D11*
X140882666Y-92305142D02*
X140930285Y-92352761D01*
X141073142Y-92400380D01*
X141168380Y-92400380D01*
X141311238Y-92352761D01*
X141406476Y-92257523D01*
X141454095Y-92162285D01*
X141501714Y-91971809D01*
X141501714Y-91828952D01*
X141454095Y-91638476D01*
X141406476Y-91543238D01*
X141311238Y-91448000D01*
X141168380Y-91400380D01*
X141073142Y-91400380D01*
X140930285Y-91448000D01*
X140882666Y-91495619D01*
X139930285Y-92400380D02*
X140501714Y-92400380D01*
X140216000Y-92400380D02*
X140216000Y-91400380D01*
X140311238Y-91543238D01*
X140406476Y-91638476D01*
X140501714Y-91686095D01*
G04 #@! TO.C,C5*
X163298142Y-88225333D02*
X163345761Y-88177714D01*
X163393380Y-88034857D01*
X163393380Y-87939619D01*
X163345761Y-87796761D01*
X163250523Y-87701523D01*
X163155285Y-87653904D01*
X162964809Y-87606285D01*
X162821952Y-87606285D01*
X162631476Y-87653904D01*
X162536238Y-87701523D01*
X162441000Y-87796761D01*
X162393380Y-87939619D01*
X162393380Y-88034857D01*
X162441000Y-88177714D01*
X162488619Y-88225333D01*
X162393380Y-89130095D02*
X162393380Y-88653904D01*
X162869571Y-88606285D01*
X162821952Y-88653904D01*
X162774333Y-88749142D01*
X162774333Y-88987238D01*
X162821952Y-89082476D01*
X162869571Y-89130095D01*
X162964809Y-89177714D01*
X163202904Y-89177714D01*
X163298142Y-89130095D01*
X163345761Y-89082476D01*
X163393380Y-88987238D01*
X163393380Y-88749142D01*
X163345761Y-88653904D01*
X163298142Y-88606285D01*
G04 #@! TO.C,C6*
X153709666Y-87385142D02*
X153757285Y-87432761D01*
X153900142Y-87480380D01*
X153995380Y-87480380D01*
X154138238Y-87432761D01*
X154233476Y-87337523D01*
X154281095Y-87242285D01*
X154328714Y-87051809D01*
X154328714Y-86908952D01*
X154281095Y-86718476D01*
X154233476Y-86623238D01*
X154138238Y-86528000D01*
X153995380Y-86480380D01*
X153900142Y-86480380D01*
X153757285Y-86528000D01*
X153709666Y-86575619D01*
X152852523Y-86480380D02*
X153043000Y-86480380D01*
X153138238Y-86528000D01*
X153185857Y-86575619D01*
X153281095Y-86718476D01*
X153328714Y-86908952D01*
X153328714Y-87289904D01*
X153281095Y-87385142D01*
X153233476Y-87432761D01*
X153138238Y-87480380D01*
X152947761Y-87480380D01*
X152852523Y-87432761D01*
X152804904Y-87385142D01*
X152757285Y-87289904D01*
X152757285Y-87051809D01*
X152804904Y-86956571D01*
X152852523Y-86908952D01*
X152947761Y-86861333D01*
X153138238Y-86861333D01*
X153233476Y-86908952D01*
X153281095Y-86956571D01*
X153328714Y-87051809D01*
G04 #@! TO.C,C7*
X160250142Y-82002333D02*
X160297761Y-81954714D01*
X160345380Y-81811857D01*
X160345380Y-81716619D01*
X160297761Y-81573761D01*
X160202523Y-81478523D01*
X160107285Y-81430904D01*
X159916809Y-81383285D01*
X159773952Y-81383285D01*
X159583476Y-81430904D01*
X159488238Y-81478523D01*
X159393000Y-81573761D01*
X159345380Y-81716619D01*
X159345380Y-81811857D01*
X159393000Y-81954714D01*
X159440619Y-82002333D01*
X159345380Y-82335666D02*
X159345380Y-83002333D01*
X160345380Y-82573761D01*
G04 #@! TO.C,C8*
X161774142Y-87209333D02*
X161821761Y-87161714D01*
X161869380Y-87018857D01*
X161869380Y-86923619D01*
X161821761Y-86780761D01*
X161726523Y-86685523D01*
X161631285Y-86637904D01*
X161440809Y-86590285D01*
X161297952Y-86590285D01*
X161107476Y-86637904D01*
X161012238Y-86685523D01*
X160917000Y-86780761D01*
X160869380Y-86923619D01*
X160869380Y-87018857D01*
X160917000Y-87161714D01*
X160964619Y-87209333D01*
X161297952Y-87780761D02*
X161250333Y-87685523D01*
X161202714Y-87637904D01*
X161107476Y-87590285D01*
X161059857Y-87590285D01*
X160964619Y-87637904D01*
X160917000Y-87685523D01*
X160869380Y-87780761D01*
X160869380Y-87971238D01*
X160917000Y-88066476D01*
X160964619Y-88114095D01*
X161059857Y-88161714D01*
X161107476Y-88161714D01*
X161202714Y-88114095D01*
X161250333Y-88066476D01*
X161297952Y-87971238D01*
X161297952Y-87780761D01*
X161345571Y-87685523D01*
X161393190Y-87637904D01*
X161488428Y-87590285D01*
X161678904Y-87590285D01*
X161774142Y-87637904D01*
X161821761Y-87685523D01*
X161869380Y-87780761D01*
X161869380Y-87971238D01*
X161821761Y-88066476D01*
X161774142Y-88114095D01*
X161678904Y-88161714D01*
X161488428Y-88161714D01*
X161393190Y-88114095D01*
X161345571Y-88066476D01*
X161297952Y-87971238D01*
G04 #@! TO.C,C9*
X156249666Y-89003142D02*
X156297285Y-89050761D01*
X156440142Y-89098380D01*
X156535380Y-89098380D01*
X156678238Y-89050761D01*
X156773476Y-88955523D01*
X156821095Y-88860285D01*
X156868714Y-88669809D01*
X156868714Y-88526952D01*
X156821095Y-88336476D01*
X156773476Y-88241238D01*
X156678238Y-88146000D01*
X156535380Y-88098380D01*
X156440142Y-88098380D01*
X156297285Y-88146000D01*
X156249666Y-88193619D01*
X155773476Y-89098380D02*
X155583000Y-89098380D01*
X155487761Y-89050761D01*
X155440142Y-89003142D01*
X155344904Y-88860285D01*
X155297285Y-88669809D01*
X155297285Y-88288857D01*
X155344904Y-88193619D01*
X155392523Y-88146000D01*
X155487761Y-88098380D01*
X155678238Y-88098380D01*
X155773476Y-88146000D01*
X155821095Y-88193619D01*
X155868714Y-88288857D01*
X155868714Y-88526952D01*
X155821095Y-88622190D01*
X155773476Y-88669809D01*
X155678238Y-88717428D01*
X155487761Y-88717428D01*
X155392523Y-88669809D01*
X155344904Y-88622190D01*
X155297285Y-88526952D01*
G04 #@! TO.C,C10*
X157614857Y-79572142D02*
X157662476Y-79619761D01*
X157805333Y-79667380D01*
X157900571Y-79667380D01*
X158043428Y-79619761D01*
X158138666Y-79524523D01*
X158186285Y-79429285D01*
X158233904Y-79238809D01*
X158233904Y-79095952D01*
X158186285Y-78905476D01*
X158138666Y-78810238D01*
X158043428Y-78715000D01*
X157900571Y-78667380D01*
X157805333Y-78667380D01*
X157662476Y-78715000D01*
X157614857Y-78762619D01*
X156662476Y-79667380D02*
X157233904Y-79667380D01*
X156948190Y-79667380D02*
X156948190Y-78667380D01*
X157043428Y-78810238D01*
X157138666Y-78905476D01*
X157233904Y-78953095D01*
X156043428Y-78667380D02*
X155948190Y-78667380D01*
X155852952Y-78715000D01*
X155805333Y-78762619D01*
X155757714Y-78857857D01*
X155710095Y-79048333D01*
X155710095Y-79286428D01*
X155757714Y-79476904D01*
X155805333Y-79572142D01*
X155852952Y-79619761D01*
X155948190Y-79667380D01*
X156043428Y-79667380D01*
X156138666Y-79619761D01*
X156186285Y-79572142D01*
X156233904Y-79476904D01*
X156281523Y-79286428D01*
X156281523Y-79048333D01*
X156233904Y-78857857D01*
X156186285Y-78762619D01*
X156138666Y-78715000D01*
X156043428Y-78667380D01*
G04 #@! TO.C,C11*
X168917857Y-82526142D02*
X168965476Y-82573761D01*
X169108333Y-82621380D01*
X169203571Y-82621380D01*
X169346428Y-82573761D01*
X169441666Y-82478523D01*
X169489285Y-82383285D01*
X169536904Y-82192809D01*
X169536904Y-82049952D01*
X169489285Y-81859476D01*
X169441666Y-81764238D01*
X169346428Y-81669000D01*
X169203571Y-81621380D01*
X169108333Y-81621380D01*
X168965476Y-81669000D01*
X168917857Y-81716619D01*
X167965476Y-82621380D02*
X168536904Y-82621380D01*
X168251190Y-82621380D02*
X168251190Y-81621380D01*
X168346428Y-81764238D01*
X168441666Y-81859476D01*
X168536904Y-81907095D01*
X167013095Y-82621380D02*
X167584523Y-82621380D01*
X167298809Y-82621380D02*
X167298809Y-81621380D01*
X167394047Y-81764238D01*
X167489285Y-81859476D01*
X167584523Y-81907095D01*
G04 #@! TO.C,C12*
X154058857Y-84558142D02*
X154106476Y-84605761D01*
X154249333Y-84653380D01*
X154344571Y-84653380D01*
X154487428Y-84605761D01*
X154582666Y-84510523D01*
X154630285Y-84415285D01*
X154677904Y-84224809D01*
X154677904Y-84081952D01*
X154630285Y-83891476D01*
X154582666Y-83796238D01*
X154487428Y-83701000D01*
X154344571Y-83653380D01*
X154249333Y-83653380D01*
X154106476Y-83701000D01*
X154058857Y-83748619D01*
X153106476Y-84653380D02*
X153677904Y-84653380D01*
X153392190Y-84653380D02*
X153392190Y-83653380D01*
X153487428Y-83796238D01*
X153582666Y-83891476D01*
X153677904Y-83939095D01*
X152725523Y-83748619D02*
X152677904Y-83701000D01*
X152582666Y-83653380D01*
X152344571Y-83653380D01*
X152249333Y-83701000D01*
X152201714Y-83748619D01*
X152154095Y-83843857D01*
X152154095Y-83939095D01*
X152201714Y-84081952D01*
X152773142Y-84653380D01*
X152154095Y-84653380D01*
G04 #@! TO.C,C13*
X157106857Y-83034142D02*
X157154476Y-83081761D01*
X157297333Y-83129380D01*
X157392571Y-83129380D01*
X157535428Y-83081761D01*
X157630666Y-82986523D01*
X157678285Y-82891285D01*
X157725904Y-82700809D01*
X157725904Y-82557952D01*
X157678285Y-82367476D01*
X157630666Y-82272238D01*
X157535428Y-82177000D01*
X157392571Y-82129380D01*
X157297333Y-82129380D01*
X157154476Y-82177000D01*
X157106857Y-82224619D01*
X156154476Y-83129380D02*
X156725904Y-83129380D01*
X156440190Y-83129380D02*
X156440190Y-82129380D01*
X156535428Y-82272238D01*
X156630666Y-82367476D01*
X156725904Y-82415095D01*
X155821142Y-82129380D02*
X155202095Y-82129380D01*
X155535428Y-82510333D01*
X155392571Y-82510333D01*
X155297333Y-82557952D01*
X155249714Y-82605571D01*
X155202095Y-82700809D01*
X155202095Y-82938904D01*
X155249714Y-83034142D01*
X155297333Y-83081761D01*
X155392571Y-83129380D01*
X155678285Y-83129380D01*
X155773523Y-83081761D01*
X155821142Y-83034142D01*
G04 #@! TO.C,C14*
X164695142Y-88257142D02*
X164742761Y-88209523D01*
X164790380Y-88066666D01*
X164790380Y-87971428D01*
X164742761Y-87828571D01*
X164647523Y-87733333D01*
X164552285Y-87685714D01*
X164361809Y-87638095D01*
X164218952Y-87638095D01*
X164028476Y-87685714D01*
X163933238Y-87733333D01*
X163838000Y-87828571D01*
X163790380Y-87971428D01*
X163790380Y-88066666D01*
X163838000Y-88209523D01*
X163885619Y-88257142D01*
X164790380Y-89209523D02*
X164790380Y-88638095D01*
X164790380Y-88923809D02*
X163790380Y-88923809D01*
X163933238Y-88828571D01*
X164028476Y-88733333D01*
X164076095Y-88638095D01*
X164123714Y-90066666D02*
X164790380Y-90066666D01*
X163742761Y-89828571D02*
X164457047Y-89590476D01*
X164457047Y-90209523D01*
G04 #@! TO.C,C17*
X148089857Y-92432142D02*
X148137476Y-92479761D01*
X148280333Y-92527380D01*
X148375571Y-92527380D01*
X148518428Y-92479761D01*
X148613666Y-92384523D01*
X148661285Y-92289285D01*
X148708904Y-92098809D01*
X148708904Y-91955952D01*
X148661285Y-91765476D01*
X148613666Y-91670238D01*
X148518428Y-91575000D01*
X148375571Y-91527380D01*
X148280333Y-91527380D01*
X148137476Y-91575000D01*
X148089857Y-91622619D01*
X147137476Y-92527380D02*
X147708904Y-92527380D01*
X147423190Y-92527380D02*
X147423190Y-91527380D01*
X147518428Y-91670238D01*
X147613666Y-91765476D01*
X147708904Y-91813095D01*
X146804142Y-91527380D02*
X146137476Y-91527380D01*
X146566047Y-92527380D01*
G04 #@! TO.C,C19*
X148343857Y-85955142D02*
X148391476Y-86002761D01*
X148534333Y-86050380D01*
X148629571Y-86050380D01*
X148772428Y-86002761D01*
X148867666Y-85907523D01*
X148915285Y-85812285D01*
X148962904Y-85621809D01*
X148962904Y-85478952D01*
X148915285Y-85288476D01*
X148867666Y-85193238D01*
X148772428Y-85098000D01*
X148629571Y-85050380D01*
X148534333Y-85050380D01*
X148391476Y-85098000D01*
X148343857Y-85145619D01*
X147391476Y-86050380D02*
X147962904Y-86050380D01*
X147677190Y-86050380D02*
X147677190Y-85050380D01*
X147772428Y-85193238D01*
X147867666Y-85288476D01*
X147962904Y-85336095D01*
X146915285Y-86050380D02*
X146724809Y-86050380D01*
X146629571Y-86002761D01*
X146581952Y-85955142D01*
X146486714Y-85812285D01*
X146439095Y-85621809D01*
X146439095Y-85240857D01*
X146486714Y-85145619D01*
X146534333Y-85098000D01*
X146629571Y-85050380D01*
X146820047Y-85050380D01*
X146915285Y-85098000D01*
X146962904Y-85145619D01*
X147010523Y-85240857D01*
X147010523Y-85478952D01*
X146962904Y-85574190D01*
X146915285Y-85621809D01*
X146820047Y-85669428D01*
X146629571Y-85669428D01*
X146534333Y-85621809D01*
X146486714Y-85574190D01*
X146439095Y-85478952D01*
G04 #@! TO.C,J3*
X129873333Y-94448380D02*
X129873333Y-95162666D01*
X129920952Y-95305523D01*
X130016190Y-95400761D01*
X130159047Y-95448380D01*
X130254285Y-95448380D01*
X129492380Y-94448380D02*
X128873333Y-94448380D01*
X129206666Y-94829333D01*
X129063809Y-94829333D01*
X128968571Y-94876952D01*
X128920952Y-94924571D01*
X128873333Y-95019809D01*
X128873333Y-95257904D01*
X128920952Y-95353142D01*
X128968571Y-95400761D01*
X129063809Y-95448380D01*
X129349523Y-95448380D01*
X129444761Y-95400761D01*
X129492380Y-95353142D01*
G04 #@! TO.C,L1*
X159196166Y-89004380D02*
X159672357Y-89004380D01*
X159672357Y-88004380D01*
X158339023Y-89004380D02*
X158910452Y-89004380D01*
X158624738Y-89004380D02*
X158624738Y-88004380D01*
X158719976Y-88147238D01*
X158815214Y-88242476D01*
X158910452Y-88290095D01*
G04 #@! TO.C,R2*
X140882666Y-86304380D02*
X141216000Y-85828190D01*
X141454095Y-86304380D02*
X141454095Y-85304380D01*
X141073142Y-85304380D01*
X140977904Y-85352000D01*
X140930285Y-85399619D01*
X140882666Y-85494857D01*
X140882666Y-85637714D01*
X140930285Y-85732952D01*
X140977904Y-85780571D01*
X141073142Y-85828190D01*
X141454095Y-85828190D01*
X140501714Y-85399619D02*
X140454095Y-85352000D01*
X140358857Y-85304380D01*
X140120761Y-85304380D01*
X140025523Y-85352000D01*
X139977904Y-85399619D01*
X139930285Y-85494857D01*
X139930285Y-85590095D01*
X139977904Y-85732952D01*
X140549333Y-86304380D01*
X139930285Y-86304380D01*
G04 #@! TO.C,R3*
X171902380Y-85558333D02*
X171426190Y-85225000D01*
X171902380Y-84986904D02*
X170902380Y-84986904D01*
X170902380Y-85367857D01*
X170950000Y-85463095D01*
X170997619Y-85510714D01*
X171092857Y-85558333D01*
X171235714Y-85558333D01*
X171330952Y-85510714D01*
X171378571Y-85463095D01*
X171426190Y-85367857D01*
X171426190Y-84986904D01*
X170902380Y-85891666D02*
X170902380Y-86510714D01*
X171283333Y-86177380D01*
X171283333Y-86320238D01*
X171330952Y-86415476D01*
X171378571Y-86463095D01*
X171473809Y-86510714D01*
X171711904Y-86510714D01*
X171807142Y-86463095D01*
X171854761Y-86415476D01*
X171902380Y-86320238D01*
X171902380Y-86034523D01*
X171854761Y-85939285D01*
X171807142Y-85891666D01*
G04 #@! TO.C,R4*
X173299380Y-85558333D02*
X172823190Y-85225000D01*
X173299380Y-84986904D02*
X172299380Y-84986904D01*
X172299380Y-85367857D01*
X172347000Y-85463095D01*
X172394619Y-85510714D01*
X172489857Y-85558333D01*
X172632714Y-85558333D01*
X172727952Y-85510714D01*
X172775571Y-85463095D01*
X172823190Y-85367857D01*
X172823190Y-84986904D01*
X172632714Y-86415476D02*
X173299380Y-86415476D01*
X172251761Y-86177380D02*
X172966047Y-85939285D01*
X172966047Y-86558333D01*
G04 #@! TO.C,R5*
X162631380Y-78700333D02*
X162155190Y-78367000D01*
X162631380Y-78128904D02*
X161631380Y-78128904D01*
X161631380Y-78509857D01*
X161679000Y-78605095D01*
X161726619Y-78652714D01*
X161821857Y-78700333D01*
X161964714Y-78700333D01*
X162059952Y-78652714D01*
X162107571Y-78605095D01*
X162155190Y-78509857D01*
X162155190Y-78128904D01*
X161631380Y-79605095D02*
X161631380Y-79128904D01*
X162107571Y-79081285D01*
X162059952Y-79128904D01*
X162012333Y-79224142D01*
X162012333Y-79462238D01*
X162059952Y-79557476D01*
X162107571Y-79605095D01*
X162202809Y-79652714D01*
X162440904Y-79652714D01*
X162536142Y-79605095D01*
X162583761Y-79557476D01*
X162631380Y-79462238D01*
X162631380Y-79224142D01*
X162583761Y-79128904D01*
X162536142Y-79081285D01*
G04 #@! TO.C,Y2*
X149701190Y-89765190D02*
X149701190Y-90241380D01*
X150034523Y-89241380D02*
X149701190Y-89765190D01*
X149367857Y-89241380D01*
X149082142Y-89336619D02*
X149034523Y-89289000D01*
X148939285Y-89241380D01*
X148701190Y-89241380D01*
X148605952Y-89289000D01*
X148558333Y-89336619D01*
X148510714Y-89431857D01*
X148510714Y-89527095D01*
X148558333Y-89669952D01*
X149129761Y-90241380D01*
X148510714Y-90241380D01*
G04 #@! TD*
M02*
