G04 #@! TF.GenerationSoftware,KiCad,Pcbnew,(5.0.0)*
G04 #@! TF.CreationDate,2018-09-15T00:01:03-04:00*
G04 #@! TF.ProjectId,EFMPod,45464D506F642E6B696361645F706362,rev?*
G04 #@! TF.SameCoordinates,Original*
G04 #@! TF.FileFunction,Copper,L2,Bot,Signal*
G04 #@! TF.FilePolarity,Positive*
%FSLAX46Y46*%
G04 Gerber Fmt 4.6, Leading zero omitted, Abs format (unit mm)*
G04 Created by KiCad (PCBNEW (5.0.0)) date 09/15/18 00:01:03*
%MOMM*%
%LPD*%
G01*
G04 APERTURE LIST*
G04 #@! TA.AperFunction,Conductor*
%ADD10C,0.100000*%
G04 #@! TD*
G04 #@! TA.AperFunction,SMDPad,CuDef*
%ADD11C,0.875000*%
G04 #@! TD*
G04 #@! TA.AperFunction,ComponentPad*
%ADD12R,1.700000X1.700000*%
G04 #@! TD*
G04 #@! TA.AperFunction,ComponentPad*
%ADD13O,1.700000X1.700000*%
G04 #@! TD*
G04 #@! TA.AperFunction,ComponentPad*
%ADD14C,1.000000*%
G04 #@! TD*
G04 #@! TA.AperFunction,SMDPad,CuDef*
%ADD15R,8.000000X3.000000*%
G04 #@! TD*
G04 #@! TA.AperFunction,ComponentPad*
%ADD16C,2.100000*%
G04 #@! TD*
G04 #@! TA.AperFunction,ViaPad*
%ADD17C,1.016000*%
G04 #@! TD*
G04 #@! TA.AperFunction,ViaPad*
%ADD18C,0.800000*%
G04 #@! TD*
G04 #@! TA.AperFunction,Conductor*
%ADD19C,0.152400*%
G04 #@! TD*
G04 #@! TA.AperFunction,Conductor*
%ADD20C,0.254000*%
G04 #@! TD*
G04 #@! TA.AperFunction,Conductor*
%ADD21C,0.508000*%
G04 #@! TD*
G04 #@! TA.AperFunction,Conductor*
%ADD22C,0.203200*%
G04 #@! TD*
G04 APERTURE END LIST*
D10*
G04 #@! TO.N,GNDREF*
G04 #@! TO.C,C1*
G36*
X139330691Y-91347053D02*
X139351926Y-91350203D01*
X139372750Y-91355419D01*
X139392962Y-91362651D01*
X139412368Y-91371830D01*
X139430781Y-91382866D01*
X139448024Y-91395654D01*
X139463930Y-91410070D01*
X139478346Y-91425976D01*
X139491134Y-91443219D01*
X139502170Y-91461632D01*
X139511349Y-91481038D01*
X139518581Y-91501250D01*
X139523797Y-91522074D01*
X139526947Y-91543309D01*
X139528000Y-91564750D01*
X139528000Y-92077250D01*
X139526947Y-92098691D01*
X139523797Y-92119926D01*
X139518581Y-92140750D01*
X139511349Y-92160962D01*
X139502170Y-92180368D01*
X139491134Y-92198781D01*
X139478346Y-92216024D01*
X139463930Y-92231930D01*
X139448024Y-92246346D01*
X139430781Y-92259134D01*
X139412368Y-92270170D01*
X139392962Y-92279349D01*
X139372750Y-92286581D01*
X139351926Y-92291797D01*
X139330691Y-92294947D01*
X139309250Y-92296000D01*
X138871750Y-92296000D01*
X138850309Y-92294947D01*
X138829074Y-92291797D01*
X138808250Y-92286581D01*
X138788038Y-92279349D01*
X138768632Y-92270170D01*
X138750219Y-92259134D01*
X138732976Y-92246346D01*
X138717070Y-92231930D01*
X138702654Y-92216024D01*
X138689866Y-92198781D01*
X138678830Y-92180368D01*
X138669651Y-92160962D01*
X138662419Y-92140750D01*
X138657203Y-92119926D01*
X138654053Y-92098691D01*
X138653000Y-92077250D01*
X138653000Y-91564750D01*
X138654053Y-91543309D01*
X138657203Y-91522074D01*
X138662419Y-91501250D01*
X138669651Y-91481038D01*
X138678830Y-91461632D01*
X138689866Y-91443219D01*
X138702654Y-91425976D01*
X138717070Y-91410070D01*
X138732976Y-91395654D01*
X138750219Y-91382866D01*
X138768632Y-91371830D01*
X138788038Y-91362651D01*
X138808250Y-91355419D01*
X138829074Y-91350203D01*
X138850309Y-91347053D01*
X138871750Y-91346000D01*
X139309250Y-91346000D01*
X139330691Y-91347053D01*
X139330691Y-91347053D01*
G37*
D11*
G04 #@! TD*
G04 #@! TO.P,C1,2*
G04 #@! TO.N,GNDREF*
X139090500Y-91821000D03*
D10*
G04 #@! TO.N,/~EFM_RESET*
G04 #@! TO.C,C1*
G36*
X137755691Y-91347053D02*
X137776926Y-91350203D01*
X137797750Y-91355419D01*
X137817962Y-91362651D01*
X137837368Y-91371830D01*
X137855781Y-91382866D01*
X137873024Y-91395654D01*
X137888930Y-91410070D01*
X137903346Y-91425976D01*
X137916134Y-91443219D01*
X137927170Y-91461632D01*
X137936349Y-91481038D01*
X137943581Y-91501250D01*
X137948797Y-91522074D01*
X137951947Y-91543309D01*
X137953000Y-91564750D01*
X137953000Y-92077250D01*
X137951947Y-92098691D01*
X137948797Y-92119926D01*
X137943581Y-92140750D01*
X137936349Y-92160962D01*
X137927170Y-92180368D01*
X137916134Y-92198781D01*
X137903346Y-92216024D01*
X137888930Y-92231930D01*
X137873024Y-92246346D01*
X137855781Y-92259134D01*
X137837368Y-92270170D01*
X137817962Y-92279349D01*
X137797750Y-92286581D01*
X137776926Y-92291797D01*
X137755691Y-92294947D01*
X137734250Y-92296000D01*
X137296750Y-92296000D01*
X137275309Y-92294947D01*
X137254074Y-92291797D01*
X137233250Y-92286581D01*
X137213038Y-92279349D01*
X137193632Y-92270170D01*
X137175219Y-92259134D01*
X137157976Y-92246346D01*
X137142070Y-92231930D01*
X137127654Y-92216024D01*
X137114866Y-92198781D01*
X137103830Y-92180368D01*
X137094651Y-92160962D01*
X137087419Y-92140750D01*
X137082203Y-92119926D01*
X137079053Y-92098691D01*
X137078000Y-92077250D01*
X137078000Y-91564750D01*
X137079053Y-91543309D01*
X137082203Y-91522074D01*
X137087419Y-91501250D01*
X137094651Y-91481038D01*
X137103830Y-91461632D01*
X137114866Y-91443219D01*
X137127654Y-91425976D01*
X137142070Y-91410070D01*
X137157976Y-91395654D01*
X137175219Y-91382866D01*
X137193632Y-91371830D01*
X137213038Y-91362651D01*
X137233250Y-91355419D01*
X137254074Y-91350203D01*
X137275309Y-91347053D01*
X137296750Y-91346000D01*
X137734250Y-91346000D01*
X137755691Y-91347053D01*
X137755691Y-91347053D01*
G37*
D11*
G04 #@! TD*
G04 #@! TO.P,C1,1*
G04 #@! TO.N,/~EFM_RESET*
X137515500Y-91821000D03*
D10*
G04 #@! TO.N,+3V3*
G04 #@! TO.C,C5*
G36*
X163091691Y-86304553D02*
X163112926Y-86307703D01*
X163133750Y-86312919D01*
X163153962Y-86320151D01*
X163173368Y-86329330D01*
X163191781Y-86340366D01*
X163209024Y-86353154D01*
X163224930Y-86367570D01*
X163239346Y-86383476D01*
X163252134Y-86400719D01*
X163263170Y-86419132D01*
X163272349Y-86438538D01*
X163279581Y-86458750D01*
X163284797Y-86479574D01*
X163287947Y-86500809D01*
X163289000Y-86522250D01*
X163289000Y-86959750D01*
X163287947Y-86981191D01*
X163284797Y-87002426D01*
X163279581Y-87023250D01*
X163272349Y-87043462D01*
X163263170Y-87062868D01*
X163252134Y-87081281D01*
X163239346Y-87098524D01*
X163224930Y-87114430D01*
X163209024Y-87128846D01*
X163191781Y-87141634D01*
X163173368Y-87152670D01*
X163153962Y-87161849D01*
X163133750Y-87169081D01*
X163112926Y-87174297D01*
X163091691Y-87177447D01*
X163070250Y-87178500D01*
X162557750Y-87178500D01*
X162536309Y-87177447D01*
X162515074Y-87174297D01*
X162494250Y-87169081D01*
X162474038Y-87161849D01*
X162454632Y-87152670D01*
X162436219Y-87141634D01*
X162418976Y-87128846D01*
X162403070Y-87114430D01*
X162388654Y-87098524D01*
X162375866Y-87081281D01*
X162364830Y-87062868D01*
X162355651Y-87043462D01*
X162348419Y-87023250D01*
X162343203Y-87002426D01*
X162340053Y-86981191D01*
X162339000Y-86959750D01*
X162339000Y-86522250D01*
X162340053Y-86500809D01*
X162343203Y-86479574D01*
X162348419Y-86458750D01*
X162355651Y-86438538D01*
X162364830Y-86419132D01*
X162375866Y-86400719D01*
X162388654Y-86383476D01*
X162403070Y-86367570D01*
X162418976Y-86353154D01*
X162436219Y-86340366D01*
X162454632Y-86329330D01*
X162474038Y-86320151D01*
X162494250Y-86312919D01*
X162515074Y-86307703D01*
X162536309Y-86304553D01*
X162557750Y-86303500D01*
X163070250Y-86303500D01*
X163091691Y-86304553D01*
X163091691Y-86304553D01*
G37*
D11*
G04 #@! TD*
G04 #@! TO.P,C5,1*
G04 #@! TO.N,+3V3*
X162814000Y-86741000D03*
D10*
G04 #@! TO.N,GNDREF*
G04 #@! TO.C,C5*
G36*
X163091691Y-84729553D02*
X163112926Y-84732703D01*
X163133750Y-84737919D01*
X163153962Y-84745151D01*
X163173368Y-84754330D01*
X163191781Y-84765366D01*
X163209024Y-84778154D01*
X163224930Y-84792570D01*
X163239346Y-84808476D01*
X163252134Y-84825719D01*
X163263170Y-84844132D01*
X163272349Y-84863538D01*
X163279581Y-84883750D01*
X163284797Y-84904574D01*
X163287947Y-84925809D01*
X163289000Y-84947250D01*
X163289000Y-85384750D01*
X163287947Y-85406191D01*
X163284797Y-85427426D01*
X163279581Y-85448250D01*
X163272349Y-85468462D01*
X163263170Y-85487868D01*
X163252134Y-85506281D01*
X163239346Y-85523524D01*
X163224930Y-85539430D01*
X163209024Y-85553846D01*
X163191781Y-85566634D01*
X163173368Y-85577670D01*
X163153962Y-85586849D01*
X163133750Y-85594081D01*
X163112926Y-85599297D01*
X163091691Y-85602447D01*
X163070250Y-85603500D01*
X162557750Y-85603500D01*
X162536309Y-85602447D01*
X162515074Y-85599297D01*
X162494250Y-85594081D01*
X162474038Y-85586849D01*
X162454632Y-85577670D01*
X162436219Y-85566634D01*
X162418976Y-85553846D01*
X162403070Y-85539430D01*
X162388654Y-85523524D01*
X162375866Y-85506281D01*
X162364830Y-85487868D01*
X162355651Y-85468462D01*
X162348419Y-85448250D01*
X162343203Y-85427426D01*
X162340053Y-85406191D01*
X162339000Y-85384750D01*
X162339000Y-84947250D01*
X162340053Y-84925809D01*
X162343203Y-84904574D01*
X162348419Y-84883750D01*
X162355651Y-84863538D01*
X162364830Y-84844132D01*
X162375866Y-84825719D01*
X162388654Y-84808476D01*
X162403070Y-84792570D01*
X162418976Y-84778154D01*
X162436219Y-84765366D01*
X162454632Y-84754330D01*
X162474038Y-84745151D01*
X162494250Y-84737919D01*
X162515074Y-84732703D01*
X162536309Y-84729553D01*
X162557750Y-84728500D01*
X163070250Y-84728500D01*
X163091691Y-84729553D01*
X163091691Y-84729553D01*
G37*
D11*
G04 #@! TD*
G04 #@! TO.P,C5,2*
G04 #@! TO.N,GNDREF*
X162814000Y-85166000D03*
D10*
G04 #@! TO.N,+3V3*
G04 #@! TO.C,C6*
G36*
X152995691Y-85124053D02*
X153016926Y-85127203D01*
X153037750Y-85132419D01*
X153057962Y-85139651D01*
X153077368Y-85148830D01*
X153095781Y-85159866D01*
X153113024Y-85172654D01*
X153128930Y-85187070D01*
X153143346Y-85202976D01*
X153156134Y-85220219D01*
X153167170Y-85238632D01*
X153176349Y-85258038D01*
X153183581Y-85278250D01*
X153188797Y-85299074D01*
X153191947Y-85320309D01*
X153193000Y-85341750D01*
X153193000Y-85854250D01*
X153191947Y-85875691D01*
X153188797Y-85896926D01*
X153183581Y-85917750D01*
X153176349Y-85937962D01*
X153167170Y-85957368D01*
X153156134Y-85975781D01*
X153143346Y-85993024D01*
X153128930Y-86008930D01*
X153113024Y-86023346D01*
X153095781Y-86036134D01*
X153077368Y-86047170D01*
X153057962Y-86056349D01*
X153037750Y-86063581D01*
X153016926Y-86068797D01*
X152995691Y-86071947D01*
X152974250Y-86073000D01*
X152536750Y-86073000D01*
X152515309Y-86071947D01*
X152494074Y-86068797D01*
X152473250Y-86063581D01*
X152453038Y-86056349D01*
X152433632Y-86047170D01*
X152415219Y-86036134D01*
X152397976Y-86023346D01*
X152382070Y-86008930D01*
X152367654Y-85993024D01*
X152354866Y-85975781D01*
X152343830Y-85957368D01*
X152334651Y-85937962D01*
X152327419Y-85917750D01*
X152322203Y-85896926D01*
X152319053Y-85875691D01*
X152318000Y-85854250D01*
X152318000Y-85341750D01*
X152319053Y-85320309D01*
X152322203Y-85299074D01*
X152327419Y-85278250D01*
X152334651Y-85258038D01*
X152343830Y-85238632D01*
X152354866Y-85220219D01*
X152367654Y-85202976D01*
X152382070Y-85187070D01*
X152397976Y-85172654D01*
X152415219Y-85159866D01*
X152433632Y-85148830D01*
X152453038Y-85139651D01*
X152473250Y-85132419D01*
X152494074Y-85127203D01*
X152515309Y-85124053D01*
X152536750Y-85123000D01*
X152974250Y-85123000D01*
X152995691Y-85124053D01*
X152995691Y-85124053D01*
G37*
D11*
G04 #@! TD*
G04 #@! TO.P,C6,1*
G04 #@! TO.N,+3V3*
X152755500Y-85598000D03*
D10*
G04 #@! TO.N,GNDREF*
G04 #@! TO.C,C6*
G36*
X154570691Y-85124053D02*
X154591926Y-85127203D01*
X154612750Y-85132419D01*
X154632962Y-85139651D01*
X154652368Y-85148830D01*
X154670781Y-85159866D01*
X154688024Y-85172654D01*
X154703930Y-85187070D01*
X154718346Y-85202976D01*
X154731134Y-85220219D01*
X154742170Y-85238632D01*
X154751349Y-85258038D01*
X154758581Y-85278250D01*
X154763797Y-85299074D01*
X154766947Y-85320309D01*
X154768000Y-85341750D01*
X154768000Y-85854250D01*
X154766947Y-85875691D01*
X154763797Y-85896926D01*
X154758581Y-85917750D01*
X154751349Y-85937962D01*
X154742170Y-85957368D01*
X154731134Y-85975781D01*
X154718346Y-85993024D01*
X154703930Y-86008930D01*
X154688024Y-86023346D01*
X154670781Y-86036134D01*
X154652368Y-86047170D01*
X154632962Y-86056349D01*
X154612750Y-86063581D01*
X154591926Y-86068797D01*
X154570691Y-86071947D01*
X154549250Y-86073000D01*
X154111750Y-86073000D01*
X154090309Y-86071947D01*
X154069074Y-86068797D01*
X154048250Y-86063581D01*
X154028038Y-86056349D01*
X154008632Y-86047170D01*
X153990219Y-86036134D01*
X153972976Y-86023346D01*
X153957070Y-86008930D01*
X153942654Y-85993024D01*
X153929866Y-85975781D01*
X153918830Y-85957368D01*
X153909651Y-85937962D01*
X153902419Y-85917750D01*
X153897203Y-85896926D01*
X153894053Y-85875691D01*
X153893000Y-85854250D01*
X153893000Y-85341750D01*
X153894053Y-85320309D01*
X153897203Y-85299074D01*
X153902419Y-85278250D01*
X153909651Y-85258038D01*
X153918830Y-85238632D01*
X153929866Y-85220219D01*
X153942654Y-85202976D01*
X153957070Y-85187070D01*
X153972976Y-85172654D01*
X153990219Y-85159866D01*
X154008632Y-85148830D01*
X154028038Y-85139651D01*
X154048250Y-85132419D01*
X154069074Y-85127203D01*
X154090309Y-85124053D01*
X154111750Y-85123000D01*
X154549250Y-85123000D01*
X154570691Y-85124053D01*
X154570691Y-85124053D01*
G37*
D11*
G04 #@! TD*
G04 #@! TO.P,C6,2*
G04 #@! TO.N,GNDREF*
X154330500Y-85598000D03*
D10*
G04 #@! TO.N,+3V3*
G04 #@! TO.C,C7*
G36*
X160043691Y-85187053D02*
X160064926Y-85190203D01*
X160085750Y-85195419D01*
X160105962Y-85202651D01*
X160125368Y-85211830D01*
X160143781Y-85222866D01*
X160161024Y-85235654D01*
X160176930Y-85250070D01*
X160191346Y-85265976D01*
X160204134Y-85283219D01*
X160215170Y-85301632D01*
X160224349Y-85321038D01*
X160231581Y-85341250D01*
X160236797Y-85362074D01*
X160239947Y-85383309D01*
X160241000Y-85404750D01*
X160241000Y-85842250D01*
X160239947Y-85863691D01*
X160236797Y-85884926D01*
X160231581Y-85905750D01*
X160224349Y-85925962D01*
X160215170Y-85945368D01*
X160204134Y-85963781D01*
X160191346Y-85981024D01*
X160176930Y-85996930D01*
X160161024Y-86011346D01*
X160143781Y-86024134D01*
X160125368Y-86035170D01*
X160105962Y-86044349D01*
X160085750Y-86051581D01*
X160064926Y-86056797D01*
X160043691Y-86059947D01*
X160022250Y-86061000D01*
X159509750Y-86061000D01*
X159488309Y-86059947D01*
X159467074Y-86056797D01*
X159446250Y-86051581D01*
X159426038Y-86044349D01*
X159406632Y-86035170D01*
X159388219Y-86024134D01*
X159370976Y-86011346D01*
X159355070Y-85996930D01*
X159340654Y-85981024D01*
X159327866Y-85963781D01*
X159316830Y-85945368D01*
X159307651Y-85925962D01*
X159300419Y-85905750D01*
X159295203Y-85884926D01*
X159292053Y-85863691D01*
X159291000Y-85842250D01*
X159291000Y-85404750D01*
X159292053Y-85383309D01*
X159295203Y-85362074D01*
X159300419Y-85341250D01*
X159307651Y-85321038D01*
X159316830Y-85301632D01*
X159327866Y-85283219D01*
X159340654Y-85265976D01*
X159355070Y-85250070D01*
X159370976Y-85235654D01*
X159388219Y-85222866D01*
X159406632Y-85211830D01*
X159426038Y-85202651D01*
X159446250Y-85195419D01*
X159467074Y-85190203D01*
X159488309Y-85187053D01*
X159509750Y-85186000D01*
X160022250Y-85186000D01*
X160043691Y-85187053D01*
X160043691Y-85187053D01*
G37*
D11*
G04 #@! TD*
G04 #@! TO.P,C7,1*
G04 #@! TO.N,+3V3*
X159766000Y-85623500D03*
D10*
G04 #@! TO.N,GNDREF*
G04 #@! TO.C,C7*
G36*
X160043691Y-83612053D02*
X160064926Y-83615203D01*
X160085750Y-83620419D01*
X160105962Y-83627651D01*
X160125368Y-83636830D01*
X160143781Y-83647866D01*
X160161024Y-83660654D01*
X160176930Y-83675070D01*
X160191346Y-83690976D01*
X160204134Y-83708219D01*
X160215170Y-83726632D01*
X160224349Y-83746038D01*
X160231581Y-83766250D01*
X160236797Y-83787074D01*
X160239947Y-83808309D01*
X160241000Y-83829750D01*
X160241000Y-84267250D01*
X160239947Y-84288691D01*
X160236797Y-84309926D01*
X160231581Y-84330750D01*
X160224349Y-84350962D01*
X160215170Y-84370368D01*
X160204134Y-84388781D01*
X160191346Y-84406024D01*
X160176930Y-84421930D01*
X160161024Y-84436346D01*
X160143781Y-84449134D01*
X160125368Y-84460170D01*
X160105962Y-84469349D01*
X160085750Y-84476581D01*
X160064926Y-84481797D01*
X160043691Y-84484947D01*
X160022250Y-84486000D01*
X159509750Y-84486000D01*
X159488309Y-84484947D01*
X159467074Y-84481797D01*
X159446250Y-84476581D01*
X159426038Y-84469349D01*
X159406632Y-84460170D01*
X159388219Y-84449134D01*
X159370976Y-84436346D01*
X159355070Y-84421930D01*
X159340654Y-84406024D01*
X159327866Y-84388781D01*
X159316830Y-84370368D01*
X159307651Y-84350962D01*
X159300419Y-84330750D01*
X159295203Y-84309926D01*
X159292053Y-84288691D01*
X159291000Y-84267250D01*
X159291000Y-83829750D01*
X159292053Y-83808309D01*
X159295203Y-83787074D01*
X159300419Y-83766250D01*
X159307651Y-83746038D01*
X159316830Y-83726632D01*
X159327866Y-83708219D01*
X159340654Y-83690976D01*
X159355070Y-83675070D01*
X159370976Y-83660654D01*
X159388219Y-83647866D01*
X159406632Y-83636830D01*
X159426038Y-83627651D01*
X159446250Y-83620419D01*
X159467074Y-83615203D01*
X159488309Y-83612053D01*
X159509750Y-83611000D01*
X160022250Y-83611000D01*
X160043691Y-83612053D01*
X160043691Y-83612053D01*
G37*
D11*
G04 #@! TD*
G04 #@! TO.P,C7,2*
G04 #@! TO.N,GNDREF*
X159766000Y-84048500D03*
D10*
G04 #@! TO.N,GNDREF*
G04 #@! TO.C,C8*
G36*
X161567691Y-83612053D02*
X161588926Y-83615203D01*
X161609750Y-83620419D01*
X161629962Y-83627651D01*
X161649368Y-83636830D01*
X161667781Y-83647866D01*
X161685024Y-83660654D01*
X161700930Y-83675070D01*
X161715346Y-83690976D01*
X161728134Y-83708219D01*
X161739170Y-83726632D01*
X161748349Y-83746038D01*
X161755581Y-83766250D01*
X161760797Y-83787074D01*
X161763947Y-83808309D01*
X161765000Y-83829750D01*
X161765000Y-84267250D01*
X161763947Y-84288691D01*
X161760797Y-84309926D01*
X161755581Y-84330750D01*
X161748349Y-84350962D01*
X161739170Y-84370368D01*
X161728134Y-84388781D01*
X161715346Y-84406024D01*
X161700930Y-84421930D01*
X161685024Y-84436346D01*
X161667781Y-84449134D01*
X161649368Y-84460170D01*
X161629962Y-84469349D01*
X161609750Y-84476581D01*
X161588926Y-84481797D01*
X161567691Y-84484947D01*
X161546250Y-84486000D01*
X161033750Y-84486000D01*
X161012309Y-84484947D01*
X160991074Y-84481797D01*
X160970250Y-84476581D01*
X160950038Y-84469349D01*
X160930632Y-84460170D01*
X160912219Y-84449134D01*
X160894976Y-84436346D01*
X160879070Y-84421930D01*
X160864654Y-84406024D01*
X160851866Y-84388781D01*
X160840830Y-84370368D01*
X160831651Y-84350962D01*
X160824419Y-84330750D01*
X160819203Y-84309926D01*
X160816053Y-84288691D01*
X160815000Y-84267250D01*
X160815000Y-83829750D01*
X160816053Y-83808309D01*
X160819203Y-83787074D01*
X160824419Y-83766250D01*
X160831651Y-83746038D01*
X160840830Y-83726632D01*
X160851866Y-83708219D01*
X160864654Y-83690976D01*
X160879070Y-83675070D01*
X160894976Y-83660654D01*
X160912219Y-83647866D01*
X160930632Y-83636830D01*
X160950038Y-83627651D01*
X160970250Y-83620419D01*
X160991074Y-83615203D01*
X161012309Y-83612053D01*
X161033750Y-83611000D01*
X161546250Y-83611000D01*
X161567691Y-83612053D01*
X161567691Y-83612053D01*
G37*
D11*
G04 #@! TD*
G04 #@! TO.P,C8,2*
G04 #@! TO.N,GNDREF*
X161290000Y-84048500D03*
D10*
G04 #@! TO.N,+3V3*
G04 #@! TO.C,C8*
G36*
X161567691Y-85187053D02*
X161588926Y-85190203D01*
X161609750Y-85195419D01*
X161629962Y-85202651D01*
X161649368Y-85211830D01*
X161667781Y-85222866D01*
X161685024Y-85235654D01*
X161700930Y-85250070D01*
X161715346Y-85265976D01*
X161728134Y-85283219D01*
X161739170Y-85301632D01*
X161748349Y-85321038D01*
X161755581Y-85341250D01*
X161760797Y-85362074D01*
X161763947Y-85383309D01*
X161765000Y-85404750D01*
X161765000Y-85842250D01*
X161763947Y-85863691D01*
X161760797Y-85884926D01*
X161755581Y-85905750D01*
X161748349Y-85925962D01*
X161739170Y-85945368D01*
X161728134Y-85963781D01*
X161715346Y-85981024D01*
X161700930Y-85996930D01*
X161685024Y-86011346D01*
X161667781Y-86024134D01*
X161649368Y-86035170D01*
X161629962Y-86044349D01*
X161609750Y-86051581D01*
X161588926Y-86056797D01*
X161567691Y-86059947D01*
X161546250Y-86061000D01*
X161033750Y-86061000D01*
X161012309Y-86059947D01*
X160991074Y-86056797D01*
X160970250Y-86051581D01*
X160950038Y-86044349D01*
X160930632Y-86035170D01*
X160912219Y-86024134D01*
X160894976Y-86011346D01*
X160879070Y-85996930D01*
X160864654Y-85981024D01*
X160851866Y-85963781D01*
X160840830Y-85945368D01*
X160831651Y-85925962D01*
X160824419Y-85905750D01*
X160819203Y-85884926D01*
X160816053Y-85863691D01*
X160815000Y-85842250D01*
X160815000Y-85404750D01*
X160816053Y-85383309D01*
X160819203Y-85362074D01*
X160824419Y-85341250D01*
X160831651Y-85321038D01*
X160840830Y-85301632D01*
X160851866Y-85283219D01*
X160864654Y-85265976D01*
X160879070Y-85250070D01*
X160894976Y-85235654D01*
X160912219Y-85222866D01*
X160930632Y-85211830D01*
X160950038Y-85202651D01*
X160970250Y-85195419D01*
X160991074Y-85190203D01*
X161012309Y-85187053D01*
X161033750Y-85186000D01*
X161546250Y-85186000D01*
X161567691Y-85187053D01*
X161567691Y-85187053D01*
G37*
D11*
G04 #@! TD*
G04 #@! TO.P,C8,1*
G04 #@! TO.N,+3V3*
X161290000Y-85623500D03*
D10*
G04 #@! TO.N,GNDREF*
G04 #@! TO.C,C9*
G36*
X155510191Y-86648053D02*
X155531426Y-86651203D01*
X155552250Y-86656419D01*
X155572462Y-86663651D01*
X155591868Y-86672830D01*
X155610281Y-86683866D01*
X155627524Y-86696654D01*
X155643430Y-86711070D01*
X155657846Y-86726976D01*
X155670634Y-86744219D01*
X155681670Y-86762632D01*
X155690849Y-86782038D01*
X155698081Y-86802250D01*
X155703297Y-86823074D01*
X155706447Y-86844309D01*
X155707500Y-86865750D01*
X155707500Y-87378250D01*
X155706447Y-87399691D01*
X155703297Y-87420926D01*
X155698081Y-87441750D01*
X155690849Y-87461962D01*
X155681670Y-87481368D01*
X155670634Y-87499781D01*
X155657846Y-87517024D01*
X155643430Y-87532930D01*
X155627524Y-87547346D01*
X155610281Y-87560134D01*
X155591868Y-87571170D01*
X155572462Y-87580349D01*
X155552250Y-87587581D01*
X155531426Y-87592797D01*
X155510191Y-87595947D01*
X155488750Y-87597000D01*
X155051250Y-87597000D01*
X155029809Y-87595947D01*
X155008574Y-87592797D01*
X154987750Y-87587581D01*
X154967538Y-87580349D01*
X154948132Y-87571170D01*
X154929719Y-87560134D01*
X154912476Y-87547346D01*
X154896570Y-87532930D01*
X154882154Y-87517024D01*
X154869366Y-87499781D01*
X154858330Y-87481368D01*
X154849151Y-87461962D01*
X154841919Y-87441750D01*
X154836703Y-87420926D01*
X154833553Y-87399691D01*
X154832500Y-87378250D01*
X154832500Y-86865750D01*
X154833553Y-86844309D01*
X154836703Y-86823074D01*
X154841919Y-86802250D01*
X154849151Y-86782038D01*
X154858330Y-86762632D01*
X154869366Y-86744219D01*
X154882154Y-86726976D01*
X154896570Y-86711070D01*
X154912476Y-86696654D01*
X154929719Y-86683866D01*
X154948132Y-86672830D01*
X154967538Y-86663651D01*
X154987750Y-86656419D01*
X155008574Y-86651203D01*
X155029809Y-86648053D01*
X155051250Y-86647000D01*
X155488750Y-86647000D01*
X155510191Y-86648053D01*
X155510191Y-86648053D01*
G37*
D11*
G04 #@! TD*
G04 #@! TO.P,C9,2*
G04 #@! TO.N,GNDREF*
X155270000Y-87122000D03*
D10*
G04 #@! TO.N,Net-(C12-Pad1)*
G04 #@! TO.C,C9*
G36*
X157085191Y-86648053D02*
X157106426Y-86651203D01*
X157127250Y-86656419D01*
X157147462Y-86663651D01*
X157166868Y-86672830D01*
X157185281Y-86683866D01*
X157202524Y-86696654D01*
X157218430Y-86711070D01*
X157232846Y-86726976D01*
X157245634Y-86744219D01*
X157256670Y-86762632D01*
X157265849Y-86782038D01*
X157273081Y-86802250D01*
X157278297Y-86823074D01*
X157281447Y-86844309D01*
X157282500Y-86865750D01*
X157282500Y-87378250D01*
X157281447Y-87399691D01*
X157278297Y-87420926D01*
X157273081Y-87441750D01*
X157265849Y-87461962D01*
X157256670Y-87481368D01*
X157245634Y-87499781D01*
X157232846Y-87517024D01*
X157218430Y-87532930D01*
X157202524Y-87547346D01*
X157185281Y-87560134D01*
X157166868Y-87571170D01*
X157147462Y-87580349D01*
X157127250Y-87587581D01*
X157106426Y-87592797D01*
X157085191Y-87595947D01*
X157063750Y-87597000D01*
X156626250Y-87597000D01*
X156604809Y-87595947D01*
X156583574Y-87592797D01*
X156562750Y-87587581D01*
X156542538Y-87580349D01*
X156523132Y-87571170D01*
X156504719Y-87560134D01*
X156487476Y-87547346D01*
X156471570Y-87532930D01*
X156457154Y-87517024D01*
X156444366Y-87499781D01*
X156433330Y-87481368D01*
X156424151Y-87461962D01*
X156416919Y-87441750D01*
X156411703Y-87420926D01*
X156408553Y-87399691D01*
X156407500Y-87378250D01*
X156407500Y-86865750D01*
X156408553Y-86844309D01*
X156411703Y-86823074D01*
X156416919Y-86802250D01*
X156424151Y-86782038D01*
X156433330Y-86762632D01*
X156444366Y-86744219D01*
X156457154Y-86726976D01*
X156471570Y-86711070D01*
X156487476Y-86696654D01*
X156504719Y-86683866D01*
X156523132Y-86672830D01*
X156542538Y-86663651D01*
X156562750Y-86656419D01*
X156583574Y-86651203D01*
X156604809Y-86648053D01*
X156626250Y-86647000D01*
X157063750Y-86647000D01*
X157085191Y-86648053D01*
X157085191Y-86648053D01*
G37*
D11*
G04 #@! TD*
G04 #@! TO.P,C9,1*
G04 #@! TO.N,Net-(C12-Pad1)*
X156845000Y-87122000D03*
D10*
G04 #@! TO.N,+3V3*
G04 #@! TO.C,C10*
G36*
X157999691Y-80171053D02*
X158020926Y-80174203D01*
X158041750Y-80179419D01*
X158061962Y-80186651D01*
X158081368Y-80195830D01*
X158099781Y-80206866D01*
X158117024Y-80219654D01*
X158132930Y-80234070D01*
X158147346Y-80249976D01*
X158160134Y-80267219D01*
X158171170Y-80285632D01*
X158180349Y-80305038D01*
X158187581Y-80325250D01*
X158192797Y-80346074D01*
X158195947Y-80367309D01*
X158197000Y-80388750D01*
X158197000Y-80901250D01*
X158195947Y-80922691D01*
X158192797Y-80943926D01*
X158187581Y-80964750D01*
X158180349Y-80984962D01*
X158171170Y-81004368D01*
X158160134Y-81022781D01*
X158147346Y-81040024D01*
X158132930Y-81055930D01*
X158117024Y-81070346D01*
X158099781Y-81083134D01*
X158081368Y-81094170D01*
X158061962Y-81103349D01*
X158041750Y-81110581D01*
X158020926Y-81115797D01*
X157999691Y-81118947D01*
X157978250Y-81120000D01*
X157540750Y-81120000D01*
X157519309Y-81118947D01*
X157498074Y-81115797D01*
X157477250Y-81110581D01*
X157457038Y-81103349D01*
X157437632Y-81094170D01*
X157419219Y-81083134D01*
X157401976Y-81070346D01*
X157386070Y-81055930D01*
X157371654Y-81040024D01*
X157358866Y-81022781D01*
X157347830Y-81004368D01*
X157338651Y-80984962D01*
X157331419Y-80964750D01*
X157326203Y-80943926D01*
X157323053Y-80922691D01*
X157322000Y-80901250D01*
X157322000Y-80388750D01*
X157323053Y-80367309D01*
X157326203Y-80346074D01*
X157331419Y-80325250D01*
X157338651Y-80305038D01*
X157347830Y-80285632D01*
X157358866Y-80267219D01*
X157371654Y-80249976D01*
X157386070Y-80234070D01*
X157401976Y-80219654D01*
X157419219Y-80206866D01*
X157437632Y-80195830D01*
X157457038Y-80186651D01*
X157477250Y-80179419D01*
X157498074Y-80174203D01*
X157519309Y-80171053D01*
X157540750Y-80170000D01*
X157978250Y-80170000D01*
X157999691Y-80171053D01*
X157999691Y-80171053D01*
G37*
D11*
G04 #@! TD*
G04 #@! TO.P,C10,1*
G04 #@! TO.N,+3V3*
X157759500Y-80645000D03*
D10*
G04 #@! TO.N,GNDREF*
G04 #@! TO.C,C10*
G36*
X156424691Y-80171053D02*
X156445926Y-80174203D01*
X156466750Y-80179419D01*
X156486962Y-80186651D01*
X156506368Y-80195830D01*
X156524781Y-80206866D01*
X156542024Y-80219654D01*
X156557930Y-80234070D01*
X156572346Y-80249976D01*
X156585134Y-80267219D01*
X156596170Y-80285632D01*
X156605349Y-80305038D01*
X156612581Y-80325250D01*
X156617797Y-80346074D01*
X156620947Y-80367309D01*
X156622000Y-80388750D01*
X156622000Y-80901250D01*
X156620947Y-80922691D01*
X156617797Y-80943926D01*
X156612581Y-80964750D01*
X156605349Y-80984962D01*
X156596170Y-81004368D01*
X156585134Y-81022781D01*
X156572346Y-81040024D01*
X156557930Y-81055930D01*
X156542024Y-81070346D01*
X156524781Y-81083134D01*
X156506368Y-81094170D01*
X156486962Y-81103349D01*
X156466750Y-81110581D01*
X156445926Y-81115797D01*
X156424691Y-81118947D01*
X156403250Y-81120000D01*
X155965750Y-81120000D01*
X155944309Y-81118947D01*
X155923074Y-81115797D01*
X155902250Y-81110581D01*
X155882038Y-81103349D01*
X155862632Y-81094170D01*
X155844219Y-81083134D01*
X155826976Y-81070346D01*
X155811070Y-81055930D01*
X155796654Y-81040024D01*
X155783866Y-81022781D01*
X155772830Y-81004368D01*
X155763651Y-80984962D01*
X155756419Y-80964750D01*
X155751203Y-80943926D01*
X155748053Y-80922691D01*
X155747000Y-80901250D01*
X155747000Y-80388750D01*
X155748053Y-80367309D01*
X155751203Y-80346074D01*
X155756419Y-80325250D01*
X155763651Y-80305038D01*
X155772830Y-80285632D01*
X155783866Y-80267219D01*
X155796654Y-80249976D01*
X155811070Y-80234070D01*
X155826976Y-80219654D01*
X155844219Y-80206866D01*
X155862632Y-80195830D01*
X155882038Y-80186651D01*
X155902250Y-80179419D01*
X155923074Y-80174203D01*
X155944309Y-80171053D01*
X155965750Y-80170000D01*
X156403250Y-80170000D01*
X156424691Y-80171053D01*
X156424691Y-80171053D01*
G37*
D11*
G04 #@! TD*
G04 #@! TO.P,C10,2*
G04 #@! TO.N,GNDREF*
X156184500Y-80645000D03*
D10*
G04 #@! TO.N,GNDREF*
G04 #@! TO.C,C11*
G36*
X166381691Y-81695053D02*
X166402926Y-81698203D01*
X166423750Y-81703419D01*
X166443962Y-81710651D01*
X166463368Y-81719830D01*
X166481781Y-81730866D01*
X166499024Y-81743654D01*
X166514930Y-81758070D01*
X166529346Y-81773976D01*
X166542134Y-81791219D01*
X166553170Y-81809632D01*
X166562349Y-81829038D01*
X166569581Y-81849250D01*
X166574797Y-81870074D01*
X166577947Y-81891309D01*
X166579000Y-81912750D01*
X166579000Y-82425250D01*
X166577947Y-82446691D01*
X166574797Y-82467926D01*
X166569581Y-82488750D01*
X166562349Y-82508962D01*
X166553170Y-82528368D01*
X166542134Y-82546781D01*
X166529346Y-82564024D01*
X166514930Y-82579930D01*
X166499024Y-82594346D01*
X166481781Y-82607134D01*
X166463368Y-82618170D01*
X166443962Y-82627349D01*
X166423750Y-82634581D01*
X166402926Y-82639797D01*
X166381691Y-82642947D01*
X166360250Y-82644000D01*
X165922750Y-82644000D01*
X165901309Y-82642947D01*
X165880074Y-82639797D01*
X165859250Y-82634581D01*
X165839038Y-82627349D01*
X165819632Y-82618170D01*
X165801219Y-82607134D01*
X165783976Y-82594346D01*
X165768070Y-82579930D01*
X165753654Y-82564024D01*
X165740866Y-82546781D01*
X165729830Y-82528368D01*
X165720651Y-82508962D01*
X165713419Y-82488750D01*
X165708203Y-82467926D01*
X165705053Y-82446691D01*
X165704000Y-82425250D01*
X165704000Y-81912750D01*
X165705053Y-81891309D01*
X165708203Y-81870074D01*
X165713419Y-81849250D01*
X165720651Y-81829038D01*
X165729830Y-81809632D01*
X165740866Y-81791219D01*
X165753654Y-81773976D01*
X165768070Y-81758070D01*
X165783976Y-81743654D01*
X165801219Y-81730866D01*
X165819632Y-81719830D01*
X165839038Y-81710651D01*
X165859250Y-81703419D01*
X165880074Y-81698203D01*
X165901309Y-81695053D01*
X165922750Y-81694000D01*
X166360250Y-81694000D01*
X166381691Y-81695053D01*
X166381691Y-81695053D01*
G37*
D11*
G04 #@! TD*
G04 #@! TO.P,C11,2*
G04 #@! TO.N,GNDREF*
X166141500Y-82169000D03*
D10*
G04 #@! TO.N,Net-(C11-Pad1)*
G04 #@! TO.C,C11*
G36*
X164806691Y-81695053D02*
X164827926Y-81698203D01*
X164848750Y-81703419D01*
X164868962Y-81710651D01*
X164888368Y-81719830D01*
X164906781Y-81730866D01*
X164924024Y-81743654D01*
X164939930Y-81758070D01*
X164954346Y-81773976D01*
X164967134Y-81791219D01*
X164978170Y-81809632D01*
X164987349Y-81829038D01*
X164994581Y-81849250D01*
X164999797Y-81870074D01*
X165002947Y-81891309D01*
X165004000Y-81912750D01*
X165004000Y-82425250D01*
X165002947Y-82446691D01*
X164999797Y-82467926D01*
X164994581Y-82488750D01*
X164987349Y-82508962D01*
X164978170Y-82528368D01*
X164967134Y-82546781D01*
X164954346Y-82564024D01*
X164939930Y-82579930D01*
X164924024Y-82594346D01*
X164906781Y-82607134D01*
X164888368Y-82618170D01*
X164868962Y-82627349D01*
X164848750Y-82634581D01*
X164827926Y-82639797D01*
X164806691Y-82642947D01*
X164785250Y-82644000D01*
X164347750Y-82644000D01*
X164326309Y-82642947D01*
X164305074Y-82639797D01*
X164284250Y-82634581D01*
X164264038Y-82627349D01*
X164244632Y-82618170D01*
X164226219Y-82607134D01*
X164208976Y-82594346D01*
X164193070Y-82579930D01*
X164178654Y-82564024D01*
X164165866Y-82546781D01*
X164154830Y-82528368D01*
X164145651Y-82508962D01*
X164138419Y-82488750D01*
X164133203Y-82467926D01*
X164130053Y-82446691D01*
X164129000Y-82425250D01*
X164129000Y-81912750D01*
X164130053Y-81891309D01*
X164133203Y-81870074D01*
X164138419Y-81849250D01*
X164145651Y-81829038D01*
X164154830Y-81809632D01*
X164165866Y-81791219D01*
X164178654Y-81773976D01*
X164193070Y-81758070D01*
X164208976Y-81743654D01*
X164226219Y-81730866D01*
X164244632Y-81719830D01*
X164264038Y-81710651D01*
X164284250Y-81703419D01*
X164305074Y-81698203D01*
X164326309Y-81695053D01*
X164347750Y-81694000D01*
X164785250Y-81694000D01*
X164806691Y-81695053D01*
X164806691Y-81695053D01*
G37*
D11*
G04 #@! TD*
G04 #@! TO.P,C11,1*
G04 #@! TO.N,Net-(C11-Pad1)*
X164566500Y-82169000D03*
D10*
G04 #@! TO.N,Net-(C12-Pad1)*
G04 #@! TO.C,C12*
G36*
X157618691Y-85124053D02*
X157639926Y-85127203D01*
X157660750Y-85132419D01*
X157680962Y-85139651D01*
X157700368Y-85148830D01*
X157718781Y-85159866D01*
X157736024Y-85172654D01*
X157751930Y-85187070D01*
X157766346Y-85202976D01*
X157779134Y-85220219D01*
X157790170Y-85238632D01*
X157799349Y-85258038D01*
X157806581Y-85278250D01*
X157811797Y-85299074D01*
X157814947Y-85320309D01*
X157816000Y-85341750D01*
X157816000Y-85854250D01*
X157814947Y-85875691D01*
X157811797Y-85896926D01*
X157806581Y-85917750D01*
X157799349Y-85937962D01*
X157790170Y-85957368D01*
X157779134Y-85975781D01*
X157766346Y-85993024D01*
X157751930Y-86008930D01*
X157736024Y-86023346D01*
X157718781Y-86036134D01*
X157700368Y-86047170D01*
X157680962Y-86056349D01*
X157660750Y-86063581D01*
X157639926Y-86068797D01*
X157618691Y-86071947D01*
X157597250Y-86073000D01*
X157159750Y-86073000D01*
X157138309Y-86071947D01*
X157117074Y-86068797D01*
X157096250Y-86063581D01*
X157076038Y-86056349D01*
X157056632Y-86047170D01*
X157038219Y-86036134D01*
X157020976Y-86023346D01*
X157005070Y-86008930D01*
X156990654Y-85993024D01*
X156977866Y-85975781D01*
X156966830Y-85957368D01*
X156957651Y-85937962D01*
X156950419Y-85917750D01*
X156945203Y-85896926D01*
X156942053Y-85875691D01*
X156941000Y-85854250D01*
X156941000Y-85341750D01*
X156942053Y-85320309D01*
X156945203Y-85299074D01*
X156950419Y-85278250D01*
X156957651Y-85258038D01*
X156966830Y-85238632D01*
X156977866Y-85220219D01*
X156990654Y-85202976D01*
X157005070Y-85187070D01*
X157020976Y-85172654D01*
X157038219Y-85159866D01*
X157056632Y-85148830D01*
X157076038Y-85139651D01*
X157096250Y-85132419D01*
X157117074Y-85127203D01*
X157138309Y-85124053D01*
X157159750Y-85123000D01*
X157597250Y-85123000D01*
X157618691Y-85124053D01*
X157618691Y-85124053D01*
G37*
D11*
G04 #@! TD*
G04 #@! TO.P,C12,1*
G04 #@! TO.N,Net-(C12-Pad1)*
X157378500Y-85598000D03*
D10*
G04 #@! TO.N,GNDREF*
G04 #@! TO.C,C12*
G36*
X156043691Y-85124053D02*
X156064926Y-85127203D01*
X156085750Y-85132419D01*
X156105962Y-85139651D01*
X156125368Y-85148830D01*
X156143781Y-85159866D01*
X156161024Y-85172654D01*
X156176930Y-85187070D01*
X156191346Y-85202976D01*
X156204134Y-85220219D01*
X156215170Y-85238632D01*
X156224349Y-85258038D01*
X156231581Y-85278250D01*
X156236797Y-85299074D01*
X156239947Y-85320309D01*
X156241000Y-85341750D01*
X156241000Y-85854250D01*
X156239947Y-85875691D01*
X156236797Y-85896926D01*
X156231581Y-85917750D01*
X156224349Y-85937962D01*
X156215170Y-85957368D01*
X156204134Y-85975781D01*
X156191346Y-85993024D01*
X156176930Y-86008930D01*
X156161024Y-86023346D01*
X156143781Y-86036134D01*
X156125368Y-86047170D01*
X156105962Y-86056349D01*
X156085750Y-86063581D01*
X156064926Y-86068797D01*
X156043691Y-86071947D01*
X156022250Y-86073000D01*
X155584750Y-86073000D01*
X155563309Y-86071947D01*
X155542074Y-86068797D01*
X155521250Y-86063581D01*
X155501038Y-86056349D01*
X155481632Y-86047170D01*
X155463219Y-86036134D01*
X155445976Y-86023346D01*
X155430070Y-86008930D01*
X155415654Y-85993024D01*
X155402866Y-85975781D01*
X155391830Y-85957368D01*
X155382651Y-85937962D01*
X155375419Y-85917750D01*
X155370203Y-85896926D01*
X155367053Y-85875691D01*
X155366000Y-85854250D01*
X155366000Y-85341750D01*
X155367053Y-85320309D01*
X155370203Y-85299074D01*
X155375419Y-85278250D01*
X155382651Y-85258038D01*
X155391830Y-85238632D01*
X155402866Y-85220219D01*
X155415654Y-85202976D01*
X155430070Y-85187070D01*
X155445976Y-85172654D01*
X155463219Y-85159866D01*
X155481632Y-85148830D01*
X155501038Y-85139651D01*
X155521250Y-85132419D01*
X155542074Y-85127203D01*
X155563309Y-85124053D01*
X155584750Y-85123000D01*
X156022250Y-85123000D01*
X156043691Y-85124053D01*
X156043691Y-85124053D01*
G37*
D11*
G04 #@! TD*
G04 #@! TO.P,C12,2*
G04 #@! TO.N,GNDREF*
X155803500Y-85598000D03*
D10*
G04 #@! TO.N,GNDREF*
G04 #@! TO.C,C13*
G36*
X155891191Y-83600053D02*
X155912426Y-83603203D01*
X155933250Y-83608419D01*
X155953462Y-83615651D01*
X155972868Y-83624830D01*
X155991281Y-83635866D01*
X156008524Y-83648654D01*
X156024430Y-83663070D01*
X156038846Y-83678976D01*
X156051634Y-83696219D01*
X156062670Y-83714632D01*
X156071849Y-83734038D01*
X156079081Y-83754250D01*
X156084297Y-83775074D01*
X156087447Y-83796309D01*
X156088500Y-83817750D01*
X156088500Y-84330250D01*
X156087447Y-84351691D01*
X156084297Y-84372926D01*
X156079081Y-84393750D01*
X156071849Y-84413962D01*
X156062670Y-84433368D01*
X156051634Y-84451781D01*
X156038846Y-84469024D01*
X156024430Y-84484930D01*
X156008524Y-84499346D01*
X155991281Y-84512134D01*
X155972868Y-84523170D01*
X155953462Y-84532349D01*
X155933250Y-84539581D01*
X155912426Y-84544797D01*
X155891191Y-84547947D01*
X155869750Y-84549000D01*
X155432250Y-84549000D01*
X155410809Y-84547947D01*
X155389574Y-84544797D01*
X155368750Y-84539581D01*
X155348538Y-84532349D01*
X155329132Y-84523170D01*
X155310719Y-84512134D01*
X155293476Y-84499346D01*
X155277570Y-84484930D01*
X155263154Y-84469024D01*
X155250366Y-84451781D01*
X155239330Y-84433368D01*
X155230151Y-84413962D01*
X155222919Y-84393750D01*
X155217703Y-84372926D01*
X155214553Y-84351691D01*
X155213500Y-84330250D01*
X155213500Y-83817750D01*
X155214553Y-83796309D01*
X155217703Y-83775074D01*
X155222919Y-83754250D01*
X155230151Y-83734038D01*
X155239330Y-83714632D01*
X155250366Y-83696219D01*
X155263154Y-83678976D01*
X155277570Y-83663070D01*
X155293476Y-83648654D01*
X155310719Y-83635866D01*
X155329132Y-83624830D01*
X155348538Y-83615651D01*
X155368750Y-83608419D01*
X155389574Y-83603203D01*
X155410809Y-83600053D01*
X155432250Y-83599000D01*
X155869750Y-83599000D01*
X155891191Y-83600053D01*
X155891191Y-83600053D01*
G37*
D11*
G04 #@! TD*
G04 #@! TO.P,C13,2*
G04 #@! TO.N,GNDREF*
X155651000Y-84074000D03*
D10*
G04 #@! TO.N,Net-(C12-Pad1)*
G04 #@! TO.C,C13*
G36*
X157466191Y-83600053D02*
X157487426Y-83603203D01*
X157508250Y-83608419D01*
X157528462Y-83615651D01*
X157547868Y-83624830D01*
X157566281Y-83635866D01*
X157583524Y-83648654D01*
X157599430Y-83663070D01*
X157613846Y-83678976D01*
X157626634Y-83696219D01*
X157637670Y-83714632D01*
X157646849Y-83734038D01*
X157654081Y-83754250D01*
X157659297Y-83775074D01*
X157662447Y-83796309D01*
X157663500Y-83817750D01*
X157663500Y-84330250D01*
X157662447Y-84351691D01*
X157659297Y-84372926D01*
X157654081Y-84393750D01*
X157646849Y-84413962D01*
X157637670Y-84433368D01*
X157626634Y-84451781D01*
X157613846Y-84469024D01*
X157599430Y-84484930D01*
X157583524Y-84499346D01*
X157566281Y-84512134D01*
X157547868Y-84523170D01*
X157528462Y-84532349D01*
X157508250Y-84539581D01*
X157487426Y-84544797D01*
X157466191Y-84547947D01*
X157444750Y-84549000D01*
X157007250Y-84549000D01*
X156985809Y-84547947D01*
X156964574Y-84544797D01*
X156943750Y-84539581D01*
X156923538Y-84532349D01*
X156904132Y-84523170D01*
X156885719Y-84512134D01*
X156868476Y-84499346D01*
X156852570Y-84484930D01*
X156838154Y-84469024D01*
X156825366Y-84451781D01*
X156814330Y-84433368D01*
X156805151Y-84413962D01*
X156797919Y-84393750D01*
X156792703Y-84372926D01*
X156789553Y-84351691D01*
X156788500Y-84330250D01*
X156788500Y-83817750D01*
X156789553Y-83796309D01*
X156792703Y-83775074D01*
X156797919Y-83754250D01*
X156805151Y-83734038D01*
X156814330Y-83714632D01*
X156825366Y-83696219D01*
X156838154Y-83678976D01*
X156852570Y-83663070D01*
X156868476Y-83648654D01*
X156885719Y-83635866D01*
X156904132Y-83624830D01*
X156923538Y-83615651D01*
X156943750Y-83608419D01*
X156964574Y-83603203D01*
X156985809Y-83600053D01*
X157007250Y-83599000D01*
X157444750Y-83599000D01*
X157466191Y-83600053D01*
X157466191Y-83600053D01*
G37*
D11*
G04 #@! TD*
G04 #@! TO.P,C13,1*
G04 #@! TO.N,Net-(C12-Pad1)*
X157226000Y-84074000D03*
D10*
G04 #@! TO.N,GNDREF*
G04 #@! TO.C,C14*
G36*
X164615691Y-84729553D02*
X164636926Y-84732703D01*
X164657750Y-84737919D01*
X164677962Y-84745151D01*
X164697368Y-84754330D01*
X164715781Y-84765366D01*
X164733024Y-84778154D01*
X164748930Y-84792570D01*
X164763346Y-84808476D01*
X164776134Y-84825719D01*
X164787170Y-84844132D01*
X164796349Y-84863538D01*
X164803581Y-84883750D01*
X164808797Y-84904574D01*
X164811947Y-84925809D01*
X164813000Y-84947250D01*
X164813000Y-85384750D01*
X164811947Y-85406191D01*
X164808797Y-85427426D01*
X164803581Y-85448250D01*
X164796349Y-85468462D01*
X164787170Y-85487868D01*
X164776134Y-85506281D01*
X164763346Y-85523524D01*
X164748930Y-85539430D01*
X164733024Y-85553846D01*
X164715781Y-85566634D01*
X164697368Y-85577670D01*
X164677962Y-85586849D01*
X164657750Y-85594081D01*
X164636926Y-85599297D01*
X164615691Y-85602447D01*
X164594250Y-85603500D01*
X164081750Y-85603500D01*
X164060309Y-85602447D01*
X164039074Y-85599297D01*
X164018250Y-85594081D01*
X163998038Y-85586849D01*
X163978632Y-85577670D01*
X163960219Y-85566634D01*
X163942976Y-85553846D01*
X163927070Y-85539430D01*
X163912654Y-85523524D01*
X163899866Y-85506281D01*
X163888830Y-85487868D01*
X163879651Y-85468462D01*
X163872419Y-85448250D01*
X163867203Y-85427426D01*
X163864053Y-85406191D01*
X163863000Y-85384750D01*
X163863000Y-84947250D01*
X163864053Y-84925809D01*
X163867203Y-84904574D01*
X163872419Y-84883750D01*
X163879651Y-84863538D01*
X163888830Y-84844132D01*
X163899866Y-84825719D01*
X163912654Y-84808476D01*
X163927070Y-84792570D01*
X163942976Y-84778154D01*
X163960219Y-84765366D01*
X163978632Y-84754330D01*
X163998038Y-84745151D01*
X164018250Y-84737919D01*
X164039074Y-84732703D01*
X164060309Y-84729553D01*
X164081750Y-84728500D01*
X164594250Y-84728500D01*
X164615691Y-84729553D01*
X164615691Y-84729553D01*
G37*
D11*
G04 #@! TD*
G04 #@! TO.P,C14,2*
G04 #@! TO.N,GNDREF*
X164338000Y-85166000D03*
D10*
G04 #@! TO.N,Net-(C14-Pad1)*
G04 #@! TO.C,C14*
G36*
X164615691Y-86304553D02*
X164636926Y-86307703D01*
X164657750Y-86312919D01*
X164677962Y-86320151D01*
X164697368Y-86329330D01*
X164715781Y-86340366D01*
X164733024Y-86353154D01*
X164748930Y-86367570D01*
X164763346Y-86383476D01*
X164776134Y-86400719D01*
X164787170Y-86419132D01*
X164796349Y-86438538D01*
X164803581Y-86458750D01*
X164808797Y-86479574D01*
X164811947Y-86500809D01*
X164813000Y-86522250D01*
X164813000Y-86959750D01*
X164811947Y-86981191D01*
X164808797Y-87002426D01*
X164803581Y-87023250D01*
X164796349Y-87043462D01*
X164787170Y-87062868D01*
X164776134Y-87081281D01*
X164763346Y-87098524D01*
X164748930Y-87114430D01*
X164733024Y-87128846D01*
X164715781Y-87141634D01*
X164697368Y-87152670D01*
X164677962Y-87161849D01*
X164657750Y-87169081D01*
X164636926Y-87174297D01*
X164615691Y-87177447D01*
X164594250Y-87178500D01*
X164081750Y-87178500D01*
X164060309Y-87177447D01*
X164039074Y-87174297D01*
X164018250Y-87169081D01*
X163998038Y-87161849D01*
X163978632Y-87152670D01*
X163960219Y-87141634D01*
X163942976Y-87128846D01*
X163927070Y-87114430D01*
X163912654Y-87098524D01*
X163899866Y-87081281D01*
X163888830Y-87062868D01*
X163879651Y-87043462D01*
X163872419Y-87023250D01*
X163867203Y-87002426D01*
X163864053Y-86981191D01*
X163863000Y-86959750D01*
X163863000Y-86522250D01*
X163864053Y-86500809D01*
X163867203Y-86479574D01*
X163872419Y-86458750D01*
X163879651Y-86438538D01*
X163888830Y-86419132D01*
X163899866Y-86400719D01*
X163912654Y-86383476D01*
X163927070Y-86367570D01*
X163942976Y-86353154D01*
X163960219Y-86340366D01*
X163978632Y-86329330D01*
X163998038Y-86320151D01*
X164018250Y-86312919D01*
X164039074Y-86307703D01*
X164060309Y-86304553D01*
X164081750Y-86303500D01*
X164594250Y-86303500D01*
X164615691Y-86304553D01*
X164615691Y-86304553D01*
G37*
D11*
G04 #@! TD*
G04 #@! TO.P,C14,1*
G04 #@! TO.N,Net-(C14-Pad1)*
X164338000Y-86741000D03*
D10*
G04 #@! TO.N,GNDREF*
G04 #@! TO.C,C17*
G36*
X143851691Y-91474053D02*
X143872926Y-91477203D01*
X143893750Y-91482419D01*
X143913962Y-91489651D01*
X143933368Y-91498830D01*
X143951781Y-91509866D01*
X143969024Y-91522654D01*
X143984930Y-91537070D01*
X143999346Y-91552976D01*
X144012134Y-91570219D01*
X144023170Y-91588632D01*
X144032349Y-91608038D01*
X144039581Y-91628250D01*
X144044797Y-91649074D01*
X144047947Y-91670309D01*
X144049000Y-91691750D01*
X144049000Y-92204250D01*
X144047947Y-92225691D01*
X144044797Y-92246926D01*
X144039581Y-92267750D01*
X144032349Y-92287962D01*
X144023170Y-92307368D01*
X144012134Y-92325781D01*
X143999346Y-92343024D01*
X143984930Y-92358930D01*
X143969024Y-92373346D01*
X143951781Y-92386134D01*
X143933368Y-92397170D01*
X143913962Y-92406349D01*
X143893750Y-92413581D01*
X143872926Y-92418797D01*
X143851691Y-92421947D01*
X143830250Y-92423000D01*
X143392750Y-92423000D01*
X143371309Y-92421947D01*
X143350074Y-92418797D01*
X143329250Y-92413581D01*
X143309038Y-92406349D01*
X143289632Y-92397170D01*
X143271219Y-92386134D01*
X143253976Y-92373346D01*
X143238070Y-92358930D01*
X143223654Y-92343024D01*
X143210866Y-92325781D01*
X143199830Y-92307368D01*
X143190651Y-92287962D01*
X143183419Y-92267750D01*
X143178203Y-92246926D01*
X143175053Y-92225691D01*
X143174000Y-92204250D01*
X143174000Y-91691750D01*
X143175053Y-91670309D01*
X143178203Y-91649074D01*
X143183419Y-91628250D01*
X143190651Y-91608038D01*
X143199830Y-91588632D01*
X143210866Y-91570219D01*
X143223654Y-91552976D01*
X143238070Y-91537070D01*
X143253976Y-91522654D01*
X143271219Y-91509866D01*
X143289632Y-91498830D01*
X143309038Y-91489651D01*
X143329250Y-91482419D01*
X143350074Y-91477203D01*
X143371309Y-91474053D01*
X143392750Y-91473000D01*
X143830250Y-91473000D01*
X143851691Y-91474053D01*
X143851691Y-91474053D01*
G37*
D11*
G04 #@! TD*
G04 #@! TO.P,C17,2*
G04 #@! TO.N,GNDREF*
X143611500Y-91948000D03*
D10*
G04 #@! TO.N,/RTCM*
G04 #@! TO.C,C17*
G36*
X145426691Y-91474053D02*
X145447926Y-91477203D01*
X145468750Y-91482419D01*
X145488962Y-91489651D01*
X145508368Y-91498830D01*
X145526781Y-91509866D01*
X145544024Y-91522654D01*
X145559930Y-91537070D01*
X145574346Y-91552976D01*
X145587134Y-91570219D01*
X145598170Y-91588632D01*
X145607349Y-91608038D01*
X145614581Y-91628250D01*
X145619797Y-91649074D01*
X145622947Y-91670309D01*
X145624000Y-91691750D01*
X145624000Y-92204250D01*
X145622947Y-92225691D01*
X145619797Y-92246926D01*
X145614581Y-92267750D01*
X145607349Y-92287962D01*
X145598170Y-92307368D01*
X145587134Y-92325781D01*
X145574346Y-92343024D01*
X145559930Y-92358930D01*
X145544024Y-92373346D01*
X145526781Y-92386134D01*
X145508368Y-92397170D01*
X145488962Y-92406349D01*
X145468750Y-92413581D01*
X145447926Y-92418797D01*
X145426691Y-92421947D01*
X145405250Y-92423000D01*
X144967750Y-92423000D01*
X144946309Y-92421947D01*
X144925074Y-92418797D01*
X144904250Y-92413581D01*
X144884038Y-92406349D01*
X144864632Y-92397170D01*
X144846219Y-92386134D01*
X144828976Y-92373346D01*
X144813070Y-92358930D01*
X144798654Y-92343024D01*
X144785866Y-92325781D01*
X144774830Y-92307368D01*
X144765651Y-92287962D01*
X144758419Y-92267750D01*
X144753203Y-92246926D01*
X144750053Y-92225691D01*
X144749000Y-92204250D01*
X144749000Y-91691750D01*
X144750053Y-91670309D01*
X144753203Y-91649074D01*
X144758419Y-91628250D01*
X144765651Y-91608038D01*
X144774830Y-91588632D01*
X144785866Y-91570219D01*
X144798654Y-91552976D01*
X144813070Y-91537070D01*
X144828976Y-91522654D01*
X144846219Y-91509866D01*
X144864632Y-91498830D01*
X144884038Y-91489651D01*
X144904250Y-91482419D01*
X144925074Y-91477203D01*
X144946309Y-91474053D01*
X144967750Y-91473000D01*
X145405250Y-91473000D01*
X145426691Y-91474053D01*
X145426691Y-91474053D01*
G37*
D11*
G04 #@! TD*
G04 #@! TO.P,C17,1*
G04 #@! TO.N,/RTCM*
X145186500Y-91948000D03*
D10*
G04 #@! TO.N,/RTCP*
G04 #@! TO.C,C19*
G36*
X145680691Y-85251053D02*
X145701926Y-85254203D01*
X145722750Y-85259419D01*
X145742962Y-85266651D01*
X145762368Y-85275830D01*
X145780781Y-85286866D01*
X145798024Y-85299654D01*
X145813930Y-85314070D01*
X145828346Y-85329976D01*
X145841134Y-85347219D01*
X145852170Y-85365632D01*
X145861349Y-85385038D01*
X145868581Y-85405250D01*
X145873797Y-85426074D01*
X145876947Y-85447309D01*
X145878000Y-85468750D01*
X145878000Y-85981250D01*
X145876947Y-86002691D01*
X145873797Y-86023926D01*
X145868581Y-86044750D01*
X145861349Y-86064962D01*
X145852170Y-86084368D01*
X145841134Y-86102781D01*
X145828346Y-86120024D01*
X145813930Y-86135930D01*
X145798024Y-86150346D01*
X145780781Y-86163134D01*
X145762368Y-86174170D01*
X145742962Y-86183349D01*
X145722750Y-86190581D01*
X145701926Y-86195797D01*
X145680691Y-86198947D01*
X145659250Y-86200000D01*
X145221750Y-86200000D01*
X145200309Y-86198947D01*
X145179074Y-86195797D01*
X145158250Y-86190581D01*
X145138038Y-86183349D01*
X145118632Y-86174170D01*
X145100219Y-86163134D01*
X145082976Y-86150346D01*
X145067070Y-86135930D01*
X145052654Y-86120024D01*
X145039866Y-86102781D01*
X145028830Y-86084368D01*
X145019651Y-86064962D01*
X145012419Y-86044750D01*
X145007203Y-86023926D01*
X145004053Y-86002691D01*
X145003000Y-85981250D01*
X145003000Y-85468750D01*
X145004053Y-85447309D01*
X145007203Y-85426074D01*
X145012419Y-85405250D01*
X145019651Y-85385038D01*
X145028830Y-85365632D01*
X145039866Y-85347219D01*
X145052654Y-85329976D01*
X145067070Y-85314070D01*
X145082976Y-85299654D01*
X145100219Y-85286866D01*
X145118632Y-85275830D01*
X145138038Y-85266651D01*
X145158250Y-85259419D01*
X145179074Y-85254203D01*
X145200309Y-85251053D01*
X145221750Y-85250000D01*
X145659250Y-85250000D01*
X145680691Y-85251053D01*
X145680691Y-85251053D01*
G37*
D11*
G04 #@! TD*
G04 #@! TO.P,C19,1*
G04 #@! TO.N,/RTCP*
X145440500Y-85725000D03*
D10*
G04 #@! TO.N,GNDREF*
G04 #@! TO.C,C19*
G36*
X144105691Y-85251053D02*
X144126926Y-85254203D01*
X144147750Y-85259419D01*
X144167962Y-85266651D01*
X144187368Y-85275830D01*
X144205781Y-85286866D01*
X144223024Y-85299654D01*
X144238930Y-85314070D01*
X144253346Y-85329976D01*
X144266134Y-85347219D01*
X144277170Y-85365632D01*
X144286349Y-85385038D01*
X144293581Y-85405250D01*
X144298797Y-85426074D01*
X144301947Y-85447309D01*
X144303000Y-85468750D01*
X144303000Y-85981250D01*
X144301947Y-86002691D01*
X144298797Y-86023926D01*
X144293581Y-86044750D01*
X144286349Y-86064962D01*
X144277170Y-86084368D01*
X144266134Y-86102781D01*
X144253346Y-86120024D01*
X144238930Y-86135930D01*
X144223024Y-86150346D01*
X144205781Y-86163134D01*
X144187368Y-86174170D01*
X144167962Y-86183349D01*
X144147750Y-86190581D01*
X144126926Y-86195797D01*
X144105691Y-86198947D01*
X144084250Y-86200000D01*
X143646750Y-86200000D01*
X143625309Y-86198947D01*
X143604074Y-86195797D01*
X143583250Y-86190581D01*
X143563038Y-86183349D01*
X143543632Y-86174170D01*
X143525219Y-86163134D01*
X143507976Y-86150346D01*
X143492070Y-86135930D01*
X143477654Y-86120024D01*
X143464866Y-86102781D01*
X143453830Y-86084368D01*
X143444651Y-86064962D01*
X143437419Y-86044750D01*
X143432203Y-86023926D01*
X143429053Y-86002691D01*
X143428000Y-85981250D01*
X143428000Y-85468750D01*
X143429053Y-85447309D01*
X143432203Y-85426074D01*
X143437419Y-85405250D01*
X143444651Y-85385038D01*
X143453830Y-85365632D01*
X143464866Y-85347219D01*
X143477654Y-85329976D01*
X143492070Y-85314070D01*
X143507976Y-85299654D01*
X143525219Y-85286866D01*
X143543632Y-85275830D01*
X143563038Y-85266651D01*
X143583250Y-85259419D01*
X143604074Y-85254203D01*
X143625309Y-85251053D01*
X143646750Y-85250000D01*
X144084250Y-85250000D01*
X144105691Y-85251053D01*
X144105691Y-85251053D01*
G37*
D11*
G04 #@! TD*
G04 #@! TO.P,C19,2*
G04 #@! TO.N,GNDREF*
X143865500Y-85725000D03*
D12*
G04 #@! TO.P,J3,1*
G04 #@! TO.N,VBUS*
X134366000Y-97790000D03*
D13*
G04 #@! TO.P,J3,2*
G04 #@! TO.N,+3V3*
X134366000Y-100330000D03*
G04 #@! TO.P,J3,3*
G04 #@! TO.N,/PA0*
X136906000Y-97790000D03*
G04 #@! TO.P,J3,4*
G04 #@! TO.N,/PC0*
X136906000Y-100330000D03*
G04 #@! TO.P,J3,5*
G04 #@! TO.N,/PA1*
X139446000Y-97790000D03*
G04 #@! TO.P,J3,6*
G04 #@! TO.N,/PC1*
X139446000Y-100330000D03*
G04 #@! TO.P,J3,7*
G04 #@! TO.N,/PA2*
X141986000Y-97790000D03*
G04 #@! TO.P,J3,8*
G04 #@! TO.N,/PC2*
X141986000Y-100330000D03*
G04 #@! TO.P,J3,9*
G04 #@! TO.N,/PA8*
X144526000Y-97790000D03*
G04 #@! TO.P,J3,10*
G04 #@! TO.N,/PC3*
X144526000Y-100330000D03*
G04 #@! TO.P,J3,11*
G04 #@! TO.N,/PA9*
X147066000Y-97790000D03*
G04 #@! TO.P,J3,12*
G04 #@! TO.N,/PC4*
X147066000Y-100330000D03*
G04 #@! TO.P,J3,13*
G04 #@! TO.N,/PA10*
X149606000Y-97790000D03*
G04 #@! TO.P,J3,14*
G04 #@! TO.N,/PC8*
X149606000Y-100330000D03*
G04 #@! TO.P,J3,15*
G04 #@! TO.N,/PB7*
X152146000Y-97790000D03*
G04 #@! TO.P,J3,16*
G04 #@! TO.N,/PC9*
X152146000Y-100330000D03*
G04 #@! TO.P,J3,17*
G04 #@! TO.N,/PB8*
X154686000Y-97790000D03*
G04 #@! TO.P,J3,18*
G04 #@! TO.N,/PC10*
X154686000Y-100330000D03*
G04 #@! TO.P,J3,19*
G04 #@! TO.N,/PB11*
X157226000Y-97790000D03*
G04 #@! TO.P,J3,20*
G04 #@! TO.N,/PC14*
X157226000Y-100330000D03*
G04 #@! TO.P,J3,21*
G04 #@! TO.N,/PB13*
X159766000Y-97790000D03*
G04 #@! TO.P,J3,22*
G04 #@! TO.N,/PC15*
X159766000Y-100330000D03*
G04 #@! TO.P,J3,23*
G04 #@! TO.N,/PB14*
X162306000Y-97790000D03*
G04 #@! TO.P,J3,24*
G04 #@! TO.N,/PD4*
X162306000Y-100330000D03*
G04 #@! TO.P,J3,25*
G04 #@! TO.N,/PE10*
X164846000Y-97790000D03*
G04 #@! TO.P,J3,26*
G04 #@! TO.N,/PD5*
X164846000Y-100330000D03*
G04 #@! TO.P,J3,27*
G04 #@! TO.N,/PE11*
X167386000Y-97790000D03*
G04 #@! TO.P,J3,28*
G04 #@! TO.N,/PD6*
X167386000Y-100330000D03*
G04 #@! TO.P,J3,29*
G04 #@! TO.N,/PE12*
X169926000Y-97790000D03*
G04 #@! TO.P,J3,30*
G04 #@! TO.N,/PD7*
X169926000Y-100330000D03*
G04 #@! TO.P,J3,31*
G04 #@! TO.N,/PE13*
X172466000Y-97790000D03*
G04 #@! TO.P,J3,32*
G04 #@! TO.N,/PF4*
X172466000Y-100330000D03*
G04 #@! TO.P,J3,33*
G04 #@! TO.N,/PF2*
X175006000Y-97790000D03*
G04 #@! TO.P,J3,34*
G04 #@! TO.N,/PF5*
X175006000Y-100330000D03*
G04 #@! TO.P,J3,35*
G04 #@! TO.N,/PF3*
X177546000Y-97790000D03*
G04 #@! TO.P,J3,36*
G04 #@! TO.N,GNDREF*
X177546000Y-100330000D03*
G04 #@! TD*
D10*
G04 #@! TO.N,Net-(C12-Pad1)*
G04 #@! TO.C,L1*
G36*
X158482191Y-86648053D02*
X158503426Y-86651203D01*
X158524250Y-86656419D01*
X158544462Y-86663651D01*
X158563868Y-86672830D01*
X158582281Y-86683866D01*
X158599524Y-86696654D01*
X158615430Y-86711070D01*
X158629846Y-86726976D01*
X158642634Y-86744219D01*
X158653670Y-86762632D01*
X158662849Y-86782038D01*
X158670081Y-86802250D01*
X158675297Y-86823074D01*
X158678447Y-86844309D01*
X158679500Y-86865750D01*
X158679500Y-87378250D01*
X158678447Y-87399691D01*
X158675297Y-87420926D01*
X158670081Y-87441750D01*
X158662849Y-87461962D01*
X158653670Y-87481368D01*
X158642634Y-87499781D01*
X158629846Y-87517024D01*
X158615430Y-87532930D01*
X158599524Y-87547346D01*
X158582281Y-87560134D01*
X158563868Y-87571170D01*
X158544462Y-87580349D01*
X158524250Y-87587581D01*
X158503426Y-87592797D01*
X158482191Y-87595947D01*
X158460750Y-87597000D01*
X158023250Y-87597000D01*
X158001809Y-87595947D01*
X157980574Y-87592797D01*
X157959750Y-87587581D01*
X157939538Y-87580349D01*
X157920132Y-87571170D01*
X157901719Y-87560134D01*
X157884476Y-87547346D01*
X157868570Y-87532930D01*
X157854154Y-87517024D01*
X157841366Y-87499781D01*
X157830330Y-87481368D01*
X157821151Y-87461962D01*
X157813919Y-87441750D01*
X157808703Y-87420926D01*
X157805553Y-87399691D01*
X157804500Y-87378250D01*
X157804500Y-86865750D01*
X157805553Y-86844309D01*
X157808703Y-86823074D01*
X157813919Y-86802250D01*
X157821151Y-86782038D01*
X157830330Y-86762632D01*
X157841366Y-86744219D01*
X157854154Y-86726976D01*
X157868570Y-86711070D01*
X157884476Y-86696654D01*
X157901719Y-86683866D01*
X157920132Y-86672830D01*
X157939538Y-86663651D01*
X157959750Y-86656419D01*
X157980574Y-86651203D01*
X158001809Y-86648053D01*
X158023250Y-86647000D01*
X158460750Y-86647000D01*
X158482191Y-86648053D01*
X158482191Y-86648053D01*
G37*
D11*
G04 #@! TD*
G04 #@! TO.P,L1,1*
G04 #@! TO.N,Net-(C12-Pad1)*
X158242000Y-87122000D03*
D10*
G04 #@! TO.N,+3V3*
G04 #@! TO.C,L1*
G36*
X160057191Y-86648053D02*
X160078426Y-86651203D01*
X160099250Y-86656419D01*
X160119462Y-86663651D01*
X160138868Y-86672830D01*
X160157281Y-86683866D01*
X160174524Y-86696654D01*
X160190430Y-86711070D01*
X160204846Y-86726976D01*
X160217634Y-86744219D01*
X160228670Y-86762632D01*
X160237849Y-86782038D01*
X160245081Y-86802250D01*
X160250297Y-86823074D01*
X160253447Y-86844309D01*
X160254500Y-86865750D01*
X160254500Y-87378250D01*
X160253447Y-87399691D01*
X160250297Y-87420926D01*
X160245081Y-87441750D01*
X160237849Y-87461962D01*
X160228670Y-87481368D01*
X160217634Y-87499781D01*
X160204846Y-87517024D01*
X160190430Y-87532930D01*
X160174524Y-87547346D01*
X160157281Y-87560134D01*
X160138868Y-87571170D01*
X160119462Y-87580349D01*
X160099250Y-87587581D01*
X160078426Y-87592797D01*
X160057191Y-87595947D01*
X160035750Y-87597000D01*
X159598250Y-87597000D01*
X159576809Y-87595947D01*
X159555574Y-87592797D01*
X159534750Y-87587581D01*
X159514538Y-87580349D01*
X159495132Y-87571170D01*
X159476719Y-87560134D01*
X159459476Y-87547346D01*
X159443570Y-87532930D01*
X159429154Y-87517024D01*
X159416366Y-87499781D01*
X159405330Y-87481368D01*
X159396151Y-87461962D01*
X159388919Y-87441750D01*
X159383703Y-87420926D01*
X159380553Y-87399691D01*
X159379500Y-87378250D01*
X159379500Y-86865750D01*
X159380553Y-86844309D01*
X159383703Y-86823074D01*
X159388919Y-86802250D01*
X159396151Y-86782038D01*
X159405330Y-86762632D01*
X159416366Y-86744219D01*
X159429154Y-86726976D01*
X159443570Y-86711070D01*
X159459476Y-86696654D01*
X159476719Y-86683866D01*
X159495132Y-86672830D01*
X159514538Y-86663651D01*
X159534750Y-86656419D01*
X159555574Y-86651203D01*
X159576809Y-86648053D01*
X159598250Y-86647000D01*
X160035750Y-86647000D01*
X160057191Y-86648053D01*
X160057191Y-86648053D01*
G37*
D11*
G04 #@! TD*
G04 #@! TO.P,L1,2*
G04 #@! TO.N,+3V3*
X159817000Y-87122000D03*
D10*
G04 #@! TO.N,Net-(R2-Pad1)*
G04 #@! TO.C,R2*
G36*
X137628691Y-85251053D02*
X137649926Y-85254203D01*
X137670750Y-85259419D01*
X137690962Y-85266651D01*
X137710368Y-85275830D01*
X137728781Y-85286866D01*
X137746024Y-85299654D01*
X137761930Y-85314070D01*
X137776346Y-85329976D01*
X137789134Y-85347219D01*
X137800170Y-85365632D01*
X137809349Y-85385038D01*
X137816581Y-85405250D01*
X137821797Y-85426074D01*
X137824947Y-85447309D01*
X137826000Y-85468750D01*
X137826000Y-85981250D01*
X137824947Y-86002691D01*
X137821797Y-86023926D01*
X137816581Y-86044750D01*
X137809349Y-86064962D01*
X137800170Y-86084368D01*
X137789134Y-86102781D01*
X137776346Y-86120024D01*
X137761930Y-86135930D01*
X137746024Y-86150346D01*
X137728781Y-86163134D01*
X137710368Y-86174170D01*
X137690962Y-86183349D01*
X137670750Y-86190581D01*
X137649926Y-86195797D01*
X137628691Y-86198947D01*
X137607250Y-86200000D01*
X137169750Y-86200000D01*
X137148309Y-86198947D01*
X137127074Y-86195797D01*
X137106250Y-86190581D01*
X137086038Y-86183349D01*
X137066632Y-86174170D01*
X137048219Y-86163134D01*
X137030976Y-86150346D01*
X137015070Y-86135930D01*
X137000654Y-86120024D01*
X136987866Y-86102781D01*
X136976830Y-86084368D01*
X136967651Y-86064962D01*
X136960419Y-86044750D01*
X136955203Y-86023926D01*
X136952053Y-86002691D01*
X136951000Y-85981250D01*
X136951000Y-85468750D01*
X136952053Y-85447309D01*
X136955203Y-85426074D01*
X136960419Y-85405250D01*
X136967651Y-85385038D01*
X136976830Y-85365632D01*
X136987866Y-85347219D01*
X137000654Y-85329976D01*
X137015070Y-85314070D01*
X137030976Y-85299654D01*
X137048219Y-85286866D01*
X137066632Y-85275830D01*
X137086038Y-85266651D01*
X137106250Y-85259419D01*
X137127074Y-85254203D01*
X137148309Y-85251053D01*
X137169750Y-85250000D01*
X137607250Y-85250000D01*
X137628691Y-85251053D01*
X137628691Y-85251053D01*
G37*
D11*
G04 #@! TD*
G04 #@! TO.P,R2,1*
G04 #@! TO.N,Net-(R2-Pad1)*
X137388500Y-85725000D03*
D10*
G04 #@! TO.N,GNDREF*
G04 #@! TO.C,R2*
G36*
X139203691Y-85251053D02*
X139224926Y-85254203D01*
X139245750Y-85259419D01*
X139265962Y-85266651D01*
X139285368Y-85275830D01*
X139303781Y-85286866D01*
X139321024Y-85299654D01*
X139336930Y-85314070D01*
X139351346Y-85329976D01*
X139364134Y-85347219D01*
X139375170Y-85365632D01*
X139384349Y-85385038D01*
X139391581Y-85405250D01*
X139396797Y-85426074D01*
X139399947Y-85447309D01*
X139401000Y-85468750D01*
X139401000Y-85981250D01*
X139399947Y-86002691D01*
X139396797Y-86023926D01*
X139391581Y-86044750D01*
X139384349Y-86064962D01*
X139375170Y-86084368D01*
X139364134Y-86102781D01*
X139351346Y-86120024D01*
X139336930Y-86135930D01*
X139321024Y-86150346D01*
X139303781Y-86163134D01*
X139285368Y-86174170D01*
X139265962Y-86183349D01*
X139245750Y-86190581D01*
X139224926Y-86195797D01*
X139203691Y-86198947D01*
X139182250Y-86200000D01*
X138744750Y-86200000D01*
X138723309Y-86198947D01*
X138702074Y-86195797D01*
X138681250Y-86190581D01*
X138661038Y-86183349D01*
X138641632Y-86174170D01*
X138623219Y-86163134D01*
X138605976Y-86150346D01*
X138590070Y-86135930D01*
X138575654Y-86120024D01*
X138562866Y-86102781D01*
X138551830Y-86084368D01*
X138542651Y-86064962D01*
X138535419Y-86044750D01*
X138530203Y-86023926D01*
X138527053Y-86002691D01*
X138526000Y-85981250D01*
X138526000Y-85468750D01*
X138527053Y-85447309D01*
X138530203Y-85426074D01*
X138535419Y-85405250D01*
X138542651Y-85385038D01*
X138551830Y-85365632D01*
X138562866Y-85347219D01*
X138575654Y-85329976D01*
X138590070Y-85314070D01*
X138605976Y-85299654D01*
X138623219Y-85286866D01*
X138641632Y-85275830D01*
X138661038Y-85266651D01*
X138681250Y-85259419D01*
X138702074Y-85254203D01*
X138723309Y-85251053D01*
X138744750Y-85250000D01*
X139182250Y-85250000D01*
X139203691Y-85251053D01*
X139203691Y-85251053D01*
G37*
D11*
G04 #@! TD*
G04 #@! TO.P,R2,2*
G04 #@! TO.N,GNDREF*
X138963500Y-85725000D03*
D10*
G04 #@! TO.N,/USB_DM*
G04 #@! TO.C,R3*
G36*
X171600691Y-81986553D02*
X171621926Y-81989703D01*
X171642750Y-81994919D01*
X171662962Y-82002151D01*
X171682368Y-82011330D01*
X171700781Y-82022366D01*
X171718024Y-82035154D01*
X171733930Y-82049570D01*
X171748346Y-82065476D01*
X171761134Y-82082719D01*
X171772170Y-82101132D01*
X171781349Y-82120538D01*
X171788581Y-82140750D01*
X171793797Y-82161574D01*
X171796947Y-82182809D01*
X171798000Y-82204250D01*
X171798000Y-82641750D01*
X171796947Y-82663191D01*
X171793797Y-82684426D01*
X171788581Y-82705250D01*
X171781349Y-82725462D01*
X171772170Y-82744868D01*
X171761134Y-82763281D01*
X171748346Y-82780524D01*
X171733930Y-82796430D01*
X171718024Y-82810846D01*
X171700781Y-82823634D01*
X171682368Y-82834670D01*
X171662962Y-82843849D01*
X171642750Y-82851081D01*
X171621926Y-82856297D01*
X171600691Y-82859447D01*
X171579250Y-82860500D01*
X171066750Y-82860500D01*
X171045309Y-82859447D01*
X171024074Y-82856297D01*
X171003250Y-82851081D01*
X170983038Y-82843849D01*
X170963632Y-82834670D01*
X170945219Y-82823634D01*
X170927976Y-82810846D01*
X170912070Y-82796430D01*
X170897654Y-82780524D01*
X170884866Y-82763281D01*
X170873830Y-82744868D01*
X170864651Y-82725462D01*
X170857419Y-82705250D01*
X170852203Y-82684426D01*
X170849053Y-82663191D01*
X170848000Y-82641750D01*
X170848000Y-82204250D01*
X170849053Y-82182809D01*
X170852203Y-82161574D01*
X170857419Y-82140750D01*
X170864651Y-82120538D01*
X170873830Y-82101132D01*
X170884866Y-82082719D01*
X170897654Y-82065476D01*
X170912070Y-82049570D01*
X170927976Y-82035154D01*
X170945219Y-82022366D01*
X170963632Y-82011330D01*
X170983038Y-82002151D01*
X171003250Y-81994919D01*
X171024074Y-81989703D01*
X171045309Y-81986553D01*
X171066750Y-81985500D01*
X171579250Y-81985500D01*
X171600691Y-81986553D01*
X171600691Y-81986553D01*
G37*
D11*
G04 #@! TD*
G04 #@! TO.P,R3,2*
G04 #@! TO.N,/USB_DM*
X171323000Y-82423000D03*
D10*
G04 #@! TO.N,/PC14*
G04 #@! TO.C,R3*
G36*
X171600691Y-83561553D02*
X171621926Y-83564703D01*
X171642750Y-83569919D01*
X171662962Y-83577151D01*
X171682368Y-83586330D01*
X171700781Y-83597366D01*
X171718024Y-83610154D01*
X171733930Y-83624570D01*
X171748346Y-83640476D01*
X171761134Y-83657719D01*
X171772170Y-83676132D01*
X171781349Y-83695538D01*
X171788581Y-83715750D01*
X171793797Y-83736574D01*
X171796947Y-83757809D01*
X171798000Y-83779250D01*
X171798000Y-84216750D01*
X171796947Y-84238191D01*
X171793797Y-84259426D01*
X171788581Y-84280250D01*
X171781349Y-84300462D01*
X171772170Y-84319868D01*
X171761134Y-84338281D01*
X171748346Y-84355524D01*
X171733930Y-84371430D01*
X171718024Y-84385846D01*
X171700781Y-84398634D01*
X171682368Y-84409670D01*
X171662962Y-84418849D01*
X171642750Y-84426081D01*
X171621926Y-84431297D01*
X171600691Y-84434447D01*
X171579250Y-84435500D01*
X171066750Y-84435500D01*
X171045309Y-84434447D01*
X171024074Y-84431297D01*
X171003250Y-84426081D01*
X170983038Y-84418849D01*
X170963632Y-84409670D01*
X170945219Y-84398634D01*
X170927976Y-84385846D01*
X170912070Y-84371430D01*
X170897654Y-84355524D01*
X170884866Y-84338281D01*
X170873830Y-84319868D01*
X170864651Y-84300462D01*
X170857419Y-84280250D01*
X170852203Y-84259426D01*
X170849053Y-84238191D01*
X170848000Y-84216750D01*
X170848000Y-83779250D01*
X170849053Y-83757809D01*
X170852203Y-83736574D01*
X170857419Y-83715750D01*
X170864651Y-83695538D01*
X170873830Y-83676132D01*
X170884866Y-83657719D01*
X170897654Y-83640476D01*
X170912070Y-83624570D01*
X170927976Y-83610154D01*
X170945219Y-83597366D01*
X170963632Y-83586330D01*
X170983038Y-83577151D01*
X171003250Y-83569919D01*
X171024074Y-83564703D01*
X171045309Y-83561553D01*
X171066750Y-83560500D01*
X171579250Y-83560500D01*
X171600691Y-83561553D01*
X171600691Y-83561553D01*
G37*
D11*
G04 #@! TD*
G04 #@! TO.P,R3,1*
G04 #@! TO.N,/PC14*
X171323000Y-83998000D03*
D10*
G04 #@! TO.N,/PC15*
G04 #@! TO.C,R4*
G36*
X173124691Y-83561553D02*
X173145926Y-83564703D01*
X173166750Y-83569919D01*
X173186962Y-83577151D01*
X173206368Y-83586330D01*
X173224781Y-83597366D01*
X173242024Y-83610154D01*
X173257930Y-83624570D01*
X173272346Y-83640476D01*
X173285134Y-83657719D01*
X173296170Y-83676132D01*
X173305349Y-83695538D01*
X173312581Y-83715750D01*
X173317797Y-83736574D01*
X173320947Y-83757809D01*
X173322000Y-83779250D01*
X173322000Y-84216750D01*
X173320947Y-84238191D01*
X173317797Y-84259426D01*
X173312581Y-84280250D01*
X173305349Y-84300462D01*
X173296170Y-84319868D01*
X173285134Y-84338281D01*
X173272346Y-84355524D01*
X173257930Y-84371430D01*
X173242024Y-84385846D01*
X173224781Y-84398634D01*
X173206368Y-84409670D01*
X173186962Y-84418849D01*
X173166750Y-84426081D01*
X173145926Y-84431297D01*
X173124691Y-84434447D01*
X173103250Y-84435500D01*
X172590750Y-84435500D01*
X172569309Y-84434447D01*
X172548074Y-84431297D01*
X172527250Y-84426081D01*
X172507038Y-84418849D01*
X172487632Y-84409670D01*
X172469219Y-84398634D01*
X172451976Y-84385846D01*
X172436070Y-84371430D01*
X172421654Y-84355524D01*
X172408866Y-84338281D01*
X172397830Y-84319868D01*
X172388651Y-84300462D01*
X172381419Y-84280250D01*
X172376203Y-84259426D01*
X172373053Y-84238191D01*
X172372000Y-84216750D01*
X172372000Y-83779250D01*
X172373053Y-83757809D01*
X172376203Y-83736574D01*
X172381419Y-83715750D01*
X172388651Y-83695538D01*
X172397830Y-83676132D01*
X172408866Y-83657719D01*
X172421654Y-83640476D01*
X172436070Y-83624570D01*
X172451976Y-83610154D01*
X172469219Y-83597366D01*
X172487632Y-83586330D01*
X172507038Y-83577151D01*
X172527250Y-83569919D01*
X172548074Y-83564703D01*
X172569309Y-83561553D01*
X172590750Y-83560500D01*
X173103250Y-83560500D01*
X173124691Y-83561553D01*
X173124691Y-83561553D01*
G37*
D11*
G04 #@! TD*
G04 #@! TO.P,R4,1*
G04 #@! TO.N,/PC15*
X172847000Y-83998000D03*
D10*
G04 #@! TO.N,/USB_DP*
G04 #@! TO.C,R4*
G36*
X173124691Y-81986553D02*
X173145926Y-81989703D01*
X173166750Y-81994919D01*
X173186962Y-82002151D01*
X173206368Y-82011330D01*
X173224781Y-82022366D01*
X173242024Y-82035154D01*
X173257930Y-82049570D01*
X173272346Y-82065476D01*
X173285134Y-82082719D01*
X173296170Y-82101132D01*
X173305349Y-82120538D01*
X173312581Y-82140750D01*
X173317797Y-82161574D01*
X173320947Y-82182809D01*
X173322000Y-82204250D01*
X173322000Y-82641750D01*
X173320947Y-82663191D01*
X173317797Y-82684426D01*
X173312581Y-82705250D01*
X173305349Y-82725462D01*
X173296170Y-82744868D01*
X173285134Y-82763281D01*
X173272346Y-82780524D01*
X173257930Y-82796430D01*
X173242024Y-82810846D01*
X173224781Y-82823634D01*
X173206368Y-82834670D01*
X173186962Y-82843849D01*
X173166750Y-82851081D01*
X173145926Y-82856297D01*
X173124691Y-82859447D01*
X173103250Y-82860500D01*
X172590750Y-82860500D01*
X172569309Y-82859447D01*
X172548074Y-82856297D01*
X172527250Y-82851081D01*
X172507038Y-82843849D01*
X172487632Y-82834670D01*
X172469219Y-82823634D01*
X172451976Y-82810846D01*
X172436070Y-82796430D01*
X172421654Y-82780524D01*
X172408866Y-82763281D01*
X172397830Y-82744868D01*
X172388651Y-82725462D01*
X172381419Y-82705250D01*
X172376203Y-82684426D01*
X172373053Y-82663191D01*
X172372000Y-82641750D01*
X172372000Y-82204250D01*
X172373053Y-82182809D01*
X172376203Y-82161574D01*
X172381419Y-82140750D01*
X172388651Y-82120538D01*
X172397830Y-82101132D01*
X172408866Y-82082719D01*
X172421654Y-82065476D01*
X172436070Y-82049570D01*
X172451976Y-82035154D01*
X172469219Y-82022366D01*
X172487632Y-82011330D01*
X172507038Y-82002151D01*
X172527250Y-81994919D01*
X172548074Y-81989703D01*
X172569309Y-81986553D01*
X172590750Y-81985500D01*
X173103250Y-81985500D01*
X173124691Y-81986553D01*
X173124691Y-81986553D01*
G37*
D11*
G04 #@! TD*
G04 #@! TO.P,R4,2*
G04 #@! TO.N,/USB_DP*
X172847000Y-82423000D03*
D10*
G04 #@! TO.N,VBUS*
G04 #@! TO.C,R5*
G36*
X162329691Y-80183053D02*
X162350926Y-80186203D01*
X162371750Y-80191419D01*
X162391962Y-80198651D01*
X162411368Y-80207830D01*
X162429781Y-80218866D01*
X162447024Y-80231654D01*
X162462930Y-80246070D01*
X162477346Y-80261976D01*
X162490134Y-80279219D01*
X162501170Y-80297632D01*
X162510349Y-80317038D01*
X162517581Y-80337250D01*
X162522797Y-80358074D01*
X162525947Y-80379309D01*
X162527000Y-80400750D01*
X162527000Y-80838250D01*
X162525947Y-80859691D01*
X162522797Y-80880926D01*
X162517581Y-80901750D01*
X162510349Y-80921962D01*
X162501170Y-80941368D01*
X162490134Y-80959781D01*
X162477346Y-80977024D01*
X162462930Y-80992930D01*
X162447024Y-81007346D01*
X162429781Y-81020134D01*
X162411368Y-81031170D01*
X162391962Y-81040349D01*
X162371750Y-81047581D01*
X162350926Y-81052797D01*
X162329691Y-81055947D01*
X162308250Y-81057000D01*
X161795750Y-81057000D01*
X161774309Y-81055947D01*
X161753074Y-81052797D01*
X161732250Y-81047581D01*
X161712038Y-81040349D01*
X161692632Y-81031170D01*
X161674219Y-81020134D01*
X161656976Y-81007346D01*
X161641070Y-80992930D01*
X161626654Y-80977024D01*
X161613866Y-80959781D01*
X161602830Y-80941368D01*
X161593651Y-80921962D01*
X161586419Y-80901750D01*
X161581203Y-80880926D01*
X161578053Y-80859691D01*
X161577000Y-80838250D01*
X161577000Y-80400750D01*
X161578053Y-80379309D01*
X161581203Y-80358074D01*
X161586419Y-80337250D01*
X161593651Y-80317038D01*
X161602830Y-80297632D01*
X161613866Y-80279219D01*
X161626654Y-80261976D01*
X161641070Y-80246070D01*
X161656976Y-80231654D01*
X161674219Y-80218866D01*
X161692632Y-80207830D01*
X161712038Y-80198651D01*
X161732250Y-80191419D01*
X161753074Y-80186203D01*
X161774309Y-80183053D01*
X161795750Y-80182000D01*
X162308250Y-80182000D01*
X162329691Y-80183053D01*
X162329691Y-80183053D01*
G37*
D11*
G04 #@! TD*
G04 #@! TO.P,R5,2*
G04 #@! TO.N,VBUS*
X162052000Y-80619500D03*
D10*
G04 #@! TO.N,Net-(C11-Pad1)*
G04 #@! TO.C,R5*
G36*
X162329691Y-81758053D02*
X162350926Y-81761203D01*
X162371750Y-81766419D01*
X162391962Y-81773651D01*
X162411368Y-81782830D01*
X162429781Y-81793866D01*
X162447024Y-81806654D01*
X162462930Y-81821070D01*
X162477346Y-81836976D01*
X162490134Y-81854219D01*
X162501170Y-81872632D01*
X162510349Y-81892038D01*
X162517581Y-81912250D01*
X162522797Y-81933074D01*
X162525947Y-81954309D01*
X162527000Y-81975750D01*
X162527000Y-82413250D01*
X162525947Y-82434691D01*
X162522797Y-82455926D01*
X162517581Y-82476750D01*
X162510349Y-82496962D01*
X162501170Y-82516368D01*
X162490134Y-82534781D01*
X162477346Y-82552024D01*
X162462930Y-82567930D01*
X162447024Y-82582346D01*
X162429781Y-82595134D01*
X162411368Y-82606170D01*
X162391962Y-82615349D01*
X162371750Y-82622581D01*
X162350926Y-82627797D01*
X162329691Y-82630947D01*
X162308250Y-82632000D01*
X161795750Y-82632000D01*
X161774309Y-82630947D01*
X161753074Y-82627797D01*
X161732250Y-82622581D01*
X161712038Y-82615349D01*
X161692632Y-82606170D01*
X161674219Y-82595134D01*
X161656976Y-82582346D01*
X161641070Y-82567930D01*
X161626654Y-82552024D01*
X161613866Y-82534781D01*
X161602830Y-82516368D01*
X161593651Y-82496962D01*
X161586419Y-82476750D01*
X161581203Y-82455926D01*
X161578053Y-82434691D01*
X161577000Y-82413250D01*
X161577000Y-81975750D01*
X161578053Y-81954309D01*
X161581203Y-81933074D01*
X161586419Y-81912250D01*
X161593651Y-81892038D01*
X161602830Y-81872632D01*
X161613866Y-81854219D01*
X161626654Y-81836976D01*
X161641070Y-81821070D01*
X161656976Y-81806654D01*
X161674219Y-81793866D01*
X161692632Y-81782830D01*
X161712038Y-81773651D01*
X161732250Y-81766419D01*
X161753074Y-81761203D01*
X161774309Y-81758053D01*
X161795750Y-81757000D01*
X162308250Y-81757000D01*
X162329691Y-81758053D01*
X162329691Y-81758053D01*
G37*
D11*
G04 #@! TD*
G04 #@! TO.P,R5,1*
G04 #@! TO.N,Net-(C11-Pad1)*
X162052000Y-82194500D03*
D14*
G04 #@! TO.P,Y2,1*
G04 #@! TO.N,/RTCM*
X147320000Y-89789000D03*
G04 #@! TO.P,Y2,2*
G04 #@! TO.N,/RTCP*
X147320000Y-87889000D03*
D15*
G04 #@! TO.P,Y2,3*
G04 #@! TO.N,GNDREF*
X140320000Y-88839000D03*
G04 #@! TD*
D16*
G04 #@! TO.P,J2,SH*
G04 #@! TO.N,GNDREF*
X174031000Y-71542000D03*
X169631000Y-71542000D03*
G04 #@! TD*
D17*
G04 #@! TO.N,GNDREF*
X156230400Y-82050402D03*
X166751000Y-93599000D03*
X156464000Y-91694000D03*
D18*
X147320000Y-69342000D03*
X148463000Y-69342000D03*
X145415000Y-78105000D03*
X146939000Y-78105000D03*
X142850000Y-77853000D03*
D17*
X154686000Y-84455000D03*
D18*
X168529000Y-84328000D03*
X183235500Y-83337500D03*
X182532000Y-84869000D03*
X182372000Y-90170000D03*
X154051000Y-69469000D03*
X157861000Y-68199000D03*
X169418000Y-69215000D03*
X174244000Y-69215000D03*
D17*
G04 #@! TO.N,/~EFM_RESET*
X147701000Y-91694000D03*
X136144000Y-91694000D03*
D18*
G04 #@! TO.N,VBUS*
X173736000Y-76835000D03*
X174752000Y-76835000D03*
X145161000Y-69977000D03*
X144018000Y-69977000D03*
X142875000Y-69977000D03*
G04 #@! TO.N,+3V3*
X151257000Y-84074000D03*
X160528000Y-86233000D03*
X157480000Y-78994000D03*
X145415000Y-73914000D03*
X146431000Y-73914000D03*
X147447000Y-73914000D03*
X141097000Y-73794400D03*
X138937996Y-73787000D03*
X139954000Y-73787000D03*
X131318000Y-92837000D03*
X132207000Y-91948000D03*
X132969000Y-92710000D03*
D17*
G04 #@! TO.N,Net-(C12-Pad1)*
X161279425Y-88777696D03*
X157861000Y-91440008D03*
G04 #@! TO.N,Net-(C11-Pad1)*
X164084000Y-83693000D03*
G04 #@! TO.N,Net-(C14-Pad1)*
X166878079Y-86103390D03*
G04 #@! TO.N,/DBG_SWCLK*
X160147000Y-82677000D03*
X159131000Y-75692000D03*
G04 #@! TO.N,/DBG_SWDIO*
X157480000Y-75819000D03*
X158496008Y-82169000D03*
G04 #@! TO.N,/PA1*
X137795000Y-95504000D03*
G04 #@! TO.N,/PA2*
X138684000Y-94487994D03*
G04 #@! TO.N,/PA8*
X149860000Y-89535006D03*
G04 #@! TO.N,/PA9*
X149860000Y-90932000D03*
G04 #@! TO.N,/PA10*
X149860000Y-92329010D03*
G04 #@! TO.N,/PC8*
X170434000Y-93090994D03*
G04 #@! TO.N,/PC9*
X171384779Y-94024121D03*
G04 #@! TO.N,/PC10*
X172212000Y-94996000D03*
G04 #@! TO.N,/PC14*
X155321000Y-93472000D03*
G04 #@! TO.N,/PC15*
X158369004Y-93726000D03*
G04 #@! TO.N,/PE10*
X171831004Y-89662000D03*
G04 #@! TO.N,/PE11*
X172720000Y-88646000D03*
G04 #@! TO.N,/PE12*
X173609000Y-87503000D03*
G04 #@! TO.N,/PE13*
X174625000Y-86487000D03*
G04 #@! TO.N,Net-(R2-Pad1)*
X136144000Y-85598000D03*
G04 #@! TO.N,/USB_DM*
X165100000Y-80898988D03*
D18*
X172084996Y-78232000D03*
D17*
G04 #@! TO.N,/USB_DP*
X164135668Y-80077386D03*
X170942000Y-77597000D03*
G04 #@! TD*
D19*
G04 #@! TO.N,GNDREF*
X156230400Y-80690900D02*
X156184500Y-80645000D01*
X156230400Y-82050402D02*
X156230400Y-80690900D01*
X154686000Y-84074000D02*
X154686000Y-84455000D01*
X155651000Y-84074000D02*
X154686000Y-84074000D01*
D20*
X156591000Y-69469000D02*
X154051000Y-69469000D01*
X157861000Y-68199000D02*
X156591000Y-69469000D01*
D19*
G04 #@! TO.N,/~EFM_RESET*
X136271000Y-91821000D02*
X136144000Y-91694000D01*
X137515500Y-91821000D02*
X136271000Y-91821000D01*
X143764000Y-95631000D02*
X147701000Y-91694000D01*
X141325500Y-95631000D02*
X143764000Y-95631000D01*
X137515500Y-91821000D02*
X141325500Y-95631000D01*
G04 #@! TO.N,VBUS*
X145161000Y-69977000D02*
X144018000Y-69977000D01*
X144018000Y-69977000D02*
X142875000Y-69977000D01*
D21*
X162052000Y-77724000D02*
X162052000Y-80619500D01*
X165227000Y-74549000D02*
X162052000Y-77724000D01*
X173228000Y-74549000D02*
X165227000Y-74549000D01*
X173336001Y-74657001D02*
X173228000Y-74549000D01*
X173736000Y-76835000D02*
X173336001Y-76435001D01*
X173336001Y-76435001D02*
X173336001Y-74657001D01*
D19*
G04 #@! TO.N,+3V3*
X157759500Y-79273500D02*
X157480000Y-78994000D01*
X157759500Y-80645000D02*
X157759500Y-79273500D01*
X151257000Y-84099500D02*
X152755500Y-85598000D01*
X151257000Y-84074000D02*
X151257000Y-84099500D01*
D21*
X160528000Y-86233000D02*
X161036000Y-86741000D01*
X161036000Y-86741000D02*
X162814000Y-86741000D01*
D19*
X132207000Y-91948000D02*
X132606999Y-92347999D01*
X132606999Y-92347999D02*
X132969000Y-92710000D01*
G04 #@! TO.N,Net-(C12-Pad1)*
X158242000Y-91059008D02*
X157861000Y-91440008D01*
X158242000Y-87122000D02*
X158242000Y-91059008D01*
G04 #@! TO.N,Net-(C11-Pad1)*
X163550500Y-83693000D02*
X164084000Y-83693000D01*
X164566500Y-82169000D02*
X164084000Y-82651500D01*
X162052000Y-82194500D02*
X163550500Y-83693000D01*
X164084000Y-82974580D02*
X164084000Y-83693000D01*
X164084000Y-82651500D02*
X164084000Y-82974580D01*
D21*
G04 #@! TO.N,Net-(C14-Pad1)*
X166878079Y-86103390D02*
X166240469Y-86741000D01*
X166240469Y-86741000D02*
X164338000Y-86741000D01*
D19*
G04 #@! TO.N,/RTCM*
X145186500Y-91922500D02*
X145186500Y-91948000D01*
X147320000Y-89789000D02*
X145186500Y-91922500D01*
G04 #@! TO.N,/RTCP*
X145440500Y-86009500D02*
X145440500Y-85725000D01*
X147320000Y-87889000D02*
X145440500Y-86009500D01*
G04 #@! TO.N,/DBG_SWCLK*
X160147000Y-82677000D02*
X159131000Y-81661000D01*
X159131000Y-76410420D02*
X159131000Y-75692000D01*
X159131000Y-81661000D02*
X159131000Y-76410420D01*
G04 #@! TO.N,/DBG_SWDIO*
X158496008Y-76835008D02*
X158496008Y-81450580D01*
X158496008Y-81450580D02*
X158496008Y-82169000D01*
X157480000Y-75819000D02*
X158496008Y-76835008D01*
G04 #@! TO.N,/PA1*
X139446000Y-97790000D02*
X137795000Y-96139000D01*
X137795000Y-96139000D02*
X137795000Y-95504000D01*
G04 #@! TO.N,/PA2*
X138684000Y-94488000D02*
X138684000Y-94487994D01*
X141986000Y-97790000D02*
X138684000Y-94488000D01*
G04 #@! TO.N,/PA8*
X146050000Y-96266000D02*
X144526000Y-97790000D01*
X147701000Y-96266000D02*
X146050000Y-96266000D01*
X148590000Y-95377000D02*
X147701000Y-96266000D01*
X148590000Y-90805006D02*
X148590000Y-95377000D01*
X149860000Y-89535006D02*
X148590000Y-90805006D01*
G04 #@! TO.N,/PA9*
X149098000Y-91694000D02*
X149860000Y-90932000D01*
X147066000Y-97790000D02*
X149098000Y-95758000D01*
X149098000Y-95758000D02*
X149098000Y-91694000D01*
G04 #@! TO.N,/PA10*
X149860000Y-97536000D02*
X149860000Y-92329010D01*
X149606000Y-97790000D02*
X149860000Y-97536000D01*
G04 #@! TO.N,/PC8*
X170434000Y-94361000D02*
X170434000Y-93090994D01*
X170180000Y-94615000D02*
X170434000Y-94361000D01*
X150876000Y-99060000D02*
X150876000Y-96520000D01*
X149606000Y-100330000D02*
X150876000Y-99060000D01*
X150876000Y-96520000D02*
X152146000Y-95250000D01*
X152146000Y-95250000D02*
X168148000Y-95250000D01*
X168148000Y-95250000D02*
X168783000Y-94615000D01*
X168783000Y-94615000D02*
X170180000Y-94615000D01*
G04 #@! TO.N,/PC9*
X171196000Y-94212900D02*
X171384779Y-94024121D01*
X171196000Y-94488000D02*
X171196000Y-94212900D01*
X153416000Y-99060000D02*
X153416000Y-97028000D01*
X152146000Y-100330000D02*
X153416000Y-99060000D01*
X153416000Y-97028000D02*
X154813000Y-95631000D01*
X154813000Y-95631000D02*
X168325060Y-95631000D01*
X170688000Y-94996000D02*
X171196000Y-94488000D01*
X168325060Y-95631000D02*
X168960060Y-94996000D01*
X168960060Y-94996000D02*
X170688000Y-94996000D01*
G04 #@! TO.N,/PC10*
X171493580Y-94996000D02*
X172212000Y-94996000D01*
X154686000Y-100330000D02*
X155956000Y-99060000D01*
X155956000Y-96774000D02*
X156718000Y-96012000D01*
X156718000Y-96012000D02*
X168529000Y-96012000D01*
X171087167Y-95402413D02*
X171493580Y-94996000D01*
X155956000Y-99060000D02*
X155956000Y-96774000D01*
X168529000Y-96012000D02*
X169138587Y-95402413D01*
X169138587Y-95402413D02*
X171087167Y-95402413D01*
G04 #@! TO.N,/PB11*
X157099000Y-97663000D02*
X157226000Y-97790000D01*
G04 #@! TO.N,/PC14*
X171323000Y-83998000D02*
X162331601Y-92989399D01*
X162331601Y-92989399D02*
X156522021Y-92989399D01*
X156522021Y-92989399D02*
X156039420Y-93472000D01*
X156039420Y-93472000D02*
X155321000Y-93472000D01*
G04 #@! TO.N,/PC15*
X172847000Y-83998000D02*
X163119000Y-93726000D01*
X163119000Y-93726000D02*
X159087424Y-93726000D01*
X159087424Y-93726000D02*
X158369004Y-93726000D01*
G04 #@! TO.N,/PE10*
X172339003Y-90169999D02*
X171831004Y-89662000D01*
X173101000Y-90931996D02*
X172339003Y-90169999D01*
X166243000Y-96393000D02*
X168783000Y-96393000D01*
X164846000Y-97790000D02*
X166243000Y-96393000D01*
X168783000Y-96393000D02*
X169418000Y-95758000D01*
X169418000Y-95758000D02*
X172540170Y-95758000D01*
X172540170Y-95758000D02*
X173101000Y-95197170D01*
X173101000Y-95197170D02*
X173101000Y-90931996D01*
G04 #@! TO.N,/PE11*
X173227999Y-89153999D02*
X172720000Y-88646000D01*
X173609000Y-89535000D02*
X173227999Y-89153999D01*
X168235999Y-96940001D02*
X168870999Y-96940001D01*
X169672000Y-96139000D02*
X172720000Y-96139000D01*
X168870999Y-96940001D02*
X169672000Y-96139000D01*
X172720000Y-96139000D02*
X173609000Y-95250000D01*
X167386000Y-97790000D02*
X168235999Y-96940001D01*
X173609000Y-95250000D02*
X173609000Y-89535000D01*
G04 #@! TO.N,/PE12*
X173609000Y-88221420D02*
X173609000Y-87503000D01*
X170434000Y-97790000D02*
X171704000Y-96520000D01*
X169926000Y-97790000D02*
X170434000Y-97790000D01*
X171704000Y-96520000D02*
X172974000Y-96520000D01*
X172974000Y-96520000D02*
X174117000Y-95377000D01*
X174117000Y-95377000D02*
X174117000Y-88729420D01*
X174117000Y-88729420D02*
X173609000Y-88221420D01*
G04 #@! TO.N,/PE13*
X174625000Y-95631000D02*
X174625000Y-87205420D01*
X172466000Y-97790000D02*
X174625000Y-95631000D01*
X174625000Y-87205420D02*
X174625000Y-86487000D01*
G04 #@! TO.N,Net-(R2-Pad1)*
X137261500Y-85598000D02*
X137388500Y-85725000D01*
X136144000Y-85598000D02*
X137261500Y-85598000D01*
G04 #@! TO.N,/USB_DM*
X165100012Y-80899000D02*
X165100000Y-80898988D01*
X172084996Y-78358996D02*
X172084996Y-78232000D01*
X172212000Y-78486000D02*
X172084996Y-78358996D01*
X171323000Y-82423000D02*
X172212000Y-81534000D01*
X172212000Y-81534000D02*
X172212000Y-78486000D01*
X165100000Y-79883000D02*
X165100000Y-80898988D01*
X171519311Y-78232000D02*
X171265311Y-78486000D01*
X172084996Y-78232000D02*
X171519311Y-78232000D01*
X171265311Y-78486000D02*
X170561000Y-78486000D01*
X170561000Y-78486000D02*
X170053000Y-77978000D01*
X170053000Y-77978000D02*
X167005000Y-77978000D01*
X167005000Y-77978000D02*
X165100000Y-79883000D01*
G04 #@! TO.N,/USB_DP*
X164135668Y-80077386D02*
X166616054Y-77597000D01*
X166616054Y-77597000D02*
X170223580Y-77597000D01*
X170223580Y-77597000D02*
X170942000Y-77597000D01*
X172847000Y-78063666D02*
X172380334Y-77597000D01*
X172380334Y-77597000D02*
X171660420Y-77597000D01*
X172847000Y-82423000D02*
X172847000Y-78063666D01*
X171660420Y-77597000D02*
X170942000Y-77597000D01*
G04 #@! TD*
D20*
G04 #@! TO.N,VBUS*
G36*
X145542000Y-71120000D02*
X145551667Y-71168601D01*
X145579197Y-71209803D01*
X145620399Y-71237333D01*
X145669000Y-71247000D01*
X167946000Y-71247000D01*
X167946000Y-71877167D01*
X168202526Y-72496476D01*
X168676524Y-72970474D01*
X169295833Y-73227000D01*
X169966167Y-73227000D01*
X170585476Y-72970474D01*
X171059474Y-72496476D01*
X171316000Y-71877167D01*
X171316000Y-71247000D01*
X172346000Y-71247000D01*
X172346000Y-71877167D01*
X172602526Y-72496476D01*
X173076524Y-72970474D01*
X173695833Y-73227000D01*
X174366167Y-73227000D01*
X174625000Y-73119788D01*
X174625000Y-77343000D01*
X173132122Y-77343000D01*
X173101000Y-77311878D01*
X173101000Y-74930000D01*
X173091333Y-74881399D01*
X173063803Y-74840197D01*
X173022601Y-74812667D01*
X172974000Y-74803000D01*
X166497000Y-74803000D01*
X166497000Y-72771000D01*
X166487333Y-72722399D01*
X166459803Y-72681197D01*
X166418601Y-72653667D01*
X166370000Y-72644000D01*
X141403606Y-72644000D01*
X139827000Y-71067394D01*
X139827000Y-69469000D01*
X145542000Y-69469000D01*
X145542000Y-71120000D01*
X145542000Y-71120000D01*
G37*
X145542000Y-71120000D02*
X145551667Y-71168601D01*
X145579197Y-71209803D01*
X145620399Y-71237333D01*
X145669000Y-71247000D01*
X167946000Y-71247000D01*
X167946000Y-71877167D01*
X168202526Y-72496476D01*
X168676524Y-72970474D01*
X169295833Y-73227000D01*
X169966167Y-73227000D01*
X170585476Y-72970474D01*
X171059474Y-72496476D01*
X171316000Y-71877167D01*
X171316000Y-71247000D01*
X172346000Y-71247000D01*
X172346000Y-71877167D01*
X172602526Y-72496476D01*
X173076524Y-72970474D01*
X173695833Y-73227000D01*
X174366167Y-73227000D01*
X174625000Y-73119788D01*
X174625000Y-77343000D01*
X173132122Y-77343000D01*
X173101000Y-77311878D01*
X173101000Y-74930000D01*
X173091333Y-74881399D01*
X173063803Y-74840197D01*
X173022601Y-74812667D01*
X172974000Y-74803000D01*
X166497000Y-74803000D01*
X166497000Y-72771000D01*
X166487333Y-72722399D01*
X166459803Y-72681197D01*
X166418601Y-72653667D01*
X166370000Y-72644000D01*
X141403606Y-72644000D01*
X139827000Y-71067394D01*
X139827000Y-69469000D01*
X145542000Y-69469000D01*
X145542000Y-71120000D01*
D22*
G04 #@! TO.N,Net-(C12-Pad1)*
G36*
X157632400Y-84412916D02*
X157535158Y-84510158D01*
X157513134Y-84543119D01*
X157505400Y-84582000D01*
X157505400Y-84836000D01*
X157513134Y-84874881D01*
X157535158Y-84907842D01*
X157759400Y-85132084D01*
X157759400Y-85979000D01*
X157767134Y-86017881D01*
X157789158Y-86050842D01*
X158521400Y-86783084D01*
X158521400Y-87884000D01*
X158529134Y-87922881D01*
X158551158Y-87955842D01*
X159059158Y-88463842D01*
X159092119Y-88485866D01*
X159131000Y-88493600D01*
X161569400Y-88493600D01*
X161569400Y-89179400D01*
X159385000Y-89179400D01*
X159346119Y-89187134D01*
X159319957Y-89202949D01*
X158557957Y-89837949D01*
X158533039Y-89868781D01*
X158521400Y-89916000D01*
X158521400Y-91846400D01*
X157649084Y-91846400D01*
X157454600Y-91651916D01*
X157454600Y-91228084D01*
X157551842Y-91130842D01*
X157573866Y-91097881D01*
X157581600Y-91059000D01*
X157581600Y-90043000D01*
X157573866Y-90004119D01*
X157551842Y-89971158D01*
X156438600Y-88857916D01*
X156438600Y-86656084D01*
X157043842Y-86050842D01*
X157065866Y-86017881D01*
X157073600Y-85979000D01*
X157073600Y-84709000D01*
X157065866Y-84670119D01*
X157043842Y-84637158D01*
X156819600Y-84412916D01*
X156819600Y-83667600D01*
X157632400Y-83667600D01*
X157632400Y-84412916D01*
X157632400Y-84412916D01*
G37*
X157632400Y-84412916D02*
X157535158Y-84510158D01*
X157513134Y-84543119D01*
X157505400Y-84582000D01*
X157505400Y-84836000D01*
X157513134Y-84874881D01*
X157535158Y-84907842D01*
X157759400Y-85132084D01*
X157759400Y-85979000D01*
X157767134Y-86017881D01*
X157789158Y-86050842D01*
X158521400Y-86783084D01*
X158521400Y-87884000D01*
X158529134Y-87922881D01*
X158551158Y-87955842D01*
X159059158Y-88463842D01*
X159092119Y-88485866D01*
X159131000Y-88493600D01*
X161569400Y-88493600D01*
X161569400Y-89179400D01*
X159385000Y-89179400D01*
X159346119Y-89187134D01*
X159319957Y-89202949D01*
X158557957Y-89837949D01*
X158533039Y-89868781D01*
X158521400Y-89916000D01*
X158521400Y-91846400D01*
X157649084Y-91846400D01*
X157454600Y-91651916D01*
X157454600Y-91228084D01*
X157551842Y-91130842D01*
X157573866Y-91097881D01*
X157581600Y-91059000D01*
X157581600Y-90043000D01*
X157573866Y-90004119D01*
X157551842Y-89971158D01*
X156438600Y-88857916D01*
X156438600Y-86656084D01*
X157043842Y-86050842D01*
X157065866Y-86017881D01*
X157073600Y-85979000D01*
X157073600Y-84709000D01*
X157065866Y-84670119D01*
X157043842Y-84637158D01*
X156819600Y-84412916D01*
X156819600Y-83667600D01*
X157632400Y-83667600D01*
X157632400Y-84412916D01*
D20*
G04 #@! TO.N,+3V3*
G36*
X152273000Y-76327000D02*
X152282667Y-76375601D01*
X152310197Y-76416803D01*
X154469197Y-78575803D01*
X154510399Y-78603333D01*
X154559000Y-78613000D01*
X157681394Y-78613000D01*
X157988000Y-78919606D01*
X157988000Y-81100394D01*
X157644197Y-81444197D01*
X157616667Y-81485399D01*
X157607000Y-81534000D01*
X157607000Y-82550000D01*
X157616667Y-82598601D01*
X157644197Y-82639803D01*
X157898197Y-82893803D01*
X157939399Y-82921333D01*
X157988000Y-82931000D01*
X158012569Y-82931000D01*
X158319175Y-83058000D01*
X158443394Y-83058000D01*
X158750000Y-83364606D01*
X158750000Y-85090000D01*
X158759667Y-85138601D01*
X158787197Y-85179803D01*
X158828399Y-85207333D01*
X158877000Y-85217000D01*
X161491394Y-85217000D01*
X161671000Y-85396606D01*
X161671000Y-86053394D01*
X160221394Y-87503000D01*
X159385000Y-87503000D01*
X159385000Y-86360000D01*
X159375333Y-86311399D01*
X159347803Y-86270197D01*
X159306601Y-86242667D01*
X159258000Y-86233000D01*
X158802606Y-86233000D01*
X158496000Y-85926394D01*
X158496000Y-83439000D01*
X158486333Y-83390399D01*
X158458803Y-83349197D01*
X158204803Y-83095197D01*
X158163601Y-83067667D01*
X158115000Y-83058000D01*
X157786606Y-83058000D01*
X157226000Y-82497394D01*
X157226000Y-81332606D01*
X157442803Y-81115803D01*
X157470333Y-81074601D01*
X157480000Y-81026000D01*
X157480000Y-80137000D01*
X157470333Y-80088399D01*
X157442803Y-80047197D01*
X156934803Y-79539197D01*
X156893601Y-79511667D01*
X156845000Y-79502000D01*
X154484606Y-79502000D01*
X151384000Y-76401394D01*
X151384000Y-74422000D01*
X151374333Y-74373399D01*
X151346803Y-74332197D01*
X151305601Y-74304667D01*
X151257000Y-74295000D01*
X138684000Y-74295000D01*
X138684000Y-73533000D01*
X152273000Y-73533000D01*
X152273000Y-76327000D01*
X152273000Y-76327000D01*
G37*
X152273000Y-76327000D02*
X152282667Y-76375601D01*
X152310197Y-76416803D01*
X154469197Y-78575803D01*
X154510399Y-78603333D01*
X154559000Y-78613000D01*
X157681394Y-78613000D01*
X157988000Y-78919606D01*
X157988000Y-81100394D01*
X157644197Y-81444197D01*
X157616667Y-81485399D01*
X157607000Y-81534000D01*
X157607000Y-82550000D01*
X157616667Y-82598601D01*
X157644197Y-82639803D01*
X157898197Y-82893803D01*
X157939399Y-82921333D01*
X157988000Y-82931000D01*
X158012569Y-82931000D01*
X158319175Y-83058000D01*
X158443394Y-83058000D01*
X158750000Y-83364606D01*
X158750000Y-85090000D01*
X158759667Y-85138601D01*
X158787197Y-85179803D01*
X158828399Y-85207333D01*
X158877000Y-85217000D01*
X161491394Y-85217000D01*
X161671000Y-85396606D01*
X161671000Y-86053394D01*
X160221394Y-87503000D01*
X159385000Y-87503000D01*
X159385000Y-86360000D01*
X159375333Y-86311399D01*
X159347803Y-86270197D01*
X159306601Y-86242667D01*
X159258000Y-86233000D01*
X158802606Y-86233000D01*
X158496000Y-85926394D01*
X158496000Y-83439000D01*
X158486333Y-83390399D01*
X158458803Y-83349197D01*
X158204803Y-83095197D01*
X158163601Y-83067667D01*
X158115000Y-83058000D01*
X157786606Y-83058000D01*
X157226000Y-82497394D01*
X157226000Y-81332606D01*
X157442803Y-81115803D01*
X157470333Y-81074601D01*
X157480000Y-81026000D01*
X157480000Y-80137000D01*
X157470333Y-80088399D01*
X157442803Y-80047197D01*
X156934803Y-79539197D01*
X156893601Y-79511667D01*
X156845000Y-79502000D01*
X154484606Y-79502000D01*
X151384000Y-76401394D01*
X151384000Y-74422000D01*
X151374333Y-74373399D01*
X151346803Y-74332197D01*
X151305601Y-74304667D01*
X151257000Y-74295000D01*
X138684000Y-74295000D01*
X138684000Y-73533000D01*
X152273000Y-73533000D01*
X152273000Y-76327000D01*
G04 #@! TO.N,GNDREF*
G36*
X139456996Y-68755336D02*
X139250987Y-68892987D01*
X139113336Y-69098996D01*
X139065000Y-69342000D01*
X139065000Y-71120000D01*
X139113336Y-71363004D01*
X139250987Y-71569013D01*
X140706974Y-73025000D01*
X140155221Y-73025000D01*
X140109351Y-73006000D01*
X139798649Y-73006000D01*
X139752779Y-73025000D01*
X139139217Y-73025000D01*
X139093347Y-73006000D01*
X138782645Y-73006000D01*
X138736775Y-73025000D01*
X138557000Y-73025000D01*
X138411198Y-73054002D01*
X138287592Y-73136592D01*
X138205002Y-73260198D01*
X138176000Y-73406000D01*
X138176000Y-73585769D01*
X138156996Y-73631649D01*
X138156996Y-73942351D01*
X138176000Y-73988231D01*
X138176000Y-74422000D01*
X138205002Y-74567802D01*
X138287592Y-74691408D01*
X138411198Y-74773998D01*
X138557000Y-74803000D01*
X150876000Y-74803000D01*
X150876000Y-76454000D01*
X150905002Y-76599802D01*
X150987592Y-76723408D01*
X154162592Y-79898408D01*
X154286198Y-79980998D01*
X154432000Y-80010000D01*
X156687184Y-80010000D01*
X156955502Y-80278318D01*
X156933536Y-80388750D01*
X156933536Y-80901250D01*
X156934432Y-80905752D01*
X156829592Y-81010592D01*
X156747002Y-81134198D01*
X156718000Y-81280000D01*
X156718000Y-82550000D01*
X156747002Y-82695802D01*
X156829592Y-82819408D01*
X157195184Y-83185000D01*
X156718000Y-83185000D01*
X156572198Y-83214002D01*
X156448592Y-83296592D01*
X156366002Y-83420198D01*
X156337000Y-83566000D01*
X156337000Y-84455000D01*
X156366002Y-84600802D01*
X156448592Y-84724408D01*
X156591000Y-84866816D01*
X156591000Y-85148376D01*
X156552536Y-85341750D01*
X156552536Y-85854250D01*
X156553432Y-85858752D01*
X156067592Y-86344592D01*
X155985002Y-86468198D01*
X155956000Y-86614000D01*
X155956000Y-88900000D01*
X155985002Y-89045802D01*
X156067592Y-89169408D01*
X157099000Y-90200816D01*
X157099000Y-90901184D01*
X157083592Y-90916592D01*
X157001002Y-91040198D01*
X156972000Y-91186000D01*
X156972000Y-91694000D01*
X157001002Y-91839802D01*
X157083592Y-91963408D01*
X157337592Y-92217408D01*
X157461198Y-92299998D01*
X157607000Y-92329000D01*
X157684148Y-92329000D01*
X157684167Y-92329008D01*
X158037833Y-92329008D01*
X158037852Y-92329000D01*
X158623000Y-92329000D01*
X158768802Y-92299998D01*
X158892408Y-92217408D01*
X158974998Y-92093802D01*
X159004000Y-91948000D01*
X159004000Y-90094450D01*
X159522940Y-89662000D01*
X161091255Y-89662000D01*
X161102592Y-89666696D01*
X161456258Y-89666696D01*
X161467595Y-89662000D01*
X161671000Y-89662000D01*
X161816802Y-89632998D01*
X161940408Y-89550408D01*
X162022998Y-89426802D01*
X162052000Y-89281000D01*
X162052000Y-89235604D01*
X162168425Y-88954529D01*
X162168425Y-88600863D01*
X162033083Y-88274118D01*
X162027427Y-88268462D01*
X162022998Y-88246198D01*
X161940408Y-88122592D01*
X161816802Y-88040002D01*
X161794538Y-88035573D01*
X161783003Y-88024038D01*
X161456258Y-87888696D01*
X161102592Y-87888696D01*
X160807324Y-88011000D01*
X160274000Y-88011000D01*
X160419802Y-87981998D01*
X160543408Y-87899408D01*
X161058940Y-87383876D01*
X161098535Y-87376000D01*
X162119622Y-87376000D01*
X162128385Y-87389115D01*
X162325379Y-87520743D01*
X162557750Y-87566964D01*
X163070250Y-87566964D01*
X163302621Y-87520743D01*
X163499615Y-87389115D01*
X163576000Y-87274797D01*
X163652385Y-87389115D01*
X163849379Y-87520743D01*
X164081750Y-87566964D01*
X164594250Y-87566964D01*
X164826621Y-87520743D01*
X165023615Y-87389115D01*
X165032378Y-87376000D01*
X166177932Y-87376000D01*
X166240469Y-87388439D01*
X166303006Y-87376000D01*
X166303010Y-87376000D01*
X166488234Y-87339157D01*
X166698278Y-87198809D01*
X166733707Y-87145786D01*
X166887104Y-86992390D01*
X167054912Y-86992390D01*
X167381657Y-86857048D01*
X167631737Y-86606968D01*
X167767079Y-86280223D01*
X167767079Y-85926557D01*
X167631737Y-85599812D01*
X167381657Y-85349732D01*
X167054912Y-85214390D01*
X166701246Y-85214390D01*
X166374501Y-85349732D01*
X166124421Y-85599812D01*
X165989079Y-85926557D01*
X165989079Y-86094365D01*
X165977444Y-86106000D01*
X165032378Y-86106000D01*
X165023615Y-86092885D01*
X164826621Y-85961257D01*
X164594250Y-85915036D01*
X164081750Y-85915036D01*
X163849379Y-85961257D01*
X163652385Y-86092885D01*
X163576000Y-86207203D01*
X163499615Y-86092885D01*
X163302621Y-85961257D01*
X163070250Y-85915036D01*
X162557750Y-85915036D01*
X162325379Y-85961257D01*
X162179000Y-86059065D01*
X162179000Y-85344000D01*
X162149998Y-85198198D01*
X162067408Y-85074592D01*
X161990545Y-84997729D01*
X161975615Y-84975385D01*
X161953271Y-84960455D01*
X161813408Y-84820592D01*
X161689802Y-84738002D01*
X161544000Y-84709000D01*
X159258000Y-84709000D01*
X159258000Y-83312000D01*
X159228998Y-83166198D01*
X159146408Y-83042592D01*
X159013030Y-82909214D01*
X159249666Y-82672578D01*
X159258000Y-82652458D01*
X159258000Y-82853833D01*
X159393342Y-83180578D01*
X159643422Y-83430658D01*
X159970167Y-83566000D01*
X160323833Y-83566000D01*
X160650578Y-83430658D01*
X160900658Y-83180578D01*
X161036000Y-82853833D01*
X161036000Y-82500167D01*
X160900658Y-82173422D01*
X160650578Y-81923342D01*
X160323833Y-81788000D01*
X159970167Y-81788000D01*
X159923789Y-81807210D01*
X159588200Y-81471622D01*
X159588200Y-76464868D01*
X159634578Y-76445658D01*
X159884658Y-76195578D01*
X160020000Y-75868833D01*
X160020000Y-75515167D01*
X159884658Y-75188422D01*
X159634578Y-74938342D01*
X159307833Y-74803000D01*
X158954167Y-74803000D01*
X158627422Y-74938342D01*
X158377342Y-75188422D01*
X158279197Y-75425364D01*
X158233658Y-75315422D01*
X157983578Y-75065342D01*
X157656833Y-74930000D01*
X157303167Y-74930000D01*
X156976422Y-75065342D01*
X156726342Y-75315422D01*
X156591000Y-75642167D01*
X156591000Y-75995833D01*
X156726342Y-76322578D01*
X156976422Y-76572658D01*
X157303167Y-76708000D01*
X157656833Y-76708000D01*
X157703211Y-76688790D01*
X158038808Y-77024387D01*
X158038808Y-78251992D01*
X158003408Y-78216592D01*
X157879802Y-78134002D01*
X157734000Y-78105000D01*
X154716816Y-78105000D01*
X152781000Y-76169184D01*
X152781000Y-73406000D01*
X165735000Y-73406000D01*
X165735000Y-73914000D01*
X165289536Y-73914000D01*
X165226999Y-73901561D01*
X165164462Y-73914000D01*
X165164459Y-73914000D01*
X164979235Y-73950843D01*
X164769191Y-74091191D01*
X164733764Y-74144211D01*
X161647214Y-77230762D01*
X161594191Y-77266191D01*
X161453843Y-77476236D01*
X161417000Y-77661460D01*
X161417000Y-77661463D01*
X161404561Y-77724000D01*
X161417000Y-77786537D01*
X161417001Y-79937564D01*
X161366385Y-79971385D01*
X161234757Y-80168379D01*
X161188536Y-80400750D01*
X161188536Y-80838250D01*
X161234757Y-81070621D01*
X161366385Y-81267615D01*
X161563379Y-81399243D01*
X161602376Y-81407000D01*
X161563379Y-81414757D01*
X161366385Y-81546385D01*
X161234757Y-81743379D01*
X161188536Y-81975750D01*
X161188536Y-82413250D01*
X161234757Y-82645621D01*
X161366385Y-82842615D01*
X161563379Y-82974243D01*
X161795750Y-83020464D01*
X162231386Y-83020464D01*
X163195370Y-83984449D01*
X163220877Y-84022623D01*
X163259051Y-84048130D01*
X163272604Y-84057186D01*
X163330342Y-84196578D01*
X163580422Y-84446658D01*
X163907167Y-84582000D01*
X164260833Y-84582000D01*
X164587578Y-84446658D01*
X164837658Y-84196578D01*
X164973000Y-83869833D01*
X164973000Y-83516167D01*
X164837658Y-83189422D01*
X164680700Y-83032464D01*
X164785250Y-83032464D01*
X165017621Y-82986243D01*
X165214615Y-82854615D01*
X165346243Y-82657621D01*
X165392464Y-82425250D01*
X165392464Y-81912750D01*
X165360735Y-81753235D01*
X165603578Y-81652646D01*
X165853658Y-81402566D01*
X165989000Y-81075821D01*
X165989000Y-80722155D01*
X165853658Y-80395410D01*
X165603578Y-80145330D01*
X165557200Y-80126120D01*
X165557200Y-80072378D01*
X167194379Y-78435200D01*
X169863622Y-78435200D01*
X170205868Y-78777446D01*
X170231377Y-78815623D01*
X170382609Y-78916673D01*
X170515970Y-78943200D01*
X170515974Y-78943200D01*
X170560999Y-78952156D01*
X170606024Y-78943200D01*
X171220281Y-78943200D01*
X171265311Y-78952157D01*
X171310341Y-78943200D01*
X171443702Y-78916673D01*
X171576461Y-78827966D01*
X171642595Y-78894100D01*
X171754801Y-78940577D01*
X171754800Y-81344621D01*
X171502385Y-81597036D01*
X171066750Y-81597036D01*
X170834379Y-81643257D01*
X170637385Y-81774885D01*
X170505757Y-81971879D01*
X170459536Y-82204250D01*
X170459536Y-82641750D01*
X170505757Y-82874121D01*
X170637385Y-83071115D01*
X170834379Y-83202743D01*
X170873376Y-83210500D01*
X170834379Y-83218257D01*
X170637385Y-83349885D01*
X170505757Y-83546879D01*
X170459536Y-83779250D01*
X170459536Y-84214886D01*
X162142223Y-92532199D01*
X156567051Y-92532199D01*
X156522021Y-92523242D01*
X156476991Y-92532199D01*
X156343630Y-92558726D01*
X156192398Y-92659776D01*
X156166891Y-92697951D01*
X155985539Y-92879303D01*
X155824578Y-92718342D01*
X155497833Y-92583000D01*
X155144167Y-92583000D01*
X154817422Y-92718342D01*
X154567342Y-92968422D01*
X154432000Y-93295167D01*
X154432000Y-93648833D01*
X154567342Y-93975578D01*
X154817422Y-94225658D01*
X155144167Y-94361000D01*
X155497833Y-94361000D01*
X155824578Y-94225658D01*
X156074658Y-93975578D01*
X156094714Y-93927158D01*
X156217811Y-93902673D01*
X156369043Y-93801623D01*
X156394552Y-93763446D01*
X156711400Y-93446599D01*
X157522489Y-93446599D01*
X157480004Y-93549167D01*
X157480004Y-93902833D01*
X157615346Y-94229578D01*
X157865426Y-94479658D01*
X158192171Y-94615000D01*
X158545837Y-94615000D01*
X158872582Y-94479658D01*
X159122662Y-94229578D01*
X159141872Y-94183200D01*
X163073970Y-94183200D01*
X163119000Y-94192157D01*
X163164030Y-94183200D01*
X163297391Y-94156673D01*
X163448623Y-94055623D01*
X163474132Y-94017446D01*
X172667614Y-84823964D01*
X173103250Y-84823964D01*
X173335621Y-84777743D01*
X173532615Y-84646115D01*
X173664243Y-84449121D01*
X173710464Y-84216750D01*
X173710464Y-83779250D01*
X173664243Y-83546879D01*
X173532615Y-83349885D01*
X173335621Y-83218257D01*
X173296624Y-83210500D01*
X173335621Y-83202743D01*
X173532615Y-83071115D01*
X173664243Y-82874121D01*
X173710464Y-82641750D01*
X173710464Y-82204250D01*
X173664243Y-81971879D01*
X173532615Y-81774885D01*
X173335621Y-81643257D01*
X173304200Y-81637007D01*
X173304200Y-78108695D01*
X173304935Y-78105000D01*
X174752000Y-78105000D01*
X174995004Y-78056664D01*
X175201013Y-77919013D01*
X175338664Y-77713004D01*
X175387000Y-77470000D01*
X175387000Y-77304501D01*
X175414100Y-77277401D01*
X175533000Y-76990351D01*
X175533000Y-76679649D01*
X175414100Y-76392599D01*
X175387000Y-76365499D01*
X175387000Y-71120000D01*
X175338664Y-70876996D01*
X175201013Y-70670987D01*
X174995004Y-70533336D01*
X174752000Y-70485000D01*
X146304000Y-70485000D01*
X146304000Y-69342000D01*
X146255664Y-69098996D01*
X146118013Y-68892987D01*
X145912004Y-68755336D01*
X145669000Y-68707000D01*
X179017394Y-68707000D01*
X180939229Y-70628835D01*
X180899000Y-70725955D01*
X180899000Y-71514045D01*
X181200589Y-72242146D01*
X181757854Y-72799411D01*
X182485955Y-73101000D01*
X183274045Y-73101000D01*
X183371165Y-73060771D01*
X185293000Y-74982606D01*
X185293000Y-96467394D01*
X184190976Y-97569419D01*
X184002146Y-97380589D01*
X183274045Y-97079000D01*
X182485955Y-97079000D01*
X181757854Y-97380589D01*
X181200589Y-97937854D01*
X180899000Y-98665955D01*
X180899000Y-99454045D01*
X181200589Y-100182146D01*
X181389419Y-100370976D01*
X180287394Y-101473000D01*
X175511120Y-101473000D01*
X175893501Y-101217501D01*
X176165576Y-100810312D01*
X176261116Y-100330000D01*
X176165576Y-99849688D01*
X175893501Y-99442499D01*
X175486312Y-99170424D01*
X175127239Y-99099000D01*
X174884761Y-99099000D01*
X174525688Y-99170424D01*
X174118499Y-99442499D01*
X173846424Y-99849688D01*
X173750884Y-100330000D01*
X173846424Y-100810312D01*
X174118499Y-101217501D01*
X174500880Y-101473000D01*
X172971120Y-101473000D01*
X173353501Y-101217501D01*
X173625576Y-100810312D01*
X173721116Y-100330000D01*
X173625576Y-99849688D01*
X173353501Y-99442499D01*
X172946312Y-99170424D01*
X172587239Y-99099000D01*
X172344761Y-99099000D01*
X171985688Y-99170424D01*
X171578499Y-99442499D01*
X171306424Y-99849688D01*
X171210884Y-100330000D01*
X171306424Y-100810312D01*
X171578499Y-101217501D01*
X171960880Y-101473000D01*
X170431120Y-101473000D01*
X170813501Y-101217501D01*
X171085576Y-100810312D01*
X171181116Y-100330000D01*
X171085576Y-99849688D01*
X170813501Y-99442499D01*
X170406312Y-99170424D01*
X170047239Y-99099000D01*
X169804761Y-99099000D01*
X169445688Y-99170424D01*
X169038499Y-99442499D01*
X168766424Y-99849688D01*
X168670884Y-100330000D01*
X168766424Y-100810312D01*
X169038499Y-101217501D01*
X169420880Y-101473000D01*
X167891120Y-101473000D01*
X168273501Y-101217501D01*
X168545576Y-100810312D01*
X168641116Y-100330000D01*
X168545576Y-99849688D01*
X168273501Y-99442499D01*
X167866312Y-99170424D01*
X167507239Y-99099000D01*
X167264761Y-99099000D01*
X166905688Y-99170424D01*
X166498499Y-99442499D01*
X166226424Y-99849688D01*
X166130884Y-100330000D01*
X166226424Y-100810312D01*
X166498499Y-101217501D01*
X166880880Y-101473000D01*
X165351120Y-101473000D01*
X165733501Y-101217501D01*
X166005576Y-100810312D01*
X166101116Y-100330000D01*
X166005576Y-99849688D01*
X165733501Y-99442499D01*
X165326312Y-99170424D01*
X164967239Y-99099000D01*
X164724761Y-99099000D01*
X164365688Y-99170424D01*
X163958499Y-99442499D01*
X163686424Y-99849688D01*
X163590884Y-100330000D01*
X163686424Y-100810312D01*
X163958499Y-101217501D01*
X164340880Y-101473000D01*
X162811120Y-101473000D01*
X163193501Y-101217501D01*
X163465576Y-100810312D01*
X163561116Y-100330000D01*
X163465576Y-99849688D01*
X163193501Y-99442499D01*
X162786312Y-99170424D01*
X162427239Y-99099000D01*
X162184761Y-99099000D01*
X161825688Y-99170424D01*
X161418499Y-99442499D01*
X161146424Y-99849688D01*
X161050884Y-100330000D01*
X161146424Y-100810312D01*
X161418499Y-101217501D01*
X161800880Y-101473000D01*
X160271120Y-101473000D01*
X160653501Y-101217501D01*
X160925576Y-100810312D01*
X161021116Y-100330000D01*
X160925576Y-99849688D01*
X160653501Y-99442499D01*
X160246312Y-99170424D01*
X159887239Y-99099000D01*
X159644761Y-99099000D01*
X159285688Y-99170424D01*
X158878499Y-99442499D01*
X158606424Y-99849688D01*
X158510884Y-100330000D01*
X158606424Y-100810312D01*
X158878499Y-101217501D01*
X159260880Y-101473000D01*
X157731120Y-101473000D01*
X158113501Y-101217501D01*
X158385576Y-100810312D01*
X158481116Y-100330000D01*
X158385576Y-99849688D01*
X158113501Y-99442499D01*
X157706312Y-99170424D01*
X157347239Y-99099000D01*
X157104761Y-99099000D01*
X156745688Y-99170424D01*
X156338499Y-99442499D01*
X156066424Y-99849688D01*
X155970884Y-100330000D01*
X156066424Y-100810312D01*
X156338499Y-101217501D01*
X156720880Y-101473000D01*
X155191120Y-101473000D01*
X155573501Y-101217501D01*
X155845576Y-100810312D01*
X155941116Y-100330000D01*
X155845576Y-99849688D01*
X155832484Y-99830095D01*
X156247449Y-99415130D01*
X156285623Y-99389623D01*
X156386673Y-99238391D01*
X156413200Y-99105030D01*
X156413200Y-99105029D01*
X156422157Y-99060001D01*
X156413200Y-99014971D01*
X156413200Y-98727415D01*
X156745688Y-98949576D01*
X157104761Y-99021000D01*
X157347239Y-99021000D01*
X157706312Y-98949576D01*
X158113501Y-98677501D01*
X158385576Y-98270312D01*
X158481116Y-97790000D01*
X158510884Y-97790000D01*
X158606424Y-98270312D01*
X158878499Y-98677501D01*
X159285688Y-98949576D01*
X159644761Y-99021000D01*
X159887239Y-99021000D01*
X160246312Y-98949576D01*
X160653501Y-98677501D01*
X160925576Y-98270312D01*
X161021116Y-97790000D01*
X161050884Y-97790000D01*
X161146424Y-98270312D01*
X161418499Y-98677501D01*
X161825688Y-98949576D01*
X162184761Y-99021000D01*
X162427239Y-99021000D01*
X162786312Y-98949576D01*
X163193501Y-98677501D01*
X163465576Y-98270312D01*
X163561116Y-97790000D01*
X163465576Y-97309688D01*
X163193501Y-96902499D01*
X162786312Y-96630424D01*
X162427239Y-96559000D01*
X162184761Y-96559000D01*
X161825688Y-96630424D01*
X161418499Y-96902499D01*
X161146424Y-97309688D01*
X161050884Y-97790000D01*
X161021116Y-97790000D01*
X160925576Y-97309688D01*
X160653501Y-96902499D01*
X160246312Y-96630424D01*
X159887239Y-96559000D01*
X159644761Y-96559000D01*
X159285688Y-96630424D01*
X158878499Y-96902499D01*
X158606424Y-97309688D01*
X158510884Y-97790000D01*
X158481116Y-97790000D01*
X158385576Y-97309688D01*
X158113501Y-96902499D01*
X157706312Y-96630424D01*
X157347239Y-96559000D01*
X157104761Y-96559000D01*
X156746270Y-96630308D01*
X156907379Y-96469200D01*
X165520222Y-96469200D01*
X165345906Y-96643516D01*
X165326312Y-96630424D01*
X164967239Y-96559000D01*
X164724761Y-96559000D01*
X164365688Y-96630424D01*
X163958499Y-96902499D01*
X163686424Y-97309688D01*
X163590884Y-97790000D01*
X163686424Y-98270312D01*
X163958499Y-98677501D01*
X164365688Y-98949576D01*
X164724761Y-99021000D01*
X164967239Y-99021000D01*
X165326312Y-98949576D01*
X165733501Y-98677501D01*
X166005576Y-98270312D01*
X166101116Y-97790000D01*
X166005576Y-97309688D01*
X165992484Y-97290094D01*
X166432378Y-96850200D01*
X166576770Y-96850200D01*
X166498499Y-96902499D01*
X166226424Y-97309688D01*
X166130884Y-97790000D01*
X166226424Y-98270312D01*
X166498499Y-98677501D01*
X166905688Y-98949576D01*
X167264761Y-99021000D01*
X167507239Y-99021000D01*
X167866312Y-98949576D01*
X168273501Y-98677501D01*
X168545576Y-98270312D01*
X168641116Y-97790000D01*
X168562983Y-97397201D01*
X168749017Y-97397201D01*
X168670884Y-97790000D01*
X168766424Y-98270312D01*
X169038499Y-98677501D01*
X169445688Y-98949576D01*
X169804761Y-99021000D01*
X170047239Y-99021000D01*
X170406312Y-98949576D01*
X170813501Y-98677501D01*
X171085576Y-98270312D01*
X171181116Y-97790000D01*
X171164436Y-97706143D01*
X171243239Y-97627339D01*
X171210884Y-97790000D01*
X171306424Y-98270312D01*
X171578499Y-98677501D01*
X171985688Y-98949576D01*
X172344761Y-99021000D01*
X172587239Y-99021000D01*
X172946312Y-98949576D01*
X173353501Y-98677501D01*
X173625576Y-98270312D01*
X173721116Y-97790000D01*
X173750884Y-97790000D01*
X173846424Y-98270312D01*
X174118499Y-98677501D01*
X174525688Y-98949576D01*
X174884761Y-99021000D01*
X175127239Y-99021000D01*
X175486312Y-98949576D01*
X175893501Y-98677501D01*
X176165576Y-98270312D01*
X176261116Y-97790000D01*
X176290884Y-97790000D01*
X176386424Y-98270312D01*
X176658499Y-98677501D01*
X177065688Y-98949576D01*
X177424761Y-99021000D01*
X177667239Y-99021000D01*
X178026312Y-98949576D01*
X178433501Y-98677501D01*
X178705576Y-98270312D01*
X178801116Y-97790000D01*
X178705576Y-97309688D01*
X178433501Y-96902499D01*
X178026312Y-96630424D01*
X177667239Y-96559000D01*
X177424761Y-96559000D01*
X177065688Y-96630424D01*
X176658499Y-96902499D01*
X176386424Y-97309688D01*
X176290884Y-97790000D01*
X176261116Y-97790000D01*
X176165576Y-97309688D01*
X175893501Y-96902499D01*
X175486312Y-96630424D01*
X175127239Y-96559000D01*
X174884761Y-96559000D01*
X174525688Y-96630424D01*
X174118499Y-96902499D01*
X173846424Y-97309688D01*
X173750884Y-97790000D01*
X173721116Y-97790000D01*
X173625576Y-97309688D01*
X173612484Y-97290094D01*
X174916449Y-95986130D01*
X174954623Y-95960623D01*
X175055673Y-95809391D01*
X175081245Y-95680833D01*
X175091157Y-95631001D01*
X175082200Y-95585971D01*
X175082200Y-87259868D01*
X175128578Y-87240658D01*
X175378658Y-86990578D01*
X175514000Y-86663833D01*
X175514000Y-86310167D01*
X175378658Y-85983422D01*
X175128578Y-85733342D01*
X174801833Y-85598000D01*
X174448167Y-85598000D01*
X174121422Y-85733342D01*
X173871342Y-85983422D01*
X173736000Y-86310167D01*
X173736000Y-86614000D01*
X173432167Y-86614000D01*
X173105422Y-86749342D01*
X172855342Y-86999422D01*
X172720000Y-87326167D01*
X172720000Y-87679833D01*
X172751964Y-87757000D01*
X172543167Y-87757000D01*
X172216422Y-87892342D01*
X171966342Y-88142422D01*
X171831000Y-88469167D01*
X171831000Y-88773000D01*
X171654171Y-88773000D01*
X171327426Y-88908342D01*
X171077346Y-89158422D01*
X170942004Y-89485167D01*
X170942004Y-89838833D01*
X171077346Y-90165578D01*
X171327426Y-90415658D01*
X171654171Y-90551000D01*
X172007837Y-90551000D01*
X172054215Y-90531789D01*
X172643801Y-91121375D01*
X172643800Y-94212611D01*
X172388833Y-94107000D01*
X172273779Y-94107000D01*
X172273779Y-93847288D01*
X172138437Y-93520543D01*
X171888357Y-93270463D01*
X171561612Y-93135121D01*
X171323000Y-93135121D01*
X171323000Y-92914161D01*
X171187658Y-92587416D01*
X170937578Y-92337336D01*
X170610833Y-92201994D01*
X170257167Y-92201994D01*
X169930422Y-92337336D01*
X169680342Y-92587416D01*
X169545000Y-92914161D01*
X169545000Y-93267827D01*
X169680342Y-93594572D01*
X169930422Y-93844652D01*
X169976800Y-93863863D01*
X169976800Y-94157800D01*
X168828030Y-94157800D01*
X168783000Y-94148843D01*
X168737970Y-94157800D01*
X168604609Y-94184327D01*
X168453377Y-94285377D01*
X168427868Y-94323554D01*
X167958622Y-94792800D01*
X152191029Y-94792800D01*
X152145999Y-94783843D01*
X151976246Y-94817609D01*
X151967609Y-94819327D01*
X151816377Y-94920377D01*
X151790870Y-94958551D01*
X150584552Y-96164870D01*
X150546378Y-96190377D01*
X150520871Y-96228551D01*
X150520870Y-96228552D01*
X150445327Y-96341610D01*
X150409843Y-96520000D01*
X150418801Y-96565035D01*
X150418801Y-96852586D01*
X150317200Y-96784698D01*
X150317200Y-93101878D01*
X150363578Y-93082668D01*
X150613658Y-92832588D01*
X150749000Y-92505843D01*
X150749000Y-92152177D01*
X150613658Y-91825432D01*
X150418731Y-91630505D01*
X150613658Y-91435578D01*
X150749000Y-91108833D01*
X150749000Y-90755167D01*
X150613658Y-90428422D01*
X150418739Y-90233503D01*
X150613658Y-90038584D01*
X150749000Y-89711839D01*
X150749000Y-89358173D01*
X150613658Y-89031428D01*
X150363578Y-88781348D01*
X150036833Y-88646006D01*
X149683167Y-88646006D01*
X149356422Y-88781348D01*
X149106342Y-89031428D01*
X148971000Y-89358173D01*
X148971000Y-89711839D01*
X148990210Y-89758217D01*
X148298554Y-90449874D01*
X148260377Y-90475383D01*
X148192566Y-90576870D01*
X148159327Y-90626616D01*
X148123843Y-90805006D01*
X148132800Y-90850036D01*
X148132800Y-90910611D01*
X147877833Y-90805000D01*
X147524167Y-90805000D01*
X147197422Y-90940342D01*
X146947342Y-91190422D01*
X146812000Y-91517167D01*
X146812000Y-91870833D01*
X146831210Y-91917211D01*
X143574622Y-95173800D01*
X141514878Y-95173800D01*
X138341464Y-92000386D01*
X138341464Y-91691750D01*
X144360536Y-91691750D01*
X144360536Y-92204250D01*
X144406757Y-92436621D01*
X144538385Y-92633615D01*
X144735379Y-92765243D01*
X144967750Y-92811464D01*
X145405250Y-92811464D01*
X145637621Y-92765243D01*
X145834615Y-92633615D01*
X145966243Y-92436621D01*
X146012464Y-92204250D01*
X146012464Y-91743114D01*
X147102911Y-90652667D01*
X147144758Y-90670000D01*
X147495242Y-90670000D01*
X147819047Y-90535876D01*
X148066876Y-90288047D01*
X148201000Y-89964242D01*
X148201000Y-89613758D01*
X148066876Y-89289953D01*
X147819047Y-89042124D01*
X147495242Y-88908000D01*
X147144758Y-88908000D01*
X146820953Y-89042124D01*
X146573124Y-89289953D01*
X146439000Y-89613758D01*
X146439000Y-89964242D01*
X146456333Y-90006089D01*
X145377886Y-91084536D01*
X144967750Y-91084536D01*
X144735379Y-91130757D01*
X144538385Y-91262385D01*
X144406757Y-91459379D01*
X144360536Y-91691750D01*
X138341464Y-91691750D01*
X138341464Y-91564750D01*
X138295243Y-91332379D01*
X138163615Y-91135385D01*
X137966621Y-91003757D01*
X137734250Y-90957536D01*
X137296750Y-90957536D01*
X137064379Y-91003757D01*
X136867385Y-91135385D01*
X136857466Y-91150230D01*
X136647578Y-90940342D01*
X136320833Y-90805000D01*
X135967167Y-90805000D01*
X135640422Y-90940342D01*
X135390342Y-91190422D01*
X135255000Y-91517167D01*
X135255000Y-91870833D01*
X135390342Y-92197578D01*
X135640422Y-92447658D01*
X135967167Y-92583000D01*
X136320833Y-92583000D01*
X136647578Y-92447658D01*
X136755727Y-92339509D01*
X136867385Y-92506615D01*
X137064379Y-92638243D01*
X137296750Y-92684464D01*
X137732386Y-92684464D01*
X138646916Y-93598994D01*
X138507167Y-93598994D01*
X138180422Y-93734336D01*
X137930342Y-93984416D01*
X137795000Y-94311161D01*
X137795000Y-94615000D01*
X137618167Y-94615000D01*
X137291422Y-94750342D01*
X137041342Y-95000422D01*
X136906000Y-95327167D01*
X136906000Y-95680833D01*
X137041342Y-96007578D01*
X137291422Y-96257658D01*
X137357925Y-96285204D01*
X137364327Y-96317390D01*
X137465377Y-96468623D01*
X137503554Y-96494132D01*
X138299516Y-97290094D01*
X138286424Y-97309688D01*
X138190884Y-97790000D01*
X138286424Y-98270312D01*
X138558499Y-98677501D01*
X138965688Y-98949576D01*
X139324761Y-99021000D01*
X139567239Y-99021000D01*
X139926312Y-98949576D01*
X140333501Y-98677501D01*
X140605576Y-98270312D01*
X140701116Y-97790000D01*
X140605576Y-97309688D01*
X140333501Y-96902499D01*
X139926312Y-96630424D01*
X139567239Y-96559000D01*
X139324761Y-96559000D01*
X138965688Y-96630424D01*
X138946094Y-96643516D01*
X138429407Y-96126829D01*
X138548658Y-96007578D01*
X138684000Y-95680833D01*
X138684000Y-95376994D01*
X138860833Y-95376994D01*
X138907207Y-95357785D01*
X140839516Y-97290095D01*
X140826424Y-97309688D01*
X140730884Y-97790000D01*
X140826424Y-98270312D01*
X141098499Y-98677501D01*
X141505688Y-98949576D01*
X141864761Y-99021000D01*
X142107239Y-99021000D01*
X142466312Y-98949576D01*
X142873501Y-98677501D01*
X143145576Y-98270312D01*
X143241116Y-97790000D01*
X143145576Y-97309688D01*
X142873501Y-96902499D01*
X142466312Y-96630424D01*
X142107239Y-96559000D01*
X141864761Y-96559000D01*
X141505688Y-96630424D01*
X141486095Y-96643516D01*
X139553788Y-94711210D01*
X139573000Y-94664827D01*
X139573000Y-94525078D01*
X140970368Y-95922446D01*
X140995877Y-95960623D01*
X141135391Y-96053843D01*
X141147109Y-96061673D01*
X141325500Y-96097157D01*
X141370530Y-96088200D01*
X143718970Y-96088200D01*
X143764000Y-96097157D01*
X143809030Y-96088200D01*
X143942391Y-96061673D01*
X144093623Y-95960623D01*
X144119132Y-95922446D01*
X147477789Y-92563790D01*
X147524167Y-92583000D01*
X147877833Y-92583000D01*
X148132800Y-92477389D01*
X148132801Y-95187620D01*
X147511622Y-95808800D01*
X146095024Y-95808800D01*
X146049999Y-95799844D01*
X146004974Y-95808800D01*
X146004970Y-95808800D01*
X145871609Y-95835327D01*
X145720377Y-95936377D01*
X145694868Y-95974554D01*
X145025906Y-96643516D01*
X145006312Y-96630424D01*
X144647239Y-96559000D01*
X144404761Y-96559000D01*
X144045688Y-96630424D01*
X143638499Y-96902499D01*
X143366424Y-97309688D01*
X143270884Y-97790000D01*
X143366424Y-98270312D01*
X143638499Y-98677501D01*
X144045688Y-98949576D01*
X144404761Y-99021000D01*
X144647239Y-99021000D01*
X145006312Y-98949576D01*
X145413501Y-98677501D01*
X145685576Y-98270312D01*
X145781116Y-97790000D01*
X145685576Y-97309688D01*
X145672484Y-97290094D01*
X146239378Y-96723200D01*
X146446839Y-96723200D01*
X146178499Y-96902499D01*
X145906424Y-97309688D01*
X145810884Y-97790000D01*
X145906424Y-98270312D01*
X146178499Y-98677501D01*
X146585688Y-98949576D01*
X146944761Y-99021000D01*
X147187239Y-99021000D01*
X147546312Y-98949576D01*
X147953501Y-98677501D01*
X148225576Y-98270312D01*
X148321116Y-97790000D01*
X148225576Y-97309688D01*
X148212484Y-97290094D01*
X149389449Y-96113130D01*
X149402800Y-96104209D01*
X149402800Y-96575303D01*
X149125688Y-96630424D01*
X148718499Y-96902499D01*
X148446424Y-97309688D01*
X148350884Y-97790000D01*
X148446424Y-98270312D01*
X148718499Y-98677501D01*
X149125688Y-98949576D01*
X149484761Y-99021000D01*
X149727239Y-99021000D01*
X150086312Y-98949576D01*
X150418800Y-98727415D01*
X150418800Y-98870621D01*
X150105905Y-99183516D01*
X150086312Y-99170424D01*
X149727239Y-99099000D01*
X149484761Y-99099000D01*
X149125688Y-99170424D01*
X148718499Y-99442499D01*
X148446424Y-99849688D01*
X148350884Y-100330000D01*
X148446424Y-100810312D01*
X148718499Y-101217501D01*
X149100880Y-101473000D01*
X147571120Y-101473000D01*
X147953501Y-101217501D01*
X148225576Y-100810312D01*
X148321116Y-100330000D01*
X148225576Y-99849688D01*
X147953501Y-99442499D01*
X147546312Y-99170424D01*
X147187239Y-99099000D01*
X146944761Y-99099000D01*
X146585688Y-99170424D01*
X146178499Y-99442499D01*
X145906424Y-99849688D01*
X145810884Y-100330000D01*
X145906424Y-100810312D01*
X146178499Y-101217501D01*
X146560880Y-101473000D01*
X145031120Y-101473000D01*
X145413501Y-101217501D01*
X145685576Y-100810312D01*
X145781116Y-100330000D01*
X145685576Y-99849688D01*
X145413501Y-99442499D01*
X145006312Y-99170424D01*
X144647239Y-99099000D01*
X144404761Y-99099000D01*
X144045688Y-99170424D01*
X143638499Y-99442499D01*
X143366424Y-99849688D01*
X143270884Y-100330000D01*
X143366424Y-100810312D01*
X143638499Y-101217501D01*
X144020880Y-101473000D01*
X142491120Y-101473000D01*
X142873501Y-101217501D01*
X143145576Y-100810312D01*
X143241116Y-100330000D01*
X143145576Y-99849688D01*
X142873501Y-99442499D01*
X142466312Y-99170424D01*
X142107239Y-99099000D01*
X141864761Y-99099000D01*
X141505688Y-99170424D01*
X141098499Y-99442499D01*
X140826424Y-99849688D01*
X140730884Y-100330000D01*
X140826424Y-100810312D01*
X141098499Y-101217501D01*
X141480880Y-101473000D01*
X139951120Y-101473000D01*
X140333501Y-101217501D01*
X140605576Y-100810312D01*
X140701116Y-100330000D01*
X140605576Y-99849688D01*
X140333501Y-99442499D01*
X139926312Y-99170424D01*
X139567239Y-99099000D01*
X139324761Y-99099000D01*
X138965688Y-99170424D01*
X138558499Y-99442499D01*
X138286424Y-99849688D01*
X138190884Y-100330000D01*
X138286424Y-100810312D01*
X138558499Y-101217501D01*
X138940880Y-101473000D01*
X137411120Y-101473000D01*
X137793501Y-101217501D01*
X138065576Y-100810312D01*
X138161116Y-100330000D01*
X138065576Y-99849688D01*
X137793501Y-99442499D01*
X137386312Y-99170424D01*
X137027239Y-99099000D01*
X136784761Y-99099000D01*
X136425688Y-99170424D01*
X136018499Y-99442499D01*
X135890000Y-99634811D01*
X135890000Y-99441000D01*
X135841664Y-99197996D01*
X135704013Y-98991987D01*
X135520823Y-98869583D01*
X135574894Y-98788659D01*
X135604464Y-98640000D01*
X135604464Y-97790000D01*
X135650884Y-97790000D01*
X135746424Y-98270312D01*
X136018499Y-98677501D01*
X136425688Y-98949576D01*
X136784761Y-99021000D01*
X137027239Y-99021000D01*
X137386312Y-98949576D01*
X137793501Y-98677501D01*
X138065576Y-98270312D01*
X138161116Y-97790000D01*
X138065576Y-97309688D01*
X137793501Y-96902499D01*
X137386312Y-96630424D01*
X137027239Y-96559000D01*
X136784761Y-96559000D01*
X136425688Y-96630424D01*
X136018499Y-96902499D01*
X135746424Y-97309688D01*
X135650884Y-97790000D01*
X135604464Y-97790000D01*
X135604464Y-96940000D01*
X135574894Y-96791341D01*
X135490686Y-96665314D01*
X135364659Y-96581106D01*
X135216000Y-96551536D01*
X133604000Y-96551536D01*
X133604000Y-95005026D01*
X134180013Y-94429013D01*
X134317664Y-94223004D01*
X134366000Y-93980000D01*
X134366000Y-91440000D01*
X134317664Y-91196996D01*
X134180013Y-90990987D01*
X133974004Y-90853336D01*
X133731000Y-90805000D01*
X130810000Y-90805000D01*
X130566996Y-90853336D01*
X130360987Y-90990987D01*
X130223336Y-91196996D01*
X130175000Y-91440000D01*
X130175000Y-96520000D01*
X130223336Y-96763004D01*
X130360987Y-96969013D01*
X131445000Y-98053026D01*
X131445000Y-98482475D01*
X131219411Y-97937854D01*
X130662146Y-97380589D01*
X129934045Y-97079000D01*
X129145955Y-97079000D01*
X128417854Y-97380589D01*
X128229025Y-97569419D01*
X127127000Y-96467394D01*
X127127000Y-85421167D01*
X135255000Y-85421167D01*
X135255000Y-85774833D01*
X135390342Y-86101578D01*
X135640422Y-86351658D01*
X135967167Y-86487000D01*
X136320833Y-86487000D01*
X136647578Y-86351658D01*
X136679597Y-86319639D01*
X136740385Y-86410615D01*
X136937379Y-86542243D01*
X137169750Y-86588464D01*
X137607250Y-86588464D01*
X137839621Y-86542243D01*
X138036615Y-86410615D01*
X138168243Y-86213621D01*
X138214464Y-85981250D01*
X138214464Y-85468750D01*
X144614536Y-85468750D01*
X144614536Y-85981250D01*
X144660757Y-86213621D01*
X144792385Y-86410615D01*
X144989379Y-86542243D01*
X145221750Y-86588464D01*
X145372886Y-86588464D01*
X146456333Y-87671911D01*
X146439000Y-87713758D01*
X146439000Y-88064242D01*
X146573124Y-88388047D01*
X146820953Y-88635876D01*
X147144758Y-88770000D01*
X147495242Y-88770000D01*
X147819047Y-88635876D01*
X148066876Y-88388047D01*
X148201000Y-88064242D01*
X148201000Y-87713758D01*
X148066876Y-87389953D01*
X147819047Y-87142124D01*
X147495242Y-87008000D01*
X147144758Y-87008000D01*
X147102911Y-87025333D01*
X146232015Y-86154437D01*
X146266464Y-85981250D01*
X146266464Y-85468750D01*
X146220243Y-85236379D01*
X146088615Y-85039385D01*
X145891621Y-84907757D01*
X145659250Y-84861536D01*
X145221750Y-84861536D01*
X144989379Y-84907757D01*
X144792385Y-85039385D01*
X144660757Y-85236379D01*
X144614536Y-85468750D01*
X138214464Y-85468750D01*
X138168243Y-85236379D01*
X138036615Y-85039385D01*
X137839621Y-84907757D01*
X137607250Y-84861536D01*
X137169750Y-84861536D01*
X136937379Y-84907757D01*
X136801671Y-84998435D01*
X136647578Y-84844342D01*
X136320833Y-84709000D01*
X135967167Y-84709000D01*
X135640422Y-84844342D01*
X135390342Y-85094422D01*
X135255000Y-85421167D01*
X127127000Y-85421167D01*
X127127000Y-83918649D01*
X150476000Y-83918649D01*
X150476000Y-84229351D01*
X150594900Y-84516401D01*
X150814599Y-84736100D01*
X151101649Y-84855000D01*
X151365922Y-84855000D01*
X151929536Y-85418615D01*
X151929536Y-85854250D01*
X151975757Y-86086621D01*
X152107385Y-86283615D01*
X152304379Y-86415243D01*
X152536750Y-86461464D01*
X152974250Y-86461464D01*
X153206621Y-86415243D01*
X153403615Y-86283615D01*
X153535243Y-86086621D01*
X153581464Y-85854250D01*
X153581464Y-85341750D01*
X153535243Y-85109379D01*
X153403615Y-84912385D01*
X153206621Y-84780757D01*
X152974250Y-84734536D01*
X152538615Y-84734536D01*
X152036661Y-84232583D01*
X152038000Y-84229351D01*
X152038000Y-83918649D01*
X151919100Y-83631599D01*
X151699401Y-83411900D01*
X151412351Y-83293000D01*
X151101649Y-83293000D01*
X150814599Y-83411900D01*
X150594900Y-83631599D01*
X150476000Y-83918649D01*
X127127000Y-83918649D01*
X127127000Y-74982606D01*
X129048835Y-73060771D01*
X129145955Y-73101000D01*
X129934045Y-73101000D01*
X130662146Y-72799411D01*
X131219411Y-72242146D01*
X131521000Y-71514045D01*
X131521000Y-70725955D01*
X131480771Y-70628835D01*
X133402606Y-68707000D01*
X139700000Y-68707000D01*
X139456996Y-68755336D01*
X139456996Y-68755336D01*
G37*
X139456996Y-68755336D02*
X139250987Y-68892987D01*
X139113336Y-69098996D01*
X139065000Y-69342000D01*
X139065000Y-71120000D01*
X139113336Y-71363004D01*
X139250987Y-71569013D01*
X140706974Y-73025000D01*
X140155221Y-73025000D01*
X140109351Y-73006000D01*
X139798649Y-73006000D01*
X139752779Y-73025000D01*
X139139217Y-73025000D01*
X139093347Y-73006000D01*
X138782645Y-73006000D01*
X138736775Y-73025000D01*
X138557000Y-73025000D01*
X138411198Y-73054002D01*
X138287592Y-73136592D01*
X138205002Y-73260198D01*
X138176000Y-73406000D01*
X138176000Y-73585769D01*
X138156996Y-73631649D01*
X138156996Y-73942351D01*
X138176000Y-73988231D01*
X138176000Y-74422000D01*
X138205002Y-74567802D01*
X138287592Y-74691408D01*
X138411198Y-74773998D01*
X138557000Y-74803000D01*
X150876000Y-74803000D01*
X150876000Y-76454000D01*
X150905002Y-76599802D01*
X150987592Y-76723408D01*
X154162592Y-79898408D01*
X154286198Y-79980998D01*
X154432000Y-80010000D01*
X156687184Y-80010000D01*
X156955502Y-80278318D01*
X156933536Y-80388750D01*
X156933536Y-80901250D01*
X156934432Y-80905752D01*
X156829592Y-81010592D01*
X156747002Y-81134198D01*
X156718000Y-81280000D01*
X156718000Y-82550000D01*
X156747002Y-82695802D01*
X156829592Y-82819408D01*
X157195184Y-83185000D01*
X156718000Y-83185000D01*
X156572198Y-83214002D01*
X156448592Y-83296592D01*
X156366002Y-83420198D01*
X156337000Y-83566000D01*
X156337000Y-84455000D01*
X156366002Y-84600802D01*
X156448592Y-84724408D01*
X156591000Y-84866816D01*
X156591000Y-85148376D01*
X156552536Y-85341750D01*
X156552536Y-85854250D01*
X156553432Y-85858752D01*
X156067592Y-86344592D01*
X155985002Y-86468198D01*
X155956000Y-86614000D01*
X155956000Y-88900000D01*
X155985002Y-89045802D01*
X156067592Y-89169408D01*
X157099000Y-90200816D01*
X157099000Y-90901184D01*
X157083592Y-90916592D01*
X157001002Y-91040198D01*
X156972000Y-91186000D01*
X156972000Y-91694000D01*
X157001002Y-91839802D01*
X157083592Y-91963408D01*
X157337592Y-92217408D01*
X157461198Y-92299998D01*
X157607000Y-92329000D01*
X157684148Y-92329000D01*
X157684167Y-92329008D01*
X158037833Y-92329008D01*
X158037852Y-92329000D01*
X158623000Y-92329000D01*
X158768802Y-92299998D01*
X158892408Y-92217408D01*
X158974998Y-92093802D01*
X159004000Y-91948000D01*
X159004000Y-90094450D01*
X159522940Y-89662000D01*
X161091255Y-89662000D01*
X161102592Y-89666696D01*
X161456258Y-89666696D01*
X161467595Y-89662000D01*
X161671000Y-89662000D01*
X161816802Y-89632998D01*
X161940408Y-89550408D01*
X162022998Y-89426802D01*
X162052000Y-89281000D01*
X162052000Y-89235604D01*
X162168425Y-88954529D01*
X162168425Y-88600863D01*
X162033083Y-88274118D01*
X162027427Y-88268462D01*
X162022998Y-88246198D01*
X161940408Y-88122592D01*
X161816802Y-88040002D01*
X161794538Y-88035573D01*
X161783003Y-88024038D01*
X161456258Y-87888696D01*
X161102592Y-87888696D01*
X160807324Y-88011000D01*
X160274000Y-88011000D01*
X160419802Y-87981998D01*
X160543408Y-87899408D01*
X161058940Y-87383876D01*
X161098535Y-87376000D01*
X162119622Y-87376000D01*
X162128385Y-87389115D01*
X162325379Y-87520743D01*
X162557750Y-87566964D01*
X163070250Y-87566964D01*
X163302621Y-87520743D01*
X163499615Y-87389115D01*
X163576000Y-87274797D01*
X163652385Y-87389115D01*
X163849379Y-87520743D01*
X164081750Y-87566964D01*
X164594250Y-87566964D01*
X164826621Y-87520743D01*
X165023615Y-87389115D01*
X165032378Y-87376000D01*
X166177932Y-87376000D01*
X166240469Y-87388439D01*
X166303006Y-87376000D01*
X166303010Y-87376000D01*
X166488234Y-87339157D01*
X166698278Y-87198809D01*
X166733707Y-87145786D01*
X166887104Y-86992390D01*
X167054912Y-86992390D01*
X167381657Y-86857048D01*
X167631737Y-86606968D01*
X167767079Y-86280223D01*
X167767079Y-85926557D01*
X167631737Y-85599812D01*
X167381657Y-85349732D01*
X167054912Y-85214390D01*
X166701246Y-85214390D01*
X166374501Y-85349732D01*
X166124421Y-85599812D01*
X165989079Y-85926557D01*
X165989079Y-86094365D01*
X165977444Y-86106000D01*
X165032378Y-86106000D01*
X165023615Y-86092885D01*
X164826621Y-85961257D01*
X164594250Y-85915036D01*
X164081750Y-85915036D01*
X163849379Y-85961257D01*
X163652385Y-86092885D01*
X163576000Y-86207203D01*
X163499615Y-86092885D01*
X163302621Y-85961257D01*
X163070250Y-85915036D01*
X162557750Y-85915036D01*
X162325379Y-85961257D01*
X162179000Y-86059065D01*
X162179000Y-85344000D01*
X162149998Y-85198198D01*
X162067408Y-85074592D01*
X161990545Y-84997729D01*
X161975615Y-84975385D01*
X161953271Y-84960455D01*
X161813408Y-84820592D01*
X161689802Y-84738002D01*
X161544000Y-84709000D01*
X159258000Y-84709000D01*
X159258000Y-83312000D01*
X159228998Y-83166198D01*
X159146408Y-83042592D01*
X159013030Y-82909214D01*
X159249666Y-82672578D01*
X159258000Y-82652458D01*
X159258000Y-82853833D01*
X159393342Y-83180578D01*
X159643422Y-83430658D01*
X159970167Y-83566000D01*
X160323833Y-83566000D01*
X160650578Y-83430658D01*
X160900658Y-83180578D01*
X161036000Y-82853833D01*
X161036000Y-82500167D01*
X160900658Y-82173422D01*
X160650578Y-81923342D01*
X160323833Y-81788000D01*
X159970167Y-81788000D01*
X159923789Y-81807210D01*
X159588200Y-81471622D01*
X159588200Y-76464868D01*
X159634578Y-76445658D01*
X159884658Y-76195578D01*
X160020000Y-75868833D01*
X160020000Y-75515167D01*
X159884658Y-75188422D01*
X159634578Y-74938342D01*
X159307833Y-74803000D01*
X158954167Y-74803000D01*
X158627422Y-74938342D01*
X158377342Y-75188422D01*
X158279197Y-75425364D01*
X158233658Y-75315422D01*
X157983578Y-75065342D01*
X157656833Y-74930000D01*
X157303167Y-74930000D01*
X156976422Y-75065342D01*
X156726342Y-75315422D01*
X156591000Y-75642167D01*
X156591000Y-75995833D01*
X156726342Y-76322578D01*
X156976422Y-76572658D01*
X157303167Y-76708000D01*
X157656833Y-76708000D01*
X157703211Y-76688790D01*
X158038808Y-77024387D01*
X158038808Y-78251992D01*
X158003408Y-78216592D01*
X157879802Y-78134002D01*
X157734000Y-78105000D01*
X154716816Y-78105000D01*
X152781000Y-76169184D01*
X152781000Y-73406000D01*
X165735000Y-73406000D01*
X165735000Y-73914000D01*
X165289536Y-73914000D01*
X165226999Y-73901561D01*
X165164462Y-73914000D01*
X165164459Y-73914000D01*
X164979235Y-73950843D01*
X164769191Y-74091191D01*
X164733764Y-74144211D01*
X161647214Y-77230762D01*
X161594191Y-77266191D01*
X161453843Y-77476236D01*
X161417000Y-77661460D01*
X161417000Y-77661463D01*
X161404561Y-77724000D01*
X161417000Y-77786537D01*
X161417001Y-79937564D01*
X161366385Y-79971385D01*
X161234757Y-80168379D01*
X161188536Y-80400750D01*
X161188536Y-80838250D01*
X161234757Y-81070621D01*
X161366385Y-81267615D01*
X161563379Y-81399243D01*
X161602376Y-81407000D01*
X161563379Y-81414757D01*
X161366385Y-81546385D01*
X161234757Y-81743379D01*
X161188536Y-81975750D01*
X161188536Y-82413250D01*
X161234757Y-82645621D01*
X161366385Y-82842615D01*
X161563379Y-82974243D01*
X161795750Y-83020464D01*
X162231386Y-83020464D01*
X163195370Y-83984449D01*
X163220877Y-84022623D01*
X163259051Y-84048130D01*
X163272604Y-84057186D01*
X163330342Y-84196578D01*
X163580422Y-84446658D01*
X163907167Y-84582000D01*
X164260833Y-84582000D01*
X164587578Y-84446658D01*
X164837658Y-84196578D01*
X164973000Y-83869833D01*
X164973000Y-83516167D01*
X164837658Y-83189422D01*
X164680700Y-83032464D01*
X164785250Y-83032464D01*
X165017621Y-82986243D01*
X165214615Y-82854615D01*
X165346243Y-82657621D01*
X165392464Y-82425250D01*
X165392464Y-81912750D01*
X165360735Y-81753235D01*
X165603578Y-81652646D01*
X165853658Y-81402566D01*
X165989000Y-81075821D01*
X165989000Y-80722155D01*
X165853658Y-80395410D01*
X165603578Y-80145330D01*
X165557200Y-80126120D01*
X165557200Y-80072378D01*
X167194379Y-78435200D01*
X169863622Y-78435200D01*
X170205868Y-78777446D01*
X170231377Y-78815623D01*
X170382609Y-78916673D01*
X170515970Y-78943200D01*
X170515974Y-78943200D01*
X170560999Y-78952156D01*
X170606024Y-78943200D01*
X171220281Y-78943200D01*
X171265311Y-78952157D01*
X171310341Y-78943200D01*
X171443702Y-78916673D01*
X171576461Y-78827966D01*
X171642595Y-78894100D01*
X171754801Y-78940577D01*
X171754800Y-81344621D01*
X171502385Y-81597036D01*
X171066750Y-81597036D01*
X170834379Y-81643257D01*
X170637385Y-81774885D01*
X170505757Y-81971879D01*
X170459536Y-82204250D01*
X170459536Y-82641750D01*
X170505757Y-82874121D01*
X170637385Y-83071115D01*
X170834379Y-83202743D01*
X170873376Y-83210500D01*
X170834379Y-83218257D01*
X170637385Y-83349885D01*
X170505757Y-83546879D01*
X170459536Y-83779250D01*
X170459536Y-84214886D01*
X162142223Y-92532199D01*
X156567051Y-92532199D01*
X156522021Y-92523242D01*
X156476991Y-92532199D01*
X156343630Y-92558726D01*
X156192398Y-92659776D01*
X156166891Y-92697951D01*
X155985539Y-92879303D01*
X155824578Y-92718342D01*
X155497833Y-92583000D01*
X155144167Y-92583000D01*
X154817422Y-92718342D01*
X154567342Y-92968422D01*
X154432000Y-93295167D01*
X154432000Y-93648833D01*
X154567342Y-93975578D01*
X154817422Y-94225658D01*
X155144167Y-94361000D01*
X155497833Y-94361000D01*
X155824578Y-94225658D01*
X156074658Y-93975578D01*
X156094714Y-93927158D01*
X156217811Y-93902673D01*
X156369043Y-93801623D01*
X156394552Y-93763446D01*
X156711400Y-93446599D01*
X157522489Y-93446599D01*
X157480004Y-93549167D01*
X157480004Y-93902833D01*
X157615346Y-94229578D01*
X157865426Y-94479658D01*
X158192171Y-94615000D01*
X158545837Y-94615000D01*
X158872582Y-94479658D01*
X159122662Y-94229578D01*
X159141872Y-94183200D01*
X163073970Y-94183200D01*
X163119000Y-94192157D01*
X163164030Y-94183200D01*
X163297391Y-94156673D01*
X163448623Y-94055623D01*
X163474132Y-94017446D01*
X172667614Y-84823964D01*
X173103250Y-84823964D01*
X173335621Y-84777743D01*
X173532615Y-84646115D01*
X173664243Y-84449121D01*
X173710464Y-84216750D01*
X173710464Y-83779250D01*
X173664243Y-83546879D01*
X173532615Y-83349885D01*
X173335621Y-83218257D01*
X173296624Y-83210500D01*
X173335621Y-83202743D01*
X173532615Y-83071115D01*
X173664243Y-82874121D01*
X173710464Y-82641750D01*
X173710464Y-82204250D01*
X173664243Y-81971879D01*
X173532615Y-81774885D01*
X173335621Y-81643257D01*
X173304200Y-81637007D01*
X173304200Y-78108695D01*
X173304935Y-78105000D01*
X174752000Y-78105000D01*
X174995004Y-78056664D01*
X175201013Y-77919013D01*
X175338664Y-77713004D01*
X175387000Y-77470000D01*
X175387000Y-77304501D01*
X175414100Y-77277401D01*
X175533000Y-76990351D01*
X175533000Y-76679649D01*
X175414100Y-76392599D01*
X175387000Y-76365499D01*
X175387000Y-71120000D01*
X175338664Y-70876996D01*
X175201013Y-70670987D01*
X174995004Y-70533336D01*
X174752000Y-70485000D01*
X146304000Y-70485000D01*
X146304000Y-69342000D01*
X146255664Y-69098996D01*
X146118013Y-68892987D01*
X145912004Y-68755336D01*
X145669000Y-68707000D01*
X179017394Y-68707000D01*
X180939229Y-70628835D01*
X180899000Y-70725955D01*
X180899000Y-71514045D01*
X181200589Y-72242146D01*
X181757854Y-72799411D01*
X182485955Y-73101000D01*
X183274045Y-73101000D01*
X183371165Y-73060771D01*
X185293000Y-74982606D01*
X185293000Y-96467394D01*
X184190976Y-97569419D01*
X184002146Y-97380589D01*
X183274045Y-97079000D01*
X182485955Y-97079000D01*
X181757854Y-97380589D01*
X181200589Y-97937854D01*
X180899000Y-98665955D01*
X180899000Y-99454045D01*
X181200589Y-100182146D01*
X181389419Y-100370976D01*
X180287394Y-101473000D01*
X175511120Y-101473000D01*
X175893501Y-101217501D01*
X176165576Y-100810312D01*
X176261116Y-100330000D01*
X176165576Y-99849688D01*
X175893501Y-99442499D01*
X175486312Y-99170424D01*
X175127239Y-99099000D01*
X174884761Y-99099000D01*
X174525688Y-99170424D01*
X174118499Y-99442499D01*
X173846424Y-99849688D01*
X173750884Y-100330000D01*
X173846424Y-100810312D01*
X174118499Y-101217501D01*
X174500880Y-101473000D01*
X172971120Y-101473000D01*
X173353501Y-101217501D01*
X173625576Y-100810312D01*
X173721116Y-100330000D01*
X173625576Y-99849688D01*
X173353501Y-99442499D01*
X172946312Y-99170424D01*
X172587239Y-99099000D01*
X172344761Y-99099000D01*
X171985688Y-99170424D01*
X171578499Y-99442499D01*
X171306424Y-99849688D01*
X171210884Y-100330000D01*
X171306424Y-100810312D01*
X171578499Y-101217501D01*
X171960880Y-101473000D01*
X170431120Y-101473000D01*
X170813501Y-101217501D01*
X171085576Y-100810312D01*
X171181116Y-100330000D01*
X171085576Y-99849688D01*
X170813501Y-99442499D01*
X170406312Y-99170424D01*
X170047239Y-99099000D01*
X169804761Y-99099000D01*
X169445688Y-99170424D01*
X169038499Y-99442499D01*
X168766424Y-99849688D01*
X168670884Y-100330000D01*
X168766424Y-100810312D01*
X169038499Y-101217501D01*
X169420880Y-101473000D01*
X167891120Y-101473000D01*
X168273501Y-101217501D01*
X168545576Y-100810312D01*
X168641116Y-100330000D01*
X168545576Y-99849688D01*
X168273501Y-99442499D01*
X167866312Y-99170424D01*
X167507239Y-99099000D01*
X167264761Y-99099000D01*
X166905688Y-99170424D01*
X166498499Y-99442499D01*
X166226424Y-99849688D01*
X166130884Y-100330000D01*
X166226424Y-100810312D01*
X166498499Y-101217501D01*
X166880880Y-101473000D01*
X165351120Y-101473000D01*
X165733501Y-101217501D01*
X166005576Y-100810312D01*
X166101116Y-100330000D01*
X166005576Y-99849688D01*
X165733501Y-99442499D01*
X165326312Y-99170424D01*
X164967239Y-99099000D01*
X164724761Y-99099000D01*
X164365688Y-99170424D01*
X163958499Y-99442499D01*
X163686424Y-99849688D01*
X163590884Y-100330000D01*
X163686424Y-100810312D01*
X163958499Y-101217501D01*
X164340880Y-101473000D01*
X162811120Y-101473000D01*
X163193501Y-101217501D01*
X163465576Y-100810312D01*
X163561116Y-100330000D01*
X163465576Y-99849688D01*
X163193501Y-99442499D01*
X162786312Y-99170424D01*
X162427239Y-99099000D01*
X162184761Y-99099000D01*
X161825688Y-99170424D01*
X161418499Y-99442499D01*
X161146424Y-99849688D01*
X161050884Y-100330000D01*
X161146424Y-100810312D01*
X161418499Y-101217501D01*
X161800880Y-101473000D01*
X160271120Y-101473000D01*
X160653501Y-101217501D01*
X160925576Y-100810312D01*
X161021116Y-100330000D01*
X160925576Y-99849688D01*
X160653501Y-99442499D01*
X160246312Y-99170424D01*
X159887239Y-99099000D01*
X159644761Y-99099000D01*
X159285688Y-99170424D01*
X158878499Y-99442499D01*
X158606424Y-99849688D01*
X158510884Y-100330000D01*
X158606424Y-100810312D01*
X158878499Y-101217501D01*
X159260880Y-101473000D01*
X157731120Y-101473000D01*
X158113501Y-101217501D01*
X158385576Y-100810312D01*
X158481116Y-100330000D01*
X158385576Y-99849688D01*
X158113501Y-99442499D01*
X157706312Y-99170424D01*
X157347239Y-99099000D01*
X157104761Y-99099000D01*
X156745688Y-99170424D01*
X156338499Y-99442499D01*
X156066424Y-99849688D01*
X155970884Y-100330000D01*
X156066424Y-100810312D01*
X156338499Y-101217501D01*
X156720880Y-101473000D01*
X155191120Y-101473000D01*
X155573501Y-101217501D01*
X155845576Y-100810312D01*
X155941116Y-100330000D01*
X155845576Y-99849688D01*
X155832484Y-99830095D01*
X156247449Y-99415130D01*
X156285623Y-99389623D01*
X156386673Y-99238391D01*
X156413200Y-99105030D01*
X156413200Y-99105029D01*
X156422157Y-99060001D01*
X156413200Y-99014971D01*
X156413200Y-98727415D01*
X156745688Y-98949576D01*
X157104761Y-99021000D01*
X157347239Y-99021000D01*
X157706312Y-98949576D01*
X158113501Y-98677501D01*
X158385576Y-98270312D01*
X158481116Y-97790000D01*
X158510884Y-97790000D01*
X158606424Y-98270312D01*
X158878499Y-98677501D01*
X159285688Y-98949576D01*
X159644761Y-99021000D01*
X159887239Y-99021000D01*
X160246312Y-98949576D01*
X160653501Y-98677501D01*
X160925576Y-98270312D01*
X161021116Y-97790000D01*
X161050884Y-97790000D01*
X161146424Y-98270312D01*
X161418499Y-98677501D01*
X161825688Y-98949576D01*
X162184761Y-99021000D01*
X162427239Y-99021000D01*
X162786312Y-98949576D01*
X163193501Y-98677501D01*
X163465576Y-98270312D01*
X163561116Y-97790000D01*
X163465576Y-97309688D01*
X163193501Y-96902499D01*
X162786312Y-96630424D01*
X162427239Y-96559000D01*
X162184761Y-96559000D01*
X161825688Y-96630424D01*
X161418499Y-96902499D01*
X161146424Y-97309688D01*
X161050884Y-97790000D01*
X161021116Y-97790000D01*
X160925576Y-97309688D01*
X160653501Y-96902499D01*
X160246312Y-96630424D01*
X159887239Y-96559000D01*
X159644761Y-96559000D01*
X159285688Y-96630424D01*
X158878499Y-96902499D01*
X158606424Y-97309688D01*
X158510884Y-97790000D01*
X158481116Y-97790000D01*
X158385576Y-97309688D01*
X158113501Y-96902499D01*
X157706312Y-96630424D01*
X157347239Y-96559000D01*
X157104761Y-96559000D01*
X156746270Y-96630308D01*
X156907379Y-96469200D01*
X165520222Y-96469200D01*
X165345906Y-96643516D01*
X165326312Y-96630424D01*
X164967239Y-96559000D01*
X164724761Y-96559000D01*
X164365688Y-96630424D01*
X163958499Y-96902499D01*
X163686424Y-97309688D01*
X163590884Y-97790000D01*
X163686424Y-98270312D01*
X163958499Y-98677501D01*
X164365688Y-98949576D01*
X164724761Y-99021000D01*
X164967239Y-99021000D01*
X165326312Y-98949576D01*
X165733501Y-98677501D01*
X166005576Y-98270312D01*
X166101116Y-97790000D01*
X166005576Y-97309688D01*
X165992484Y-97290094D01*
X166432378Y-96850200D01*
X166576770Y-96850200D01*
X166498499Y-96902499D01*
X166226424Y-97309688D01*
X166130884Y-97790000D01*
X166226424Y-98270312D01*
X166498499Y-98677501D01*
X166905688Y-98949576D01*
X167264761Y-99021000D01*
X167507239Y-99021000D01*
X167866312Y-98949576D01*
X168273501Y-98677501D01*
X168545576Y-98270312D01*
X168641116Y-97790000D01*
X168562983Y-97397201D01*
X168749017Y-97397201D01*
X168670884Y-97790000D01*
X168766424Y-98270312D01*
X169038499Y-98677501D01*
X169445688Y-98949576D01*
X169804761Y-99021000D01*
X170047239Y-99021000D01*
X170406312Y-98949576D01*
X170813501Y-98677501D01*
X171085576Y-98270312D01*
X171181116Y-97790000D01*
X171164436Y-97706143D01*
X171243239Y-97627339D01*
X171210884Y-97790000D01*
X171306424Y-98270312D01*
X171578499Y-98677501D01*
X171985688Y-98949576D01*
X172344761Y-99021000D01*
X172587239Y-99021000D01*
X172946312Y-98949576D01*
X173353501Y-98677501D01*
X173625576Y-98270312D01*
X173721116Y-97790000D01*
X173750884Y-97790000D01*
X173846424Y-98270312D01*
X174118499Y-98677501D01*
X174525688Y-98949576D01*
X174884761Y-99021000D01*
X175127239Y-99021000D01*
X175486312Y-98949576D01*
X175893501Y-98677501D01*
X176165576Y-98270312D01*
X176261116Y-97790000D01*
X176290884Y-97790000D01*
X176386424Y-98270312D01*
X176658499Y-98677501D01*
X177065688Y-98949576D01*
X177424761Y-99021000D01*
X177667239Y-99021000D01*
X178026312Y-98949576D01*
X178433501Y-98677501D01*
X178705576Y-98270312D01*
X178801116Y-97790000D01*
X178705576Y-97309688D01*
X178433501Y-96902499D01*
X178026312Y-96630424D01*
X177667239Y-96559000D01*
X177424761Y-96559000D01*
X177065688Y-96630424D01*
X176658499Y-96902499D01*
X176386424Y-97309688D01*
X176290884Y-97790000D01*
X176261116Y-97790000D01*
X176165576Y-97309688D01*
X175893501Y-96902499D01*
X175486312Y-96630424D01*
X175127239Y-96559000D01*
X174884761Y-96559000D01*
X174525688Y-96630424D01*
X174118499Y-96902499D01*
X173846424Y-97309688D01*
X173750884Y-97790000D01*
X173721116Y-97790000D01*
X173625576Y-97309688D01*
X173612484Y-97290094D01*
X174916449Y-95986130D01*
X174954623Y-95960623D01*
X175055673Y-95809391D01*
X175081245Y-95680833D01*
X175091157Y-95631001D01*
X175082200Y-95585971D01*
X175082200Y-87259868D01*
X175128578Y-87240658D01*
X175378658Y-86990578D01*
X175514000Y-86663833D01*
X175514000Y-86310167D01*
X175378658Y-85983422D01*
X175128578Y-85733342D01*
X174801833Y-85598000D01*
X174448167Y-85598000D01*
X174121422Y-85733342D01*
X173871342Y-85983422D01*
X173736000Y-86310167D01*
X173736000Y-86614000D01*
X173432167Y-86614000D01*
X173105422Y-86749342D01*
X172855342Y-86999422D01*
X172720000Y-87326167D01*
X172720000Y-87679833D01*
X172751964Y-87757000D01*
X172543167Y-87757000D01*
X172216422Y-87892342D01*
X171966342Y-88142422D01*
X171831000Y-88469167D01*
X171831000Y-88773000D01*
X171654171Y-88773000D01*
X171327426Y-88908342D01*
X171077346Y-89158422D01*
X170942004Y-89485167D01*
X170942004Y-89838833D01*
X171077346Y-90165578D01*
X171327426Y-90415658D01*
X171654171Y-90551000D01*
X172007837Y-90551000D01*
X172054215Y-90531789D01*
X172643801Y-91121375D01*
X172643800Y-94212611D01*
X172388833Y-94107000D01*
X172273779Y-94107000D01*
X172273779Y-93847288D01*
X172138437Y-93520543D01*
X171888357Y-93270463D01*
X171561612Y-93135121D01*
X171323000Y-93135121D01*
X171323000Y-92914161D01*
X171187658Y-92587416D01*
X170937578Y-92337336D01*
X170610833Y-92201994D01*
X170257167Y-92201994D01*
X169930422Y-92337336D01*
X169680342Y-92587416D01*
X169545000Y-92914161D01*
X169545000Y-93267827D01*
X169680342Y-93594572D01*
X169930422Y-93844652D01*
X169976800Y-93863863D01*
X169976800Y-94157800D01*
X168828030Y-94157800D01*
X168783000Y-94148843D01*
X168737970Y-94157800D01*
X168604609Y-94184327D01*
X168453377Y-94285377D01*
X168427868Y-94323554D01*
X167958622Y-94792800D01*
X152191029Y-94792800D01*
X152145999Y-94783843D01*
X151976246Y-94817609D01*
X151967609Y-94819327D01*
X151816377Y-94920377D01*
X151790870Y-94958551D01*
X150584552Y-96164870D01*
X150546378Y-96190377D01*
X150520871Y-96228551D01*
X150520870Y-96228552D01*
X150445327Y-96341610D01*
X150409843Y-96520000D01*
X150418801Y-96565035D01*
X150418801Y-96852586D01*
X150317200Y-96784698D01*
X150317200Y-93101878D01*
X150363578Y-93082668D01*
X150613658Y-92832588D01*
X150749000Y-92505843D01*
X150749000Y-92152177D01*
X150613658Y-91825432D01*
X150418731Y-91630505D01*
X150613658Y-91435578D01*
X150749000Y-91108833D01*
X150749000Y-90755167D01*
X150613658Y-90428422D01*
X150418739Y-90233503D01*
X150613658Y-90038584D01*
X150749000Y-89711839D01*
X150749000Y-89358173D01*
X150613658Y-89031428D01*
X150363578Y-88781348D01*
X150036833Y-88646006D01*
X149683167Y-88646006D01*
X149356422Y-88781348D01*
X149106342Y-89031428D01*
X148971000Y-89358173D01*
X148971000Y-89711839D01*
X148990210Y-89758217D01*
X148298554Y-90449874D01*
X148260377Y-90475383D01*
X148192566Y-90576870D01*
X148159327Y-90626616D01*
X148123843Y-90805006D01*
X148132800Y-90850036D01*
X148132800Y-90910611D01*
X147877833Y-90805000D01*
X147524167Y-90805000D01*
X147197422Y-90940342D01*
X146947342Y-91190422D01*
X146812000Y-91517167D01*
X146812000Y-91870833D01*
X146831210Y-91917211D01*
X143574622Y-95173800D01*
X141514878Y-95173800D01*
X138341464Y-92000386D01*
X138341464Y-91691750D01*
X144360536Y-91691750D01*
X144360536Y-92204250D01*
X144406757Y-92436621D01*
X144538385Y-92633615D01*
X144735379Y-92765243D01*
X144967750Y-92811464D01*
X145405250Y-92811464D01*
X145637621Y-92765243D01*
X145834615Y-92633615D01*
X145966243Y-92436621D01*
X146012464Y-92204250D01*
X146012464Y-91743114D01*
X147102911Y-90652667D01*
X147144758Y-90670000D01*
X147495242Y-90670000D01*
X147819047Y-90535876D01*
X148066876Y-90288047D01*
X148201000Y-89964242D01*
X148201000Y-89613758D01*
X148066876Y-89289953D01*
X147819047Y-89042124D01*
X147495242Y-88908000D01*
X147144758Y-88908000D01*
X146820953Y-89042124D01*
X146573124Y-89289953D01*
X146439000Y-89613758D01*
X146439000Y-89964242D01*
X146456333Y-90006089D01*
X145377886Y-91084536D01*
X144967750Y-91084536D01*
X144735379Y-91130757D01*
X144538385Y-91262385D01*
X144406757Y-91459379D01*
X144360536Y-91691750D01*
X138341464Y-91691750D01*
X138341464Y-91564750D01*
X138295243Y-91332379D01*
X138163615Y-91135385D01*
X137966621Y-91003757D01*
X137734250Y-90957536D01*
X137296750Y-90957536D01*
X137064379Y-91003757D01*
X136867385Y-91135385D01*
X136857466Y-91150230D01*
X136647578Y-90940342D01*
X136320833Y-90805000D01*
X135967167Y-90805000D01*
X135640422Y-90940342D01*
X135390342Y-91190422D01*
X135255000Y-91517167D01*
X135255000Y-91870833D01*
X135390342Y-92197578D01*
X135640422Y-92447658D01*
X135967167Y-92583000D01*
X136320833Y-92583000D01*
X136647578Y-92447658D01*
X136755727Y-92339509D01*
X136867385Y-92506615D01*
X137064379Y-92638243D01*
X137296750Y-92684464D01*
X137732386Y-92684464D01*
X138646916Y-93598994D01*
X138507167Y-93598994D01*
X138180422Y-93734336D01*
X137930342Y-93984416D01*
X137795000Y-94311161D01*
X137795000Y-94615000D01*
X137618167Y-94615000D01*
X137291422Y-94750342D01*
X137041342Y-95000422D01*
X136906000Y-95327167D01*
X136906000Y-95680833D01*
X137041342Y-96007578D01*
X137291422Y-96257658D01*
X137357925Y-96285204D01*
X137364327Y-96317390D01*
X137465377Y-96468623D01*
X137503554Y-96494132D01*
X138299516Y-97290094D01*
X138286424Y-97309688D01*
X138190884Y-97790000D01*
X138286424Y-98270312D01*
X138558499Y-98677501D01*
X138965688Y-98949576D01*
X139324761Y-99021000D01*
X139567239Y-99021000D01*
X139926312Y-98949576D01*
X140333501Y-98677501D01*
X140605576Y-98270312D01*
X140701116Y-97790000D01*
X140605576Y-97309688D01*
X140333501Y-96902499D01*
X139926312Y-96630424D01*
X139567239Y-96559000D01*
X139324761Y-96559000D01*
X138965688Y-96630424D01*
X138946094Y-96643516D01*
X138429407Y-96126829D01*
X138548658Y-96007578D01*
X138684000Y-95680833D01*
X138684000Y-95376994D01*
X138860833Y-95376994D01*
X138907207Y-95357785D01*
X140839516Y-97290095D01*
X140826424Y-97309688D01*
X140730884Y-97790000D01*
X140826424Y-98270312D01*
X141098499Y-98677501D01*
X141505688Y-98949576D01*
X141864761Y-99021000D01*
X142107239Y-99021000D01*
X142466312Y-98949576D01*
X142873501Y-98677501D01*
X143145576Y-98270312D01*
X143241116Y-97790000D01*
X143145576Y-97309688D01*
X142873501Y-96902499D01*
X142466312Y-96630424D01*
X142107239Y-96559000D01*
X141864761Y-96559000D01*
X141505688Y-96630424D01*
X141486095Y-96643516D01*
X139553788Y-94711210D01*
X139573000Y-94664827D01*
X139573000Y-94525078D01*
X140970368Y-95922446D01*
X140995877Y-95960623D01*
X141135391Y-96053843D01*
X141147109Y-96061673D01*
X141325500Y-96097157D01*
X141370530Y-96088200D01*
X143718970Y-96088200D01*
X143764000Y-96097157D01*
X143809030Y-96088200D01*
X143942391Y-96061673D01*
X144093623Y-95960623D01*
X144119132Y-95922446D01*
X147477789Y-92563790D01*
X147524167Y-92583000D01*
X147877833Y-92583000D01*
X148132800Y-92477389D01*
X148132801Y-95187620D01*
X147511622Y-95808800D01*
X146095024Y-95808800D01*
X146049999Y-95799844D01*
X146004974Y-95808800D01*
X146004970Y-95808800D01*
X145871609Y-95835327D01*
X145720377Y-95936377D01*
X145694868Y-95974554D01*
X145025906Y-96643516D01*
X145006312Y-96630424D01*
X144647239Y-96559000D01*
X144404761Y-96559000D01*
X144045688Y-96630424D01*
X143638499Y-96902499D01*
X143366424Y-97309688D01*
X143270884Y-97790000D01*
X143366424Y-98270312D01*
X143638499Y-98677501D01*
X144045688Y-98949576D01*
X144404761Y-99021000D01*
X144647239Y-99021000D01*
X145006312Y-98949576D01*
X145413501Y-98677501D01*
X145685576Y-98270312D01*
X145781116Y-97790000D01*
X145685576Y-97309688D01*
X145672484Y-97290094D01*
X146239378Y-96723200D01*
X146446839Y-96723200D01*
X146178499Y-96902499D01*
X145906424Y-97309688D01*
X145810884Y-97790000D01*
X145906424Y-98270312D01*
X146178499Y-98677501D01*
X146585688Y-98949576D01*
X146944761Y-99021000D01*
X147187239Y-99021000D01*
X147546312Y-98949576D01*
X147953501Y-98677501D01*
X148225576Y-98270312D01*
X148321116Y-97790000D01*
X148225576Y-97309688D01*
X148212484Y-97290094D01*
X149389449Y-96113130D01*
X149402800Y-96104209D01*
X149402800Y-96575303D01*
X149125688Y-96630424D01*
X148718499Y-96902499D01*
X148446424Y-97309688D01*
X148350884Y-97790000D01*
X148446424Y-98270312D01*
X148718499Y-98677501D01*
X149125688Y-98949576D01*
X149484761Y-99021000D01*
X149727239Y-99021000D01*
X150086312Y-98949576D01*
X150418800Y-98727415D01*
X150418800Y-98870621D01*
X150105905Y-99183516D01*
X150086312Y-99170424D01*
X149727239Y-99099000D01*
X149484761Y-99099000D01*
X149125688Y-99170424D01*
X148718499Y-99442499D01*
X148446424Y-99849688D01*
X148350884Y-100330000D01*
X148446424Y-100810312D01*
X148718499Y-101217501D01*
X149100880Y-101473000D01*
X147571120Y-101473000D01*
X147953501Y-101217501D01*
X148225576Y-100810312D01*
X148321116Y-100330000D01*
X148225576Y-99849688D01*
X147953501Y-99442499D01*
X147546312Y-99170424D01*
X147187239Y-99099000D01*
X146944761Y-99099000D01*
X146585688Y-99170424D01*
X146178499Y-99442499D01*
X145906424Y-99849688D01*
X145810884Y-100330000D01*
X145906424Y-100810312D01*
X146178499Y-101217501D01*
X146560880Y-101473000D01*
X145031120Y-101473000D01*
X145413501Y-101217501D01*
X145685576Y-100810312D01*
X145781116Y-100330000D01*
X145685576Y-99849688D01*
X145413501Y-99442499D01*
X145006312Y-99170424D01*
X144647239Y-99099000D01*
X144404761Y-99099000D01*
X144045688Y-99170424D01*
X143638499Y-99442499D01*
X143366424Y-99849688D01*
X143270884Y-100330000D01*
X143366424Y-100810312D01*
X143638499Y-101217501D01*
X144020880Y-101473000D01*
X142491120Y-101473000D01*
X142873501Y-101217501D01*
X143145576Y-100810312D01*
X143241116Y-100330000D01*
X143145576Y-99849688D01*
X142873501Y-99442499D01*
X142466312Y-99170424D01*
X142107239Y-99099000D01*
X141864761Y-99099000D01*
X141505688Y-99170424D01*
X141098499Y-99442499D01*
X140826424Y-99849688D01*
X140730884Y-100330000D01*
X140826424Y-100810312D01*
X141098499Y-101217501D01*
X141480880Y-101473000D01*
X139951120Y-101473000D01*
X140333501Y-101217501D01*
X140605576Y-100810312D01*
X140701116Y-100330000D01*
X140605576Y-99849688D01*
X140333501Y-99442499D01*
X139926312Y-99170424D01*
X139567239Y-99099000D01*
X139324761Y-99099000D01*
X138965688Y-99170424D01*
X138558499Y-99442499D01*
X138286424Y-99849688D01*
X138190884Y-100330000D01*
X138286424Y-100810312D01*
X138558499Y-101217501D01*
X138940880Y-101473000D01*
X137411120Y-101473000D01*
X137793501Y-101217501D01*
X138065576Y-100810312D01*
X138161116Y-100330000D01*
X138065576Y-99849688D01*
X137793501Y-99442499D01*
X137386312Y-99170424D01*
X137027239Y-99099000D01*
X136784761Y-99099000D01*
X136425688Y-99170424D01*
X136018499Y-99442499D01*
X135890000Y-99634811D01*
X135890000Y-99441000D01*
X135841664Y-99197996D01*
X135704013Y-98991987D01*
X135520823Y-98869583D01*
X135574894Y-98788659D01*
X135604464Y-98640000D01*
X135604464Y-97790000D01*
X135650884Y-97790000D01*
X135746424Y-98270312D01*
X136018499Y-98677501D01*
X136425688Y-98949576D01*
X136784761Y-99021000D01*
X137027239Y-99021000D01*
X137386312Y-98949576D01*
X137793501Y-98677501D01*
X138065576Y-98270312D01*
X138161116Y-97790000D01*
X138065576Y-97309688D01*
X137793501Y-96902499D01*
X137386312Y-96630424D01*
X137027239Y-96559000D01*
X136784761Y-96559000D01*
X136425688Y-96630424D01*
X136018499Y-96902499D01*
X135746424Y-97309688D01*
X135650884Y-97790000D01*
X135604464Y-97790000D01*
X135604464Y-96940000D01*
X135574894Y-96791341D01*
X135490686Y-96665314D01*
X135364659Y-96581106D01*
X135216000Y-96551536D01*
X133604000Y-96551536D01*
X133604000Y-95005026D01*
X134180013Y-94429013D01*
X134317664Y-94223004D01*
X134366000Y-93980000D01*
X134366000Y-91440000D01*
X134317664Y-91196996D01*
X134180013Y-90990987D01*
X133974004Y-90853336D01*
X133731000Y-90805000D01*
X130810000Y-90805000D01*
X130566996Y-90853336D01*
X130360987Y-90990987D01*
X130223336Y-91196996D01*
X130175000Y-91440000D01*
X130175000Y-96520000D01*
X130223336Y-96763004D01*
X130360987Y-96969013D01*
X131445000Y-98053026D01*
X131445000Y-98482475D01*
X131219411Y-97937854D01*
X130662146Y-97380589D01*
X129934045Y-97079000D01*
X129145955Y-97079000D01*
X128417854Y-97380589D01*
X128229025Y-97569419D01*
X127127000Y-96467394D01*
X127127000Y-85421167D01*
X135255000Y-85421167D01*
X135255000Y-85774833D01*
X135390342Y-86101578D01*
X135640422Y-86351658D01*
X135967167Y-86487000D01*
X136320833Y-86487000D01*
X136647578Y-86351658D01*
X136679597Y-86319639D01*
X136740385Y-86410615D01*
X136937379Y-86542243D01*
X137169750Y-86588464D01*
X137607250Y-86588464D01*
X137839621Y-86542243D01*
X138036615Y-86410615D01*
X138168243Y-86213621D01*
X138214464Y-85981250D01*
X138214464Y-85468750D01*
X144614536Y-85468750D01*
X144614536Y-85981250D01*
X144660757Y-86213621D01*
X144792385Y-86410615D01*
X144989379Y-86542243D01*
X145221750Y-86588464D01*
X145372886Y-86588464D01*
X146456333Y-87671911D01*
X146439000Y-87713758D01*
X146439000Y-88064242D01*
X146573124Y-88388047D01*
X146820953Y-88635876D01*
X147144758Y-88770000D01*
X147495242Y-88770000D01*
X147819047Y-88635876D01*
X148066876Y-88388047D01*
X148201000Y-88064242D01*
X148201000Y-87713758D01*
X148066876Y-87389953D01*
X147819047Y-87142124D01*
X147495242Y-87008000D01*
X147144758Y-87008000D01*
X147102911Y-87025333D01*
X146232015Y-86154437D01*
X146266464Y-85981250D01*
X146266464Y-85468750D01*
X146220243Y-85236379D01*
X146088615Y-85039385D01*
X145891621Y-84907757D01*
X145659250Y-84861536D01*
X145221750Y-84861536D01*
X144989379Y-84907757D01*
X144792385Y-85039385D01*
X144660757Y-85236379D01*
X144614536Y-85468750D01*
X138214464Y-85468750D01*
X138168243Y-85236379D01*
X138036615Y-85039385D01*
X137839621Y-84907757D01*
X137607250Y-84861536D01*
X137169750Y-84861536D01*
X136937379Y-84907757D01*
X136801671Y-84998435D01*
X136647578Y-84844342D01*
X136320833Y-84709000D01*
X135967167Y-84709000D01*
X135640422Y-84844342D01*
X135390342Y-85094422D01*
X135255000Y-85421167D01*
X127127000Y-85421167D01*
X127127000Y-83918649D01*
X150476000Y-83918649D01*
X150476000Y-84229351D01*
X150594900Y-84516401D01*
X150814599Y-84736100D01*
X151101649Y-84855000D01*
X151365922Y-84855000D01*
X151929536Y-85418615D01*
X151929536Y-85854250D01*
X151975757Y-86086621D01*
X152107385Y-86283615D01*
X152304379Y-86415243D01*
X152536750Y-86461464D01*
X152974250Y-86461464D01*
X153206621Y-86415243D01*
X153403615Y-86283615D01*
X153535243Y-86086621D01*
X153581464Y-85854250D01*
X153581464Y-85341750D01*
X153535243Y-85109379D01*
X153403615Y-84912385D01*
X153206621Y-84780757D01*
X152974250Y-84734536D01*
X152538615Y-84734536D01*
X152036661Y-84232583D01*
X152038000Y-84229351D01*
X152038000Y-83918649D01*
X151919100Y-83631599D01*
X151699401Y-83411900D01*
X151412351Y-83293000D01*
X151101649Y-83293000D01*
X150814599Y-83411900D01*
X150594900Y-83631599D01*
X150476000Y-83918649D01*
X127127000Y-83918649D01*
X127127000Y-74982606D01*
X129048835Y-73060771D01*
X129145955Y-73101000D01*
X129934045Y-73101000D01*
X130662146Y-72799411D01*
X131219411Y-72242146D01*
X131521000Y-71514045D01*
X131521000Y-70725955D01*
X131480771Y-70628835D01*
X133402606Y-68707000D01*
X139700000Y-68707000D01*
X139456996Y-68755336D01*
G04 #@! TO.N,+3V3*
G36*
X133604000Y-93927394D02*
X132879197Y-94652197D01*
X132851667Y-94693399D01*
X132842000Y-94742000D01*
X132842000Y-99441000D01*
X132851667Y-99489601D01*
X132879197Y-99530803D01*
X132920399Y-99558333D01*
X132969000Y-99568000D01*
X135128000Y-99568000D01*
X135128000Y-101473000D01*
X132207000Y-101473000D01*
X132207000Y-97790000D01*
X132197333Y-97741399D01*
X132169803Y-97700197D01*
X130937000Y-96467394D01*
X130937000Y-91567000D01*
X133604000Y-91567000D01*
X133604000Y-93927394D01*
X133604000Y-93927394D01*
G37*
X133604000Y-93927394D02*
X132879197Y-94652197D01*
X132851667Y-94693399D01*
X132842000Y-94742000D01*
X132842000Y-99441000D01*
X132851667Y-99489601D01*
X132879197Y-99530803D01*
X132920399Y-99558333D01*
X132969000Y-99568000D01*
X135128000Y-99568000D01*
X135128000Y-101473000D01*
X132207000Y-101473000D01*
X132207000Y-97790000D01*
X132197333Y-97741399D01*
X132169803Y-97700197D01*
X130937000Y-96467394D01*
X130937000Y-91567000D01*
X133604000Y-91567000D01*
X133604000Y-93927394D01*
G04 #@! TD*
M02*
