G04 #@! TF.GenerationSoftware,KiCad,Pcbnew,(5.0.0)*
G04 #@! TF.CreationDate,2018-09-15T00:01:03-04:00*
G04 #@! TF.ProjectId,EFMPod,45464D506F642E6B696361645F706362,rev?*
G04 #@! TF.SameCoordinates,Original*
G04 #@! TF.FileFunction,Paste,Bot*
G04 #@! TF.FilePolarity,Positive*
%FSLAX46Y46*%
G04 Gerber Fmt 4.6, Leading zero omitted, Abs format (unit mm)*
G04 Created by KiCad (PCBNEW (5.0.0)) date 09/15/18 00:01:03*
%MOMM*%
%LPD*%
G01*
G04 APERTURE LIST*
%ADD10C,0.100000*%
%ADD11C,0.875000*%
%ADD12R,8.000000X3.000000*%
G04 APERTURE END LIST*
D10*
G04 #@! TO.C,C1*
G36*
X139330691Y-91347053D02*
X139351926Y-91350203D01*
X139372750Y-91355419D01*
X139392962Y-91362651D01*
X139412368Y-91371830D01*
X139430781Y-91382866D01*
X139448024Y-91395654D01*
X139463930Y-91410070D01*
X139478346Y-91425976D01*
X139491134Y-91443219D01*
X139502170Y-91461632D01*
X139511349Y-91481038D01*
X139518581Y-91501250D01*
X139523797Y-91522074D01*
X139526947Y-91543309D01*
X139528000Y-91564750D01*
X139528000Y-92077250D01*
X139526947Y-92098691D01*
X139523797Y-92119926D01*
X139518581Y-92140750D01*
X139511349Y-92160962D01*
X139502170Y-92180368D01*
X139491134Y-92198781D01*
X139478346Y-92216024D01*
X139463930Y-92231930D01*
X139448024Y-92246346D01*
X139430781Y-92259134D01*
X139412368Y-92270170D01*
X139392962Y-92279349D01*
X139372750Y-92286581D01*
X139351926Y-92291797D01*
X139330691Y-92294947D01*
X139309250Y-92296000D01*
X138871750Y-92296000D01*
X138850309Y-92294947D01*
X138829074Y-92291797D01*
X138808250Y-92286581D01*
X138788038Y-92279349D01*
X138768632Y-92270170D01*
X138750219Y-92259134D01*
X138732976Y-92246346D01*
X138717070Y-92231930D01*
X138702654Y-92216024D01*
X138689866Y-92198781D01*
X138678830Y-92180368D01*
X138669651Y-92160962D01*
X138662419Y-92140750D01*
X138657203Y-92119926D01*
X138654053Y-92098691D01*
X138653000Y-92077250D01*
X138653000Y-91564750D01*
X138654053Y-91543309D01*
X138657203Y-91522074D01*
X138662419Y-91501250D01*
X138669651Y-91481038D01*
X138678830Y-91461632D01*
X138689866Y-91443219D01*
X138702654Y-91425976D01*
X138717070Y-91410070D01*
X138732976Y-91395654D01*
X138750219Y-91382866D01*
X138768632Y-91371830D01*
X138788038Y-91362651D01*
X138808250Y-91355419D01*
X138829074Y-91350203D01*
X138850309Y-91347053D01*
X138871750Y-91346000D01*
X139309250Y-91346000D01*
X139330691Y-91347053D01*
X139330691Y-91347053D01*
G37*
D11*
X139090500Y-91821000D03*
D10*
G36*
X137755691Y-91347053D02*
X137776926Y-91350203D01*
X137797750Y-91355419D01*
X137817962Y-91362651D01*
X137837368Y-91371830D01*
X137855781Y-91382866D01*
X137873024Y-91395654D01*
X137888930Y-91410070D01*
X137903346Y-91425976D01*
X137916134Y-91443219D01*
X137927170Y-91461632D01*
X137936349Y-91481038D01*
X137943581Y-91501250D01*
X137948797Y-91522074D01*
X137951947Y-91543309D01*
X137953000Y-91564750D01*
X137953000Y-92077250D01*
X137951947Y-92098691D01*
X137948797Y-92119926D01*
X137943581Y-92140750D01*
X137936349Y-92160962D01*
X137927170Y-92180368D01*
X137916134Y-92198781D01*
X137903346Y-92216024D01*
X137888930Y-92231930D01*
X137873024Y-92246346D01*
X137855781Y-92259134D01*
X137837368Y-92270170D01*
X137817962Y-92279349D01*
X137797750Y-92286581D01*
X137776926Y-92291797D01*
X137755691Y-92294947D01*
X137734250Y-92296000D01*
X137296750Y-92296000D01*
X137275309Y-92294947D01*
X137254074Y-92291797D01*
X137233250Y-92286581D01*
X137213038Y-92279349D01*
X137193632Y-92270170D01*
X137175219Y-92259134D01*
X137157976Y-92246346D01*
X137142070Y-92231930D01*
X137127654Y-92216024D01*
X137114866Y-92198781D01*
X137103830Y-92180368D01*
X137094651Y-92160962D01*
X137087419Y-92140750D01*
X137082203Y-92119926D01*
X137079053Y-92098691D01*
X137078000Y-92077250D01*
X137078000Y-91564750D01*
X137079053Y-91543309D01*
X137082203Y-91522074D01*
X137087419Y-91501250D01*
X137094651Y-91481038D01*
X137103830Y-91461632D01*
X137114866Y-91443219D01*
X137127654Y-91425976D01*
X137142070Y-91410070D01*
X137157976Y-91395654D01*
X137175219Y-91382866D01*
X137193632Y-91371830D01*
X137213038Y-91362651D01*
X137233250Y-91355419D01*
X137254074Y-91350203D01*
X137275309Y-91347053D01*
X137296750Y-91346000D01*
X137734250Y-91346000D01*
X137755691Y-91347053D01*
X137755691Y-91347053D01*
G37*
D11*
X137515500Y-91821000D03*
G04 #@! TD*
D10*
G04 #@! TO.C,C5*
G36*
X163091691Y-86304553D02*
X163112926Y-86307703D01*
X163133750Y-86312919D01*
X163153962Y-86320151D01*
X163173368Y-86329330D01*
X163191781Y-86340366D01*
X163209024Y-86353154D01*
X163224930Y-86367570D01*
X163239346Y-86383476D01*
X163252134Y-86400719D01*
X163263170Y-86419132D01*
X163272349Y-86438538D01*
X163279581Y-86458750D01*
X163284797Y-86479574D01*
X163287947Y-86500809D01*
X163289000Y-86522250D01*
X163289000Y-86959750D01*
X163287947Y-86981191D01*
X163284797Y-87002426D01*
X163279581Y-87023250D01*
X163272349Y-87043462D01*
X163263170Y-87062868D01*
X163252134Y-87081281D01*
X163239346Y-87098524D01*
X163224930Y-87114430D01*
X163209024Y-87128846D01*
X163191781Y-87141634D01*
X163173368Y-87152670D01*
X163153962Y-87161849D01*
X163133750Y-87169081D01*
X163112926Y-87174297D01*
X163091691Y-87177447D01*
X163070250Y-87178500D01*
X162557750Y-87178500D01*
X162536309Y-87177447D01*
X162515074Y-87174297D01*
X162494250Y-87169081D01*
X162474038Y-87161849D01*
X162454632Y-87152670D01*
X162436219Y-87141634D01*
X162418976Y-87128846D01*
X162403070Y-87114430D01*
X162388654Y-87098524D01*
X162375866Y-87081281D01*
X162364830Y-87062868D01*
X162355651Y-87043462D01*
X162348419Y-87023250D01*
X162343203Y-87002426D01*
X162340053Y-86981191D01*
X162339000Y-86959750D01*
X162339000Y-86522250D01*
X162340053Y-86500809D01*
X162343203Y-86479574D01*
X162348419Y-86458750D01*
X162355651Y-86438538D01*
X162364830Y-86419132D01*
X162375866Y-86400719D01*
X162388654Y-86383476D01*
X162403070Y-86367570D01*
X162418976Y-86353154D01*
X162436219Y-86340366D01*
X162454632Y-86329330D01*
X162474038Y-86320151D01*
X162494250Y-86312919D01*
X162515074Y-86307703D01*
X162536309Y-86304553D01*
X162557750Y-86303500D01*
X163070250Y-86303500D01*
X163091691Y-86304553D01*
X163091691Y-86304553D01*
G37*
D11*
X162814000Y-86741000D03*
D10*
G36*
X163091691Y-84729553D02*
X163112926Y-84732703D01*
X163133750Y-84737919D01*
X163153962Y-84745151D01*
X163173368Y-84754330D01*
X163191781Y-84765366D01*
X163209024Y-84778154D01*
X163224930Y-84792570D01*
X163239346Y-84808476D01*
X163252134Y-84825719D01*
X163263170Y-84844132D01*
X163272349Y-84863538D01*
X163279581Y-84883750D01*
X163284797Y-84904574D01*
X163287947Y-84925809D01*
X163289000Y-84947250D01*
X163289000Y-85384750D01*
X163287947Y-85406191D01*
X163284797Y-85427426D01*
X163279581Y-85448250D01*
X163272349Y-85468462D01*
X163263170Y-85487868D01*
X163252134Y-85506281D01*
X163239346Y-85523524D01*
X163224930Y-85539430D01*
X163209024Y-85553846D01*
X163191781Y-85566634D01*
X163173368Y-85577670D01*
X163153962Y-85586849D01*
X163133750Y-85594081D01*
X163112926Y-85599297D01*
X163091691Y-85602447D01*
X163070250Y-85603500D01*
X162557750Y-85603500D01*
X162536309Y-85602447D01*
X162515074Y-85599297D01*
X162494250Y-85594081D01*
X162474038Y-85586849D01*
X162454632Y-85577670D01*
X162436219Y-85566634D01*
X162418976Y-85553846D01*
X162403070Y-85539430D01*
X162388654Y-85523524D01*
X162375866Y-85506281D01*
X162364830Y-85487868D01*
X162355651Y-85468462D01*
X162348419Y-85448250D01*
X162343203Y-85427426D01*
X162340053Y-85406191D01*
X162339000Y-85384750D01*
X162339000Y-84947250D01*
X162340053Y-84925809D01*
X162343203Y-84904574D01*
X162348419Y-84883750D01*
X162355651Y-84863538D01*
X162364830Y-84844132D01*
X162375866Y-84825719D01*
X162388654Y-84808476D01*
X162403070Y-84792570D01*
X162418976Y-84778154D01*
X162436219Y-84765366D01*
X162454632Y-84754330D01*
X162474038Y-84745151D01*
X162494250Y-84737919D01*
X162515074Y-84732703D01*
X162536309Y-84729553D01*
X162557750Y-84728500D01*
X163070250Y-84728500D01*
X163091691Y-84729553D01*
X163091691Y-84729553D01*
G37*
D11*
X162814000Y-85166000D03*
G04 #@! TD*
D10*
G04 #@! TO.C,C6*
G36*
X152995691Y-85124053D02*
X153016926Y-85127203D01*
X153037750Y-85132419D01*
X153057962Y-85139651D01*
X153077368Y-85148830D01*
X153095781Y-85159866D01*
X153113024Y-85172654D01*
X153128930Y-85187070D01*
X153143346Y-85202976D01*
X153156134Y-85220219D01*
X153167170Y-85238632D01*
X153176349Y-85258038D01*
X153183581Y-85278250D01*
X153188797Y-85299074D01*
X153191947Y-85320309D01*
X153193000Y-85341750D01*
X153193000Y-85854250D01*
X153191947Y-85875691D01*
X153188797Y-85896926D01*
X153183581Y-85917750D01*
X153176349Y-85937962D01*
X153167170Y-85957368D01*
X153156134Y-85975781D01*
X153143346Y-85993024D01*
X153128930Y-86008930D01*
X153113024Y-86023346D01*
X153095781Y-86036134D01*
X153077368Y-86047170D01*
X153057962Y-86056349D01*
X153037750Y-86063581D01*
X153016926Y-86068797D01*
X152995691Y-86071947D01*
X152974250Y-86073000D01*
X152536750Y-86073000D01*
X152515309Y-86071947D01*
X152494074Y-86068797D01*
X152473250Y-86063581D01*
X152453038Y-86056349D01*
X152433632Y-86047170D01*
X152415219Y-86036134D01*
X152397976Y-86023346D01*
X152382070Y-86008930D01*
X152367654Y-85993024D01*
X152354866Y-85975781D01*
X152343830Y-85957368D01*
X152334651Y-85937962D01*
X152327419Y-85917750D01*
X152322203Y-85896926D01*
X152319053Y-85875691D01*
X152318000Y-85854250D01*
X152318000Y-85341750D01*
X152319053Y-85320309D01*
X152322203Y-85299074D01*
X152327419Y-85278250D01*
X152334651Y-85258038D01*
X152343830Y-85238632D01*
X152354866Y-85220219D01*
X152367654Y-85202976D01*
X152382070Y-85187070D01*
X152397976Y-85172654D01*
X152415219Y-85159866D01*
X152433632Y-85148830D01*
X152453038Y-85139651D01*
X152473250Y-85132419D01*
X152494074Y-85127203D01*
X152515309Y-85124053D01*
X152536750Y-85123000D01*
X152974250Y-85123000D01*
X152995691Y-85124053D01*
X152995691Y-85124053D01*
G37*
D11*
X152755500Y-85598000D03*
D10*
G36*
X154570691Y-85124053D02*
X154591926Y-85127203D01*
X154612750Y-85132419D01*
X154632962Y-85139651D01*
X154652368Y-85148830D01*
X154670781Y-85159866D01*
X154688024Y-85172654D01*
X154703930Y-85187070D01*
X154718346Y-85202976D01*
X154731134Y-85220219D01*
X154742170Y-85238632D01*
X154751349Y-85258038D01*
X154758581Y-85278250D01*
X154763797Y-85299074D01*
X154766947Y-85320309D01*
X154768000Y-85341750D01*
X154768000Y-85854250D01*
X154766947Y-85875691D01*
X154763797Y-85896926D01*
X154758581Y-85917750D01*
X154751349Y-85937962D01*
X154742170Y-85957368D01*
X154731134Y-85975781D01*
X154718346Y-85993024D01*
X154703930Y-86008930D01*
X154688024Y-86023346D01*
X154670781Y-86036134D01*
X154652368Y-86047170D01*
X154632962Y-86056349D01*
X154612750Y-86063581D01*
X154591926Y-86068797D01*
X154570691Y-86071947D01*
X154549250Y-86073000D01*
X154111750Y-86073000D01*
X154090309Y-86071947D01*
X154069074Y-86068797D01*
X154048250Y-86063581D01*
X154028038Y-86056349D01*
X154008632Y-86047170D01*
X153990219Y-86036134D01*
X153972976Y-86023346D01*
X153957070Y-86008930D01*
X153942654Y-85993024D01*
X153929866Y-85975781D01*
X153918830Y-85957368D01*
X153909651Y-85937962D01*
X153902419Y-85917750D01*
X153897203Y-85896926D01*
X153894053Y-85875691D01*
X153893000Y-85854250D01*
X153893000Y-85341750D01*
X153894053Y-85320309D01*
X153897203Y-85299074D01*
X153902419Y-85278250D01*
X153909651Y-85258038D01*
X153918830Y-85238632D01*
X153929866Y-85220219D01*
X153942654Y-85202976D01*
X153957070Y-85187070D01*
X153972976Y-85172654D01*
X153990219Y-85159866D01*
X154008632Y-85148830D01*
X154028038Y-85139651D01*
X154048250Y-85132419D01*
X154069074Y-85127203D01*
X154090309Y-85124053D01*
X154111750Y-85123000D01*
X154549250Y-85123000D01*
X154570691Y-85124053D01*
X154570691Y-85124053D01*
G37*
D11*
X154330500Y-85598000D03*
G04 #@! TD*
D10*
G04 #@! TO.C,C7*
G36*
X160043691Y-85187053D02*
X160064926Y-85190203D01*
X160085750Y-85195419D01*
X160105962Y-85202651D01*
X160125368Y-85211830D01*
X160143781Y-85222866D01*
X160161024Y-85235654D01*
X160176930Y-85250070D01*
X160191346Y-85265976D01*
X160204134Y-85283219D01*
X160215170Y-85301632D01*
X160224349Y-85321038D01*
X160231581Y-85341250D01*
X160236797Y-85362074D01*
X160239947Y-85383309D01*
X160241000Y-85404750D01*
X160241000Y-85842250D01*
X160239947Y-85863691D01*
X160236797Y-85884926D01*
X160231581Y-85905750D01*
X160224349Y-85925962D01*
X160215170Y-85945368D01*
X160204134Y-85963781D01*
X160191346Y-85981024D01*
X160176930Y-85996930D01*
X160161024Y-86011346D01*
X160143781Y-86024134D01*
X160125368Y-86035170D01*
X160105962Y-86044349D01*
X160085750Y-86051581D01*
X160064926Y-86056797D01*
X160043691Y-86059947D01*
X160022250Y-86061000D01*
X159509750Y-86061000D01*
X159488309Y-86059947D01*
X159467074Y-86056797D01*
X159446250Y-86051581D01*
X159426038Y-86044349D01*
X159406632Y-86035170D01*
X159388219Y-86024134D01*
X159370976Y-86011346D01*
X159355070Y-85996930D01*
X159340654Y-85981024D01*
X159327866Y-85963781D01*
X159316830Y-85945368D01*
X159307651Y-85925962D01*
X159300419Y-85905750D01*
X159295203Y-85884926D01*
X159292053Y-85863691D01*
X159291000Y-85842250D01*
X159291000Y-85404750D01*
X159292053Y-85383309D01*
X159295203Y-85362074D01*
X159300419Y-85341250D01*
X159307651Y-85321038D01*
X159316830Y-85301632D01*
X159327866Y-85283219D01*
X159340654Y-85265976D01*
X159355070Y-85250070D01*
X159370976Y-85235654D01*
X159388219Y-85222866D01*
X159406632Y-85211830D01*
X159426038Y-85202651D01*
X159446250Y-85195419D01*
X159467074Y-85190203D01*
X159488309Y-85187053D01*
X159509750Y-85186000D01*
X160022250Y-85186000D01*
X160043691Y-85187053D01*
X160043691Y-85187053D01*
G37*
D11*
X159766000Y-85623500D03*
D10*
G36*
X160043691Y-83612053D02*
X160064926Y-83615203D01*
X160085750Y-83620419D01*
X160105962Y-83627651D01*
X160125368Y-83636830D01*
X160143781Y-83647866D01*
X160161024Y-83660654D01*
X160176930Y-83675070D01*
X160191346Y-83690976D01*
X160204134Y-83708219D01*
X160215170Y-83726632D01*
X160224349Y-83746038D01*
X160231581Y-83766250D01*
X160236797Y-83787074D01*
X160239947Y-83808309D01*
X160241000Y-83829750D01*
X160241000Y-84267250D01*
X160239947Y-84288691D01*
X160236797Y-84309926D01*
X160231581Y-84330750D01*
X160224349Y-84350962D01*
X160215170Y-84370368D01*
X160204134Y-84388781D01*
X160191346Y-84406024D01*
X160176930Y-84421930D01*
X160161024Y-84436346D01*
X160143781Y-84449134D01*
X160125368Y-84460170D01*
X160105962Y-84469349D01*
X160085750Y-84476581D01*
X160064926Y-84481797D01*
X160043691Y-84484947D01*
X160022250Y-84486000D01*
X159509750Y-84486000D01*
X159488309Y-84484947D01*
X159467074Y-84481797D01*
X159446250Y-84476581D01*
X159426038Y-84469349D01*
X159406632Y-84460170D01*
X159388219Y-84449134D01*
X159370976Y-84436346D01*
X159355070Y-84421930D01*
X159340654Y-84406024D01*
X159327866Y-84388781D01*
X159316830Y-84370368D01*
X159307651Y-84350962D01*
X159300419Y-84330750D01*
X159295203Y-84309926D01*
X159292053Y-84288691D01*
X159291000Y-84267250D01*
X159291000Y-83829750D01*
X159292053Y-83808309D01*
X159295203Y-83787074D01*
X159300419Y-83766250D01*
X159307651Y-83746038D01*
X159316830Y-83726632D01*
X159327866Y-83708219D01*
X159340654Y-83690976D01*
X159355070Y-83675070D01*
X159370976Y-83660654D01*
X159388219Y-83647866D01*
X159406632Y-83636830D01*
X159426038Y-83627651D01*
X159446250Y-83620419D01*
X159467074Y-83615203D01*
X159488309Y-83612053D01*
X159509750Y-83611000D01*
X160022250Y-83611000D01*
X160043691Y-83612053D01*
X160043691Y-83612053D01*
G37*
D11*
X159766000Y-84048500D03*
G04 #@! TD*
D10*
G04 #@! TO.C,C8*
G36*
X161567691Y-83612053D02*
X161588926Y-83615203D01*
X161609750Y-83620419D01*
X161629962Y-83627651D01*
X161649368Y-83636830D01*
X161667781Y-83647866D01*
X161685024Y-83660654D01*
X161700930Y-83675070D01*
X161715346Y-83690976D01*
X161728134Y-83708219D01*
X161739170Y-83726632D01*
X161748349Y-83746038D01*
X161755581Y-83766250D01*
X161760797Y-83787074D01*
X161763947Y-83808309D01*
X161765000Y-83829750D01*
X161765000Y-84267250D01*
X161763947Y-84288691D01*
X161760797Y-84309926D01*
X161755581Y-84330750D01*
X161748349Y-84350962D01*
X161739170Y-84370368D01*
X161728134Y-84388781D01*
X161715346Y-84406024D01*
X161700930Y-84421930D01*
X161685024Y-84436346D01*
X161667781Y-84449134D01*
X161649368Y-84460170D01*
X161629962Y-84469349D01*
X161609750Y-84476581D01*
X161588926Y-84481797D01*
X161567691Y-84484947D01*
X161546250Y-84486000D01*
X161033750Y-84486000D01*
X161012309Y-84484947D01*
X160991074Y-84481797D01*
X160970250Y-84476581D01*
X160950038Y-84469349D01*
X160930632Y-84460170D01*
X160912219Y-84449134D01*
X160894976Y-84436346D01*
X160879070Y-84421930D01*
X160864654Y-84406024D01*
X160851866Y-84388781D01*
X160840830Y-84370368D01*
X160831651Y-84350962D01*
X160824419Y-84330750D01*
X160819203Y-84309926D01*
X160816053Y-84288691D01*
X160815000Y-84267250D01*
X160815000Y-83829750D01*
X160816053Y-83808309D01*
X160819203Y-83787074D01*
X160824419Y-83766250D01*
X160831651Y-83746038D01*
X160840830Y-83726632D01*
X160851866Y-83708219D01*
X160864654Y-83690976D01*
X160879070Y-83675070D01*
X160894976Y-83660654D01*
X160912219Y-83647866D01*
X160930632Y-83636830D01*
X160950038Y-83627651D01*
X160970250Y-83620419D01*
X160991074Y-83615203D01*
X161012309Y-83612053D01*
X161033750Y-83611000D01*
X161546250Y-83611000D01*
X161567691Y-83612053D01*
X161567691Y-83612053D01*
G37*
D11*
X161290000Y-84048500D03*
D10*
G36*
X161567691Y-85187053D02*
X161588926Y-85190203D01*
X161609750Y-85195419D01*
X161629962Y-85202651D01*
X161649368Y-85211830D01*
X161667781Y-85222866D01*
X161685024Y-85235654D01*
X161700930Y-85250070D01*
X161715346Y-85265976D01*
X161728134Y-85283219D01*
X161739170Y-85301632D01*
X161748349Y-85321038D01*
X161755581Y-85341250D01*
X161760797Y-85362074D01*
X161763947Y-85383309D01*
X161765000Y-85404750D01*
X161765000Y-85842250D01*
X161763947Y-85863691D01*
X161760797Y-85884926D01*
X161755581Y-85905750D01*
X161748349Y-85925962D01*
X161739170Y-85945368D01*
X161728134Y-85963781D01*
X161715346Y-85981024D01*
X161700930Y-85996930D01*
X161685024Y-86011346D01*
X161667781Y-86024134D01*
X161649368Y-86035170D01*
X161629962Y-86044349D01*
X161609750Y-86051581D01*
X161588926Y-86056797D01*
X161567691Y-86059947D01*
X161546250Y-86061000D01*
X161033750Y-86061000D01*
X161012309Y-86059947D01*
X160991074Y-86056797D01*
X160970250Y-86051581D01*
X160950038Y-86044349D01*
X160930632Y-86035170D01*
X160912219Y-86024134D01*
X160894976Y-86011346D01*
X160879070Y-85996930D01*
X160864654Y-85981024D01*
X160851866Y-85963781D01*
X160840830Y-85945368D01*
X160831651Y-85925962D01*
X160824419Y-85905750D01*
X160819203Y-85884926D01*
X160816053Y-85863691D01*
X160815000Y-85842250D01*
X160815000Y-85404750D01*
X160816053Y-85383309D01*
X160819203Y-85362074D01*
X160824419Y-85341250D01*
X160831651Y-85321038D01*
X160840830Y-85301632D01*
X160851866Y-85283219D01*
X160864654Y-85265976D01*
X160879070Y-85250070D01*
X160894976Y-85235654D01*
X160912219Y-85222866D01*
X160930632Y-85211830D01*
X160950038Y-85202651D01*
X160970250Y-85195419D01*
X160991074Y-85190203D01*
X161012309Y-85187053D01*
X161033750Y-85186000D01*
X161546250Y-85186000D01*
X161567691Y-85187053D01*
X161567691Y-85187053D01*
G37*
D11*
X161290000Y-85623500D03*
G04 #@! TD*
D10*
G04 #@! TO.C,C9*
G36*
X155510191Y-86648053D02*
X155531426Y-86651203D01*
X155552250Y-86656419D01*
X155572462Y-86663651D01*
X155591868Y-86672830D01*
X155610281Y-86683866D01*
X155627524Y-86696654D01*
X155643430Y-86711070D01*
X155657846Y-86726976D01*
X155670634Y-86744219D01*
X155681670Y-86762632D01*
X155690849Y-86782038D01*
X155698081Y-86802250D01*
X155703297Y-86823074D01*
X155706447Y-86844309D01*
X155707500Y-86865750D01*
X155707500Y-87378250D01*
X155706447Y-87399691D01*
X155703297Y-87420926D01*
X155698081Y-87441750D01*
X155690849Y-87461962D01*
X155681670Y-87481368D01*
X155670634Y-87499781D01*
X155657846Y-87517024D01*
X155643430Y-87532930D01*
X155627524Y-87547346D01*
X155610281Y-87560134D01*
X155591868Y-87571170D01*
X155572462Y-87580349D01*
X155552250Y-87587581D01*
X155531426Y-87592797D01*
X155510191Y-87595947D01*
X155488750Y-87597000D01*
X155051250Y-87597000D01*
X155029809Y-87595947D01*
X155008574Y-87592797D01*
X154987750Y-87587581D01*
X154967538Y-87580349D01*
X154948132Y-87571170D01*
X154929719Y-87560134D01*
X154912476Y-87547346D01*
X154896570Y-87532930D01*
X154882154Y-87517024D01*
X154869366Y-87499781D01*
X154858330Y-87481368D01*
X154849151Y-87461962D01*
X154841919Y-87441750D01*
X154836703Y-87420926D01*
X154833553Y-87399691D01*
X154832500Y-87378250D01*
X154832500Y-86865750D01*
X154833553Y-86844309D01*
X154836703Y-86823074D01*
X154841919Y-86802250D01*
X154849151Y-86782038D01*
X154858330Y-86762632D01*
X154869366Y-86744219D01*
X154882154Y-86726976D01*
X154896570Y-86711070D01*
X154912476Y-86696654D01*
X154929719Y-86683866D01*
X154948132Y-86672830D01*
X154967538Y-86663651D01*
X154987750Y-86656419D01*
X155008574Y-86651203D01*
X155029809Y-86648053D01*
X155051250Y-86647000D01*
X155488750Y-86647000D01*
X155510191Y-86648053D01*
X155510191Y-86648053D01*
G37*
D11*
X155270000Y-87122000D03*
D10*
G36*
X157085191Y-86648053D02*
X157106426Y-86651203D01*
X157127250Y-86656419D01*
X157147462Y-86663651D01*
X157166868Y-86672830D01*
X157185281Y-86683866D01*
X157202524Y-86696654D01*
X157218430Y-86711070D01*
X157232846Y-86726976D01*
X157245634Y-86744219D01*
X157256670Y-86762632D01*
X157265849Y-86782038D01*
X157273081Y-86802250D01*
X157278297Y-86823074D01*
X157281447Y-86844309D01*
X157282500Y-86865750D01*
X157282500Y-87378250D01*
X157281447Y-87399691D01*
X157278297Y-87420926D01*
X157273081Y-87441750D01*
X157265849Y-87461962D01*
X157256670Y-87481368D01*
X157245634Y-87499781D01*
X157232846Y-87517024D01*
X157218430Y-87532930D01*
X157202524Y-87547346D01*
X157185281Y-87560134D01*
X157166868Y-87571170D01*
X157147462Y-87580349D01*
X157127250Y-87587581D01*
X157106426Y-87592797D01*
X157085191Y-87595947D01*
X157063750Y-87597000D01*
X156626250Y-87597000D01*
X156604809Y-87595947D01*
X156583574Y-87592797D01*
X156562750Y-87587581D01*
X156542538Y-87580349D01*
X156523132Y-87571170D01*
X156504719Y-87560134D01*
X156487476Y-87547346D01*
X156471570Y-87532930D01*
X156457154Y-87517024D01*
X156444366Y-87499781D01*
X156433330Y-87481368D01*
X156424151Y-87461962D01*
X156416919Y-87441750D01*
X156411703Y-87420926D01*
X156408553Y-87399691D01*
X156407500Y-87378250D01*
X156407500Y-86865750D01*
X156408553Y-86844309D01*
X156411703Y-86823074D01*
X156416919Y-86802250D01*
X156424151Y-86782038D01*
X156433330Y-86762632D01*
X156444366Y-86744219D01*
X156457154Y-86726976D01*
X156471570Y-86711070D01*
X156487476Y-86696654D01*
X156504719Y-86683866D01*
X156523132Y-86672830D01*
X156542538Y-86663651D01*
X156562750Y-86656419D01*
X156583574Y-86651203D01*
X156604809Y-86648053D01*
X156626250Y-86647000D01*
X157063750Y-86647000D01*
X157085191Y-86648053D01*
X157085191Y-86648053D01*
G37*
D11*
X156845000Y-87122000D03*
G04 #@! TD*
D10*
G04 #@! TO.C,C10*
G36*
X157999691Y-80171053D02*
X158020926Y-80174203D01*
X158041750Y-80179419D01*
X158061962Y-80186651D01*
X158081368Y-80195830D01*
X158099781Y-80206866D01*
X158117024Y-80219654D01*
X158132930Y-80234070D01*
X158147346Y-80249976D01*
X158160134Y-80267219D01*
X158171170Y-80285632D01*
X158180349Y-80305038D01*
X158187581Y-80325250D01*
X158192797Y-80346074D01*
X158195947Y-80367309D01*
X158197000Y-80388750D01*
X158197000Y-80901250D01*
X158195947Y-80922691D01*
X158192797Y-80943926D01*
X158187581Y-80964750D01*
X158180349Y-80984962D01*
X158171170Y-81004368D01*
X158160134Y-81022781D01*
X158147346Y-81040024D01*
X158132930Y-81055930D01*
X158117024Y-81070346D01*
X158099781Y-81083134D01*
X158081368Y-81094170D01*
X158061962Y-81103349D01*
X158041750Y-81110581D01*
X158020926Y-81115797D01*
X157999691Y-81118947D01*
X157978250Y-81120000D01*
X157540750Y-81120000D01*
X157519309Y-81118947D01*
X157498074Y-81115797D01*
X157477250Y-81110581D01*
X157457038Y-81103349D01*
X157437632Y-81094170D01*
X157419219Y-81083134D01*
X157401976Y-81070346D01*
X157386070Y-81055930D01*
X157371654Y-81040024D01*
X157358866Y-81022781D01*
X157347830Y-81004368D01*
X157338651Y-80984962D01*
X157331419Y-80964750D01*
X157326203Y-80943926D01*
X157323053Y-80922691D01*
X157322000Y-80901250D01*
X157322000Y-80388750D01*
X157323053Y-80367309D01*
X157326203Y-80346074D01*
X157331419Y-80325250D01*
X157338651Y-80305038D01*
X157347830Y-80285632D01*
X157358866Y-80267219D01*
X157371654Y-80249976D01*
X157386070Y-80234070D01*
X157401976Y-80219654D01*
X157419219Y-80206866D01*
X157437632Y-80195830D01*
X157457038Y-80186651D01*
X157477250Y-80179419D01*
X157498074Y-80174203D01*
X157519309Y-80171053D01*
X157540750Y-80170000D01*
X157978250Y-80170000D01*
X157999691Y-80171053D01*
X157999691Y-80171053D01*
G37*
D11*
X157759500Y-80645000D03*
D10*
G36*
X156424691Y-80171053D02*
X156445926Y-80174203D01*
X156466750Y-80179419D01*
X156486962Y-80186651D01*
X156506368Y-80195830D01*
X156524781Y-80206866D01*
X156542024Y-80219654D01*
X156557930Y-80234070D01*
X156572346Y-80249976D01*
X156585134Y-80267219D01*
X156596170Y-80285632D01*
X156605349Y-80305038D01*
X156612581Y-80325250D01*
X156617797Y-80346074D01*
X156620947Y-80367309D01*
X156622000Y-80388750D01*
X156622000Y-80901250D01*
X156620947Y-80922691D01*
X156617797Y-80943926D01*
X156612581Y-80964750D01*
X156605349Y-80984962D01*
X156596170Y-81004368D01*
X156585134Y-81022781D01*
X156572346Y-81040024D01*
X156557930Y-81055930D01*
X156542024Y-81070346D01*
X156524781Y-81083134D01*
X156506368Y-81094170D01*
X156486962Y-81103349D01*
X156466750Y-81110581D01*
X156445926Y-81115797D01*
X156424691Y-81118947D01*
X156403250Y-81120000D01*
X155965750Y-81120000D01*
X155944309Y-81118947D01*
X155923074Y-81115797D01*
X155902250Y-81110581D01*
X155882038Y-81103349D01*
X155862632Y-81094170D01*
X155844219Y-81083134D01*
X155826976Y-81070346D01*
X155811070Y-81055930D01*
X155796654Y-81040024D01*
X155783866Y-81022781D01*
X155772830Y-81004368D01*
X155763651Y-80984962D01*
X155756419Y-80964750D01*
X155751203Y-80943926D01*
X155748053Y-80922691D01*
X155747000Y-80901250D01*
X155747000Y-80388750D01*
X155748053Y-80367309D01*
X155751203Y-80346074D01*
X155756419Y-80325250D01*
X155763651Y-80305038D01*
X155772830Y-80285632D01*
X155783866Y-80267219D01*
X155796654Y-80249976D01*
X155811070Y-80234070D01*
X155826976Y-80219654D01*
X155844219Y-80206866D01*
X155862632Y-80195830D01*
X155882038Y-80186651D01*
X155902250Y-80179419D01*
X155923074Y-80174203D01*
X155944309Y-80171053D01*
X155965750Y-80170000D01*
X156403250Y-80170000D01*
X156424691Y-80171053D01*
X156424691Y-80171053D01*
G37*
D11*
X156184500Y-80645000D03*
G04 #@! TD*
D10*
G04 #@! TO.C,C11*
G36*
X166381691Y-81695053D02*
X166402926Y-81698203D01*
X166423750Y-81703419D01*
X166443962Y-81710651D01*
X166463368Y-81719830D01*
X166481781Y-81730866D01*
X166499024Y-81743654D01*
X166514930Y-81758070D01*
X166529346Y-81773976D01*
X166542134Y-81791219D01*
X166553170Y-81809632D01*
X166562349Y-81829038D01*
X166569581Y-81849250D01*
X166574797Y-81870074D01*
X166577947Y-81891309D01*
X166579000Y-81912750D01*
X166579000Y-82425250D01*
X166577947Y-82446691D01*
X166574797Y-82467926D01*
X166569581Y-82488750D01*
X166562349Y-82508962D01*
X166553170Y-82528368D01*
X166542134Y-82546781D01*
X166529346Y-82564024D01*
X166514930Y-82579930D01*
X166499024Y-82594346D01*
X166481781Y-82607134D01*
X166463368Y-82618170D01*
X166443962Y-82627349D01*
X166423750Y-82634581D01*
X166402926Y-82639797D01*
X166381691Y-82642947D01*
X166360250Y-82644000D01*
X165922750Y-82644000D01*
X165901309Y-82642947D01*
X165880074Y-82639797D01*
X165859250Y-82634581D01*
X165839038Y-82627349D01*
X165819632Y-82618170D01*
X165801219Y-82607134D01*
X165783976Y-82594346D01*
X165768070Y-82579930D01*
X165753654Y-82564024D01*
X165740866Y-82546781D01*
X165729830Y-82528368D01*
X165720651Y-82508962D01*
X165713419Y-82488750D01*
X165708203Y-82467926D01*
X165705053Y-82446691D01*
X165704000Y-82425250D01*
X165704000Y-81912750D01*
X165705053Y-81891309D01*
X165708203Y-81870074D01*
X165713419Y-81849250D01*
X165720651Y-81829038D01*
X165729830Y-81809632D01*
X165740866Y-81791219D01*
X165753654Y-81773976D01*
X165768070Y-81758070D01*
X165783976Y-81743654D01*
X165801219Y-81730866D01*
X165819632Y-81719830D01*
X165839038Y-81710651D01*
X165859250Y-81703419D01*
X165880074Y-81698203D01*
X165901309Y-81695053D01*
X165922750Y-81694000D01*
X166360250Y-81694000D01*
X166381691Y-81695053D01*
X166381691Y-81695053D01*
G37*
D11*
X166141500Y-82169000D03*
D10*
G36*
X164806691Y-81695053D02*
X164827926Y-81698203D01*
X164848750Y-81703419D01*
X164868962Y-81710651D01*
X164888368Y-81719830D01*
X164906781Y-81730866D01*
X164924024Y-81743654D01*
X164939930Y-81758070D01*
X164954346Y-81773976D01*
X164967134Y-81791219D01*
X164978170Y-81809632D01*
X164987349Y-81829038D01*
X164994581Y-81849250D01*
X164999797Y-81870074D01*
X165002947Y-81891309D01*
X165004000Y-81912750D01*
X165004000Y-82425250D01*
X165002947Y-82446691D01*
X164999797Y-82467926D01*
X164994581Y-82488750D01*
X164987349Y-82508962D01*
X164978170Y-82528368D01*
X164967134Y-82546781D01*
X164954346Y-82564024D01*
X164939930Y-82579930D01*
X164924024Y-82594346D01*
X164906781Y-82607134D01*
X164888368Y-82618170D01*
X164868962Y-82627349D01*
X164848750Y-82634581D01*
X164827926Y-82639797D01*
X164806691Y-82642947D01*
X164785250Y-82644000D01*
X164347750Y-82644000D01*
X164326309Y-82642947D01*
X164305074Y-82639797D01*
X164284250Y-82634581D01*
X164264038Y-82627349D01*
X164244632Y-82618170D01*
X164226219Y-82607134D01*
X164208976Y-82594346D01*
X164193070Y-82579930D01*
X164178654Y-82564024D01*
X164165866Y-82546781D01*
X164154830Y-82528368D01*
X164145651Y-82508962D01*
X164138419Y-82488750D01*
X164133203Y-82467926D01*
X164130053Y-82446691D01*
X164129000Y-82425250D01*
X164129000Y-81912750D01*
X164130053Y-81891309D01*
X164133203Y-81870074D01*
X164138419Y-81849250D01*
X164145651Y-81829038D01*
X164154830Y-81809632D01*
X164165866Y-81791219D01*
X164178654Y-81773976D01*
X164193070Y-81758070D01*
X164208976Y-81743654D01*
X164226219Y-81730866D01*
X164244632Y-81719830D01*
X164264038Y-81710651D01*
X164284250Y-81703419D01*
X164305074Y-81698203D01*
X164326309Y-81695053D01*
X164347750Y-81694000D01*
X164785250Y-81694000D01*
X164806691Y-81695053D01*
X164806691Y-81695053D01*
G37*
D11*
X164566500Y-82169000D03*
G04 #@! TD*
D10*
G04 #@! TO.C,C12*
G36*
X157618691Y-85124053D02*
X157639926Y-85127203D01*
X157660750Y-85132419D01*
X157680962Y-85139651D01*
X157700368Y-85148830D01*
X157718781Y-85159866D01*
X157736024Y-85172654D01*
X157751930Y-85187070D01*
X157766346Y-85202976D01*
X157779134Y-85220219D01*
X157790170Y-85238632D01*
X157799349Y-85258038D01*
X157806581Y-85278250D01*
X157811797Y-85299074D01*
X157814947Y-85320309D01*
X157816000Y-85341750D01*
X157816000Y-85854250D01*
X157814947Y-85875691D01*
X157811797Y-85896926D01*
X157806581Y-85917750D01*
X157799349Y-85937962D01*
X157790170Y-85957368D01*
X157779134Y-85975781D01*
X157766346Y-85993024D01*
X157751930Y-86008930D01*
X157736024Y-86023346D01*
X157718781Y-86036134D01*
X157700368Y-86047170D01*
X157680962Y-86056349D01*
X157660750Y-86063581D01*
X157639926Y-86068797D01*
X157618691Y-86071947D01*
X157597250Y-86073000D01*
X157159750Y-86073000D01*
X157138309Y-86071947D01*
X157117074Y-86068797D01*
X157096250Y-86063581D01*
X157076038Y-86056349D01*
X157056632Y-86047170D01*
X157038219Y-86036134D01*
X157020976Y-86023346D01*
X157005070Y-86008930D01*
X156990654Y-85993024D01*
X156977866Y-85975781D01*
X156966830Y-85957368D01*
X156957651Y-85937962D01*
X156950419Y-85917750D01*
X156945203Y-85896926D01*
X156942053Y-85875691D01*
X156941000Y-85854250D01*
X156941000Y-85341750D01*
X156942053Y-85320309D01*
X156945203Y-85299074D01*
X156950419Y-85278250D01*
X156957651Y-85258038D01*
X156966830Y-85238632D01*
X156977866Y-85220219D01*
X156990654Y-85202976D01*
X157005070Y-85187070D01*
X157020976Y-85172654D01*
X157038219Y-85159866D01*
X157056632Y-85148830D01*
X157076038Y-85139651D01*
X157096250Y-85132419D01*
X157117074Y-85127203D01*
X157138309Y-85124053D01*
X157159750Y-85123000D01*
X157597250Y-85123000D01*
X157618691Y-85124053D01*
X157618691Y-85124053D01*
G37*
D11*
X157378500Y-85598000D03*
D10*
G36*
X156043691Y-85124053D02*
X156064926Y-85127203D01*
X156085750Y-85132419D01*
X156105962Y-85139651D01*
X156125368Y-85148830D01*
X156143781Y-85159866D01*
X156161024Y-85172654D01*
X156176930Y-85187070D01*
X156191346Y-85202976D01*
X156204134Y-85220219D01*
X156215170Y-85238632D01*
X156224349Y-85258038D01*
X156231581Y-85278250D01*
X156236797Y-85299074D01*
X156239947Y-85320309D01*
X156241000Y-85341750D01*
X156241000Y-85854250D01*
X156239947Y-85875691D01*
X156236797Y-85896926D01*
X156231581Y-85917750D01*
X156224349Y-85937962D01*
X156215170Y-85957368D01*
X156204134Y-85975781D01*
X156191346Y-85993024D01*
X156176930Y-86008930D01*
X156161024Y-86023346D01*
X156143781Y-86036134D01*
X156125368Y-86047170D01*
X156105962Y-86056349D01*
X156085750Y-86063581D01*
X156064926Y-86068797D01*
X156043691Y-86071947D01*
X156022250Y-86073000D01*
X155584750Y-86073000D01*
X155563309Y-86071947D01*
X155542074Y-86068797D01*
X155521250Y-86063581D01*
X155501038Y-86056349D01*
X155481632Y-86047170D01*
X155463219Y-86036134D01*
X155445976Y-86023346D01*
X155430070Y-86008930D01*
X155415654Y-85993024D01*
X155402866Y-85975781D01*
X155391830Y-85957368D01*
X155382651Y-85937962D01*
X155375419Y-85917750D01*
X155370203Y-85896926D01*
X155367053Y-85875691D01*
X155366000Y-85854250D01*
X155366000Y-85341750D01*
X155367053Y-85320309D01*
X155370203Y-85299074D01*
X155375419Y-85278250D01*
X155382651Y-85258038D01*
X155391830Y-85238632D01*
X155402866Y-85220219D01*
X155415654Y-85202976D01*
X155430070Y-85187070D01*
X155445976Y-85172654D01*
X155463219Y-85159866D01*
X155481632Y-85148830D01*
X155501038Y-85139651D01*
X155521250Y-85132419D01*
X155542074Y-85127203D01*
X155563309Y-85124053D01*
X155584750Y-85123000D01*
X156022250Y-85123000D01*
X156043691Y-85124053D01*
X156043691Y-85124053D01*
G37*
D11*
X155803500Y-85598000D03*
G04 #@! TD*
D10*
G04 #@! TO.C,C13*
G36*
X155891191Y-83600053D02*
X155912426Y-83603203D01*
X155933250Y-83608419D01*
X155953462Y-83615651D01*
X155972868Y-83624830D01*
X155991281Y-83635866D01*
X156008524Y-83648654D01*
X156024430Y-83663070D01*
X156038846Y-83678976D01*
X156051634Y-83696219D01*
X156062670Y-83714632D01*
X156071849Y-83734038D01*
X156079081Y-83754250D01*
X156084297Y-83775074D01*
X156087447Y-83796309D01*
X156088500Y-83817750D01*
X156088500Y-84330250D01*
X156087447Y-84351691D01*
X156084297Y-84372926D01*
X156079081Y-84393750D01*
X156071849Y-84413962D01*
X156062670Y-84433368D01*
X156051634Y-84451781D01*
X156038846Y-84469024D01*
X156024430Y-84484930D01*
X156008524Y-84499346D01*
X155991281Y-84512134D01*
X155972868Y-84523170D01*
X155953462Y-84532349D01*
X155933250Y-84539581D01*
X155912426Y-84544797D01*
X155891191Y-84547947D01*
X155869750Y-84549000D01*
X155432250Y-84549000D01*
X155410809Y-84547947D01*
X155389574Y-84544797D01*
X155368750Y-84539581D01*
X155348538Y-84532349D01*
X155329132Y-84523170D01*
X155310719Y-84512134D01*
X155293476Y-84499346D01*
X155277570Y-84484930D01*
X155263154Y-84469024D01*
X155250366Y-84451781D01*
X155239330Y-84433368D01*
X155230151Y-84413962D01*
X155222919Y-84393750D01*
X155217703Y-84372926D01*
X155214553Y-84351691D01*
X155213500Y-84330250D01*
X155213500Y-83817750D01*
X155214553Y-83796309D01*
X155217703Y-83775074D01*
X155222919Y-83754250D01*
X155230151Y-83734038D01*
X155239330Y-83714632D01*
X155250366Y-83696219D01*
X155263154Y-83678976D01*
X155277570Y-83663070D01*
X155293476Y-83648654D01*
X155310719Y-83635866D01*
X155329132Y-83624830D01*
X155348538Y-83615651D01*
X155368750Y-83608419D01*
X155389574Y-83603203D01*
X155410809Y-83600053D01*
X155432250Y-83599000D01*
X155869750Y-83599000D01*
X155891191Y-83600053D01*
X155891191Y-83600053D01*
G37*
D11*
X155651000Y-84074000D03*
D10*
G36*
X157466191Y-83600053D02*
X157487426Y-83603203D01*
X157508250Y-83608419D01*
X157528462Y-83615651D01*
X157547868Y-83624830D01*
X157566281Y-83635866D01*
X157583524Y-83648654D01*
X157599430Y-83663070D01*
X157613846Y-83678976D01*
X157626634Y-83696219D01*
X157637670Y-83714632D01*
X157646849Y-83734038D01*
X157654081Y-83754250D01*
X157659297Y-83775074D01*
X157662447Y-83796309D01*
X157663500Y-83817750D01*
X157663500Y-84330250D01*
X157662447Y-84351691D01*
X157659297Y-84372926D01*
X157654081Y-84393750D01*
X157646849Y-84413962D01*
X157637670Y-84433368D01*
X157626634Y-84451781D01*
X157613846Y-84469024D01*
X157599430Y-84484930D01*
X157583524Y-84499346D01*
X157566281Y-84512134D01*
X157547868Y-84523170D01*
X157528462Y-84532349D01*
X157508250Y-84539581D01*
X157487426Y-84544797D01*
X157466191Y-84547947D01*
X157444750Y-84549000D01*
X157007250Y-84549000D01*
X156985809Y-84547947D01*
X156964574Y-84544797D01*
X156943750Y-84539581D01*
X156923538Y-84532349D01*
X156904132Y-84523170D01*
X156885719Y-84512134D01*
X156868476Y-84499346D01*
X156852570Y-84484930D01*
X156838154Y-84469024D01*
X156825366Y-84451781D01*
X156814330Y-84433368D01*
X156805151Y-84413962D01*
X156797919Y-84393750D01*
X156792703Y-84372926D01*
X156789553Y-84351691D01*
X156788500Y-84330250D01*
X156788500Y-83817750D01*
X156789553Y-83796309D01*
X156792703Y-83775074D01*
X156797919Y-83754250D01*
X156805151Y-83734038D01*
X156814330Y-83714632D01*
X156825366Y-83696219D01*
X156838154Y-83678976D01*
X156852570Y-83663070D01*
X156868476Y-83648654D01*
X156885719Y-83635866D01*
X156904132Y-83624830D01*
X156923538Y-83615651D01*
X156943750Y-83608419D01*
X156964574Y-83603203D01*
X156985809Y-83600053D01*
X157007250Y-83599000D01*
X157444750Y-83599000D01*
X157466191Y-83600053D01*
X157466191Y-83600053D01*
G37*
D11*
X157226000Y-84074000D03*
G04 #@! TD*
D10*
G04 #@! TO.C,C14*
G36*
X164615691Y-84729553D02*
X164636926Y-84732703D01*
X164657750Y-84737919D01*
X164677962Y-84745151D01*
X164697368Y-84754330D01*
X164715781Y-84765366D01*
X164733024Y-84778154D01*
X164748930Y-84792570D01*
X164763346Y-84808476D01*
X164776134Y-84825719D01*
X164787170Y-84844132D01*
X164796349Y-84863538D01*
X164803581Y-84883750D01*
X164808797Y-84904574D01*
X164811947Y-84925809D01*
X164813000Y-84947250D01*
X164813000Y-85384750D01*
X164811947Y-85406191D01*
X164808797Y-85427426D01*
X164803581Y-85448250D01*
X164796349Y-85468462D01*
X164787170Y-85487868D01*
X164776134Y-85506281D01*
X164763346Y-85523524D01*
X164748930Y-85539430D01*
X164733024Y-85553846D01*
X164715781Y-85566634D01*
X164697368Y-85577670D01*
X164677962Y-85586849D01*
X164657750Y-85594081D01*
X164636926Y-85599297D01*
X164615691Y-85602447D01*
X164594250Y-85603500D01*
X164081750Y-85603500D01*
X164060309Y-85602447D01*
X164039074Y-85599297D01*
X164018250Y-85594081D01*
X163998038Y-85586849D01*
X163978632Y-85577670D01*
X163960219Y-85566634D01*
X163942976Y-85553846D01*
X163927070Y-85539430D01*
X163912654Y-85523524D01*
X163899866Y-85506281D01*
X163888830Y-85487868D01*
X163879651Y-85468462D01*
X163872419Y-85448250D01*
X163867203Y-85427426D01*
X163864053Y-85406191D01*
X163863000Y-85384750D01*
X163863000Y-84947250D01*
X163864053Y-84925809D01*
X163867203Y-84904574D01*
X163872419Y-84883750D01*
X163879651Y-84863538D01*
X163888830Y-84844132D01*
X163899866Y-84825719D01*
X163912654Y-84808476D01*
X163927070Y-84792570D01*
X163942976Y-84778154D01*
X163960219Y-84765366D01*
X163978632Y-84754330D01*
X163998038Y-84745151D01*
X164018250Y-84737919D01*
X164039074Y-84732703D01*
X164060309Y-84729553D01*
X164081750Y-84728500D01*
X164594250Y-84728500D01*
X164615691Y-84729553D01*
X164615691Y-84729553D01*
G37*
D11*
X164338000Y-85166000D03*
D10*
G36*
X164615691Y-86304553D02*
X164636926Y-86307703D01*
X164657750Y-86312919D01*
X164677962Y-86320151D01*
X164697368Y-86329330D01*
X164715781Y-86340366D01*
X164733024Y-86353154D01*
X164748930Y-86367570D01*
X164763346Y-86383476D01*
X164776134Y-86400719D01*
X164787170Y-86419132D01*
X164796349Y-86438538D01*
X164803581Y-86458750D01*
X164808797Y-86479574D01*
X164811947Y-86500809D01*
X164813000Y-86522250D01*
X164813000Y-86959750D01*
X164811947Y-86981191D01*
X164808797Y-87002426D01*
X164803581Y-87023250D01*
X164796349Y-87043462D01*
X164787170Y-87062868D01*
X164776134Y-87081281D01*
X164763346Y-87098524D01*
X164748930Y-87114430D01*
X164733024Y-87128846D01*
X164715781Y-87141634D01*
X164697368Y-87152670D01*
X164677962Y-87161849D01*
X164657750Y-87169081D01*
X164636926Y-87174297D01*
X164615691Y-87177447D01*
X164594250Y-87178500D01*
X164081750Y-87178500D01*
X164060309Y-87177447D01*
X164039074Y-87174297D01*
X164018250Y-87169081D01*
X163998038Y-87161849D01*
X163978632Y-87152670D01*
X163960219Y-87141634D01*
X163942976Y-87128846D01*
X163927070Y-87114430D01*
X163912654Y-87098524D01*
X163899866Y-87081281D01*
X163888830Y-87062868D01*
X163879651Y-87043462D01*
X163872419Y-87023250D01*
X163867203Y-87002426D01*
X163864053Y-86981191D01*
X163863000Y-86959750D01*
X163863000Y-86522250D01*
X163864053Y-86500809D01*
X163867203Y-86479574D01*
X163872419Y-86458750D01*
X163879651Y-86438538D01*
X163888830Y-86419132D01*
X163899866Y-86400719D01*
X163912654Y-86383476D01*
X163927070Y-86367570D01*
X163942976Y-86353154D01*
X163960219Y-86340366D01*
X163978632Y-86329330D01*
X163998038Y-86320151D01*
X164018250Y-86312919D01*
X164039074Y-86307703D01*
X164060309Y-86304553D01*
X164081750Y-86303500D01*
X164594250Y-86303500D01*
X164615691Y-86304553D01*
X164615691Y-86304553D01*
G37*
D11*
X164338000Y-86741000D03*
G04 #@! TD*
D10*
G04 #@! TO.C,C17*
G36*
X143851691Y-91474053D02*
X143872926Y-91477203D01*
X143893750Y-91482419D01*
X143913962Y-91489651D01*
X143933368Y-91498830D01*
X143951781Y-91509866D01*
X143969024Y-91522654D01*
X143984930Y-91537070D01*
X143999346Y-91552976D01*
X144012134Y-91570219D01*
X144023170Y-91588632D01*
X144032349Y-91608038D01*
X144039581Y-91628250D01*
X144044797Y-91649074D01*
X144047947Y-91670309D01*
X144049000Y-91691750D01*
X144049000Y-92204250D01*
X144047947Y-92225691D01*
X144044797Y-92246926D01*
X144039581Y-92267750D01*
X144032349Y-92287962D01*
X144023170Y-92307368D01*
X144012134Y-92325781D01*
X143999346Y-92343024D01*
X143984930Y-92358930D01*
X143969024Y-92373346D01*
X143951781Y-92386134D01*
X143933368Y-92397170D01*
X143913962Y-92406349D01*
X143893750Y-92413581D01*
X143872926Y-92418797D01*
X143851691Y-92421947D01*
X143830250Y-92423000D01*
X143392750Y-92423000D01*
X143371309Y-92421947D01*
X143350074Y-92418797D01*
X143329250Y-92413581D01*
X143309038Y-92406349D01*
X143289632Y-92397170D01*
X143271219Y-92386134D01*
X143253976Y-92373346D01*
X143238070Y-92358930D01*
X143223654Y-92343024D01*
X143210866Y-92325781D01*
X143199830Y-92307368D01*
X143190651Y-92287962D01*
X143183419Y-92267750D01*
X143178203Y-92246926D01*
X143175053Y-92225691D01*
X143174000Y-92204250D01*
X143174000Y-91691750D01*
X143175053Y-91670309D01*
X143178203Y-91649074D01*
X143183419Y-91628250D01*
X143190651Y-91608038D01*
X143199830Y-91588632D01*
X143210866Y-91570219D01*
X143223654Y-91552976D01*
X143238070Y-91537070D01*
X143253976Y-91522654D01*
X143271219Y-91509866D01*
X143289632Y-91498830D01*
X143309038Y-91489651D01*
X143329250Y-91482419D01*
X143350074Y-91477203D01*
X143371309Y-91474053D01*
X143392750Y-91473000D01*
X143830250Y-91473000D01*
X143851691Y-91474053D01*
X143851691Y-91474053D01*
G37*
D11*
X143611500Y-91948000D03*
D10*
G36*
X145426691Y-91474053D02*
X145447926Y-91477203D01*
X145468750Y-91482419D01*
X145488962Y-91489651D01*
X145508368Y-91498830D01*
X145526781Y-91509866D01*
X145544024Y-91522654D01*
X145559930Y-91537070D01*
X145574346Y-91552976D01*
X145587134Y-91570219D01*
X145598170Y-91588632D01*
X145607349Y-91608038D01*
X145614581Y-91628250D01*
X145619797Y-91649074D01*
X145622947Y-91670309D01*
X145624000Y-91691750D01*
X145624000Y-92204250D01*
X145622947Y-92225691D01*
X145619797Y-92246926D01*
X145614581Y-92267750D01*
X145607349Y-92287962D01*
X145598170Y-92307368D01*
X145587134Y-92325781D01*
X145574346Y-92343024D01*
X145559930Y-92358930D01*
X145544024Y-92373346D01*
X145526781Y-92386134D01*
X145508368Y-92397170D01*
X145488962Y-92406349D01*
X145468750Y-92413581D01*
X145447926Y-92418797D01*
X145426691Y-92421947D01*
X145405250Y-92423000D01*
X144967750Y-92423000D01*
X144946309Y-92421947D01*
X144925074Y-92418797D01*
X144904250Y-92413581D01*
X144884038Y-92406349D01*
X144864632Y-92397170D01*
X144846219Y-92386134D01*
X144828976Y-92373346D01*
X144813070Y-92358930D01*
X144798654Y-92343024D01*
X144785866Y-92325781D01*
X144774830Y-92307368D01*
X144765651Y-92287962D01*
X144758419Y-92267750D01*
X144753203Y-92246926D01*
X144750053Y-92225691D01*
X144749000Y-92204250D01*
X144749000Y-91691750D01*
X144750053Y-91670309D01*
X144753203Y-91649074D01*
X144758419Y-91628250D01*
X144765651Y-91608038D01*
X144774830Y-91588632D01*
X144785866Y-91570219D01*
X144798654Y-91552976D01*
X144813070Y-91537070D01*
X144828976Y-91522654D01*
X144846219Y-91509866D01*
X144864632Y-91498830D01*
X144884038Y-91489651D01*
X144904250Y-91482419D01*
X144925074Y-91477203D01*
X144946309Y-91474053D01*
X144967750Y-91473000D01*
X145405250Y-91473000D01*
X145426691Y-91474053D01*
X145426691Y-91474053D01*
G37*
D11*
X145186500Y-91948000D03*
G04 #@! TD*
D10*
G04 #@! TO.C,C19*
G36*
X145680691Y-85251053D02*
X145701926Y-85254203D01*
X145722750Y-85259419D01*
X145742962Y-85266651D01*
X145762368Y-85275830D01*
X145780781Y-85286866D01*
X145798024Y-85299654D01*
X145813930Y-85314070D01*
X145828346Y-85329976D01*
X145841134Y-85347219D01*
X145852170Y-85365632D01*
X145861349Y-85385038D01*
X145868581Y-85405250D01*
X145873797Y-85426074D01*
X145876947Y-85447309D01*
X145878000Y-85468750D01*
X145878000Y-85981250D01*
X145876947Y-86002691D01*
X145873797Y-86023926D01*
X145868581Y-86044750D01*
X145861349Y-86064962D01*
X145852170Y-86084368D01*
X145841134Y-86102781D01*
X145828346Y-86120024D01*
X145813930Y-86135930D01*
X145798024Y-86150346D01*
X145780781Y-86163134D01*
X145762368Y-86174170D01*
X145742962Y-86183349D01*
X145722750Y-86190581D01*
X145701926Y-86195797D01*
X145680691Y-86198947D01*
X145659250Y-86200000D01*
X145221750Y-86200000D01*
X145200309Y-86198947D01*
X145179074Y-86195797D01*
X145158250Y-86190581D01*
X145138038Y-86183349D01*
X145118632Y-86174170D01*
X145100219Y-86163134D01*
X145082976Y-86150346D01*
X145067070Y-86135930D01*
X145052654Y-86120024D01*
X145039866Y-86102781D01*
X145028830Y-86084368D01*
X145019651Y-86064962D01*
X145012419Y-86044750D01*
X145007203Y-86023926D01*
X145004053Y-86002691D01*
X145003000Y-85981250D01*
X145003000Y-85468750D01*
X145004053Y-85447309D01*
X145007203Y-85426074D01*
X145012419Y-85405250D01*
X145019651Y-85385038D01*
X145028830Y-85365632D01*
X145039866Y-85347219D01*
X145052654Y-85329976D01*
X145067070Y-85314070D01*
X145082976Y-85299654D01*
X145100219Y-85286866D01*
X145118632Y-85275830D01*
X145138038Y-85266651D01*
X145158250Y-85259419D01*
X145179074Y-85254203D01*
X145200309Y-85251053D01*
X145221750Y-85250000D01*
X145659250Y-85250000D01*
X145680691Y-85251053D01*
X145680691Y-85251053D01*
G37*
D11*
X145440500Y-85725000D03*
D10*
G36*
X144105691Y-85251053D02*
X144126926Y-85254203D01*
X144147750Y-85259419D01*
X144167962Y-85266651D01*
X144187368Y-85275830D01*
X144205781Y-85286866D01*
X144223024Y-85299654D01*
X144238930Y-85314070D01*
X144253346Y-85329976D01*
X144266134Y-85347219D01*
X144277170Y-85365632D01*
X144286349Y-85385038D01*
X144293581Y-85405250D01*
X144298797Y-85426074D01*
X144301947Y-85447309D01*
X144303000Y-85468750D01*
X144303000Y-85981250D01*
X144301947Y-86002691D01*
X144298797Y-86023926D01*
X144293581Y-86044750D01*
X144286349Y-86064962D01*
X144277170Y-86084368D01*
X144266134Y-86102781D01*
X144253346Y-86120024D01*
X144238930Y-86135930D01*
X144223024Y-86150346D01*
X144205781Y-86163134D01*
X144187368Y-86174170D01*
X144167962Y-86183349D01*
X144147750Y-86190581D01*
X144126926Y-86195797D01*
X144105691Y-86198947D01*
X144084250Y-86200000D01*
X143646750Y-86200000D01*
X143625309Y-86198947D01*
X143604074Y-86195797D01*
X143583250Y-86190581D01*
X143563038Y-86183349D01*
X143543632Y-86174170D01*
X143525219Y-86163134D01*
X143507976Y-86150346D01*
X143492070Y-86135930D01*
X143477654Y-86120024D01*
X143464866Y-86102781D01*
X143453830Y-86084368D01*
X143444651Y-86064962D01*
X143437419Y-86044750D01*
X143432203Y-86023926D01*
X143429053Y-86002691D01*
X143428000Y-85981250D01*
X143428000Y-85468750D01*
X143429053Y-85447309D01*
X143432203Y-85426074D01*
X143437419Y-85405250D01*
X143444651Y-85385038D01*
X143453830Y-85365632D01*
X143464866Y-85347219D01*
X143477654Y-85329976D01*
X143492070Y-85314070D01*
X143507976Y-85299654D01*
X143525219Y-85286866D01*
X143543632Y-85275830D01*
X143563038Y-85266651D01*
X143583250Y-85259419D01*
X143604074Y-85254203D01*
X143625309Y-85251053D01*
X143646750Y-85250000D01*
X144084250Y-85250000D01*
X144105691Y-85251053D01*
X144105691Y-85251053D01*
G37*
D11*
X143865500Y-85725000D03*
G04 #@! TD*
D10*
G04 #@! TO.C,L1*
G36*
X158482191Y-86648053D02*
X158503426Y-86651203D01*
X158524250Y-86656419D01*
X158544462Y-86663651D01*
X158563868Y-86672830D01*
X158582281Y-86683866D01*
X158599524Y-86696654D01*
X158615430Y-86711070D01*
X158629846Y-86726976D01*
X158642634Y-86744219D01*
X158653670Y-86762632D01*
X158662849Y-86782038D01*
X158670081Y-86802250D01*
X158675297Y-86823074D01*
X158678447Y-86844309D01*
X158679500Y-86865750D01*
X158679500Y-87378250D01*
X158678447Y-87399691D01*
X158675297Y-87420926D01*
X158670081Y-87441750D01*
X158662849Y-87461962D01*
X158653670Y-87481368D01*
X158642634Y-87499781D01*
X158629846Y-87517024D01*
X158615430Y-87532930D01*
X158599524Y-87547346D01*
X158582281Y-87560134D01*
X158563868Y-87571170D01*
X158544462Y-87580349D01*
X158524250Y-87587581D01*
X158503426Y-87592797D01*
X158482191Y-87595947D01*
X158460750Y-87597000D01*
X158023250Y-87597000D01*
X158001809Y-87595947D01*
X157980574Y-87592797D01*
X157959750Y-87587581D01*
X157939538Y-87580349D01*
X157920132Y-87571170D01*
X157901719Y-87560134D01*
X157884476Y-87547346D01*
X157868570Y-87532930D01*
X157854154Y-87517024D01*
X157841366Y-87499781D01*
X157830330Y-87481368D01*
X157821151Y-87461962D01*
X157813919Y-87441750D01*
X157808703Y-87420926D01*
X157805553Y-87399691D01*
X157804500Y-87378250D01*
X157804500Y-86865750D01*
X157805553Y-86844309D01*
X157808703Y-86823074D01*
X157813919Y-86802250D01*
X157821151Y-86782038D01*
X157830330Y-86762632D01*
X157841366Y-86744219D01*
X157854154Y-86726976D01*
X157868570Y-86711070D01*
X157884476Y-86696654D01*
X157901719Y-86683866D01*
X157920132Y-86672830D01*
X157939538Y-86663651D01*
X157959750Y-86656419D01*
X157980574Y-86651203D01*
X158001809Y-86648053D01*
X158023250Y-86647000D01*
X158460750Y-86647000D01*
X158482191Y-86648053D01*
X158482191Y-86648053D01*
G37*
D11*
X158242000Y-87122000D03*
D10*
G36*
X160057191Y-86648053D02*
X160078426Y-86651203D01*
X160099250Y-86656419D01*
X160119462Y-86663651D01*
X160138868Y-86672830D01*
X160157281Y-86683866D01*
X160174524Y-86696654D01*
X160190430Y-86711070D01*
X160204846Y-86726976D01*
X160217634Y-86744219D01*
X160228670Y-86762632D01*
X160237849Y-86782038D01*
X160245081Y-86802250D01*
X160250297Y-86823074D01*
X160253447Y-86844309D01*
X160254500Y-86865750D01*
X160254500Y-87378250D01*
X160253447Y-87399691D01*
X160250297Y-87420926D01*
X160245081Y-87441750D01*
X160237849Y-87461962D01*
X160228670Y-87481368D01*
X160217634Y-87499781D01*
X160204846Y-87517024D01*
X160190430Y-87532930D01*
X160174524Y-87547346D01*
X160157281Y-87560134D01*
X160138868Y-87571170D01*
X160119462Y-87580349D01*
X160099250Y-87587581D01*
X160078426Y-87592797D01*
X160057191Y-87595947D01*
X160035750Y-87597000D01*
X159598250Y-87597000D01*
X159576809Y-87595947D01*
X159555574Y-87592797D01*
X159534750Y-87587581D01*
X159514538Y-87580349D01*
X159495132Y-87571170D01*
X159476719Y-87560134D01*
X159459476Y-87547346D01*
X159443570Y-87532930D01*
X159429154Y-87517024D01*
X159416366Y-87499781D01*
X159405330Y-87481368D01*
X159396151Y-87461962D01*
X159388919Y-87441750D01*
X159383703Y-87420926D01*
X159380553Y-87399691D01*
X159379500Y-87378250D01*
X159379500Y-86865750D01*
X159380553Y-86844309D01*
X159383703Y-86823074D01*
X159388919Y-86802250D01*
X159396151Y-86782038D01*
X159405330Y-86762632D01*
X159416366Y-86744219D01*
X159429154Y-86726976D01*
X159443570Y-86711070D01*
X159459476Y-86696654D01*
X159476719Y-86683866D01*
X159495132Y-86672830D01*
X159514538Y-86663651D01*
X159534750Y-86656419D01*
X159555574Y-86651203D01*
X159576809Y-86648053D01*
X159598250Y-86647000D01*
X160035750Y-86647000D01*
X160057191Y-86648053D01*
X160057191Y-86648053D01*
G37*
D11*
X159817000Y-87122000D03*
G04 #@! TD*
D10*
G04 #@! TO.C,R2*
G36*
X137628691Y-85251053D02*
X137649926Y-85254203D01*
X137670750Y-85259419D01*
X137690962Y-85266651D01*
X137710368Y-85275830D01*
X137728781Y-85286866D01*
X137746024Y-85299654D01*
X137761930Y-85314070D01*
X137776346Y-85329976D01*
X137789134Y-85347219D01*
X137800170Y-85365632D01*
X137809349Y-85385038D01*
X137816581Y-85405250D01*
X137821797Y-85426074D01*
X137824947Y-85447309D01*
X137826000Y-85468750D01*
X137826000Y-85981250D01*
X137824947Y-86002691D01*
X137821797Y-86023926D01*
X137816581Y-86044750D01*
X137809349Y-86064962D01*
X137800170Y-86084368D01*
X137789134Y-86102781D01*
X137776346Y-86120024D01*
X137761930Y-86135930D01*
X137746024Y-86150346D01*
X137728781Y-86163134D01*
X137710368Y-86174170D01*
X137690962Y-86183349D01*
X137670750Y-86190581D01*
X137649926Y-86195797D01*
X137628691Y-86198947D01*
X137607250Y-86200000D01*
X137169750Y-86200000D01*
X137148309Y-86198947D01*
X137127074Y-86195797D01*
X137106250Y-86190581D01*
X137086038Y-86183349D01*
X137066632Y-86174170D01*
X137048219Y-86163134D01*
X137030976Y-86150346D01*
X137015070Y-86135930D01*
X137000654Y-86120024D01*
X136987866Y-86102781D01*
X136976830Y-86084368D01*
X136967651Y-86064962D01*
X136960419Y-86044750D01*
X136955203Y-86023926D01*
X136952053Y-86002691D01*
X136951000Y-85981250D01*
X136951000Y-85468750D01*
X136952053Y-85447309D01*
X136955203Y-85426074D01*
X136960419Y-85405250D01*
X136967651Y-85385038D01*
X136976830Y-85365632D01*
X136987866Y-85347219D01*
X137000654Y-85329976D01*
X137015070Y-85314070D01*
X137030976Y-85299654D01*
X137048219Y-85286866D01*
X137066632Y-85275830D01*
X137086038Y-85266651D01*
X137106250Y-85259419D01*
X137127074Y-85254203D01*
X137148309Y-85251053D01*
X137169750Y-85250000D01*
X137607250Y-85250000D01*
X137628691Y-85251053D01*
X137628691Y-85251053D01*
G37*
D11*
X137388500Y-85725000D03*
D10*
G36*
X139203691Y-85251053D02*
X139224926Y-85254203D01*
X139245750Y-85259419D01*
X139265962Y-85266651D01*
X139285368Y-85275830D01*
X139303781Y-85286866D01*
X139321024Y-85299654D01*
X139336930Y-85314070D01*
X139351346Y-85329976D01*
X139364134Y-85347219D01*
X139375170Y-85365632D01*
X139384349Y-85385038D01*
X139391581Y-85405250D01*
X139396797Y-85426074D01*
X139399947Y-85447309D01*
X139401000Y-85468750D01*
X139401000Y-85981250D01*
X139399947Y-86002691D01*
X139396797Y-86023926D01*
X139391581Y-86044750D01*
X139384349Y-86064962D01*
X139375170Y-86084368D01*
X139364134Y-86102781D01*
X139351346Y-86120024D01*
X139336930Y-86135930D01*
X139321024Y-86150346D01*
X139303781Y-86163134D01*
X139285368Y-86174170D01*
X139265962Y-86183349D01*
X139245750Y-86190581D01*
X139224926Y-86195797D01*
X139203691Y-86198947D01*
X139182250Y-86200000D01*
X138744750Y-86200000D01*
X138723309Y-86198947D01*
X138702074Y-86195797D01*
X138681250Y-86190581D01*
X138661038Y-86183349D01*
X138641632Y-86174170D01*
X138623219Y-86163134D01*
X138605976Y-86150346D01*
X138590070Y-86135930D01*
X138575654Y-86120024D01*
X138562866Y-86102781D01*
X138551830Y-86084368D01*
X138542651Y-86064962D01*
X138535419Y-86044750D01*
X138530203Y-86023926D01*
X138527053Y-86002691D01*
X138526000Y-85981250D01*
X138526000Y-85468750D01*
X138527053Y-85447309D01*
X138530203Y-85426074D01*
X138535419Y-85405250D01*
X138542651Y-85385038D01*
X138551830Y-85365632D01*
X138562866Y-85347219D01*
X138575654Y-85329976D01*
X138590070Y-85314070D01*
X138605976Y-85299654D01*
X138623219Y-85286866D01*
X138641632Y-85275830D01*
X138661038Y-85266651D01*
X138681250Y-85259419D01*
X138702074Y-85254203D01*
X138723309Y-85251053D01*
X138744750Y-85250000D01*
X139182250Y-85250000D01*
X139203691Y-85251053D01*
X139203691Y-85251053D01*
G37*
D11*
X138963500Y-85725000D03*
G04 #@! TD*
D10*
G04 #@! TO.C,R3*
G36*
X171600691Y-81986553D02*
X171621926Y-81989703D01*
X171642750Y-81994919D01*
X171662962Y-82002151D01*
X171682368Y-82011330D01*
X171700781Y-82022366D01*
X171718024Y-82035154D01*
X171733930Y-82049570D01*
X171748346Y-82065476D01*
X171761134Y-82082719D01*
X171772170Y-82101132D01*
X171781349Y-82120538D01*
X171788581Y-82140750D01*
X171793797Y-82161574D01*
X171796947Y-82182809D01*
X171798000Y-82204250D01*
X171798000Y-82641750D01*
X171796947Y-82663191D01*
X171793797Y-82684426D01*
X171788581Y-82705250D01*
X171781349Y-82725462D01*
X171772170Y-82744868D01*
X171761134Y-82763281D01*
X171748346Y-82780524D01*
X171733930Y-82796430D01*
X171718024Y-82810846D01*
X171700781Y-82823634D01*
X171682368Y-82834670D01*
X171662962Y-82843849D01*
X171642750Y-82851081D01*
X171621926Y-82856297D01*
X171600691Y-82859447D01*
X171579250Y-82860500D01*
X171066750Y-82860500D01*
X171045309Y-82859447D01*
X171024074Y-82856297D01*
X171003250Y-82851081D01*
X170983038Y-82843849D01*
X170963632Y-82834670D01*
X170945219Y-82823634D01*
X170927976Y-82810846D01*
X170912070Y-82796430D01*
X170897654Y-82780524D01*
X170884866Y-82763281D01*
X170873830Y-82744868D01*
X170864651Y-82725462D01*
X170857419Y-82705250D01*
X170852203Y-82684426D01*
X170849053Y-82663191D01*
X170848000Y-82641750D01*
X170848000Y-82204250D01*
X170849053Y-82182809D01*
X170852203Y-82161574D01*
X170857419Y-82140750D01*
X170864651Y-82120538D01*
X170873830Y-82101132D01*
X170884866Y-82082719D01*
X170897654Y-82065476D01*
X170912070Y-82049570D01*
X170927976Y-82035154D01*
X170945219Y-82022366D01*
X170963632Y-82011330D01*
X170983038Y-82002151D01*
X171003250Y-81994919D01*
X171024074Y-81989703D01*
X171045309Y-81986553D01*
X171066750Y-81985500D01*
X171579250Y-81985500D01*
X171600691Y-81986553D01*
X171600691Y-81986553D01*
G37*
D11*
X171323000Y-82423000D03*
D10*
G36*
X171600691Y-83561553D02*
X171621926Y-83564703D01*
X171642750Y-83569919D01*
X171662962Y-83577151D01*
X171682368Y-83586330D01*
X171700781Y-83597366D01*
X171718024Y-83610154D01*
X171733930Y-83624570D01*
X171748346Y-83640476D01*
X171761134Y-83657719D01*
X171772170Y-83676132D01*
X171781349Y-83695538D01*
X171788581Y-83715750D01*
X171793797Y-83736574D01*
X171796947Y-83757809D01*
X171798000Y-83779250D01*
X171798000Y-84216750D01*
X171796947Y-84238191D01*
X171793797Y-84259426D01*
X171788581Y-84280250D01*
X171781349Y-84300462D01*
X171772170Y-84319868D01*
X171761134Y-84338281D01*
X171748346Y-84355524D01*
X171733930Y-84371430D01*
X171718024Y-84385846D01*
X171700781Y-84398634D01*
X171682368Y-84409670D01*
X171662962Y-84418849D01*
X171642750Y-84426081D01*
X171621926Y-84431297D01*
X171600691Y-84434447D01*
X171579250Y-84435500D01*
X171066750Y-84435500D01*
X171045309Y-84434447D01*
X171024074Y-84431297D01*
X171003250Y-84426081D01*
X170983038Y-84418849D01*
X170963632Y-84409670D01*
X170945219Y-84398634D01*
X170927976Y-84385846D01*
X170912070Y-84371430D01*
X170897654Y-84355524D01*
X170884866Y-84338281D01*
X170873830Y-84319868D01*
X170864651Y-84300462D01*
X170857419Y-84280250D01*
X170852203Y-84259426D01*
X170849053Y-84238191D01*
X170848000Y-84216750D01*
X170848000Y-83779250D01*
X170849053Y-83757809D01*
X170852203Y-83736574D01*
X170857419Y-83715750D01*
X170864651Y-83695538D01*
X170873830Y-83676132D01*
X170884866Y-83657719D01*
X170897654Y-83640476D01*
X170912070Y-83624570D01*
X170927976Y-83610154D01*
X170945219Y-83597366D01*
X170963632Y-83586330D01*
X170983038Y-83577151D01*
X171003250Y-83569919D01*
X171024074Y-83564703D01*
X171045309Y-83561553D01*
X171066750Y-83560500D01*
X171579250Y-83560500D01*
X171600691Y-83561553D01*
X171600691Y-83561553D01*
G37*
D11*
X171323000Y-83998000D03*
G04 #@! TD*
D10*
G04 #@! TO.C,R4*
G36*
X173124691Y-83561553D02*
X173145926Y-83564703D01*
X173166750Y-83569919D01*
X173186962Y-83577151D01*
X173206368Y-83586330D01*
X173224781Y-83597366D01*
X173242024Y-83610154D01*
X173257930Y-83624570D01*
X173272346Y-83640476D01*
X173285134Y-83657719D01*
X173296170Y-83676132D01*
X173305349Y-83695538D01*
X173312581Y-83715750D01*
X173317797Y-83736574D01*
X173320947Y-83757809D01*
X173322000Y-83779250D01*
X173322000Y-84216750D01*
X173320947Y-84238191D01*
X173317797Y-84259426D01*
X173312581Y-84280250D01*
X173305349Y-84300462D01*
X173296170Y-84319868D01*
X173285134Y-84338281D01*
X173272346Y-84355524D01*
X173257930Y-84371430D01*
X173242024Y-84385846D01*
X173224781Y-84398634D01*
X173206368Y-84409670D01*
X173186962Y-84418849D01*
X173166750Y-84426081D01*
X173145926Y-84431297D01*
X173124691Y-84434447D01*
X173103250Y-84435500D01*
X172590750Y-84435500D01*
X172569309Y-84434447D01*
X172548074Y-84431297D01*
X172527250Y-84426081D01*
X172507038Y-84418849D01*
X172487632Y-84409670D01*
X172469219Y-84398634D01*
X172451976Y-84385846D01*
X172436070Y-84371430D01*
X172421654Y-84355524D01*
X172408866Y-84338281D01*
X172397830Y-84319868D01*
X172388651Y-84300462D01*
X172381419Y-84280250D01*
X172376203Y-84259426D01*
X172373053Y-84238191D01*
X172372000Y-84216750D01*
X172372000Y-83779250D01*
X172373053Y-83757809D01*
X172376203Y-83736574D01*
X172381419Y-83715750D01*
X172388651Y-83695538D01*
X172397830Y-83676132D01*
X172408866Y-83657719D01*
X172421654Y-83640476D01*
X172436070Y-83624570D01*
X172451976Y-83610154D01*
X172469219Y-83597366D01*
X172487632Y-83586330D01*
X172507038Y-83577151D01*
X172527250Y-83569919D01*
X172548074Y-83564703D01*
X172569309Y-83561553D01*
X172590750Y-83560500D01*
X173103250Y-83560500D01*
X173124691Y-83561553D01*
X173124691Y-83561553D01*
G37*
D11*
X172847000Y-83998000D03*
D10*
G36*
X173124691Y-81986553D02*
X173145926Y-81989703D01*
X173166750Y-81994919D01*
X173186962Y-82002151D01*
X173206368Y-82011330D01*
X173224781Y-82022366D01*
X173242024Y-82035154D01*
X173257930Y-82049570D01*
X173272346Y-82065476D01*
X173285134Y-82082719D01*
X173296170Y-82101132D01*
X173305349Y-82120538D01*
X173312581Y-82140750D01*
X173317797Y-82161574D01*
X173320947Y-82182809D01*
X173322000Y-82204250D01*
X173322000Y-82641750D01*
X173320947Y-82663191D01*
X173317797Y-82684426D01*
X173312581Y-82705250D01*
X173305349Y-82725462D01*
X173296170Y-82744868D01*
X173285134Y-82763281D01*
X173272346Y-82780524D01*
X173257930Y-82796430D01*
X173242024Y-82810846D01*
X173224781Y-82823634D01*
X173206368Y-82834670D01*
X173186962Y-82843849D01*
X173166750Y-82851081D01*
X173145926Y-82856297D01*
X173124691Y-82859447D01*
X173103250Y-82860500D01*
X172590750Y-82860500D01*
X172569309Y-82859447D01*
X172548074Y-82856297D01*
X172527250Y-82851081D01*
X172507038Y-82843849D01*
X172487632Y-82834670D01*
X172469219Y-82823634D01*
X172451976Y-82810846D01*
X172436070Y-82796430D01*
X172421654Y-82780524D01*
X172408866Y-82763281D01*
X172397830Y-82744868D01*
X172388651Y-82725462D01*
X172381419Y-82705250D01*
X172376203Y-82684426D01*
X172373053Y-82663191D01*
X172372000Y-82641750D01*
X172372000Y-82204250D01*
X172373053Y-82182809D01*
X172376203Y-82161574D01*
X172381419Y-82140750D01*
X172388651Y-82120538D01*
X172397830Y-82101132D01*
X172408866Y-82082719D01*
X172421654Y-82065476D01*
X172436070Y-82049570D01*
X172451976Y-82035154D01*
X172469219Y-82022366D01*
X172487632Y-82011330D01*
X172507038Y-82002151D01*
X172527250Y-81994919D01*
X172548074Y-81989703D01*
X172569309Y-81986553D01*
X172590750Y-81985500D01*
X173103250Y-81985500D01*
X173124691Y-81986553D01*
X173124691Y-81986553D01*
G37*
D11*
X172847000Y-82423000D03*
G04 #@! TD*
D10*
G04 #@! TO.C,R5*
G36*
X162329691Y-80183053D02*
X162350926Y-80186203D01*
X162371750Y-80191419D01*
X162391962Y-80198651D01*
X162411368Y-80207830D01*
X162429781Y-80218866D01*
X162447024Y-80231654D01*
X162462930Y-80246070D01*
X162477346Y-80261976D01*
X162490134Y-80279219D01*
X162501170Y-80297632D01*
X162510349Y-80317038D01*
X162517581Y-80337250D01*
X162522797Y-80358074D01*
X162525947Y-80379309D01*
X162527000Y-80400750D01*
X162527000Y-80838250D01*
X162525947Y-80859691D01*
X162522797Y-80880926D01*
X162517581Y-80901750D01*
X162510349Y-80921962D01*
X162501170Y-80941368D01*
X162490134Y-80959781D01*
X162477346Y-80977024D01*
X162462930Y-80992930D01*
X162447024Y-81007346D01*
X162429781Y-81020134D01*
X162411368Y-81031170D01*
X162391962Y-81040349D01*
X162371750Y-81047581D01*
X162350926Y-81052797D01*
X162329691Y-81055947D01*
X162308250Y-81057000D01*
X161795750Y-81057000D01*
X161774309Y-81055947D01*
X161753074Y-81052797D01*
X161732250Y-81047581D01*
X161712038Y-81040349D01*
X161692632Y-81031170D01*
X161674219Y-81020134D01*
X161656976Y-81007346D01*
X161641070Y-80992930D01*
X161626654Y-80977024D01*
X161613866Y-80959781D01*
X161602830Y-80941368D01*
X161593651Y-80921962D01*
X161586419Y-80901750D01*
X161581203Y-80880926D01*
X161578053Y-80859691D01*
X161577000Y-80838250D01*
X161577000Y-80400750D01*
X161578053Y-80379309D01*
X161581203Y-80358074D01*
X161586419Y-80337250D01*
X161593651Y-80317038D01*
X161602830Y-80297632D01*
X161613866Y-80279219D01*
X161626654Y-80261976D01*
X161641070Y-80246070D01*
X161656976Y-80231654D01*
X161674219Y-80218866D01*
X161692632Y-80207830D01*
X161712038Y-80198651D01*
X161732250Y-80191419D01*
X161753074Y-80186203D01*
X161774309Y-80183053D01*
X161795750Y-80182000D01*
X162308250Y-80182000D01*
X162329691Y-80183053D01*
X162329691Y-80183053D01*
G37*
D11*
X162052000Y-80619500D03*
D10*
G36*
X162329691Y-81758053D02*
X162350926Y-81761203D01*
X162371750Y-81766419D01*
X162391962Y-81773651D01*
X162411368Y-81782830D01*
X162429781Y-81793866D01*
X162447024Y-81806654D01*
X162462930Y-81821070D01*
X162477346Y-81836976D01*
X162490134Y-81854219D01*
X162501170Y-81872632D01*
X162510349Y-81892038D01*
X162517581Y-81912250D01*
X162522797Y-81933074D01*
X162525947Y-81954309D01*
X162527000Y-81975750D01*
X162527000Y-82413250D01*
X162525947Y-82434691D01*
X162522797Y-82455926D01*
X162517581Y-82476750D01*
X162510349Y-82496962D01*
X162501170Y-82516368D01*
X162490134Y-82534781D01*
X162477346Y-82552024D01*
X162462930Y-82567930D01*
X162447024Y-82582346D01*
X162429781Y-82595134D01*
X162411368Y-82606170D01*
X162391962Y-82615349D01*
X162371750Y-82622581D01*
X162350926Y-82627797D01*
X162329691Y-82630947D01*
X162308250Y-82632000D01*
X161795750Y-82632000D01*
X161774309Y-82630947D01*
X161753074Y-82627797D01*
X161732250Y-82622581D01*
X161712038Y-82615349D01*
X161692632Y-82606170D01*
X161674219Y-82595134D01*
X161656976Y-82582346D01*
X161641070Y-82567930D01*
X161626654Y-82552024D01*
X161613866Y-82534781D01*
X161602830Y-82516368D01*
X161593651Y-82496962D01*
X161586419Y-82476750D01*
X161581203Y-82455926D01*
X161578053Y-82434691D01*
X161577000Y-82413250D01*
X161577000Y-81975750D01*
X161578053Y-81954309D01*
X161581203Y-81933074D01*
X161586419Y-81912250D01*
X161593651Y-81892038D01*
X161602830Y-81872632D01*
X161613866Y-81854219D01*
X161626654Y-81836976D01*
X161641070Y-81821070D01*
X161656976Y-81806654D01*
X161674219Y-81793866D01*
X161692632Y-81782830D01*
X161712038Y-81773651D01*
X161732250Y-81766419D01*
X161753074Y-81761203D01*
X161774309Y-81758053D01*
X161795750Y-81757000D01*
X162308250Y-81757000D01*
X162329691Y-81758053D01*
X162329691Y-81758053D01*
G37*
D11*
X162052000Y-82194500D03*
G04 #@! TD*
D12*
G04 #@! TO.C,Y2*
X140320000Y-88839000D03*
G04 #@! TD*
M02*
